<?xml version="1.0" encoding="UTF-8"?>
<svg id="Layer_2" data-name="Layer 2" xmlns="http://www.w3.org/2000/svg" xmlns:xlink="http://www.w3.org/1999/xlink" viewBox="0 0 188.56 255.5">
  <defs>
    <style>
      .cls-1 {
        fill: url(#_ÂÁ_Ï_ÌÌ_È_ËÂÌÚ_2172-9);
      }

      .cls-2 {
        fill: url(#_ÂÁ_Ï_ÌÌ_È_ËÂÌÚ_2172-2);
      }

      .cls-3 {
        fill: url(#_ÂÁ_Ï_ÌÌ_È_ËÂÌÚ_2172-6);
      }

      .cls-4 {
        fill: url(#_ÂÁ_Ï_ÌÌ_È_ËÂÌÚ_2172-4);
      }

      .cls-5 {
        fill: url(#_ÂÁ_Ï_ÌÌ_È_ËÂÌÚ_2172-5);
      }

      .cls-6 {
        fill: url(#_ÂÁ_Ï_ÌÌ_È_ËÂÌÚ_2172-7);
      }

      .cls-7 {
        fill: url(#_ÂÁ_Ï_ÌÌ_È_ËÂÌÚ_2172-8);
      }

      .cls-8 {
        fill: url(#_ÂÁ_Ï_ÌÌ_È_ËÂÌÚ_2172-3);
      }

      .cls-9 {
        fill: url(#_ÂÁ_Ï_ÌÌ_È_ËÂÌÚ_2381-2);
      }

      .cls-10 {
        fill: url(#_ÂÁ_Ï_ÌÌ_È_ËÂÌÚ_2381-3);
      }

      .cls-11 {
        fill: url(#_ÂÁ_Ï_ÌÌ_È_ËÂÌÚ_2381-5);
      }

      .cls-12 {
        fill: url(#_ÂÁ_Ï_ÌÌ_È_ËÂÌÚ_2381-6);
      }

      .cls-13 {
        fill: url(#_ÂÁ_Ï_ÌÌ_È_ËÂÌÚ_2381-7);
      }

      .cls-14 {
        fill: url(#_ÂÁ_Ï_ÌÌ_È_ËÂÌÚ_2381-4);
      }

      .cls-15 {
        fill: url(#_ÂÁ_Ï_ÌÌ_È_ËÂÌÚ_2381-9);
      }

      .cls-16 {
        fill: url(#_ÂÁ_Ï_ÌÌ_È_ËÂÌÚ_2381-8);
      }

      .cls-17 {
        fill: url(#_ÂÁ_Ï_ÌÌ_È_ËÂÌÚ_2381-10);
      }

      .cls-18 {
        fill: url(#_ÂÁ_Ï_ÌÌ_È_ËÂÌÚ_2172-13);
      }

      .cls-19 {
        fill: url(#_ÂÁ_Ï_ÌÌ_È_ËÂÌÚ_2172-18);
      }

      .cls-20 {
        fill: url(#_ÂÁ_Ï_ÌÌ_È_ËÂÌÚ_2172-15);
      }

      .cls-21 {
        fill: url(#_ÂÁ_Ï_ÌÌ_È_ËÂÌÚ_2172-16);
      }

      .cls-22 {
        fill: url(#_ÂÁ_Ï_ÌÌ_È_ËÂÌÚ_2172-12);
      }

      .cls-23 {
        fill: url(#_ÂÁ_Ï_ÌÌ_È_ËÂÌÚ_2172-17);
      }

      .cls-24 {
        fill: url(#_ÂÁ_Ï_ÌÌ_È_ËÂÌÚ_2172-14);
      }

      .cls-25 {
        fill: url(#_ÂÁ_Ï_ÌÌ_È_ËÂÌÚ_2172-11);
      }

      .cls-26 {
        fill: url(#_ÂÁ_Ï_ÌÌ_È_ËÂÌÚ_2172-10);
      }

      .cls-27 {
        fill: url(#_ÂÁ_Ï_ÌÌ_È_ËÂÌÚ_2172);
      }

      .cls-28 {
        fill: url(#_ÂÁ_Ï_ÌÌ_È_ËÂÌÚ_2381);
      }

      .cls-29 {
        fill: url(#_ÂÁ_Ï_ÌÌ_È_ËÂÌÚ_2500);
      }

      .cls-30 {
        fill: url(#_ÂÁ_Ï_ÌÌ_È_ËÂÌÚ_2733);
      }
    </style>
    <linearGradient id="_ÂÁ_Ï_ÌÌ_È_ËÂÌÚ_2172" data-name="¡ÂÁ˚ÏˇÌÌ˚È „‡‰ËÂÌÚ 2172" x1="94.28" y1="248.87" x2="94.28" y2="10.8" gradientTransform="translate(0 3.4)" gradientUnits="userSpaceOnUse">
      <stop offset="0" stop-color="#6e0a0e"/>
      <stop offset="1" stop-color="#680945"/>
    </linearGradient>
    <linearGradient id="_ÂÁ_Ï_ÌÌ_È_ËÂÌÚ_2172-2" data-name="¡ÂÁ˚ÏˇÌÌ˚È „‡‰ËÂÌÚ 2172" y1="248.43" y2="10.36" gradientTransform="translate(0 3.2)" xlink:href="#_ÂÁ_Ï_ÌÌ_È_ËÂÌÚ_2172"/>
    <linearGradient id="_ÂÁ_Ï_ÌÌ_È_ËÂÌÚ_2172-3" data-name="¡ÂÁ˚ÏˇÌÌ˚È „‡‰ËÂÌÚ 2172" y1="247.99" y2="9.92" gradientTransform="translate(0 3)" xlink:href="#_ÂÁ_Ï_ÌÌ_È_ËÂÌÚ_2172"/>
    <linearGradient id="_ÂÁ_Ï_ÌÌ_È_ËÂÌÚ_2172-4" data-name="¡ÂÁ˚ÏˇÌÌ˚È „‡‰ËÂÌÚ 2172" y1="247.53" y2="9.47" gradientTransform="translate(0 2.8)" xlink:href="#_ÂÁ_Ï_ÌÌ_È_ËÂÌÚ_2172"/>
    <linearGradient id="_ÂÁ_Ï_ÌÌ_È_ËÂÌÚ_2172-5" data-name="¡ÂÁ˚ÏˇÌÌ˚È „‡‰ËÂÌÚ 2172" y1="247.08" y2="9.03" gradientTransform="translate(0 2.6)" xlink:href="#_ÂÁ_Ï_ÌÌ_È_ËÂÌÚ_2172"/>
    <linearGradient id="_ÂÁ_Ï_ÌÌ_È_ËÂÌÚ_2172-6" data-name="¡ÂÁ˚ÏˇÌÌ˚È „‡‰ËÂÌÚ 2172" y1="246.64" y2="8.58" gradientTransform="translate(0 2.4)" xlink:href="#_ÂÁ_Ï_ÌÌ_È_ËÂÌÚ_2172"/>
    <linearGradient id="_ÂÁ_Ï_ÌÌ_È_ËÂÌÚ_2172-7" data-name="¡ÂÁ˚ÏˇÌÌ˚È „‡‰ËÂÌÚ 2172" y1="246.21" y2="8.13" gradientTransform="translate(0 2.2)" xlink:href="#_ÂÁ_Ï_ÌÌ_È_ËÂÌÚ_2172"/>
    <linearGradient id="_ÂÁ_Ï_ÌÌ_È_ËÂÌÚ_2172-8" data-name="¡ÂÁ˚ÏˇÌÌ˚È „‡‰ËÂÌÚ 2172" y1="245.75" y2="7.69" gradientTransform="translate(0 2)" xlink:href="#_ÂÁ_Ï_ÌÌ_È_ËÂÌÚ_2172"/>
    <linearGradient id="_ÂÁ_Ï_ÌÌ_È_ËÂÌÚ_2172-9" data-name="¡ÂÁ˚ÏˇÌÌ˚È „‡‰ËÂÌÚ 2172" y1="245.31" y2="7.24" gradientTransform="translate(0 1.8)" xlink:href="#_ÂÁ_Ï_ÌÌ_È_ËÂÌÚ_2172"/>
    <linearGradient id="_ÂÁ_Ï_ÌÌ_È_ËÂÌÚ_2172-10" data-name="¡ÂÁ˚ÏˇÌÌ˚È „‡‰ËÂÌÚ 2172" y1="244.86" y2="6.8" gradientTransform="translate(0 1.6)" xlink:href="#_ÂÁ_Ï_ÌÌ_È_ËÂÌÚ_2172"/>
    <linearGradient id="_ÂÁ_Ï_ÌÌ_È_ËÂÌÚ_2172-11" data-name="¡ÂÁ˚ÏˇÌÌ˚È „‡‰ËÂÌÚ 2172" y1="244.42" y2="6.35" gradientTransform="translate(0 1.4)" xlink:href="#_ÂÁ_Ï_ÌÌ_È_ËÂÌÚ_2172"/>
    <linearGradient id="_ÂÁ_Ï_ÌÌ_È_ËÂÌÚ_2172-12" data-name="¡ÂÁ˚ÏˇÌÌ˚È „‡‰ËÂÌÚ 2172" y1="243.97" y2="5.9" gradientTransform="translate(0 1.2)" xlink:href="#_ÂÁ_Ï_ÌÌ_È_ËÂÌÚ_2172"/>
    <linearGradient id="_ÂÁ_Ï_ÌÌ_È_ËÂÌÚ_2172-13" data-name="¡ÂÁ˚ÏˇÌÌ˚È „‡‰ËÂÌÚ 2172" y1="243.53" y2="5.46" gradientTransform="translate(0 1)" xlink:href="#_ÂÁ_Ï_ÌÌ_È_ËÂÌÚ_2172"/>
    <linearGradient id="_ÂÁ_Ï_ÌÌ_È_ËÂÌÚ_2172-14" data-name="¡ÂÁ˚ÏˇÌÌ˚È „‡‰ËÂÌÚ 2172" y1="243.07" y2="5.01" gradientTransform="translate(0 .8)" xlink:href="#_ÂÁ_Ï_ÌÌ_È_ËÂÌÚ_2172"/>
    <linearGradient id="_ÂÁ_Ï_ÌÌ_È_ËÂÌÚ_2172-15" data-name="¡ÂÁ˚ÏˇÌÌ˚È „‡‰ËÂÌÚ 2172" y1="242.63" y2="4.57" gradientTransform="translate(0 .6)" xlink:href="#_ÂÁ_Ï_ÌÌ_È_ËÂÌÚ_2172"/>
    <linearGradient id="_ÂÁ_Ï_ÌÌ_È_ËÂÌÚ_2172-16" data-name="¡ÂÁ˚ÏˇÌÌ˚È „‡‰ËÂÌÚ 2172" y1="242.18" y2="4.12" gradientTransform="translate(0 .4)" xlink:href="#_ÂÁ_Ï_ÌÌ_È_ËÂÌÚ_2172"/>
    <linearGradient id="_ÂÁ_Ï_ÌÌ_È_ËÂÌÚ_2172-17" data-name="¡ÂÁ˚ÏˇÌÌ˚È „‡‰ËÂÌÚ 2172" y1="241.74" y2="3.67" gradientTransform="translate(0 .2)" xlink:href="#_ÂÁ_Ï_ÌÌ_È_ËÂÌÚ_2172"/>
    <linearGradient id="_ÂÁ_Ï_ÌÌ_È_ËÂÌÚ_2172-18" data-name="¡ÂÁ˚ÏˇÌÌ˚È „‡‰ËÂÌÚ 2172" y1="241.29" y2="3.23" gradientTransform="matrix(1,0,0,1,0,0)" xlink:href="#_ÂÁ_Ï_ÌÌ_È_ËÂÌÚ_2172"/>
    <linearGradient id="_ÂÁ_Ï_ÌÌ_È_ËÂÌÚ_2733" data-name="¡ÂÁ˚ÏˇÌÌ˚È „‡‰ËÂÌÚ 2733" x1="94.28" y1="241.29" x2="94.28" y2="3.23" gradientUnits="userSpaceOnUse">
      <stop offset="0" stop-color="#ec4700"/>
      <stop offset="1" stop-color="#ff9f0e"/>
    </linearGradient>
    <linearGradient id="_ÂÁ_Ï_ÌÌ_È_ËÂÌÚ_2381" data-name="¡ÂÁ˚ÏˇÌÌ˚È „‡‰ËÂÌÚ 2381" x1="94.28" y1="245.3" x2="94.28" y2="7.25" gradientTransform="translate(0 1.8)" gradientUnits="userSpaceOnUse">
      <stop offset="0" stop-color="#861d00"/>
      <stop offset="1" stop-color="#a7201b"/>
    </linearGradient>
    <linearGradient id="_ÂÁ_Ï_ÌÌ_È_ËÂÌÚ_2381-2" data-name="¡ÂÁ˚ÏˇÌÌ˚È „‡‰ËÂÌÚ 2381" y1="244.86" y2="6.79" gradientTransform="translate(0 1.6)" xlink:href="#_ÂÁ_Ï_ÌÌ_È_ËÂÌÚ_2381"/>
    <linearGradient id="_ÂÁ_Ï_ÌÌ_È_ËÂÌÚ_2381-3" data-name="¡ÂÁ˚ÏˇÌÌ˚È „‡‰ËÂÌÚ 2381" y1="244.41" y2="6.35" gradientTransform="translate(0 1.4)" xlink:href="#_ÂÁ_Ï_ÌÌ_È_ËÂÌÚ_2381"/>
    <linearGradient id="_ÂÁ_Ï_ÌÌ_È_ËÂÌÚ_2381-4" data-name="¡ÂÁ˚ÏˇÌÌ˚È „‡‰ËÂÌÚ 2381" y1="243.97" y2="5.9" gradientTransform="translate(0 1.2)" xlink:href="#_ÂÁ_Ï_ÌÌ_È_ËÂÌÚ_2381"/>
    <linearGradient id="_ÂÁ_Ï_ÌÌ_È_ËÂÌÚ_2381-5" data-name="¡ÂÁ˚ÏˇÌÌ˚È „‡‰ËÂÌÚ 2381" y1="243.52" y2="5.46" gradientTransform="translate(0 1)" xlink:href="#_ÂÁ_Ï_ÌÌ_È_ËÂÌÚ_2381"/>
    <linearGradient id="_ÂÁ_Ï_ÌÌ_È_ËÂÌÚ_2381-6" data-name="¡ÂÁ˚ÏˇÌÌ˚È „‡‰ËÂÌÚ 2381" y1="243.08" y2="5.01" gradientTransform="translate(0 .8)" xlink:href="#_ÂÁ_Ï_ÌÌ_È_ËÂÌÚ_2381"/>
    <linearGradient id="_ÂÁ_Ï_ÌÌ_È_ËÂÌÚ_2381-7" data-name="¡ÂÁ˚ÏˇÌÌ˚È „‡‰ËÂÌÚ 2381" y1="242.64" y2="4.57" gradientTransform="translate(0 .6)" xlink:href="#_ÂÁ_Ï_ÌÌ_È_ËÂÌÚ_2381"/>
    <linearGradient id="_ÂÁ_Ï_ÌÌ_È_ËÂÌÚ_2381-8" data-name="¡ÂÁ˚ÏˇÌÌ˚È „‡‰ËÂÌÚ 2381" y1="242.19" y2="4.12" gradientTransform="translate(0 .4)" xlink:href="#_ÂÁ_Ï_ÌÌ_È_ËÂÌÚ_2381"/>
    <linearGradient id="_ÂÁ_Ï_ÌÌ_È_ËÂÌÚ_2381-9" data-name="¡ÂÁ˚ÏˇÌÌ˚È „‡‰ËÂÌÚ 2381" y1="241.74" y2="3.68" gradientTransform="translate(0 .2)" xlink:href="#_ÂÁ_Ï_ÌÌ_È_ËÂÌÚ_2381"/>
    <linearGradient id="_ÂÁ_Ï_ÌÌ_È_ËÂÌÚ_2381-10" data-name="¡ÂÁ˚ÏˇÌÌ˚È „‡‰ËÂÌÚ 2381" y1="241.29" y2="3.23" gradientTransform="matrix(1,0,0,1,0,0)" xlink:href="#_ÂÁ_Ï_ÌÌ_È_ËÂÌÚ_2381"/>
    <linearGradient id="_ÂÁ_Ï_ÌÌ_È_ËÂÌÚ_2500" data-name="¡ÂÁ˚ÏˇÌÌ˚È „‡‰ËÂÌÚ 2500" x1="94.28" y1="241.29" x2="94.28" y2="3.23" gradientUnits="userSpaceOnUse">
      <stop offset="0" stop-color="#f87000"/>
      <stop offset="1" stop-color="#ffe800"/>
    </linearGradient>
  </defs>
  <g id="_Layer_" data-name="&amp;lt;Layer&amp;gt;">
    <g>
      <path d="M65.83,201.78l6.95-1.28c2.11,0,3.16,1.17,3.16,3.49,0,7.37-1.48,13.59-4.42,18.65-2.96,5.06-6.64,8.65-11.07,10.75-7.17,3.58-13.28,5.38-18.34,5.38-9.7,0-16.97-3.65-21.81-10.9-4.85-7.28-7.27-18.23-7.27-32.9s4-33.66,12.01-57.06H6.71c-2.32,0-3.48-1.16-3.48-3.48s1.79-6.06,5.38-11.22c3.58-5.16,7.37-7.74,11.38-7.74h14.23c14.96-33.3,32.56-62.07,52.8-86.31,5.27-6.33,11.75-12.23,19.44-17.71,7.69-5.48,13.64-8.22,17.86-8.22s7.38,1.9,9.48,5.68c5.48,8.86,11.9,41.22,19.29,97.06,2.53,24.03,6.9,48.85,13.12,74.46,6.21,25.61,11.96,40.53,17.23,44.73,1.27.85,1.9,1.9,1.9,3.17,0,3.15-4.48,6.1-13.44,8.85-8.96,2.73-15.81,4.11-20.55,4.11s-8.38-.57-10.91-1.74c-2.53-1.16-4.11-2.37-4.74-3.62-3.79-8.23-7.59-27.83-11.38-58.82l-1.9-14.86c-.84-9.9-1.69-17.38-2.53-22.44l-2.21-1.58-66.08-.32c-2.53,10.75-3.79,20.13-3.79,28.14s.26,13.86.79,17.55c.52,3.69,2.26,7.64,5.21,11.85,2.95,4.22,6.95,6.33,12.01,6.33ZM93.96,52.86c-16.65,20.87-28.67,41.73-36.04,62.6h.32c29.29,0,46.1.06,50.43.16,4.32.11,6.69-.05,7.11-.47.42-.42.74-.95.95-1.58-3.59-25.93-6.43-43.58-8.54-52.95-2.11-9.38-4.22-14.07-6.32-14.07s-4.74,2.11-7.91,6.32Z"/>
      <g>
        <path class="cls-27" d="M151.35,255.5c-5.25,0-9.26-.67-12.25-2.03-3.25-1.49-5.31-3.16-6.29-5.12-4.02-8.7-7.83-28.24-11.7-59.85l-1.9-14.85c-.77-9.05-1.54-16.07-2.3-21.01l-.28-.2-62.46-.29c-2.08,9.43-3.14,17.79-3.14,24.89,0,7.84.25,13.59.76,17.09.45,3.17,2.02,6.69,4.67,10.46,2.31,3.3,5.2,4.87,9.1,4.94l6.65-1.22c.19-.03.38-.05.58-.05,3.88,0,6.39,2.64,6.39,6.71,0,7.92-1.64,14.74-4.87,20.28-3.28,5.62-7.47,9.66-12.47,12.04-7.64,3.81-14.11,5.69-19.72,5.69-10.8,0-19.04-4.17-24.5-12.35-5.26-7.89-7.81-19.22-7.81-34.68,0-14.04,3.61-32.13,10.75-53.83H6.71c-4.07,0-6.71-2.63-6.71-6.7,0-3.07,1.89-7.22,5.95-13.06,4.21-6.07,8.93-9.14,14.04-9.14h12.14c14.83-32.62,32.46-61.25,52.4-85.15,5.41-6.49,12.15-12.64,20.05-18.27,8.33-5.94,14.79-8.83,19.73-8.83,5.38,0,9.64,2.54,12.31,7.36,5.69,9.19,12.15,41.36,19.66,98.21,2.51,23.87,6.9,48.77,13.06,74.12,7.88,32.49,13.48,40.87,16.11,42.97,2.53,1.68,3.11,4.03,3.11,5.68,0,6.32-8.4,9.71-15.72,11.95-9.37,2.87-16.4,4.25-21.5,4.25ZM138.63,245.55s.51.84,3.15,2.05c2.1.95,5.32,1.46,9.56,1.46s10.98-1.35,19.61-3.98c10.67-3.26,11.15-5.74,11.15-5.77,0-.15-.32-.38-.46-.47-3.98-3.17-9.98-11.27-18.57-46.66-6.22-25.61-10.66-50.81-13.19-74.88-9.07-68.6-15.24-89.92-18.82-95.7-1.63-2.91-3.68-4.16-6.74-4.16-2.41,0-7.14,1.31-15.99,7.62-7.44,5.3-13.78,11.06-18.83,17.14-19.96,23.91-37.56,52.69-52.33,85.57-.52,1.16-1.68,1.9-2.95,1.9h-14.23c-2.86,0-5.8,2.14-8.73,6.35-4.45,6.42-4.79,8.8-4.79,9.39,0,.1,0,.17.01.24.06.01.14.01.24.01h18.34c1.04,0,2.02.5,2.63,1.36.61.85.77,1.94.43,2.92-7.85,22.93-11.84,41.77-11.84,56.01s2.27,24.4,6.73,31.09c4.25,6.38,10.5,9.47,19.13,9.47,4.52,0,10.21-1.69,16.89-5.04,3.86-1.83,7.11-5.01,9.72-9.49,2.64-4.53,3.99-10.26,3.99-17.02,0-.06,0-.1,0-.16l-6.31,1.12c-.19.03-.38.06-.58.06-6.15,0-11.09-2.59-14.66-7.7-3.23-4.61-5.17-9.07-5.77-13.25-.55-3.86-.82-9.74-.82-18s1.3-17.93,3.88-28.87c.34-1.46,1.64-2.49,3.14-2.49h.02l66.08.32c.67,0,1.32.22,1.86.6l2.21,1.58c.7.49,1.17,1.25,1.31,2.1.85,5.14,1.72,12.78,2.56,22.69l1.88,14.73c3.74,30.52,7.48,49.99,11.11,57.86h0ZM111.19,129.87c-.77,0-1.63-.02-2.61-.04-4.32-.1-21.73-.15-50.34-.15-1.05,0-2.19-.51-2.8-1.37-.6-.85-.91-1.95-.57-2.94,7.46-21.1,19.75-42.46,36.53-63.5,3.89-5.16,7.21-7.57,10.46-7.57,4.13,0,6.79,4.65,9.47,16.59,2.12,9.43,5,27.34,8.59,53.22.07.49.02,1-.14,1.47-.37,1.1-.95,2.06-1.72,2.83-1.03,1.03-2.35,1.46-6.88,1.46ZM62.56,123.21c26.55,0,41.98.06,46.18.16,2.3.06,3.72.03,4.56-.02-3.45-24.81-6.23-41.99-8.26-51.05-1.72-7.66-3.08-10.41-3.7-11.35-.74.37-2.29,1.49-4.8,4.84-.02.02-.04.05-.06.08-15.2,19.05-26.6,38.32-33.93,57.35Z"/>
        <path class="cls-2" d="M151.35,254.86c-5.25,0-9.26-.67-12.25-2.04-3.25-1.49-5.31-3.17-6.29-5.13-4.02-8.69-7.83-28.24-11.7-59.85l-1.9-14.85c-.77-9.04-1.54-16.07-2.3-21.01l-.28-.2-62.46-.29c-2.08,9.43-3.14,17.79-3.14,24.89,0,7.84.25,13.59.76,17.09.45,3.17,2.02,6.69,4.67,10.46,2.31,3.3,5.2,4.88,9.1,4.94l6.65-1.2c.19-.04.38-.06.58-.06,3.88,0,6.39,2.63,6.39,6.7,0,7.92-1.64,14.75-4.87,20.28-3.28,5.62-7.47,9.67-12.47,12.04-7.64,3.82-14.11,5.69-19.72,5.69-10.8,0-19.04-4.15-24.5-12.35-5.26-7.88-7.81-19.22-7.81-34.67,0-14.04,3.61-32.13,10.75-53.83H6.71c-4.07,0-6.71-2.64-6.71-6.71,0-3.07,1.89-7.21,5.95-13.06,4.21-6.06,8.93-9.14,14.04-9.14h12.14c14.83-32.61,32.46-61.25,52.4-85.15,5.41-6.49,12.15-12.64,20.05-18.26,8.33-5.94,14.79-8.83,19.73-8.83,5.38,0,9.64,2.54,12.31,7.35,5.69,9.2,12.15,41.36,19.66,98.21,2.51,23.86,6.9,48.76,13.06,74.11,7.88,32.49,13.48,40.89,16.11,42.97,2.53,1.68,3.11,4.04,3.11,5.69,0,6.32-8.4,9.7-15.72,11.94-9.37,2.86-16.4,4.26-21.5,4.26ZM138.63,244.89s.51.84,3.15,2.05c2.1.96,5.32,1.45,9.56,1.45s10.98-1.33,19.61-3.97c10.67-3.27,11.15-5.74,11.15-5.76,0-.15-.32-.38-.46-.47-3.98-3.17-9.98-11.27-18.57-46.67-6.22-25.61-10.66-50.81-13.19-74.88-9.07-68.59-15.24-89.9-18.82-95.69-1.63-2.92-3.68-4.16-6.74-4.16-2.41,0-7.14,1.32-15.99,7.62-7.44,5.3-13.78,11.07-18.83,17.14-19.96,23.9-37.56,52.69-52.33,85.55-.52,1.17-1.68,1.92-2.95,1.92h-14.23c-2.86,0-5.8,2.14-8.73,6.35-4.45,6.42-4.79,8.8-4.79,9.38,0,.1,0,.18.01.25.06,0,.14,0,.24,0h18.34c1.04,0,2.02.5,2.63,1.35.61.86.77,1.94.43,2.92-7.85,22.94-11.84,41.79-11.84,56.02s2.27,24.4,6.73,31.09c4.25,6.36,10.5,9.47,19.13,9.47,4.52,0,10.21-1.69,16.89-5.04,3.86-1.83,7.11-5.01,9.72-9.47,2.64-4.54,3.99-10.27,3.99-17.04,0-.06,0-.11,0-.16l-6.31,1.13c-.19.03-.38.05-.58.05-6.15,0-11.09-2.59-14.66-7.7-3.23-4.62-5.17-9.08-5.77-13.26-.55-3.86-.82-9.74-.82-18s1.3-17.93,3.88-28.87c.34-1.46,1.64-2.49,3.14-2.49h.02l66.08.32c.67,0,1.32.21,1.86.6l2.21,1.58c.7.5,1.17,1.25,1.31,2.1.85,5.14,1.72,12.78,2.56,22.7l1.88,14.72c3.74,30.52,7.48,49.98,11.11,57.87h0ZM111.19,129.22c-.77,0-1.63-.01-2.61-.03-4.32-.1-21.73-.15-50.34-.15-1.05,0-2.19-.51-2.8-1.36-.6-.85-.91-1.96-.57-2.95,7.46-21.09,19.75-42.46,36.53-63.5,3.89-5.17,7.21-7.58,10.46-7.58,4.13,0,6.79,4.65,9.47,16.59,2.12,9.44,5,27.34,8.59,53.22.07.49.02,1.01-.14,1.48-.37,1.11-.95,2.06-1.72,2.82-1.03,1.03-2.35,1.46-6.88,1.46ZM62.56,122.56c26.55,0,41.98.06,46.18.16,2.3.05,3.72.02,4.56-.02-3.45-24.82-6.23-41.99-8.26-51.05-1.72-7.66-3.08-10.41-3.7-11.36-.74.37-2.29,1.49-4.8,4.84-.02.02-.04.06-.06.08-15.2,19.04-26.6,38.32-33.93,57.35Z"/>
        <path class="cls-8" d="M151.35,254.22c-5.25,0-9.26-.67-12.25-2.05-3.25-1.49-5.31-3.16-6.29-5.11-4.02-8.7-7.83-28.24-11.7-59.86l-1.9-14.84c-.77-9.05-1.54-16.07-2.3-21.02l-.28-.2-62.46-.3c-2.08,9.43-3.14,17.79-3.14,24.89,0,7.84.25,13.59.76,17.09.45,3.17,2.02,6.68,4.67,10.46,2.31,3.3,5.2,4.87,9.1,4.94l6.65-1.21c.19-.04.38-.05.58-.05,3.88,0,6.39,2.64,6.39,6.7,0,7.92-1.64,14.74-4.87,20.28-3.28,5.62-7.47,9.67-12.47,12.04-7.64,3.82-14.11,5.68-19.72,5.68-10.8,0-19.04-4.15-24.5-12.34-5.26-7.88-7.81-19.23-7.81-34.68,0-14.02,3.61-32.11,10.75-53.82H6.71c-4.07,0-6.71-2.64-6.71-6.71,0-3.06,1.89-7.21,5.95-13.06,4.21-6.06,8.93-9.14,14.04-9.14h12.14c14.83-32.61,32.46-61.25,52.4-85.15,5.41-6.49,12.15-12.64,20.05-18.26,8.33-5.94,14.79-8.82,19.73-8.82,5.38,0,9.64,2.55,12.31,7.35,5.69,9.2,12.15,41.36,19.66,98.21,2.51,23.86,6.9,48.77,13.06,74.11,7.88,32.49,13.48,40.87,16.11,42.97,2.53,1.68,3.11,4.04,3.11,5.68,0,6.32-8.4,9.71-15.72,11.95-9.37,2.86-16.4,4.26-21.5,4.26ZM138.63,244.26s.51.82,3.15,2.05c2.1.96,5.32,1.45,9.56,1.45s10.98-1.34,19.61-3.96c10.67-3.27,11.15-5.75,11.15-5.78,0-.15-.32-.38-.46-.48-3.98-3.16-9.98-11.26-18.57-46.65-6.22-25.62-10.66-50.81-13.19-74.88-9.07-68.6-15.24-89.9-18.82-95.69-1.63-2.92-3.68-4.16-6.74-4.16-2.41,0-7.14,1.32-15.99,7.62-7.44,5.3-13.78,11.07-18.83,17.14-19.96,23.91-37.56,52.7-52.33,85.56-.52,1.16-1.68,1.91-2.95,1.91h-14.23c-2.86,0-5.8,2.14-8.73,6.36-4.45,6.41-4.79,8.8-4.79,9.38,0,.1,0,.18.01.24.06,0,.14,0,.24,0h18.34c1.04,0,2.02.51,2.63,1.36.61.84.77,1.94.43,2.92-7.85,22.94-11.84,41.79-11.84,56.01s2.27,24.41,6.73,31.1c4.25,6.38,10.5,9.47,19.13,9.47,4.52,0,10.21-1.7,16.89-5.04,3.86-1.84,7.11-5.01,9.72-9.49,2.64-4.53,3.99-10.26,3.99-17.03,0-.05,0-.1,0-.16l-6.31,1.13c-.19.04-.38.05-.58.05-6.15,0-11.09-2.59-14.66-7.7-3.23-4.6-5.17-9.06-5.77-13.24-.55-3.87-.82-9.76-.82-18.01s1.3-17.93,3.88-28.87c.34-1.46,1.64-2.49,3.14-2.49h.02l66.08.32c.67,0,1.32.21,1.86.61l2.21,1.58c.7.5,1.17,1.25,1.31,2.1.85,5.15,1.72,12.78,2.56,22.7l1.88,14.72c3.74,30.52,7.48,49.98,11.11,57.87h0ZM111.19,128.57c-.77,0-1.63,0-2.61-.03-4.32-.11-21.73-.16-50.34-.16-1.05,0-2.19-.5-2.8-1.37-.6-.85-.91-1.96-.57-2.93,7.46-21.1,19.75-42.46,36.53-63.51,3.89-5.16,7.21-7.57,10.46-7.57,4.13,0,6.79,4.65,9.47,16.59,2.12,9.43,5,27.34,8.59,53.21.07.5.02,1-.14,1.48-.37,1.11-.95,2.06-1.72,2.83-1.03,1.03-2.35,1.46-6.88,1.46ZM62.56,121.92c26.55.01,41.98.06,46.18.16,2.3.05,3.72.02,4.56-.02-3.45-24.83-6.23-42-8.26-51.05-1.72-7.66-3.08-10.42-3.7-11.36-.74.38-2.29,1.5-4.8,4.84-.02.03-.04.05-.06.08-15.2,19.04-26.6,38.32-33.93,57.35Z"/>
        <path class="cls-4" d="M151.35,253.56c-5.25,0-9.26-.67-12.25-2.04-3.25-1.48-5.31-3.16-6.29-5.12-4.02-8.7-7.83-28.24-11.7-59.86l-1.9-14.85c-.77-9.05-1.54-16.07-2.3-21.02l-.28-.19-62.46-.3c-2.08,9.42-3.14,17.79-3.14,24.89,0,7.83.25,13.59.76,17.09.45,3.17,2.02,6.69,4.67,10.47,2.31,3.3,5.2,4.87,9.1,4.93l6.65-1.19c.19-.04.38-.06.58-.06,3.88,0,6.39,2.64,6.39,6.71,0,7.92-1.64,14.75-4.87,20.28-3.28,5.62-7.47,9.67-12.47,12.04-7.64,3.81-14.11,5.7-19.72,5.7-10.8,0-19.04-4.16-24.5-12.36-5.26-7.89-7.81-19.22-7.81-34.67,0-14.04,3.61-32.13,10.75-53.83H6.71c-4.07,0-6.71-2.64-6.71-6.7,0-3.07,1.89-7.22,5.95-13.07,4.21-6.07,8.93-9.13,14.04-9.13h12.14c14.83-32.62,32.46-61.26,52.4-85.15,5.41-6.5,12.15-12.64,20.05-18.27,8.33-5.93,14.79-8.82,19.73-8.82,5.38,0,9.64,2.54,12.31,7.35,5.69,9.2,12.15,41.36,19.66,98.2,2.51,23.87,6.9,48.78,13.06,74.12,7.88,32.49,13.48,40.87,16.11,42.97,2.53,1.68,3.11,4.02,3.11,5.68,0,6.31-8.4,9.7-15.72,11.94-9.37,2.86-16.4,4.26-21.5,4.26ZM138.63,243.6s.51.84,3.15,2.05c2.1.97,5.32,1.45,9.56,1.45s10.98-1.33,19.61-3.96c10.67-3.27,11.15-5.75,11.15-5.77,0-.15-.32-.38-.46-.47-3.98-3.17-9.98-11.26-18.57-46.66-6.22-25.62-10.66-50.82-13.19-74.87-9.07-68.6-15.24-89.92-18.82-95.7-1.63-2.92-3.68-4.16-6.74-4.16-2.41,0-7.14,1.32-15.99,7.62-7.44,5.3-13.78,11.07-18.83,17.14-19.96,23.91-37.56,52.7-52.33,85.57-.52,1.16-1.68,1.91-2.95,1.91h-14.23c-2.86,0-5.8,2.14-8.73,6.36-4.45,6.41-4.79,8.8-4.79,9.38,0,.09,0,.17.01.24.06,0,.14,0,.24,0h18.34c1.04,0,2.02.51,2.63,1.36.61.84.77,1.93.43,2.92-7.85,22.93-11.84,41.78-11.84,56.01s2.27,24.39,6.73,31.09c4.25,6.37,10.5,9.47,19.13,9.47,4.52,0,10.21-1.69,16.89-5.04,3.86-1.83,7.11-5.01,9.72-9.49,2.64-4.54,3.99-10.26,3.99-17.03,0-.06,0-.11,0-.16l-6.31,1.13c-.19.03-.38.06-.58.06-6.15,0-11.09-2.59-14.66-7.7-3.23-4.61-5.17-9.07-5.77-13.26-.55-3.84-.82-9.74-.82-17.99s1.3-17.94,3.88-28.87c.34-1.46,1.64-2.49,3.14-2.49h.02l66.08.32c.67,0,1.32.21,1.86.6l2.21,1.58c.7.5,1.17,1.25,1.31,2.1.85,5.15,1.72,12.78,2.56,22.7l1.88,14.73c3.74,30.53,7.48,49.99,11.11,57.86h0ZM111.19,127.93c-.77,0-1.63-.02-2.61-.04-4.32-.1-21.73-.16-50.34-.16-1.05,0-2.19-.51-2.8-1.36-.6-.85-.91-1.96-.57-2.94,7.46-21.09,19.75-42.46,36.53-63.5,3.89-5.17,7.21-7.58,10.46-7.58,4.13,0,6.79,4.66,9.47,16.6,2.12,9.43,5,27.33,8.59,53.22.07.49.02,1-.14,1.47-.37,1.1-.95,2.06-1.72,2.82-1.03,1.02-2.35,1.47-6.88,1.47ZM62.56,121.28c26.55,0,41.98.05,46.18.16,2.3.06,3.72.03,4.56-.02-3.45-24.83-6.23-41.99-8.26-51.05-1.72-7.65-3.08-10.41-3.7-11.35-.74.38-2.29,1.5-4.8,4.84-.02.03-.04.05-.06.08-15.2,19.05-26.6,38.32-33.93,57.36Z"/>
        <path class="cls-5" d="M151.35,252.91c-5.25,0-9.26-.66-12.25-2.03-3.25-1.48-5.31-3.17-6.29-5.12-4.02-8.69-7.83-28.24-11.7-59.86l-1.9-14.84c-.77-9.06-1.54-16.07-2.3-21.02l-.28-.19-62.46-.3c-2.08,9.43-3.14,17.79-3.14,24.9,0,7.83.25,13.58.76,17.09.45,3.16,2.02,6.68,4.67,10.46,2.31,3.3,5.2,4.88,9.1,4.94l6.65-1.21c.19-.03.38-.05.58-.05,3.88,0,6.39,2.64,6.39,6.71,0,7.92-1.64,14.74-4.87,20.28-3.28,5.61-7.47,9.66-12.47,12.04-7.64,3.82-14.11,5.68-19.72,5.68-10.8,0-19.04-4.15-24.5-12.34-5.26-7.89-7.81-19.22-7.81-34.68,0-14.04,3.61-32.13,10.75-53.83H6.71c-4.07,0-6.71-2.63-6.71-6.71,0-3.07,1.89-7.21,5.95-13.06,4.21-6.06,8.92-9.13,14.03-9.13h12.14c14.83-32.62,32.46-61.25,52.4-85.15,5.41-6.49,12.15-12.64,20.05-18.26,8.33-5.94,14.79-8.82,19.73-8.82,5.38,0,9.64,2.54,12.31,7.35,5.69,9.19,12.15,41.36,19.66,98.2,2.51,23.87,6.9,48.78,13.06,74.12,7.88,32.5,13.48,40.87,16.11,42.98,2.53,1.67,3.11,4.03,3.11,5.68,0,6.32-8.4,9.69-15.72,11.95-9.37,2.86-16.4,4.24-21.5,4.24ZM138.63,242.96s.51.84,3.15,2.05c2.1.95,5.32,1.45,9.56,1.45s10.98-1.33,19.61-3.96c10.67-3.27,11.15-5.75,11.15-5.77,0-.15-.32-.38-.46-.48-3.98-3.17-9.98-11.26-18.57-46.65-6.22-25.62-10.66-50.82-13.19-74.88-9.07-68.6-15.24-89.92-18.82-95.7-1.63-2.92-3.68-4.17-6.74-4.17-2.41,0-7.14,1.33-15.99,7.62-7.44,5.31-13.78,11.08-18.83,17.15-19.96,23.9-37.56,52.69-52.33,85.56-.52,1.16-1.68,1.91-2.95,1.91h-14.23c-2.86,0-5.8,2.14-8.73,6.36-4.45,6.41-4.79,8.8-4.79,9.38,0,.1,0,.17.01.24.06,0,.14.01.24.01h18.34c1.04,0,2.02.5,2.63,1.36.61.84.77,1.94.43,2.92-7.85,22.93-11.84,41.78-11.84,56.01s2.27,24.41,6.73,31.09c4.25,6.37,10.5,9.47,19.13,9.47,4.52,0,10.21-1.7,16.89-5.03,3.86-1.83,7.11-5.02,9.72-9.49,2.64-4.54,3.99-10.26,3.99-17.02,0-.06,0-.13,0-.17l-6.31,1.13c-.19.03-.38.06-.58.06-6.15,0-11.09-2.6-14.66-7.7-3.23-4.62-5.17-9.08-5.77-13.26-.55-3.85-.82-9.75-.82-18s1.3-17.94,3.88-28.89c.34-1.45,1.64-2.49,3.14-2.49h.02l66.08.32c.67,0,1.32.22,1.86.6l2.21,1.58c.7.51,1.17,1.26,1.31,2.1.85,5.15,1.72,12.78,2.56,22.7l1.88,14.72c3.74,30.52,7.48,49.99,11.11,57.86h0ZM111.19,127.28c-.77,0-1.63-.02-2.61-.04-4.32-.1-21.73-.15-50.34-.15-1.05,0-2.19-.5-2.8-1.37-.6-.85-.91-1.95-.57-2.95,7.46-21.09,19.75-42.45,36.54-63.49,3.88-5.16,7.21-7.58,10.46-7.58,4.13,0,6.79,4.65,9.47,16.59,2.12,9.44,5,27.34,8.59,53.22.07.5.02,1-.14,1.48-.37,1.1-.95,2.06-1.72,2.83-1.03,1.02-2.35,1.46-6.88,1.46ZM62.56,120.63c26.55,0,41.98.06,46.18.16,2.3.06,3.72.02,4.56-.02-3.45-24.82-6.23-41.99-8.26-51.05-1.72-7.66-3.08-10.42-3.7-11.37-.74.39-2.29,1.51-4.8,4.84-.02.03-.04.06-.06.09-15.2,19.05-26.6,38.32-33.93,57.35Z"/>
        <path class="cls-3" d="M151.35,252.27c-5.25,0-9.26-.66-12.25-2.03-3.25-1.49-5.31-3.17-6.29-5.13-4.02-8.69-7.83-28.24-11.7-59.86l-1.9-14.84c-.77-9.05-1.54-16.08-2.3-21.02l-.28-.2-62.46-.3c-2.08,9.42-3.14,17.79-3.14,24.89,0,7.83.25,13.58.76,17.09.45,3.17,2.02,6.69,4.67,10.46,2.31,3.29,5.2,4.88,9.1,4.94l6.65-1.2c.19-.04.38-.05.58-.05,3.88,0,6.39,2.63,6.39,6.7,0,7.92-1.64,14.74-4.87,20.28-3.28,5.62-7.47,9.67-12.47,12.03-7.64,3.82-14.11,5.7-19.72,5.7-10.8,0-19.04-4.15-24.5-12.35-5.26-7.87-7.81-19.22-7.81-34.67,0-14.04,3.61-32.13,10.75-53.83H6.71c-4.07,0-6.71-2.64-6.71-6.71,0-3.07,1.89-7.22,5.95-13.06,4.21-6.07,8.93-9.14,14.04-9.14h12.14c14.83-32.61,32.46-61.26,52.4-85.15,5.41-6.5,12.15-12.64,20.05-18.27,8.33-5.94,14.79-8.82,19.73-8.82,5.38,0,9.64,2.54,12.31,7.35,5.69,9.2,12.15,41.36,19.66,98.21,2.51,23.86,6.9,48.78,13.06,74.11,7.88,32.49,13.48,40.87,16.11,42.97,2.53,1.68,3.11,4.04,3.11,5.68,0,6.32-8.4,9.71-15.72,11.93-9.37,2.87-16.4,4.26-21.5,4.26ZM138.63,242.31s.51.84,3.15,2.05c2.1.96,5.32,1.45,9.56,1.45s10.98-1.33,19.61-3.97c10.67-3.27,11.15-5.74,11.15-5.77,0-.15-.32-.38-.46-.47-3.98-3.17-9.98-11.27-18.57-46.67-6.22-25.62-10.66-50.81-13.19-74.88-9.07-68.6-15.24-89.91-18.82-95.69-1.63-2.92-3.68-4.17-6.74-4.17-2.41,0-7.14,1.33-15.99,7.62-7.44,5.3-13.78,11.07-18.83,17.14-19.96,23.91-37.56,52.69-52.33,85.56-.52,1.17-1.68,1.92-2.95,1.92h-14.23c-2.86,0-5.8,2.13-8.73,6.35-4.45,6.41-4.79,8.8-4.79,9.38,0,.1,0,.18.01.24.06.01.14.01.24.01h18.34c1.04,0,2.02.5,2.63,1.35.61.85.77,1.94.43,2.92-7.85,22.93-11.84,41.79-11.84,56.02s2.27,24.4,6.73,31.09c4.25,6.36,10.5,9.46,19.13,9.46,4.52,0,10.21-1.69,16.89-5.03,3.86-1.83,7.11-5.02,9.72-9.49,2.64-4.52,3.99-10.25,3.99-17.02,0-.06,0-.11,0-.16l-6.31,1.12c-.19.03-.38.06-.58.06-6.15,0-11.09-2.59-14.66-7.71-3.23-4.61-5.17-9.06-5.77-13.25-.55-3.86-.82-9.75-.82-18s1.3-17.94,3.88-28.88c.34-1.46,1.64-2.49,3.14-2.49h.02l66.08.32c.67,0,1.32.22,1.86.61l2.21,1.58c.7.5,1.17,1.25,1.31,2.1.85,5.15,1.72,12.78,2.56,22.7l1.88,14.73c3.74,30.53,7.48,49.98,11.11,57.85h0ZM111.19,126.63c-.77,0-1.63,0-2.61-.04-4.32-.09-21.73-.14-50.34-.14-1.05,0-2.19-.51-2.8-1.37-.6-.86-.91-1.96-.57-2.95,7.46-21.09,19.75-42.45,36.53-63.5,3.89-5.16,7.21-7.57,10.46-7.57,4.13,0,6.79,4.65,9.47,16.58,2.12,9.43,5,27.35,8.59,53.23.07.5.02,1-.14,1.47-.37,1.11-.95,2.06-1.72,2.83-1.03,1.03-2.35,1.46-6.88,1.46ZM62.56,119.98c26.55.01,41.98.06,46.18.15,2.3.07,3.72.03,4.56-.01-3.45-24.82-6.23-41.99-8.26-51.05-1.72-7.67-3.08-10.43-3.7-11.36-.74.37-2.29,1.49-4.8,4.84-.02.03-.04.05-.06.07-15.2,19.05-26.6,38.33-33.93,57.36Z"/>
        <path class="cls-6" d="M151.35,251.63c-5.25,0-9.26-.67-12.25-2.05-3.25-1.49-5.31-3.17-6.29-5.12-4.02-8.69-7.83-28.25-11.7-59.85l-1.9-14.84c-.77-9.06-1.54-16.08-2.3-21.02l-.28-.2-62.46-.3c-2.08,9.43-3.14,17.79-3.14,24.89,0,7.84.25,13.59.76,17.09.45,3.17,2.02,6.69,4.67,10.47,2.31,3.3,5.2,4.87,9.1,4.94l6.65-1.21c.19-.03.38-.06.58-.06,3.88,0,6.39,2.62,6.39,6.7,0,7.92-1.64,14.74-4.87,20.29-3.28,5.6-7.47,9.65-12.47,12.02-7.64,3.82-14.11,5.69-19.72,5.69-10.8,0-19.04-4.15-24.5-12.33-5.26-7.9-7.81-19.24-7.81-34.68,0-14.04,3.61-32.13,10.75-53.83H6.71c-4.07,0-6.71-2.64-6.71-6.72,0-3.06,1.89-7.21,5.95-13.05,4.21-6.06,8.93-9.13,14.04-9.13h12.14c14.83-32.62,32.46-61.26,52.4-85.15,5.41-6.49,12.15-12.64,20.05-18.27,8.33-5.94,14.79-8.82,19.73-8.82,5.38,0,9.64,2.54,12.31,7.35,5.69,9.2,12.15,41.36,19.66,98.21,2.51,23.87,6.9,48.78,13.06,74.11,7.88,32.49,13.48,40.87,16.11,42.97,2.53,1.67,3.11,4.04,3.11,5.68,0,6.32-8.4,9.7-15.72,11.95-9.37,2.86-16.4,4.26-21.5,4.26ZM138.63,241.68s.51.84,3.15,2.05c2.1.95,5.32,1.44,9.56,1.44s10.98-1.33,19.61-3.97c10.67-3.27,11.15-5.74,11.15-5.77,0-.15-.32-.38-.46-.48-3.98-3.16-9.98-11.26-18.57-46.65-6.22-25.62-10.66-50.81-13.19-74.88-9.07-68.59-15.24-89.91-18.82-95.69-1.63-2.92-3.68-4.16-6.74-4.16-2.41,0-7.14,1.32-15.99,7.62-7.44,5.31-13.78,11.07-18.83,17.15-19.96,23.9-37.56,52.68-52.33,85.56-.52,1.17-1.68,1.91-2.95,1.91h-14.23c-2.86,0-5.8,2.14-8.73,6.36-4.45,6.42-4.79,8.8-4.79,9.37,0,.1,0,.19.01.25.06,0,.14,0,.24,0h18.34c1.04,0,2.02.51,2.63,1.36.61.85.77,1.94.43,2.92-7.85,22.93-11.84,41.78-11.84,56.01s2.27,24.39,6.73,31.09c4.25,6.37,10.5,9.47,19.13,9.47,4.52,0,10.21-1.7,16.89-5.03,3.86-1.85,7.11-5.02,9.72-9.49,2.64-4.53,3.99-10.26,3.99-17.03,0-.06,0-.11,0-.16l-6.31,1.13c-.19.04-.38.06-.58.06-6.15,0-11.09-2.6-14.66-7.69-3.23-4.61-5.17-9.08-5.77-13.27-.55-3.85-.82-9.74-.82-18s1.3-17.93,3.88-28.87c.34-1.46,1.64-2.49,3.14-2.49h.02l66.08.32c.67,0,1.32.21,1.86.6l2.21,1.59c.7.49,1.17,1.25,1.31,2.09.85,5.14,1.72,12.78,2.56,22.7l1.88,14.72c3.74,30.52,7.48,49.98,11.11,57.87h0ZM111.19,125.99c-.77,0-1.63-.01-2.61-.03-4.32-.11-21.73-.16-50.34-.16-1.05,0-2.19-.51-2.8-1.37-.6-.85-.91-1.95-.57-2.93,7.46-21.1,19.75-42.46,36.53-63.51,3.89-5.17,7.21-7.57,10.46-7.57,4.13,0,6.79,4.65,9.47,16.59,2.12,9.43,5,27.34,8.59,53.22.07.49.02,1-.14,1.47-.37,1.1-.95,2.06-1.72,2.83-1.03,1.03-2.35,1.46-6.88,1.46ZM62.56,119.34c26.55,0,41.98.06,46.18.15,2.3.06,3.72.03,4.56-.01-3.45-24.82-6.23-41.99-8.26-51.06-1.72-7.66-3.08-10.41-3.7-11.36-.74.38-2.29,1.5-4.8,4.85-.02.02-.04.05-.06.07-15.2,19.05-26.6,38.32-33.93,57.36Z"/>
        <path class="cls-7" d="M151.35,250.98c-5.25,0-9.26-.67-12.25-2.02-3.25-1.51-5.31-3.17-6.29-5.14-4.02-8.71-7.83-28.24-11.7-59.86l-1.9-14.84c-.77-9.06-1.54-16.08-2.3-21.01l-.28-.2-62.46-.3c-2.08,9.44-3.14,17.79-3.14,24.9,0,7.83.25,13.58.76,17.09.45,3.17,2.02,6.69,4.67,10.45,2.31,3.31,5.2,4.89,9.1,4.96l6.65-1.22c.19-.03.38-.05.58-.05,3.88,0,6.39,2.63,6.39,6.71,0,7.92-1.64,14.75-4.87,20.28-3.28,5.62-7.47,9.65-12.47,12.04-7.64,3.82-14.11,5.68-19.72,5.68-10.8,0-19.04-4.15-24.5-12.34-5.26-7.89-7.81-19.22-7.81-34.67,0-14.04,3.61-32.13,10.75-53.84H6.71c-4.07,0-6.71-2.63-6.71-6.7,0-3.07,1.89-7.21,5.95-13.07,4.21-6.06,8.93-9.13,14.04-9.13h12.14c14.83-32.62,32.46-61.25,52.4-85.15,5.41-6.49,12.15-12.64,20.05-18.27,8.33-5.93,14.79-8.81,19.73-8.81,5.38,0,9.64,2.54,12.31,7.35,5.69,9.2,12.15,41.37,19.66,98.2,2.51,23.87,6.9,48.78,13.06,74.11,7.88,32.5,13.48,40.87,16.11,42.98,2.53,1.69,3.11,4.03,3.11,5.68,0,6.32-8.4,9.69-15.72,11.94-9.37,2.86-16.4,4.25-21.5,4.25ZM138.63,241.02s.51.84,3.15,2.06c2.1.96,5.32,1.44,9.56,1.44s10.98-1.34,19.61-3.97c10.67-3.27,11.15-5.74,11.15-5.77,0-.14-.32-.38-.46-.47-3.98-3.17-9.98-11.27-18.57-46.66-6.22-25.62-10.66-50.82-13.19-74.88-9.07-68.6-15.24-89.91-18.82-95.7-1.63-2.91-3.68-4.16-6.74-4.16-2.41,0-7.14,1.32-15.99,7.62-7.44,5.3-13.78,11.07-18.83,17.14-19.96,23.91-37.56,52.7-52.33,85.57-.52,1.16-1.68,1.91-2.95,1.91h-14.23c-2.86,0-5.8,2.13-8.73,6.35-4.45,6.42-4.79,8.81-4.79,9.39,0,.09,0,.17.01.23.06,0,.14.01.24.01h18.34c1.04,0,2.02.5,2.63,1.35.61.85.77,1.94.43,2.92-7.85,22.94-11.84,41.79-11.84,56.02s2.27,24.39,6.73,31.08c4.25,6.38,10.5,9.48,19.13,9.48,4.52,0,10.21-1.7,16.89-5.05,3.86-1.83,7.11-5,9.72-9.48,2.64-4.54,3.99-10.26,3.99-17.03,0-.05,0-.11,0-.15l-6.31,1.11c-.19.04-.38.05-.58.05-6.15,0-11.09-2.59-14.66-7.7-3.23-4.6-5.17-9.08-5.77-13.25-.55-3.85-.82-9.74-.82-18s1.3-17.94,3.88-28.88c.34-1.46,1.64-2.49,3.14-2.49h.02l66.08.31c.67,0,1.32.22,1.86.6l2.21,1.59c.7.5,1.17,1.25,1.31,2.1.85,5.14,1.72,12.78,2.56,22.7l1.88,14.73c3.74,30.52,7.48,49.99,11.11,57.86h0ZM111.19,125.35c-.77,0-1.63-.02-2.61-.05-4.32-.1-21.73-.15-50.34-.15-1.05,0-2.19-.51-2.8-1.37-.6-.85-.91-1.95-.57-2.94,7.46-21.1,19.75-42.46,36.53-63.5,3.89-5.17,7.21-7.57,10.46-7.57,4.13,0,6.79,4.65,9.47,16.59,2.12,9.43,5,27.34,8.59,53.22.07.49.02,1-.14,1.47-.37,1.11-.95,2.06-1.72,2.84-1.03,1.02-2.35,1.46-6.88,1.46ZM62.56,118.69c26.55,0,41.98.06,46.18.16,2.3.05,3.72.02,4.56-.02-3.45-24.83-6.23-42-8.26-51.05-1.72-7.65-3.08-10.41-3.7-11.35-.74.38-2.29,1.5-4.8,4.84-.02.02-.04.06-.06.08-15.2,19.05-26.6,38.32-33.93,57.35Z"/>
        <path class="cls-1" d="M151.35,250.34c-5.25,0-9.26-.67-12.25-2.04-3.25-1.48-5.31-3.17-6.29-5.12-4.02-8.71-7.83-28.24-11.7-59.85l-1.9-14.85c-.77-9.04-1.54-16.06-2.3-21.01l-.28-.2-62.46-.3c-2.08,9.43-3.14,17.79-3.14,24.89,0,7.84.25,13.59.76,17.09.45,3.16,2.02,6.69,4.67,10.46,2.31,3.3,5.2,4.88,9.1,4.94l6.65-1.21c.19-.03.38-.05.58-.05,3.88,0,6.39,2.63,6.39,6.71,0,7.92-1.64,14.73-4.87,20.28-3.28,5.61-7.47,9.66-12.47,12.03-7.64,3.82-14.11,5.68-19.72,5.68-10.8,0-19.04-4.15-24.5-12.34-5.26-7.88-7.81-19.22-7.81-34.68,0-14.03,3.61-32.13,10.75-53.83H6.71c-4.07,0-6.71-2.63-6.71-6.71,0-3.06,1.89-7.21,5.95-13.07,4.21-6.06,8.93-9.13,14.04-9.13h12.14c14.83-32.62,32.46-61.26,52.4-85.15,5.41-6.49,12.15-12.64,20.05-18.27,8.33-5.94,14.79-8.81,19.73-8.81,5.38,0,9.64,2.54,12.31,7.35,5.69,9.2,12.15,41.37,19.66,98.2,2.51,23.87,6.9,48.77,13.06,74.12,7.88,32.5,13.48,40.88,16.11,42.98,2.53,1.67,3.11,4.04,3.11,5.68,0,6.32-8.4,9.69-15.72,11.95-9.37,2.85-16.4,4.25-21.5,4.25ZM138.63,240.38s.51.84,3.15,2.05c2.1.96,5.32,1.45,9.56,1.45s10.98-1.32,19.61-3.96c10.67-3.27,11.15-5.75,11.15-5.77,0-.15-.32-.38-.46-.48-3.98-3.17-9.98-11.26-18.57-46.66-6.22-25.62-10.66-50.81-13.19-74.87-9.07-68.6-15.24-89.92-18.82-95.7-1.63-2.92-3.68-4.17-6.74-4.17-2.41,0-7.14,1.32-15.99,7.62-7.44,5.31-13.78,11.07-18.83,17.14-19.96,23.91-37.56,52.69-52.33,85.57-.52,1.16-1.68,1.91-2.95,1.91h-14.23c-2.86,0-5.8,2.14-8.73,6.36-4.45,6.42-4.79,8.8-4.79,9.38,0,.1,0,.18.01.24.06,0,.14.02.24.02h18.34c1.04,0,2.02.5,2.63,1.35.61.85.77,1.94.43,2.92-7.85,22.93-11.84,41.78-11.84,56.01s2.27,24.39,6.73,31.09c4.25,6.37,10.5,9.47,19.13,9.47,4.52,0,10.21-1.7,16.89-5.05,3.86-1.83,7.11-5,9.72-9.48,2.64-4.54,3.99-10.26,3.99-17.01,0-.06,0-.12,0-.17l-6.31,1.13c-.19.03-.38.05-.58.05-6.15,0-11.09-2.59-14.66-7.7-3.23-4.62-5.17-9.08-5.77-13.26-.55-3.85-.82-9.74-.82-18s1.3-17.94,3.88-28.87c.34-1.46,1.64-2.49,3.14-2.49h.02l66.08.32c.67,0,1.32.21,1.86.59l2.21,1.58c.7.5,1.17,1.25,1.31,2.1.85,5.15,1.72,12.78,2.56,22.7l1.88,14.72c3.74,30.53,7.48,49.99,11.11,57.86h0ZM111.19,124.69c-.77,0-1.63,0-2.61-.03-4.32-.11-21.73-.16-50.34-.16-1.05,0-2.19-.51-2.8-1.37-.6-.86-.91-1.95-.57-2.94,7.46-21.09,19.75-42.46,36.53-63.49,3.89-5.17,7.21-7.58,10.46-7.58,4.13,0,6.79,4.65,9.47,16.58,2.12,9.44,5,27.34,8.59,53.23.07.49.02,1-.14,1.48-.37,1.1-.95,2.06-1.72,2.83-1.03,1.02-2.35,1.45-6.88,1.45ZM62.56,118.05c26.55,0,41.98.06,46.18.16,2.3.06,3.72.03,4.56-.02-3.45-24.82-6.23-41.99-8.26-51.06-1.72-7.65-3.08-10.41-3.7-11.36-.74.37-2.29,1.5-4.8,4.84-.02.02-.04.05-.06.07-15.2,19.05-26.6,38.33-33.93,57.36Z"/>
        <path class="cls-26" d="M151.35,249.69c-5.25,0-9.26-.66-12.25-2.03-3.25-1.49-5.31-3.17-6.29-5.12-4.02-8.69-7.83-28.25-11.7-59.85l-1.9-14.85c-.77-9.05-1.54-16.07-2.3-21.01l-.28-.2-62.46-.29c-2.08,9.43-3.14,17.79-3.14,24.89,0,7.83.25,13.59.76,17.09.45,3.17,2.02,6.7,4.67,10.46,2.31,3.3,5.2,4.87,9.1,4.94l6.65-1.21c.19-.03.38-.04.58-.04,3.88,0,6.39,2.62,6.39,6.7,0,7.92-1.64,14.74-4.87,20.28-3.28,5.62-7.47,9.67-12.47,12.03-7.64,3.82-14.11,5.69-19.72,5.69-10.8,0-19.04-4.16-24.5-12.34-5.26-7.9-7.81-19.23-7.81-34.68,0-14.03,3.61-32.12,10.75-53.83H6.71c-4.07,0-6.71-2.63-6.71-6.7,0-3.07,1.89-7.22,5.95-13.06,4.21-6.06,8.93-9.13,14.04-9.13h12.14c14.83-32.62,32.46-61.25,52.4-85.15,5.41-6.5,12.15-12.65,20.05-18.28,8.33-5.92,14.79-8.81,19.73-8.81,5.38,0,9.64,2.54,12.31,7.35,5.69,9.2,12.15,41.36,19.66,98.21,2.51,23.86,6.9,48.77,13.06,74.11,7.88,32.49,13.48,40.87,16.11,42.97,2.53,1.68,3.11,4.04,3.11,5.68,0,6.3-8.4,9.71-15.72,11.95-9.37,2.86-16.4,4.24-21.5,4.24ZM138.63,239.73s.51.84,3.15,2.05c2.1.95,5.32,1.45,9.56,1.45s10.98-1.33,19.61-3.97c10.67-3.27,11.15-5.74,11.15-5.77,0-.15-.32-.38-.46-.47-3.98-3.19-9.98-11.28-18.57-46.67-6.22-25.62-10.66-50.81-13.19-74.88-9.07-68.6-15.24-89.91-18.82-95.7-1.63-2.91-3.68-4.16-6.74-4.16-2.41,0-7.14,1.32-15.99,7.62-7.44,5.3-13.78,11.07-18.83,17.14-19.96,23.91-37.56,52.7-52.33,85.56-.52,1.16-1.68,1.91-2.95,1.91h-14.23c-2.86,0-5.8,2.14-8.73,6.36-4.45,6.41-4.79,8.8-4.79,9.38,0,.1,0,.17.01.24.06.01.14.01.24.01h18.34c1.04,0,2.02.5,2.63,1.36.61.84.77,1.94.43,2.92-7.85,22.94-11.84,41.78-11.84,56.01s2.27,24.4,6.73,31.1c4.25,6.38,10.5,9.47,19.13,9.47,4.52,0,10.21-1.7,16.89-5.04,3.86-1.82,7.11-5.01,9.72-9.48,2.64-4.55,3.99-10.26,3.99-17.03,0-.06,0-.11,0-.16l-6.31,1.12c-.19.03-.38.06-.58.06-6.15,0-11.09-2.6-14.66-7.7-3.23-4.61-5.17-9.06-5.77-13.26-.55-3.85-.82-9.74-.82-18s1.3-17.93,3.88-28.87c.34-1.46,1.64-2.49,3.14-2.49h.02l66.08.32c.67,0,1.32.21,1.86.6l2.21,1.58c.7.49,1.17,1.25,1.31,2.1.85,5.14,1.72,12.78,2.56,22.7l1.88,14.72c3.74,30.52,7.48,49.99,11.11,57.86h0ZM111.19,124.05c-.77,0-1.63-.02-2.61-.04-4.32-.11-21.73-.16-50.34-.16-1.05,0-2.19-.51-2.8-1.37-.6-.85-.91-1.95-.57-2.94,7.46-21.09,19.75-42.46,36.54-63.5,3.88-5.17,7.21-7.58,10.46-7.58,4.13,0,6.79,4.65,9.47,16.59,2.12,9.43,5,27.34,8.59,53.22.07.49.02,1-.14,1.47-.37,1.11-.95,2.06-1.72,2.83-1.03,1.02-2.35,1.46-6.88,1.46ZM62.56,117.4c26.55,0,41.98.06,46.18.16,2.3.06,3.72.03,4.56-.02-3.45-24.82-6.23-41.99-8.26-51.06-1.72-7.65-3.08-10.41-3.7-11.36-.74.38-2.29,1.5-4.8,4.84-.02.03-.04.06-.06.08-15.2,19.05-26.6,38.33-33.93,57.36Z"/>
        <path class="cls-25" d="M151.35,249.05c-5.25,0-9.26-.68-12.25-2.05-3.25-1.5-5.31-3.17-6.29-5.13-4.02-8.69-7.83-28.24-11.7-59.85l-1.9-14.84c-.77-9.06-1.54-16.08-2.3-21.02l-.28-.2-62.46-.3c-2.08,9.43-3.14,17.79-3.14,24.89,0,7.83.25,13.58.76,17.08.45,3.17,2.02,6.7,4.67,10.46,2.31,3.31,5.2,4.88,9.1,4.96l6.65-1.21c.19-.03.38-.06.58-.06,3.88,0,6.39,2.64,6.39,6.72,0,7.91-1.64,14.73-4.87,20.28-3.28,5.6-7.47,9.65-12.47,12.03-7.64,3.82-14.11,5.68-19.72,5.68-10.8,0-19.04-4.15-24.5-12.35-5.26-7.87-7.81-19.22-7.81-34.66,0-14.04,3.61-32.13,10.75-53.84H6.71c-4.07,0-6.71-2.63-6.71-6.7,0-3.06,1.89-7.23,5.95-13.07,4.21-6.06,8.93-9.14,14.04-9.14h12.14c14.83-32.61,32.46-61.25,52.4-85.14,5.41-6.5,12.15-12.64,20.05-18.26,8.33-5.94,14.79-8.83,19.73-8.83,5.38,0,9.64,2.55,12.31,7.36,5.69,9.2,12.15,41.36,19.66,98.21,2.51,23.86,6.9,48.78,13.06,74.11,7.88,32.49,13.48,40.87,16.11,42.97,2.53,1.68,3.11,4.04,3.11,5.68,0,6.32-8.4,9.69-15.72,11.93-9.37,2.87-16.4,4.27-21.5,4.27ZM138.63,239.1s.51.82,3.15,2.05c2.1.95,5.32,1.44,9.56,1.44s10.98-1.33,19.61-3.97c10.67-3.27,11.15-5.74,11.15-5.77,0-.15-.32-.38-.46-.48-3.98-3.16-9.98-11.26-18.57-46.65-6.22-25.62-10.66-50.81-13.19-74.88-9.07-68.6-15.24-89.92-18.82-95.7-1.63-2.92-3.68-4.17-6.74-4.17-2.41,0-7.14,1.33-15.99,7.63-7.44,5.3-13.78,11.07-18.83,17.14-19.96,23.91-37.56,52.7-52.33,85.56-.52,1.16-1.68,1.91-2.95,1.91h-14.23c-2.86,0-5.8,2.14-8.73,6.37-4.45,6.4-4.79,8.8-4.79,9.38,0,.09,0,.18.01.23.06,0,.14.02.24.02h18.34c1.04,0,2.02.5,2.63,1.36.61.84.77,1.93.43,2.92-7.85,22.93-11.84,41.78-11.84,56.01s2.27,24.39,6.73,31.09c4.25,6.37,10.5,9.47,19.13,9.47,4.52,0,10.21-1.7,16.89-5.04,3.86-1.84,7.11-5.01,9.72-9.49,2.64-4.54,3.99-10.26,3.99-17.01,0-.07,0-.12,0-.18l-6.31,1.13c-.19.04-.38.05-.58.05-6.15,0-11.09-2.6-14.66-7.69-3.23-4.63-5.17-9.09-5.77-13.27-.55-3.85-.82-9.74-.82-18s1.3-17.94,3.88-28.88c.34-1.46,1.64-2.48,3.14-2.48h.02l66.08.32c.67,0,1.32.21,1.86.59l2.21,1.58c.7.5,1.17,1.26,1.31,2.1.85,5.13,1.72,12.78,2.56,22.7l1.88,14.72c3.74,30.52,7.48,49.99,11.11,57.87h0ZM111.19,123.41c-.77,0-1.63-.01-2.61-.04-4.32-.1-21.73-.16-50.34-.16-1.05,0-2.19-.5-2.8-1.37-.6-.85-.91-1.95-.57-2.94,7.46-21.1,19.75-42.46,36.53-63.5,3.89-5.17,7.21-7.58,10.46-7.58,4.13,0,6.79,4.65,9.47,16.59,2.12,9.43,5,27.34,8.59,53.23.07.49.02,1-.14,1.46-.37,1.11-.95,2.06-1.72,2.84-1.03,1.02-2.35,1.46-6.88,1.46ZM62.56,116.75c26.55,0,41.98.06,46.18.17,2.3.05,3.72.01,4.56-.02-3.45-24.82-6.23-42-8.26-51.06-1.72-7.65-3.08-10.41-3.7-11.35-.74.37-2.29,1.5-4.8,4.84-.02.03-.04.06-.06.08-15.2,19.04-26.6,38.32-33.93,57.35Z"/>
        <path class="cls-22" d="M151.35,248.39c-5.25,0-9.26-.67-12.25-2.02-3.25-1.5-5.31-3.17-6.29-5.14-4.02-8.7-7.83-28.24-11.7-59.85l-1.9-14.85c-.77-9.05-1.54-16.08-2.3-21.02l-.28-.2-62.46-.3c-2.08,9.43-3.14,17.79-3.14,24.9,0,7.83.25,13.59.76,17.08.45,3.18,2.02,6.7,4.67,10.46,2.31,3.31,5.2,4.87,9.1,4.96l6.65-1.22c.19-.03.38-.05.58-.05,3.88,0,6.39,2.64,6.39,6.71,0,7.91-1.64,14.73-4.87,20.28-3.28,5.62-7.47,9.66-12.47,12.04-7.64,3.81-14.11,5.68-19.72,5.68-10.8,0-19.04-4.15-24.5-12.34-5.26-7.89-7.81-19.22-7.81-34.67,0-14.04,3.61-32.14,10.75-53.84H6.71c-4.07,0-6.71-2.63-6.71-6.71,0-3.06,1.89-7.21,5.95-13.06,4.21-6.06,8.93-9.13,14.04-9.13h12.14c14.83-32.63,32.46-61.26,52.4-85.15,5.41-6.49,12.15-12.64,20.05-18.27,8.33-5.93,14.79-8.82,19.73-8.82,5.38,0,9.64,2.55,12.31,7.36,5.69,9.2,12.15,41.36,19.66,98.2,2.51,23.86,6.9,48.77,13.06,74.11,7.88,32.5,13.48,40.88,16.11,42.98,2.53,1.69,3.11,4.03,3.11,5.67,0,6.33-8.4,9.71-15.72,11.95-9.37,2.86-16.4,4.25-21.5,4.25ZM138.63,238.44s.51.84,3.15,2.06c2.1.96,5.32,1.43,9.56,1.43s10.98-1.33,19.61-3.96c10.67-3.27,11.15-5.75,11.15-5.78,0-.14-.32-.37-.46-.46-3.98-3.17-9.98-11.27-18.57-46.66-6.22-25.63-10.66-50.82-13.19-74.89-9.07-68.59-15.24-89.91-18.82-95.69-1.63-2.92-3.68-4.17-6.74-4.17-2.41,0-7.14,1.32-15.99,7.62-7.44,5.31-13.78,11.07-18.83,17.14-19.96,23.91-37.56,52.69-52.33,85.57-.52,1.16-1.68,1.9-2.95,1.9h-14.23c-2.86,0-5.8,2.14-8.73,6.36-4.45,6.42-4.79,8.79-4.79,9.38,0,.1,0,.18.01.24.06,0,.14.02.24.02h18.34c1.04,0,2.02.5,2.63,1.35.61.85.77,1.94.43,2.92-7.85,22.93-11.84,41.79-11.84,56.02s2.27,24.39,6.73,31.09c4.25,6.37,10.5,9.47,19.13,9.47,4.52,0,10.21-1.7,16.89-5.04,3.86-1.83,7.11-5.01,9.72-9.49,2.64-4.54,3.99-10.27,3.99-17.03,0-.06,0-.11,0-.15l-6.31,1.11c-.19.04-.38.07-.58.07-6.15,0-11.09-2.61-14.66-7.72-3.23-4.6-5.17-9.07-5.77-13.25-.55-3.85-.82-9.74-.82-18s1.3-17.94,3.88-28.88c.34-1.46,1.64-2.48,3.14-2.48h.02l66.08.31c.67,0,1.32.22,1.86.6l2.21,1.59c.7.5,1.17,1.25,1.31,2.09.85,5.15,1.72,12.79,2.56,22.7l1.88,14.73c3.74,30.51,7.48,50,11.11,57.86h0ZM111.19,122.76c-.77,0-1.63-.01-2.61-.04-4.32-.1-21.73-.16-50.34-.16-1.05,0-2.19-.5-2.8-1.37-.6-.85-.91-1.95-.57-2.93,7.46-21.1,19.75-42.46,36.53-63.5,3.89-5.17,7.21-7.57,10.46-7.57,4.13,0,6.79,4.65,9.47,16.59,2.12,9.44,5,27.34,8.59,53.22.07.49.02,1-.14,1.47-.37,1.11-.95,2.06-1.72,2.84-1.03,1.02-2.35,1.46-6.88,1.46ZM62.56,116.12c26.55,0,41.98.05,46.18.15,2.3.06,3.72.03,4.56-.02-3.45-24.82-6.23-41.99-8.26-51.05-1.72-7.65-3.08-10.42-3.7-11.36-.74.37-2.29,1.5-4.8,4.84-.02.03-.04.05-.06.08-15.2,19.05-26.6,38.32-33.93,57.36Z"/>
        <path class="cls-18" d="M151.35,247.76c-5.25,0-9.26-.67-12.25-2.04-3.25-1.48-5.31-3.17-6.29-5.12-4.02-8.7-7.83-28.25-11.7-59.86l-1.9-14.85c-.77-9.04-1.54-16.07-2.3-21.01l-.28-.2-62.46-.29c-2.08,9.43-3.14,17.79-3.14,24.89,0,7.83.25,13.59.76,17.08.45,3.17,2.02,6.7,4.67,10.46,2.31,3.3,5.2,4.89,9.1,4.94l6.65-1.21c.19-.03.38-.06.58-.06,3.88,0,6.39,2.64,6.39,6.71,0,7.91-1.64,14.73-4.87,20.28-3.28,5.61-7.47,9.67-12.47,12.04-7.64,3.82-14.11,5.68-19.72,5.68-10.8,0-19.04-4.16-24.5-12.34-5.26-7.88-7.81-19.22-7.81-34.68,0-14.03,3.61-32.12,10.75-53.83H6.71c-4.07,0-6.71-2.63-6.71-6.71,0-3.06,1.89-7.21,5.95-13.06,4.21-6.06,8.93-9.13,14.04-9.13h12.14c14.83-32.62,32.46-61.25,52.4-85.14,5.41-6.49,12.15-12.65,20.05-18.27,8.33-5.94,14.79-8.82,19.73-8.82,5.38,0,9.64,2.54,12.31,7.35,5.69,9.2,12.15,41.37,19.66,98.21,2.51,23.86,6.9,48.77,13.06,74.12,7.88,32.49,13.48,40.87,16.11,42.97,2.53,1.68,3.11,4.04,3.11,5.68,0,6.32-8.4,9.69-15.72,11.95-9.37,2.85-16.4,4.25-21.5,4.25ZM138.63,237.79s.51.84,3.15,2.05c2.1.96,5.32,1.45,9.56,1.45s10.98-1.33,19.61-3.96c10.67-3.27,11.15-5.75,11.15-5.77,0-.15-.32-.38-.46-.48-3.98-3.17-9.98-11.27-18.57-46.66-6.22-25.62-10.66-50.81-13.19-74.88-9.07-68.59-15.24-89.91-18.82-95.7-1.63-2.92-3.68-4.16-6.74-4.16-2.41,0-7.14,1.32-15.99,7.62-7.44,5.3-13.78,11.07-18.83,17.15-19.96,23.9-37.56,52.69-52.33,85.56-.52,1.16-1.68,1.91-2.95,1.91h-14.23c-2.86,0-5.8,2.15-8.73,6.36-4.45,6.42-4.79,8.8-4.79,9.38,0,.1,0,.18.01.24.06.01.14.01.24.01h18.34c1.04,0,2.02.51,2.63,1.35.61.85.77,1.94.43,2.92-7.85,22.94-11.84,41.78-11.84,56.01s2.27,24.4,6.73,31.1c4.25,6.37,10.5,9.47,19.13,9.47,4.52,0,10.21-1.7,16.89-5.04,3.86-1.83,7.11-5.02,9.72-9.49,2.64-4.52,3.99-10.26,3.99-17.02,0-.06,0-.12,0-.16l-6.31,1.13c-.19.03-.38.06-.58.06-6.15,0-11.09-2.6-14.66-7.7-3.23-4.61-5.17-9.07-5.77-13.25-.55-3.87-.82-9.75-.82-18s1.3-17.94,3.88-28.88c.34-1.46,1.64-2.49,3.14-2.49h.02l66.08.32c.67,0,1.32.21,1.86.59l2.21,1.58c.7.5,1.17,1.25,1.31,2.1.85,5.15,1.72,12.77,2.56,22.7l1.88,14.72c3.74,30.52,7.48,49.98,11.11,57.87h0ZM111.19,122.12c-.77,0-1.63-.02-2.61-.04-4.32-.1-21.73-.16-50.34-.16-1.05,0-2.19-.5-2.8-1.36-.6-.86-.91-1.95-.57-2.94,7.46-21.09,19.75-42.46,36.53-63.49,3.89-5.17,7.21-7.58,10.46-7.58,4.13,0,6.79,4.64,9.47,16.59,2.12,9.43,5,27.33,8.59,53.21.07.5.02,1-.14,1.48-.37,1.11-.95,2.06-1.72,2.83-1.03,1.02-2.35,1.46-6.88,1.46ZM62.56,115.46c26.55.01,41.98.06,46.18.15,2.3.07,3.72.03,4.56-.02-3.45-24.82-6.23-41.99-8.26-51.05-1.72-7.66-3.08-10.41-3.7-11.36-.74.38-2.29,1.5-4.8,4.84-.02.02-.04.06-.06.08-15.2,19.05-26.6,38.32-33.93,57.36Z"/>
        <path class="cls-24" d="M151.35,247.1c-5.25,0-9.26-.65-12.25-2.03-3.25-1.49-5.31-3.17-6.29-5.13-4.02-8.7-7.83-28.25-11.7-59.85l-1.9-14.85c-.77-9.05-1.54-16.07-2.3-21.01l-.28-.2-62.46-.29c-2.08,9.43-3.14,17.78-3.14,24.89,0,7.83.25,13.59.76,17.09.45,3.17,2.02,6.69,4.67,10.47,2.31,3.29,5.2,4.87,9.1,4.94l6.65-1.22c.19-.03.38-.04.58-.04,3.88,0,6.39,2.62,6.39,6.7,0,7.92-1.64,14.74-4.87,20.27-3.28,5.62-7.47,9.67-12.47,12.04-7.64,3.82-14.11,5.69-19.72,5.69-10.8,0-19.04-4.16-24.5-12.34-5.26-7.88-7.81-19.23-7.81-34.68,0-14.03,3.61-32.12,10.75-53.83H6.71c-4.07,0-6.71-2.63-6.71-6.7,0-3.07,1.89-7.22,5.95-13.07,4.21-6.06,8.93-9.14,14.04-9.14h12.14c14.83-32.61,32.46-61.25,52.4-85.14,5.41-6.49,12.15-12.64,20.05-18.26,8.33-5.94,14.79-8.83,19.73-8.83,5.38,0,9.64,2.54,12.31,7.35,5.69,9.2,12.15,41.36,19.66,98.2,2.51,23.86,6.9,48.77,13.06,74.12,7.88,32.49,13.48,40.87,16.11,42.97,2.53,1.68,3.11,4.02,3.11,5.68,0,6.32-8.4,9.69-15.72,11.95-9.37,2.86-16.4,4.24-21.5,4.24ZM138.63,237.15s.51.83,3.15,2.05c2.1.96,5.32,1.45,9.56,1.45s10.98-1.33,19.61-3.97c10.67-3.27,11.15-5.75,11.15-5.77,0-.15-.32-.39-.46-.48-3.98-3.16-9.98-11.27-18.57-46.66-6.22-25.62-10.66-50.81-13.19-74.88-9.07-68.6-15.24-89.91-18.82-95.7-1.63-2.92-3.68-4.16-6.74-4.16-2.41,0-7.14,1.33-15.99,7.63-7.44,5.3-13.78,11.06-18.83,17.14-19.96,23.91-37.56,52.69-52.33,85.56-.52,1.16-1.68,1.91-2.95,1.91h-14.23c-2.86,0-5.8,2.14-8.73,6.35-4.45,6.42-4.79,8.81-4.79,9.39,0,.09,0,.17.01.24.06,0,.14,0,.24,0h18.34c1.04,0,2.02.5,2.63,1.35.61.86.77,1.94.43,2.92-7.85,22.94-11.84,41.79-11.84,56.01s2.27,24.4,6.73,31.1c4.25,6.37,10.5,9.46,19.13,9.46,4.52,0,10.21-1.68,16.89-5.03,3.86-1.84,7.11-5.02,9.72-9.49,2.64-4.52,3.99-10.25,3.99-17.02,0-.06,0-.11,0-.16l-6.31,1.13c-.19.03-.38.04-.58.04-6.15,0-11.09-2.57-14.66-7.69-3.23-4.61-5.17-9.07-5.77-13.26-.55-3.85-.82-9.74-.82-18s1.3-17.94,3.88-28.88c.34-1.46,1.64-2.48,3.14-2.48h.02l66.08.31c.67,0,1.32.22,1.86.6l2.21,1.58c.7.5,1.17,1.25,1.31,2.11.85,5.14,1.72,12.77,2.56,22.7l1.88,14.72c3.74,30.52,7.48,49.98,11.11,57.86h0ZM111.19,121.47c-.77,0-1.63-.01-2.61-.03-4.32-.11-21.73-.16-50.34-.16-1.05,0-2.19-.51-2.8-1.37-.6-.86-.91-1.95-.57-2.94,7.46-21.1,19.75-42.46,36.53-63.5,3.89-5.16,7.21-7.58,10.46-7.58,4.13,0,6.79,4.65,9.47,16.59,2.12,9.44,5,27.34,8.59,53.22.07.5.02,1-.14,1.48-.37,1.11-.95,2.06-1.72,2.83-1.03,1.02-2.35,1.46-6.88,1.46ZM62.56,114.81c26.55.01,41.98.06,46.18.17,2.3.05,3.72.03,4.56-.02-3.45-24.82-6.23-41.99-8.26-51.06-1.72-7.66-3.08-10.41-3.7-11.35-.74.37-2.29,1.5-4.8,4.84-.02.02-.04.04-.06.07-15.2,19.05-26.6,38.32-33.93,57.35Z"/>
        <path class="cls-20" d="M151.35,246.46c-5.25,0-9.26-.67-12.25-2.04-3.25-1.49-5.31-3.17-6.29-5.12-4.02-8.7-7.83-28.24-11.7-59.85l-1.9-14.84c-.77-9.05-1.54-16.08-2.3-21.02l-.28-.19-62.46-.3c-2.08,9.42-3.14,17.78-3.14,24.89,0,7.83.25,13.58.76,17.09.45,3.17,2.02,6.69,4.67,10.46,2.31,3.3,5.2,4.87,9.1,4.94l6.65-1.19c.19-.05.38-.07.58-.07,3.88,0,6.39,2.64,6.39,6.71,0,7.92-1.64,14.74-4.87,20.28-3.28,5.62-7.47,9.67-12.47,12.03-7.64,3.82-14.11,5.69-19.72,5.69-10.8,0-19.04-4.15-24.5-12.34-5.26-7.87-7.81-19.23-7.81-34.66,0-14.04,3.61-32.14,10.75-53.84H6.71c-4.07,0-6.71-2.64-6.71-6.7,0-3.06,1.89-7.22,5.95-13.07,4.21-6.06,8.93-9.13,14.04-9.13h12.14c14.83-32.62,32.46-61.27,52.4-85.15,5.41-6.5,12.15-12.64,20.05-18.27,8.33-5.93,14.79-8.81,19.73-8.81,5.38,0,9.64,2.54,12.31,7.36,5.69,9.2,12.15,41.36,19.66,98.19,2.51,23.87,6.9,48.77,13.06,74.12,7.88,32.49,13.48,40.88,16.11,42.97,2.53,1.69,3.11,4.04,3.11,5.7,0,6.32-8.4,9.69-15.72,11.93-9.37,2.87-16.4,4.26-21.5,4.26ZM138.63,236.5s.51.84,3.15,2.05c2.1.96,5.32,1.46,9.56,1.46s10.98-1.34,19.61-3.98c10.67-3.27,11.15-5.75,11.15-5.76,0-.16-.32-.38-.46-.48-3.98-3.17-9.98-11.26-18.57-46.66-6.22-25.62-10.66-50.8-13.19-74.88-9.07-68.59-15.24-89.9-18.82-95.69-1.63-2.92-3.68-4.16-6.74-4.16-2.41,0-7.14,1.32-15.99,7.62-7.44,5.3-13.78,11.06-18.83,17.14-19.96,23.91-37.56,52.7-52.33,85.57-.52,1.16-1.68,1.9-2.95,1.9h-14.23c-2.86,0-5.8,2.14-8.73,6.36-4.45,6.41-4.79,8.81-4.79,9.38,0,.1,0,.17.01.24.06,0,.14,0,.24,0h18.34c1.04,0,2.02.51,2.63,1.35.61.85.77,1.94.43,2.92-7.85,22.94-11.84,41.79-11.84,56.02s2.27,24.39,6.73,31.08c4.25,6.38,10.5,9.47,19.13,9.47,4.52,0,10.21-1.69,16.89-5.03,3.86-1.84,7.11-5.02,9.72-9.49,2.64-4.54,3.99-10.27,3.99-17.03,0-.06,0-.1,0-.17l-6.31,1.13c-.19.03-.38.05-.58.05-6.15,0-11.09-2.59-14.66-7.7-3.23-4.61-5.17-9.08-5.77-13.25-.55-3.86-.82-9.75-.82-18s1.3-17.94,3.88-28.88c.34-1.46,1.64-2.49,3.14-2.49h.02l66.08.32c.67,0,1.32.21,1.86.61l2.21,1.58c.7.5,1.17,1.25,1.31,2.1.85,5.14,1.72,12.78,2.56,22.7l1.88,14.73c3.74,30.52,7.48,49.98,11.11,57.85h0ZM111.19,120.83c-.77,0-1.63-.02-2.61-.04-4.32-.1-21.73-.16-50.34-.16-1.05,0-2.19-.5-2.8-1.37-.6-.84-.91-1.95-.57-2.93,7.46-21.1,19.75-42.47,36.54-63.51,3.88-5.16,7.21-7.58,10.46-7.58,4.13,0,6.79,4.66,9.47,16.6,2.12,9.43,5,27.33,8.59,53.22.07.5.02,1-.14,1.47-.37,1.11-.95,2.06-1.72,2.83-1.03,1.03-2.35,1.47-6.88,1.47ZM62.56,114.18c26.55,0,41.98.05,46.18.15,2.3.06,3.72.02,4.56-.02-3.45-24.83-6.23-42-8.26-51.06-1.72-7.65-3.08-10.41-3.7-11.35-.74.37-2.29,1.5-4.8,4.84-.02.03-.04.05-.06.07-15.2,19.05-26.6,38.33-33.93,57.36Z"/>
        <path class="cls-21" d="M151.35,245.81c-5.25,0-9.26-.66-12.25-2.03-3.25-1.48-5.31-3.17-6.29-5.12-4.02-8.7-7.83-28.24-11.7-59.86l-1.9-14.84c-.77-9.05-1.54-16.08-2.3-21.01l-.28-.2-62.46-.3c-2.08,9.43-3.14,17.79-3.14,24.9,0,7.83.25,13.58.76,17.08.45,3.17,2.02,6.69,4.67,10.46,2.31,3.31,5.2,4.87,9.1,4.96l6.65-1.22c.19-.03.38-.05.58-.05,3.88,0,6.39,2.63,6.39,6.71,0,7.92-1.64,14.75-4.87,20.28-3.28,5.62-7.47,9.66-12.47,12.04-7.64,3.81-14.11,5.68-19.72,5.68-10.8,0-19.04-4.15-24.5-12.34-5.26-7.89-7.81-19.22-7.81-34.68,0-14.04,3.61-32.12,10.75-53.83H6.71c-4.07,0-6.71-2.63-6.71-6.71,0-3.06,1.89-7.22,5.95-13.06,4.21-6.06,8.93-9.13,14.04-9.13h12.14c14.83-32.62,32.46-61.26,52.4-85.15,5.41-6.49,12.15-12.64,20.05-18.26,8.33-5.94,14.79-8.82,19.73-8.82,5.38,0,9.64,2.54,12.31,7.35,5.69,9.19,12.15,41.36,19.66,98.2,2.51,23.87,6.9,48.78,13.06,74.12,7.88,32.48,13.48,40.87,16.11,42.97,2.53,1.69,3.11,4.03,3.11,5.68,0,6.32-8.4,9.71-15.72,11.94-9.37,2.86-16.4,4.26-21.5,4.26ZM138.63,235.86s.51.84,3.15,2.06c2.1.95,5.32,1.44,9.56,1.44s10.98-1.33,19.61-3.96c10.67-3.27,11.15-5.75,11.15-5.77,0-.15-.32-.38-.46-.47-3.98-3.18-9.98-11.27-18.57-46.66-6.22-25.62-10.66-50.81-13.19-74.88-9.07-68.6-15.24-89.92-18.82-95.7-1.63-2.92-3.68-4.16-6.74-4.16-2.41,0-7.14,1.31-15.99,7.61-7.44,5.31-13.78,11.07-18.83,17.15-19.96,23.91-37.56,52.69-52.33,85.57-.52,1.16-1.68,1.91-2.95,1.91h-14.23c-2.86,0-5.8,2.14-8.73,6.36-4.45,6.41-4.79,8.8-4.79,9.38,0,.1,0,.17.01.24.06,0,.14.02.24.02h18.34c1.04,0,2.02.5,2.63,1.35.61.84.77,1.93.43,2.92-7.85,22.93-11.84,41.77-11.84,56.01s2.27,24.39,6.73,31.09c4.25,6.38,10.5,9.47,19.13,9.47,4.52,0,10.21-1.7,16.89-5.03,3.86-1.83,7.11-5.03,9.72-9.49,2.64-4.54,3.99-10.26,3.99-17.03,0-.05,0-.11,0-.15l-6.31,1.11c-.19.04-.38.06-.58.06-6.15,0-11.09-2.6-14.66-7.7-3.23-4.6-5.17-9.07-5.77-13.25-.55-3.86-.82-9.74-.82-18s1.3-17.94,3.88-28.88c.34-1.46,1.64-2.49,3.14-2.49h.02l66.08.31c.67.01,1.32.22,1.86.61l2.21,1.58c.7.49,1.17,1.25,1.31,2.1.85,5.14,1.72,12.78,2.56,22.7l1.88,14.72c3.74,30.53,7.48,50,11.11,57.86h0ZM111.19,120.18c-.77,0-1.63-.02-2.61-.03-4.32-.11-21.73-.16-50.34-.16-1.05,0-2.19-.51-2.8-1.37-.6-.85-.91-1.95-.57-2.93,7.46-21.1,19.75-42.47,36.53-63.5,3.89-5.17,7.21-7.57,10.46-7.57,4.13,0,6.79,4.64,9.47,16.59,2.12,9.43,5,27.34,8.59,53.22.07.49.02,1-.14,1.47-.37,1.1-.95,2.06-1.72,2.83-1.03,1.03-2.35,1.46-6.88,1.46ZM62.56,113.53c26.55,0,41.98.06,46.18.16,2.3.06,3.72.02,4.56-.02-3.45-24.82-6.23-41.99-8.26-51.06-1.72-7.65-3.08-10.41-3.7-11.36-.74.38-2.29,1.51-4.8,4.85-.02.02-.04.05-.06.08-15.2,19.04-26.6,38.31-33.93,57.35Z"/>
        <path class="cls-23" d="M151.35,245.17c-5.25,0-9.26-.67-12.25-2.03-3.25-1.5-5.31-3.17-6.29-5.12-4.02-8.71-7.83-28.25-11.7-59.85l-1.9-14.85c-.77-9.05-1.54-16.07-2.3-21.01l-.28-.2-62.46-.29c-2.08,9.43-3.14,17.78-3.14,24.89,0,7.83.25,13.58.76,17.08.45,3.17,2.02,6.69,4.67,10.47,2.31,3.29,5.2,4.87,9.1,4.94l6.65-1.2c.19-.03.38-.06.58-.06,3.88,0,6.39,2.64,6.39,6.71,0,7.92-1.64,14.73-4.87,20.28-3.28,5.61-7.47,9.67-12.47,12.03-7.64,3.82-14.11,5.69-19.72,5.69-10.8,0-19.04-4.16-24.5-12.34-5.26-7.89-7.81-19.22-7.81-34.68,0-14.03,3.61-32.13,10.75-53.83H6.71c-4.07,0-6.71-2.63-6.71-6.71,0-3.06,1.89-7.21,5.95-13.06,4.21-6.06,8.93-9.14,14.04-9.14h12.14c14.83-32.62,32.46-61.25,52.4-85.15,5.41-6.49,12.15-12.63,20.05-18.26C112.91,3.53,119.37.64,124.32.64c5.38,0,9.64,2.54,12.31,7.36,5.69,9.19,12.15,41.37,19.66,98.21,2.51,23.86,6.9,48.77,13.06,74.11,7.88,32.49,13.48,40.87,16.11,42.98,2.53,1.67,3.11,4.04,3.11,5.68,0,6.32-8.4,9.69-15.72,11.95-9.37,2.85-16.4,4.24-21.5,4.24ZM138.63,235.21s.51.84,3.15,2.05c2.1.96,5.32,1.45,9.56,1.45s10.98-1.32,19.61-3.96c10.67-3.27,11.15-5.75,11.15-5.77,0-.15-.32-.38-.46-.48-3.98-3.17-9.98-11.27-18.57-46.66-6.22-25.62-10.66-50.81-13.19-74.89-9.07-68.59-15.24-89.91-18.82-95.7-1.63-2.91-3.68-4.15-6.74-4.15-2.41,0-7.14,1.33-15.99,7.62-7.44,5.3-13.78,11.07-18.83,17.14-19.96,23.91-37.56,52.69-52.33,85.56-.52,1.16-1.68,1.91-2.95,1.91h-14.23c-2.86,0-5.8,2.14-8.73,6.36-4.45,6.42-4.79,8.8-4.79,9.38,0,.09,0,.17.01.24.06,0,.14,0,.24,0h18.34c1.04,0,2.02.51,2.63,1.35.61.85.77,1.93.43,2.92-7.85,22.94-11.84,41.79-11.84,56.02s2.27,24.41,6.73,31.09c4.25,6.37,10.5,9.47,19.13,9.47,4.52,0,10.21-1.7,16.89-5.04,3.86-1.83,7.11-5.01,9.72-9.49,2.64-4.53,3.99-10.26,3.99-17.01,0-.06,0-.12,0-.16l-6.31,1.13c-.19.03-.38.05-.58.05-6.15,0-11.09-2.59-14.66-7.7-3.23-4.62-5.17-9.08-5.77-13.26-.55-3.87-.82-9.75-.82-18s1.3-17.94,3.88-28.88c.34-1.46,1.64-2.49,3.14-2.49h.02l66.08.32c.67,0,1.32.21,1.86.6l2.21,1.58c.7.5,1.17,1.25,1.31,2.1.85,5.15,1.72,12.78,2.56,22.7l1.88,14.72c3.74,30.53,7.48,49.98,11.11,57.87h0ZM111.19,119.53c-.77,0-1.63-.01-2.61-.04-4.32-.1-21.73-.15-50.34-.15-1.05,0-2.19-.51-2.8-1.37-.6-.85-.91-1.94-.57-2.94,7.46-21.09,19.75-42.46,36.53-63.5,3.89-5.16,7.21-7.58,10.46-7.58,4.13,0,6.79,4.65,9.47,16.59,2.12,9.44,5,27.34,8.59,53.23.07.49.02,1.01-.14,1.47-.37,1.11-.95,2.06-1.72,2.84-1.03,1.02-2.35,1.46-6.88,1.46ZM62.56,112.88c26.55,0,41.98.06,46.18.16,2.3.05,3.72.03,4.56-.02-3.45-24.82-6.23-42-8.26-51.06-1.72-7.66-3.08-10.42-3.7-11.36-.74.38-2.29,1.5-4.8,4.84-.02.02-.04.04-.06.07-15.2,19.05-26.6,38.33-33.93,57.36Z"/>
        <path class="cls-19" d="M151.35,244.52c-5.25,0-9.26-.66-12.25-2.03-3.25-1.49-5.31-3.16-6.29-5.13-4.02-8.7-7.83-28.24-11.7-59.85l-1.9-14.84c-.77-9.05-1.54-16.08-2.3-21.01l-.28-.2-62.46-.3c-2.08,9.43-3.14,17.79-3.14,24.9,0,7.83.25,13.58.76,17.08.45,3.18,2.02,6.69,4.67,10.47,2.31,3.29,5.2,4.87,9.1,4.94l6.65-1.21c.19-.03.38-.04.58-.04,3.88,0,6.39,2.62,6.39,6.7,0,7.92-1.64,14.73-4.87,20.28-3.28,5.62-7.47,9.67-12.47,12.03-7.64,3.83-14.11,5.7-19.72,5.7-10.8,0-19.04-4.16-24.5-12.35-5.26-7.87-7.81-19.22-7.81-34.68,0-14.03,3.61-32.12,10.75-53.83H6.71c-4.07,0-6.71-2.63-6.71-6.71,0-3.07,1.89-7.22,5.95-13.06,4.21-6.07,8.93-9.14,14.04-9.14h12.14c14.83-32.61,32.46-61.25,52.4-85.15,5.41-6.49,12.15-12.64,20.05-18.26C112.91,2.89,119.37,0,124.32,0c5.38,0,9.64,2.54,12.31,7.35,5.69,9.2,12.15,41.37,19.66,98.21,2.51,23.86,6.9,48.77,13.06,74.11,7.88,32.5,13.48,40.87,16.11,42.98,2.53,1.67,3.11,4.04,3.11,5.68,0,6.32-8.4,9.71-15.72,11.95-9.37,2.86-16.4,4.24-21.5,4.24ZM138.63,234.56s.51.84,3.15,2.06c2.1.95,5.32,1.43,9.56,1.43s10.98-1.33,19.61-3.96c10.67-3.27,11.15-5.75,11.15-5.76,0-.15-.32-.38-.46-.49-3.98-3.15-9.98-11.26-18.57-46.65-6.22-25.62-10.66-50.81-13.19-74.88-9.07-68.6-15.24-89.9-18.82-95.69-1.63-2.92-3.68-4.16-6.74-4.16-2.41,0-7.14,1.32-15.99,7.61-7.44,5.3-13.78,11.07-18.83,17.15-19.96,23.9-37.56,52.68-52.33,85.56-.52,1.16-1.68,1.9-2.95,1.9h-14.23c-2.86,0-5.8,2.14-8.73,6.37-4.45,6.41-4.79,8.79-4.79,9.37,0,.1,0,.17.01.24.06.01.14.01.24.01h18.34c1.04,0,2.02.5,2.63,1.35.61.85.77,1.94.43,2.92-7.85,22.94-11.84,41.79-11.84,56.01s2.27,24.4,6.73,31.1c4.25,6.37,10.5,9.46,19.13,9.46,4.52,0,10.21-1.68,16.89-5.03,3.86-1.85,7.11-5.02,9.72-9.5,2.64-4.52,3.99-10.24,3.99-17.01,0-.07,0-.11,0-.17l-6.31,1.13c-.19.03-.38.06-.58.06-6.15,0-11.09-2.6-14.66-7.71-3.23-4.6-5.17-9.07-5.77-13.24-.55-3.86-.82-9.75-.82-18s1.3-17.94,3.88-28.88c.34-1.46,1.64-2.49,3.14-2.49h.02l66.08.32c.67,0,1.32.21,1.86.6l2.21,1.58c.7.5,1.17,1.25,1.31,2.1.85,5.14,1.72,12.78,2.56,22.7l1.88,14.73c3.74,30.52,7.48,49.98,11.11,57.85h0ZM111.19,118.89c-.77,0-1.63-.02-2.61-.03-4.32-.11-21.73-.16-50.34-.16-1.05,0-2.19-.5-2.8-1.36-.6-.85-.91-1.96-.57-2.94,7.46-21.1,19.75-42.46,36.53-63.5,3.89-5.17,7.21-7.58,10.46-7.58,4.13,0,6.79,4.65,9.47,16.6,2.12,9.42,5,27.34,8.59,53.21.07.5.02,1-.14,1.47-.37,1.11-.95,2.06-1.72,2.83-1.03,1.02-2.35,1.46-6.88,1.46ZM62.56,112.23c26.55,0,41.98.06,46.18.16,2.3.06,3.72.03,4.56-.02-3.45-24.82-6.23-41.99-8.26-51.05-1.72-7.67-3.08-10.41-3.7-11.35-.74.37-2.29,1.5-4.8,4.84-.02.02-.04.05-.06.06-15.2,19.05-26.6,38.33-33.93,57.36Z"/>
      </g>
      <path class="cls-30" d="M65.83,201.78l6.95-1.28c2.11,0,3.16,1.17,3.16,3.49,0,7.37-1.48,13.59-4.42,18.65-2.96,5.06-6.64,8.65-11.07,10.75-7.17,3.58-13.28,5.38-18.34,5.38-9.7,0-16.97-3.65-21.81-10.9-4.85-7.28-7.27-18.23-7.27-32.9s4-33.66,12.01-57.06H6.71c-2.32,0-3.48-1.16-3.48-3.48s1.79-6.06,5.38-11.22c3.58-5.16,7.37-7.74,11.38-7.74h14.23c14.96-33.3,32.56-62.07,52.8-86.31,5.27-6.33,11.75-12.23,19.44-17.71,7.69-5.48,13.64-8.22,17.86-8.22s7.38,1.9,9.48,5.68c5.48,8.86,11.9,41.22,19.29,97.06,2.53,24.03,6.9,48.85,13.12,74.46,6.21,25.61,11.96,40.53,17.23,44.73,1.27.85,1.9,1.9,1.9,3.17,0,3.15-4.48,6.1-13.44,8.85-8.96,2.73-15.81,4.11-20.55,4.11s-8.38-.57-10.91-1.74c-2.53-1.16-4.11-2.37-4.74-3.62-3.79-8.23-7.59-27.83-11.38-58.82l-1.9-14.86c-.84-9.9-1.69-17.38-2.53-22.44l-2.21-1.58-66.08-.32c-2.53,10.75-3.79,20.13-3.79,28.14s.26,13.86.79,17.55c.52,3.69,2.26,7.64,5.21,11.85,2.95,4.22,6.95,6.33,12.01,6.33ZM93.96,52.86c-16.65,20.87-28.67,41.73-36.04,62.6h.32c29.29,0,46.1.06,50.43.16,4.32.11,6.69-.05,7.11-.47.42-.42.74-.95.95-1.58-3.59-25.93-6.43-43.58-8.54-52.95-2.11-9.38-4.22-14.07-6.32-14.07s-4.74,2.11-7.91,6.32Z"/>
      <g>
        <path class="cls-28" d="M151.35,248.72c-5.02,0-8.8-.62-11.58-1.89-2.9-1.33-4.7-2.76-5.51-4.38-3.92-8.5-7.69-27.89-11.54-59.33l-1.89-14.85c-.81-9.44-1.62-16.72-2.41-21.73l-1.25-.89-64.28-.31c-2.3,10.07-3.46,18.99-3.46,26.52,0,7.92.26,13.74.77,17.32.49,3.42,2.15,7.17,4.94,11.16,2.63,3.75,6.08,5.6,10.55,5.64l6.81-1.24c3.4.06,5.07,1.87,5.07,5.07,0,7.62-1.56,14.18-4.65,19.45-3.11,5.34-7.07,9.17-11.77,11.4-7.34,3.67-13.75,5.53-19.03,5.53-10.22,0-18.01-3.91-23.16-11.62-5-7.5-7.55-18.86-7.55-33.78s3.83-32.96,11.38-55.44H6.71c-3.19,0-5.09-1.91-5.09-5.1,0-2.68,1.85-6.65,5.66-12.15,3.89-5.6,8.16-8.43,12.71-8.43h13.18c14.86-32.88,32.56-61.72,52.6-85.73,5.32-6.38,11.96-12.44,19.74-17.99,8.05-5.74,14.2-8.51,18.8-8.51s8.49,2.19,10.89,6.52c5.61,9.07,11.99,41.02,19.48,97.63,2.52,23.89,6.92,48.87,13.09,74.28,7.6,31.31,13.26,41.13,16.67,43.86,2.05,1.36,2.5,3.16,2.5,4.42,0,4.05-4.63,7.35-14.58,10.39-9.22,2.81-16.09,4.18-21.02,4.18ZM51.6,142.11h.01l66.07.32c.34,0,.66.11.93.3l2.21,1.58c.35.25.58.63.65,1.05.85,5.1,1.71,12.7,2.55,22.59l1.89,14.78c3.75,30.68,7.54,50.31,11.25,58.34.24.47,1.09,1.53,3.95,2.84,2.31,1.06,5.76,1.6,10.24,1.6s11.29-1.35,20.08-4.03c11.1-3.42,12.29-6.25,12.29-7.32,0-.48-.13-1.11-1.18-1.82-5.72-4.57-11.54-19.48-17.9-45.69-6.21-25.56-10.63-50.67-13.16-74.67-7.31-55.32-13.72-87.77-19.05-96.37-1.85-3.34-4.5-4.93-8.11-4.93-3.85,0-9.55,2.66-16.93,7.92-7.56,5.38-14,11.25-19.14,17.42-20.05,24.01-37.74,52.93-52.57,85.94-.26.58-.84.95-1.47.95h-14.23c-3.43,0-6.81,2.37-10.05,7.05-4.2,6.06-5.09,8.94-5.09,10.3,0,1.43.44,1.86,1.86,1.86h18.34c.52,0,1.01.25,1.31.68.31.43.38.97.22,1.46-7.92,23.1-11.93,42.12-11.93,56.54s2.35,25.02,7,31.98c4.57,6.86,11.26,10.19,20.47,10.19,4.78,0,10.7-1.74,17.62-5.2,4.13-1.96,7.62-5.36,10.39-10.12,2.79-4.78,4.21-10.78,4.21-17.83,0-1.74-.64-1.87-1.55-1.87l-6.67,1.24c-.09,0-.19.03-.29.03-5.6,0-10.08-2.36-13.34-7.02-3.09-4.4-4.94-8.63-5.49-12.55-.54-3.79-.81-9.59-.81-17.77s1.29-17.69,3.83-28.5c.17-.73.83-1.25,1.57-1.25ZM111.06,123.08c-.71,0-1.52-.01-2.43-.03-4.4-.11-21.35-.16-50.38-.16-.52,0-1.18-.26-1.48-.69-.3-.43-.54-.97-.36-1.47,7.4-20.94,19.61-42.14,36.29-63.05,3.56-4.74,6.48-6.94,9.18-6.94,3.16,0,5.45,4.44,7.9,15.33,2.11,9.39,4.99,27.25,8.56,53.1.04.25.01.49-.07.73-.29.86-.74,1.61-1.34,2.2-.55.55-1.39.98-5.86.98ZM60.23,119.66c27.97,0,44.17.05,48.48.15,4.27.11,5.66-.08,6.09-.17.1-.14.2-.29.28-.47-3.54-25.52-6.38-43.15-8.45-52.4-2.71-12.07-4.7-12.79-4.79-12.82-.84.01-2.87.75-6.57,5.69-.01.01-.02.02-.03.03-15.89,19.91-27.66,40.08-35,59.98Z"/>
        <path class="cls-9" d="M151.35,248.08c-5.02,0-8.8-.63-11.58-1.89-2.9-1.33-4.7-2.76-5.51-4.37-3.92-8.51-7.69-27.89-11.54-59.34l-1.89-14.85c-.81-9.44-1.62-16.72-2.41-21.73l-1.25-.9-64.28-.3c-2.3,10.06-3.46,18.98-3.46,26.51,0,7.92.26,13.74.77,17.32.49,3.43,2.15,7.18,4.94,11.16,2.63,3.75,6.08,5.59,10.55,5.63l6.81-1.25c3.4,0,5.07,1.89,5.07,5.08,0,7.63-1.56,14.18-4.65,19.47-3.11,5.31-7.07,9.15-11.77,11.38-7.34,3.67-13.75,5.54-19.03,5.54-10.22,0-18.01-3.92-23.16-11.63-5-7.5-7.55-18.86-7.55-33.78s3.83-32.96,11.38-55.44H6.71c-3.19,0-5.09-1.9-5.09-5.09,0-2.72,1.8-6.58,5.66-12.15,3.89-5.6,8.16-8.44,12.71-8.44h13.18c14.86-32.88,32.56-61.72,52.6-85.73,5.32-6.39,11.96-12.44,19.74-17.99,8.05-5.73,14.2-8.52,18.8-8.52s8.49,2.2,10.89,6.52c5.61,9.07,11.99,41.03,19.48,97.64,2.51,23.89,6.92,48.87,13.09,74.29,7.6,31.31,13.26,41.12,16.67,43.86,2.05,1.36,2.5,3.16,2.5,4.42,0,4.04-4.63,7.35-14.58,10.39-9.22,2.81-16.09,4.19-21.02,4.19ZM51.6,141.46h.01l66.07.32c.34,0,.66.1.93.3l2.21,1.58c.35.25.58.64.65,1.06.85,5.1,1.71,12.69,2.55,22.58l1.89,14.78c3.75,30.68,7.54,50.31,11.25,58.34.24.47,1.09,1.53,3.95,2.84,2.31,1.06,5.76,1.61,10.24,1.61s11.29-1.37,20.08-4.05c11.1-3.4,12.29-6.24,12.29-7.3,0-.49-.13-1.13-1.18-1.82-5.72-4.57-11.54-19.49-17.9-45.7-6.21-25.56-10.63-50.67-13.16-74.67-7.31-55.32-13.72-87.77-19.05-96.37-1.85-3.34-4.5-4.93-8.11-4.93-3.85,0-9.55,2.67-16.93,7.93-7.56,5.39-14,11.25-19.14,17.42-20.05,24.02-37.74,52.93-52.57,85.94-.26.58-.84.95-1.47.95h-14.23c-3.43,0-6.81,2.37-10.05,7.06-4.2,6.05-5.09,8.94-5.09,10.3s.44,1.86,1.86,1.86h18.34c.52,0,1.01.25,1.31.68.31.43.38.97.22,1.46-7.92,23.11-11.93,42.13-11.93,56.53s2.35,25.02,7,31.99c4.57,6.86,11.26,10.19,20.47,10.19,4.78,0,10.7-1.74,17.62-5.2,4.13-1.96,7.62-5.35,10.39-10.12,2.79-4.78,4.21-10.79,4.21-17.84,0-1.73-.64-1.87-1.55-1.87l-6.67,1.24c-.09.02-.19.02-.29.02-5.6,0-10.08-2.36-13.34-7-3.09-4.41-4.94-8.63-5.49-12.56-.54-3.77-.81-9.59-.81-17.77s1.29-17.69,3.83-28.5c.17-.73.83-1.25,1.57-1.25ZM111.06,122.43c-.71,0-1.52-.01-2.43-.03-4.4-.1-21.35-.16-50.38-.16-.52,0-1.18-.26-1.48-.68-.3-.43-.54-.98-.36-1.47,7.4-20.93,19.61-42.15,36.29-63.05,3.56-4.74,6.48-6.95,9.18-6.95,3.16,0,5.45,4.44,7.9,15.33,2.11,9.38,4.99,27.25,8.56,53.09.04.24.01.5-.07.74-.29.87-.74,1.6-1.34,2.2-.55.55-1.39.98-5.86.98ZM60.23,119.02c27.97,0,44.17.06,48.48.16,4.27.11,5.66-.07,6.09-.17.1-.13.2-.29.28-.46-3.54-25.52-6.38-43.15-8.45-52.41-2.71-12.06-4.7-12.78-4.79-12.81-.84,0-2.87.74-6.57,5.68-.01,0-.02.03-.03.04-15.89,19.91-27.66,40.07-35,59.97Z"/>
        <path class="cls-10" d="M151.35,247.42c-5.02,0-8.8-.6-11.58-1.87-2.9-1.34-4.7-2.77-5.51-4.37-3.92-8.51-7.69-27.9-11.54-59.34l-1.89-14.86c-.81-9.43-1.62-16.71-2.41-21.72l-1.25-.9-64.28-.3c-2.3,10.05-3.46,18.98-3.46,26.51,0,7.91.26,13.74.77,17.32.49,3.43,2.15,7.18,4.94,11.15,2.63,3.76,6.08,5.6,10.55,5.64l6.81-1.24c3.4-.05,5.07,1.87,5.07,5.08,0,7.62-1.56,14.16-4.65,19.45-3.11,5.33-7.07,9.17-11.77,11.39-7.34,3.67-13.75,5.55-19.03,5.55-10.22,0-18.01-3.93-23.16-11.63-5-7.51-7.55-18.87-7.55-33.78s3.83-32.97,11.38-55.45H6.71c-3.19,0-5.09-1.91-5.09-5.09,0-2.69,1.85-6.66,5.66-12.15,3.89-5.6,8.16-8.44,12.71-8.44h13.18c14.86-32.88,32.56-61.72,52.6-85.73,5.32-6.39,11.96-12.44,19.74-17.99,8.05-5.73,14.2-8.52,18.8-8.52s8.49,2.2,10.89,6.52c5.61,9.07,11.99,41.03,19.48,97.64,2.52,23.89,6.92,48.87,13.09,74.28,7.6,31.3,13.26,41.12,16.67,43.85,2.05,1.36,2.5,3.16,2.5,4.42,0,4.04-4.63,7.35-14.58,10.39-9.22,2.81-16.09,4.17-21.02,4.17ZM51.6,140.82h.01l66.07.32c.34,0,.66.1.93.3l2.21,1.58c.35.25.58.62.65,1.05.85,5.1,1.71,12.69,2.55,22.58l1.89,14.79c3.75,30.68,7.54,50.29,11.25,58.32.24.48,1.09,1.54,3.95,2.86,2.31,1.06,5.76,1.59,10.24,1.59s11.29-1.37,20.08-4.04c11.1-3.4,12.29-6.25,12.29-7.31,0-.48-.13-1.12-1.18-1.83-5.72-4.56-11.54-19.48-17.9-45.69-6.21-25.55-10.63-50.67-13.16-74.66-7.31-55.33-13.72-87.77-19.05-96.38-1.85-3.34-4.5-4.93-8.11-4.93-3.85,0-9.55,2.67-16.93,7.93-7.56,5.38-14,11.24-19.14,17.41-20.05,24.03-37.74,52.94-52.57,85.94-.26.58-.84.95-1.47.95h-14.23c-3.43,0-6.81,2.37-10.05,7.05-4.2,6.07-5.09,8.95-5.09,10.31s.44,1.86,1.86,1.86h18.34c.52,0,1.01.25,1.31.68.31.43.38.97.22,1.46-7.92,23.11-11.93,42.13-11.93,56.54s2.35,25.02,7,31.98c4.57,6.86,11.26,10.19,20.47,10.19,4.78,0,10.7-1.76,17.62-5.22,4.13-1.96,7.62-5.35,10.39-10.11,2.79-4.79,4.21-10.79,4.21-17.83,0-1.74-.64-1.88-1.55-1.88l-6.67,1.24c-.09.03-.19.03-.29.03-5.6,0-10.08-2.35-13.34-7-3.09-4.41-4.94-8.63-5.49-12.56-.54-3.79-.81-9.6-.81-17.77s1.29-17.69,3.83-28.51c.17-.73.83-1.24,1.57-1.24ZM111.06,121.79c-.71,0-1.52-.01-2.43-.03-4.4-.1-21.35-.16-50.38-.16-.52,0-1.18-.25-1.48-.68-.3-.43-.54-.99-.36-1.47,7.4-20.93,19.61-42.15,36.29-63.05,3.56-4.74,6.48-6.94,9.18-6.94,3.16,0,5.45,4.44,7.9,15.32,2.11,9.38,4.99,27.25,8.56,53.09.04.24.01.49-.07.74-.29.87-.74,1.6-1.34,2.2-.55.55-1.39.98-5.86.98ZM60.23,118.37c27.97,0,44.17.05,48.48.16,4.27.11,5.66-.08,6.09-.18.1-.13.2-.28.28-.47-3.54-25.52-6.38-43.15-8.45-52.4-2.71-12.06-4.7-12.79-4.79-12.81-.84,0-2.87.73-6.57,5.67-.01.02-.02.03-.03.04-15.89,19.91-27.66,40.07-35,59.98Z"/>
        <path class="cls-14" d="M151.35,246.79c-5.02,0-8.8-.62-11.58-1.9-2.9-1.32-4.7-2.77-5.51-4.37-3.92-8.5-7.69-27.89-11.54-59.34l-1.89-14.85c-.81-9.44-1.62-16.72-2.41-21.73l-1.25-.9-64.28-.31c-2.3,10.06-3.46,18.98-3.46,26.52,0,7.91.26,13.73.77,17.31.49,3.43,2.15,7.18,4.94,11.16,2.63,3.75,6.08,5.6,10.55,5.63l6.81-1.24h.07c3.24,0,5,1.9,5,5.07,0,7.63-1.56,14.18-4.65,19.47-3.11,5.33-7.07,9.16-11.77,11.38-7.34,3.68-13.75,5.55-19.03,5.55-10.22,0-18.01-3.91-23.16-11.63-5-7.51-7.55-18.87-7.55-33.78s3.83-32.97,11.38-55.45H6.71c-3.19,0-5.09-1.9-5.09-5.1,0-2.67,1.85-6.65,5.66-12.14,3.89-5.6,8.16-8.44,12.71-8.44h13.18c14.86-32.88,32.56-61.73,52.6-85.74,5.32-6.38,11.96-12.44,19.74-17.97,8.05-5.74,14.2-8.53,18.8-8.53s8.49,2.2,10.89,6.53c5.61,9.06,11.99,41.02,19.48,97.63,2.52,23.89,6.92,48.86,13.09,74.28,7.6,31.31,13.26,41.14,16.67,43.85,2.05,1.37,2.5,3.16,2.5,4.41,0,4.06-4.63,7.37-14.58,10.42-9.22,2.8-16.09,4.17-21.02,4.17ZM51.6,140.17h.01l66.07.32c.34,0,.66.11.93.29l2.21,1.58c.35.25.58.62.65,1.05.85,5.1,1.71,12.7,2.55,22.58l1.89,14.78c3.75,30.69,7.54,50.32,11.25,58.35.24.47,1.09,1.53,3.95,2.84,2.31,1.05,5.76,1.59,10.24,1.59s11.29-1.35,20.08-4.04c11.1-3.39,12.29-6.23,12.29-7.32,0-.47-.13-1.11-1.18-1.8-5.72-4.57-11.54-19.5-17.9-45.71-6.21-25.55-10.63-50.67-13.16-74.67-7.31-55.33-13.72-87.77-19.05-96.38-1.85-3.33-4.5-4.93-8.11-4.93-3.85,0-9.55,2.66-16.93,7.92-7.56,5.38-14,11.24-19.14,17.42-20.05,24.02-37.74,52.93-52.57,85.95-.26.57-.84.94-1.47.94h-14.23c-3.43,0-6.81,2.37-10.05,7.06-4.2,6.05-5.09,8.94-5.09,10.29,0,1.44.44,1.87,1.86,1.87h18.34c.52,0,1.01.25,1.31.67.31.43.38.96.22,1.46-7.92,23.11-11.93,42.12-11.93,56.55s2.35,25.01,7,31.98c4.57,6.87,11.26,10.19,20.47,10.19,4.78,0,10.7-1.74,17.62-5.2,4.13-1.96,7.62-5.36,10.39-10.12,2.79-4.78,4.21-10.79,4.21-17.84,0-1.73-.64-1.87-1.55-1.87l-6.67,1.25c-.09,0-.19.01-.29.01-5.6,0-10.08-2.35-13.34-7.01-3.09-4.4-4.94-8.63-5.49-12.55-.54-3.78-.81-9.59-.81-17.77s1.29-17.69,3.83-28.51c.17-.72.83-1.24,1.57-1.24ZM111.06,121.14c-.71,0-1.52-.01-2.43-.03-4.4-.1-21.35-.16-50.38-.16-.52,0-1.18-.25-1.48-.68-.3-.43-.54-.97-.36-1.48,7.4-20.93,19.61-42.14,36.29-63.04,3.56-4.74,6.48-6.95,9.18-6.95,3.16,0,5.45,4.44,7.9,15.33,2.11,9.39,4.99,27.26,8.56,53.09.04.25.01.5-.07.74-.29.87-.74,1.61-1.34,2.2-.55.56-1.39.99-5.86.99ZM60.23,117.73c27.97,0,44.17.05,48.48.15,4.27.11,5.66-.08,6.09-.17.1-.13.2-.29.28-.47-3.54-25.52-6.38-43.15-8.45-52.4-2.71-12.07-4.7-12.79-4.79-12.82-.84.01-2.87.74-6.57,5.69-.01.01-.02.02-.03.03-15.89,19.91-27.66,40.07-35,59.98Z"/>
        <path class="cls-11" d="M151.35,246.14c-5.02,0-8.8-.62-11.58-1.87-2.9-1.35-4.7-2.77-5.51-4.39-3.92-8.49-7.69-27.89-11.54-59.33l-1.89-14.85c-.81-9.43-1.62-16.72-2.41-21.73l-1.25-.89-64.28-.3c-2.3,10.06-3.46,18.98-3.46,26.52,0,7.91.26,13.74.77,17.31.49,3.43,2.15,7.18,4.94,11.16,2.63,3.75,6.08,5.6,10.55,5.64l6.81-1.24c3.4.06,5.07,1.88,5.07,5.07,0,7.63-1.56,14.18-4.65,19.47-3.11,5.33-7.07,9.15-11.77,11.39-7.34,3.67-13.75,5.53-19.03,5.53-10.22,0-18.01-3.91-23.16-11.62-5-7.5-7.55-18.86-7.55-33.78s3.83-32.96,11.38-55.44H6.71c-3.19,0-5.09-1.9-5.09-5.1,0-2.68,1.85-6.65,5.66-12.14,3.89-5.6,8.16-8.44,12.71-8.44h13.18c14.86-32.87,32.56-61.71,52.6-85.72,5.32-6.39,11.96-12.44,19.74-17.99,8.05-5.73,14.2-8.52,18.8-8.52s8.49,2.19,10.89,6.52c5.61,9.06,11.99,41.02,19.48,97.63,2.52,23.89,6.92,48.87,13.09,74.29,7.6,31.32,13.26,41.13,16.67,43.85,2.05,1.37,2.5,3.17,2.5,4.43,0,4.05-4.63,7.35-14.58,10.39-9.22,2.81-16.09,4.18-21.02,4.18ZM51.6,139.53h.01l66.07.32c.34,0,.66.1.93.29l2.21,1.58c.35.25.58.63.65,1.05.85,5.1,1.71,12.69,2.55,22.58l1.89,14.78c3.75,30.69,7.54,50.3,11.25,58.33.24.48,1.09,1.54,3.95,2.85,2.31,1.05,5.76,1.59,10.24,1.59s11.29-1.35,20.08-4.04c11.1-3.4,12.29-6.23,12.29-7.3,0-.48-.13-1.13-1.18-1.82-5.72-4.58-11.54-19.48-17.9-45.7-6.21-25.56-10.63-50.67-13.16-74.67-7.31-55.32-13.72-87.77-19.05-96.38-1.85-3.34-4.5-4.92-8.11-4.92-3.85,0-9.55,2.66-16.93,7.92-7.56,5.37-14,11.25-19.14,17.42-20.05,24.01-37.74,52.93-52.57,85.94-.26.57-.84.95-1.47.95h-14.23c-3.43,0-6.81,2.37-10.05,7.05-4.2,6.06-5.09,8.95-5.09,10.3,0,1.43.44,1.87,1.86,1.87h18.34c.52,0,1.01.25,1.31.68.31.43.38.97.22,1.46-7.92,23.11-11.93,42.13-11.93,56.53s2.35,25.03,7,32.01c4.57,6.84,11.26,10.17,20.47,10.17,4.78,0,10.7-1.76,17.62-5.2,4.13-1.96,7.62-5.36,10.39-10.11,2.79-4.79,4.21-10.79,4.21-17.85,0-1.73-.64-1.86-1.55-1.86l-6.67,1.24c-.09,0-.19.01-.29.01-5.6,0-10.08-2.36-13.34-7.01-3.09-4.4-4.94-8.62-5.49-12.55-.54-3.78-.81-9.59-.81-17.77s1.29-17.69,3.83-28.5c.17-.73.83-1.25,1.57-1.25ZM111.06,120.5c-.71,0-1.52-.01-2.43-.03-4.4-.11-21.35-.16-50.38-.16-.52,0-1.18-.26-1.48-.69-.3-.43-.54-.97-.36-1.47,7.4-20.93,19.61-42.14,36.29-63.05,3.56-4.75,6.48-6.96,9.18-6.96,3.16,0,5.45,4.45,7.9,15.34,2.11,9.39,4.99,27.24,8.56,53.08.04.26.01.5-.07.74-.29.87-.74,1.61-1.34,2.21-.55.55-1.39.98-5.86.98ZM60.23,117.07c27.97.01,44.17.07,48.48.16,4.27.12,5.66-.08,6.09-.17.1-.13.2-.29.28-.46-3.54-25.52-6.38-43.16-8.45-52.41-2.71-12.06-4.7-12.78-4.79-12.81-.84,0-2.87.74-6.57,5.68-.01.01-.02.03-.03.04-15.89,19.91-27.66,40.08-35,59.97Z"/>
        <path class="cls-12" d="M151.35,245.49c-5.02,0-8.8-.61-11.58-1.89-2.9-1.33-4.7-2.76-5.51-4.38-3.92-8.5-7.69-27.89-11.54-59.33l-1.89-14.85c-.81-9.45-1.62-16.73-2.41-21.73l-1.25-.89-64.28-.31c-2.3,10.07-3.46,18.98-3.46,26.52s.26,13.73.77,17.32c.49,3.43,2.15,7.17,4.94,11.16,2.63,3.75,6.08,5.59,10.55,5.63l6.81-1.24c3.4.02,5.07,1.89,5.07,5.07,0,7.62-1.56,14.18-4.65,19.47-3.11,5.32-7.07,9.16-11.77,11.38-7.34,3.67-13.75,5.53-19.03,5.53-10.22,0-18.01-3.9-23.16-11.62-5-7.5-7.55-18.87-7.55-33.78s3.83-32.96,11.38-55.44H6.71c-3.19,0-5.09-1.91-5.09-5.09,0-2.68,1.85-6.66,5.66-12.15,3.89-5.61,8.16-8.44,12.71-8.44h13.18c14.86-32.88,32.56-61.72,52.6-85.72,5.32-6.4,11.96-12.45,19.74-17.99,8.05-5.73,14.2-8.52,18.8-8.52s8.49,2.19,10.89,6.52c5.61,9.06,11.99,41.02,19.48,97.63,2.52,23.89,6.92,48.87,13.09,74.28,7.6,31.3,13.26,41.13,16.67,43.86,2.05,1.35,2.5,3.16,2.5,4.42,0,4.05-4.63,7.35-14.58,10.4-9.22,2.8-16.09,4.17-21.02,4.17ZM51.6,138.88h.01l66.07.31c.34,0,.66.11.93.3l2.21,1.58c.35.25.58.62.65,1.05.85,5.1,1.71,12.7,2.55,22.58l1.89,14.79c3.75,30.68,7.54,50.3,11.25,58.34.24.47,1.09,1.52,3.95,2.84,2.31,1.06,5.76,1.61,10.24,1.61s11.29-1.37,20.08-4.05c11.1-3.41,12.29-6.25,12.29-7.3,0-.49-.13-1.13-1.18-1.83-5.72-4.56-11.54-19.48-17.9-45.69-6.21-25.56-10.63-50.68-13.16-74.67-7.31-55.32-13.72-87.77-19.05-96.37-1.85-3.34-4.5-4.93-8.11-4.93-3.85,0-9.55,2.66-16.93,7.91-7.56,5.39-14,11.25-19.14,17.42-20.05,24.02-37.74,52.94-52.57,85.94-.26.57-.84.96-1.47.96h-14.23c-3.43,0-6.81,2.37-10.05,7.05-4.2,6.06-5.09,8.95-5.09,10.31s.44,1.86,1.86,1.86h18.34c.52,0,1.01.25,1.31.68.31.43.38.97.22,1.46-7.92,23.11-11.93,42.13-11.93,56.53s2.35,25.03,7,31.99c4.57,6.86,11.26,10.19,20.47,10.19,4.78,0,10.7-1.75,17.62-5.2,4.13-1.96,7.62-5.35,10.39-10.12,2.79-4.78,4.21-10.79,4.21-17.84,0-1.73-.64-1.87-1.55-1.87l-6.67,1.24c-.09.02-.19.03-.29.03-5.6,0-10.08-2.36-13.34-7.02-3.09-4.39-4.94-8.62-5.49-12.55-.54-3.79-.81-9.6-.81-17.77s1.29-17.69,3.83-28.5c.17-.73.83-1.25,1.57-1.25ZM111.06,119.85c-.71,0-1.52,0-2.43-.03-4.4-.11-21.35-.15-50.38-.15-.52,0-1.18-.25-1.48-.69-.3-.43-.54-.98-.36-1.47,7.4-20.93,19.61-42.15,36.29-63.05,3.56-4.74,6.48-6.94,9.18-6.94,3.16,0,5.45,4.44,7.9,15.33,2.11,9.38,4.99,27.24,8.56,53.09.04.25.01.49-.07.73-.29.87-.74,1.61-1.34,2.21-.55.55-1.39.98-5.86.98ZM60.23,116.43c27.97,0,44.17.05,48.48.16,4.27.11,5.66-.09,6.09-.18.1-.14.2-.29.28-.46-3.54-25.53-6.38-43.16-8.45-52.41-2.71-12.06-4.7-12.79-4.79-12.82-.84.01-2.87.75-6.57,5.69-.01.01-.02.02-.03.03-15.89,19.92-27.66,40.08-35,59.98Z"/>
        <path class="cls-13" d="M151.35,244.85c-5.02,0-8.8-.62-11.58-1.89-2.9-1.33-4.7-2.76-5.51-4.38-3.92-8.49-7.69-27.89-11.54-59.33l-1.89-14.85c-.81-9.44-1.62-16.72-2.41-21.73l-1.25-.89-64.28-.32c-2.3,10.07-3.46,18.99-3.46,26.52,0,7.91.26,13.73.77,17.31.49,3.43,2.15,7.18,4.94,11.17,2.63,3.75,6.08,5.6,10.55,5.62l6.81-1.23c3.4-.04,5.07,1.88,5.07,5.06,0,7.64-1.56,14.18-4.65,19.47-3.11,5.32-7.07,9.15-11.77,11.39-7.34,3.67-13.75,5.53-19.03,5.53-10.22,0-18.01-3.9-23.16-11.62-5-7.52-7.55-18.87-7.55-33.78s3.83-32.97,11.38-55.46H6.71c-3.19,0-5.09-1.9-5.09-5.09,0-2.68,1.85-6.65,5.66-12.14,3.89-5.61,8.16-8.44,12.71-8.44h13.18c14.86-32.88,32.56-61.72,52.6-85.73,5.32-6.39,11.96-12.44,19.74-17.99,8.05-5.73,14.2-8.51,18.8-8.51s8.49,2.19,10.89,6.52c5.61,9.07,11.99,41.02,19.48,97.64,2.51,23.89,6.92,48.87,13.09,74.28,7.6,31.3,13.26,41.12,16.67,43.86,2.05,1.36,2.5,3.15,2.5,4.42,0,4.04-4.63,7.35-14.58,10.39-9.22,2.81-16.09,4.19-21.02,4.19ZM51.6,138.23h.01l66.07.31c.34,0,.66.11.93.31l2.21,1.58c.35.24.58.62.65,1.05.85,5.11,1.71,12.69,2.55,22.58l1.89,14.78c3.75,30.68,7.54,50.31,11.25,58.34.24.47,1.09,1.53,3.95,2.86,2.31,1.06,5.76,1.58,10.24,1.58s11.29-1.35,20.08-4.04c11.1-3.41,12.29-6.25,12.29-7.3,0-.48-.13-1.12-1.18-1.81-5.72-4.57-11.54-19.5-17.9-45.71-6.21-25.55-10.63-50.67-13.16-74.66-7.31-55.33-13.72-87.77-19.05-96.38-1.85-3.33-4.5-4.93-8.11-4.93-3.85,0-9.55,2.67-16.93,7.92-7.56,5.39-14,11.25-19.14,17.43-20.05,24.02-37.74,52.93-52.57,85.94-.26.58-.84.95-1.47.95h-14.23c-3.43,0-6.81,2.38-10.05,7.05-4.2,6.05-5.09,8.94-5.09,10.3s.44,1.86,1.86,1.86h18.34c.52,0,1.01.25,1.31.67.31.42.38.97.22,1.46-7.92,23.1-11.93,42.13-11.93,56.55s2.35,25.02,7,31.98c4.57,6.85,11.26,10.2,20.47,10.2,4.78,0,10.7-1.76,17.62-5.22,4.13-1.96,7.62-5.35,10.39-10.11,2.79-4.79,4.21-10.79,4.21-17.85,0-1.72-.64-1.86-1.55-1.86l-6.67,1.24c-.09.01-.19.03-.29.03-5.6,0-10.08-2.36-13.34-7-3.09-4.41-4.94-8.63-5.49-12.56-.54-3.78-.81-9.59-.81-17.77s1.29-17.69,3.83-28.51c.17-.73.83-1.24,1.57-1.24ZM111.06,119.21c-.71,0-1.52-.01-2.43-.03-4.4-.1-21.35-.16-50.38-.16-.52,0-1.18-.26-1.48-.69-.3-.43-.54-.97-.36-1.47,7.4-20.93,19.61-42.14,36.29-63.05,3.56-4.73,6.48-6.94,9.18-6.94,3.16,0,5.45,4.44,7.9,15.33,2.11,9.39,4.99,27.25,8.56,53.09.04.25.01.5-.07.75-.29.87-.74,1.61-1.34,2.2-.55.55-1.39.98-5.86.98ZM60.23,115.79c27.97,0,44.17.05,48.48.15,4.27.11,5.66-.07,6.09-.17.1-.13.2-.28.28-.46-3.54-25.52-6.38-43.15-8.45-52.42-2.71-12.05-4.7-12.78-4.79-12.8-.84.01-2.87.74-6.57,5.68-.01,0-.02.02-.03.03-15.89,19.91-27.66,40.08-35,59.98Z"/>
        <path class="cls-16" d="M151.35,244.21c-5.02,0-8.8-.62-11.58-1.89-2.9-1.33-4.7-2.77-5.51-4.37-3.92-8.51-7.69-27.9-11.54-59.35l-1.89-14.85c-.81-9.44-1.62-16.72-2.41-21.73l-1.25-.9-64.28-.3c-2.3,10.07-3.46,18.98-3.46,26.52,0,7.91.26,13.73.77,17.31.49,3.43,2.15,7.18,4.94,11.17,2.63,3.75,6.08,5.59,10.55,5.63l6.81-1.24h.07c3.24,0,5,1.89,5,5.07,0,7.63-1.56,14.18-4.65,19.47-3.11,5.33-7.07,9.16-11.77,11.38-7.34,3.67-13.75,5.55-19.03,5.55-10.22,0-18.01-3.93-23.16-11.64-5-7.5-7.55-18.87-7.55-33.78s3.83-32.96,11.38-55.45H6.71c-3.19,0-5.09-1.9-5.09-5.09,0-2.69,1.85-6.66,5.66-12.14,3.89-5.6,8.16-8.44,12.71-8.44h13.18c14.86-32.88,32.56-61.72,52.6-85.73,5.32-6.4,11.96-12.44,19.74-17.99,8.05-5.73,14.2-8.52,18.8-8.52s8.49,2.19,10.89,6.52c5.61,9.07,11.99,41.02,19.48,97.64,2.52,23.9,6.92,48.87,13.09,74.29,7.6,31.31,13.26,41.12,16.67,43.85,2.05,1.36,2.5,3.16,2.5,4.41,0,4.05-4.63,7.37-14.58,10.41-9.22,2.8-16.09,4.17-21.02,4.17ZM51.6,137.59h.01l66.07.32c.34,0,.66.1.93.3l2.21,1.58c.35.26.58.63.65,1.06.85,5.1,1.71,12.69,2.55,22.58l1.89,14.79c3.75,30.69,7.54,50.3,11.25,58.34.24.47,1.09,1.52,3.95,2.83,2.31,1.06,5.76,1.59,10.24,1.59s11.29-1.36,20.08-4.04c11.1-3.4,12.29-6.23,12.29-7.31,0-.47-.13-1.12-1.18-1.81-5.72-4.57-11.54-19.5-17.9-45.71-6.21-25.56-10.63-50.67-13.16-74.67-7.31-55.33-13.72-87.78-19.05-96.38-1.85-3.33-4.5-4.93-8.11-4.93-3.85,0-9.55,2.67-16.93,7.93-7.56,5.38-14,11.24-19.14,17.42-20.05,24.02-37.74,52.93-52.57,85.95-.26.57-.84.95-1.47.95h-14.23c-3.43,0-6.81,2.36-10.05,7.05-4.2,6.06-5.09,8.95-5.09,10.31,0,1.42.44,1.86,1.86,1.86h18.34c.52,0,1.01.25,1.31.68.31.43.38.98.22,1.46-7.92,23.11-11.93,42.13-11.93,56.54s2.35,25.02,7,31.99c4.57,6.85,11.26,10.19,20.47,10.19,4.78,0,10.7-1.74,17.62-5.2,4.13-1.96,7.62-5.36,10.39-10.12,2.79-4.79,4.21-10.79,4.21-17.84,0-1.73-.64-1.87-1.55-1.87l-6.67,1.24c-.09.01-.19.03-.29.03-5.6,0-10.08-2.36-13.34-7.02-3.09-4.4-4.94-8.62-5.49-12.55-.54-3.78-.81-9.6-.81-17.77s1.29-17.69,3.83-28.5c.17-.73.83-1.26,1.57-1.26ZM111.06,118.56c-.71,0-1.52-.01-2.43-.03-4.4-.11-21.35-.16-50.38-.16-.52,0-1.18-.25-1.48-.69-.3-.42-.54-.98-.36-1.47,7.4-20.93,19.61-42.15,36.29-63.05,3.56-4.73,6.48-6.94,9.18-6.94,3.16,0,5.45,4.43,7.9,15.33,2.11,9.38,4.99,27.25,8.56,53.09.04.24.01.5-.07.74-.29.87-.74,1.61-1.34,2.21-.55.55-1.39.98-5.86.98ZM60.23,115.14c27.97,0,44.17.06,48.48.15,4.27.12,5.66-.08,6.09-.17.1-.13.2-.28.28-.47-3.54-25.52-6.38-43.14-8.45-52.4-2.71-12.07-4.7-12.79-4.79-12.81-.84,0-2.87.74-6.57,5.68-.01,0-.02.02-.03.03-15.89,19.91-27.66,40.08-35,59.98Z"/>
        <path class="cls-15" d="M151.35,243.55c-5.02,0-8.8-.62-11.58-1.87-2.9-1.35-4.7-2.77-5.51-4.39-3.92-8.49-7.69-27.89-11.54-59.33l-1.89-14.85c-.81-9.44-1.62-16.72-2.41-21.73l-1.25-.89-64.28-.3c-2.3,10.06-3.46,18.98-3.46,26.51,0,7.91.26,13.73.77,17.31.49,3.43,2.15,7.18,4.94,11.17,2.63,3.74,6.08,5.6,10.55,5.63l6.81-1.24h.07c3.24,0,5,1.9,5,5.07,0,7.62-1.56,14.18-4.65,19.47-3.11,5.32-7.07,9.15-11.77,11.38-7.34,3.67-13.75,5.53-19.03,5.53-10.22,0-18.01-3.91-23.16-11.62-5-7.5-7.55-18.87-7.55-33.78s3.83-32.96,11.38-55.45H6.71c-3.19,0-5.09-1.9-5.09-5.1,0-2.68,1.85-6.65,5.66-12.14,3.89-5.6,8.16-8.44,12.71-8.44h13.18c14.86-32.88,32.56-61.72,52.6-85.73,5.32-6.39,11.96-12.45,19.74-17.99,8.05-5.74,14.2-8.52,18.8-8.52s8.49,2.19,10.89,6.52c5.61,9.07,11.99,41.02,19.48,97.64,2.52,23.89,6.92,48.86,13.09,74.28,7.6,31.31,13.26,41.13,16.67,43.85,2.05,1.37,2.5,3.17,2.5,4.43,0,4.05-4.63,7.35-14.58,10.39-9.22,2.81-16.09,4.18-21.02,4.18ZM51.6,136.94h.01l66.07.32c.34,0,.66.1.93.3l2.21,1.58c.35.25.58.62.65,1.05.85,5.1,1.71,12.69,2.55,22.57l1.89,14.79c3.75,30.69,7.54,50.32,11.25,58.33.24.47,1.09,1.54,3.95,2.85,2.31,1.06,5.76,1.59,10.24,1.59s11.29-1.35,20.08-4.04c11.1-3.39,12.29-6.24,12.29-7.3,0-.48-.13-1.11-1.18-1.82-5.72-4.57-11.54-19.49-17.9-45.69-6.21-25.56-10.63-50.68-13.16-74.67-7.31-55.32-13.72-87.78-19.05-96.38-1.85-3.34-4.5-4.93-8.11-4.93-3.85,0-9.55,2.67-16.93,7.92-7.56,5.39-14,11.25-19.14,17.42-20.05,24.02-37.74,52.94-52.57,85.94-.26.58-.84.96-1.47.96h-14.23c-3.43,0-6.81,2.37-10.05,7.05-4.2,6.05-5.09,8.95-5.09,10.3,0,1.43.44,1.87,1.86,1.87h18.34c.52,0,1.01.25,1.31.68.31.43.38.97.22,1.46-7.92,23.1-11.93,42.13-11.93,56.54s2.35,25.02,7,31.98c4.57,6.85,11.26,10.19,20.47,10.19,4.78,0,10.7-1.75,17.62-5.21,4.13-1.96,7.62-5.36,10.39-10.12,2.79-4.78,4.21-10.79,4.21-17.84,0-1.74-.64-1.87-1.55-1.87l-6.67,1.24c-.09.02-.19.02-.29.02-5.6,0-10.08-2.36-13.34-7.01-3.09-4.4-4.94-8.63-5.49-12.55-.54-3.78-.81-9.59-.81-17.77s1.29-17.7,3.83-28.5c.17-.73.83-1.25,1.57-1.25ZM111.06,117.91c-.71,0-1.52-.01-2.43-.03-4.4-.11-21.35-.15-50.38-.15-.52,0-1.18-.25-1.48-.68-.3-.43-.54-.99-.36-1.48,7.4-20.94,19.61-42.15,36.29-63.05,3.56-4.74,6.48-6.94,9.18-6.94,3.16,0,5.45,4.44,7.9,15.33,2.11,9.39,4.99,27.25,8.56,53.09.04.24.01.5-.07.73-.29.87-.74,1.61-1.34,2.21-.55.56-1.39.98-5.86.98ZM60.23,114.5c27.97,0,44.17.05,48.48.16,4.27.11,5.66-.09,6.09-.18.1-.13.2-.29.28-.46-3.54-25.52-6.38-43.16-8.45-52.41-2.71-12.06-4.7-12.79-4.79-12.81-.84,0-2.87.74-6.57,5.68-.01.01-.02.02-.03.03-15.89,19.91-27.66,40.08-35,59.98Z"/>
        <path class="cls-17" d="M151.35,242.9c-5.02,0-8.8-.6-11.58-1.88-2.9-1.33-4.7-2.76-5.51-4.37-3.92-8.51-7.69-27.91-11.54-59.34l-1.89-14.85c-.81-9.44-1.62-16.73-2.41-21.73l-1.25-.89-64.28-.31c-2.3,10.06-3.46,18.98-3.46,26.52s.26,13.73.77,17.32c.49,3.43,2.15,7.18,4.94,11.16,2.63,3.75,6.08,5.59,10.55,5.63l6.81-1.24c3.4.03,5.07,1.89,5.07,5.07,0,7.62-1.56,14.17-4.65,19.47-3.11,5.32-7.07,9.15-11.77,11.38-7.34,3.67-13.75,5.53-19.03,5.53-10.22,0-18.01-3.91-23.16-11.63-5-7.5-7.55-18.87-7.55-33.78s3.83-32.96,11.38-55.44H6.71c-3.19,0-5.09-1.9-5.09-5.09,0-2.68,1.85-6.65,5.66-12.14,3.89-5.6,8.16-8.44,12.71-8.44h13.18c14.86-32.88,32.56-61.73,52.6-85.73,5.32-6.4,11.96-12.44,19.74-17.98,8.05-5.74,14.2-8.52,18.8-8.52s8.49,2.19,10.89,6.52c5.61,9.07,11.99,41.03,19.48,97.63,2.52,23.9,6.92,48.87,13.09,74.29,7.6,31.3,13.26,41.13,16.67,43.86,2.05,1.35,2.5,3.16,2.5,4.42,0,4.04-4.63,7.35-14.58,10.4-9.22,2.8-16.09,4.17-21.02,4.17ZM51.6,136.3h.01l66.07.32c.34,0,.66.11.93.3l2.21,1.58c.35.25.58.62.65,1.05.85,5.11,1.71,12.69,2.55,22.57l1.89,14.79c3.75,30.68,7.54,50.31,11.25,58.34.24.47,1.09,1.53,3.95,2.84,2.31,1.06,5.76,1.61,10.24,1.61s11.29-1.37,20.08-4.05c11.1-3.4,12.29-6.24,12.29-7.3,0-.49-.13-1.13-1.18-1.83-5.72-4.56-11.54-19.48-17.9-45.69-6.21-25.56-10.63-50.67-13.16-74.68-7.31-55.32-13.72-87.76-19.05-96.37-1.85-3.34-4.5-4.93-8.11-4.93-3.85,0-9.55,2.67-16.93,7.92-7.56,5.38-14,11.24-19.14,17.42-20.05,24.02-37.74,52.94-52.57,85.94-.26.58-.84.95-1.47.95h-14.23c-3.43,0-6.81,2.38-10.05,7.06-4.2,6.05-5.09,8.94-5.09,10.3,0,1.43.44,1.87,1.86,1.87h18.34c.52,0,1.01.25,1.31.68.31.42.38.97.22,1.46-7.92,23.1-11.93,42.12-11.93,56.53s2.35,25.03,7,31.99c4.57,6.86,11.26,10.19,20.47,10.19,4.78,0,10.7-1.75,17.62-5.2,4.13-1.96,7.62-5.35,10.39-10.12,2.79-4.79,4.21-10.79,4.21-17.84,0-1.73-.64-1.87-1.55-1.87l-6.67,1.24c-.09.02-.19.03-.29.03-5.6,0-10.08-2.36-13.34-7.01-3.09-4.41-4.94-8.64-5.49-12.56-.54-3.79-.81-9.6-.81-17.78s1.29-17.69,3.83-28.5c.17-.74.83-1.25,1.57-1.25ZM111.06,117.27c-.71,0-1.52-.01-2.43-.04-4.4-.1-21.35-.16-50.38-.16-.52,0-1.18-.24-1.48-.68-.3-.43-.54-.98-.36-1.48,7.4-20.92,19.61-42.15,36.29-63.04,3.56-4.74,6.48-6.95,9.18-6.95,3.16,0,5.45,4.44,7.9,15.33,2.11,9.39,4.99,27.25,8.56,53.09.04.25.01.51-.07.74-.29.87-.74,1.61-1.34,2.2-.55.56-1.39.99-5.86.99ZM60.23,113.85c27.97,0,44.17.06,48.48.15,4.27.12,5.66-.08,6.09-.17.1-.14.2-.29.28-.46-3.54-25.53-6.38-43.16-8.45-52.41-2.71-12.06-4.7-12.79-4.79-12.81-.84,0-2.87.74-6.57,5.68-.01.01-.02.02-.03.04-15.89,19.91-27.66,40.07-35,59.97Z"/>
      </g>
      <path class="cls-29" d="M151.35,242.9c-5.02,0-8.8-.6-11.58-1.88-2.9-1.33-4.7-2.76-5.51-4.37-3.92-8.51-7.69-27.91-11.54-59.34l-1.89-14.85c-.81-9.44-1.62-16.73-2.41-21.73l-1.25-.89-64.28-.31c-2.3,10.06-3.46,18.98-3.46,26.52s.26,13.73.77,17.32c.49,3.43,2.15,7.18,4.94,11.16,2.63,3.75,6.08,5.59,10.55,5.63l6.81-1.24c3.4.03,5.07,1.89,5.07,5.07,0,7.62-1.56,14.17-4.65,19.47-3.11,5.32-7.07,9.15-11.77,11.38-7.34,3.67-13.75,5.53-19.03,5.53-10.22,0-18.01-3.91-23.16-11.63-5-7.5-7.55-18.87-7.55-33.78s3.83-32.96,11.38-55.44H6.71c-3.19,0-5.09-1.9-5.09-5.09,0-2.68,1.85-6.65,5.66-12.14,3.89-5.6,8.16-8.44,12.71-8.44h13.18c14.86-32.88,32.56-61.73,52.6-85.73,5.32-6.4,11.96-12.44,19.74-17.98,8.05-5.74,14.2-8.52,18.8-8.52s8.49,2.19,10.89,6.52c5.61,9.07,11.99,41.03,19.48,97.63,2.52,23.9,6.92,48.87,13.09,74.29,7.6,31.3,13.26,41.13,16.67,43.86,2.05,1.35,2.5,3.16,2.5,4.42,0,4.04-4.63,7.35-14.58,10.4-9.22,2.8-16.09,4.17-21.02,4.17ZM51.6,136.3h.01l66.07.32c.34,0,.66.11.93.3l2.21,1.58c.35.25.58.62.65,1.05.85,5.11,1.71,12.69,2.55,22.57l1.89,14.79c3.75,30.68,7.54,50.31,11.25,58.34.24.47,1.09,1.53,3.95,2.84,2.31,1.06,5.76,1.61,10.24,1.61s11.29-1.37,20.08-4.05c11.1-3.4,12.29-6.24,12.29-7.3,0-.49-.13-1.13-1.18-1.83-5.72-4.56-11.54-19.48-17.9-45.69-6.21-25.56-10.63-50.67-13.16-74.68-7.31-55.32-13.72-87.76-19.05-96.37-1.85-3.34-4.5-4.93-8.11-4.93-3.85,0-9.55,2.67-16.93,7.92-7.56,5.38-14,11.24-19.14,17.42-20.05,24.02-37.74,52.94-52.57,85.94-.26.58-.84.95-1.47.95h-14.23c-3.43,0-6.81,2.38-10.05,7.06-4.2,6.05-5.09,8.94-5.09,10.3,0,1.43.44,1.87,1.86,1.87h18.34c.52,0,1.01.25,1.31.68.31.42.38.97.22,1.46-7.92,23.1-11.93,42.12-11.93,56.53s2.35,25.03,7,31.99c4.57,6.86,11.26,10.19,20.47,10.19,4.78,0,10.7-1.75,17.62-5.2,4.13-1.96,7.62-5.35,10.39-10.12,2.79-4.79,4.21-10.79,4.21-17.84,0-1.73-.64-1.87-1.55-1.87l-6.67,1.24c-.09.02-.19.03-.29.03-5.6,0-10.08-2.36-13.34-7.01-3.09-4.41-4.94-8.64-5.49-12.56-.54-3.79-.81-9.6-.81-17.78s1.29-17.69,3.83-28.5c.17-.74.83-1.25,1.57-1.25ZM111.06,117.27c-.71,0-1.52-.01-2.43-.04-4.4-.1-21.35-.16-50.38-.16-.52,0-1.18-.24-1.48-.68-.3-.43-.54-.98-.36-1.48,7.4-20.92,19.61-42.15,36.29-63.04,3.56-4.74,6.48-6.95,9.18-6.95,3.16,0,5.45,4.44,7.9,15.33,2.11,9.39,4.99,27.25,8.56,53.09.04.25.01.51-.07.74-.29.87-.74,1.61-1.34,2.2-.55.56-1.39.99-5.86.99ZM60.23,113.85c27.97,0,44.17.06,48.48.15,4.27.12,5.66-.08,6.09-.17.1-.14.2-.29.28-.46-3.54-25.53-6.38-43.16-8.45-52.41-2.71-12.06-4.7-12.79-4.79-12.81-.84,0-2.87.74-6.57,5.68-.01.01-.02.02-.03.04-15.89,19.91-27.66,40.07-35,59.97Z"/>
    </g>
  </g>
</svg>