<?xml version="1.0" encoding="UTF-8"?>
<svg xmlns="http://www.w3.org/2000/svg" xmlns:xlink="http://www.w3.org/1999/xlink" viewBox="0 0 226.43 253.86">
  <defs>
    <style>
      .cls-1 {
        fill: url(#_ÂÁ_Ï_ÌÌ_È_ËÂÌÚ_1900-2);
      }

      .cls-2 {
        fill: url(#_ÂÁ_Ï_ÌÌ_È_ËÂÌÚ_384-10);
      }

      .cls-3 {
        fill: url(#_ÂÁ_Ï_ÌÌ_È_ËÂÌÚ_384-11);
      }

      .cls-4, .cls-5 {
        fill: #ffb060;
      }

      .cls-4, .cls-5, .cls-6 {
        mix-blend-mode: soft-light;
      }

      .cls-4, .cls-7 {
        opacity: .2;
      }

      .cls-5, .cls-8, .cls-9, .cls-10, .cls-11, .cls-12 {
        opacity: .3;
      }

      .cls-13 {
        fill: url(#_ÂÁ_Ï_ÌÌ_È_ËÂÌÚ_352);
      }

      .cls-14 {
        fill: url(#_ÂÁ_Ï_ÌÌ_È_ËÂÌÚ_396);
      }

      .cls-15 {
        fill: url(#_ÂÁ_Ï_ÌÌ_È_ËÂÌÚ_258);
      }

      .cls-16 {
        fill: url(#_ÂÁ_Ï_ÌÌ_È_ËÂÌÚ_384);
      }

      .cls-17 {
        fill: url(#_ÂÁ_Ï_ÌÌ_È_ËÂÌÚ_100);
      }

      .cls-18, .cls-19, .cls-20, .cls-21, .cls-22, .cls-23, .cls-24, .cls-25, .cls-26, .cls-27, .cls-28 {
        mix-blend-mode: multiply;
      }

      .cls-18, .cls-29, .cls-30, .cls-27, .cls-28, .cls-31, .cls-32, .cls-33, .cls-34, .cls-35, .cls-36, .cls-37 {
        opacity: .5;
      }

      .cls-38 {
        fill: url(#_ÂÁ_Ï_ÌÌ_È_ËÂÌÚ_352-2);
      }

      .cls-39 {
        fill: url(#_ÂÁ_Ï_ÌÌ_È_ËÂÌÚ_384-4);
      }

      .cls-40 {
        fill: url(#_ÂÁ_Ï_ÌÌ_È_ËÂÌÚ_384-3);
      }

      .cls-41 {
        fill: url(#_ÂÁ_Ï_ÌÌ_È_ËÂÌÚ_384-6);
      }

      .cls-42 {
        fill: url(#_ÂÁ_Ï_ÌÌ_È_ËÂÌÚ_384-9);
      }

      .cls-43 {
        fill: url(#_ÂÁ_Ï_ÌÌ_È_ËÂÌÚ_384-2);
      }

      .cls-44 {
        fill: url(#_ÂÁ_Ï_ÌÌ_È_ËÂÌÚ_384-7);
      }

      .cls-45 {
        fill: url(#_ÂÁ_Ï_ÌÌ_È_ËÂÌÚ_384-5);
      }

      .cls-46 {
        fill: url(#_ÂÁ_Ï_ÌÌ_È_ËÂÌÚ_384-8);
      }

      .cls-19 {
        fill: url(#_ÂÁ_Ï_ÌÌ_È_ËÂÌÚ_174);
      }

      .cls-19, .cls-20, .cls-21, .cls-23, .cls-24, .cls-25, .cls-26 {
        opacity: .8;
      }

      .cls-20 {
        fill: url(#_ÂÁ_Ï_ÌÌ_È_ËÂÌÚ_172);
      }

      .cls-21 {
        fill: url(#_ÂÁ_Ï_ÌÌ_È_ËÂÌÚ_11);
      }

      .cls-7 {
        fill: url(#_ÂÁ_Ï_ÌÌ_È_ËÂÌÚ_197-3);
      }

      .cls-29 {
        fill: url(#_ÂÁ_Ï_ÌÌ_È_ËÂÌÚ_197-2);
      }

      .cls-30 {
        fill: url(#_ÂÁ_Ï_ÌÌ_È_ËÂÌÚ_245-2);
      }

      .cls-47 {
        isolation: isolate;
      }

      .cls-48 {
        fill: #c3c5ff;
      }

      .cls-49 {
        fill: #ca5213;
      }

      .cls-50 {
        fill: #e27233;
      }

      .cls-6 {
        fill: #c1bbd1;
        opacity: .4;
      }

      .cls-51 {
        fill: #681e26;
      }

      .cls-23 {
        fill: url(#_ÂÁ_Ï_ÌÌ_È_ËÂÌÚ_11-3);
      }

      .cls-24 {
        fill: url(#_ÂÁ_Ï_ÌÌ_È_ËÂÌÚ_11-2);
      }

      .cls-25 {
        fill: url(#_ÂÁ_Ï_ÌÌ_È_ËÂÌÚ_11-4);
      }

      .cls-26 {
        fill: url(#_ÂÁ_Ï_ÌÌ_È_ËÂÌÚ_1027);
      }

      .cls-27 {
        fill: url(#_ÂÁ_Ï_ÌÌ_È_ËÂÌÚ_11-6);
      }

      .cls-28 {
        fill: url(#_ÂÁ_Ï_ÌÌ_È_ËÂÌÚ_11-5);
      }

      .cls-8 {
        fill: url(#_ÂÁ_Ï_ÌÌ_È_ËÂÌÚ_131-2);
      }

      .cls-8, .cls-31, .cls-32, .cls-9, .cls-10, .cls-11, .cls-33, .cls-34, .cls-37, .cls-12 {
        mix-blend-mode: screen;
      }

      .cls-31 {
        fill: url(#_ÂÁ_Ï_ÌÌ_È_ËÂÌÚ_62-5);
      }

      .cls-32 {
        fill: url(#_ÂÁ_Ï_ÌÌ_È_ËÂÌÚ_62-4);
      }

      .cls-9 {
        fill: url(#_ÂÁ_Ï_ÌÌ_È_ËÂÌÚ_62-2);
      }

      .cls-10 {
        fill: url(#_ÂÁ_Ï_ÌÌ_È_ËÂÌÚ_62-3);
      }

      .cls-11 {
        fill: url(#_ÂÁ_Ï_ÌÌ_È_ËÂÌÚ_131);
      }

      .cls-33 {
        fill: url(#_ÂÁ_Ï_ÌÌ_È_ËÂÌÚ_8-2);
      }

      .cls-34 {
        fill: url(#_ÂÁ_Ï_ÌÌ_È_ËÂÌÚ_8-3);
      }

      .cls-35 {
        fill: url(#_ÂÁ_Ï_ÌÌ_È_ËÂÌÚ_197);
      }

      .cls-36 {
        fill: url(#_ÂÁ_Ï_ÌÌ_È_ËÂÌÚ_245);
      }

      .cls-52 {
        fill: url(#_ÂÁ_Ï_ÌÌ_È_ËÂÌÚ_25-3);
      }

      .cls-53 {
        fill: url(#_ÂÁ_Ï_ÌÌ_È_ËÂÌÚ_25-2);
      }

      .cls-54 {
        fill: url(#_ÂÁ_Ï_ÌÌ_È_ËÂÌÚ_1900);
      }

      .cls-55 {
        fill: url(#_ÂÁ_Ï_ÌÌ_È_ËÂÌÚ_17-6);
      }

      .cls-56 {
        fill: url(#_ÂÁ_Ï_ÌÌ_È_ËÂÌÚ_17-5);
      }

      .cls-57 {
        fill: url(#_ÂÁ_Ï_ÌÌ_È_ËÂÌÚ_17-2);
      }

      .cls-58 {
        fill: url(#_ÂÁ_Ï_ÌÌ_È_ËÂÌÚ_17-3);
      }

      .cls-59 {
        fill: url(#_ÂÁ_Ï_ÌÌ_È_ËÂÌÚ_17-4);
      }

      .cls-60 {
        fill: url(#_ÂÁ_Ï_ÌÌ_È_ËÂÌÚ_81-2);
      }

      .cls-61 {
        fill: url(#_ÂÁ_Ï_ÌÌ_È_ËÂÌÚ_81-3);
      }

      .cls-37 {
        fill: url(#_ÂÁ_Ï_ÌÌ_È_ËÂÌÚ_8);
      }

      .cls-62 {
        fill: url(#_ÂÁ_Ï_ÌÌ_È_ËÂÌÚ_81);
      }

      .cls-63 {
        fill: url(#_ÂÁ_Ï_ÌÌ_È_ËÂÌÚ_69);
      }

      .cls-64 {
        fill: url(#_ÂÁ_Ï_ÌÌ_È_ËÂÌÚ_17);
      }

      .cls-65 {
        fill: url(#_ÂÁ_Ï_ÌÌ_È_ËÂÌÚ_59);
      }

      .cls-66 {
        fill: url(#_ÂÁ_Ï_ÌÌ_È_ËÂÌÚ_24);
      }

      .cls-67 {
        fill: url(#_ÂÁ_Ï_ÌÌ_È_ËÂÌÚ_25);
      }

      .cls-12 {
        fill: url(#_ÂÁ_Ï_ÌÌ_È_ËÂÌÚ_62);
      }

      .cls-68 {
        fill: #ef813e;
      }
    </style>
    <linearGradient id="_ÂÁ_Ï_ÌÌ_È_ËÂÌÚ_1900" data-name="¡ÂÁ˚ÏˇÌÌ˚È „‡‰ËÂÌÚ 1900" x1="113.2" y1="253.86" x2="113.2" y2="25.39" gradientUnits="userSpaceOnUse">
      <stop offset="0" stop-color="#e7a4df"/>
      <stop offset="1" stop-color="#a12a9a"/>
    </linearGradient>
    <linearGradient id="_ÂÁ_Ï_ÌÌ_È_ËÂÌÚ_1900-2" data-name="¡ÂÁ˚ÏˇÌÌ˚È „‡‰ËÂÌÚ 1900" x1="46.59" y1="69.38" x2="46.59" y2="69.3" xlink:href="#_ÂÁ_Ï_ÌÌ_È_ËÂÌÚ_1900"/>
    <linearGradient id="_ÂÁ_Ï_ÌÌ_È_ËÂÌÚ_24" data-name="¡ÂÁ˚ÏˇÌÌ˚È „‡‰ËÂÌÚ 24" x1="-821.49" y1="2201.66" x2="-821.49" y2="2007.11" gradientTransform="translate(1955.28 -1167.8) rotate(33.64)" gradientUnits="userSpaceOnUse">
      <stop offset="0" stop-color="#831f24"/>
      <stop offset="1" stop-color="#bb540e"/>
    </linearGradient>
    <linearGradient id="_ÂÁ_Ï_ÌÌ_È_ËÂÌÚ_258" data-name="¡ÂÁ˚ÏˇÌÌ˚È „‡‰ËÂÌÚ 258" x1="-822.46" y1="2025.29" x2="-822.46" y2="1988.13" gradientTransform="translate(1955.28 -1167.8) rotate(33.64)" gradientUnits="userSpaceOnUse">
      <stop offset="0" stop-color="#831f24"/>
      <stop offset="1" stop-color="#bb4b04"/>
    </linearGradient>
    <linearGradient id="_ÂÁ_Ï_ÌÌ_È_ËÂÌÚ_384" data-name="¡ÂÁ˚ÏˇÌÌ˚È „‡‰ËÂÌÚ 384" x1="-788.9" y1="2017.98" x2="-788.9" y2="1992.87" gradientTransform="translate(1955.28 -1167.8) rotate(33.64)" gradientUnits="userSpaceOnUse">
      <stop offset="0" stop-color="#81170e"/>
      <stop offset="1" stop-color="#5e0624"/>
    </linearGradient>
    <linearGradient id="_ÂÁ_Ï_ÌÌ_È_ËÂÌÚ_384-2" data-name="¡ÂÁ˚ÏˇÌÌ˚È „‡‰ËÂÌÚ 384" x1="-830.33" y1="2020.33" x2="-830.33" y2="1985.58" xlink:href="#_ÂÁ_Ï_ÌÌ_È_ËÂÌÚ_384"/>
    <linearGradient id="_ÂÁ_Ï_ÌÌ_È_ËÂÌÚ_11" data-name="¡ÂÁ˚ÏˇÌÌ˚È „‡‰ËÂÌÚ 11" x1="-820.67" y1="2025.29" x2="-820.67" y2="1991.41" gradientTransform="translate(1955.28 -1167.8) rotate(33.64)" gradientUnits="userSpaceOnUse">
      <stop offset="0" stop-color="#a12a9a"/>
      <stop offset="1" stop-color="#d3a2ff"/>
    </linearGradient>
    <linearGradient id="_ÂÁ_Ï_ÌÌ_È_ËÂÌÚ_384-3" data-name="¡ÂÁ˚ÏˇÌÌ˚È „‡‰ËÂÌÚ 384" x1="-754.37" y1="2008.06" x2="-754.37" y2="2004.87" xlink:href="#_ÂÁ_Ï_ÌÌ_È_ËÂÌÚ_384"/>
    <linearGradient id="_ÂÁ_Ï_ÌÌ_È_ËÂÌÚ_384-4" data-name="¡ÂÁ˚ÏˇÌÌ˚È „‡‰ËÂÌÚ 384" x1="-787.22" y1="1992.87" x2="-787.22" y2="1987.53" xlink:href="#_ÂÁ_Ï_ÌÌ_È_ËÂÌÚ_384"/>
    <linearGradient id="_ÂÁ_Ï_ÌÌ_È_ËÂÌÚ_384-5" data-name="¡ÂÁ˚ÏˇÌÌ˚È „‡‰ËÂÌÚ 384" x1="-788.2" y1="1987.54" x2="-788.2" y2="1987.52" xlink:href="#_ÂÁ_Ï_ÌÌ_È_ËÂÌÚ_384"/>
    <linearGradient id="_ÂÁ_Ï_ÌÌ_È_ËÂÌÚ_384-6" data-name="¡ÂÁ˚ÏˇÌÌ˚È „‡‰ËÂÌÚ 384" x1="-782.95" y1="1991.75" x2="-782.95" y2="1988.87" xlink:href="#_ÂÁ_Ï_ÌÌ_È_ËÂÌÚ_384"/>
    <linearGradient id="_ÂÁ_Ï_ÌÌ_È_ËÂÌÚ_384-7" data-name="¡ÂÁ˚ÏˇÌÌ˚È „‡‰ËÂÌÚ 384" x1="-864.88" y1="1992.81" x2="-864.88" y2="1989.27" xlink:href="#_ÂÁ_Ï_ÌÌ_È_ËÂÌÚ_384"/>
    <linearGradient id="_ÂÁ_Ï_ÌÌ_È_ËÂÌÚ_384-8" data-name="¡ÂÁ˚ÏˇÌÌ˚È „‡‰ËÂÌÚ 384" x1="-868.09" y1="1991.43" x2="-868.09" y2="1990.94" xlink:href="#_ÂÁ_Ï_ÌÌ_È_ËÂÌÚ_384"/>
    <linearGradient id="_ÂÁ_Ï_ÌÌ_È_ËÂÌÚ_384-9" data-name="¡ÂÁ˚ÏˇÌÌ˚È „‡‰ËÂÌÚ 384" x1="-863.22" y1="2004.64" x2="-860.83" y2="2004.64" xlink:href="#_ÂÁ_Ï_ÌÌ_È_ËÂÌÚ_384"/>
    <linearGradient id="_ÂÁ_Ï_ÌÌ_È_ËÂÌÚ_81" data-name="¡ÂÁ˚ÏˇÌÌ˚È „‡‰ËÂÌÚ 81" x1="-890.14" y1="2191.07" x2="-890.14" y2="2010.14" gradientTransform="translate(1955.28 -1167.8) rotate(33.64)" gradientUnits="userSpaceOnUse">
      <stop offset="0" stop-color="#86290e"/>
      <stop offset="1" stop-color="#5e0624"/>
    </linearGradient>
    <linearGradient id="_ÂÁ_Ï_ÌÌ_È_ËÂÌÚ_174" data-name="¡ÂÁ˚ÏˇÌÌ˚È „‡‰ËÂÌÚ 174" x1="-822.22" y1="2088.25" x2="-822.22" y2="2056.62" gradientTransform="translate(1955.28 -1167.8) rotate(33.64)" gradientUnits="userSpaceOnUse">
      <stop offset="0" stop-color="#cc9cff"/>
      <stop offset="1" stop-color="#a12a9a"/>
    </linearGradient>
    <linearGradient id="_ÂÁ_Ï_ÌÌ_È_ËÂÌÚ_25" data-name="¡ÂÁ˚ÏˇÌÌ˚È „‡‰ËÂÌÚ 25" x1="-851.83" y1="2200.31" x2="-851.83" y2="2019.63" gradientTransform="translate(1955.28 -1167.8) rotate(33.64)" gradientUnits="userSpaceOnUse">
      <stop offset="0" stop-color="#5e0624"/>
      <stop offset="1" stop-color="#81170e"/>
    </linearGradient>
    <linearGradient id="_ÂÁ_Ï_ÌÌ_È_ËÂÌÚ_81-2" data-name="¡ÂÁ˚ÏˇÌÌ˚È „‡‰ËÂÌÚ 81" x1="5698.51" y1="2189.63" x2="5698.51" y2="2012.83" gradientTransform="translate(6073.73 1572.03) rotate(-146.36) scale(1 -1)" xlink:href="#_ÂÁ_Ï_ÌÌ_È_ËÂÌÚ_81"/>
    <linearGradient id="_ÂÁ_Ï_ÌÌ_È_ËÂÌÚ_25-2" data-name="¡ÂÁ˚ÏˇÌÌ˚È „‡‰ËÂÌÚ 25" x1="5735.5" y1="2201.01" x2="5735.5" y2="2020.32" gradientTransform="translate(6073.73 1572.03) rotate(-146.36) scale(1 -1)" xlink:href="#_ÂÁ_Ï_ÌÌ_È_ËÂÌÚ_25"/>
    <linearGradient id="_ÂÁ_Ï_ÌÌ_È_ËÂÌÚ_1027" data-name="¡ÂÁ˚ÏˇÌÌ˚È „‡‰ËÂÌÚ 1027" x1="-821.49" y1="2201.66" x2="-821.49" y2="2007.12" gradientTransform="translate(1955.28 -1167.8) rotate(33.64)" gradientUnits="userSpaceOnUse">
      <stop offset="0" stop-color="#a12a9a"/>
      <stop offset="1" stop-color="#e3c2cf"/>
    </linearGradient>
    <linearGradient id="_ÂÁ_Ï_ÌÌ_È_ËÂÌÚ_17" data-name="¡ÂÁ˚ÏˇÌÌ˚È „‡‰ËÂÌÚ 17" x1="-870.13" y1="2151.44" x2="-870.13" y2="2025.28" gradientTransform="translate(1955.28 -1167.8) rotate(33.64)" gradientUnits="userSpaceOnUse">
      <stop offset="0" stop-color="#f6f2ff"/>
      <stop offset="1" stop-color="#cf8081"/>
    </linearGradient>
    <linearGradient id="_ÂÁ_Ï_ÌÌ_È_ËÂÌÚ_17-2" data-name="¡ÂÁ˚ÏˇÌÌ˚È „‡‰ËÂÌÚ 17" x1="-865.42" y1="2112.99" x2="-865.42" y2="2025.79" xlink:href="#_ÂÁ_Ï_ÌÌ_È_ËÂÌÚ_17"/>
    <linearGradient id="_ÂÁ_Ï_ÌÌ_È_ËÂÌÚ_17-3" data-name="¡ÂÁ˚ÏˇÌÌ˚È „‡‰ËÂÌÚ 17" x1="-836.34" y1="2188.81" x2="-836.34" y2="2028.81" xlink:href="#_ÂÁ_Ï_ÌÌ_È_ËÂÌÚ_17"/>
    <linearGradient id="_ÂÁ_Ï_ÌÌ_È_ËÂÌÚ_17-4" data-name="¡ÂÁ˚ÏˇÌÌ˚È „‡‰ËÂÌÚ 17" x1="-802.77" y1="2187.23" x2="-802.77" y2="2038.25" xlink:href="#_ÂÁ_Ï_ÌÌ_È_ËÂÌÚ_17"/>
    <linearGradient id="_ÂÁ_Ï_ÌÌ_È_ËÂÌÚ_17-5" data-name="¡ÂÁ˚ÏˇÌÌ˚È „‡‰ËÂÌÚ 17" x1="-794.83" y1="2157.6" x2="-794.83" y2="2069.55" xlink:href="#_ÂÁ_Ï_ÌÌ_È_ËÂÌÚ_17"/>
    <linearGradient id="_ÂÁ_Ï_ÌÌ_È_ËÂÌÚ_17-6" data-name="¡ÂÁ˚ÏˇÌÌ˚È „‡‰ËÂÌÚ 17" x1="-766.99" y1="2197.15" x2="-766.99" y2="2040.42" xlink:href="#_ÂÁ_Ï_ÌÌ_È_ËÂÌÚ_17"/>
    <linearGradient id="_ÂÁ_Ï_ÌÌ_È_ËÂÌÚ_59" data-name="¡ÂÁ˚ÏˇÌÌ˚È „‡‰ËÂÌÚ 59" x1="-922.33" y1="2153.8" x2="-720.64" y2="2153.8" gradientTransform="translate(1955.28 -1167.8) rotate(33.64)" gradientUnits="userSpaceOnUse">
      <stop offset="0" stop-color="#2c2055"/>
      <stop offset=".4" stop-color="#32275d"/>
      <stop offset="1" stop-color="#423b74"/>
    </linearGradient>
    <radialGradient id="_ÂÁ_Ï_ÌÌ_È_ËÂÌÚ_352" data-name="¡ÂÁ˚ÏˇÌÌ˚È „‡‰ËÂÌÚ 352" cx="-821.48" cy="2144.17" fx="-821.48" fy="2144.17" r="72.72" gradientTransform="translate(1955.28 -1167.8) rotate(33.64)" gradientUnits="userSpaceOnUse">
      <stop offset="0" stop-color="#ceccdb"/>
      <stop offset=".24" stop-color="#afacc4"/>
      <stop offset=".57" stop-color="#8b85a7"/>
      <stop offset=".84" stop-color="#746c96"/>
      <stop offset="1" stop-color="#6c6490"/>
    </radialGradient>
    <linearGradient id="_ÂÁ_Ï_ÌÌ_È_ËÂÌÚ_11-2" data-name="¡ÂÁ˚ÏˇÌÌ˚È „‡‰ËÂÌÚ 11" x1="-821.5" y1="2071.73" x2="-821.5" y2="2017.57" xlink:href="#_ÂÁ_Ï_ÌÌ_È_ËÂÌÚ_11"/>
    <linearGradient id="_ÂÁ_Ï_ÌÌ_È_ËÂÌÚ_69" data-name="¡ÂÁ˚ÏˇÌÌ˚È „‡‰ËÂÌÚ 69" x1="-917.88" y1="2061.56" x2="-725.08" y2="2061.56" gradientTransform="translate(1955.28 -1167.8) rotate(33.64)" gradientUnits="userSpaceOnUse">
      <stop offset="0" stop-color="#2c2055"/>
      <stop offset=".33" stop-color="#33285d"/>
      <stop offset=".87" stop-color="#484075"/>
      <stop offset="1" stop-color="#4f487d"/>
    </linearGradient>
    <radialGradient id="_ÂÁ_Ï_ÌÌ_È_ËÂÌÚ_352-2" data-name="¡ÂÁ˚ÏˇÌÌ˚È „‡‰ËÂÌÚ 352" cx="-821.49" cy="2052.61" fx="-821.49" fy="2052.61" r="67.13" xlink:href="#_ÂÁ_Ï_ÌÌ_È_ËÂÌÚ_352"/>
    <linearGradient id="_ÂÁ_Ï_ÌÌ_È_ËÂÌÚ_62" data-name="¡ÂÁ˚ÏˇÌÌ˚È „‡‰ËÂÌÚ 62" x1="-841.66" y1="2071.57" x2="-841.66" y2="2071.28" gradientTransform="translate(1955.28 -1167.8) rotate(33.64)" gradientUnits="userSpaceOnUse">
      <stop offset="0" stop-color="#000"/>
      <stop offset="1" stop-color="#95a1a9"/>
    </linearGradient>
    <linearGradient id="_ÂÁ_Ï_ÌÌ_È_ËÂÌÚ_62-2" data-name="¡ÂÁ˚ÏˇÌÌ˚È „‡‰ËÂÌÚ 62" x1="-781.79" y1="2069.78" x2="-781.79" y2="2069.01" xlink:href="#_ÂÁ_Ï_ÌÌ_È_ËÂÌÚ_62"/>
    <linearGradient id="_ÂÁ_Ï_ÌÌ_È_ËÂÌÚ_62-3" data-name="¡ÂÁ˚ÏˇÌÌ˚È „‡‰ËÂÌÚ 62" x1="-808.89" y1="2087.16" x2="-808.89" y2="2069.03" xlink:href="#_ÂÁ_Ï_ÌÌ_È_ËÂÌÚ_62"/>
    <linearGradient id="_ÂÁ_Ï_ÌÌ_È_ËÂÌÚ_8" data-name="¡ÂÁ˚ÏˇÌÌ˚È „‡‰ËÂÌÚ 8" x1="-917.69" y1="2053.05" x2="-900.79" y2="2053.05" gradientTransform="translate(1955.28 -1167.8) rotate(33.64)" gradientUnits="userSpaceOnUse">
      <stop offset="0" stop-color="#b147fb"/>
      <stop offset="1" stop-color="#000"/>
    </linearGradient>
    <linearGradient id="_ÂÁ_Ï_ÌÌ_È_ËÂÌÚ_8-2" data-name="¡ÂÁ˚ÏˇÌÌ˚È „‡‰ËÂÌÚ 8" x1="-922.34" y1="2146.92" x2="-899.78" y2="2146.92" xlink:href="#_ÂÁ_Ï_ÌÌ_È_ËÂÌÚ_8"/>
    <linearGradient id="_ÂÁ_Ï_ÌÌ_È_ËÂÌÚ_100" data-name="¡ÂÁ˚ÏˇÌÌ˚È „‡‰ËÂÌÚ 100" x1="-916.52" y1="2144.78" x2="-720.28" y2="2144.78" gradientTransform="translate(1955.28 -1167.8) rotate(33.64)" gradientUnits="userSpaceOnUse">
      <stop offset="0" stop-color="#564d7f"/>
      <stop offset=".22" stop-color="#5e5585"/>
      <stop offset=".58" stop-color="#746e97"/>
      <stop offset="1" stop-color="#9793b2"/>
    </linearGradient>
    <linearGradient id="_ÂÁ_Ï_ÌÌ_È_ËÂÌÚ_396" data-name="¡ÂÁ˚ÏˇÌÌ˚È „‡‰ËÂÌÚ 396" x1="-888.72" y1="2052.78" x2="-728.59" y2="2052.78" gradientTransform="translate(1955.28 -1167.8) rotate(33.64)" gradientUnits="userSpaceOnUse">
      <stop offset="0" stop-color="#9690af"/>
      <stop offset="1" stop-color="#9793b2"/>
    </linearGradient>
    <linearGradient id="_ÂÁ_Ï_ÌÌ_È_ËÂÌÚ_62-4" data-name="¡ÂÁ˚ÏˇÌÌ˚È „‡‰ËÂÌÚ 62" x1="-800.29" y1="2086.41" x2="-800.29" y2="2070.67" xlink:href="#_ÂÁ_Ï_ÌÌ_È_ËÂÌÚ_62"/>
    <linearGradient id="_ÂÁ_Ï_ÌÌ_È_ËÂÌÚ_131" data-name="¡ÂÁ˚ÏˇÌÌ˚È „‡‰ËÂÌÚ 131" x1="-789.37" y1="2163.72" x2="-789.37" y2="2155.51" gradientTransform="translate(1955.28 -1167.8) rotate(33.64)" gradientUnits="userSpaceOnUse">
      <stop offset="0" stop-color="#d3d8db"/>
      <stop offset="1" stop-color="#000"/>
    </linearGradient>
    <linearGradient id="_ÂÁ_Ï_ÌÌ_È_ËÂÌÚ_131-2" data-name="¡ÂÁ˚ÏˇÌÌ˚È „‡‰ËÂÌÚ 131" x1="-797.09" y1="2072.14" x2="-797.09" y2="2065.97" xlink:href="#_ÂÁ_Ï_ÌÌ_È_ËÂÌÚ_131"/>
    <linearGradient id="_ÂÁ_Ï_ÌÌ_È_ËÂÌÚ_62-5" data-name="¡ÂÁ˚ÏˇÌÌ˚È „‡‰ËÂÌÚ 62" x1="-797.96" y1="2179.08" x2="-797.96" y2="2162.76" xlink:href="#_ÂÁ_Ï_ÌÌ_È_ËÂÌÚ_62"/>
    <linearGradient id="_ÂÁ_Ï_ÌÌ_È_ËÂÌÚ_11-3" data-name="¡ÂÁ˚ÏˇÌÌ˚È „‡‰ËÂÌÚ 11" x1="-896.33" y1="2162.41" x2="-868.63" y2="2162.41" xlink:href="#_ÂÁ_Ï_ÌÌ_È_ËÂÌÚ_11"/>
    <linearGradient id="_ÂÁ_Ï_ÌÌ_È_ËÂÌÚ_11-4" data-name="¡ÂÁ˚ÏˇÌÌ˚È „‡‰ËÂÌÚ 11" x1="-899.88" y1="2067.68" x2="-871.42" y2="2067.68" xlink:href="#_ÂÁ_Ï_ÌÌ_È_ËÂÌÚ_11"/>
    <linearGradient id="_ÂÁ_Ï_ÌÌ_È_ËÂÌÚ_8-3" data-name="¡ÂÁ˚ÏˇÌÌ˚È „‡‰ËÂÌÚ 8" x1="-919.45" y1="2097.53" x2="-908.43" y2="2097.53" xlink:href="#_ÂÁ_Ï_ÌÌ_È_ËÂÌÚ_8"/>
    <linearGradient id="_ÂÁ_Ï_ÌÌ_È_ËÂÌÚ_172" data-name="¡ÂÁ˚ÏˇÌÌ˚È „‡‰ËÂÌÚ 172" x1="-820.31" y1="2201.66" x2="-820.31" y2="2159.63" gradientTransform="translate(1955.28 -1167.8) rotate(33.64)" gradientUnits="userSpaceOnUse">
      <stop offset="0" stop-color="#a12a9a"/>
      <stop offset="1" stop-color="#cc9cff"/>
    </linearGradient>
    <linearGradient id="_ÂÁ_Ï_ÌÌ_È_ËÂÌÚ_11-5" data-name="¡ÂÁ˚ÏˇÌÌ˚È „‡‰ËÂÌÚ 11" x1="-789.95" y1="2029.2" x2="-755.52" y2="2029.2" xlink:href="#_ÂÁ_Ï_ÌÌ_È_ËÂÌÚ_11"/>
    <linearGradient id="_ÂÁ_Ï_ÌÌ_È_ËÂÌÚ_11-6" data-name="¡ÂÁ˚ÏˇÌÌ˚È „‡‰ËÂÌÚ 11" x1="-850.38" y1="2031.57" x2="-835.67" y2="2031.57" xlink:href="#_ÂÁ_Ï_ÌÌ_È_ËÂÌÚ_11"/>
    <linearGradient id="_ÂÁ_Ï_ÌÌ_È_ËÂÌÚ_384-10" data-name="¡ÂÁ˚ÏˇÌÌ˚È „‡‰ËÂÌÚ 384" x1="-776.25" y1="2111.78" x2="-776.25" y2="2097.52" xlink:href="#_ÂÁ_Ï_ÌÌ_È_ËÂÌÚ_384"/>
    <linearGradient id="_ÂÁ_Ï_ÌÌ_È_ËÂÌÚ_384-11" data-name="¡ÂÁ˚ÏˇÌÌ˚È „‡‰ËÂÌÚ 384" x1="-773.3" y1="2119.56" x2="-773.3" y2="2110.54" xlink:href="#_ÂÁ_Ï_ÌÌ_È_ËÂÌÚ_384"/>
    <linearGradient id="_ÂÁ_Ï_ÌÌ_È_ËÂÌÚ_81-3" data-name="¡ÂÁ˚ÏˇÌÌ˚È „‡‰ËÂÌÚ 81" x1="-854.19" y1="2120.31" x2="-859.08" y2="2111.84" xlink:href="#_ÂÁ_Ï_ÌÌ_È_ËÂÌÚ_81"/>
    <linearGradient id="_ÂÁ_Ï_ÌÌ_È_ËÂÌÚ_197" data-name="¡ÂÁ˚ÏˇÌÌ˚È „‡‰ËÂÌÚ 197" x1="-895.28" y1="2145.88" x2="-895.28" y2="2097.63" gradientTransform="translate(1955.28 -1167.8) rotate(33.64)" gradientUnits="userSpaceOnUse">
      <stop offset="0" stop-color="#833b24"/>
      <stop offset="1" stop-color="#63540e"/>
    </linearGradient>
    <linearGradient id="_ÂÁ_Ï_ÌÌ_È_ËÂÌÚ_197-2" data-name="¡ÂÁ˚ÏˇÌÌ˚È „‡‰ËÂÌÚ 197" x1="-876.34" y1="2149.31" x2="-876.34" y2="2124.63" xlink:href="#_ÂÁ_Ï_ÌÌ_È_ËÂÌÚ_197"/>
    <linearGradient id="_ÂÁ_Ï_ÌÌ_È_ËÂÌÚ_197-3" data-name="¡ÂÁ˚ÏˇÌÌ˚È „‡‰ËÂÌÚ 197" x1="-871.3" y1="2193.54" x2="-871.3" y2="2171.61" xlink:href="#_ÂÁ_Ï_ÌÌ_È_ËÂÌÚ_197"/>
    <linearGradient id="_ÂÁ_Ï_ÌÌ_È_ËÂÌÚ_245" data-name="¡ÂÁ˚ÏˇÌÌ˚È „‡‰ËÂÌÚ 245" x1="-834.42" y1="2119.57" x2="-834.42" y2="2089.83" gradientTransform="translate(1955.28 -1167.8) rotate(33.64)" gradientUnits="userSpaceOnUse">
      <stop offset="0" stop-color="#89452f"/>
      <stop offset="1" stop-color="#6b860e"/>
    </linearGradient>
    <linearGradient id="_ÂÁ_Ï_ÌÌ_È_ËÂÌÚ_245-2" data-name="¡ÂÁ˚ÏˇÌÌ˚È „‡‰ËÂÌÚ 245" x1="-848.07" y1="2114.25" x2="-848.07" y2="2096.2" xlink:href="#_ÂÁ_Ï_ÌÌ_È_ËÂÌÚ_245"/>
    <linearGradient id="_ÂÁ_Ï_ÌÌ_È_ËÂÌÚ_25-3" data-name="¡ÂÁ˚ÏˇÌÌ˚È „‡‰ËÂÌÚ 25" x1="-830.8" y1="1995.02" x2="-830.8" y2="1987.52" xlink:href="#_ÂÁ_Ï_ÌÌ_È_ËÂÌÚ_25"/>
  </defs>
  <g class="cls-47">
    <g id="Layer_2" data-name="Layer 2">
      <g id="_Layer_" data-name="&amp;lt;Layer&amp;gt;">
        <g>
          <g class="cls-22">
            <path class="cls-54" d="M223.67,114.51h0c4.22-6.38-3.76-19.76-19.3-34.75h-.01c-1.07-.58-4.64-1-7.04-1.22,0,0,.73-2.05.88-3.43.01-.08.02-.16.03-.23,0-.1,0-.2-.01-.29,0-.11,0-.23-.02-.31-.01-.07-.05-.1-.08-.14-.03-.08-.05-.17-.11-.21h.01s-.01,0-.02-.01c-7.64-6.71-16.62-13.61-26.54-20.2-2.71-1.81-5.41-3.52-8.1-5.17v-.02s0,.02,0,.02c-10.75-6.63-21.21-12.04-30.58-15.93-.71-.29-2.19,1.21-2.19,1.21,0,0-.06-.08-.19-.22-.31-.33-.98-1.04-1.85-1.82-.02,0-.03-.03-.05-.03-.55-.49-1.18-1.03-1.85-1.48-.06-.06-.13-.1-.19-.14-.78-.29-1.55-.55-2.31-.8h-.01s-.04,0-.06-.03h-.02c-14.57-4.94-25.39-5.42-28.82-.25h0c-1.46.91-2.91,1.84-4.38,2.8-.41.25-.81.53-1.22.8-1.07.71-2.14,1.43-3.21,2.17-.24.17-.47.32-.71.48h0s-.05.03-.08.04c-.21.15-.43.31-.64.47-1.02.71-2.05,1.44-3.07,2.18-.47.34-.94.68-1.41,1.03-1.07.79-2.14,1.59-3.2,2.4-.41.31-.82.62-1.23.95-1.12.85-2.24,1.74-3.35,2.63-1.15.87-2.03,1.52-2.46,1.83l2.26-1.68s-3.49-2.46-6.32-.75h0s-4.62,2.65-8.15,6.56c-1.55,1.52-2.8,3.08-3.17,4.37-.11.37-.18.74-.27,1.11-.02.07-.05.14-.08.21-.23.71-.36,1.55-.43,2.46-.13.89-.22,1.8-.26,2.71-.25.24-.49.49-.73.73,0,0,0,0-.01.01h0s-.36.34-.98.97c-.06.06-.12.12-.18.19-.61.62-1.44,1.48-2.46,2.55-.16.17-.32.34-.48.5-.67.7-1.33,1.41-1.99,2.14l-.38.4s.06-.06.09-.08c-.02.03-.04.04-.06.06-.15.16-.29.31-.44.49-1.03,1.11-2.05,2.25-3.06,3.41-.48.55-.95,1.08-1.45,1.66-.24.27-.49.56-.73.85-.06.06-.11.13-.17.19-5.98,6.99-12.9,15.89-17.83,24.73,0,0,0,.01,0,.01-1.04,1.74-2.04,3.49-3,5.26-.25.45-.48.91-.72,1.37-.65,1.19-1.28,2.42-1.88,3.64-.3.59-.58,1.18-.86,1.77-.53,1.1-1.05,2.21-1.55,3.34-.1.22-.21.44-.31.66-.88-.53-3.48-1.84-5.88-.49-.51.29-1.17,1.59-1.53,3.78.02-.52.04-1.05.08-1.58,0,0-4,7.37-5.37,16.94-1.05,6.17.34,12.86,3.37,19.66-.02.69-.07,1.35-.08,2.02,0,.2-.02.4-.02.59,0,.47.04.93.04,1.4.01,1.52.05,3.05.14,4.57.04.74.11,1.5.18,2.22.12,1.43.29,2.86.49,4.28.11.76.22,1.53.34,2.29.25,1.48.56,2.95.89,4.42.15.69.29,1.36.45,2.04.54,2.13,1.15,4.26,1.87,6.39,0,0,1.12,3.46,4.11,8.88.26,1.31.44,2.01.44,2.01-.05-.47-.07-.93-.11-1.4,3.33,5.92,8.86,14.06,17.49,22.69-.13.37-.27.73-.4,1.1,0,0,.14-.37.44-1.08,5.4,5.41,11.99,10.99,20.06,16.37,1.91,1.28,3.8,2.44,5.67,3.57.58.34,1.14.67,1.72.99,1.32.76,2.63,1.5,3.92,2.18.6.32,1.2.64,1.79.95,1.37.7,2.71,1.36,4.04,1.99.43.21.86.43,1.28.6,1.7.78,3.35,1.5,4.98,2.16.54.22,1.05.4,1.58.6.03,0,.05.02.08.03-.75.74-1.19,1.17-1.19,1.17.43-.37.84-.77,1.26-1.15,1.03.4,2.05.78,3.06,1.14.69.25,1.37.47,2.05.7.27.09.54.19.81.27h-.01.01c.55.19,1.08.33,1.62.49.74.25,1.49.47,2.21.67.08.02.16.05.24.08.49.13.81.23.92.27h.03c.86.23,1.7.45,2.53.66.11.03.22.05.32.08,1.32.32,2.58.6,3.8.86.24.04.48.08.72.14,1.19.23,2.34.43,3.43.61.19.03.37.06.56.09,2.27.34,4.29.57,6.04.71.11,0,.23.01.34.01.03.01.06.01.09.01-.23.07-.45.14-.68.21,0,0,.36-.04.99-.19.7.06,1.34.09,1.94.12.09,0,.16,0,.24,0,1.43.05,2.55.05,3.33.03h.14c.36,0,.64-.03.83-.03h.1c.14-.02.24-.03.24-.03,1.72-.11,3.43-.28,5.12-.51.52-.07,1.03-.17,1.55-.25,1.15-.18,2.31-.34,3.44-.56.75-.14,1.48-.34,2.22-.49.86-.19,1.74-.37,2.6-.59,1.05-.28,2.08-.59,3.11-.91.45-.14.92-.25,1.37-.4v.03s.14-.06.14-.06c.05-.02.11-.03.16-.06,1.9-.61,3.76-1.29,5.6-2.02.56-.24,1.11-.49,1.67-.73,1.31-.55,2.6-1.13,3.88-1.76.31-.15.63-.27.93-.43.01,0,.02,0,.04,0,6.82-.43,13.14-2.1,18.54-5.51,1.96-1.24,5.81-4.57,8.92-7.35,1.12-.47,1.98-.95,2.57-1.35,3.6-2.44,2.28-5.16.84-6.82-.51-.62-1.02-1.06-1.36-1.32-.02-.02-.03-.02-.05-.04.6-.63,1.19-1.28,1.78-1.92.35-.39.7-.77,1.05-1.17,1.64-1.84,3.26-3.73,4.82-5.67.11-.14.22-.29.34-.43,1.48-1.86,2.92-3.77,4.33-5.71.29-.39.58-.78.86-1.19,1.44-2.02,2.85-4.08,4.21-6.19.25-.39.49-.78.74-1.15,1.25-1.96,2.47-3.95,3.65-5.97.16-.28.34-.56.5-.84,1.27-2.18,2.49-4.41,3.67-6.65.26-.49.52-1,.78-1.5,1.18-2.27,2.33-4.55,3.43-6.86.06-.12.1-.23.15-.34,1.06-2.24,2.06-4.49,3.04-6.74.22-.51.44-1.02.65-1.52.2-.47.41-.95.61-1.43l1.56-2.33s-.26.15-.77.37c0-.01.01-.02.02-.05,1.98-.93,3.87-2.07,5.61-3.47,3.32-2.65,5.69-14.66,5.69-14.66.24-1.58-.5-2.94-1.31-3.93-.87-1.02-1.82-1.62-1.82-1.62l-.72,2.87.19-1.06c.6-2.03,1.18-4.05,1.72-6.06,2.1-7.83,3.72-15.53,4.89-22.9h0s0,0,0-.01h0ZM170.68,226.02s.06-.06.09-.09c-.14.18-.36.39-.63.59,0,0,.01,0,.02-.02.17-.16.35-.32.52-.48ZM216.66,144.82c.08-.08.14-.14.16-.15-.05.07-.12.14-.19.22.01-.03.02-.05.02-.07ZM70.09,46.97h0,0Z"/>
            <path class="cls-1" d="M46.64,69.3c-.06.05-.1.08-.1.08l.1-.08Z"/>
          </g>
          <path class="cls-66" d="M112.71,229.99s-27.37,2.4-61.03-20.01c-33.67-22.4-42.03-48.55-42.03-48.55C-11.18,100.29,45.7,35.86,95.24,5.29c.29.5.58,1.02.89,1.52,18.4,31.6,55.37,53.15,55.37,53.15,0,0,35.29,26.63,72.17,30.78-1.17,7.36-2.79,15.08-4.89,22.89-14.23,53.23-49.9,112.52-106.07,116.36Z"/>
          <path class="cls-5" d="M136.88,64.59c-30.39-16.31-84.66,71.76-69.74,95.34,22.46,35.51,53.62,11.9,64.21-2.93,10.59-14.84,37.9-60.54,36.85-72-1.06-11.44-31.32-20.42-31.32-20.42Z"/>
          <path class="cls-5" d="M178.08,88.38c-5.89-3.55-40.11,64.06-55.5,85.03-15.38,20.97,16.52,40.41,52.01-1.61,35.49-42.03,29.42-75.49,25.61-77.3-3.81-1.82-22.12-6.12-22.12-6.12Z"/>
          <path class="cls-15" d="M213.93,85.38c-1.11,1.3-2.86,2.09-5.1,2.35-21.01,2.64-86.44-36.66-102.78-63.15-3.81-6.19-4.96-11.66-2.23-15.75,1.61-1.27,3.6-2.05,5.93-2.4.06,0,.12-.01.18-.01,27.83-4,101.25,51.6,105.15,73.38v.03c.2,1.05.23,2.01.08,2.88-.16,1.01-.56,1.92-1.22,2.67Z"/>
          <path class="cls-16" d="M195.04,54.58l-15.03,20.16,1.26.55s6.38-11.2,13.77-20.71Z"/>
          <path class="cls-43" d="M145.28,54.45s15.29-24.09,16-25.4c.71-1.31,2.1-4.29,2.1-4.29,0,0-.84,3.08-1.38,4.55-.54,1.49-16.72,25.14-16.72,25.14Z"/>
          <path class="cls-21" d="M216.48,81.64l-1.33,1.06-6.32,5.02c-21.01,2.64-86.44-36.66-102.78-63.15l3.7-18.15v-.08s.18.07.18.07l19.45,7.5c-8.61,2.13-10.65,15.01-8.52,16.79,2.01,1.68,10.75-12.69,11.78-14.39-.84,1.58-7.64,14.3-8.11,16.35-.48,2.17,12.66,13.43,18.08,15.61,5.41,2.17,18.76-17.85,18.76-17.85,0,0-12,18.63-11.37,21.82.63,3.17,24.59,16.23,28.71,15.26,4.1-.96,16.34-12.93,16.34-12.93,0,0-7.59,12.89-7.46,17.53.15,4.65,11.36,4.69,15.86,3.14,4.5-1.57,4.37-4.97,4.37-4.97l7.26,9.51v.03s1.41,1.82,1.41,1.82Z"/>
          <path class="cls-50" d="M204.37,55.99h-.01c-1.07-.59-4.64-1-7.04-1.24,0,0,1.46-4.03.7-4.59v-.03c-7.65-6.7-16.62-13.59-26.55-20.2-13.58-9.04-26.96-16.23-38.68-21.11-.71-.28-2.19,1.23-2.19,1.23,0,0-.06-.08-.19-.23-.52-.61-1.14-1.23-1.85-1.82-.02-.01-.03-.03-.05-.03-.55-.5-1.18-1.02-1.85-1.5-.06-.05-.13-.1-.19-.14-.78-.27-1.55-.55-2.31-.8h-.01s-.04-.03-.06-.03h-.02c-14.57-4.94-25.39-5.42-28.82-.26-6.64,10,16.73,37.21,52.2,60.8,35.47,23.6,69.59,34.64,76.23,24.67,4.23-6.35-3.75-19.75-19.29-34.75ZM152.05,59.14c-26.7-17.76-44.56-37.82-39.92-44.8,4.64-6.96,30.04,1.78,56.73,19.54,26.69,17.75,44.56,37.81,39.92,44.79-4.64,6.97-30.05-1.76-56.73-19.52Z"/>
          <path class="cls-40" d="M206.46,80.43c1.84-.88,17.2,10.3,17.2,10.3l.74-2.19s-12.02-5.81-16.51-9.3l-1.44,1.18Z"/>
          <path class="cls-39" d="M195.04,54.58s3.95-3.53,2.97-4.44c.8.54-.68,4.61-.68,4.61-1.32-.11-2.29-.18-2.29-.18Z"/>
          <path class="cls-45" d="M198.02,50.14s0,.03.02,0c-.01.02-.02,0-.03,0h.01Z"/>
          <path class="cls-41" d="M204.36,55.99l-7.04-1.23c2.4.24,5.96.65,7.04,1.23Z"/>
          <path class="cls-44" d="M132.64,12.99c-.19-.34-.87-1.55-2.04-2.92,0,0,1.48-1.51,2.19-1.23-1.24,1.25-.37,3.63-.15,4.15Z"/>
          <path class="cls-46" d="M130.41,9.84c-.31-.32-.98-1.04-1.85-1.82.71.59,1.33,1.21,1.85,1.82Z"/>
          <path class="cls-42" d="M133.3,15.21l-11.78,18.79s9.84-16,10.45-17.58c.61-1.61.67-3.43.67-3.43l.67,2.22Z"/>
          <path class="cls-62" d="M114.43,21.69s-12.12-1.92-14.52-.81c-2.4,1.12-97.07,50.1-85.71,151.44,0,0-22.61-84.47,86.22-150.71,0,0,5.76-.92,14.01.08Z"/>
          <path class="cls-19" d="M208.61,143.58s-14.04,1.92-16.9,5.52c0,0-34.45-8.79-45.44-13.72-10.99-4.94-60.44-38.08-77.52-57.33-17.08-19.26-24.18-10.34-24.18-10.34,0,0,7.31-10.72,5.87-17.88-1.44-7.15-3.9-4.2-3.9-4.2l6.57-6.86s12.04,46.29,69.07,79.68c63.94,37.44,87.98,22.77,87.98,22.77l-1.56,2.35Z"/>
          <path class="cls-67" d="M131.27,44.29s-6.7,3.95-8.22,5.55c-1.52,1.61-68.29,75.13-91.87,144.87,0,0,37.23-94.41,100.09-150.42Z"/>
          <path class="cls-60" d="M201.24,81.84s6.22,10.08,6.12,12.63c-.1,2.55-13.75,111.67-102.48,135.62,0,0,77.35-11.39,101.65-135.8,0,0-1.33-5.47-5.29-12.45Z"/>
          <path class="cls-53" d="M175.64,73.81s-1.06,7.71-1.95,9.73c-.89,2.03-42.92,92.02-98.14,140.7,0,0,72.7-70.81,100.09-150.42Z"/>
          <path class="cls-26" d="M144.49,221.25c-3.94,1.97-8.02,3.67-12.24,4.99-.05.03-.09.03-.14.05-6.16,1.97-12.65,3.24-19.41,3.7,0,0-9.83.87-24.97-3.28h-.03c-.11-.03-.42-.13-.92-.27-9.93-2.8-22.04-7.76-35.11-16.46-33.67-22.4-42.03-48.55-42.03-48.55-3.13-9.19-4.5-18.43-4.41-27.63C5.73,81.7,53.13,31.26,95.24,5.29c.29.5.58,1.02.89,1.52-.72,3.39-.16,9.22,5.35,18.68-18.42,5.86-64.21,54.56-67.66,88.85-3.43,34.3,18.27,31.53,18.27,31.53,0,0,24.51-37.44,33.5-49.41,0,0-29.36,46.62-30.28,55.6-.9,8.98,38.39,35.12,47.07,34.45,8.7-.68,30.5-31.02,30.5-31.02,0,0-22.05,32.88-21.09,34.15.95,1.24,20.73,12.32,47.42-9.82,25.65-21.28,42.09-58.74,43.32-61.57-.9,2.87-13.18,41.43-26.27,58.57-13.6,17.81-16.5,20.86-16.5,20.86,0,0,4.12,9.52,26.69-19.51,22.26-28.62,32.03-63.68,32.3-64.64l.03.1c-11.33,42.37-36.25,88.59-74.28,107.62Z"/>
          <g class="cls-18">
            <path class="cls-64" d="M109.52,36.61c-29.6,8.45-54.85,50-62.62,74.96-7.76,24.98,4.62,37.98,4.62,37.98l6.73-10.13s-19.95-8.09.56-49.7c20.51-41.59,52.84-51.7,52.84-51.7l-2.12-1.42Z"/>
            <path class="cls-57" d="M116.36,41.77s-17.58,4.61-37.68,32.13c-20.1,27.51-6.92,42.94-6.92,42.94l6.91-10.37s-9.08-14.58,5.39-36.89c14.48-22.29,34.46-25.84,34.46-25.84l-2.16-1.97Z"/>
            <path class="cls-58" d="M132.97,56.45s-6.65,35.84-36.35,76.74c-29.7,40.89-57.17,42.72-57.17,42.72l-4.18,7.71s35.14-2.95,68.23-52.68c33.09-49.72,31.58-73.09,31.58-73.09l-2.1-1.4Z"/>
            <path class="cls-59" d="M167.83,93.04c-12.93-22.18-46.14,11.62-67.71,57.52-21.58,45.9-15.33,64.11-15.33,64.11l3.5-3.78s-2.8-31.33,22.01-77.23c24.81-45.91,51.8-48.39,55.29-36.02l2.25-4.6Z"/>
            <path class="cls-56" d="M152.68,123.86c-.26-19.56-29.27-2.53-41.38,30.92-12.11,33.44-5.85,38.05-5.85,38.05l3.04-5.38s-2.99-31.14,18.11-54.04c21.1-22.92,21.88-2.57,21.88-2.57l4.2-6.98Z"/>
            <path class="cls-55" d="M82.71,225.21c31.48-12.41,84.3-99.7,93.67-117.39,9.37-17.68,22.43,17.32-13.74,70.24-36.17,52.94-58.92,49.76-58.92,49.76,0,0,49.28-28.43,67.63-71.1,18.35-42.65,10.58-49.7,6.95-47.74-3.62,1.97-16.49,35.67-46.85,74.28-30.36,38.62-48.74,41.95-48.74,41.95Z"/>
          </g>
          <path class="cls-65" d="M176.71,204.12c-9.04,11.36-60.62,1.6-103.3-26.8C30.72,148.91,1.79,105.11,8.79,92.39c0,0-6.11,14.94-6.83,19.13-4.79,28.08,40.85,66.46,61.68,80.49,20.96,14.11,72,41.05,99.43,23.72,3.6-2.27,13.63-11.6,13.63-11.6Z"/>
          <path class="cls-13" d="M176.71,204.12c.38-3.34-3.03-5.48-3.03-5.48l-2.88,3.49c-2.74,3.82-35.07,14.26-96.48-26.18C13.3,134.93,11.18,99.64,13.66,95.63l1.35-2.55s-3.29-2.33-6.21-.69c-2.92,1.65-11.12,36.08,63.91,85.99,75.03,49.94,103.62,29.07,104,25.75Z"/>
          <path class="cls-24" d="M85.72,11.51c-10.13,12.03-13.49,20.67-12.41,23.54,1.08,2.87,7.87-1.22,7.87-1.22,0,0-6.71,5.58-7.42,7.02-.72,1.44,8.62,24.56,16.9,31.23,8.28,6.66,10.48,3.88,10.48,3.88,0,0,1.76,10.16,27.75,26.72,25.98,16.53,30.23,9.49,30.23,9.49,0,0,9.8,10.8,24.66,12.12,14.87,1.3,18.58-7.72,18.58-7.72,0,0-2.89,6.6,1.55,8.18,6.8,2.44,13.37-6.34,13.37-6.34l-.43,2.44s-24.95,24.61-90.73-17.45C60.35,61.33,68.61,24.3,70.09,23.19c1.48-1.11,15.63-11.68,15.63-11.68Z"/>
          <path class="cls-63" d="M215.03,138.1c-5.96,4.76-13.42,6.76-21.57,6.89,0,0-.02,0-.07-.02-33.41.52-78.28-30.32-78.28-30.32,0,0-25.25-16.27-43.35-37.36-.32-.37-.63-.73-.95-1.11-.82-.97-1.6-1.92-2.37-2.9-.42-.54-.84-1.07-1.24-1.61-.01-.01-.03-.01-.03-.03-9.75-12.83-16.03-26.97-12.28-40.09,1.17-4.08,11.32-10.92,11.32-10.92-7.07,12.67,18.64,54.33,57.92,80.46,39.28,26.14,87.64,33.76,96.59,22.35,0,0-2.37,12.01-5.69,14.67Z"/>
          <path class="cls-38" d="M123.43,102.15c-26.55-17.66-41.56-33.54-49.81-46.51-13.22-20.75-9.14-33.98-7.4-35.03,2.83-1.72,6.32.73,6.32.73l-2.45,1.84c-2.48,4-2.25,41.39,54.9,77.59,61.68,39.02,89.13,23.9,91.86,20.07l.74-2.96s.95.59,1.82,1.62c.81.97,1.55,2.33,1.31,3.92-.48,3.26-28.25,24.67-97.29-21.28Z"/>
          <path class="cls-12" d="M105.71,89.34c1.09.69,1.96,1.39,2.63,2.09-.87-.69-1.73-1.37-2.63-2.09Z"/>
          <path class="cls-9" d="M159.68,122.5s-1.16-.4-3.35-1.3c1.67.4,3.35,1.3,3.35,1.3Z"/>
          <path class="cls-10" d="M193.39,144.97c-33.41.52-78.28-30.32-78.28-30.32,0,0-25.25-16.27-43.35-37.36,13.1,15.06,30.32,27.52,32.96,26.13,2.7-1.4,8.77-6.69,3.61-11.99,23.55,18.5,40.99,26.84,47.98,29.77-.69-.18-1.38-.26-1.94-.16-1.9.36-11.72,6.02,1.09,13.45,12.41,7.22,36.43,10.31,37.93,10.48Z"/>
          <path class="cls-6" d="M92.06,76.12c-10.15-6.54-14.05,3.72-13.81,6.1.25,2.4,22.69,26.94,61.22,46.12,38.53,19.17,45.66,16.77,49.9,13.94,4.24-2.85,3.91-10.24,3.91-10.24,0,0-16.44,1.39-56.67-21.96-40.23-23.36-44.56-33.96-44.56-33.96Z"/>
          <path class="cls-37" d="M66.22,20.61c-4.14,7.8.18,20.44.84,22.11.65,1.69-9.39,13.28-9.39,13.28,0,0-5.27-16.33-3.11-23.14,2.16-6.82,11.66-12.25,11.66-12.25Z"/>
          <path class="cls-33" d="M7.34,94.57c-1.01,13.13,4.22,22.9,5.06,24.54.84,1.63-4.87,15.89-4.87,15.89,0,0-6.94-13.91-5.56-23.48,1.37-9.56,5.37-16.95,5.37-16.95Z"/>
          <path class="cls-17" d="M7.7,104.52s3.3,36.93,67.59,76.88c64.29,39.94,93.59,29.5,99.27,25.64,5.68-3.88-.89-8.4-.89-8.4,0,0,4.36,2.46-1.87,7.52-13.27,10.78-119.19-8.29-164.1-101.64Z"/>
          <path class="cls-14" d="M123.43,102.15c-26.55-17.66-41.56-33.54-49.81-46.51,10.34,13.06,33.66,38.5,70.71,57.57,51.98,26.75,76.18,14.06,75.08,6.29.81.97,1.55,2.33,1.31,3.92-.48,3.26-28.25,24.67-97.29-21.28Z"/>
          <path class="cls-32" d="M136.62,110.08c7.44,5.8-5.52,14.31-5.52,14.31l5.58,3.03s1.12-13.1,10.05-11.52c0,0-4.54-2.2-10.12-5.82Z"/>
          <path class="cls-11" d="M88.4,184.67c-7.04-.19.33,4.38.33,4.38,0,0,15.59,8.91,22.63,11.09,7.04,2.17,7.16-1.12,7.16-1.12,0,0-12.68-4.11-30.12-14.35Z"/>
          <path class="cls-8" d="M132.58,108.24c-2.94-2.32.03-2.82.03-2.82,0,0,11.29,6.84,18.52,10.13,7.23,3.27,8.77,3.45,8.77,3.45,0,0,.84,3.62-9.72-1.21-9.99-4.57-17.6-9.56-17.6-9.56Z"/>
          <path class="cls-6" d="M65.64,176.64c-11.5-5.49-11.84,8.26-11.04,8.87.8.6,32.38,22.02,58.9,29.92,26.52,7.91,31.44-1.08,31.61-2.39.17-1.33-40.74-8.95-79.48-36.4Z"/>
          <path class="cls-31" d="M87.52,188.81c4.57,2.33-6.28,13.72-6.28,13.72l6.75,3.2s-3.54-12.32,9.34-12.1l-9.81-4.82Z"/>
          <path class="cls-23" d="M16.89,127.16c1.62,2.57-5.31,12.01-5.6,13.15-.29,1.13,13.37,17.92,15.9,18.65,2.53.73,6.83-8.25,6.83-8.25,0,0-13.56-12.97-17.14-23.55Z"/>
          <path class="cls-25" d="M68.3,45.78c-2.52-.73-7.96,10.4-7.12,13.19.84,2.76,12.9,20.29,14.81,20.48,1.91.2,8.34-8.68,8.34-8.68,0,0-12.13-12.04-16.03-24.99Z"/>
          <path class="cls-4" d="M91.28,100.23c-9.93-3.4-33.57,51.53-33.73,58.24-.16,6.7,28.75-10.32,41.72-28.2,12.97-17.88-7.99-30.04-7.99-30.04Z"/>
          <path class="cls-4" d="M113.36,116.1c-1.41-.22-7.13,18.46-21.09,31.88-13.96,13.44-18.76,17.4-18.87,19.74-.11,2.31,7.53,8.44,11.91,5.44,4.38-2.98,13.49-28.31,23.78-42.2,10.29-13.9,4.27-14.86,4.27-14.86Z"/>
          <path class="cls-4" d="M123.72,122.28c-5.8-.27-26.69,37.23-29.61,50.6-2.91,13.36,8.44,7.79,9.33,7.4.89-.37,3.61-24.04,14.38-40.89,10.77-16.83,5.89-17.11,5.89-17.11Z"/>
          <path class="cls-4" d="M115.04,167.67c1.26-13.04,15.98-38.39,25.64-36.01,0,0-7.81,31.14-25.64,36.01Z"/>
          <path class="cls-34" d="M53.11,38.77s-.96,8.15-3.11,11.92c-2.15,3.76-21.8,29.78-27.34,40.26-5.54,10.48-7.4,16.79-7.4,16.79,0,0-2.77-12.07,7.72-30.92,10.49-18.84,30.12-38.05,30.12-38.05Z"/>
          <path class="cls-20" d="M144.49,221.25l-12.24,4.99-.12.06h-.01c-.67-.38-19.59-10.89-30.08-12.59-10.28-1.65-22.33,7.12-23.24,7.79.67-.58,8.97-7.87,4.36-13.35-4.81-5.73-36.34-24.37-42.85-23.48-6.5.87,3.04,16.72,17.2,27.22,12.13,8.99,25.64,13.44,29.28,14.55-9.93-2.8-22.04-7.76-35.11-16.46-33.67-22.4-42.03-48.55-42.03-48.55-3.13-9.19-4.5-18.43-4.41-27.63l.61-1.46s17.37,33.2,57.79,59.67c40.43,26.47,80.85,29.25,80.85,29.25Z"/>
          <path class="cls-49" d="M145.42,134.98s-23.17,34.27-32.71,45.14c0,0,5.62-1.83,32.71-45.14Z"/>
          <path class="cls-49" d="M86.85,94.16s-23.57,21.74-34.76,51.71c0,0,19.65-32.47,34.76-51.71Z"/>
          <path class="cls-68" d="M104.67,21.25c-5.83-.78,12.08,21.3,16.25,23.84,4.17,2.53,9.54-.32,9.54-.32,0,0-6.6,4.11-8.98,6.82,0,0,.71-1.41-9.08-12.99-9.78-11.6-13.93-15.3-13.93-15.3,0,0,2.08-3.06,6.21-2.05Z"/>
          <path class="cls-68" d="M123.33,51.7c3.45-1.04,24.32,16.22,36.88,23.12,12.56,6.91,11.67,9.19,11.67,9.19l2.11-5.53s-4.3.61-18.78-7.83c-14.48-8.43-27.07-18.51-28.19-19.96-1.12-1.46,1.5-3.89,1.5-3.89l-5.19,4.91Z"/>
          <path class="cls-68" d="M174.52,80.45c1.95,2.45,19.03,9.58,25.43,11.37,6.39,1.79,4.97-2.31,4.97-2.31l1.61,4.78s-24.72-7.49-32.19-11.03l.19-2.82Z"/>
          <path class="cls-68" d="M206.46,91.44c.05.1,5.3,2.31,10.07,2.49,4.78.19,6.98-2.95,6.98-2.95,0,0-2.45,4.09-7.69,3.67-5.23-.43-8.11.16-8.11.16,0,0-.25-2.22-1.24-3.37Z"/>
          <path class="cls-5" d="M163.41,31.79c-1.34-.93-13.41,20.45-13.41,20.45,0,0,16.85,13.13,26.58,15.04,9.72,1.93,17.34-13.45,17.34-13.45,0,0-23.48-19.96-30.5-22.04Z"/>
          <path class="cls-5" d="M138.04,19.52c-5.14-1.61-10.32,10.2-11.44,12.65-1.13,2.46,12.07,13.02,17.32,14.84,5.25,1.81,13.41-11.9,14.34-16.9.93-4.98-20.22-10.59-20.22-10.59Z"/>
          <path class="cls-68" d="M132.86,13.73c.76,2.38,11.98,5.31,30.59,15.78,18.62,10.47,32.21,24.14,32.21,24.14l-1.11,1.57s-10-10.6-19.96-17.83c-9.97-7.22-13.36-7.24-13.36-7.24,0,0-6.47-4.46-16.28-9.67-9.81-5.21-12.03-4.65-12.03-4.65l-.06-2.1Z"/>
          <path class="cls-28" d="M174.33,83.26c-1.31-.49-4.76,9.59-4.76,9.59,0,0,1.53-4.63,6.77-5.9,5.23-1.26,11.38,4.27,19.13,5.29,7.75,1.02,10.46,5,10.46,5l.59-2.95s-20.19-4.34-32.19-11.03Z"/>
          <path class="cls-27" d="M123.67,51.92c-1.36-.3-3.35,2.75-3.35,2.75,0,0,2.72-1.51,8.74.82,6.01,2.35,6.57,2.72,6.57,2.72,0,0-9.36-6.42-11.95-6.3Z"/>
          <path class="cls-2" d="M140.35,143.9s1.14,15.91,5.45,20.75c0,0-10.5-7.87-5.45-20.75Z"/>
          <path class="cls-3" d="M135.99,156.64s2.17,10.22,7.71,15.63c0,0-7.43-1.67-7.71-15.63Z"/>
          <path class="cls-49" d="M140.35,143.9s-2.22,11.17,5.45,20.75c0,0-10.56-6.19-5.45-20.75Z"/>
          <path class="cls-49" d="M135.99,156.64s-.23,7.76,2.46,11.6c2.68,3.84,4.85,3.75,4.85,3.75,0,0-6.71-1.84-7.31-15.35Z"/>
          <path class="cls-61" d="M72.93,114.55s-2.78.34-4.87,3.34c-2.09,3-.75,6.1-.75,6.1l5.62-9.44Z"/>
          <path class="cls-35" d="M34.77,81.9c9.8-14.19,10.45,8.47,4.1,31.5-6.35,23.03-20.06,8.42-19.87,4.37.19-4.06,9.68-28.3,15.77-35.87Z"/>
          <path class="cls-29" d="M43.57,112.07c-2.46-2.2-10.45,15.91-6.25,24.69,4.21,8.79,16.67-12.89,6.25-24.69Z"/>
          <path class="cls-7" d="M12.78,148.41c1.07-1.62,13.89,14.43,16.88,29.34,2.99,14.92-11.44-.86-15.08-6.98-3.64-6.12-1.8-22.35-1.8-22.35Z"/>
          <path class="cls-36" d="M104.24,110.63c-13.38-8.9-22.62,14.99-16.25,24.43,6.37,9.43,21.51-19,16.25-24.43Z"/>
          <path class="cls-30" d="M86.07,106.19c-2.55-1.59-7.9,14.4-6.73,17.09,1.17,2.7,12.67-13.42,6.73-17.09Z"/>
          <path class="cls-52" d="M160.86,29.93c1.03-1.72.69-4.04.69-4.04,0,0,.77,2.92-.19,4.54-.95,1.63-2.07,2.95-2.07,2.95l1.57-3.45Z"/>
          <path class="cls-48" d="M87.77,188.42c5.65,1.76,3.76-1.06,5.29-.76,1.53.31,4.52,6.14,4.52,6.14,0,0-7.17-3.18-9.82-5.38Z"/>
          <path class="cls-48" d="M135.76,110.2c4.01-1.28,8.17.66,9.79,3.89,1.62,3.24-4.19.23-9.79-3.89Z"/>
          <g>
            <path class="cls-51" d="M104.95,1.61c5.03,0,11.57,1.37,19.11,3.93h.02s.04,0,.06.01h.01c.76.26,1.53.54,2.31.81.07.04.13.09.19.14.68.47,1.3,1,1.85,1.5.02,0,.03.01.05.03.87.77,1.54,1.5,1.85,1.82.13.14.19.23.19.23,0,0,1.25-1.26,2-1.26.07,0,.14,0,.2.03,9.38,3.91,19.83,9.3,30.58,15.93h0s0,0,0,0c2.68,1.66,5.39,3.38,8.1,5.18,9.93,6.6,18.9,13.5,26.54,20.2h0v.03c.05.03.07.12.11.19.02.06.06.08.08.15.02.08.01.19.02.3,0,.1.02.19.01.3,0,.08-.02.15-.03.24-.14,1.37-.88,3.41-.88,3.41,2.4.24,5.96.65,7.04,1.23h.01c15.54,14.99,23.52,28.37,19.3,34.75h0s0,0,0,.01h0c-1.17,7.36-2.79,15.08-4.89,22.89-.54,2-1.12,4.04-1.72,6.07l-.19,1.05.72-2.86s.95.59,1.82,1.62c.81.97,1.55,2.33,1.31,3.92,0,0-2.37,12.01-5.69,14.67-1.74,1.39-3.63,2.53-5.61,3.47,0,.02-.01.03-.02.05.51-.23.77-.39.77-.39l-1.56,2.35c-.2.47-.41.95-.61,1.43-.21.49-.43,1.01-.65,1.5-.98,2.26-1.98,4.52-3.04,6.76-.05.12-.1.24-.15.34-1.1,2.32-2.25,4.61-3.43,6.88-.26.49-.51.99-.78,1.47-1.18,2.26-2.4,4.47-3.67,6.66-.16.29-.34.56-.5.85-1.18,2.02-2.4,4.01-3.65,5.96-.25.38-.49.78-.74,1.17-1.36,2.09-2.77,4.16-4.21,6.19-.29.4-.57.78-.86,1.18-1.41,1.94-2.85,3.85-4.33,5.71-.12.14-.23.29-.34.44-1.56,1.94-3.18,3.83-4.82,5.67-.35.38-.7.77-1.05,1.15-.59.65-1.18,1.3-1.78,1.92.02.01.03.03.05.05.34.25.85.69,1.36,1.3,1.44,1.66,2.76,4.37-.84,6.83-.59.39-1.45.86-2.57,1.35-3.11,2.77-6.96,6.1-8.92,7.33-5.4,3.42-11.72,5.09-18.54,5.51-.01.02-.02.02-.04.02-.31.15-.62.27-.93.43-1.28.62-2.57,1.19-3.88,1.76-.56.25-1.11.49-1.67.72-1.84.74-3.7,1.42-5.6,2.04-.05.01-.11.04-.16.05l-.12.06h-.01c-.45.13-.91.25-1.37.38-1.03.3-2.06.62-3.11.89-.86.23-1.73.4-2.6.59-.74.18-1.48.37-2.22.51-1.14.22-2.29.4-3.44.56-.52.08-1.03.18-1.55.25-1.69.23-3.4.4-5.12.51,0,0-.1,0-.24.01-.04.02-.04.02-.1.02-.19,0-.47.01-.83.03h-.14c-.3,0-.66.01-1.06.01-.64,0-1.4-.01-2.27-.04-.08,0-.16,0-.24-.02-.6-.02-1.24-.05-1.94-.1-.63.13-.99.19-.99.19.23-.06.45-.15.68-.21h-.09c-.11-.01-.23-.03-.34-.03-1.75-.13-3.77-.36-6.04-.71-.19-.03-.36-.04-.56-.08-1.09-.17-2.23-.37-3.43-.61-.24-.05-.48-.1-.72-.15-1.22-.25-2.48-.52-3.8-.84-.1-.03-.21-.06-.32-.09-.82-.19-1.66-.41-2.53-.65h-.03c-.11-.03-.42-.13-.92-.27-.08-.04-.16-.05-.24-.08-.72-.19-1.47-.43-2.21-.66-.54-.17-1.07-.33-1.62-.51,0,.01-.01.01-.01.01,0,0,0-.01,0-.01-.26-.08-.54-.18-.81-.27-.68-.22-1.36-.45-2.05-.7-1-.35-2.03-.74-3.06-1.14-.42.38-.84.78-1.26,1.15,0,0,.44-.43,1.19-1.18-.02-.01-.05-.01-.08-.03-.53-.21-1.04-.39-1.58-.61-1.63-.65-3.28-1.37-4.98-2.14-.42-.19-.85-.41-1.28-.61-1.33-.62-2.68-1.28-4.04-1.99-.59-.29-1.19-.62-1.79-.95-1.29-.69-2.6-1.41-3.92-2.18-.57-.32-1.14-.66-1.72-1-1.87-1.13-3.76-2.28-5.67-3.57-8.08-5.37-14.66-10.96-20.06-16.35-.29.71-.44,1.09-.44,1.09.12-.37.27-.76.4-1.13-8.63-8.62-14.16-16.75-17.49-22.68.05.48.06.93.11,1.41,0,0-.19-.71-.44-2.02-2.99-5.43-4.11-8.87-4.11-8.87-.72-2.14-1.33-4.26-1.87-6.39-.17-.69-.3-1.37-.45-2.05-.33-1.47-.64-2.95-.89-4.42-.13-.76-.24-1.53-.34-2.3-.2-1.41-.36-2.84-.49-4.27-.07-.74-.13-1.49-.18-2.22-.09-1.54-.13-3.05-.14-4.58,0-.47-.04-.93-.04-1.4,0-.19.02-.39.02-.59.01-.67.05-1.35.08-2.01-3.03-6.81-4.42-13.5-3.37-19.68,1.37-9.56,5.37-16.95,5.37-16.95-.04.54-.05,1.06-.08,1.59.36-2.18,1.02-3.48,1.53-3.77.77-.43,1.55-.59,2.29-.59,1.59,0,2.99.73,3.59,1.09.1-.23.21-.45.31-.66.5-1.13,1.02-2.24,1.55-3.35.28-.59.56-1.19.86-1.78.6-1.21,1.24-2.42,1.88-3.65.24-.45.47-.91.72-1.36.96-1.77,1.96-3.52,3-5.26h0c4.93-8.84,11.85-17.74,17.83-24.74.05-.06.11-.13.17-.2.24-.29.49-.57.73-.85.5-.58.97-1.11,1.45-1.65,1.01-1.16,2.03-2.3,3.06-3.43.15-.15.29-.3.44-.46.02-.03.04-.06.06-.08-.03.03-.07.07-.09.08l.38-.41c.66-.71,1.32-1.42,1.99-2.13.16-.17.32-.33.48-.49,1.02-1.08,1.85-1.92,2.46-2.55.06-.06.12-.12.18-.18.62-.62.98-.98.98-.98h0s.01,0,.01,0c.24-.24.49-.49.73-.73.04-.91.13-1.82.26-2.73.08-.9.21-1.74.43-2.45.02-.07.05-.13.08-.19.09-.37.16-.76.27-1.12.37-1.28,1.62-2.85,3.17-4.37,3.53-3.91,8.15-6.56,8.15-6.56h0c.73-.44,1.51-.59,2.25-.59,2.15,0,4.06,1.33,4.06,1.33l-2.26,1.7c.43-.31,1.31-.97,2.46-1.83,1.12-.89,2.23-1.77,3.35-2.64.41-.31.82-.62,1.23-.93,1.06-.81,2.13-1.61,3.2-2.4.47-.34.94-.69,1.41-1.02,1.03-.75,2.05-1.48,3.07-2.19.21-.14.43-.3.64-.45.02-.01.08-.06.08-.06v.02c.23-.17.47-.33.7-.49,1.07-.73,2.14-1.46,3.21-2.16.41-.27.81-.54,1.22-.81,1.46-.96,2.92-1.89,4.38-2.78,0,0,0,0,0-.02,1.66-2.49,5.03-3.67,9.71-3.67h0ZM70.09,23.2h0s0-.01,0-.01h0ZM216.64,121.1c.07-.08.14-.16.19-.22-.02.03-.08.07-.16.14,0,.03-.01.06-.02.08h0ZM170.14,202.74c.27-.21.49-.41.63-.59-.03.03-.06.05-.09.08-.17.16-.35.32-.52.49-.01.02-.02.02-.02.02h0ZM198.02,50.15s0,0,.01,0c0,0,0,0,0,0h0s0,0,0,0h0ZM104.95,0h0c-5.21,0-8.86,1.37-10.85,4.09-1.37.85-2.75,1.73-4.13,2.62l-.75.51-.47.31c-1.08.71-2.16,1.43-3.24,2.18l-.31.21-.32.23s-.09.05-.13.08l-.4.29-.28.2c-1.03.72-2.06,1.45-3.1,2.2l-1.42,1.03c-1.07.8-2.15,1.61-3.22,2.42l-.4.3-.84.64c-.9.69-1.8,1.41-2.7,2.12-.92-.47-2.35-1.02-3.93-1.02-1.13,0-2.17.3-3.09.84l.07.12c-3.11,1.23-8.53,6.68-8.59,6.73-1.94,1.92-3.11,3.58-3.52,5.01-.08.27-.14.54-.2.8l-.06.29c-.03.07-.05.12-.07.19-.24.76-.4,1.68-.5,2.8-.1.67-.18,1.4-.23,2.14l-.03.03-.17.17s-.07.06-.1.09c0,0-.37.36-1,1l-.18.19c-.62.62-1.46,1.49-2.49,2.57l-.48.49c-.68.71-1.34,1.43-2.01,2.16l-.36.38c-.05.05-.1.11-.14.17l-.02.02-.26.29c-1.04,1.13-2.07,2.27-3.08,3.44-.49.55-.96,1.08-1.46,1.66l-.75.87-.17.19c-7.77,9.09-13.83,17.49-18,24.99-1,1.69-2.02,3.46-3.01,5.28-.15.28-.3.57-.45.86l-.28.52c-.65,1.23-1.29,2.46-1.9,3.68-.24.49-.47.98-.7,1.46l-.17.34c-.4.85-.8,1.69-1.18,2.54-.8-.3-1.76-.54-2.8-.54-1.11,0-2.15.27-3.09.8-.76.43-1.29,1.34-1.66,2.33-.17.13-.31.29-.42.49-.17.32-4.16,7.74-5.55,17.48-1.02,5.99.1,12.8,3.34,20.21v.21c-.03.49-.05,1-.06,1.48v.23s-.02.38-.02.38c0,.27.01.56.02.84.01.19.02.38.02.58.01,1.72.06,3.23.14,4.65.04.7.11,1.4.17,2.1v.18c.14,1.43.31,2.89.51,4.35.11.77.22,1.55.35,2.34.23,1.34.52,2.77.91,4.5l.15.71c.1.45.2.92.31,1.37.6,2.38,1.23,4.5,1.91,6.52.04.12,1.16,3.54,4.1,8.92.24,1.21.42,1.87.42,1.87.17.63.7,1.09,1.33,1.18,3.16,5.26,8.21,12.44,15.75,20.1l-.07.18c-.28.83.15,1.72.98,2.03.18.07.37.1.56.1.25,0,.49-.04.71-.16,5.69,5.51,12.04,10.61,18.9,15.17,1.75,1.17,3.58,2.31,5.74,3.61.42.25.84.49,1.26.73l.48.27c1.34.78,2.66,1.51,3.96,2.21.61.33,1.21.65,1.81.96,1.38.71,2.75,1.37,4.09,2l.52.26c.26.12.52.25.78.37,1.53.69,3.06,1.35,4.59,1.98-.18.55-.07,1.17.35,1.61.32.34.75.52,1.18.52.38,0,.76-.14,1.07-.4.19-.16.37-.34.55-.51.73.27,1.45.54,2.16.8.7.25,1.39.48,2.08.71l.34.11.34.12c.09.03.17.07.26.08.34.12.68.21,1.02.32l.52.16.32.11c.65.19,1.29.38,1.93.57l.24.08c.47.12.76.22.87.25.06.02.12.04.19.05.84.24,1.66.44,2.48.64l.32.1c1.34.32,2.62.59,3.87.85l.23.04.51.11c1.21.25,2.38.44,3.48.62l.4.07h.17c1.72.28,3.41.49,5.03.65.28.22.63.34,1,.34.08,0,.16,0,.25-.03,0,0,.3-.03.85-.14.63.05,1.21.08,1.76.1h.25c.9.03,1.68.05,2.33.05.42,0,.79,0,1.1-.01.53,0,.82-.01,1.03-.03l.37-.02c1.71-.11,3.46-.29,5.21-.54.33-.03.64-.08.96-.14l.62-.1.21-.04c1.11-.17,2.21-.33,3.3-.54.52-.1,1.02-.22,1.53-.34l.74-.16.68-.15c.66-.15,1.32-.29,1.97-.47.94-.23,1.86-.51,2.78-.8l.38-.11.56-.15c.22-.07.44-.13.66-.19.09-.03.19-.04.28-.07l.21-.08c1.88-.62,3.81-1.31,5.71-2.08.38-.14.75-.32,1.13-.47l.57-.26c1.33-.56,2.64-1.15,3.94-1.79.13-.05.25-.1.38-.17.1-.04.2-.08.31-.14,7.36-.48,13.74-2.4,18.99-5.73,1.64-1.03,4.65-3.5,8.95-7.32,1.02-.45,1.91-.93,2.59-1.39,1.77-1.21,2.77-2.64,2.98-4.26.21-1.63-.43-3.34-1.84-4.96-.11-.14-.22-.27-.34-.39.23-.25.45-.5.68-.74.36-.39.71-.78,1.07-1.18,1.82-2.04,3.42-3.91,4.87-5.73l.2-.25.14-.18c1.41-1.78,2.85-3.66,4.38-5.77l.28-.38.58-.82c1.47-2.05,2.9-4.15,4.25-6.24l.46-.72.29-.45c1.29-2.03,2.53-4.05,3.68-6.02l.22-.37.29-.49c1.2-2.07,2.41-4.28,3.7-6.7l.78-1.5c1.32-2.55,2.45-4.81,3.45-6.92l.09-.19c1.04-2.22,2.04-4.46,3.12-6.95l.18-.41.47-1.11.24-.56.31-.73,1.27-1.92c1.74-.91,3.29-1.92,4.73-3.07,3.6-2.88,5.85-13.52,6.27-15.62.28-1.84-.3-3.63-1.65-5.26-.41-.49-.84-.9-1.2-1.22.31-1.07.6-2.14.89-3.2,2.03-7.57,3.67-15.23,4.88-22.75,4.28-6.92-2.87-20.23-19.72-36.48-.07-.07-.15-.14-.23-.18-.48-.27-1.4-.78-5.81-1.29.16-.6.3-1.26.36-1.85.02-.11.03-.21.03-.27.01-.18,0-.31,0-.44,0-.27-.02-.46-.05-.61-.03-.15-.11-.35-.2-.52-.02-.05-.05-.14-.11-.23-.11-.22-.26-.41-.45-.55-8-7.02-16.97-13.83-26.66-20.29-2.44-1.62-5.07-3.29-8.02-5.11-.08-.07-.17-.12-.26-.16-10.53-6.48-21.14-12-30.67-15.97-.28-.11-.54-.16-.82-.16-.64,0-1.29.3-1.86.66-.32-.32-.7-.67-1.11-1.04-.02-.01-.03-.03-.05-.04-.03-.01-.06-.05-.09-.07-.65-.59-1.27-1.06-1.87-1.48-.09-.08-.18-.14-.27-.21-.11-.07-.22-.13-.35-.17-.76-.29-1.52-.55-2.26-.8-.09-.03-.18-.07-.27-.08-7.79-2.64-14.36-3.97-19.52-3.97h0Z"/>
            <path class="cls-51" d="M46.64,45.52l-.1.11s.03-.06.1-.11h0ZM46.56,43.92c-.37,0-.75.15-1.05.44-.03.03-.17.16-.2.21-.57.66-.51,1.65.14,2.24.31.28.7.41,1.09.41.42,0,.85-.17,1.16-.49.61-.64.64-1.7.02-2.31-.33-.32-.74-.5-1.16-.5h0Z"/>
          </g>
        </g>
      </g>
    </g>
  </g>
</svg>