<?xml version="1.0" encoding="UTF-8"?>
<svg xmlns="http://www.w3.org/2000/svg" xmlns:xlink="http://www.w3.org/1999/xlink" viewBox="0 0 190.1 293.66">
  <defs>
    <style>
      .cls-1 {
        fill: #ffb060;
      }

      .cls-1, .cls-2, .cls-3, .cls-4, .cls-5, .cls-6 {
        opacity: .2;
      }

      .cls-1, .cls-3 {
        mix-blend-mode: soft-light;
      }

      .cls-7 {
        fill: url(#_ÂÁ_Ï_ÌÌ_È_ËÂÌÚ_408);
      }

      .cls-8 {
        fill: url(#_ÂÁ_Ï_ÌÌ_È_ËÂÌÚ_473);
      }

      .cls-9 {
        fill: url(#_ÂÁ_Ï_ÌÌ_È_ËÂÌÚ_479);
      }

      .cls-10 {
        fill: url(#_ÂÁ_Ï_ÌÌ_È_ËÂÌÚ_357);
      }

      .cls-11 {
        fill: url(#_ÂÁ_Ï_ÌÌ_È_ËÂÌÚ_594);
      }

      .cls-12 {
        fill: url(#_ÂÁ_Ï_ÌÌ_È_ËÂÌÚ_968);
      }

      .cls-13 {
        fill: url(#_ÂÁ_Ï_ÌÌ_È_ËÂÌÚ_851);
      }

      .cls-14 {
        fill: url(#_ÂÁ_Ï_ÌÌ_È_ËÂÌÚ_900);
      }

      .cls-15 {
        fill: url(#_ÂÁ_Ï_ÌÌ_È_ËÂÌÚ_506-3);
      }

      .cls-15, .cls-16, .cls-17, .cls-18, .cls-19, .cls-20, .cls-21 {
        opacity: .8;
      }

      .cls-15, .cls-16, .cls-17, .cls-18, .cls-19, .cls-20, .cls-21, .cls-22 {
        mix-blend-mode: multiply;
      }

      .cls-16 {
        fill: url(#_ÂÁ_Ï_ÌÌ_È_ËÂÌÚ_506-2);
      }

      .cls-17 {
        fill: url(#_ÂÁ_Ï_ÌÌ_È_ËÂÌÚ_506-4);
      }

      .cls-23 {
        fill: url(#_ÂÁ_Ï_ÌÌ_È_ËÂÌÚ_408-2);
      }

      .cls-18 {
        fill: url(#_ÂÁ_Ï_ÌÌ_È_ËÂÌÚ_172);
      }

      .cls-19 {
        fill: url(#_ÂÁ_Ï_ÌÌ_È_ËÂÌÚ_506);
      }

      .cls-20 {
        fill: url(#_ÂÁ_Ï_ÌÌ_È_ËÂÌÚ_64);
      }

      .cls-2 {
        fill: url(#_ÂÁ_Ï_ÌÌ_È_ËÂÌÚ_197-2);
      }

      .cls-24 {
        fill: url(#_ÂÁ_Ï_ÌÌ_È_ËÂÌÚ_946-2);
      }

      .cls-24, .cls-25, .cls-26, .cls-27, .cls-28 {
        opacity: .5;
      }

      .cls-29 {
        isolation: isolate;
      }

      .cls-3 {
        fill: #c1bbd1;
      }

      .cls-30 {
        fill: #fff;
      }

      .cls-31 {
        fill: #681e26;
      }

      .cls-21 {
        fill: url(#_ÂÁ_Ï_ÌÌ_È_ËÂÌÚ_64-2);
      }

      .cls-32 {
        fill: #7870a5;
      }

      .cls-25 {
        fill: url(#_ÂÁ_Ï_ÌÌ_È_ËÂÌÚ_62-2);
      }

      .cls-25, .cls-26, .cls-4, .cls-6, .cls-28 {
        mix-blend-mode: screen;
      }

      .cls-26 {
        fill: url(#_ÂÁ_Ï_ÌÌ_È_ËÂÌÚ_748);
      }

      .cls-4 {
        fill: url(#_ÂÁ_Ï_ÌÌ_È_ËÂÌÚ_8-2);
      }

      .cls-27 {
        fill: url(#_ÂÁ_Ï_ÌÌ_È_ËÂÌÚ_946);
      }

      .cls-5 {
        fill: url(#_ÂÁ_Ï_ÌÌ_È_ËÂÌÚ_197);
      }

      .cls-22 {
        fill: url(#_ÂÁ_Ï_ÌÌ_È_ËÂÌÚ_1900);
      }

      .cls-33 {
        fill: url(#_ÂÁ_Ï_ÌÌ_È_ËÂÌÚ_1256);
      }

      .cls-6 {
        fill: url(#_ÂÁ_Ï_ÌÌ_È_ËÂÌÚ_8);
      }

      .cls-28 {
        fill: url(#_ÂÁ_Ï_ÌÌ_È_ËÂÌÚ_62);
      }
    </style>
    <linearGradient id="_ÂÁ_Ï_ÌÌ_È_ËÂÌÚ_1900" data-name="¡ÂÁ˚ÏˇÌÌ˚È „‡‰ËÂÌÚ 1900" x1="91.18" y1="293.66" x2="91.18" y2="77.44" gradientUnits="userSpaceOnUse">
      <stop offset="0" stop-color="#e7a4df"/>
      <stop offset="1" stop-color="#a12a9a"/>
    </linearGradient>
    <linearGradient id="_ÂÁ_Ï_ÌÌ_È_ËÂÌÚ_479" data-name="¡ÂÁ˚ÏˇÌÌ˚È „‡‰ËÂÌÚ 479" x1="-385.56" y1="657.76" x2="-231.37" y2="657.76" gradientTransform="translate(478.46 -415.77) rotate(8.33)" gradientUnits="userSpaceOnUse">
      <stop offset="0" stop-color="#56458a"/>
      <stop offset=".43" stop-color="#514492"/>
      <stop offset="1" stop-color="#4943a6"/>
    </linearGradient>
    <linearGradient id="_ÂÁ_Ï_ÌÌ_È_ËÂÌÚ_851" data-name="¡ÂÁ˚ÏˇÌÌ˚È „‡‰ËÂÌÚ 851" x1="-346.58" y1="725.36" x2="-253.05" y2="586.68" gradientTransform="translate(478.46 -415.77) rotate(8.33)" gradientUnits="userSpaceOnUse">
      <stop offset="0" stop-color="#21144c"/>
      <stop offset=".23" stop-color="#281c54"/>
      <stop offset=".61" stop-color="#3c336c"/>
      <stop offset=".77" stop-color="#473f79"/>
      <stop offset=".95" stop-color="#845357"/>
      <stop offset="1" stop-color="#95594f"/>
    </linearGradient>
    <linearGradient id="_ÂÁ_Ï_ÌÌ_È_ËÂÌÚ_1256" data-name="¡ÂÁ˚ÏˇÌÌ˚È „‡‰ËÂÌÚ 1256" x1="-321.28" y1="599.1" x2="-234.09" y2="599.1" gradientTransform="translate(478.46 -415.77) rotate(8.33)" gradientUnits="userSpaceOnUse">
      <stop offset="0" stop-color="#2c2055"/>
      <stop offset=".45" stop-color="#31265d"/>
      <stop offset="1" stop-color="#3b346f"/>
    </linearGradient>
    <linearGradient id="_ÂÁ_Ï_ÌÌ_È_ËÂÌÚ_900" data-name="¡ÂÁ˚ÏˇÌÌ˚È „‡‰ËÂÌÚ 900" x1="-290.76" y1="599.57" x2="-260.8" y2="566.66" gradientTransform="translate(478.46 -415.77) rotate(8.33)" gradientUnits="userSpaceOnUse">
      <stop offset="0" stop-color="#685f8c"/>
      <stop offset=".2" stop-color="#706088"/>
      <stop offset=".53" stop-color="#886380"/>
      <stop offset=".58" stop-color="#8e647f"/>
      <stop offset=".7" stop-color="#92637c"/>
      <stop offset=".82" stop-color="#a06374"/>
      <stop offset=".95" stop-color="#b66366"/>
      <stop offset="1" stop-color="#c06361"/>
    </linearGradient>
    <linearGradient id="_ÂÁ_Ï_ÌÌ_È_ËÂÌÚ_594" data-name="¡ÂÁ˚ÏˇÌÌ˚È „‡‰ËÂÌÚ 594" x1="5180.04" y1="-1542.49" x2="5180.04" y2="-1576.91" gradientTransform="translate(-548.29 5427.47) rotate(-68.3) scale(1 .86)" gradientUnits="userSpaceOnUse">
      <stop offset="0" stop-color="#42376f"/>
      <stop offset=".42" stop-color="#392f6a"/>
      <stop offset="1" stop-color="#251d5f"/>
    </linearGradient>
    <linearGradient id="_ÂÁ_Ï_ÌÌ_È_ËÂÌÚ_968" data-name="¡ÂÁ˚ÏˇÌÌ˚È „‡‰ËÂÌÚ 968" x1="-289.1" y1="572.22" x2="-222.09" y2="533.3" gradientTransform="translate(478.46 -415.77) rotate(8.33)" gradientUnits="userSpaceOnUse">
      <stop offset="0" stop-color="#831f24"/>
      <stop offset=".44" stop-color="#752716"/>
      <stop offset="1" stop-color="#38071d"/>
    </linearGradient>
    <linearGradient id="_ÂÁ_Ï_ÌÌ_È_ËÂÌÚ_64" data-name="¡ÂÁ˚ÏˇÌÌ˚È „‡‰ËÂÌÚ 64" x1="-267.13" y1="575.41" x2="-267.13" y2="537.96" gradientTransform="translate(478.46 -415.77) rotate(8.33)" gradientUnits="userSpaceOnUse">
      <stop offset="0" stop-color="#eecbff"/>
      <stop offset="1" stop-color="#9a009a"/>
    </linearGradient>
    <linearGradient id="_ÂÁ_Ï_ÌÌ_È_ËÂÌÚ_64-2" data-name="¡ÂÁ˚ÏˇÌÌ˚È „‡‰ËÂÌÚ 64" x1="-242.43" y1="552.64" x2="-242.43" y2="515.09" xlink:href="#_ÂÁ_Ï_ÌÌ_È_ËÂÌÚ_64"/>
    <linearGradient id="_ÂÁ_Ï_ÌÌ_È_ËÂÌÚ_172" data-name="¡ÂÁ˚ÏˇÌÌ˚È „‡‰ËÂÌÚ 172" x1="-255.84" y1="588.63" x2="-255.84" y2="518.5" gradientTransform="translate(478.46 -415.77) rotate(8.33)" gradientUnits="userSpaceOnUse">
      <stop offset="0" stop-color="#a12a9a"/>
      <stop offset="1" stop-color="#cc9cff"/>
    </linearGradient>
    <linearGradient id="_ÂÁ_Ï_ÌÌ_È_ËÂÌÚ_506" data-name="¡ÂÁ˚ÏˇÌÌ˚È „‡‰ËÂÌÚ 506" x1="-383.44" y1="655.07" x2="-218.65" y2="655.07" gradientTransform="translate(478.46 -415.77) rotate(8.33)" gradientUnits="userSpaceOnUse">
      <stop offset="0" stop-color="#4a4f88"/>
      <stop offset="1" stop-color="#b5a4ca"/>
    </linearGradient>
    <linearGradient id="_ÂÁ_Ï_ÌÌ_È_ËÂÌÚ_8" data-name="¡ÂÁ˚ÏˇÌÌ˚È „‡‰ËÂÌÚ 8" x1="-319.87" y1="739.67" x2="-319.87" y2="622.97" gradientTransform="translate(478.46 -415.77) rotate(8.33)" gradientUnits="userSpaceOnUse">
      <stop offset="0" stop-color="#b147fb"/>
      <stop offset="1" stop-color="#000"/>
    </linearGradient>
    <linearGradient id="_ÂÁ_Ï_ÌÌ_È_ËÂÌÚ_506-2" data-name="¡ÂÁ˚ÏˇÌÌ˚È „‡‰ËÂÌÚ 506" x1="-329.78" y1="602.94" x2="-239.74" y2="602.94" xlink:href="#_ÂÁ_Ï_ÌÌ_È_ËÂÌÚ_506"/>
    <linearGradient id="_ÂÁ_Ï_ÌÌ_È_ËÂÌÚ_197" data-name="¡ÂÁ˚ÏˇÌÌ˚È „‡‰ËÂÌÚ 197" x1="-312.01" y1="673.89" x2="-275.09" y2="673.89" gradientTransform="translate(478.46 -415.77) rotate(8.33)" gradientUnits="userSpaceOnUse">
      <stop offset="0" stop-color="#833b24"/>
      <stop offset="1" stop-color="#63540e"/>
    </linearGradient>
    <linearGradient id="_ÂÁ_Ï_ÌÌ_È_ËÂÌÚ_197-2" data-name="¡ÂÁ˚ÏˇÌÌ˚È „‡‰ËÂÌÚ 197" x1="-332.7" y1="677.69" x2="-307.05" y2="677.69" xlink:href="#_ÂÁ_Ï_ÌÌ_È_ËÂÌÚ_197"/>
    <linearGradient id="_ÂÁ_Ï_ÌÌ_È_ËÂÌÚ_506-3" data-name="¡ÂÁ˚ÏˇÌÌ˚È „‡‰ËÂÌÚ 506" x1="-359.09" y1="712.53" x2="-254" y2="712.53" xlink:href="#_ÂÁ_Ï_ÌÌ_È_ËÂÌÚ_506"/>
    <linearGradient id="_ÂÁ_Ï_ÌÌ_È_ËÂÌÚ_946" data-name="¡ÂÁ˚ÏˇÌÌ˚È „‡‰ËÂÌÚ 946" x1="-234.11" y1="648.83" x2="-234.11" y2="624.54" gradientTransform="translate(478.46 -415.77) rotate(8.33)" gradientUnits="userSpaceOnUse">
      <stop offset="0" stop-color="#833b68"/>
      <stop offset="1" stop-color="#bd6129"/>
    </linearGradient>
    <linearGradient id="_ÂÁ_Ï_ÌÌ_È_ËÂÌÚ_946-2" data-name="¡ÂÁ˚ÏˇÌÌ˚È „‡‰ËÂÌÚ 946" x1="-229.96" y1="629.43" x2="-229.96" y2="616.29" xlink:href="#_ÂÁ_Ï_ÌÌ_È_ËÂÌÚ_946"/>
    <linearGradient id="_ÂÁ_Ï_ÌÌ_È_ËÂÌÚ_62" data-name="¡ÂÁ˚ÏˇÌÌ˚È „‡‰ËÂÌÚ 62" x1="-265.41" y1="646.35" x2="-265.41" y2="631.89" gradientTransform="translate(478.46 -415.77) rotate(8.33)" gradientUnits="userSpaceOnUse">
      <stop offset="0" stop-color="#000"/>
      <stop offset="1" stop-color="#95a1a9"/>
    </linearGradient>
    <linearGradient id="_ÂÁ_Ï_ÌÌ_È_ËÂÌÚ_748" data-name="¡ÂÁ˚ÏˇÌÌ˚È „‡‰ËÂÌÚ 748" x1="-293.05" y1="602.61" x2="-293.05" y2="582.34" gradientTransform="translate(478.46 -415.77) rotate(8.33)" gradientUnits="userSpaceOnUse">
      <stop offset="0" stop-color="#95a1a9"/>
      <stop offset="1" stop-color="#000"/>
    </linearGradient>
    <linearGradient id="_ÂÁ_Ï_ÌÌ_È_ËÂÌÚ_62-2" data-name="¡ÂÁ˚ÏˇÌÌ˚È „‡‰ËÂÌÚ 62" x1="-287.47" y1="622.97" x2="-287.47" y2="598.48" xlink:href="#_ÂÁ_Ï_ÌÌ_È_ËÂÌÚ_62"/>
    <linearGradient id="_ÂÁ_Ï_ÌÌ_È_ËÂÌÚ_8-2" data-name="¡ÂÁ˚ÏˇÌÌ˚È „‡‰ËÂÌÚ 8" x1="-320.25" y1="590.53" x2="-309.85" y2="590.53" xlink:href="#_ÂÁ_Ï_ÌÌ_È_ËÂÌÚ_8"/>
    <linearGradient id="_ÂÁ_Ï_ÌÌ_È_ËÂÌÚ_506-4" data-name="¡ÂÁ˚ÏˇÌÌ˚È „‡‰ËÂÌÚ 506" x1="-312.64" y1="672.8" x2="-275.01" y2="672.8" xlink:href="#_ÂÁ_Ï_ÌÌ_È_ËÂÌÚ_506"/>
    <linearGradient id="_ÂÁ_Ï_ÌÌ_È_ËÂÌÚ_357" data-name="¡ÂÁ˚ÏˇÌÌ˚È „‡‰ËÂÌÚ 357" x1="-245.9" y1="533.93" x2="-225" y2="521.79" gradientTransform="translate(478.46 -415.77) rotate(8.33)" gradientUnits="userSpaceOnUse">
      <stop offset="0" stop-color="#831f24"/>
      <stop offset="1" stop-color="#e53816"/>
    </linearGradient>
    <linearGradient id="_ÂÁ_Ï_ÌÌ_È_ËÂÌÚ_408" data-name="¡ÂÁ˚ÏˇÌÌ˚È „‡‰ËÂÌÚ 408" x1="-250.51" y1="545.4" x2="-250.51" y2="461.13" gradientTransform="translate(478.46 -415.77) rotate(8.33)" gradientUnits="userSpaceOnUse">
      <stop offset="0" stop-color="#ffb800"/>
      <stop offset="1" stop-color="#e53816"/>
    </linearGradient>
    <linearGradient id="_ÂÁ_Ï_ÌÌ_È_ËÂÌÚ_408-2" data-name="¡ÂÁ˚ÏˇÌÌ˚È „‡‰ËÂÌÚ 408" x1="-230.82" y1="537.31" x2="-230.82" y2="486.57" xlink:href="#_ÂÁ_Ï_ÌÌ_È_ËÂÌÚ_408"/>
    <linearGradient id="_ÂÁ_Ï_ÌÌ_È_ËÂÌÚ_473" data-name="¡ÂÁ˚ÏˇÌÌ˚È „‡‰ËÂÌÚ 473" x1="-238.54" y1="544.79" x2="-238.54" y2="478.02" gradientTransform="translate(478.46 -415.77) rotate(8.33)" gradientUnits="userSpaceOnUse">
      <stop offset="0" stop-color="#fffe00"/>
      <stop offset="1" stop-color="#ff6016"/>
    </linearGradient>
  </defs>
  <g class="cls-29">
    <g id="Layer_2" data-name="Layer 2">
      <g id="_Layer_" data-name="&amp;lt;Layer&amp;gt;">
        <g>
          <path class="cls-22" d="M173.37,78.56c.86-.47,1.79-.84,2.77-1.12-1.58.23-3.12.51-4.64.86-8.47,1.81-15.93,4.8-22.09,8.47-2.19,1.12-4.28,2.46-5.94,4.04-.04.03-.07.08-.11.12-2.27,1.81-4.23,3.72-5.89,5.69.03-.05.05-.1.08-.16-.07.09-.11.18-.18.27-.25.31-.56.6-.8.91-5.58,6.04-10.11,11.85-13.71,17.05-.02.03-.02.04-.04.07,0,0,0,.01,0,.03-.04.06-.08.12-.12.18-8.63-3.37-17.29-5.02-24.33-3.82-3.19.56-6.03,1.69-8.39,3.51l-.44.36c-2.02,1.63-3.62,3.82-4.76,6.57h0s-.02,0-.02,0c0,0-.22.43-.56,1.13h0s-.41.79-1.04,2.06c-13.02.59-25.69,4.25-37.02,10.54-24.4,11.7-50.59,36.05-43.28,86.31,12.85,88.26,115.41,84.16,141.49,47.39,0,0,0-.01,0-.01.47-.45.95-.9,1.42-1.36.03-.03.06-.05.09-.08,1.38-1.38,2.71-2.83,4-4.31.22-.25.43-.49.65-.74,1.24-1.45,2.43-2.95,3.57-4.51.2-.26.38-.53.57-.79,1.17-1.63,2.3-3.29,3.36-5.02,1.53-2.45,2.94-5.04,4.21-7.68.71-1.47,1.37-2.98,1.98-4.47,8.81-21.45,8.03-44.7-.57-64.73,0-.02-.01-.02-.01-.03-.04-.1-.12-.28-.25-.53-1.72-3.94-3.73-7.74-6.06-11.39-.04-.08-.08-.12-.08-.12.81-1.77,1.52-3.39,2.11-4.78,2.66-3.44,2.9-7.55,1.32-11.91-.56-1.56-1.34-3.15-2.33-4.76-3.77-6.14-10.46-12.43-18.34-17.72,8.98-10.37,18.32-16.76,27.32-20.46h.02c2.63-1.67,4.82-3.29,6.56-4.84.02-.01.04-.01.04-.01,2.93-2.58,4.77-4.97,5.78-7.15,3.3-7.1-1.96-11.91-6.33-13.05Z"/>
          <path class="cls-9" d="M83.21,106.38S-10.18,113.66,2.86,203.23c12.85,88.26,115.41,84.17,141.49,47.38,26.08-36.78-61.14-144.24-61.14-144.24Z"/>
          <path class="cls-13" d="M164.2,221.64c-.6,1.5-1.27,2.99-1.98,4.47-1.27,2.64-2.67,5.23-4.21,7.69-9.33,15.18-22.91,26.47-38.45,33.07h-.04c-21.32,9.1-46.3,9.3-68.86-1.51C9,245.37-8.54,195.43,11.41,153.8c1.27-2.64,2.65-5.21,4.17-7.65h.02c7.29-11.95,17.27-21.51,28.73-28.22,11.79-6.93,25.15-10.93,38.88-11.55.72-.03,1.44-.05,2.16-.07,2.39-.03,4.77.01,7.17.19,10.27.7,20.59,3.33,30.44,8.05,7.39,3.57,14.04,8.06,19.83,13.28,5.61,5.06,10.45,10.79,14.42,17.01,0,0,.03.04.08.12,2.33,3.65,4.34,7.45,6.06,11.38.13.25.21.43.25.54,0,.02.02.03.01.04,8.6,20.03,9.39,43.27.57,64.73Z"/>
          <path class="cls-33" d="M161.18,135.61s-1.61,4.08-3.96,9.23c0,0-.02.05-.06.12-2.94,6.43-7.02,14.46-10.54,18.12-.04.03-.07.08-.11.11,0,.02-.02.02-.04.02-1.63,1.61-4.65,2.7-8.43,3.28-10.8,1.65-27.82-.72-37.08-6.33-13.68-4.71-28.54-22.01-27.12-29.98,1.08-6.11,6.61-18.09,9.36-23.81.93-1.96,1.55-3.19,1.55-3.19l.81.34,6.96,2.96,29.19,12.38,21.07,8.95,18.37,7.78Z"/>
          <path class="cls-14" d="M158.36,141.21c-19.92,20.32-83.38-14.35-73.58-38.01,1.14-2.76,2.74-4.94,4.76-6.58l.44-.35c2.36-1.82,5.2-2.95,8.39-3.51,19-3.25,49.88,14.21,59.96,30.63,1,1.61,1.77,3.2,2.33,4.77,1.75,4.85,1.29,9.41-2.29,13.05Z"/>
          <path class="cls-11" d="M108.69,113.36c-3.81,8.54,21.13,18.87,26.15,13.5,6.52-6.97-21.1-24.83-26.15-13.5Z"/>
          <path class="cls-12" d="M179.71,73.2c-1.02,2.18-2.85,4.57-5.78,7.16,0,0-.02,0-.04.01-1.75,1.54-3.93,3.16-6.56,4.84h-.02c-14.12,5.79-29.06,18.17-42.17,42.24,0,0-7.83-1.16-14.93-8.08,0,0,3.28-9.53,12.61-22.97,0-.02,0-.04,0-.04.02-.01.02-.03.04-.07,3.61-5.2,8.13-11,13.71-17.05,6.57-8.48,19.06-15.96,34.92-19.35,1.52-.35,3.07-.63,4.64-.86-.98.28-1.91.65-2.77,1.12,4.37,1.14,9.63,5.97,6.33,13.05Z"/>
          <path class="cls-20" d="M132.64,115.19c2.76-7.23-8.94-17.24,4.92-37.13-13.17,25.82,2.16,25.66-4.92,37.13Z"/>
          <path class="cls-21" d="M151.11,94.87c11.14-12.39,5.4-25.79,20.33-34.97-13.41,12.64-10.23,28.37-20.33,34.97Z"/>
          <path class="cls-18" d="M179.71,73.2c-1.02,2.18-2.85,4.57-5.78,7.16,0,0-.02,0-.04.01-1.75,1.54-3.93,3.16-6.56,4.84h-.02c-14.12,5.79-29.06,18.17-42.17,42.24,0,0-7.83-1.16-14.93-8.08,0,0,3.28-9.53,12.61-22.97-.66,1.37-7.95,16.68-4.31,20.2,3.81,3.68,10.84-.41,11.95-6.73,1.09-6.32-1.64-8.37-.75-13.36.9-5.01,4.29-10.86,4.29-10.86,0,0-2.2,7.87-.87,10.67,1.32,2.8,16.93-2.74,21.63-13.54,4.57-10.44,13.29-19.3,13.83-19.84-.15.25-1.18,1.94-2.25,4.04-.02.02-.02.03-.03.06-1.39,2.73-2.8,6.12-2.4,7.87.52,2.33,8.74,1.12,15.8-1.69Z"/>
          <path class="cls-1" d="M138.64,101.12c-5.51-4.8-1.76-22.45,4.83-28.71,6.59-6.26,19.81-8.73,19.81-8.73,0,0-4.88,7-8.52,19.1-3.65,12.09-16.12,18.34-16.12,18.34Z"/>
          <path class="cls-1" d="M179.71,73.2c-1.02,2.18-2.85,4.57-5.78,7.16,0,0-.02,0-.04.01-7.06,3.5-13.7,4.42-13.7,4.42,0,0,1.16-10.1,6.12-17.77,0-.02,0-.04.03-.06,1.81-2.8,4.1-5.25,7.04-6.81,4.37,1.14,9.63,5.97,6.33,13.05Z"/>
          <path class="cls-1" d="M119.13,121.92c-8.11-9.9,11.29-34.04,11.29-34.04,0,0-3.23,6.23-.54,14.75,2.7,8.51-10.76,19.29-10.76,19.29Z"/>
          <path class="cls-19" d="M164.2,221.64c-.6,1.5-1.27,2.99-1.98,4.47-1.27,2.64-2.67,5.23-4.21,7.69-22.13,36.03-68.36,50.24-107.35,31.56C9,245.37-8.54,195.43,11.41,153.8c7.45-15.57,19.1-27.78,32.92-35.87,11.79-6.93,25.15-10.93,38.88-11.55.93-1.96,1.55-3.19,1.55-3.19l.81.34c-.12.81-.2,1.73-.2,2.78-.14,6.45,2.36,16.98,16.56,27.21,0,0-15.1,15.61,2.46,25.6,17.54,9.98,37.42,5.88,42.3,1.38,4.6-4.21,9.84-14.3,10.48-15.54.03-.08.06-.12.06-.12,0,0,.03.04.08.12.58,1.1,4.89,9.1,6.06,11.38.13.25.21.43.25.54,0,.02.02.03.01.04.25.91-5.64-2.59-9.84,1.15-1.31,1.16-3.68,3.2-7.27,5.12,0,.02-.02.02-.04.02-2.29,1.24-5.09,2.41-8.43,3.28-8.44,2.22-20.36,2.5-36.51-3.3-32.6-11.73-44.22-17.84-56.65-12.24-12.4,5.6-23.45,76.33,42.88,91.26,50.03,11.25,69.76-9.62,76.43-20.56Z"/>
          <path class="cls-6" d="M119.52,266.88c-21.32,9.09-46.3,9.29-68.86-1.52C9,245.37-8.54,195.43,11.41,153.8c1.27-2.64,2.65-5.21,4.17-7.65h.02c10.05.08-11.67,60.64,24.29,97.65,35.36,36.38,78.37,23.51,79.63,23.08Z"/>
          <path class="cls-3" d="M82.75,153.7c-16.46-7.98-67.68,61.2-3.7,89.27,63.98,28.08,89.87-37.24,85.23-66.09-4.63-28.85-9.47-10.08-35.07-8.62-25.61,1.47-46.45-14.56-46.45-14.56Z"/>
          <path class="cls-3" d="M99.29,164.32c-41.24,2.92-36.03,52.86.32,70.69,36.35,17.84,68.55-18.27,61.36-47.61-7.19-29.34-19.42-7.72-61.68-23.09Z"/>
          <path class="cls-3" d="M109.17,141.16c-7.47-.05-8.2,14.45-7.79,15.22.41.75,20.41,9.68,33.26,7.17,12.85-2.52,15.01-15.77,15.01-15.77,0,0-17.61,4.73-40.48-6.62Z"/>
          <path class="cls-3" d="M114.45,141.93c-6.37-1.63-8.72,15.49-.6,20.64,8.13,5.17,20.72,8.74,27.45-.71,6.74-9.45,5.32-14.97,5.32-14.97,0,0-12.6,1.56-32.17-4.96Z"/>
          <path class="cls-16" d="M81.8,109.5s-15.95,9.18-16.18,18.69c-.23,9.52,18.63,35.12,52.89,38.74,34.25,3.61,34.24-12.96,34.24-12.96,0,0-4.39,7.02-8.86,9.02-4.47,2.02-29.7,3.26-51.67-9.99-21.97-13.26-16.88-26.59-16.04-29.02.84-2.42,5.62-14.48,5.62-14.48Z"/>
          <path class="cls-32" d="M158.36,141.21c-19.92,20.32-83.38-14.35-73.58-38.01,1.14-2.76,2.74-4.94,4.76-6.58l.44-.35c2.36-1.82,5.2-2.95,8.39-3.51l.03.04c-25.58,11.57-1.52,49.18,38.84,50.39,20.65.61,24.54-7.23,23.42-15.03,1.75,4.85,1.29,9.41-2.29,13.05Z"/>
          <path class="cls-5" d="M73.73,200.09c-1.85-27.75,25.98-6.02,32.59,13.04,6.6,19.05-19.35,29.59-32.59-13.04Z"/>
          <path class="cls-2" d="M60.95,194.75c-17.69-2.2-5.43,22.86,6.43,27.38,11.86,4.51,12.87-24.98-6.43-27.38Z"/>
          <path class="cls-3" d="M124.32,175.55c-30.96,0-29.54,25.94-8.31,37.75,21.23,11.79,48.06-33.67,8.31-37.75Z"/>
          <path class="cls-15" d="M22.49,220.02c4.77-19.94,25.84,11.89,59.64,29.83,33.8,17.93,40.56,11.27,40.56,11.27,0,0-22.94,18.91-57.69,5.94-34.74-12.97-42.51-47.03-42.51-47.03Z"/>
          <path class="cls-27" d="M156.39,168.32c-20.13-.76.37,20,2.96,24.53,2.59,4.54,4.65-21.43-2.96-24.53Z"/>
          <path class="cls-24" d="M159.57,160.44c-9.11-.73,2.2,8.44,4.14,13.15,1.94,4.71,4.41-11.64-4.14-13.15Z"/>
          <path class="cls-28" d="M122.62,170.9c-10.72-.62-6.54,9.94-1.82,13.88,4.72,3.93,20.17-12.82,1.82-13.88Z"/>
          <path class="cls-26" d="M86.62,117.93c6.24,7.91,23.04.89,23.04.89,0,0,3.85,5.4,10.87,7.35,0,0-7.75,4.66-9.13,8.52-1.38,3.86,1.46,5.08,1.46,5.08,0,0-19.97-10.65-26.24-21.85Z"/>
          <path class="cls-25" d="M102.67,134.12c4.05,2.45-7.27,20.68-7.27,20.68l8.99,4.32s6.95-17.7,11-17.68c0,0-9.52-4.34-12.73-7.31Z"/>
          <path class="cls-4" d="M84.2,104.32c-.7,7.05.26,11.01,2.25,14.78,1.98,3.76-7.28,22.59-7.28,22.59,0,0-4.64-7.64-3.76-14.92.88-7.29,8.8-22.45,8.8-22.45Z"/>
          <path class="cls-17" d="M73.72,195.11c2.01-10.84,20.19-4.35,28.9,12.23,8.71,16.58.04,21.12.04,21.12,0,0,7.32-2.27,3.66-15.33-3.66-13.06-16.89-26.61-25.88-26.23-8.99.4-6.73,8.2-6.73,8.2Z"/>
          <path class="cls-31" d="M176.14,59.04c-.98.28-1.91.65-2.77,1.12,4.37,1.14,9.63,5.97,6.33,13.05-1.02,2.18-2.85,4.57-5.78,7.16h0s-.02,0-.03.01c-1.75,1.54-3.93,3.16-6.56,4.84h-.02c-9,3.68-18.34,10.08-27.32,20.46,7.88,5.3,14.56,11.58,18.34,17.72,1,1.61,1.77,3.2,2.33,4.77,1.58,4.36,1.33,8.47-1.32,11.91-.59,1.39-1.3,3.01-2.11,4.77,0,0,.03.04.08.12,2.33,3.65,4.34,7.45,6.06,11.38.13.25.21.43.25.54,0,.02.02.03.01.04,8.6,20.02,9.39,43.27.57,64.73-.6,1.5-1.27,2.99-1.98,4.47-1.27,2.64-2.67,5.23-4.21,7.69-1.06,1.72-2.19,3.38-3.36,5-.19.27-.38.54-.57.81-1.14,1.54-2.33,3.05-3.57,4.51-.22.25-.43.49-.65.74-1.29,1.49-2.62,2.93-4,4.31-.03.02-.06.05-.09.08-.46.46-.94.91-1.42,1.36,0,0,0,0,0,0-10.68,15.07-34.19,24.65-59.11,24.65-35.93,0-74.79-19.92-82.38-72.03-7.32-50.26,18.88-74.6,43.28-86.3,11.33-6.3,24-9.95,37.02-10.55.63-1.26,1.04-2.06,1.04-2.06h0c.34-.7.56-1.14.56-1.14h.02c1.14-2.75,2.74-4.93,4.76-6.57l.44-.35c2.36-1.82,5.2-2.95,8.39-3.51,1.55-.27,3.18-.39,4.87-.39,5.98,0,12.73,1.59,19.46,4.22.04-.06.08-.12.12-.18,0-.02,0-.04,0-.04.02-.01.02-.03.04-.07,3.61-5.2,8.13-11,13.71-17.05.24-.31.54-.61.8-.91.07-.1.11-.18.18-.28-.03.06-.04.11-.08.17,1.66-1.98,3.62-3.89,5.89-5.7.04-.04.07-.08.11-.11,1.67-1.58,3.75-2.92,5.94-4.04,6.16-3.67,13.62-6.66,22.09-8.48,1.52-.35,3.07-.63,4.64-.86h0ZM176.15,57.42c-.08,0-.15,0-.24.02-1.61.23-3.21.53-4.77.88-8.29,1.77-15.88,4.69-22.56,8.66-2.48,1.27-4.6,2.71-6.23,4.26-.02.02-.06.06-.1.09-2.11,1.7-4.01,3.52-5.66,5.41-.14.11-.27.23-.38.39l-.14.22c-.04.06-.14.17-.24.28-.19.2-.37.41-.54.62-4.77,5.16-9.25,10.7-13.23,16.35-6.8-2.53-13.29-3.85-18.84-3.85-1.8,0-3.53.14-5.14.41-3.57.63-6.64,1.92-9.1,3.82l-.47.39c-2.19,1.77-3.92,4.12-5.14,6.98-.02.04-.04.08-.06.12l-.57,1.14.02.02c-.19.31-.39.7-.64,1.19-12.78.73-25.47,4.42-36.78,10.7C21.14,127.12-6.25,151.84,1.27,203.46c7.88,54.13,48.55,73.42,83.98,73.42,25.73,0,49.4-9.89,60.34-25.21l.22-.21c.37-.35.74-.7,1.11-1.06,1.4-1.38,2.73-2.82,4.17-4.48l.19-.23.47-.54c1.27-1.5,2.5-3.04,3.64-4.6l.38-.53.21-.28c1.33-1.85,2.45-3.52,3.42-5.11,1.52-2.43,2.96-5.07,4.29-7.83.7-1.46,1.38-2.99,2.02-4.56,8.74-21.28,8.54-44.68-.56-65.9-.01-.03-.02-.05-.03-.09-.04-.12-.14-.32-.3-.62-1.63-3.76-3.58-7.45-5.75-10.92.63-1.4,1.19-2.69,1.69-3.83,2.75-3.68,3.25-8.27,1.44-13.28-.59-1.65-1.42-3.35-2.48-5.06-3.53-5.75-9.63-11.8-17.29-17.18,7.73-8.59,16.27-14.85,25.39-18.62.14-.04.27-.1.39-.18,2.56-1.62,4.78-3.26,6.62-4.86.06-.04.12-.09.18-.14,2.92-2.58,5-5.16,6.18-7.69,1.87-4.03,1.17-7.18.26-9.12-.96-2.03-2.5-3.55-4.13-4.6.36-.37.54-.92.42-1.46-.16-.76-.83-1.28-1.58-1.28h0Z"/>
          <path class="cls-10" d="M171.5,59.9c-6.34,2.3-10.97,23.33-11.15,26.06-.19,2.74,17.08-4.22,19.91-14.02,2.83-9.78-5.06-13.38-8.75-12.05Z"/>
          <path class="cls-7" d="M152.14,86.7c12.9,16.98,29.58-5.05,28.36-20.37-1.21-15.32-1.87-11.46-11.85-22.14-9.98-10.68,25.75-12.37-4.23-44.18,0,0,1.06,11.27-21.1,23.39-22.15,12.12-1.58,8.16,12.08,19.93,13.66,11.77-8.43,13.85-11.48,27.65-3.05,13.8,8.21,15.72,8.21,15.72Z"/>
          <path class="cls-23" d="M173.13,84.85c31.79-36.01,10.45-21.49,3.55-33.26-6.9-11.77,14.12-10.63,4.17-21.76,1.85,5.86-16.13,7.53-17.41,12.93-2.66,11.21,6.4.08,14.16,14.33,7.76,14.26-4.47,27.75-4.47,27.75Z"/>
          <path class="cls-8" d="M156.3,86.47c-10.4-9.69.49-23.59,8.43-32.32,7.93-8.74-5.55-9.21-11.49-20.83-5.94-11.62,22.94-13.63,22.94-13.63,0,0-1.38,19.73-5.83,32.65-10.82,31.43,8.09,12.9,12.23,22.44,4.15,9.53-.25,16.47-9.31,17.73-9.05,1.26-16.98-6.03-16.98-6.03Z"/>
          <path class="cls-30" d="M158.26,85.15c-9.79-10.34-2.95-5,.43-7.25,3.38-2.24,5.55-15.75,5.55-15.75,0,0-3.21,9.81,7.58,11.22,10.78,1.41,8.73,15.25-.71,16.76-9.44,1.51-12.84-4.97-12.84-4.97Z"/>
        </g>
      </g>
    </g>
  </g>
</svg>