<?xml version="1.0" encoding="UTF-8"?>
<svg xmlns="http://www.w3.org/2000/svg" xmlns:xlink="http://www.w3.org/1999/xlink" viewBox="0 0 219.55 245.54">
  <defs>
    <style>
      .cls-1 {
        fill: url(#_ÂÁ_Ï_ÌÌ_È_ËÂÌÚ_1592-2);
      }

      .cls-1, .cls-2, .cls-3, .cls-4, .cls-5, .cls-6, .cls-7, .cls-8, .cls-9, .cls-10, .cls-11, .cls-12, .cls-13, .cls-14, .cls-15, .cls-16, .cls-17, .cls-18 {
        mix-blend-mode: multiply;
      }

      .cls-2 {
        fill: url(#_ÂÁ_Ï_ÌÌ_È_ËÂÌÚ_1592-3);
      }

      .cls-3 {
        fill: url(#_ÂÁ_Ï_ÌÌ_È_ËÂÌÚ_1473-2);
      }

      .cls-19 {
        fill: url(#_ÂÁ_Ï_ÌÌ_È_ËÂÌÚ_138);
      }

      .cls-4 {
        fill: url(#_ÂÁ_Ï_ÌÌ_È_ËÂÌÚ_137-8);
      }

      .cls-4, .cls-5, .cls-6, .cls-13, .cls-18 {
        opacity: .6;
      }

      .cls-5 {
        fill: url(#_ÂÁ_Ï_ÌÌ_È_ËÂÌÚ_137-7);
      }

      .cls-20 {
        fill: url(#_ÂÁ_Ï_ÌÌ_È_ËÂÌÚ_138-2);
      }

      .cls-21 {
        fill: url(#_ÂÁ_Ï_ÌÌ_È_ËÂÌÚ_138-3);
      }

      .cls-6 {
        fill: url(#_ÂÁ_Ï_ÌÌ_È_ËÂÌÚ_1608-2);
      }

      .cls-22 {
        isolation: isolate;
      }

      .cls-23 {
        fill: url(#_ÂÁ_Ï_ÌÌ_È_ËÂÌÚ_1575-2);
      }

      .cls-23, .cls-24, .cls-25, .cls-26, .cls-27, .cls-28, .cls-29, .cls-30, .cls-31, .cls-32, .cls-33, .cls-34, .cls-35, .cls-36, .cls-37 {
        mix-blend-mode: screen;
      }

      .cls-24 {
        fill: url(#_ÂÁ_Ï_ÌÌ_È_ËÂÌÚ_1660-4);
      }

      .cls-25 {
        fill: url(#_ÂÁ_Ï_ÌÌ_È_ËÂÌÚ_1660-5);
      }

      .cls-26 {
        fill: url(#_ÂÁ_Ï_ÌÌ_È_ËÂÌÚ_1660-2);
      }

      .cls-27 {
        fill: url(#_ÂÁ_Ï_ÌÌ_È_ËÂÌÚ_1660-3);
      }

      .cls-28 {
        fill: url(#_ÂÁ_Ï_ÌÌ_È_ËÂÌÚ_1670-2);
      }

      .cls-38 {
        fill: #fff;
      }

      .cls-39 {
        opacity: .4;
      }

      .cls-39, .cls-40, .cls-41, .cls-42 {
        fill: #fffb60;
        mix-blend-mode: soft-light;
      }

      .cls-40 {
        opacity: .3;
      }

      .cls-41 {
        opacity: .2;
      }

      .cls-42, .cls-35, .cls-36 {
        opacity: .5;
      }

      .cls-7 {
        fill: url(#_ÂÁ_Ï_ÌÌ_È_ËÂÌÚ_137);
      }

      .cls-29 {
        fill: url(#_ÂÁ_Ï_ÌÌ_È_ËÂÌÚ_1790);
      }

      .cls-30 {
        fill: url(#_ÂÁ_Ï_ÌÌ_È_ËÂÌÚ_1660);
      }

      .cls-31 {
        fill: url(#_ÂÁ_Ï_ÌÌ_È_ËÂÌÚ_1670);
      }

      .cls-32 {
        fill: url(#_ÂÁ_Ï_ÌÌ_È_ËÂÌÚ_1575);
      }

      .cls-33 {
        fill: url(#_ÂÁ_Ï_ÌÌ_È_ËÂÌÚ_1688);
      }

      .cls-8 {
        fill: url(#_ÂÁ_Ï_ÌÌ_È_ËÂÌÚ_137-6);
      }

      .cls-9 {
        fill: url(#_ÂÁ_Ï_ÌÌ_È_ËÂÌÚ_137-2);
      }

      .cls-10 {
        fill: url(#_ÂÁ_Ï_ÌÌ_È_ËÂÌÚ_137-3);
      }

      .cls-11 {
        fill: url(#_ÂÁ_Ï_ÌÌ_È_ËÂÌÚ_137-4);
      }

      .cls-12 {
        fill: url(#_ÂÁ_Ï_ÌÌ_È_ËÂÌÚ_137-5);
      }

      .cls-43 {
        fill: #681e26;
      }

      .cls-13 {
        fill: url(#_ÂÁ_Ï_ÌÌ_È_ËÂÌÚ_1608);
      }

      .cls-34 {
        fill: url(#_ÂÁ_Ï_ÌÌ_È_ËÂÌÚ_1739);
      }

      .cls-34, .cls-37 {
        opacity: .97;
      }

      .cls-35 {
        fill: url(#_ÂÁ_Ï_ÌÌ_È_ËÂÌÚ_1734);
      }

      .cls-14 {
        fill: url(#_ÂÁ_Ï_ÌÌ_È_ËÂÌÚ_1473);
      }

      .cls-15 {
        fill: url(#_ÂÁ_Ï_ÌÌ_È_ËÂÌÚ_1593);
      }

      .cls-16 {
        fill: url(#_ÂÁ_Ï_ÌÌ_È_ËÂÌÚ_1592);
      }

      .cls-17 {
        fill: url(#_ÂÁ_Ï_ÌÌ_È_ËÂÌÚ_1900);
      }

      .cls-44 {
        fill: url(#_ÂÁ_Ï_ÌÌ_È_ËÂÌÚ_3448);
      }

      .cls-45 {
        fill: url(#_ÂÁ_Ï_ÌÌ_È_ËÂÌÚ_1621);
      }

      .cls-36 {
        fill: url(#_ÂÁ_Ï_ÌÌ_È_ËÂÌÚ_1734-2);
      }

      .cls-37 {
        fill: url(#_ÂÁ_Ï_ÌÌ_È_ËÂÌÚ_1739-2);
      }

      .cls-18 {
        fill: url(#_ÂÁ_Ï_ÌÌ_È_ËÂÌÚ_3);
      }
    </style>
    <linearGradient id="_ÂÁ_Ï_ÌÌ_È_ËÂÌÚ_1900" data-name="¡ÂÁ˚ÏˇÌÌ˚È „‡‰ËÂÌÚ 1900" x1="110.4" y1="245.54" x2="110.4" y2="13.95" gradientUnits="userSpaceOnUse">
      <stop offset="0" stop-color="#e7a4df"/>
      <stop offset="1" stop-color="#a12a9a"/>
    </linearGradient>
    <linearGradient id="_ÂÁ_Ï_ÌÌ_È_ËÂÌÚ_138" data-name="¡ÂÁ˚ÏˇÌÌ˚È „‡‰ËÂÌÚ 138" x1="-1319.97" y1="2330.33" x2="-1322.05" y2="2024.97" gradientTransform="translate(2499.58 -721.56) rotate(39.08)" gradientUnits="userSpaceOnUse">
      <stop offset="0" stop-color="#fa6300"/>
      <stop offset="1" stop-color="#ffba00"/>
    </linearGradient>
    <linearGradient id="_ÂÁ_Ï_ÌÌ_È_ËÂÌÚ_1473" data-name="¡ÂÁ˚ÏˇÌÌ˚È „‡‰ËÂÌÚ 1473" x1="-1321.85" y1="2093.9" x2="-1321.85" y2="2012.12" gradientTransform="translate(2499.58 -721.56) rotate(39.08)" gradientUnits="userSpaceOnUse">
      <stop offset="0" stop-color="#ffc7f2"/>
      <stop offset="1" stop-color="#a54c97"/>
    </linearGradient>
    <linearGradient id="_ÂÁ_Ï_ÌÌ_È_ËÂÌÚ_1473-2" data-name="¡ÂÁ˚ÏˇÌÌ˚È „‡‰ËÂÌÚ 1473" x1="-1321.82" y1="2062.17" x2="-1321.82" y2="2015.05" xlink:href="#_ÂÁ_Ï_ÌÌ_È_ËÂÌÚ_1473"/>
    <linearGradient id="_ÂÁ_Ï_ÌÌ_È_ËÂÌÚ_1575" data-name="¡ÂÁ˚ÏˇÌÌ˚È „‡‰ËÂÌÚ 1575" x1="-1299.05" y1="2018.65" x2="-1333.8" y2="2066.29" gradientTransform="translate(2499.58 -721.56) rotate(39.08)" gradientUnits="userSpaceOnUse">
      <stop offset="0" stop-color="#000"/>
      <stop offset=".99" stop-color="#ffe283"/>
    </linearGradient>
    <linearGradient id="_ÂÁ_Ï_ÌÌ_È_ËÂÌÚ_1575-2" data-name="¡ÂÁ˚ÏˇÌÌ˚È „‡‰ËÂÌÚ 1575" x1="-1321.74" y1="2059.61" x2="-1321.74" y2="2028.38" xlink:href="#_ÂÁ_Ï_ÌÌ_È_ËÂÌÚ_1575"/>
    <linearGradient id="_ÂÁ_Ï_ÌÌ_È_ËÂÌÚ_1592" data-name="¡ÂÁ˚ÏˇÌÌ˚È „‡‰ËÂÌÚ 1592" x1="-1307.8" y1="2047.5" x2="-1307.8" y2="2028.06" gradientTransform="translate(2499.58 -721.56) rotate(39.08)" gradientUnits="userSpaceOnUse">
      <stop offset="0" stop-color="#ffc7d3"/>
      <stop offset="1" stop-color="#a54c97"/>
    </linearGradient>
    <linearGradient id="_ÂÁ_Ï_ÌÌ_È_ËÂÌÚ_1592-2" data-name="¡ÂÁ˚ÏˇÌÌ˚È „‡‰ËÂÌÚ 1592" x1="-1304.32" y1="2090.79" x2="-1304.32" y2="2071.5" xlink:href="#_ÂÁ_Ï_ÌÌ_È_ËÂÌÚ_1592"/>
    <linearGradient id="_ÂÁ_Ï_ÌÌ_È_ËÂÌÚ_1688" data-name="¡ÂÁ˚ÏˇÌÌ˚È „‡‰ËÂÌÚ 1688" x1="-1305.4" y1="2057.39" x2="-1296.87" y2="2069.04" gradientTransform="translate(2499.58 -721.56) rotate(39.08)" gradientUnits="userSpaceOnUse">
      <stop offset="0" stop-color="#000"/>
      <stop offset=".99" stop-color="#ffff34"/>
    </linearGradient>
    <linearGradient id="_ÂÁ_Ï_ÌÌ_È_ËÂÌÚ_1621" data-name="¡ÂÁ˚ÏˇÌÌ˚È „‡‰ËÂÌÚ 1621" x1="-1320.93" y1="2305.72" x2="-1322.79" y2="2031.72" gradientTransform="translate(2499.58 -721.56) rotate(39.08)" gradientUnits="userSpaceOnUse">
      <stop offset="0" stop-color="#e25700"/>
      <stop offset="1" stop-color="#ffba00"/>
    </linearGradient>
    <linearGradient id="_ÂÁ_Ï_ÌÌ_È_ËÂÌÚ_138-2" data-name="¡ÂÁ˚ÏˇÌÌ˚È „‡‰ËÂÌÚ 138" x1="-1350.27" y1="2110.94" x2="-1350.5" y2="2076.03" xlink:href="#_ÂÁ_Ï_ÌÌ_È_ËÂÌÚ_138"/>
    <linearGradient id="_ÂÁ_Ï_ÌÌ_È_ËÂÌÚ_138-3" data-name="¡ÂÁ˚ÏˇÌÌ˚È „‡‰ËÂÌÚ 138" x1="-1293.36" y1="2111.29" x2="-1293.6" y2="2076.36" xlink:href="#_ÂÁ_Ï_ÌÌ_È_ËÂÌÚ_138"/>
    <linearGradient id="_ÂÁ_Ï_ÌÌ_È_ËÂÌÚ_3448" data-name="¡ÂÁ˚ÏˇÌÌ˚È „‡‰ËÂÌÚ 3448" x1="-1311.48" y1="2212.34" x2="-1311.48" y2="2211.74" gradientTransform="translate(2499.58 -721.56) rotate(39.08)" gradientUnits="userSpaceOnUse">
      <stop offset="0" stop-color="#6f0b28"/>
      <stop offset="1" stop-color="#58172c"/>
    </linearGradient>
    <linearGradient id="_ÂÁ_Ï_ÌÌ_È_ËÂÌÚ_137" data-name="¡ÂÁ˚ÏˇÌÌ˚È „‡‰ËÂÌÚ 137" x1="-1322.05" y1="2277.35" x2="-1322.05" y2="2026.94" gradientTransform="translate(2499.58 -721.56) rotate(39.08)" gradientUnits="userSpaceOnUse">
      <stop offset="0" stop-color="#ffd8f2"/>
      <stop offset="1" stop-color="#a54c97"/>
    </linearGradient>
    <linearGradient id="_ÂÁ_Ï_ÌÌ_È_ËÂÌÚ_137-2" data-name="¡ÂÁ˚ÏˇÌÌ˚È „‡‰ËÂÌÚ 137" x1="-1268.03" y1="2303.24" x2="-1269.26" y2="2122.8" xlink:href="#_ÂÁ_Ï_ÌÌ_È_ËÂÌÚ_137"/>
    <linearGradient id="_ÂÁ_Ï_ÌÌ_È_ËÂÌÚ_137-3" data-name="¡ÂÁ˚ÏˇÌÌ˚È „‡‰ËÂÌÚ 137" x1="-1374.97" y1="2303.97" x2="-1376.2" y2="2122.41" xlink:href="#_ÂÁ_Ï_ÌÌ_È_ËÂÌÚ_137"/>
    <linearGradient id="_ÂÁ_Ï_ÌÌ_È_ËÂÌÚ_1739" data-name="¡ÂÁ˚ÏˇÌÌ˚È „‡‰ËÂÌÚ 1739" x1="-1279.73" y1="2287.95" x2="-1279.73" y2="2175.8" gradientTransform="translate(2499.58 -721.56) rotate(39.08)" gradientUnits="userSpaceOnUse">
      <stop offset="0" stop-color="#ff9809"/>
      <stop offset="1" stop-color="#000"/>
    </linearGradient>
    <linearGradient id="_ÂÁ_Ï_ÌÌ_È_ËÂÌÚ_1739-2" data-name="¡ÂÁ˚ÏˇÌÌ˚È „‡‰ËÂÌÚ 1739" x1="-1365.28" y1="2289.01" x2="-1365.28" y2="2174.34" xlink:href="#_ÂÁ_Ï_ÌÌ_È_ËÂÌÚ_1739"/>
    <linearGradient id="_ÂÁ_Ï_ÌÌ_È_ËÂÌÚ_137-4" data-name="¡ÂÁ˚ÏˇÌÌ˚È „‡‰ËÂÌÚ 137" x1="-1404.76" y1="2172.57" x2="-1404.76" y2="2165.26" xlink:href="#_ÂÁ_Ï_ÌÌ_È_ËÂÌÚ_137"/>
    <linearGradient id="_ÂÁ_Ï_ÌÌ_È_ËÂÌÚ_137-5" data-name="¡ÂÁ˚ÏˇÌÌ˚È „‡‰ËÂÌÚ 137" x1="5472.4" y1="2172.62" x2="5472.4" y2="2165.31" gradientTransform="translate(5785.53 1947.09) rotate(-140.92) scale(1 -1)" xlink:href="#_ÂÁ_Ï_ÌÌ_È_ËÂÌÚ_137"/>
    <linearGradient id="_ÂÁ_Ï_ÌÌ_È_ËÂÌÚ_1660" data-name="¡ÂÁ˚ÏˇÌÌ˚È „‡‰ËÂÌÚ 1660" x1="-1351.58" y1="2231.22" x2="-1364.64" y2="2249.13" gradientTransform="translate(2499.58 -721.56) rotate(39.08)" gradientUnits="userSpaceOnUse">
      <stop offset="0" stop-color="#000"/>
      <stop offset=".99" stop-color="#ffbb34"/>
    </linearGradient>
    <linearGradient id="_ÂÁ_Ï_ÌÌ_È_ËÂÌÚ_1660-2" data-name="¡ÂÁ˚ÏˇÌÌ˚È „‡‰ËÂÌÚ 1660" x1="5489.02" y1="2231.22" x2="5475.95" y2="2249.14" gradientTransform="translate(5757.44 1924.28) rotate(-140.92) scale(1 -1)" xlink:href="#_ÂÁ_Ï_ÌÌ_È_ËÂÌÚ_1660"/>
    <linearGradient id="_ÂÁ_Ï_ÌÌ_È_ËÂÌÚ_1660-3" data-name="¡ÂÁ˚ÏˇÌÌ˚È „‡‰ËÂÌÚ 1660" x1="-1284.27" y1="2162.73" x2="-1344.24" y2="2244.94" xlink:href="#_ÂÁ_Ï_ÌÌ_È_ËÂÌÚ_1660"/>
    <linearGradient id="_ÂÁ_Ï_ÌÌ_È_ËÂÌÚ_1660-4" data-name="¡ÂÁ˚ÏˇÌÌ˚È „‡‰ËÂÌÚ 1660" x1="-1224.46" y1="2129.82" x2="-1252.25" y2="2167.92" xlink:href="#_ÂÁ_Ï_ÌÌ_È_ËÂÌÚ_1660"/>
    <linearGradient id="_ÂÁ_Ï_ÌÌ_È_ËÂÌÚ_1660-5" data-name="¡ÂÁ˚ÏˇÌÌ˚È „‡‰ËÂÌÚ 1660" x1="5498.1" y1="2129.87" x2="5470.31" y2="2167.97" gradientTransform="translate(5665.53 1849.64) rotate(-140.92) scale(1 -1)" xlink:href="#_ÂÁ_Ï_ÌÌ_È_ËÂÌÚ_1660"/>
    <linearGradient id="_ÂÁ_Ï_ÌÌ_È_ËÂÌÚ_1670" data-name="¡ÂÁ˚ÏˇÌÌ˚È „‡‰ËÂÌÚ 1670" x1="-1277.6" y1="2108.25" x2="-1277.6" y2="2081.46" gradientTransform="translate(2499.58 -721.56) rotate(39.08)" gradientUnits="userSpaceOnUse">
      <stop offset="0" stop-color="#000"/>
      <stop offset=".99" stop-color="#ffe252"/>
    </linearGradient>
    <linearGradient id="_ÂÁ_Ï_ÌÌ_È_ËÂÌÚ_1670-2" data-name="¡ÂÁ˚ÏˇÌÌ˚È „‡‰ËÂÌÚ 1670" x1="5467.24" y1="2108.31" x2="5467.24" y2="2081.52" gradientTransform="translate(5682.46 1863.38) rotate(-140.92) scale(1 -1)" xlink:href="#_ÂÁ_Ï_ÌÌ_È_ËÂÌÚ_1670"/>
    <linearGradient id="_ÂÁ_Ï_ÌÌ_È_ËÂÌÚ_137-6" data-name="¡ÂÁ˚ÏˇÌÌ˚È „‡‰ËÂÌÚ 137" x1="-1322.04" y1="2092.88" x2="-1322.04" y2="2086.42" xlink:href="#_ÂÁ_Ï_ÌÌ_È_ËÂÌÚ_137"/>
    <linearGradient id="_ÂÁ_Ï_ÌÌ_È_ËÂÌÚ_1592-3" data-name="¡ÂÁ˚ÏˇÌÌ˚È „‡‰ËÂÌÚ 1592" x1="-1324.21" y1="2110.62" x2="-1324.21" y2="2097.41" xlink:href="#_ÂÁ_Ï_ÌÌ_È_ËÂÌÚ_1592"/>
    <linearGradient id="_ÂÁ_Ï_ÌÌ_È_ËÂÌÚ_1593" data-name="¡ÂÁ˚ÏˇÌÌ˚È „‡‰ËÂÌÚ 1593" x1="-1331.57" y1="2288.81" x2="-1331.57" y2="2204.23" gradientTransform="translate(2499.58 -721.56) rotate(39.08)" gradientUnits="userSpaceOnUse">
      <stop offset="0" stop-color="#a54c97"/>
      <stop offset="1" stop-color="#ffc7d3"/>
    </linearGradient>
    <linearGradient id="_ÂÁ_Ï_ÌÌ_È_ËÂÌÚ_1608" data-name="¡ÂÁ˚ÏˇÌÌ˚È „‡‰ËÂÌÚ 1608" x1="-1401.9" y1="2227.16" x2="-1347.93" y2="2274.52" gradientTransform="translate(2499.58 -721.56) rotate(39.08)" gradientUnits="userSpaceOnUse">
      <stop offset="0" stop-color="#c34c97"/>
      <stop offset="1" stop-color="#ffc7d3"/>
    </linearGradient>
    <linearGradient id="_ÂÁ_Ï_ÌÌ_È_ËÂÌÚ_1608-2" data-name="¡ÂÁ˚ÏˇÌÌ˚È „‡‰ËÂÌÚ 1608" x1="5482.9" y1="2227.22" x2="5536.87" y2="2274.58" gradientTransform="translate(5791.86 1952.23) rotate(-140.92) scale(1 -1)" xlink:href="#_ÂÁ_Ï_ÌÌ_È_ËÂÌÚ_1608"/>
    <linearGradient id="_ÂÁ_Ï_ÌÌ_È_ËÂÌÚ_1734" data-name="¡ÂÁ˚ÏˇÌÌ˚È „‡‰ËÂÌÚ 1734" x1="-1405.42" y1="2231.44" x2="-1405.42" y2="2210.04" gradientTransform="translate(2499.58 -721.56) rotate(39.08)" gradientUnits="userSpaceOnUse">
      <stop offset="0" stop-color="#000"/>
      <stop offset=".99" stop-color="#ff7400"/>
    </linearGradient>
    <linearGradient id="_ÂÁ_Ï_ÌÌ_È_ËÂÌÚ_1734-2" data-name="¡ÂÁ˚ÏˇÌÌ˚È „‡‰ËÂÌÚ 1734" x1="5473.57" y1="2231.5" x2="5473.57" y2="2210.1" gradientTransform="translate(5786.73 1948.07) rotate(-140.92) scale(1 -1)" xlink:href="#_ÂÁ_Ï_ÌÌ_È_ËÂÌÚ_1734"/>
    <linearGradient id="_ÂÁ_Ï_ÌÌ_È_ËÂÌÚ_137-7" data-name="¡ÂÁ˚ÏˇÌÌ˚È „‡‰ËÂÌÚ 137" x1="-1227.15" y1="2167.16" x2="-1227.15" y2="2132.27" xlink:href="#_ÂÁ_Ï_ÌÌ_È_ËÂÌÚ_137"/>
    <linearGradient id="_ÂÁ_Ï_ÌÌ_È_ËÂÌÚ_137-8" data-name="¡ÂÁ˚ÏˇÌÌ˚È „‡‰ËÂÌÚ 137" x1="5472.59" y1="2167.22" x2="5472.59" y2="2132.33" gradientTransform="translate(5648.3 1835.64) rotate(-140.92) scale(1 -1)" xlink:href="#_ÂÁ_Ï_ÌÌ_È_ËÂÌÚ_137"/>
    <linearGradient id="_ÂÁ_Ï_ÌÌ_È_ËÂÌÚ_3" data-name="¡ÂÁ˚ÏˇÌÌ˚È „‡‰ËÂÌÚ 3" x1="-1330.09" y1="2255.08" x2="-1330.09" y2="2126.55" gradientTransform="translate(2499.58 -721.56) rotate(39.08)" gradientUnits="userSpaceOnUse">
      <stop offset="0" stop-color="#ffd8f2"/>
      <stop offset="1" stop-color="#ce7297"/>
    </linearGradient>
    <linearGradient id="_ÂÁ_Ï_ÌÌ_È_ËÂÌÚ_1790" data-name="¡ÂÁ˚ÏˇÌÌ˚È „‡‰ËÂÌÚ 1790" x1="-1311.31" y1="2301.93" x2="-1311.31" y2="2209.39" gradientTransform="translate(2499.58 -721.56) rotate(39.08)" gradientUnits="userSpaceOnUse">
      <stop offset="0" stop-color="#000"/>
      <stop offset=".99" stop-color="#ffedc9"/>
    </linearGradient>
  </defs>
  <g class="cls-22">
    <g id="Layer_2" data-name="Layer 2">
      <g id="_Layer_" data-name="&amp;lt;Layer&amp;gt;">
        <g>
          <path class="cls-17" d="M218.42,58.97c.14-1.27.19-2.53.08-3.81-1-11.73-7.37-20.05-7.37-20.05,0,0,.19.26.51.78-4.75-7.24-10.23-11.26-10.23-11.26,0,0-4.84-4.35-12.6-7.5-.02,0-.03-.01-.05-.02-.16-.07-.3-.11-.45-.18-.41-.16-.81-.32-1.23-.47-3.3-1.27-6.43-1.99-9.33-2.22-1.32-.16-2.66-.27-4.05-.29h-.03c-1.19-.02-2.42.04-3.67.14.03-.01.06-.02.1-.02,0,0-.05.01-.13.03-5.42.45-11.28,2.11-17.3,5.73-15.92,9.54-11.66,30.72-5.95,45.77-.56-.16-3.55-1.07-5.65-2.48-.16-.12-.34-.22-.5-.35-.14-.11-.27-.22-.39-.34-3.99-3.48-7.16-9.21-9.63-14.46-.41-.93-.86-1.91-1.33-2.89-.81-1.84-1.53-3.51-2.16-4.93-.2-.6-.43-1.16-.73-1.59h0c-.58-1.2-1.07-2.09-1.47-2.41-.28-.23-.58-.42-.88-.54-6.49-2.78-17.49,16-19.93,25.17-1.82,6.84,13.38,9.89,23.19,15.73-.23-.09-.43-.16-.67-.26.87.45,1.61.89,2.31,1.3,2.69,1.82,4.79,3.92,5.75,6.46,0,.96-.35,1.81-.62,2.6-24.91,34.91-57.04,67.69-71.14,81.54-4.3,4.19-7.2,6.92-7.2,6.92-.57-.53-1.17-1.07-1.78-1.63-3.19-3.02-10.04-9.98-15.29-18.66-.06-.09-.1-.17-.15-.24-.66-1.11-1.3-2.24-1.89-3.4-1.49-3-2.61-5.95-2.98-6.96-1.37-4.08-2.1-8.33-1.79-12.56.91-4.81,2.89-10.1,6.27-15.93h0s1.83-2.68,3.77-5.85c1.79-2.6,3.68-5.16,5.57-7.59.87-1.1,1.51-1.92,2.38-3,1.3,1.24,3.12,2.43,4.87,3.43,2.2,1.44,4.52,2.79,5.5,2.79.95-.02,4.21-9.93,7.24-21.08,3.66-10.8,7.28-23.24,5.75-26.37.17-1.55.22-3.05-.08-3.89,0,0,0,0,0-.01-.04-.12-.1-.22-.15-.31-.02-.04-.03-.09-.06-.12-.01-.02-.05-.02-.06-.04-.01-.01-.02-.03-.03-.03s-.03,0-.03,0c-.02-.02-.03-.02-.05-.03,0,0,.02-.01.03-.02-2.82-3.31-48,18.79-49.63,21.01-.66.91,2.83,4.34,5.46,6.73,1.45,1.33,2.63,2.31,2.71,2.37l.02.02s-16.26,16.53-24.68,33.62c-.31.59-.6,1.18-.87,1.77-.14.32-.28.64-.43.96-.05.14-.12.28-.17.43-.37.86-.75,1.72-1.06,2.57v.03c-.43,1.06-.78,2.12-1.09,3.18-5.16,17.54,18.32,67.68,19.55,105.63.16,4.72-.05,9.24-.69,13.51.08-.15.14-.29.23-.45-.03.19-.04.39-.07.58,4.62-1.71,9.71-2.93,15.12-3.77-1.26.34-1.9.57-1.9.57l.33.13c37.4-6.59,91.29,6.11,107.39-2.53.97-.53,1.94-1.09,2.89-1.72-1.59.81-3,1.37-4.33,1.8.33-.15.68-.28.98-.45,18.12-9.73,35.86-36.43,35.86-36.43,0,0,.04.03.07.05h0s1.65,1.32,3.68,2.74c2.67,1.88,5.9,3.92,6.75,3.41.05,0,.12,0,.17,0,0,0-.03-.05-.05-.08.9-1.08,4.14-12.57,6.89-24.58,1.6-5.5,2.92-11.25,3.22-16.04h0c1.09-6.64,1.43-11.62.26-12.24-1.41-1.16-9.09,2.4-9.09,2.4h0c-9.19,3.7-23.02,10.65-31.5,15.5,0,0,0,0,.01,0-.05.02-.08.05-.13.07-4.49,2.58-7.46,4.54-7.37,5.09.19.93,1.89,2.82,3.69,4.63,1.35,1.54,2.92,3.13,4.43,4.17h0c.05.04.09.07.09.07-.9,1.11-1.83,2.22-2.77,3.34-7.74,9.08-17.33,18.52-24.81,20.81-.82.25-1.65.38-2.48.55-.63.12-1.22.26-1.87.36-20.04,2.69-43.47-15.27-43.47-15.27l9.47-14.91c1.92-2.92,4.08-6.18,6.48-9.73,2-2.82,4.1-5.77,6.26-8.79,9.24-12.78,19.56-26.95,26.36-35.7.24-.31.48-.61.71-.91,4.31-5.39,8.79-10.79,13.4-16.07,2.86-3.27,5.75-6.52,8.69-9.69.05.15.07.24.07.24.88.06,1.73.24,2.55.49,1.96.74,3.95,2.02,4.39,2.32,9.8,7.21,15.95,25.35,23.24,21.68,8.88-4.47,26.14-20.29,19.84-25.41-.22-.18-.65-.34-1.15-.52h.02s-.13-.04-.32-.09c-.41-.12-.87-.25-1.4-.38-.07-.01-.12-.03-.19-.05-.88-.33-2.06-.53-2.06-.53h0c-3.77-.97-9.28-2.31-12.11-2.65-7.36-2.07-14.66-5.3-16.63-11.01.53.09,1.06.16,1.61.25,5.43,1.13,10.76,1.25,15.19.98,3.58-.13,7.11-.56,10.43-1.44.36-.08.56-.13.56-.13,0,0-.06.01-.06.01,7.52-2.09,13.83-6.49,16.7-14.75,1.15-3.33,1.83-6.52,2.14-9.55.15-.89.22-1.75.18-2.55,0-.09,0-.18,0-.27ZM166.13,50.51s-.01-.02-.02-.04c-.03-.13-.07-.25-.1-.37-.04-.06-.06-.14-.06-.24-.76-3.15-.37-6.73,2.68-10.22,8.59-9.9,21.1-.65,21.1-.65,0,0,5.3,4.74,6.28,11.04.04.26.07.51.1.79.02.22.03.45.04.67.01.41,0,.83-.02,1.26,0,.18-.02.34-.05.52-.03.4-.1.8-.19,1.22-.37,1.73-1.11,3.5-2.47,5.28-2.52,3.34-5.54,4.56-8.49,4.7-2.35-.27-4.75-.71-6.78-1.45.24.14.46.28.69.42-.9-.32-1.72-.69-2.48-1.06-.33-.21-.65-.38-.98-.6-1.3-.85-2.48-1.73-3.59-2.62-.85-.8-1.64-1.61-2.35-2.48-1.28-1.64-2.62-3.76-3.31-6.19Z"/>
          <path class="cls-19" d="M215.48,59.01c1.48-4.27,2.19-8.3,2.31-12.09.84-21.58-17.01-34.62-17.01-34.62,0,0-8.26-7.45-20.51-9.9-.05,0-.09-.01-.14-.02-2.23-.44-4.6-.71-7.06-.75h-.03c-6.41-.1-13.58,1.43-20.99,5.88-26.07,15.61,1.92,62.44,1.92,62.44,0,0,51.57,17.78,61.51-10.93ZM181.59,52c-5.22-.79-9.62-4.24-9.62-4.24,0,0-4.88-4.08-6.46-9.59,0,0-.02-.02-.02-.04-.03-.13-.07-.25-.1-.37-.03-.06-.05-.13-.05-.23-.77-3.16-.38-6.74,2.67-10.23,8.59-9.89,21.1-.65,21.1-.65,0,0,11.62,10.35,3.69,20.78-3.24,4.29-7.3,5.11-10.98,4.6-.1-.02-.19-.03-.24-.04Z"/>
          <path class="cls-14" d="M153.97,69.94s-27.99-46.83-1.92-62.44c7.42-4.45,14.58-5.98,20.99-5.87-21.65,1-37.22,33.28-8.65,56.48,31.14,25.3,54.02,1.13,53.41-11.19-.12,3.8-.83,7.82-2.31,12.09-9.94,28.71-61.51,10.93-61.51,10.93Z"/>
          <path class="cls-3" d="M181.83,52.04c3.68.51,7.74-.31,10.98-4.6,7.92-10.44-3.69-20.78-3.69-20.78,0,0-12.51-9.24-21.1.65-3.05,3.49-3.44,7.07-2.67,10.23-.91-3.34-5.88-18.34,4.28-26.71,11.38-9.4,39.84,8.22,39.4,26.67-.43,17.88-24.08,15.11-27.19,14.54Z"/>
          <path class="cls-42" d="M152.78,12.68c-8.31,16.62-.49,41.25,20.85,51.67,21.34,10.42,39.5-1.2,41.62-12.95,2.12-11.75-2.82-10.41-2.82-10.41,0,0-13.28,24.38-37.68,8.46-24.39-15.9-15.71-41.09,3.73-42.83,19.44-1.73,33.49,26.61,33.49,26.61,0,0-3.65-19.56-23.84-28.46-20.2-8.91-33.76,4.7-35.36,7.91Z"/>
          <path class="cls-42" d="M162.5,13.67c-19.14-1.72-13.63,32.2,7.48,47.53,21.11,15.34,45.15,4.25,43.8-7.98-1.34-12.23-18.86,8.11-37.81-2.78-18.96-10.89-13.46-36.77-13.46-36.77Z"/>
          <path class="cls-32" d="M169.47,1.74c-13.34,2.96-33.92,32.76-.71,57.27,33.2,24.51,48.34-15.11,46.54-23.69-1.81-8.57-4.79-12.54-4.79-12.54,0,0,6.38,8.33,7.37,20.06,1,11.73-9.6,23.44-15.15,25.44-5.55,2.01-26.42,2.37-43.19-15.85-16.76-18.22-13.17-32.3-6.27-40.52,6.91-8.22,16.2-10.17,16.2-10.17Z"/>
          <path class="cls-23" d="M163.81,20.76c5.22-14.99,23.77-13.95,36.04-2.19,12.28,11.77,9.3,20.98,5.9,27.21-3.41,6.26-16.15,6.72-16.15,6.72,0,0,12.29,1.97,19.22-8.63,6.93-10.59-4-29.39-22.77-35.3-19.72-6.22-21.98,10.81-22.24,12.19Z"/>
          <path class="cls-16" d="M199.85,18.57c4.93,8.26-5.92,14.57-5.92,14.57,0,0,2.53,4.18,1.27,9.46,0,0,7.65-7.33,9.73-4.23,2.08,3.09,1.08,6.93,1.08,6.93,0,0,8.12-11.46-6.17-26.72Z"/>
          <path class="cls-1" d="M154.8,65.46c7.89,7.14,14.05-3.73,14.05-3.73,0,0,9.65,6.58,23.03,7.29,0,0-9.91.81-10.17,4-.26,3.2,17.14.72,17.14.72,0,0-27.52,7.27-44.05-8.29Z"/>
          <path class="cls-33" d="M177.53,50.69c15.41,8.99.29,14.26-3.9,13.66,0,0,18.08,8.37,30.17,1.48,0,0-9.28,3.62-13,.4-3.73-3.22-.38-11.96,3.78-13.74,0,0-10.45.56-17.05-1.8Z"/>
          <path class="cls-38" d="M149.81,17.21c-.41,2.56,2.4,7.52,1.88,11.92-.53,4.4-2.41,5.27-2.41,5.27,0,0-4.59-7.55.53-17.19Z"/>
          <path class="cls-45" d="M177.71,190.81s-17.75,26.69-35.86,36.43c-18.12,9.71-84.02-7.55-120.49,5.97C27.12,194.75-3.29,133.78,2.5,114.07c5.81-19.73,28.3-42.58,28.3-42.58,0,0-9.23-7.69-8.19-9.11,1.63-2.23,46.81-24.32,49.62-21.01,2.83,3.32-10.59,51.73-12.7,51.77-2.09.01-10.37-6.21-10.37-6.21-8.12,10-17.18,23.2-17.98,31.94-1.96,21.68,23.86,43.86,23.86,43.86,0,0,.26-.25.78-.72,6.14-5.82,48.1-46.03,78.55-89.13,2.07-2.9,4.08-5.83,6.04-8.77,2.05-3.09,4.04-6.21,5.9-9.31,1.58-2.58.83,8.48,24.19,19.39-2.35,2.19-4.7,4.48-7.03,6.79-2.9,2.94-5.79,5.93-8.64,9.01v.02c-2.96,3.16-5.85,6.41-8.71,9.68-34.81,39.96-62.68,86.11-62.68,86.11,0,0,26.99,20.73,47.82,14.36,7.48-2.29,17.07-11.73,24.81-20.81.94-1.13,1.87-2.24,2.77-3.34,0,0-7.8-6.82-8.22-8.88-.38-2.07,44.23-25.14,48.07-23.05,3.82,2.07-8.54,50.81-10.38,52.87-1.18,1.31-10.61-6.14-10.61-6.14Z"/>
          <path class="cls-20" d="M152.99,71.14l-18.61,1.74.03.15c-2.57-12.86-33.52-14.99-30.98-24.59,2.43-9.17,13.44-27.94,19.93-25.17.29.12.6.32.88.53,2.69,2.19,9.41,28.22,21.99,29.5.08.37.57,1.11.85,1.72,2.07,4.23,7.94,13.2,5.9,16.12Z"/>
          <path class="cls-21" d="M185.06,114.74c-8.87,4.46-16.05-23.41-30.18-24.51,0,0-.02-.08-.07-.23v-.02c-.42-2.05-3.48-16.8-1.83-18.84,2.44-2.97,12.43,1.48,16.77,2.41.45.08.9.31,1.19.32,3.82,12.05,31.26,13.26,33.96,15.45,6.3,5.12-10.96,20.93-19.84,25.42Z"/>
          <path class="cls-44" d="M87.2,168.71s.02.01,0,.03c-.04.02-.07.04-.08.06-.1.09-.14.14-.14.14.1-.17.2-.36.26-.55,0,.12-.03.23-.05.33Z"/>
          <path class="cls-7" d="M185.06,114.74c-8.87,4.46-16.05-23.41-30.18-24.51,0,0-.02-.08-.07-.23-2.95,3.16-5.84,6.41-8.69,9.68,0,0,4.61-20.94,3.12-22.43-1.52-1.49-111.18,133.2-111.18,133.2,0,0,20.69-29.63,17.76-48.44,6.14-5.82,48.1-46.03,78.55-89.13l.03.15c-2.57-12.86-33.52-14.99-30.98-24.59,2.43-9.17,13.44-27.94,19.93-25.17,1.34,3.46-16.19,13.97-15.87,25.69.16,6.1,16.34,7.51,32.92,15.16,4.43,2.02,8.75,4.33,12.58,7.03,4.11,2.88,7.54,6.27,10.48,9.83,10.13,12.24,12.76,26.3,17.61,29.19,11.28,6.73,20.17-20.01,23.83-20.84,6.3,5.12-10.96,20.93-19.84,25.42Z"/>
          <path class="cls-9" d="M177.71,190.81s-17.75,26.69-35.86,36.43c-18.12,9.71-84.02-7.55-120.49,5.97,36.52-31.84,90-3.8,114.66-15.74,20.65-10.01,32.21-33.78,32.21-33.78,0,0-6.55-2.96-12.17-4.34.94-1.13,1.87-2.24,2.77-3.34,0,0-7.8-6.82-8.22-8.88,0,0,17.64,7.99,22.02,11.55,0,0,23.06-21.84,26.05-34.59,3.82,2.07-8.54,50.81-10.38,52.87-1.18,1.31-10.61-6.14-10.61-6.14Z"/>
          <path class="cls-10" d="M21.21,233.08c.63-4.27.84-8.8.69-13.52-1.22-37.94-24.71-88.08-19.55-105.62.32-1.06.67-2.12,1.09-3.18v-.04c7.07-18.9,27.2-39.36,27.2-39.36,0,0-9.23-7.7-8.18-9.12,1.63-2.22,46.81-24.32,49.63-21.01-11.88,5.55-28.51,32.61-28.51,32.61,4.37,3.55,15.81,19.18,15.81,19.18-2.1.01-10.22-6.09-10.22-6.09-.9,1.1-1.54,1.93-2.45,3.08-2.5-5.21-8.92-10.28-8.92-10.28,0,0-17.88,15.16-24.69,37.9-2.52,8.44.49,19.21,4.11,31.12.03.08.05.12.06.17.22.71.45,1.45.67,2.18,7.68,24.6,18.83,54.21,3.26,81.99Z"/>
          <path class="cls-34" d="M83.44,185.79c-16.8-2.78-52.21,35.27-52.21,35.27,0,0,29.68-7.92,59.65-3.69,29.96,4.24,38.47,6.8,55.33-6.93,16.85-13.73,18.87-25.15,18.87-25.15l-8.33-6.76s-12.6,25.07-32.55,24.89c-19.95-.17-40.76-17.63-40.76-17.63Z"/>
          <path class="cls-37" d="M37.44,103.35c-18.68,32.18,5.13,47.7,17.6,59.38,0,0-.38,28.02-25.85,58.03,7.19-28.92-14.45-75.83-16.81-94.76-2.36-18.94,23.82-45.39,23.82-45.39,0,0,10.29,4.13,9.6,7.8-.69,3.67-8.37,14.93-8.37,14.93Z"/>
          <path class="cls-11" d="M22.45,62.24s14.61,5.15,21.45,11.06c6.84,5.9,15.48,19.71,15.48,19.71,0,0-6.87-2.9-10.22-6.09,0,0-2.5-6.48-7.25-10.89-4.75-4.4-11.28-4.67-11.28-4.67,0,0-8.08-6.65-8.18-9.12Z"/>
          <path class="cls-12" d="M188.38,197s-8.03-13.23-15.22-18.72c-7.2-5.48-22.47-11.11-22.47-11.11,0,0,4.24,6.12,8.06,8.75,0,0,6.86,1.11,12.14,4.86,5.28,3.75,6.89,10.07,6.89,10.07,0,0,8.16,6.55,10.6,6.15Z"/>
          <path class="cls-42" d="M124.75,28.99c-3.46-1.59-12.62,11.2-11.75,18.98.89,7.77,26.4,11.8,41.11,24.28,14.71,12.49,20.77,28.42,28.19,32.67,7.41,4.26,19.08-9.65,18.55-13.31-.54-3.66-12.33-4.71-22.24-9.91-9.9-5.19-9.66-8.67-9.66-8.67,0,0-8.27-2.36-12.89-5.86-4.63-3.49-8.98-12.15-8.98-12.15,0,0-6.23-2.23-11.06-6.97-4.84-4.75-7.41-17.29-11.27-19.06Z"/>
          <path class="cls-40" d="M90.58,190.99c-18.04-9.79-31.24,10.96-34.01,19.24-2.76,8.27,56.99,12.76,82.65,2.1,25.67-10.65,19.42-25.61,16.7-26.79-2.73-1.18-2.97,11.24-29.29,15.58-26.33,4.33-36.04-10.13-36.04-10.13Z"/>
          <path class="cls-40" d="M47.5,156c13.28,15.65-4.33,32.84-11.86,37.24-7.54,4.4-24.18-53.15-19.02-80.46,5.16-27.31,21.09-24.26,22.8-21.83,1.71,2.43-10.39,5.21-9.23,31.87,1.17,26.66,17.31,33.19,17.31,33.19Z"/>
          <path class="cls-39" d="M150.85,80.44c-4.56-4.09-111.19,128.92-111.71,130.88-.53,1.96,24.27-19.63,31.9-22.68,7.63-3.04,11.89-4.08,11.89-4.08,0,0,42-60.57,56.95-77.58,14.95-17.01,10.97-26.54,10.97-26.54Z"/>
          <path class="cls-42" d="M190.27,88.08c-12.12-5.14-17.02,16.95-8.49,20.26,8.53,3.31,17.25-13.13,15.83-17.18-1.41-4.05-7.35-3.08-7.35-3.08Z"/>
          <path class="cls-42" d="M124.88,31.27c-4.26-4.02-16.36,12.67-10.86,18.96,5.5,6.29,26.86-3.88,10.86-18.96Z"/>
          <path class="cls-42" d="M156.74,167.38c-3.69-5.16,39.36-23.14,39.36-23.14,0,0-14.89,26.45-20.38,29.87-5.49,3.42-18.98-6.72-18.98-6.72Z"/>
          <path class="cls-42" d="M47.41,69.63c-2.13,5.6,13.11,19.61,13.11,19.61,0,0,14.98-38.05,11.99-43.61-2.99-5.57-19.94,14.35-25.09,24.01Z"/>
          <path class="cls-30" d="M38.06,142.58c-6.31-7.05-11.83-1.58-15.69,2.84-3.87,4.4,2.79,20.18,5.96,34.35,3.17,14.16,2.27,30.84,2.27,30.84,0,0,.98-24.59-8.08-47.65-7.86-20.01-12.3-34.7-9.41-45.33,0,0-.45,12.12,1.41,18.17,1.88,6.06,15.83-.41,17.25-1.83,1.42-1.42,1.05-2.51,1.05-2.51,0,0,2.36,6.73,5.25,11.14Z"/>
          <path class="cls-26" d="M106.78,198.39c8.2,4.73,3.96,11.26.45,15.95-3.52,4.69-20.34,1.4-34.84,1.22-14.51-.19-30.66,4.11-30.66,4.11,0,0,23.87-6,48.3-1.87,21.19,3.59,36.68,4.44,46.5-.58,0,0-11.96,3.43-18.27,2.83-6.3-.59-2.84-15.57-1.74-17.25,1.11-1.69,2.24-1.55,2.24-1.55,0,0-7.07-.92-11.97-2.86Z"/>
          <path class="cls-27" d="M121.44,109.66s-55.78,68.01-54.7,72.7c1.08,4.68,13.35,2.07,16.06.29,2.72-1.78,10.15-11.82,10.15-11.82l-9.51,14.97s-5.86-1.14-15.95,2.81c-10.08,3.94-34.2,29.61-34.2,29.61,0,0,70.62-87.21,88.15-108.54Z"/>
          <path class="cls-24" d="M158.12,161.96c-8.21,4.95,11.9,13.3,18.71,9.25,6.82-4.04,17.16-17.57,17.19-21.16.03-3.59-4.42-3.58-4.42-3.58,0,0,7.68-3.55,9.1-2.4,1.42,1.15-21.13,31.4-22.5,33.5-1.38,2.1,3.72,7.54,3.72,7.54,0,0-6.34-7.44-11.84-10.7-5.51-3.26-17.39-7.25-17.39-7.25,0,0,2.83-2.65,7.43-5.21Z"/>
          <path class="cls-25" d="M62.96,84.67c-3.16,9.05-15.46-8.91-12.89-16.41,2.55-7.51,13.66-20.4,17.18-21.17,3.51-.76,4.42,3.59,4.42,3.59,0,0,1.9-8.25.47-9.39-1.42-1.15-26.4,27.12-28.17,28.89-1.78,1.78-8.15-2.09-8.15-2.09,0,0,8.57,4.68,12.9,9.4,4.33,4.72,10.66,15.53,10.66,15.53,0,0,2.02-3.31,3.58-8.34Z"/>
          <path class="cls-31" d="M187.61,85.08c11.52,4.48,9.61,13.95,3.6,20.05-6.02,6.1-7,6.09-7,6.09,0,0,4.55.46,9.91-6.99,5.36-7.44,6.36-15.46,9.65-15.44,0,0-11.64-3.17-16.16-3.71Z"/>
          <path class="cls-28" d="M131.5,39.52c-6.75-10.36-15.63-6.55-20.36.59-4.73,7.13-3.28,9.11-3.28,9.11,0,0-1.5-5.62,4.68-12.39,6.19-6.77,12.7-9.16,12.01-12.36,0,0,5.5,10.73,6.95,15.06Z"/>
          <path class="cls-8" d="M139.27,49.85c3.89,3.9,7.89,13.37,14.74,19.01,7.85,6.45,19.7,9.85,22.15,11.34,0,0-4.39-2.5-5.22-6.33,0,0-7.97-2.76-14.01-8.02-6.04-5.27-10.7-12.55-10.7-12.55,0,0-4.94-1.36-6.96-3.45Z"/>
          <path class="cls-2" d="M125.95,63.91c7.45,3.02,11.19,3.67,12.91,3.63,8.1-.18-1.42-4.73-1.42-4.73,0,0,9.8,3.52,17.37,10.03,7.57,6.52,10.51,11.2,10.51,11.2,0,0-4.96-7.09-7.09-4.58-2.13,2.53-1,7.67.89,9.92,1.88,2.25,2.85,3.75,2.85,3.75,0,0-4.68-3.2-7.08-2.91,0,0,.36-13.58-4.08-17.37-4.43-3.79-17.43,1.43-17.43,1.43.82-2.38,2.49-5.19-7.42-10.38Z"/>
          <path class="cls-15" d="M82.75,134.87s-10.94,13.05-19.24,23.69c-4.2,5.38-5.26,16.64-2.24,18.28,3.01,1.64,17.16-15.74,17.16-15.74l-44.64,54.98s27.71-37.6,21.25-53.34c0,0,15.36-14.46,27.71-27.86Z"/>
          <path class="cls-13" d="M22.09,219.85l-.19-.29c-1.22-37.94-24.71-88.08-19.55-105.62.32-1.06.67-2.12,1.09-3.18-4.83,17.62,8.86,16.62,8.86,16.62,0,0,.73,9.27,4.92,21.36.03.08.05.12.06.17.27.77.54,1.52.83,2.3,0,0-.05-.04-.16-.12-.79-.62-4.39-3.14-7.13-1.38-3.12,2,4.79,21.28,8.77,40.44,3.98,19.16,2.5,29.71,2.5,29.71Z"/>
          <path class="cls-6" d="M34.58,230.01l.33.12c37.39-6.58,91.29,6.12,107.39-2.53.97-.53,1.94-1.09,2.89-1.72-16.26,8.35-18.09-5.26-18.09-5.26,0,0-9.22,1.19-21.92-.43-.08,0-.12-.02-.18-.03-.8-.11-1.6-.21-2.42-.34,0,0,.05.04.15.13.76.65,3.97,3.65,2.81,6.7-1.32,3.46-21.8-.33-41.38-.3-19.59.04-29.6,3.66-29.6,3.66Z"/>
          <path class="cls-40" d="M90.03,217.8c-15.39-13.5,3.92-22.75,8.95-21.83,5.02.93,15.47,7.42,27.65,5.15,12.18-2.28,14.73,11.96,14.73,11.96,0,0-8.09,8.95-25.69,6.88-17.6-2.07-25.64-2.17-25.64-2.17Z"/>
          <path class="cls-40" d="M22.33,162.82c16.38,12.3,21.47-8.51,19.53-13.22-1.94-4.73-10.44-13.62-10.71-26.02-.27-12.4-14.73-11.97-14.73-11.97,0,0-7.11,9.75-1.47,26.56,5.64,16.8,7.38,24.65,7.38,24.65Z"/>
          <path class="cls-41" d="M152.58,75.93c-2.87-.73-86.33,94.47-92.17,111.45,10.86-1.34,21.1-2.41,25.02-7.22,3.91-4.82,33.74-47.12,47.36-64.52,13.63-17.4,23.88-37.11,19.79-39.71Z"/>
          <path class="cls-35" d="M7.87,101.72c-2.48,10.4,5.29,10.08,5.29,10.08,0,0-2.47,10.89-.87,15.58,0,0-7.42-6.58-10.3-2.87,0,0-1.56-11.64,5.88-22.79Z"/>
          <path class="cls-36" d="M152.51,219.19c-9.4,6.14-12.08-4.03-12.08-4.03,0,0-9.02,5.57-13.94,4.96,0,0,7.96,5.92,4.92,9.49,0,0,11.7-.86,21.1-10.43Z"/>
          <path class="cls-5" d="M198.44,156.31c-3.3-3.07-17.66,15.94-19.44,20.48-1.78,4.53,8.92,15.93,8.92,15.93,0,0,9.62-22.34,10.51-36.41Z"/>
          <path class="cls-4" d="M60.69,44.44c3.69,2.6-11.99,20.56-16.06,23.23-4.06,2.66-17.42-5.47-17.42-5.47,0,0,19.89-14,33.47-17.76Z"/>
          <path class="cls-38" d="M98.72,218.49c5.05.23,8.93-4.05,11.53-3.03,2.6,1.03,5.41,4.51,5.41,4.51,0,0-9.05.87-16.94-1.48Z"/>
          <path class="cls-38" d="M14.51,139.15c7.74.49,5,9.6,4.22,10.76-.78,1.17-4.22-10.76-4.22-10.76Z"/>
          <path class="cls-38" d="M169.46,175.26c-1.98-2.67,7.63-3.37,8.46-3.16.82.22-1.28,7.32-1.42,8.27-.14.93-2.53-1.73-7.04-5.11Z"/>
          <path class="cls-38" d="M199.79,87.74c-4.88-1.2-2.45,5-1.32,5.84,1.13.83,4.1-3.78,4.33-4.52.23-.75-3.01-1.31-3.01-1.31Z"/>
          <path class="cls-38" d="M43.23,72.25c1.24-1.07,4.55-2.39,5.29-.07.74,2.32-.45,4.45-.69,4.31-.24-.13-4.61-4.24-4.61-4.24Z"/>
          <path class="cls-38" d="M125.72,26.22c-1.67-.15-4.07,4.42-3.08,5.76.98,1.34,4.61-.29,4.61-.29,0,0-.36-3.73-1.53-5.48Z"/>
          <path class="cls-18" d="M134.32,75.05c2.83-2.9,11-1.73,12.13,1.61,1.13,3.33-84.96,102.77-89.74,108.67-4.79,5.89,2.92-24.54,2.92-24.54,0,0,49.8-50.78,74.69-85.73Z"/>
          <path class="cls-43" d="M173.07,1.62c1.39.02,2.73.13,4.05.29,2.9.22,6.02.94,9.32,2.22.43.15.82.31,1.23.47.16.06.3.1.46.17.01,0,.03.01.04.02,7.76,3.15,12.6,7.5,12.6,7.5,0,0,5.48,4.02,10.23,11.26-.32-.51-.51-.78-.51-.78,0,0,6.38,8.33,7.37,20.06.11,1.27.06,2.54-.08,3.81,0,.09,0,.17,0,.27.04.8-.03,1.65-.18,2.55-.31,3.04-.97,6.22-2.13,9.55-2.86,8.26-9.17,12.66-16.7,14.75.01,0,.06,0,.06,0,0,0-.21.06-.56.14-3.32.87-6.84,1.31-10.43,1.44-1.24.08-2.54.11-3.9.11-3.51,0-7.38-.29-11.29-1.11-.55-.08-1.08-.16-1.62-.25,1.98,5.71,9.28,8.95,16.63,11.01,2.84.34,8.35,1.68,12.12,2.65h0s1.18.21,2.06.54c.07.02.12.03.19.04.53.13,1,.25,1.39.37.2.05.33.09.33.09,0,0-.01,0-.02,0,.51.17.93.34,1.15.52,6.3,5.12-10.96,20.93-19.84,25.42-.66.33-1.31.47-1.95.47-6.48,0-12.37-15.61-21.29-22.16-.44-.3-2.43-1.58-4.39-2.32-.82-.26-1.67-.43-2.55-.5,0,0-.02-.08-.07-.23-2.95,3.16-5.84,6.41-8.69,9.68-4.61,5.29-9.09,10.69-13.4,16.07-.23.3-.47.61-.71.91-6.8,8.76-17.11,22.92-26.36,35.71-2.16,3.02-4.26,5.97-6.27,8.79-2.4,3.54-4.56,6.8-6.47,9.72l-9.47,14.91s20.28,15.54,39.23,15.54c1.42,0,2.84-.08,4.23-.27.66-.11,1.24-.25,1.87-.37.83-.17,1.66-.3,2.48-.55,7.48-2.29,17.07-11.73,24.81-20.81.94-1.13,1.87-2.24,2.77-3.34,0,0-.03-.03-.09-.08,0,0,0,0,0,0-1.51-1.04-3.08-2.62-4.44-4.17-1.8-1.8-3.49-3.7-3.69-4.63-.1-.54,2.87-2.51,7.37-5.08.05-.03.08-.06.13-.07t-.01,0c8.48-4.85,22.3-11.81,31.49-15.5h0s5.68-2.63,8.17-2.63c.41,0,.73.07.93.24,1.17.63.82,5.59-.25,12.24h0c-.3,4.79-1.63,10.53-3.23,16.04-2.75,12.01-5.99,23.49-6.89,24.57.02.02.05.08.05.08h-.17c-.09.06-.21.09-.35.09-1.19,0-4.02-1.81-6.4-3.49-2.03-1.43-3.68-2.75-3.68-2.75h0s-.07-.05-.07-.05c0,0-17.75,26.69-35.86,36.43-.31.15-.66.3-.98.44,1.32-.43,2.73-.98,4.33-1.8-.95.63-1.92,1.2-2.89,1.72-4.41,2.37-11.66,3.14-20.62,3.14-16.47,0-38.73-2.59-59.89-2.59-9.38,0-18.54.51-26.88,1.98l-.33-.12s.64-.23,1.9-.58c-5.4.85-10.5,2.06-15.12,3.77.03-.19.04-.38.07-.57-.08.15-.14.3-.23.44.63-4.27.84-8.8.69-13.52-1.22-37.94-24.71-88.08-19.55-105.62.32-1.06.67-2.12,1.09-3.18v-.04c.32-.85.69-1.72,1.06-2.57.05-.15.12-.29.18-.43.14-.32.28-.64.42-.95.27-.59.56-1.18.87-1.78,8.42-17.08,24.67-33.63,24.67-33.63v-.02c-.09-.06-1.27-1.04-2.73-2.37-2.63-2.39-6.12-5.83-5.46-6.73,1.52-2.07,40.74-21.35,48.46-21.34.58,0,.97.1,1.17.33-.01.01-.02.02-.03.02.01,0,.03.02.05.03h.03s0,0,0,0c.01,0,.02.02.03.03.01.02.05.03.06.04.03.02.04.09.05.12.07.09.12.19.16.32,0,0,0,.01,0,.02.3.82.25,2.33.07,3.89,1.54,3.12-2.08,15.57-5.74,26.36-3.03,11.15-6.3,21.06-7.25,21.08h0c-.98,0-3.29-1.35-5.49-2.79-1.75-1-3.58-2.19-4.87-3.42-.87,1.07-1.51,1.89-2.38,3-1.89,2.43-3.78,4.99-5.57,7.59-1.94,3.15-3.76,5.82-3.77,5.83h0c-3.38,5.84-5.36,11.12-6.28,15.94-.32,4.23.41,8.46,1.79,12.55.37,1.01,1.49,3.96,2.98,6.96.6,1.15,1.24,2.29,1.89,3.4.06.07.1.17.14.24,5.26,8.69,12.1,15.65,15.3,18.67.61.54,1.21,1.09,1.78,1.63,0,0,2.9-2.74,7.2-6.92,14.11-13.84,46.24-46.62,71.14-81.54.27-.8.62-1.64.62-2.6-.95-2.54-3.06-4.64-5.75-6.46-.7-.42-1.44-.84-2.31-1.3.24.1.45.17.67.26-9.81-5.84-25.01-8.89-23.19-15.73,2.27-8.55,11.99-25.45,18.56-25.45.47,0,.93.09,1.37.28.29.12.6.32.88.53.4.33.89,1.21,1.47,2.42h0c.29.43.54,1,.73,1.59.63,1.41,1.35,3.1,2.17,4.93.46.98.9,1.96,1.32,2.89,2.46,5.25,5.63,10.98,9.63,14.46.12.11.25.22.39.33.16.13.33.23.49.36,2.09,1.4,5.09,2.31,5.65,2.47-5.72-15.04-9.97-36.22,5.95-45.76,6.01-3.61,11.87-5.28,17.29-5.73.08-.02.12-.03.13-.03-.04.01-.07.02-.1.03,1.08-.09,2.16-.15,3.21-.15.15,0,.31,0,.46,0h.03ZM178.22,51.12c-.23-.14-.45-.28-.69-.43,2.03.73,4.43,1.18,6.78,1.45,2.95-.14,5.97-1.37,8.49-4.7,1.34-1.78,2.09-3.55,2.46-5.28.08-.42.16-.83.2-1.23.02-.17.03-.35.04-.52.03-.43.04-.85.02-1.25-.01-.23-.02-.46-.04-.68-.03-.27-.05-.54-.09-.79-.99-6.3-6.29-11.04-6.29-11.04,0,0-5.31-3.92-11.38-3.92-3.25,0-6.73,1.12-9.72,4.57-3.05,3.49-3.44,7.07-2.67,10.23,0,.1.01.18.05.23.03.12.07.24.1.37,0,.02.02.04.02.04.69,2.42,2.03,4.55,3.31,6.19.71.86,1.49,1.69,2.35,2.48,1.11.89,2.29,1.76,3.59,2.6.33.22.65.41.98.61.75.37,1.58.73,2.48,1.06h0ZM173.07,0s-.09,0-.13.01h-.36c-.92,0-1.9.03-2.99.11h-.12c-.11,0-.23.01-.34.04-6.14.5-12.19,2.51-17.92,5.94-15.57,9.34-13.22,28.69-7.81,44.45-.71-.32-1.44-.69-2.06-1.11,0,0-.1-.07-.2-.14-.05-.03-.12-.08-.17-.12-.14-.11-.24-.2-.33-.28-4.11-3.58-7.24-9.68-9.25-13.95-.41-.91-.86-1.9-1.32-2.89-.4-.89-.78-1.77-1.15-2.61-.36-.82-.69-1.59-1.01-2.29-.2-.63-.49-1.26-.82-1.78-.76-1.58-1.28-2.37-1.84-2.83-.4-.32-.83-.58-1.26-.77-.63-.27-1.3-.41-2-.41-8.12,0-17.96,18.51-20.12,26.65-1.6,6.03,5.95,9.29,13.94,12.73,3.03,1.3,6.14,2.65,8.89,4.17.14.16.3.31.5.4.84.44,1.55.85,2.22,1.26,2.51,1.7,4.15,3.47,4.95,5.36-.05.46-.22.94-.4,1.44l-.04.12c-25.06,35.1-57.87,68.42-70.82,81.14-2.71,2.64-4.87,4.71-6.08,5.87-.23-.21-.46-.42-.69-.62-3.41-3.22-9.93-9.93-14.99-18.3l-.17-.27c-.64-1.06-1.26-2.18-1.83-3.27-1.47-2.97-2.58-5.93-2.88-6.77-1.39-4.12-1.96-8.1-1.7-11.79.93-4.84,2.97-10,6.07-15.34.01-.02,1.83-2.68,3.75-5.81,1.62-2.35,3.47-4.88,5.47-7.45l.41-.53c.32-.4.61-.78.91-1.15,1.06.82,2.35,1.66,3.87,2.53,4.01,2.64,5.44,3,6.29,3,1.26-.03,2.77-.06,8.8-22.27,7.03-20.71,6.47-25.43,5.84-27.06.25-2.52.01-3.58-.2-4.16-.08-.22-.17-.4-.27-.57-.07-.13-.16-.28-.24-.38-.1-.11-.19-.19-.27-.26,0,0-.01,0-.01,0-.78-.77-1.89-.77-2.27-.77-7.88,0-47.62,19.09-49.75,22.01-1.07,1.46-.48,3.3,5.67,8.88.54.49,1.04.94,1.47,1.31-3.96,4.2-16.57,18.17-23.78,32.79-.31.59-.61,1.21-.89,1.83l-.34.77-.09.2s-.05.15-.06.15l-.13.33-.06.13c-.36.83-.71,1.65-1.02,2.47-.03.05-.04.11-.05.18-.36.91-.71,1.92-1.07,3.14-2.76,9.38,2.08,26.9,7.69,47.18,5.25,19,11.2,40.54,11.8,58.96.15,4.72-.08,9.17-.68,13.22-.09.62.18,1.22.67,1.56.02.02.05.04.07.06.29.24.66.36,1.02.36.19,0,.38-.03.56-.11,3.54-1.31,7.59-2.39,12.03-3.22.01,0,.04.02.05.03l.33.12c.18.06.38.1.57.1.1,0,.18,0,.28-.03,7.46-1.32,16.17-1.95,26.6-1.95,11.19,0,22.54.71,33.52,1.41,9.56.61,18.6,1.17,26.37,1.17,10.36,0,17.16-1.05,21.38-3.32,1.2-.65,2.17-1.23,3.03-1.81.38-.26.62-.67.69-1.09,14.46-9.67,27.6-27.71,31.28-32.98.59.45,1.39,1.02,2.46,1.77,4.74,3.35,6.41,3.77,7.33,3.77.23,0,.45-.02.65-.08.05,0,.1-.01.14-.02.53-.09.98-.43,1.2-.93.05-.12.1-.24.12-.38,1.83-3.75,5.56-19.09,6.82-24.58,1.89-6.47,2.99-11.98,3.26-16.3,1.81-11.08.84-12.92-.47-13.7-.47-.33-1.06-.49-1.81-.49-2.77,0-8.23,2.49-8.84,2.77-9.56,3.84-23.38,10.87-31.55,15.53-.01,0-.03,0-.04.02,0,0-.14.08-.15.08-8.13,4.66-8.38,5.53-8.15,6.79.17.84.8,2.13,4.13,5.48,1.18,1.33,2.31,2.47,3.37,3.36-.54.65-1.08,1.3-1.63,1.96-9.7,11.38-18.25,18.58-24.12,20.39-.58.17-1.17.29-1.76.41l-.56.11-.66.13c-.38.08-.76.16-1.16.22-1.23.17-2.58.26-3.96.26-15.62,0-32.49-11.13-37.07-14.35l8.66-13.63c1.89-2.89,4.06-6.14,6.45-9.68,1.98-2.78,4.08-5.74,6.24-8.76,8.6-11.88,19.35-26.69,26.31-35.65l.71-.91c4.52-5.65,9.02-11.04,13.35-16.01,2.9-3.32,5.5-6.22,7.92-8.84.56.07,1.13.2,1.7.38,1.8.69,3.75,1.97,3.97,2.11,3.71,2.73,7.08,7.46,10.05,11.62,4.14,5.81,7.72,10.82,12.13,10.82.91,0,1.81-.22,2.68-.65,7.09-3.58,21.19-15.4,22.04-23.19.22-2.03-.44-3.73-1.91-4.93-.32-.26-.75-.48-1.44-.72-.09-.04-.19-.07-.29-.11l-.32-.09c-.38-.12-.88-.25-1.45-.38-1-.36-2.2-.59-2.33-.61-3.86-1-9.18-2.29-12.08-2.66-6.91-1.94-11.49-4.34-13.88-7.25,3.08.53,6.4.8,9.84.8,1.31,0,2.66-.04,3.99-.12,3.89-.14,7.52-.64,10.75-1.49l.56-.13c.07-.02.14-.04.2-.07,8.92-2.54,14.82-7.83,17.55-15.71,1.15-3.27,1.9-6.6,2.22-9.91.17-.91.23-1.89.19-2.79.16-1.51.19-2.86.08-4.14-1.03-12.06-7.44-20.54-7.71-20.9-.02-.02-.04-.04-.06-.07-4.68-6.81-9.77-10.58-9.99-10.74-.08-.08-5.02-4.47-12.95-7.69-.12-.06-.24-.1-.35-.14-.01,0-.16-.06-.17-.06-.41-.16-.84-.33-1.27-.48-3.32-1.28-6.61-2.07-9.74-2.32-1.47-.18-2.85-.27-4.16-.29h-.02ZM166.94,37.31s-.02-.11-.04-.16c-.78-3.22-.03-6.09,2.32-8.77,2.32-2.67,5.18-4.02,8.51-4.02,5.43,0,10.35,3.56,10.42,3.61h0s4.77,4.39,5.64,9.99c.03.21.05.44.08.68.02.2.03.41.04.6.01.35,0,.71-.02,1.09,0,.14-.02.3-.03.45-.04.35-.1.71-.17,1.07-.36,1.64-1.06,3.17-2.18,4.63-1.94,2.56-4.27,3.88-7.15,4.05-2.51-.3-4.62-.75-6.29-1.35-.18-.06-.36-.1-.54-.1-.02,0-.04,0-.06,0-.34-.15-.67-.3-1.01-.47l-.25-.16c-.19-.11-.38-.22-.57-.35-1.15-.75-2.29-1.57-3.45-2.52-.73-.67-1.47-1.45-2.12-2.24-1.46-1.87-2.47-3.78-3.01-5.61,0-.02-.01-.06-.02-.09l-.08-.3s0-.02,0-.03h0Z"/>
          <path class="cls-29" d="M86.05,187.82c-13.96-1.77-28.71,8.15-37.04,17.51-8.31,9.35,9.31,11.39,9.31,11.39,0,0-19.1-4.68-35.81,14.34,0,0,18.08-23.16,32.44-35.93,14.36-12.78,28.49-9.34,28.49-9.34l2.61,2.03Z"/>
        </g>
      </g>
    </g>
  </g>
</svg>