<?xml version="1.0" encoding="UTF-8"?>
<svg xmlns="http://www.w3.org/2000/svg" xmlns:xlink="http://www.w3.org/1999/xlink" viewBox="0 0 245 296.21">
  <defs>
    <style>
      .cls-1 {
        fill: url(#_ÂÁ_Ï_ÌÌ_È_ËÂÌÚ_1011-5);
      }

      .cls-2 {
        fill: url(#_ÂÁ_Ï_ÌÌ_È_ËÂÌÚ_1011-4);
      }

      .cls-3 {
        fill: url(#_ÂÁ_Ï_ÌÌ_È_ËÂÌÚ_1011-2);
      }

      .cls-4 {
        fill: url(#_ÂÁ_Ï_ÌÌ_È_ËÂÌÚ_1011-7);
      }

      .cls-5 {
        fill: url(#_ÂÁ_Ï_ÌÌ_È_ËÂÌÚ_1011-9);
      }

      .cls-6 {
        fill: url(#_ÂÁ_Ï_ÌÌ_È_ËÂÌÚ_1011-3);
      }

      .cls-7 {
        fill: url(#_ÂÁ_Ï_ÌÌ_È_ËÂÌÚ_1011-6);
      }

      .cls-8 {
        fill: url(#_ÂÁ_Ï_ÌÌ_È_ËÂÌÚ_1011-8);
      }

      .cls-9 {
        fill: url(#_ÂÁ_Ï_ÌÌ_È_ËÂÌÚ_1339-2);
      }

      .cls-10 {
        fill: url(#_ÂÁ_Ï_ÌÌ_È_ËÂÌÚ_230-10);
      }

      .cls-11 {
        fill: url(#_ÂÁ_Ï_ÌÌ_È_ËÂÌÚ_2567-4);
      }

      .cls-12 {
        fill: url(#_ÂÁ_Ï_ÌÌ_È_ËÂÌÚ_2567-2);
      }

      .cls-13 {
        fill: url(#_ÂÁ_Ï_ÌÌ_È_ËÂÌÚ_2567-3);
      }

      .cls-14 {
        fill: url(#_ÂÁ_Ï_ÌÌ_È_ËÂÌÚ_4-2);
      }

      .cls-15 {
        fill: url(#_ÂÁ_Ï_ÌÌ_È_ËÂÌÚ_412);
      }

      .cls-16 {
        fill: url(#_ÂÁ_Ï_ÌÌ_È_ËÂÌÚ_483);
      }

      .cls-17 {
        fill: url(#_ÂÁ_Ï_ÌÌ_È_ËÂÌÚ_472);
      }

      .cls-18 {
        fill: url(#_ÂÁ_Ï_ÌÌ_È_ËÂÌÚ_230);
      }

      .cls-19 {
        fill: url(#_ÂÁ_Ï_ÌÌ_È_ËÂÌÚ_754);
      }

      .cls-20 {
        fill: url(#_ÂÁ_Ï_ÌÌ_È_ËÂÌÚ_455-2);
      }

      .cls-20, .cls-21, .cls-22, .cls-23, .cls-24, .cls-25, .cls-26, .cls-27, .cls-28, .cls-29, .cls-30, .cls-31, .cls-32, .cls-33, .cls-34, .cls-35, .cls-36, .cls-37, .cls-38, .cls-39, .cls-40, .cls-41, .cls-42, .cls-43, .cls-44, .cls-45, .cls-46, .cls-47, .cls-48, .cls-49, .cls-50, .cls-51, .cls-52 {
        mix-blend-mode: multiply;
      }

      .cls-20, .cls-21, .cls-22, .cls-23, .cls-24, .cls-25, .cls-26, .cls-27, .cls-28, .cls-29, .cls-30, .cls-31, .cls-32, .cls-33, .cls-34, .cls-35, .cls-36, .cls-37, .cls-38, .cls-39, .cls-40, .cls-41, .cls-43, .cls-44, .cls-45, .cls-46, .cls-47, .cls-48, .cls-49, .cls-50, .cls-52 {
        opacity: .8;
      }

      .cls-21 {
        fill: url(#_ÂÁ_Ï_ÌÌ_È_ËÂÌÚ_455-4);
      }

      .cls-22 {
        fill: url(#_ÂÁ_Ï_ÌÌ_È_ËÂÌÚ_455-3);
      }

      .cls-23 {
        fill: url(#_ÂÁ_Ï_ÌÌ_È_ËÂÌÚ_438-2);
      }

      .cls-24 {
        fill: url(#_ÂÁ_Ï_ÌÌ_È_ËÂÌÚ_241-4);
      }

      .cls-25 {
        fill: url(#_ÂÁ_Ï_ÌÌ_È_ËÂÌÚ_241-2);
      }

      .cls-26 {
        fill: url(#_ÂÁ_Ï_ÌÌ_È_ËÂÌÚ_241-3);
      }

      .cls-27 {
        fill: url(#_ÂÁ_Ï_ÌÌ_È_ËÂÌÚ_280-3);
      }

      .cls-28 {
        fill: url(#_ÂÁ_Ï_ÌÌ_È_ËÂÌÚ_280-2);
      }

      .cls-53 {
        fill: url(#_ÂÁ_Ï_ÌÌ_È_ËÂÌÚ_230-5);
      }

      .cls-54 {
        fill: url(#_ÂÁ_Ï_ÌÌ_È_ËÂÌÚ_230-9);
      }

      .cls-55 {
        fill: url(#_ÂÁ_Ï_ÌÌ_È_ËÂÌÚ_230-2);
      }

      .cls-56 {
        fill: url(#_ÂÁ_Ï_ÌÌ_È_ËÂÌÚ_230-3);
      }

      .cls-57 {
        fill: url(#_ÂÁ_Ï_ÌÌ_È_ËÂÌÚ_230-4);
      }

      .cls-58 {
        fill: url(#_ÂÁ_Ï_ÌÌ_È_ËÂÌÚ_230-6);
      }

      .cls-59 {
        fill: url(#_ÂÁ_Ï_ÌÌ_È_ËÂÌÚ_230-7);
      }

      .cls-60 {
        fill: url(#_ÂÁ_Ï_ÌÌ_È_ËÂÌÚ_230-8);
      }

      .cls-61 {
        fill: url(#_ÂÁ_Ï_ÌÌ_È_ËÂÌÚ_472-3);
      }

      .cls-62 {
        fill: url(#_ÂÁ_Ï_ÌÌ_È_ËÂÌÚ_472-4);
      }

      .cls-63 {
        fill: url(#_ÂÁ_Ï_ÌÌ_È_ËÂÌÚ_472-2);
      }

      .cls-64 {
        fill: url(#_ÂÁ_Ï_ÌÌ_È_ËÂÌÚ_483-3);
      }

      .cls-65 {
        fill: url(#_ÂÁ_Ï_ÌÌ_È_ËÂÌÚ_483-2);
      }

      .cls-29 {
        fill: url(#_ÂÁ_Ï_ÌÌ_È_ËÂÌÚ_241);
      }

      .cls-30 {
        fill: url(#_ÂÁ_Ï_ÌÌ_È_ËÂÌÚ_5-8);
      }

      .cls-31 {
        fill: url(#_ÂÁ_Ï_ÌÌ_È_ËÂÌÚ_5-9);
      }

      .cls-32 {
        fill: url(#_ÂÁ_Ï_ÌÌ_È_ËÂÌÚ_5-7);
      }

      .cls-33 {
        fill: url(#_ÂÁ_Ï_ÌÌ_È_ËÂÌÚ_505);
      }

      .cls-34 {
        fill: url(#_ÂÁ_Ï_ÌÌ_È_ËÂÌÚ_5-3);
      }

      .cls-35 {
        fill: url(#_ÂÁ_Ï_ÌÌ_È_ËÂÌÚ_5-4);
      }

      .cls-36 {
        fill: url(#_ÂÁ_Ï_ÌÌ_È_ËÂÌÚ_5-6);
      }

      .cls-37 {
        fill: url(#_ÂÁ_Ï_ÌÌ_È_ËÂÌÚ_5-5);
      }

      .cls-38 {
        fill: url(#_ÂÁ_Ï_ÌÌ_È_ËÂÌÚ_5-2);
      }

      .cls-39 {
        fill: url(#_ÂÁ_Ï_ÌÌ_È_ËÂÌÚ_455);
      }

      .cls-40 {
        fill: url(#_ÂÁ_Ï_ÌÌ_È_ËÂÌÚ_280);
      }

      .cls-41 {
        fill: url(#_ÂÁ_Ï_ÌÌ_È_ËÂÌÚ_438);
      }

      .cls-66 {
        fill: url(#_ÂÁ_Ï_ÌÌ_È_ËÂÌÚ_6);
      }

      .cls-67 {
        fill: url(#_ÂÁ_Ï_ÌÌ_È_ËÂÌÚ_4);
      }

      .cls-68 {
        fill: url(#_ÂÁ_Ï_ÌÌ_È_ËÂÌÚ_204-2);
      }

      .cls-68, .cls-69, .cls-70, .cls-71, .cls-72, .cls-73, .cls-74, .cls-75, .cls-76, .cls-77, .cls-78, .cls-79, .cls-80, .cls-81, .cls-82, .cls-83, .cls-84, .cls-85, .cls-86, .cls-87, .cls-88, .cls-89, .cls-90 {
        mix-blend-mode: screen;
      }

      .cls-69 {
        fill: url(#_ÂÁ_Ï_ÌÌ_È_ËÂÌÚ_507-2);
      }

      .cls-70 {
        fill: url(#_ÂÁ_Ï_ÌÌ_È_ËÂÌÚ_342-5);
      }

      .cls-71 {
        fill: url(#_ÂÁ_Ï_ÌÌ_È_ËÂÌÚ_342-2);
      }

      .cls-72 {
        fill: url(#_ÂÁ_Ï_ÌÌ_È_ËÂÌÚ_342-4);
      }

      .cls-73 {
        fill: url(#_ÂÁ_Ï_ÌÌ_È_ËÂÌÚ_342-3);
      }

      .cls-91 {
        isolation: isolate;
      }

      .cls-74 {
        fill: url(#_ÂÁ_Ï_ÌÌ_È_ËÂÌÚ_1718-2);
      }

      .cls-75 {
        fill: url(#_ÂÁ_Ï_ÌÌ_È_ËÂÌÚ_1718-3);
      }

      .cls-76 {
        fill: url(#_ÂÁ_Ï_ÌÌ_È_ËÂÌÚ_1718-4);
      }

      .cls-92 {
        fill: #ffde63;
      }

      .cls-93 {
        fill: #fffb60;
        opacity: .3;
      }

      .cls-93, .cls-94, .cls-95 {
        mix-blend-mode: soft-light;
      }

      .cls-96 {
        fill: url(#_ÂÁ_Ï_ÌÌ_È_ËÂÌÚ_1011-10);
      }

      .cls-77 {
        fill: url(#_ÂÁ_Ï_ÌÌ_È_ËÂÌÚ_1718);
      }

      .cls-97 {
        fill: #ffffb3;
      }

      .cls-98 {
        fill: #681e26;
      }

      .cls-99 {
        fill: #ffd46b;
      }

      .cls-43 {
        fill: url(#_ÂÁ_Ï_ÌÌ_È_ËÂÌÚ_5-13);
      }

      .cls-44 {
        fill: url(#_ÂÁ_Ï_ÌÌ_È_ËÂÌÚ_5-14);
      }

      .cls-45 {
        fill: url(#_ÂÁ_Ï_ÌÌ_È_ËÂÌÚ_5-15);
      }

      .cls-46 {
        fill: url(#_ÂÁ_Ï_ÌÌ_È_ËÂÌÚ_5-16);
      }

      .cls-47 {
        fill: url(#_ÂÁ_Ï_ÌÌ_È_ËÂÌÚ_5-10);
      }

      .cls-48 {
        fill: url(#_ÂÁ_Ï_ÌÌ_È_ËÂÌÚ_5-11);
      }

      .cls-49 {
        fill: url(#_ÂÁ_Ï_ÌÌ_È_ËÂÌÚ_5-12);
      }

      .cls-50 {
        fill: url(#_ÂÁ_Ï_ÌÌ_È_ËÂÌÚ_1418);
      }

      .cls-100 {
        fill: #ffb850;
      }

      .cls-78 {
        fill: url(#_ÂÁ_Ï_ÌÌ_È_ËÂÌÚ_257-3);
      }

      .cls-78, .cls-79, .cls-80, .cls-81, .cls-82, .cls-83 {
        opacity: .5;
      }

      .cls-79 {
        fill: url(#_ÂÁ_Ï_ÌÌ_È_ËÂÌÚ_257-2);
      }

      .cls-80 {
        fill: url(#_ÂÁ_Ï_ÌÌ_È_ËÂÌÚ_257-4);
      }

      .cls-81 {
        fill: url(#_ÂÁ_Ï_ÌÌ_È_ËÂÌÚ_257-6);
      }

      .cls-82 {
        fill: url(#_ÂÁ_Ï_ÌÌ_È_ËÂÌÚ_257-5);
      }

      .cls-94 {
        fill: #7ef7ff;
      }

      .cls-94, .cls-95 {
        opacity: .2;
      }

      .cls-83 {
        fill: url(#_ÂÁ_Ï_ÌÌ_È_ËÂÌÚ_257);
      }

      .cls-84 {
        fill: url(#_ÂÁ_Ï_ÌÌ_È_ËÂÌÚ_204);
      }

      .cls-85 {
        fill: url(#_ÂÁ_Ï_ÌÌ_È_ËÂÌÚ_507);
      }

      .cls-86 {
        fill: url(#_ÂÁ_Ï_ÌÌ_È_ËÂÌÚ_575);
      }

      .cls-87 {
        fill: url(#_ÂÁ_Ï_ÌÌ_È_ËÂÌÚ_406);
      }

      .cls-88 {
        fill: url(#_ÂÁ_Ï_ÌÌ_È_ËÂÌÚ_342);
      }

      .cls-89 {
        fill: url(#_ÂÁ_Ï_ÌÌ_È_ËÂÌÚ_344);
      }

      .cls-90 {
        fill: url(#_ÂÁ_Ï_ÌÌ_È_ËÂÌÚ_604);
      }

      .cls-51 {
        fill: url(#_ÂÁ_Ï_ÌÌ_È_ËÂÌÚ_1900);
      }

      .cls-101 {
        fill: url(#_ÂÁ_Ï_ÌÌ_È_ËÂÌÚ_2503);
      }

      .cls-102 {
        fill: url(#_ÂÁ_Ï_ÌÌ_È_ËÂÌÚ_2568);
      }

      .cls-103 {
        fill: url(#_ÂÁ_Ï_ÌÌ_È_ËÂÌÚ_2567);
      }

      .cls-104 {
        fill: url(#_ÂÁ_Ï_ÌÌ_È_ËÂÌÚ_24-3);
      }

      .cls-105 {
        fill: url(#_ÂÁ_Ï_ÌÌ_È_ËÂÌÚ_24-2);
      }

      .cls-106 {
        fill: url(#_ÂÁ_Ï_ÌÌ_È_ËÂÌÚ_1011);
      }

      .cls-107 {
        fill: url(#_ÂÁ_Ï_ÌÌ_È_ËÂÌÚ_1339);
      }

      .cls-95 {
        fill: #f7b360;
      }

      .cls-108 {
        fill: url(#_ÂÁ_Ï_ÌÌ_È_ËÂÌÚ_24);
      }

      .cls-52 {
        fill: url(#_ÂÁ_Ï_ÌÌ_È_ËÂÌÚ_5);
      }
    </style>
    <linearGradient id="_ÂÁ_Ï_ÌÌ_È_ËÂÌÚ_1900" data-name="¡ÂÁ˚ÏˇÌÌ˚È „‡‰ËÂÌÚ 1900" x1="5323.89" y1="-61.62" x2="5323.89" y2="-319.69" gradientTransform="translate(5425.86 -361.93) rotate(172.37) scale(1 -1)" gradientUnits="userSpaceOnUse">
      <stop offset="0" stop-color="#e7a4df"/>
      <stop offset="1" stop-color="#a12a9a"/>
    </linearGradient>
    <linearGradient id="_ÂÁ_Ï_ÌÌ_È_ËÂÌÚ_1011" data-name="¡ÂÁ˚ÏˇÌÌ˚È „‡‰ËÂÌÚ 1011" x1="2552.22" y1="-854.25" x2="2552.22" y2="-921.66" gradientTransform="translate(2288.14 -1233.3) rotate(127.39) scale(1 -1)" gradientUnits="userSpaceOnUse">
      <stop offset="0" stop-color="#a70b00"/>
      <stop offset="1" stop-color="#ff8e00"/>
    </linearGradient>
    <linearGradient id="_ÂÁ_Ï_ÌÌ_È_ËÂÌÚ_2503" data-name="¡ÂÁ˚ÏˇÌÌ˚È „‡‰ËÂÌÚ 2503" x1="2543.25" y1="-854.25" x2="2543.25" y2="-921.66" gradientTransform="translate(2288.14 -1233.3) rotate(127.39) scale(1 -1)" gradientUnits="userSpaceOnUse">
      <stop offset="0" stop-color="#ff6500"/>
      <stop offset="1" stop-color="#ffca00"/>
    </linearGradient>
    <linearGradient id="_ÂÁ_Ï_ÌÌ_È_ËÂÌÚ_280" data-name="¡ÂÁ˚ÏˇÌÌ˚È „‡‰ËÂÌÚ 280" x1="3586.63" y1="-926.68" x2="3586.63" y2="-984.76" gradientTransform="translate(3466.39 -1179.13) rotate(142.41) scale(1 -1)" gradientUnits="userSpaceOnUse">
      <stop offset="0" stop-color="#a12a9a"/>
      <stop offset="1" stop-color="#c586a0"/>
    </linearGradient>
    <linearGradient id="_ÂÁ_Ï_ÌÌ_È_ËÂÌÚ_24" data-name="¡ÂÁ˚ÏˇÌÌ˚È „‡‰ËÂÌÚ 24" x1="3559.33" y1="-933.76" x2="3559.33" y2="-1004.94" gradientTransform="translate(3466.39 -1179.13) rotate(142.41) scale(1 -1)" gradientUnits="userSpaceOnUse">
      <stop offset="0" stop-color="#831f24"/>
      <stop offset="1" stop-color="#bb540e"/>
    </linearGradient>
    <linearGradient id="_ÂÁ_Ï_ÌÌ_È_ËÂÌÚ_472" data-name="¡ÂÁ˚ÏˇÌÌ˚È „‡‰ËÂÌÚ 472" x1="3535" y1="-936.53" x2="3535" y2="-1015.07" gradientTransform="translate(3466.39 -1179.13) rotate(142.41) scale(1 -1)" gradientUnits="userSpaceOnUse">
      <stop offset="0" stop-color="#a70b00"/>
      <stop offset=".59" stop-color="#eb7000"/>
      <stop offset="1" stop-color="#ffb100"/>
    </linearGradient>
    <linearGradient id="_ÂÁ_Ï_ÌÌ_È_ËÂÌÚ_483" data-name="¡ÂÁ˚ÏˇÌÌ˚È „‡‰ËÂÌÚ 483" x1="3527.97" y1="-938.74" x2="3527.97" y2="-1015.08" gradientTransform="translate(3466.39 -1179.13) rotate(142.41) scale(1 -1)" gradientUnits="userSpaceOnUse">
      <stop offset="0" stop-color="#ff6500"/>
      <stop offset="1" stop-color="#ffdb00"/>
    </linearGradient>
    <linearGradient id="_ÂÁ_Ï_ÌÌ_È_ËÂÌÚ_472-2" data-name="¡ÂÁ˚ÏˇÌÌ˚È „‡‰ËÂÌÚ 472" x1="2481.71" y1="-852.75" x2="2481.71" y2="-925.08" gradientTransform="translate(2288.14 -1233.3) rotate(127.39) scale(1 -1)" xlink:href="#_ÂÁ_Ï_ÌÌ_È_ËÂÌÚ_472"/>
    <linearGradient id="_ÂÁ_Ï_ÌÌ_È_ËÂÌÚ_483-2" data-name="¡ÂÁ˚ÏˇÌÌ˚È „‡‰ËÂÌÚ 483" x1="2473.42" y1="-852.75" x2="2473.42" y2="-925.08" gradientTransform="translate(2288.14 -1233.3) rotate(127.39) scale(1 -1)" xlink:href="#_ÂÁ_Ï_ÌÌ_È_ËÂÌÚ_483"/>
    <linearGradient id="_ÂÁ_Ï_ÌÌ_È_ËÂÌÚ_24-2" data-name="¡ÂÁ˚ÏˇÌÌ˚È „‡‰ËÂÌÚ 24" x1="3487.71" y1="-946.61" x2="3487.71" y2="-1031.25" xlink:href="#_ÂÁ_Ï_ÌÌ_È_ËÂÌÚ_24"/>
    <linearGradient id="_ÂÁ_Ï_ÌÌ_È_ËÂÌÚ_5" data-name="¡ÂÁ˚ÏˇÌÌ˚È „‡‰ËÂÌÚ 5" x1="3503.7" y1="-950.35" x2="3503.7" y2="-1020.82" gradientTransform="translate(3466.39 -1179.13) rotate(142.41) scale(1 -1)" gradientUnits="userSpaceOnUse">
      <stop offset="0" stop-color="#a12a9a"/>
      <stop offset="1" stop-color="#c46a86"/>
    </linearGradient>
    <linearGradient id="_ÂÁ_Ï_ÌÌ_È_ËÂÌÚ_472-3" data-name="¡ÂÁ˚ÏˇÌÌ˚È „‡‰ËÂÌÚ 472" x1="3454.71" y1="-952.92" x2="3454.71" y2="-1041.9" xlink:href="#_ÂÁ_Ï_ÌÌ_È_ËÂÌÚ_472"/>
    <linearGradient id="_ÂÁ_Ï_ÌÌ_È_ËÂÌÚ_483-3" data-name="¡ÂÁ˚ÏˇÌÌ˚È „‡‰ËÂÌÚ 483" x1="2390.84" y1="-846.47" x2="2390.84" y2="-931.37" gradientTransform="translate(2288.14 -1233.3) rotate(127.39) scale(1 -1)" xlink:href="#_ÂÁ_Ï_ÌÌ_È_ËÂÌÚ_483"/>
    <linearGradient id="_ÂÁ_Ï_ÌÌ_È_ËÂÌÚ_24-3" data-name="¡ÂÁ˚ÏˇÌÌ˚È „‡‰ËÂÌÚ 24" x1="3402.12" y1="-960.04" x2="3402.12" y2="-1073.82" xlink:href="#_ÂÁ_Ï_ÌÌ_È_ËÂÌÚ_24"/>
    <linearGradient id="_ÂÁ_Ï_ÌÌ_È_ËÂÌÚ_280-2" data-name="¡ÂÁ˚ÏˇÌÌ˚È „‡‰ËÂÌÚ 280" x1="3445.13" y1="-959.11" x2="3445.13" y2="-1039.01" xlink:href="#_ÂÁ_Ï_ÌÌ_È_ËÂÌÚ_280"/>
    <linearGradient id="_ÂÁ_Ï_ÌÌ_È_ËÂÌÚ_5-2" data-name="¡ÂÁ˚ÏˇÌÌ˚È „‡‰ËÂÌÚ 5" x1="3403.78" y1="-960.04" x2="3403.78" y2="-1072.83" xlink:href="#_ÂÁ_Ï_ÌÌ_È_ËÂÌÚ_5"/>
    <linearGradient id="_ÂÁ_Ï_ÌÌ_È_ËÂÌÚ_230" data-name="¡ÂÁ˚ÏˇÌÌ˚È „‡‰ËÂÌÚ 230" x1="3423.7" y1="-1008.33" x2="3423.7" y2="-1051.51" gradientTransform="translate(3466.39 -1179.13) rotate(142.41) scale(1 -1)" gradientUnits="userSpaceOnUse">
      <stop offset="0" stop-color="#ffd6c9"/>
      <stop offset="1" stop-color="#db9fb8"/>
    </linearGradient>
    <linearGradient id="_ÂÁ_Ï_ÌÌ_È_ËÂÌÚ_230-2" data-name="¡ÂÁ˚ÏˇÌÌ˚È „‡‰ËÂÌÚ 230" x1="3408.69" y1="-1020.86" x2="3408.69" y2="-1043.31" xlink:href="#_ÂÁ_Ï_ÌÌ_È_ËÂÌÚ_230"/>
    <linearGradient id="_ÂÁ_Ï_ÌÌ_È_ËÂÌÚ_230-3" data-name="¡ÂÁ˚ÏˇÌÌ˚È „‡‰ËÂÌÚ 230" x1="3416.75" y1="-979.8" x2="3416.75" y2="-1001.69" xlink:href="#_ÂÁ_Ï_ÌÌ_È_ËÂÌÚ_230"/>
    <linearGradient id="_ÂÁ_Ï_ÌÌ_È_ËÂÌÚ_230-4" data-name="¡ÂÁ˚ÏˇÌÌ˚È „‡‰ËÂÌÚ 230" x1="3511.08" y1="-985.21" x2="3511.08" y2="-1011.25" xlink:href="#_ÂÁ_Ï_ÌÌ_È_ËÂÌÚ_230"/>
    <linearGradient id="_ÂÁ_Ï_ÌÌ_È_ËÂÌÚ_230-5" data-name="¡ÂÁ˚ÏˇÌÌ˚È „‡‰ËÂÌÚ 230" x1="3509.73" y1="-974.85" x2="3509.73" y2="-985.23" xlink:href="#_ÂÁ_Ï_ÌÌ_È_ËÂÌÚ_230"/>
    <linearGradient id="_ÂÁ_Ï_ÌÌ_È_ËÂÌÚ_230-6" data-name="¡ÂÁ˚ÏˇÌÌ˚È „‡‰ËÂÌÚ 230" x1="3508.16" y1="-969.73" x2="3508.16" y2="-979.53" xlink:href="#_ÂÁ_Ï_ÌÌ_È_ËÂÌÚ_230"/>
    <linearGradient id="_ÂÁ_Ï_ÌÌ_È_ËÂÌÚ_230-7" data-name="¡ÂÁ˚ÏˇÌÌ˚È „‡‰ËÂÌÚ 230" x1="3499.08" y1="-994.85" x2="3499.08" y2="-1004.94" xlink:href="#_ÂÁ_Ï_ÌÌ_È_ËÂÌÚ_230"/>
    <linearGradient id="_ÂÁ_Ï_ÌÌ_È_ËÂÌÚ_230-8" data-name="¡ÂÁ˚ÏˇÌÌ˚È „‡‰ËÂÌÚ 230" x1="3578.51" y1="-977.96" x2="3578.51" y2="-988.94" xlink:href="#_ÂÁ_Ï_ÌÌ_È_ËÂÌÚ_230"/>
    <linearGradient id="_ÂÁ_Ï_ÌÌ_È_ËÂÌÚ_230-9" data-name="¡ÂÁ˚ÏˇÌÌ˚È „‡‰ËÂÌÚ 230" x1="3578.93" y1="-965.69" x2="3578.93" y2="-980.56" xlink:href="#_ÂÁ_Ï_ÌÌ_È_ËÂÌÚ_230"/>
    <linearGradient id="_ÂÁ_Ï_ÌÌ_È_ËÂÌÚ_230-10" data-name="¡ÂÁ˚ÏˇÌÌ˚È „‡‰ËÂÌÚ 230" x1="3577.92" y1="-955.98" x2="3577.92" y2="-969.72" xlink:href="#_ÂÁ_Ï_ÌÌ_È_ËÂÌÚ_230"/>
    <linearGradient id="_ÂÁ_Ï_ÌÌ_È_ËÂÌÚ_472-4" data-name="¡ÂÁ˚ÏˇÌÌ˚È „‡‰ËÂÌÚ 472" x1="3353.72" y1="-963.81" x2="3353.72" y2="-1085.92" xlink:href="#_ÂÁ_Ï_ÌÌ_È_ËÂÌÚ_472"/>
    <linearGradient id="_ÂÁ_Ï_ÌÌ_È_ËÂÌÚ_754" data-name="¡ÂÁ˚ÏˇÌÌ˚È „‡‰ËÂÌÚ 754" x1="3342.8" y1="-967.27" x2="3342.8" y2="-1085.99" gradientTransform="translate(3466.39 -1179.13) rotate(142.41) scale(1 -1)" gradientUnits="userSpaceOnUse">
      <stop offset="0" stop-color="#f80"/>
      <stop offset="1" stop-color="#ffca00"/>
    </linearGradient>
    <linearGradient id="_ÂÁ_Ï_ÌÌ_È_ËÂÌÚ_280-3" data-name="¡ÂÁ˚ÏˇÌÌ˚È „‡‰ËÂÌÚ 280" x1="3523.5" y1="-944.08" x2="3523.5" y2="-993.21" xlink:href="#_ÂÁ_Ï_ÌÌ_È_ËÂÌÚ_280"/>
    <linearGradient id="_ÂÁ_Ï_ÌÌ_È_ËÂÌÚ_2567" data-name="¡ÂÁ˚ÏˇÌÌ˚È „‡‰ËÂÌÚ 2567" x1="3442.38" y1="-944.75" x2="3438.9" y2="-1023.97" gradientTransform="translate(3466.39 -1179.13) rotate(142.41) scale(1 -1)" gradientUnits="userSpaceOnUse">
      <stop offset="0" stop-color="#ff6500"/>
      <stop offset="1" stop-color="#ff9a00"/>
    </linearGradient>
    <linearGradient id="_ÂÁ_Ï_ÌÌ_È_ËÂÌÚ_1011-2" data-name="¡ÂÁ˚ÏˇÌÌ˚È „‡‰ËÂÌÚ 1011" x1="2389.55" y1="-851.87" x2="2386.98" y2="-910.36" xlink:href="#_ÂÁ_Ï_ÌÌ_È_ËÂÌÚ_1011"/>
    <linearGradient id="_ÂÁ_Ï_ÌÌ_È_ËÂÌÚ_2567-2" data-name="¡ÂÁ˚ÏˇÌÌ˚È „‡‰ËÂÌÚ 2567" x1="2385.69" y1="-850.86" x2="2383.12" y2="-909.35" gradientTransform="translate(2288.14 -1233.3) rotate(127.39) scale(1 -1)" xlink:href="#_ÂÁ_Ï_ÌÌ_È_ËÂÌÚ_2567"/>
    <linearGradient id="_ÂÁ_Ï_ÌÌ_È_ËÂÌÚ_1011-3" data-name="¡ÂÁ˚ÏˇÌÌ˚È „‡‰ËÂÌÚ 1011" x1="2388.2" y1="-850.86" x2="2385.63" y2="-909.34" xlink:href="#_ÂÁ_Ï_ÌÌ_È_ËÂÌÚ_1011"/>
    <linearGradient id="_ÂÁ_Ï_ÌÌ_È_ËÂÌÚ_1011-4" data-name="¡ÂÁ˚ÏˇÌÌ˚È „‡‰ËÂÌÚ 1011" x1="3397.98" y1="-959.38" x2="3398.97" y2="-1063.86" gradientTransform="translate(3466.39 -1179.13) rotate(142.41) scale(1 -1)" xlink:href="#_ÂÁ_Ï_ÌÌ_È_ËÂÌÚ_1011"/>
    <linearGradient id="_ÂÁ_Ï_ÌÌ_È_ËÂÌÚ_4" data-name="¡ÂÁ˚ÏˇÌÌ˚È „‡‰ËÂÌÚ 4" x1="2336.89" y1="-869.58" x2="2335.72" y2="-896.23" gradientTransform="translate(2288.14 -1233.3) rotate(127.39) scale(1 -1)" gradientUnits="userSpaceOnUse">
      <stop offset="0" stop-color="#ff8e00"/>
      <stop offset="1" stop-color="#ca3400"/>
    </linearGradient>
    <linearGradient id="_ÂÁ_Ï_ÌÌ_È_ËÂÌÚ_1339" data-name="¡ÂÁ˚ÏˇÌÌ˚È „‡‰ËÂÌÚ 1339" x1="2336.07" y1="-886.4" x2="2335.61" y2="-899.46" gradientTransform="translate(2288.14 -1233.3) rotate(127.39) scale(1 -1)" gradientUnits="userSpaceOnUse">
      <stop offset="0" stop-color="#4cc7ff"/>
      <stop offset="1" stop-color="#0061ff"/>
    </linearGradient>
    <linearGradient id="_ÂÁ_Ï_ÌÌ_È_ËÂÌÚ_1011-5" data-name="¡ÂÁ˚ÏˇÌÌ˚È „‡‰ËÂÌÚ 1011" x1="3505.24" y1="-940.72" x2="3505.62" y2="-994.43" gradientTransform="translate(3466.39 -1179.13) rotate(142.41) scale(1 -1)" xlink:href="#_ÂÁ_Ï_ÌÌ_È_ËÂÌÚ_1011"/>
    <linearGradient id="_ÂÁ_Ï_ÌÌ_È_ËÂÌÚ_5-3" data-name="¡ÂÁ˚ÏˇÌÌ˚È „‡‰ËÂÌÚ 5" x1="3505.37" y1="-944.49" x2="3505.37" y2="-957.97" xlink:href="#_ÂÁ_Ï_ÌÌ_È_ËÂÌÚ_5"/>
    <linearGradient id="_ÂÁ_Ï_ÌÌ_È_ËÂÌÚ_2567-3" data-name="¡ÂÁ˚ÏˇÌÌ˚È „‡‰ËÂÌÚ 2567" x1="3502.89" y1="-951.17" x2="3503.01" y2="-962.03" xlink:href="#_ÂÁ_Ï_ÌÌ_È_ËÂÌÚ_2567"/>
    <linearGradient id="_ÂÁ_Ï_ÌÌ_È_ËÂÌÚ_2567-4" data-name="¡ÂÁ˚ÏˇÌÌ˚È „‡‰ËÂÌÚ 2567" x1="2462.77" y1="-851.65" x2="2465.99" y2="-924.08" gradientTransform="translate(2288.14 -1233.3) rotate(127.39) scale(1 -1)" xlink:href="#_ÂÁ_Ï_ÌÌ_È_ËÂÌÚ_2567"/>
    <linearGradient id="_ÂÁ_Ï_ÌÌ_È_ËÂÌÚ_2568" data-name="¡ÂÁ˚ÏˇÌÌ˚È „‡‰ËÂÌÚ 2568" x1="2462.93" y1="6928.61" x2="2463.14" y2="6908.5" gradientTransform="translate(7057.03 2410.88) rotate(127.39)" gradientUnits="userSpaceOnUse">
      <stop offset="0" stop-color="#ff8e00"/>
      <stop offset="1" stop-color="#a70b00"/>
    </linearGradient>
    <linearGradient id="_ÂÁ_Ï_ÌÌ_È_ËÂÌÚ_1339-2" data-name="¡ÂÁ˚ÏˇÌÌ˚È „‡‰ËÂÌÚ 1339" x1="2463.76" y1="-916.59" x2="2463.3" y2="-929.62" xlink:href="#_ÂÁ_Ï_ÌÌ_È_ËÂÌÚ_1339"/>
    <linearGradient id="_ÂÁ_Ï_ÌÌ_È_ËÂÌÚ_6" data-name="¡ÂÁ˚ÏˇÌÌ˚È „‡‰ËÂÌÚ 6" x1="2464.13" y1="6986.91" x2="2463.67" y2="6973.87" gradientTransform="translate(7155.55 2486.17) rotate(127.39)" gradientUnits="userSpaceOnUse">
      <stop offset="0" stop-color="#0061ff"/>
      <stop offset="1" stop-color="#4cc7ff"/>
    </linearGradient>
    <linearGradient id="_ÂÁ_Ï_ÌÌ_È_ËÂÌÚ_1011-6" data-name="¡ÂÁ˚ÏˇÌÌ˚È „‡‰ËÂÌÚ 1011" x1="3606.06" y1="-984.77" x2="3606.06" y2="-994.06" gradientTransform="translate(3466.39 -1179.13) rotate(142.41) scale(1 -1)" xlink:href="#_ÂÁ_Ï_ÌÌ_È_ËÂÌÚ_1011"/>
    <linearGradient id="_ÂÁ_Ï_ÌÌ_È_ËÂÌÚ_1011-7" data-name="¡ÂÁ˚ÏˇÌÌ˚È „‡‰ËÂÌÚ 1011" x1="3613.83" y1="-966.94" x2="3613.83" y2="-979.28" gradientTransform="translate(3466.39 -1179.13) rotate(142.41) scale(1 -1)" xlink:href="#_ÂÁ_Ï_ÌÌ_È_ËÂÌÚ_1011"/>
    <linearGradient id="_ÂÁ_Ï_ÌÌ_È_ËÂÌÚ_1011-8" data-name="¡ÂÁ˚ÏˇÌÌ˚È „‡‰ËÂÌÚ 1011" x1="3589.35" y1="-921.12" x2="3589.35" y2="-927.31" gradientTransform="translate(3466.39 -1179.13) rotate(142.41) scale(1 -1)" xlink:href="#_ÂÁ_Ï_ÌÌ_È_ËÂÌÚ_1011"/>
    <linearGradient id="_ÂÁ_Ï_ÌÌ_È_ËÂÌÚ_1011-9" data-name="¡ÂÁ˚ÏˇÌÌ˚È „‡‰ËÂÌÚ 1011" x1="3603.64" y1="-929.67" x2="3603.64" y2="-940.45" gradientTransform="translate(3466.39 -1179.13) rotate(142.41) scale(1 -1)" xlink:href="#_ÂÁ_Ï_ÌÌ_È_ËÂÌÚ_1011"/>
    <linearGradient id="_ÂÁ_Ï_ÌÌ_È_ËÂÌÚ_1011-10" data-name="¡ÂÁ˚ÏˇÌÌ˚È „‡‰ËÂÌÚ 1011" x1="3611.39" y1="-945.81" x2="3611.39" y2="-958.54" gradientTransform="translate(3466.39 -1179.13) rotate(142.41) scale(1 -1)" xlink:href="#_ÂÁ_Ï_ÌÌ_È_ËÂÌÚ_1011"/>
    <linearGradient id="_ÂÁ_Ï_ÌÌ_È_ËÂÌÚ_204" data-name="¡ÂÁ˚ÏˇÌÌ˚È „‡‰ËÂÌÚ 204" x1="3342.84" y1="-967.27" x2="3342.84" y2="-1084.7" gradientTransform="translate(3466.39 -1179.13) rotate(142.41) scale(1 -1)" gradientUnits="userSpaceOnUse">
      <stop offset="0" stop-color="#000"/>
      <stop offset="1" stop-color="#fff1d9"/>
    </linearGradient>
    <linearGradient id="_ÂÁ_Ï_ÌÌ_È_ËÂÌÚ_5-4" data-name="¡ÂÁ˚ÏˇÌÌ˚È „‡‰ËÂÌÚ 5" x1="3573.5" y1="-933.76" x2="3573.5" y2="-995.75" xlink:href="#_ÂÁ_Ï_ÌÌ_È_ËÂÌÚ_5"/>
    <linearGradient id="_ÂÁ_Ï_ÌÌ_È_ËÂÌÚ_257" data-name="¡ÂÁ˚ÏˇÌÌ˚È „‡‰ËÂÌÚ 257" x1="3565.92" y1="-935.04" x2="3565.92" y2="-947.23" gradientTransform="translate(3466.39 -1179.13) rotate(142.41) scale(1 -1)" gradientUnits="userSpaceOnUse">
      <stop offset="0" stop-color="#6a47fb"/>
      <stop offset="1" stop-color="#000"/>
    </linearGradient>
    <linearGradient id="_ÂÁ_Ï_ÌÌ_È_ËÂÌÚ_257-2" data-name="¡ÂÁ˚ÏˇÌÌ˚È „‡‰ËÂÌÚ 257" x1="3403.69" y1="-961.6" x2="3403.69" y2="-973.71" xlink:href="#_ÂÁ_Ï_ÌÌ_È_ËÂÌÚ_257"/>
    <linearGradient id="_ÂÁ_Ï_ÌÌ_È_ËÂÌÚ_5-5" data-name="¡ÂÁ˚ÏˇÌÌ˚È „‡‰ËÂÌÚ 5" x1="3458.62" y1="-952.92" x2="3458.62" y2="-996.14" xlink:href="#_ÂÁ_Ï_ÌÌ_È_ËÂÌÚ_5"/>
    <linearGradient id="_ÂÁ_Ï_ÌÌ_È_ËÂÌÚ_5-6" data-name="¡ÂÁ˚ÏˇÌÌ˚È „‡‰ËÂÌÚ 5" x1="3483.2" y1="-1003.55" x2="3483.2" y2="-1033.28" xlink:href="#_ÂÁ_Ï_ÌÌ_È_ËÂÌÚ_5"/>
    <linearGradient id="_ÂÁ_Ï_ÌÌ_È_ËÂÌÚ_5-7" data-name="¡ÂÁ˚ÏˇÌÌ˚È „‡‰ËÂÌÚ 5" x1="3535.23" y1="-936.53" x2="3535.23" y2="-1008.9" xlink:href="#_ÂÁ_Ï_ÌÌ_È_ËÂÌÚ_5"/>
    <linearGradient id="_ÂÁ_Ï_ÌÌ_È_ËÂÌÚ_5-8" data-name="¡ÂÁ˚ÏˇÌÌ˚È „‡‰ËÂÌÚ 5" x1="3372.03" y1="-963.81" x2="3372.03" y2="-1019.81" xlink:href="#_ÂÁ_Ï_ÌÌ_È_ËÂÌÚ_5"/>
    <linearGradient id="_ÂÁ_Ï_ÌÌ_È_ËÂÌÚ_257-3" data-name="¡ÂÁ˚ÏˇÌÌ˚È „‡‰ËÂÌÚ 257" x1="3450.89" y1="-952.92" x2="3450.89" y2="-965.53" xlink:href="#_ÂÁ_Ï_ÌÌ_È_ËÂÌÚ_257"/>
    <linearGradient id="_ÂÁ_Ï_ÌÌ_È_ËÂÌÚ_257-4" data-name="¡ÂÁ˚ÏˇÌÌ˚È „‡‰ËÂÌÚ 257" x1="3345.53" y1="-963.82" x2="3345.53" y2="-973.59" xlink:href="#_ÂÁ_Ï_ÌÌ_È_ËÂÌÚ_257"/>
    <linearGradient id="_ÂÁ_Ï_ÌÌ_È_ËÂÌÚ_257-5" data-name="¡ÂÁ˚ÏˇÌÌ˚È „‡‰ËÂÌÚ 257" x1="3524.61" y1="-942.43" x2="3524.61" y2="-950.74" xlink:href="#_ÂÁ_Ï_ÌÌ_È_ËÂÌÚ_257"/>
    <linearGradient id="_ÂÁ_Ï_ÌÌ_È_ËÂÌÚ_257-6" data-name="¡ÂÁ˚ÏˇÌÌ˚È „‡‰ËÂÌÚ 257" x1="3531.59" y1="-936.77" x2="3531.59" y2="-945.61" xlink:href="#_ÂÁ_Ï_ÌÌ_È_ËÂÌÚ_257"/>
    <linearGradient id="_ÂÁ_Ï_ÌÌ_È_ËÂÌÚ_5-9" data-name="¡ÂÁ˚ÏˇÌÌ˚È „‡‰ËÂÌÚ 5" x1="3586.55" y1="-932.5" x2="3586.55" y2="-980.24" xlink:href="#_ÂÁ_Ï_ÌÌ_È_ËÂÌÚ_5"/>
    <linearGradient id="_ÂÁ_Ï_ÌÌ_È_ËÂÌÚ_5-10" data-name="¡ÂÁ˚ÏˇÌÌ˚È „‡‰ËÂÌÚ 5" x1="3611.39" y1="-945.81" x2="3611.39" y2="-957.03" xlink:href="#_ÂÁ_Ï_ÌÌ_È_ËÂÌÚ_5"/>
    <linearGradient id="_ÂÁ_Ï_ÌÌ_È_ËÂÌÚ_5-11" data-name="¡ÂÁ˚ÏˇÌÌ˚È „‡‰ËÂÌÚ 5" x1="3613.83" y1="-966.94" x2="3613.83" y2="-977.26" xlink:href="#_ÂÁ_Ï_ÌÌ_È_ËÂÌÚ_5"/>
    <linearGradient id="_ÂÁ_Ï_ÌÌ_È_ËÂÌÚ_5-12" data-name="¡ÂÁ˚ÏˇÌÌ˚È „‡‰ËÂÌÚ 5" x1="3606.06" y1="-984.77" x2="3606.06" y2="-992.53" xlink:href="#_ÂÁ_Ï_ÌÌ_È_ËÂÌÚ_5"/>
    <linearGradient id="_ÂÁ_Ï_ÌÌ_È_ËÂÌÚ_5-13" data-name="¡ÂÁ˚ÏˇÌÌ˚È „‡‰ËÂÌÚ 5" x1="3603.64" y1="-929.67" x2="3603.64" y2="-938.45" xlink:href="#_ÂÁ_Ï_ÌÌ_È_ËÂÌÚ_5"/>
    <linearGradient id="_ÂÁ_Ï_ÌÌ_È_ËÂÌÚ_5-14" data-name="¡ÂÁ˚ÏˇÌÌ˚È „‡‰ËÂÌÚ 5" x1="3589.35" y1="-921.12" x2="3589.35" y2="-927.1" xlink:href="#_ÂÁ_Ï_ÌÌ_È_ËÂÌÚ_5"/>
    <linearGradient id="_ÂÁ_Ï_ÌÌ_È_ËÂÌÚ_1418" data-name="¡ÂÁ˚ÏˇÌÌ˚È „‡‰ËÂÌÚ 1418" x1="3434.56" y1="-999.65" x2="3434.56" y2="-1040.67" gradientTransform="translate(3466.39 -1179.13) rotate(142.41) scale(1 -1)" gradientUnits="userSpaceOnUse">
      <stop offset="0" stop-color="#c46a86"/>
      <stop offset="1" stop-color="#a12a9a"/>
    </linearGradient>
    <linearGradient id="_ÂÁ_Ï_ÌÌ_È_ËÂÌÚ_241" data-name="¡ÂÁ˚ÏˇÌÌ˚È „‡‰ËÂÌÚ 241" x1="3499.87" y1="-941.67" x2="3499.87" y2="-951.47" gradientTransform="translate(3466.39 -1179.13) rotate(142.41) scale(1 -1)" gradientUnits="userSpaceOnUse">
      <stop offset="0" stop-color="#ccffbe"/>
      <stop offset="1" stop-color="#a172e0"/>
    </linearGradient>
    <linearGradient id="_ÂÁ_Ï_ÌÌ_È_ËÂÌÚ_241-2" data-name="¡ÂÁ˚ÏˇÌÌ˚È „‡‰ËÂÌÚ 241" x1="3515.18" y1="-1012.44" x2="3515.18" y2="-1023.92" xlink:href="#_ÂÁ_Ï_ÌÌ_È_ËÂÌÚ_241"/>
    <linearGradient id="_ÂÁ_Ï_ÌÌ_È_ËÂÌÚ_5-15" data-name="¡ÂÁ˚ÏˇÌÌ˚È „‡‰ËÂÌÚ 5" x1="3520.36" y1="-1007.01" x2="3520.36" y2="-1017.24" xlink:href="#_ÂÁ_Ï_ÌÌ_È_ËÂÌÚ_5"/>
    <linearGradient id="_ÂÁ_Ï_ÌÌ_È_ËÂÌÚ_1718" data-name="¡ÂÁ˚ÏˇÌÌ˚È „‡‰ËÂÌÚ 1718" x1="3517.28" y1="-1017.51" x2="3517.28" y2="-1021.51" gradientTransform="translate(3466.39 -1179.13) rotate(142.41) scale(1 -1)" gradientUnits="userSpaceOnUse">
      <stop offset="0" stop-color="#313131"/>
      <stop offset="1" stop-color="#ffff95"/>
    </linearGradient>
    <linearGradient id="_ÂÁ_Ï_ÌÌ_È_ËÂÌÚ_1718-2" data-name="¡ÂÁ˚ÏˇÌÌ˚È „‡‰ËÂÌÚ 1718" x1="3501.39" y1="-946.3" x2="3501.39" y2="-949.29" xlink:href="#_ÂÁ_Ï_ÌÌ_È_ËÂÌÚ_1718"/>
    <linearGradient id="_ÂÁ_Ï_ÌÌ_È_ËÂÌÚ_5-16" data-name="¡ÂÁ˚ÏˇÌÌ˚È „‡‰ËÂÌÚ 5" x1="3497.08" y1="-952.75" x2="3497.08" y2="-962.43" xlink:href="#_ÂÁ_Ï_ÌÌ_È_ËÂÌÚ_5"/>
    <linearGradient id="_ÂÁ_Ï_ÌÌ_È_ËÂÌÚ_507" data-name="¡ÂÁ˚ÏˇÌÌ˚È „‡‰ËÂÌÚ 507" x1="3309.25" y1="-1031.42" x2="3376.87" y2="-1031.42" gradientTransform="translate(3466.39 -1179.13) rotate(142.41) scale(1 -1)" gradientUnits="userSpaceOnUse">
      <stop offset="0" stop-color="#000"/>
      <stop offset="1" stop-color="#ffb66d"/>
    </linearGradient>
    <linearGradient id="_ÂÁ_Ï_ÌÌ_È_ËÂÌÚ_204-2" data-name="¡ÂÁ˚ÏˇÌÌ˚È „‡‰ËÂÌÚ 204" x1="2290.16" y1="-841.56" x2="2290.16" y2="-936.28" gradientTransform="translate(2288.14 -1233.3) rotate(127.39) scale(1 -1)" xlink:href="#_ÂÁ_Ï_ÌÌ_È_ËÂÌÚ_204"/>
    <linearGradient id="_ÂÁ_Ï_ÌÌ_È_ËÂÌÚ_4-2" data-name="¡ÂÁ˚ÏˇÌÌ˚È „‡‰ËÂÌÚ 4" x1="2290.16" y1="-843.41" x2="2290.16" y2="-934.44" xlink:href="#_ÂÁ_Ï_ÌÌ_È_ËÂÌÚ_4"/>
    <linearGradient id="_ÂÁ_Ï_ÌÌ_È_ËÂÌÚ_412" data-name="¡ÂÁ˚ÏˇÌÌ˚È „‡‰ËÂÌÚ 412" x1="3344.65" y1="-982.23" x2="3344.65" y2="-1070.04" gradientTransform="translate(3466.39 -1179.13) rotate(142.41) scale(1 -1)" gradientUnits="userSpaceOnUse">
      <stop offset="0" stop-color="#5490e8"/>
      <stop offset="1" stop-color="#2f5cae"/>
    </linearGradient>
    <linearGradient id="_ÂÁ_Ï_ÌÌ_È_ËÂÌÚ_241-3" data-name="¡ÂÁ˚ÏˇÌÌ˚È „‡‰ËÂÌÚ 241" x1="3345.49" y1="-1008.11" x2="3345.49" y2="-1068.77" xlink:href="#_ÂÁ_Ï_ÌÌ_È_ËÂÌÚ_241"/>
    <linearGradient id="_ÂÁ_Ï_ÌÌ_È_ËÂÌÚ_342" data-name="¡ÂÁ˚ÏˇÌÌ˚È „‡‰ËÂÌÚ 342" x1="3540.42" y1="-987.89" x2="3547.95" y2="-987.89" gradientTransform="translate(3466.39 -1179.13) rotate(142.41) scale(1 -1)" gradientUnits="userSpaceOnUse">
      <stop offset="0" stop-color="#ffb66d"/>
      <stop offset="1" stop-color="#000"/>
    </linearGradient>
    <linearGradient id="_ÂÁ_Ï_ÌÌ_È_ËÂÌÚ_342-2" data-name="¡ÂÁ˚ÏˇÌÌ˚È „‡‰ËÂÌÚ 342" x1="3549.89" y1="-985.02" x2="3558.28" y2="-985.02" xlink:href="#_ÂÁ_Ï_ÌÌ_È_ËÂÌÚ_342"/>
    <linearGradient id="_ÂÁ_Ï_ÌÌ_È_ËÂÌÚ_342-3" data-name="¡ÂÁ˚ÏˇÌÌ˚È „‡‰ËÂÌÚ 342" x1="3463.57" y1="-1006.72" x2="3487.71" y2="-1006.72" xlink:href="#_ÂÁ_Ï_ÌÌ_È_ËÂÌÚ_342"/>
    <linearGradient id="_ÂÁ_Ï_ÌÌ_È_ËÂÌÚ_342-4" data-name="¡ÂÁ˚ÏˇÌÌ˚È „‡‰ËÂÌÚ 342" x1="3430.63" y1="-1020.39" x2="3451.69" y2="-1020.39" xlink:href="#_ÂÁ_Ï_ÌÌ_È_ËÂÌÚ_342"/>
    <linearGradient id="_ÂÁ_Ï_ÌÌ_È_ËÂÌÚ_342-5" data-name="¡ÂÁ˚ÏˇÌÌ˚È „‡‰ËÂÌÚ 342" x1="3377.11" y1="-1048.95" x2="3391.08" y2="-1048.95" xlink:href="#_ÂÁ_Ï_ÌÌ_È_ËÂÌÚ_342"/>
    <linearGradient id="_ÂÁ_Ï_ÌÌ_È_ËÂÌÚ_241-4" data-name="¡ÂÁ˚ÏˇÌÌ˚È „‡‰ËÂÌÚ 241" x1="3386.71" y1="-1018.11" x2="3386.71" y2="-1026.54" xlink:href="#_ÂÁ_Ï_ÌÌ_È_ËÂÌÚ_241"/>
    <linearGradient id="_ÂÁ_Ï_ÌÌ_È_ËÂÌÚ_1718-3" data-name="¡ÂÁ˚ÏˇÌÌ˚È „‡‰ËÂÌÚ 1718" x1="3385.61" y1="-1022.69" x2="3385.61" y2="-1025.82" xlink:href="#_ÂÁ_Ï_ÌÌ_È_ËÂÌÚ_1718"/>
    <linearGradient id="_ÂÁ_Ï_ÌÌ_È_ËÂÌÚ_1718-4" data-name="¡ÂÁ˚ÏˇÌÌ˚È „‡‰ËÂÌÚ 1718" x1="3342.23" y1="-1043.48" x2="3342.23" y2="-1059.39" xlink:href="#_ÂÁ_Ï_ÌÌ_È_ËÂÌÚ_1718"/>
    <linearGradient id="_ÂÁ_Ï_ÌÌ_È_ËÂÌÚ_406" data-name="¡ÂÁ˚ÏˇÌÌ˚È „‡‰ËÂÌÚ 406" x1="3343.61" y1="-982.23" x2="3343.61" y2="-1055.32" gradientTransform="translate(3466.39 -1179.13) rotate(142.41) scale(1 -1)" gradientUnits="userSpaceOnUse">
      <stop offset="0" stop-color="#61a495"/>
      <stop offset="1" stop-color="#313131"/>
    </linearGradient>
    <linearGradient id="_ÂÁ_Ï_ÌÌ_È_ËÂÌÚ_344" data-name="¡ÂÁ˚ÏˇÌÌ˚È „‡‰ËÂÌÚ 344" x1="3368.66" y1="-1035.36" x2="3368.66" y2="-1037.25" gradientTransform="translate(3466.39 -1179.13) rotate(142.41) scale(1 -1)" gradientUnits="userSpaceOnUse">
      <stop offset="0" stop-color="#ffff95"/>
      <stop offset="1" stop-color="#313131"/>
    </linearGradient>
    <linearGradient id="_ÂÁ_Ï_ÌÌ_È_ËÂÌÚ_438" data-name="¡ÂÁ˚ÏˇÌÌ˚È „‡‰ËÂÌÚ 438" x1="3428.53" y1="-991.39" x2="3454.8" y2="-991.39" gradientTransform="translate(3466.39 -1179.13) rotate(142.41) scale(1 -1)" gradientUnits="userSpaceOnUse">
      <stop offset="0" stop-color="#efb0ff"/>
      <stop offset="1" stop-color="#d57cba"/>
    </linearGradient>
    <linearGradient id="_ÂÁ_Ï_ÌÌ_È_ËÂÌÚ_438-2" data-name="¡ÂÁ˚ÏˇÌÌ˚È „‡‰ËÂÌÚ 438" x1="3539.28" y1="-977.17" x2="3547.3" y2="-977.17" xlink:href="#_ÂÁ_Ï_ÌÌ_È_ËÂÌÚ_438"/>
    <linearGradient id="_ÂÁ_Ï_ÌÌ_È_ËÂÌÚ_455" data-name="¡ÂÁ˚ÏˇÌÌ˚È „‡‰ËÂÌÚ 455" x1="3461.86" y1="-962.13" x2="3461.86" y2="-979.8" gradientTransform="translate(3466.39 -1179.13) rotate(142.41) scale(1 -1)" gradientUnits="userSpaceOnUse">
      <stop offset="0" stop-color="#a12a9a"/>
      <stop offset="1" stop-color="#fe6a86"/>
    </linearGradient>
    <linearGradient id="_ÂÁ_Ï_ÌÌ_È_ËÂÌÚ_455-2" data-name="¡ÂÁ˚ÏˇÌÌ˚È „‡‰ËÂÌÚ 455" x1="3532.64" y1="-948.63" x2="3532.64" y2="-957.99" xlink:href="#_ÂÁ_Ï_ÌÌ_È_ËÂÌÚ_455"/>
    <linearGradient id="_ÂÁ_Ï_ÌÌ_È_ËÂÌÚ_455-3" data-name="¡ÂÁ˚ÏˇÌÌ˚È „‡‰ËÂÌÚ 455" x1="3541.79" y1="-943.93" x2="3541.79" y2="-953.44" xlink:href="#_ÂÁ_Ï_ÌÌ_È_ËÂÌÚ_455"/>
    <linearGradient id="_ÂÁ_Ï_ÌÌ_È_ËÂÌÚ_505" data-name="¡ÂÁ˚ÏˇÌÌ˚È „‡‰ËÂÌÚ 505" x1="3344.98" y1="-1039.98" x2="3344.98" y2="-1085.83" gradientTransform="translate(3466.39 -1179.13) rotate(142.41) scale(1 -1)" gradientUnits="userSpaceOnUse">
      <stop offset="0" stop-color="#efb0ff"/>
      <stop offset="1" stop-color="#f77cba"/>
    </linearGradient>
    <linearGradient id="_ÂÁ_Ï_ÌÌ_È_ËÂÌÚ_507-2" data-name="¡ÂÁ˚ÏˇÌÌ˚È „‡‰ËÂÌÚ 507" x1="3428.33" y1="-993.05" x2="3428.33" y2="-999.88" xlink:href="#_ÂÁ_Ï_ÌÌ_È_ËÂÌÚ_507"/>
    <linearGradient id="_ÂÁ_Ï_ÌÌ_È_ËÂÌÚ_575" data-name="¡ÂÁ˚ÏˇÌÌ˚È „‡‰ËÂÌÚ 575" x1="3517.67" y1="-1000.39" x2="3517.67" y2="-1007.84" gradientTransform="translate(3466.39 -1179.13) rotate(142.41) scale(1 -1)" gradientUnits="userSpaceOnUse">
      <stop offset="0" stop-color="#813d00"/>
      <stop offset="1" stop-color="#ff886d"/>
    </linearGradient>
    <linearGradient id="_ÂÁ_Ï_ÌÌ_È_ËÂÌÚ_604" data-name="¡ÂÁ˚ÏˇÌÌ˚È „‡‰ËÂÌÚ 604" x1="3518.92" y1="-993.21" x2="3518.92" y2="-1020.44" gradientTransform="translate(3466.39 -1179.13) rotate(142.41) scale(1 -1)" gradientUnits="userSpaceOnUse">
      <stop offset="0" stop-color="#ff8840"/>
      <stop offset="1" stop-color="#000"/>
    </linearGradient>
    <linearGradient id="_ÂÁ_Ï_ÌÌ_È_ËÂÌÚ_455-4" data-name="¡ÂÁ˚ÏˇÌÌ˚È „‡‰ËÂÌÚ 455" x1="3362.6" y1="-971.75" x2="3362.6" y2="-988.09" xlink:href="#_ÂÁ_Ï_ÌÌ_È_ËÂÌÚ_455"/>
  </defs>
  <g class="cls-91">
    <g id="Layer_2" data-name="Layer 2">
      <g id="_Layer_" data-name="&amp;lt;Layer&amp;gt;">
        <g>
          <path class="cls-51" d="M10.13,268.78c.02.08.03.15.05.21.17.52.4,1.03.7,1.52.59,1.02,1.49,1.99,2.65,2.78.3.21.58.35.85.49.15.07.3.15.44.21h0c2.36,3.46,5.39,6.82,9.03,9.87h0c.15.4.32.8.56,1.19.55.88,1.34,1.72,2.41,2.45h.01c.35.24.7.42,1.04.58.17.08.33.13.49.19.17.06.34.12.5.18.22.05.44.1.66.14.08.01.16.03.25.03.26.03.52.06.77.06h0c1.51.91,3.03,1.72,4.55,2.44.02.02.04.03.06.03,1.53.73,3.06,1.33,4.57,1.86h0c.09.12.19.24.3.36.2.23.42.47.71.72.37.32.76.59,1.16.83.13.1.26.15.39.22.27.15.53.29.8.41.15.06.31.11.46.16.25.09.5.18.76.23.16.04.31.07.46.1.25.05.5.09.75.12.15,0,.29,0,.43.03.25,0,.5,0,.75-.03.12,0,.24-.01.37-.03.26-.03.51-.09.76-.15.1-.01.19-.06.28-.07.27-.09.52-.18.77-.3.05-.03.12-.04.17-.07.29-.16.57-.34.81-.54,2.59.1,5.01-.19,7.18-.84.02.01.03.04.05.05,2.14,1.26,14.32.73,9.74-8.05-.09.03-.22.08-.33.12.39-.48.76-.92,1.11-1.35.25-.17.52-.32.76-.51,1.26-.96,2.16-2.12,2.8-3.36,2.77-5.4.58-12.45.58-12.45h0l-.02.03c-.08-.32-.13-.63-.22-.94h0c.35-.59.72-1.19,1.11-1.83.03-.05.06-.1.09-.14.35-.55.71-1.14,1.09-1.73.08-.13.16-.25.24-.38.35-.55.72-1.11,1.09-1.7.11-.16.22-.34.33-.51.36-.54.73-1.11,1.11-1.68.15-.22.3-.45.46-.69.36-.52.75-1.08,1.13-1.63.19-.28.38-.56.57-.84.39-.56.81-1.15,1.23-1.74.2-.28.4-.56.6-.84.48-.66.97-1.34,1.47-2.03.18-.24.34-.46.52-.71.69-.93,1.4-1.87,2.14-2.86,0,0,0,0,0,0,0,0,0,0,0,0,.81.18,1.61.33,2.4.45h0c.77.12,1.53.22,2.28.29.03,0,.06,0,.09.01.71.06,1.41.1,2.09.1.09,0,.16,0,.25,0,.63,0,1.25,0,1.85-.04.15-.01.3-.03.45-.05.53-.05,1.05-.1,1.55-.17.23-.05.45-.1.67-.14.42-.09.83-.16,1.22-.27.33-.1.63-.2.94-.3.27-.1.57-.18.83-.3.57-.23,1.12-.49,1.63-.78.17-.1.42-.32.73-.62.02-.02.06-.05.08-.08.3-.29.65-.64,1.03-1.06,2.93-2.49,4.83-5.62,4.83-5.62h0c.22-.27.41-.5.61-.74.12-.15.23-.28.34-.42.17-.22.33-.41.47-.58.22-.27.4-.52.53-.67.03-.05.07-.08.1-.12.23-.29.43-.59.6-.89.14-.22.25-.43.36-.65.22-.47.4-.93.52-1.39.24-.62.44-1.26.58-1.92.17-.73.28-1.5.31-2.31h0c0-.08,0-.15,0-.23h0c23.59-6.95,13.97-19.81,13.97-19.81-.25.15-.49.3-.74.46h0c.52-.78,1-1.5,1.43-2.17,0,0,.01-.02.01-.02.21-.32.4-.61.59-.9.04-.06.07-.1.1-.16.52-.8.94-1.45,1.23-1.9.04-.07.08-.13.12-.18.16-.25.29-.44.34-.52.01-.04.02-.05.02-.05-.09.09-.19.15-.28.24.17-.21.35-.39.51-.59.24-.21.42-.5.56-.83.27-.65.37-1.5.37-2.32,0-.42-.01-.82-.04-1.19,0-.08,0-.15-.02-.24,0-.35-.04-.65-.07-.9-.04-.24-.08-.43-.11-.54-.01-.05-.02-.09-.04-.11h-.01c-.13.22-1.27,2.08-3.06,4.24.45-.65.91-1.28,1.37-1.91l.85-1.18c1.43-1.98,2.87-3.95,4.33-5.89l.73-1s0,0,.01-.01c3.53.47,6.78.37,9.62-.27.41-.05.81-.12,1.21-.2.01,0,.03,0,.04,0,.36-.09.72-.19,1.06-.31.04,0,.08-.02.12-.02.32-.12.61-.26.9-.41.05-.03.12-.05.17-.08.34-.2.66-.4.95-.65.06-.04.16-.13.28-.24.1-.08.21-.21.34-.33h0c1.64-1.55,3.89-4.2,6.2-7.11,0-.02.02-.03.03-.04.44-.55.87-1.09,1.3-1.65.03-.04.06-.09.09-.13.41-.53.81-1.05,1.21-1.57.06-.07.11-.14.17-.22.43-.56.85-1.11,1.26-1.65,0-.01.01-.02.01-.02.65-.81,1.28-1.61,1.89-2.38.01-.01.02-.03.03-.04,1.17-1.49,2.24-2.84,3.11-3.94.07-.1.14-.18.21-.27.4-.5.76-.97,1.05-1.34.47-.43.83-.83,1.08-1.23h0c.12-.19.23-.37.31-.55,0,0,.01-.02.02-.04.09-.18.15-.34.21-.49.06-.1.13-.2.19-.3h0c.8-.72,1.63-1.55,2.5-2.46.02-.02.04-.04.05-.06.85-.9,1.74-1.87,2.65-2.92.05-.06.11-.12.16-.19.87-1,1.77-2.06,2.7-3.18.18-.22.37-.44.55-.66.72-.87,1.45-1.76,2.2-2.67,4.43-5.4,9.39-11.54,14.8-17.32h0c.61-.65,1.2-1.29,1.84-1.93.07-.07.13-.13.2-.2.13-.13.26-.26.39-.4,1.39-1.39,2.68-2.64,3.89-3.79.03-.03.07-.07.1-.1,0,0,0,0,0,0,1.3-1.2,2.62-2.36,3.96-3.47.02-.02.04-.03.06-.04,1.34-1.11,2.69-2.16,4.07-3.13.01-.01.02-.02.03-.03,2.77-1.97,5.62-3.66,8.52-4.96h0c2.48-.18,4.79-.61,6.91-1.3.78-.17,1.53-.39,2.23-.67.02-.02.05-.03.08-.03.7-.3,1.35-.65,1.9-1.11h0c.16-.09.38-.27.62-.48.09-.08.18-.16.28-.25.15-.14.33-.31.5-.49.3-.3.62-.63.97-1,0,0,0-.01,0-.01h0c.45-.47.92-.95,1.38-1.45.05-.06.09-.11.14-.16.46-.49.92-1.01,1.37-1.52,0,0,0,0,.01-.01.47-.54.93-1.06,1.38-1.59,0,0,0-.01.01-.02.44-.51.85-1,1.24-1.46.03-.03.05-.07.08-.1.76-.92,1.41-1.71,1.88-2.3.01-.02.03-.04.05-.06.23-.28.4-.51.53-.66t.04-.05c.1-.12.17-.21.17-.21,1.39-1.71,2.47-3.07,2.87-3.58.38-.52.71-1.02,1.02-1.52.2-.33.37-.67.54-.99.02-.05.06-.11.08-.16h0c2.3-4.55,2.62-10.17,1.21-16.34-.04-.16-.07-.31-.11-.46-.14-.59-.31-1.18-.48-1.77-.07-.25-.14-.51-.22-.77-.17-.53-.35-1.07-.54-1.62-.12-.33-.23-.66-.36-.98-.19-.5-.38-1-.59-1.5-.16-.38-.33-.77-.49-1.15-.21-.48-.41-.93-.63-1.4-.21-.43-.42-.87-.64-1.3-.22-.44-.43-.87-.66-1.3-.26-.49-.54-.97-.81-1.46-.22-.4-.44-.79-.67-1.18-.34-.57-.7-1.15-1.05-1.72-.2-.32-.39-.63-.59-.95-.58-.89-1.18-1.79-1.82-2.68-.11-.16-.17-.24-.17-.24-5.35-7.53-12.58-15.01-21.29-21.67-.01,0-.02-.01-.02-.02-1.76-1.35-3.54-2.62-5.33-3.82-.06-.04-.13-.08-.19-.12-1.75-1.18-3.51-2.28-5.27-3.33h0s0,0-.01,0c-.23-.15-.43-.26-.6-.37-.03-.02-.06-.03-.08-.05-.14-.09-.25-.15-.35-.21-.02-.01-.04-.02-.05-.03h0c-.13-.08-.22-.13-.22-.13,0,0,.09.05.22.13.15.09.36.21.63.39h0s-.01,0-.02,0c-3.93-2.3-7.86-4.26-11.73-5.88-.13-.06-.26-.11-.38-.16-1.16-.48-2.32-.92-3.47-1.35-.26-.09-.51-.18-.77-.27-1.14-.39-2.26-.77-3.37-1.11-.14-.04-.29-.08-.43-.12-3.48-1.03-6.86-1.74-10.08-2.14-.29-.03-.58-.08-.87-.11-.9-.1-1.78-.16-2.65-.21-.38-.01-.76-.03-1.13-.04-.83-.02-1.66-.03-2.47,0-.35.02-.68.04-1.02.07-2.62.16-5.06.59-7.28,1.3-.33.11-.67.2-.99.32-.6.22-1.18.48-1.75.75-.34.16-.67.33-1,.5-.54.29-1.07.6-1.57.93-.3.2-.57.42-.85.64-.49.37-.99.73-1.44,1.15-.33.3-.66.62-.98.96-.33.35-.64.72-.94,1.11-.12.15-.36.49-.7.94-.34.46-.77,1.04-1.27,1.72-1.24,1.68-2.87,3.9-4.38,5.99-2.11,2.94-3.98,5.64-4.24,6.27h0c-.39.95-.66,1.96-.89,3-.04.19-.08.36-.12.55-.2,1.05-.33,2.14-.38,3.27,0,.05,0,.11,0,.17-.09,2.42.18,4.99.77,7.67-.29,1.72-.68,3.46-1.18,5.21-.37,1.32-.81,2.63-1.28,3.94-.15.41-.32.83-.48,1.25-.35.91-.7,1.82-1.09,2.72-.2.47-.42.94-.62,1.41-.39.87-.79,1.74-1.22,2.61-.22.45-.44.91-.67,1.35-.47.93-.94,1.84-1.44,2.76-.2.37-.4.75-.6,1.12-.62,1.13-1.25,2.25-1.91,3.36-.09.15-.17.3-.26.44-6.96,11.78-15.36,22.65-19.89,30.41-.7.4-1.35.85-1.95,1.35-.01.01-.03.02-.04.03-.6.5-1.14,1.07-1.63,1.68-.04.05-.09.09-.13.14-.08.11-.39.51-.86,1.13-.95,1.26-2.56,3.41-4.4,5.87-1.38,1.84-2.88,3.85-4.31,5.78-.96,1.28-1.88,2.53-2.72,3.67-1.23,1.67-2.27,3.1-2.95,4.06-.47.68-.78,1.14-.83,1.26-.14.35-.27.72-.38,1.11-.26.86-.41,1.78-.5,2.72-.01.14-.04.27-.05.42-.05.83-.04,1.67.02,2.54.02.34.04.67.08,1.02.09.71.22,1.45.37,2.2.12.55.25,1.09.4,1.65,0,0,0,.01,0,.02.36,1.28.82,2.59,1.38,3.93-.06.06-.11.13-.16.2-.04-.08-.06-.11-.09-.17-.05-.11-.09-.18-.09-.18l-1.59,2.55c-.86,1.08-1.72,2.16-2.59,3.25h0s-.08,0-.16.01c-.11.01-.23.02-.41.04-.05,0-.09.01-.14.02-.19.03-.41.06-.65.1-.05.01-.1.02-.15.03-.24.04-.5.09-.77.15-.06.01-.12.03-.19.04-.26.07-.52.14-.78.22-.07.02-.14.04-.22.07-.24.08-.47.18-.7.29-.08.04-.15.07-.23.1-.21.11-.4.24-.57.38-.06.04-.14.08-.19.12-.21.19-.38.4-.5.63,0,0,0,0,0,0h0l-.21.23-.12.14s-.19.21-.39.43c-.09.09-.17.18-.28.31-.03.04-.07.07-.1.11-.39.43-.9,1-1.52,1.7,0,0,0,0,0,0l-.07.07h0c-.52.58-1.11,1.24-1.74,1.96h0s-.09-.05-.25-.1c0,0,0,0,0,0-.34-.12-.98-.3-1.82-.42,0,0,0,0,0,0-.42-.05-.89-.1-1.39-.11h0c-.39-.04-.84-.02-1.36.05h0c-.27.02-.55.07-.83.12h0c-.26.05-.54.12-.8.19-.05.01-.11.04-.17.04-.22.07-.44.15-.66.23-.06.02-.13.05-.2.08-.23.1-.45.2-.68.32-.05.03-.1.06-.15.08-.85.46-1.69,1.09-2.47,1.94-.03.03-.06.07-.09.1-.23.25-.46.54-.68.83-.03.05-.07.09-.1.13-.23.33-.46.68-.69,1.05,0,.02-.01.02-.02.03-.71,1.22-1.33,2.7-1.83,4.5-.01.04-.02.09-.03.14-.15.55-.29,1.14-.42,1.76-.01.05-.02.11-.03.16-.4,2.04-.67,4.42-.74,7.19h0c-.92.25-1.78.58-2.58.97-.42.21-.78.49-1.17.73-.34.21-.71.39-1.03.64h-.01c-.14.12-.29.22-.43.34-.25.2-.51.41-.75.66-.14.12-.28.27-.42.43-.16.19-.32.37-.46.56-.08.1-.24.31-.45.6-1.32,1.75-4.81,6.5-5.99,8.34-.2.31-.33.53-.37.64-.26.66-.47,1.36-.62,2.07-.3,1.44-.37,2.98-.22,4.61.07.81.2,1.65.38,2.49h0s0,.02,0,.02h0s0,0,0,0c0,.04.02.08.03.12,0,.03.02.07.02.12.2.89.47,1.8.79,2.72.12.37.24.73.38,1.1.22.56.47,1.14.73,1.72.35.8.74,1.6,1.17,2.43h0s-.02.03-.03.05c-.03-.08-.07-.15-.11-.25l-1.03,1.7c-1.05,1.37-2.01,2.6-2.96,3.82-.37.48-.73.95-1.09,1.4-.9,1.17-1.74,2.25-2.55,3.3-.27.34-.54.69-.81,1.03-.8,1.03-1.57,2.02-2.29,2.92-.19.25-.37.48-.56.71-.68.86-1.33,1.69-1.94,2.46-.13.16-.27.33-.4.49-.39.48-.74.92-1.11,1.37-2.48.08-4.76.55-6.79,1.37-.17.07-.35.12-.52.21-.33.15-.65.32-.96.47-.27.15-.55.3-.81.47-.25.16-.49.32-.73.49-.32.25-.62.48-.91.74-.17.14-.35.29-.52.45-.45.44-.88.9-1.27,1.4-.07.09-.2.27-.38.52-.52.7-1.46,1.96-2.49,3.36,0-.05.01-.1.01-.14-.54-.12-1.05-.19-1.51-.22h0c-4.99-.37-5.81,3.83-5.3,7.35.07.5.17.98.29,1.45.08.3.17.56.26.84.05.14.09.3.14.44.29.77.62,1.37.93,1.66-.01.59,0,1.21.06,1.81.03.41.09.83.15,1.25.02.19.04.38.08.58.08.53.2,1.06.32,1.59.02.08.03.14.05.21.14.59.31,1.18.49,1.78-.35.76-.48,1.68-.39,2.66,0,.02,0,.04,0,.07.04.42.15.85.28,1.28ZM80.22,161.91s.01-.01.02-.02c-.24.3-.48.61-.72.9.03-.08.05-.11.06-.12.23-.29.45-.54.64-.76ZM75.4,163.1c-.16.21-.29.43-.44.65.03-.07.06-.13.09-.2.2-.27.35-.45.35-.45Z"/>
          <g>
            <path class="cls-106" d="M20.42,271.67c12.8,9.79,27.71,12.47,35.97,7.13,1.28-.82,7.86-8.98,8.78-10.19,6.92-9.06-4.9-18.43-19.69-29.75-14.79-11.29-26.94-20.25-33.86-11.18-.62.82-6.59,8.82-7,9.75-4.15,9.38,2.34,23.96,15.79,34.24Z"/>
            <path class="cls-101" d="M25.87,264.54c14.79,11.3,32.39,13.13,39.31,4.06,6.92-9.06.55-25.57-14.24-36.87-14.79-11.3-32.39-13.12-39.31-4.06-6.92,9.06-.55,25.57,14.24,36.87Z"/>
            <path class="cls-40" d="M17.11,233.4s-3.2,12.92,8.64,28.3c9.01,11.7,28.93,16.07,38.12,9,6.83-5.25,3.45-16.14,3.45-16.14l-5.95,9.13s-11.73,5.33-28.37-5.89c-16.64-11.2-15.89-24.4-15.89-24.4Z"/>
            <path class="cls-108" d="M29.63,259.63c15.29,11.68,31.75,4.06,31.75,4.06,2.37-4.18,7.29-14.16,19.14-29.76,8.12-10.68,15.74-19.82,19.11-21.65l-22.12-16.91-22.12-16.91c-.88,3.73-7.71,13.49-15.88,24.15-.39.49-.77.98-1.16,1.49-11,14.22-16.01,20.68-20.29,25.2-.28.3-.51.55-.71.74,0,0-3.01,17.9,12.27,29.58Z"/>
            <path class="cls-17" d="M56.91,222.34c14.87,11.37,31.51,15.36,40.2,10.34,1.31-.74,7.57-8.4,8.78-9.97.03-.05.07-.09.1-.12.23-.29.44-.6.62-.91.14-.22.26-.44.37-.67.87-1.76,1.04-3.58.6-5.49-.06-.27-.12-.55-.22-.83-2.29-7.31-12.93-15.63-25.38-25.15-12.93-9.89-24.12-18.25-31.81-17.89-2.11.09-3.94.84-5.48,2.38-.14.13-.28.29-.43.44-.16.19-.33.38-.47.57-.63.81-6.58,8.84-6.96,9.79-1.08,2.68-1.21,5.88-.47,9.35v.02s0,.01,0,.01c0,.04.02.09.03.12,0,.03.02.07.02.11,1.94,8.84,9.35,19.4,20.49,27.9Z"/>
            <path class="cls-16" d="M60.43,213.67s.05.05.07.06c.6.49,1.23.99,1.86,1.48,2.02,1.55,4.08,2.95,6.15,4.23,15.38,9.45,31.22,11.11,37.39,3.27.03-.05.07-.09.1-.12.23-.29.44-.6.62-.91.14-.22.26-.44.37-.67.91-1.68,1.37-3.62,1.44-5.73,0-.26.01-.53.01-.8-.1-6.32-3.61-14.04-9.77-21.4-3.11-3.72-6.89-7.36-11.25-10.68-4.35-3.34-8.86-6.02-13.27-8.06-8.72-3.99-17.05-5.36-23.17-3.79-2.15.54-4.01,1.49-5.53,2.79-.26.21-.52.43-.77.67-.14.13-.28.29-.43.44-.16.19-.33.38-.47.57-6.66,8.71.78,25.67,16.63,38.63Z"/>
            <path class="cls-63" d="M63.43,213.82c13.73,10.5,29.11,14.19,37.14,9.56,1.24-.73,7.35-8.22,8.21-9.34,6.39-8.37-6.32-18.4-22.19-30.52-15.87-12.13-28.88-21.76-35.28-13.39-.58.75-6.07,8.16-6.42,9.04-3.55,8.87,4.11,23.62,18.55,34.66Z"/>
            <path class="cls-65" d="M68.46,207.23c15.87,12.12,33.91,15.17,40.31,6.81,6.39-8.37-1.29-24.99-17.16-37.11-15.87-12.13-33.91-15.18-40.31-6.81-6.39,8.37,1.29,24.99,17.16,37.11Z"/>
            <path class="cls-105" d="M70.02,205.18c10.68,8.17,21.16,9.45,28.1,9.06,5.09-.26,8.29-1.43,8.29-1.43,1.74-3.3,9.66-15.29,18.61-27.75l.87-1.22c1.46-2.01,2.93-4.03,4.41-6.01l.75-1.01c8.88-11.91,17.67-22.53,21.64-24.3l-26.77-20.47-26.77-20.46c-.68,4.31-8.69,15.66-17.9,27.43-.59.75-1.18,1.5-1.79,2.26-1.4,1.75-2.8,3.52-4.2,5.26h-.01c-2.15,2.64-4.29,5.24-6.35,7.7-7.32,8.74-13.66,15.84-15.78,17.83,0,0-.74,8.86,4.67,18.95,2.51,4.71,6.36,9.67,12.23,14.16Z"/>
            <path class="cls-52" d="M70.02,205.18c10.68,8.17,21.16,9.45,28.1,9.06,7.58-5.05,13.61-11.07,13.61-11.07l13.29-18.11.87-1.22,4.41-6.01.75-1.01s-6.69-1.07-26.62-15.35c-17.54-12.59-22.3-20.68-23.19-22.44-.13-.23-.18-.35-.18-.35l-1.61,2.61c2.04,15.62,31.15,29.56,34.57,33.59s-17.8,28.69-30.73,29.7c-12.92,1.02-20.82-12.3-20.82-12.3,0,0,9.98-9.38,7.61-21.25-2.22-11.14,4.34-23.03,5.16-24.47h.01c.04-.1.07-.14.07-.14-.12.09-3.77,2.93-6.43,7.84-1.67,3.06-2.95,6.93-2.74,11.47.49,10.57-6.73,22.71-8.37,25.31,2.51,4.71,6.36,9.67,12.23,14.16Z"/>
            <path class="cls-61" d="M90.59,153.14c1.57,1.83,3.32,3.62,5.19,5.36,1.87,1.76,3.9,3.46,6.03,5.09,16.13,12.33,34.17,16.67,43.59,11.23,1.29-.73,14.07-16.9,17.63-21.45.46-.58.77-.97.88-1.12,7.51-9.82-7.42-21.59-26.05-35.83-18.62-14.25-33.91-25.55-41.41-15.72-.68.88-16,21.19-16.4,22.22-.14.36-.28.73-.38,1.12-2.32,7.76,1.94,18.81,10.93,29.1Z"/>
            <path class="cls-64" d="M116.59,144.26c18.63,14.23,39.81,17.81,47.32,7.99,7.51-9.82-1.51-29.32-20.14-43.56-18.63-14.24-39.81-17.82-47.32-7.99-7.51,9.82,1.51,29.32,20.14,43.56Z"/>
            <path class="cls-104" d="M119.55,140.38c8.85,6.79,31.28,20.25,42.9,12.32,11.62-7.95,32.99-46.47,58.16-52.49l-17.37-30.08-12.53-21.69-58.66-15.89c0,.42.02.82.01,1.24-.02,3.67-.65,7.42-1.74,11.23-6.47,22.77-28.92,46.83-32.82,58.05-.33.97-.55,1.95-.66,2.97-1.37,12.81,14.73,28.23,22.7,34.35Z"/>
            <path class="cls-28" d="M97.5,103.06s-5.09,10.21,7.92,29.24c13.01,19.04,34.1,25.48,46.86,24.56,12.76-.92,12.55-6.8,12.55-6.8,0,0-3.97,11.2-30.58-.55-22.13-9.77-40.56-35.84-36.74-46.44Z"/>
            <path class="cls-38" d="M119.55,140.38c8.85,6.79,31.28,20.25,42.9,12.32,11.62-7.95,32.99-46.47,58.16-52.49l-17.37-30.08-71.18-36.34c-.02,3.67-.65,7.42-1.74,11.23-.54,14.22,12.04,23.54,17.22,30.99,5.19,7.45-3.83,22.86-3.83,22.86,0,0,12.59-7.48,25.59-5.03,13,2.49,15.31,22.11-2.39,39.74-17.7,17.62-30.44,13.27-32.42,11.09-1.98-2.17,16.36-.43,27.68-10.68,8.64-7.83,8.89-11.99,8.89-11.99,0,0-15.44,7.69-25.33,7.67-9.89-.04-13.37-6.36-13.37-6.36,0,0,4.27-8.57-3.09-16.05-7.27-7.34-5.81-23.02-5.77-23.47-.36.57-11.68,18.87-5.01,29.79,6.77,11.1-2.45,14.51-11.15,11.03-8.68-3.48-10.49-18.59-10.49-18.59,0,0-.01.01-.02.02-1.37,12.81,14.73,28.23,22.7,34.35Z"/>
            <g class="cls-42">
              <path class="cls-18" d="M138.3,55.87c1.05,6.47-36,50.34-30.03,68.79,5.98,18.46,38.05-35.66,38.05-35.66l.55-3s-21.71,36.32-32.9,41.26c-11.2,4.93-4.26-19.94,6.83-37.81,11.09-17.88,19.06-30.72,19.06-30.72l-1.56-2.86Z"/>
              <path class="cls-55" d="M143.94,61.89s-14.27,19.61-19.38,37.51c-5.11,17.9,22.67-19.38,22.67-19.38l.33-4.02s-14.99,21.35-18.8,21.82c-3.82.47,11.06-28.75,16.8-33.84,5.74-5.09-1.62-2.1-1.62-2.1Z"/>
              <path class="cls-56" d="M176.42,89.41s-12.89,16.34-26.48,37.89c-13.6,21.55-18.64,21.4-18.64,21.4l2.95.8s7.35-7.15,21.37-28.43c14.02-21.26,23.17-28.09,23.17-28.09l-2.38-3.57Z"/>
              <path class="cls-57" d="M85.9,147.03c-8.38,10.25-25.15,42.87-23.75,48.88,1.39,6.01,37.78-33.8,37.78-33.8l-1.92-1.61s-21.35,25.38-28.83,28.11c-7.48,2.72,7.93-26.85,17.93-39.78l-1.2-1.79Z"/>
              <path class="cls-53" d="M103.95,165.99c-14.59,10.66-35.55,38.19-35.55,38.19l1.62,1s8.22-11.96,19.77-23.78c11.54-11.81,17.77-13.8,17.77-13.8l-3.61-1.61Z"/>
              <path class="cls-58" d="M110.27,169.25c-22.84,13.16-38.16,37.45-38.16,37.45l2.37,1.52s16.76-29.73,37.08-38.24l-1.29-.72Z"/>
              <path class="cls-59" d="M89.75,152.03s-10.29,11.76-12.34,19.49c-2.05,7.74,12.38-9.52,12.38-9.52,0,0-3.9,5.53-8.24,6.3-4.34.76,8.66-15.6,8.66-15.6l-.46-.67Z"/>
              <path class="cls-60" d="M42.98,208.22c-8.84,17.26-25.77,30.82-25.77,30.82l.74,2.31s10.6-10.14,20.6-22.77c10-12.62,5.46-9.03,5.46-9.03l-1.03-1.34Z"/>
              <path class="cls-54" d="M48.37,214.68s5.35-4.76-11.96,12.95c-17.32,17.71-13.45,25.13-13.45,25.13,0,0,17.18-11.68,27.01-24.32,9.82-12.65,3.89-8.57,3.89-8.57l-2.21-1.95s2.49,5.92-10.82,19.24c-13.31,13.33-16.25,9.9-16.25,9.9,0,0,13.01-19.43,24.39-31.06l-.59-1.32Z"/>
              <path class="cls-10" d="M56.53,222.05s-3.89,11.86-15.13,24.07c-11.25,12.19-13.51,12.09-13.51,12.09l2.43,1.36s8.52-7.78,21.44-24.2c12.92-16.42,7.72-11.15,7.72-11.15l-2.96-2.17Z"/>
            </g>
            <path class="cls-62" d="M145.5,65.97c.09.09.18.2.26.31,4.85,5.85,10.77,11.55,17.6,16.76,1.48,1.14,2.97,2.21,4.47,3.24,1.02.71,2.04,1.39,3.06,2.03.06.05.11.08.14.1,20.96,13.47,42.79,17.65,54.81,10.73,1.51-.88,7.24-7.65,10.88-12.07,1.42-1.75,2.52-3.13,2.93-3.65,10.76-14.09-10.62-30.96-37.33-51.36-26.7-20.4-48.61-36.62-59.36-22.54-.97,1.27-10.22,13.74-10.81,15.21-4.28,10.66,1.08,26.37,13.34,41.24Z"/>
            <path class="cls-19" d="M171.84,71.97c26.69,20.4,57.05,25.53,67.81,11.46,7.14-9.35,3.85-24.79-6.96-40.1-.11-.15-.17-.23-.17-.23-5.46-7.69-12.83-15.32-21.72-22.12C184.1.58,153.72-4.55,142.97,9.53c-.44.57-.83,1.16-1.18,1.79-8.52,14.55,4.41,41.07,30.05,60.65Z"/>
            <path class="cls-27" d="M56.63,192.32s8.65,12.67,20.15,20.14c11.5,7.47,24.59,6.33,27.68,4.87,3.09-1.45,4.76-5.95,4.76-5.95,0,0-15.43,8.01-32.19-1.86-14.36-8.46-18.76-17.69-18.76-17.69l-1.63.49Z"/>
            <path class="cls-103" d="M111.99,137.45l3.78,3.67s2.4-2.74,5.31-6.56c5.42-7.06,12.66-17.85,9.77-21.63-4.45-5.84-10.38-12.53-6.78-32.42-26.38,23.24-.66,45.33-12.08,56.93Z"/>
            <path class="cls-3" d="M110.47,139.45c11.41-11.61-14.31-33.69,12.08-56.93-3.61,19.89,2.32,26.58,6.77,32.4,4.45,5.83-15.07,28.2-15.07,28.2l-3.78-3.67Z"/>
            <path class="cls-12" d="M121.46,144.68c8.2-14.07,36.27,4.95,51.76-26.61-18.25,8.71-26.26,4.73-33.05,1.97-6.79-2.77-23.25,21.94-23.25,21.94l4.54,2.69Z"/>
            <path class="cls-6" d="M119.93,146.68c8.2-14.06,36.27,4.96,51.76-26.61-18.24,8.71-26.26,4.74-33.05,1.97-6.79-2.76-23.25,21.96-23.25,21.96l4.54,2.68Z"/>
            <path class="cls-2" d="M143.72,98.86c.55.71,19.4-13.36,27.36-10.39,0,0-.02-.02-.05-.04-.03-.02-.09-.04-.14-.1-.4-.3-1.42-1.04-2.85-2.13-5.29-4.04-16.27-12.77-22.54-20.22.09.09.18.2.26.31,3.28,4.3,1.49,15.64-.22,23.73,0,0-.03.12-.07.34-1,4.7-1.93,8.23-1.76,8.5Z"/>
            <path class="cls-67" d="M153.54,74.13c2.48,3.85-2.28,13.37-2.28,13.37,0,0,8.39-6.94,13.81-3.66,0,0,2.97-10.98.88-13.55-2.09-2.57-12.41,3.83-12.41,3.83Z"/>
            <path class="cls-107" d="M154.15,74.69c2.21,3.43-2.02,11.9-2.02,11.9,0,0,7.46-6.17,12.29-3.26,0,0,2.64-9.77.78-12.05-1.86-2.29-11.05,3.41-11.05,3.41Z"/>
            <path class="cls-1" d="M86.01,214.77s15.93,6.11,22.4-1c6.26-6.93,16.76-23.41,17.41-24.43.02-.05.02-.06.02-.06-13.85,13.28-32.93,8.46-39.52,24.65-.1.26-.21.54-.31.84Z"/>
            <path class="cls-34" d="M86.01,214.77s15.93,6.11,22.4-1c6.26-6.93,16.76-23.41,17.41-24.43-.31.4-2.71,3.58-8.19,6.43-5.88,3.07-11.89,3.77-13.08,4.61,7.21-1.25-2.25,11.78-8.36,14.72-4.55,2.22-8.25.07-9.86-1.17-.1.26-.21.54-.31.84Z"/>
            <path class="cls-13" d="M86.02,214.74c.23-.44,4.68-9.29,11.73-12.17,5.4-2.21,14.67-3.66,21.89-8.03.02-.02.06-.03.08-.04,1.8-1.09,3.47-2.38,4.92-3.9.02-.02.03-.04.04-.05.5-.5.97-1.06,1.4-1.63.97-.85,1.02-2.9.91-4.42,0-.07,0-.15-.02-.24-.06-.66-.16-1.22-.19-1.46-.01-.06-.02-.09-.04-.12-.15.24-1.94,3.19-4.62,6.03-7.3,7.73-19.24,8.39-25.59,11.95-1.49.83-2.85,1.95-4.07,3.18-.09.09-.18.17-.26.25-.26.29-.51.56-.76.84-.07.09-.13.14-.18.22-.04.03-.05.06-.05.06-3.24,3.75-5.16,7.87-5.16,7.87l-.03,1.68Z"/>
            <path class="cls-11" d="M70.75,147.18c-9.33,17.14.82,34.58-14.12,45.14,0,0-10.09-13.77-4.91-21.89,5.18-8.11,19.03-23.25,19.03-23.25Z"/>
            <path class="cls-102" d="M71.05,146.86c.95-1.96,5.88-2.28,5.88-2.28,0,0-2.5,2.56-4.63,6.06-5.54,9.07-3.04,20.76-4.8,27.83-1.76,7.05-9.23,13.37-9.23,13.37l-1.63.49s7.73-6.77,8.68-14.53c.95-7.77-1.22-21.89,5.73-30.93Z"/>
            <path class="cls-9" d="M66.53,151.91s-15.89-6.29-15.79,20.66c.02,5.41,7.35,8.23,15.79-20.66Z"/>
            <path class="cls-66" d="M122.69,194.83s10.25,13.68-15.79,20.65c-5.22,1.39-9.87-4.93,15.79-20.65Z"/>
            <path class="cls-7" d="M3.39,243.23c1.81,1.76,5.3-8.87,5.31-11.74-.55-.13-1.07-.2-1.54-.23h-.01c-5.09-.38-5.92,3.91-5.41,7.49.29,2.05,1.02,3.87,1.65,4.48Z"/>
            <path class="cls-4" d="M7.92,259.29c6.29,4.26,6.95-6.02,3.03-10.28-.44-.18-.86-.33-1.25-.44-.18-.05-.36-.1-.53-.11-4.7-.88-6.36,3.98-3.96,7.99.61,1.04,1.52,2.03,2.71,2.84Z"/>
            <path class="cls-8" d="M52.36,280.66c2.18,1.29,14.61.75,9.94-8.2-.87.25-2.41,1.02-4.03,2.02-2.92,1.81-6.13,4.31-6.23,5.57-.01.26.08.47.32.6Z"/>
            <path class="cls-5" d="M35.68,280.51c5.78,4.96,14.16.73,9.12-5.6-1.04-.56-2.27-.84-3.52-.92-.14-.03-.25-.03-.38-.03-4.02-.14-8.09,1.84-6.71,4.74.27.58.76,1.18,1.49,1.81Z"/>
            <path class="cls-96" d="M21.48,273.79c6.29,4.28,13.07-3.56,4.11-9.47-.84-.34-1.62-.56-2.34-.65h-.01c-4.54-.56-6.53,3.89-4.23,7.62.56.9,1.37,1.76,2.46,2.49Z"/>
            <path class="cls-84" d="M171.84,71.97c26.69,20.4,57.05,25.53,67.81,11.46,7.14-9.35,3.85-24.79-6.96-40.1,1.65,2.48,14.63,22.54,7.41,35.3-7.7,13.61-44.74,18.28-77.46-15.92-23.94-25.01-23.63-42.99-20.85-51.39-8.52,14.55,4.41,41.07,30.05,60.65Z"/>
            <path class="cls-35" d="M29.63,259.63c15.29,11.68,31.75,4.06,31.75,4.06,2.37-4.18,7.29-14.16,19.14-29.76,0,0-30.56-8-41-31.31-.03-.09-.07-.16-.11-.25l-1.05,1.74c1.37,10.91,23.62,23.82,25.71,25.12,2.1,1.32-3.6,21.8-21.75,27.87-16.45,5.51-26.05-18.06-24.25-27.79-.28.3-.51.55-.71.74,0,0-3.01,17.9,12.27,29.58Z"/>
            <path class="cls-83" d="M78.62,234.19c-2.97-1.46-24.43,26.07-26.37,28.09-1.94,2.03,6.71,1.14,8.57.21,1.87-.95,17.79-28.29,17.79-28.29Z"/>
            <path class="cls-79" d="M206.41,103.64c-9.94,3.49-30.06,29.77-42.56,40.94-12.5,11.16-22.61,7.23-22.61,7.23,0,0,8.33,6.53,20.16-.57,11.82-7.1,18.52-19.57,31.8-32.84,13.29-13.27,18.69-15.95,18.69-15.95l-5.47,1.19Z"/>
            <path class="cls-95" d="M130.21,50.18c1.89,4.73,3.62,10.98,4.64,12.45,1.03,1.46-13.38,16.62-19.98,27.78-6.6,11.17-8.46,25.02-8.65,28.66-.18,3.62-9.54-11.86-7.89-17.85,1.65-6,22.02-25.89,31.88-51.03Z"/>
            <path class="cls-95" d="M137.01,63.34c6.41,3.07-1.03,9.82-6.44,20.66-5.41,10.84-5.23,12.14-5.52,11.64-.29-.5-2.54-5.03,1.23-14.81,3.77-9.78,10.73-17.49,10.73-17.49Z"/>
            <path class="cls-95" d="M140.91,70.36c2.86-1.36,5.52,2.24,4.8,6.9-.72,4.67-10.05,14.41-12.94,16.94-2.88,2.53,5.69-19.96,8.14-23.84Z"/>
            <path class="cls-95" d="M161.36,94.73c16.39-3.52-3.16,16.98-7.3,23.36-4.14,6.4-14.32.36-16.71.67-2.39.3-3.35-8.76-3.35-8.76l7.01-11.3s8.47.93,20.36-3.96Z"/>
            <path class="cls-95" d="M176.46,96.53c5.2-2.86,9.37,4.77,8.8,9.84-.57,5.06-27.6,16.63-29.3,15.42-1.7-1.21,11.41-20.25,20.5-25.26Z"/>
            <path class="cls-95" d="M90.14,156.65c3.4,2.62-4.35,8.35-7.16,10.09-2.82,1.75,1.28-7.73,7.16-10.09Z"/>
            <path class="cls-95" d="M94.43,160.02c6.02-.37-10.8,17.19-19.28,22.18-8.48,4.99.52-13.33,5.33-22.89,4.81-9.56,6.96-5.37,6.96-5.37,0,0-13.22,16.64-12.03,21.59,1.19,4.94,19.02-15.52,19.02-15.52Z"/>
            <path class="cls-95" d="M98.83,164.74c6.19.62-7.07,10.22-15.83,20.66-8.75,10.43-11.74,14.76-11.74,14.76,0,0-4.73-1.54-4.3-3.78.43-2.24,26.81-26.19,31.87-31.63Z"/>
            <path class="cls-95" d="M107.28,169.33c3.36-.44-8.34,5.14-18.96,17.37-10.63,12.23-14.64,15.96-14.64,15.96,0,0,8.08-13.48,18.02-22.57,9.94-9.08,15.58-10.75,15.58-10.75Z"/>
            <path class="cls-95" d="M109.41,171.39c1.13-.96,7.1,4.31,9.26,5.92,2.16,1.6-11.85,13.01-23.08,22.43-11.23,9.42-17.74,4.42-17.74,4.42,0,0,10.24-20.35,31.56-32.77Z"/>
            <path class="cls-95" d="M79.53,142.74c1.13-.2,2.31,3.59,2.84,5.99.52,2.39-12.57,20.45-12.57,20.45,0,0-.55-11.14,2.39-17.38,2.94-6.25,7.35-9.07,7.35-9.07Z"/>
            <path class="cls-95" d="M37.01,208.68c5.22-1.75,4.81,4.05-5.29,15.72-10.11,11.69-12.46,12.1-12.69,7.52-.23-4.56,17.98-23.25,17.98-23.25Z"/>
            <path class="cls-95" d="M40.9,214.52c3.13-1.39,4.72,2.27,4.72,2.27,0,0-12.73,12.87-17.72,19.99-4.99,7.14-5.61,8.88-5.61,8.88,0,0-1.62-5.47-.65-7.4s15.22-17.76,19.24-23.74Z"/>
            <path class="cls-95" d="M47.87,219.32c3.75-.73,3.55,5.35-6.62,15.71-10.18,10.38-14.26,10.16-14.26,10.16,0,0,9.15-17.78,20.88-25.88Z"/>
            <path class="cls-95" d="M53.23,223.61c3.3-1.57-5.34,16.58-13.61,24.38-8.27,7.81-12.24,5.32-12.12,3.08.12-2.27,12.69-11.27,19.11-19.22,6.41-7.94,6.62-8.25,6.62-8.25Z"/>
            <path class="cls-95" d="M57.9,227.61c2.11-2.13,6.2,3.47,6.2,3.47,0,0-2.46,11.25-11.96,20.93-9.49,9.67-16.35,9.71-17.94,6.82-1.6-2.87,10.24-10.96,18.49-23.05,8.25-12.1,5.21-8.17,5.21-8.17Z"/>
            <path class="cls-37" d="M95.78,158.49c1.87,1.76,3.9,3.46,6.03,5.09,16.13,12.33,34.17,16.67,43.59,11.23,1.29-.73,14.07-16.9,17.63-21.45,0,0-12.93,9.95-41.17-5.33,0,0-2.05,14-14.94,15.19-3.5.33-7.41-1.53-11.15-4.73Z"/>
            <path class="cls-36" d="M90.59,153.14c-6.98-8.56-12.17-20.72-10.93-29.1-2.32,7.76,1.94,18.81,10.93,29.1Z"/>
            <path class="cls-32" d="M56.91,222.34c14.87,11.37,31.51,15.36,40.2,10.34,1.31-.74,7.57-8.4,8.78-9.97.03-.05.07-.09.1-.12.23-.29.44-.6.62-.91.14-.22.26-.44.37-.67.91-1.68,1.37-3.62,1.44-5.73l-.44-.25-.6-.35s-.01,0-.02,0c-.34.36-5.4,5.53-15.04,3.42-9.99-2.16-16.34-5.87-16.34-5.87,0,0,.02,5.34-7.47,3.62-7.51-1.7-14.74-11.15-19.89-18.9-4.81-7.25-4.56-13.96-4.5-14.77,0-.02,0-.04,0-.04-.14.44-1.57,6.14,6.05,18.96,3.31,5.56,7.03,9.68,10.25,12.55.02.03.05.05.07.06,4.5,4.04,8.01,5.71,8.01,5.71,0,0,1.47,3.13-2.03,4.98-3.5,1.86-14.39-5.38-21.68-14.96-6.37-8.38-8.05-13.8-8.38-15.02,1.94,8.84,9.35,19.4,20.49,27.9Z"/>
            <path class="cls-30" d="M143.72,98.86c.55.71,19.4-13.36,27.36-10.39,0,0-.02-.02-.05-.04,20.96,13.47,42.79,17.65,54.81,10.73,1.51-.88,7.24-7.65,10.88-12.07-5.44,3.47-23.29,11.51-52.71-7.4,0,0-2.07,7.57-6.61,8.61-4.55,1.04-9.37-2.1-9.37-2.1,0,0-.06.03-.21.1-2.06.99-18.19,8.58-20.75,9.01-2.33.4-1.8-3.73-1.6-4.94-1,4.7-1.93,8.23-1.76,8.5Z"/>
            <path class="cls-78" d="M161.99,154.16c-5.78,4.29-15.38,3.83-15.38,3.83l-16.94,17.04s11.04,3.74,15.73-.21c4.69-3.96,16.58-20.66,16.58-20.66Z"/>
            <path class="cls-80" d="M236.72,87.08c-6.77,4.39-14.04,4.95-17.12,5.07-3.09.12-7.16,9.11-7.16,9.11,0,0,9.32,1.25,13.4-2.11,4.08-3.37,10.88-12.07,10.88-12.07Z"/>
            <path class="cls-82" d="M106,216.67c-4.71,2.29-11.99,2.49-13.54,2.18-1.55-.31-6.5,5.84-6.5,5.84,0,0,7.66,1.11,13.03-1.39,5.37-2.5,7.01-6.63,7.01-6.63Z"/>
            <path class="cls-81" d="M103.92,225.17c-5.11,3.1-12.99,2.99-14.93,2.75-1.94-.25-4.8,6.16-4.8,6.16,0,0,8.29.91,12.56-1.55,4.26-2.47,7.18-7.36,7.18-7.36Z"/>
            <path class="cls-31" d="M66.07,256.48s.26,5.67-6.93,10.46c-7.19,4.81-24.33-.11-32.69-8.59-9.17-9.27-8.95-19.55-8.95-19.55,0,0,.93,7.92,8.99,17.33,8.06,9.4,25.79,11.36,31.06,8.33,5.27-3.03,8.53-8,8.53-8Z"/>
            <path class="cls-47" d="M21.48,273.79c6.29,4.28,13.07-3.56,4.11-9.47-.84-.34-1.62-.56-2.34-.65,3.38,1.11,3.02,5.12.61,7.62-2.02,2.11-4.21.53-4.85,0,.56.9,1.37,1.76,2.46,2.49Z"/>
            <path class="cls-48" d="M7.92,259.29c6.29,4.26,6.95-6.02,3.03-10.28-.44-.18-.86-.33-1.25-.44,2.53.92,3.1,6.82.39,8.81-1.98,1.46-3.89.08-4.88-.93.61,1.04,1.52,2.03,2.71,2.84Z"/>
            <path class="cls-49" d="M3.39,243.23c1.81,1.76,5.3-8.87,5.31-11.74-.55-.13-1.07-.2-1.54-.23h-.01c1.52.76.59,6.66-3.27,7.39-.85.15-1.56.16-2.13.1.29,2.05,1.02,3.87,1.65,4.48Z"/>
            <path class="cls-43" d="M35.68,280.51c5.78,4.96,14.16.73,9.12-5.6-1.04-.56-2.27-.84-3.52-.92,2.51.37,5.18,4.52,1.3,6.88-3.37,2.05-7-.78-8.4-2.17.27.58.76,1.18,1.49,1.81Z"/>
            <path class="cls-44" d="M52.36,280.66c2.18,1.29,14.61.75,9.94-8.2-.87.25-2.41,1.02-4.03,2.02,2.47-.59,2.83,2.54-.59,4.98-2.76,1.97-4.75,1.18-5.64.59-.01.26.08.47.32.6Z"/>
            <path class="cls-50" d="M121.02,134.63l.07-.06c5.42-7.06,12.66-17.85,9.77-21.63-4.45-5.84-10.38-12.53-6.78-32.42l-1.98,2.42s-1.77,12.29.31,20.39c2.07,8.1,4.94,8.13,6.52,12.77,1.53,4.49-7.34,17.71-7.9,18.53Z"/>
            <path class="cls-93" d="M119.38,86.94c1.79-1.62,1.03,10.2,2.86,17.58,1.83,7.38,5.24,5.21,5.49,13.34.25,8.12-9.78,23.15-13.38,22.66-3.6-.5,3.84-7.84-1.22-21.62-5.07-13.78.65-26.48,6.25-31.95Z"/>
            <path class="cls-93" d="M168.22,123.05c-15.21,7.84-23.03,2.36-28.8-.07-5.78-2.44-19.65,14.62-20.49,18.33-.83,3.73,7.03-3.67,18.18-2.39,11.15,1.28,26.8-2.12,31.11-15.87Z"/>
            <path class="cls-93" d="M92.83,108.22c-2.58,24.78,29.43,41.82,34.32,45.24,4.89,3.43-18.15,14.56-19.6,14.15-1.45-.41-24.06-17.51-26.43-33.12-2.38-15.63,11.71-26.26,11.71-26.26Z"/>
            <path class="cls-93" d="M47.84,176.33c.9-.7-.22,5.19,7.14,17.8,7.35,12.62,22.2,19.77,23.19,20.65.99.89-6.85,4.15-13.13-.26-6.28-4.41-19.06-19.01-20.13-26.4-1.07-7.39,2.93-11.79,2.93-11.79Z"/>
            <path class="cls-93" d="M41.51,180.61c-2.3,11.59,8.71,22.96,14.48,29.13,5.78,6.16,15.64,12.75,15.75,12.8.12.07-6.65,4.15-14.08-.91-7.44-5.07-17.25-15.47-20.03-24.42-2.78-8.95,3.88-16.61,3.88-16.61Z"/>
            <path class="cls-29" d="M121.67,195.68c2.34-.16,4.73,6.01-.16,11.52-4.89,5.5-14.98,5.07-16.63,3.47-1.65-1.61,9.92-11.13,16.8-14.99Z"/>
            <path class="cls-25" d="M63.71,151.43c2.82.48,1.49,6.63-2.71,12.79-4.19,6.15-8.75-1.9-6.94-6.98,1.81-5.1,7.91-6.56,9.65-5.81Z"/>
            <path class="cls-45" d="M65.56,155.13s-1.62,5.61-5.8,14.99c-4.18,9.37-8.87,5.51-8.94,3.33,0,0,.42,4.62,6.03-.82,5.61-5.45,8.71-17.5,8.71-17.5Z"/>
            <path class="cls-77" d="M56.48,156.74c2.76-1.76,3.78,1.91,1.79,3.66-2,1.75-4.51-1.92-1.79-3.66Z"/>
            <path class="cls-74" d="M114.32,204.01c3.31.65.47,3.57-1.56,3.35-2.03-.23-.28-3.7,1.56-3.35Z"/>
            <path class="cls-46" d="M92.46,203.84c1.29-1.21,3.52-2.92,6.53-3.64,4.91-1.16,11.41-.57,20.65-5.65.02-.02.06-.03.08-.04,2.26-1.25,3.83-2.59,4.92-3.9.02-.02.03-.04.04-.05,1.9-2.32,2.31-4.56,2.31-6.06,0-.07,0-.15-.02-.24-.02-.71-.13-1.24-.19-1.46-.01-.06-.02-.09-.04-.12-.15.24-1.94,3.19-4.62,6.03-7.3,7.73-19.24,8.39-25.59,11.95-1.49.83-2.85,1.95-4.07,3.18Z"/>
            <path class="cls-85" d="M220.47,29.36c-10.96-6.85-44.78,32.61-46.74,37.22-1.96,4.62,2.23,7.87,2.23,7.87,0,0-15.34-11.14-23.61-22.83,0,0,5.6,8.46,9.74,8.05,4.15-.42,34.47-30.44,40.3-35.98,5.83-5.53-3.97-10.96-3.97-10.96,0,0,11.55,6.67,22.05,16.62Z"/>
            <path class="cls-68" d="M176.14,66.31c19.78,15.12,42.13,19.47,51.47,10.4.47-.46.92-.96,1.33-1.49,8.38-10.96-1.68-32.71-22.47-48.6-20.78-15.88-44.41-19.87-52.79-8.91-.41.53-.77,1.09-1.08,1.66-6.3,11.4,3.77,31.82,23.54,46.93Z"/>
            <path class="cls-14" d="M176.73,65.55c19.01,14.53,40.49,18.7,49.47,9.99.46-.44.88-.91,1.27-1.42,8.05-10.52-1.62-31.43-21.59-46.7-19.97-15.26-42.69-19.1-50.73-8.57-.4.52-.74,1.05-1.04,1.6-6.05,10.95,3.62,30.57,22.63,45.11Z"/>
            <path class="cls-15" d="M164.29,53.86c.4.48.82.94,1.26,1.42,2.56,2.84,5.46,5.62,8.68,8.25.8.69,1.64,1.36,2.5,2.01,19.02,14.53,40.5,18.7,49.47,9.99,6.04-10.94-3.63-30.58-22.63-45.1-7.47-5.71-15.31-9.81-22.64-12.18-.02,0-.03,0-.04-.01h-.02c-11.29-3.64-21.32-3.08-26.76,2.19-4.53,8.2-.25,21.28,10.17,33.43Z"/>
            <path class="cls-26" d="M203.57,30.44c21.97,43.29-25.13,33.86-37.51,22.84-12.37-11.01-17.05-28.95-7.57-34.65,9.48-5.68,34.16,1.84,45.08,11.8Z"/>
            <path class="cls-94" d="M227.44,71.51c-1.29-25.26-17.5-37.11-37.92-30.03-20.41,7.09-6.68,24.55,12.23,33.09,18.9,8.55,25.69-3.07,25.69-3.07Z"/>
            <path class="cls-94" d="M226.2,75.53c3.98-34.85-24.93-29.56-34.27-17.73-9.35,11.84,18.19,30.43,34.27,17.73Z"/>
            <path class="cls-88" d="M55.48,193.99c2.77,3.58-3.28,8.08-3.28,8.08l3.1,3.95s2.02-6.29,5.42-5.21l-5.25-6.82Z"/>
            <path class="cls-71" d="M49.77,202.74c1.62,2.31-3.46,8.62-3.46,8.62l2.29,2.68s4.07-7.22,5.92-5.75c0,0-3.03-2.8-4.76-5.55Z"/>
            <path class="cls-73" d="M102.51,130.3c5.37,4.98-12.31,22.4-12.31,22.4l3.29,3.86s12.16-19.57,16.97-17.11c0,0-4.21-3.56-7.96-9.15Z"/>
            <path class="cls-72" d="M124.78,109.41c-1.66-2.21-12.44,12.99-12.44,12.99l-1.05-4.93s3.11-.07,7.51-5.78c4.4-5.72,3.22-11.25,3.22-11.25,0,0,.08,6.12,2.76,8.97Z"/>
            <path class="cls-70" d="M153.25,54.01c-3.34-2.98-9.79,8.56-9.79,8.56,0,0-4.25-3.27-6.17-8.43,0,0,.92,1.41,3,.21,2.08-1.21,6.63-9.31,6.63-9.31,0,0,2.01,4.96,6.33,8.97Z"/>
            <path class="cls-93" d="M139.82,16.25s-3.81,7.14,2.88,21.63c6.68,14.48,20.61,28.47,20.61,28.47,0,0-7.15,4.83-10.31,3.72-3.16-1.11-14.95-12.21-19.68-25.97-4.74-13.75,1.27-24.32,6.5-27.85Z"/>
            <path class="cls-93" d="M136.13,22.7c3.04-.81,5.22,15.67,12.47,25.03,7.24,9.36,11.12,13.55,11.12,13.55,0,0-9.48,8.6-18.47-3.89-8.99-12.48-11.83-28.44-5.12-34.7Z"/>
            <path class="cls-24" d="M164.13,70.77c2.49,1.54.3,8.94-3.02,9.17-3.31.24-6.54,3.5-6.52,3.4.02-.1,1.41-5.53.6-7.62-.82-2.09,5.85-5.38,8.94-4.95Z"/>
            <path class="cls-75" d="M159.35,72.8c3.81-.14-.01,4.78-2.08,3.3-1.38-1-.02-3.22,2.08-3.3Z"/>
            <path class="cls-76" d="M179.03,21.32c16.98,4,1.62,15.98-8.25,9.83-9.87-6.15-.54-11.9,8.25-9.83Z"/>
            <path class="cls-87" d="M174.23,63.54c.8.69,1.64,1.36,2.5,2.01,19.02,14.53,40.5,18.7,49.47,9.99,6.04-10.94-3.63-30.58-22.63-45.1-7.47-5.71-15.31-9.81-22.64-12.18,1.39.54,25.29,10.05,36.43,27.58,11.49,18.05,8,27.92-5.57,30.56-10.45,2.03-26.16-4.05-37.56-12.86Z"/>
            <path class="cls-89" d="M164.29,53.86c.4.48.82.94,1.26,1.42-.06-.05-.12-.12-.16-.18-.38-.48-.74-.88-1.1-1.24Z"/>
            <path class="cls-97" d="M102.51,130.3c2.85-1.78,7.25,8.11,7.25,8.11,0,0-4.01-2.4-7.25-8.11Z"/>
            <path class="cls-97" d="M122.23,102.86c.34.1,1.89,5.71,1.89,5.71,0,0-2.78-.91-1.89-5.71Z"/>
            <path class="cls-97" d="M56.32,195.08c.58-.33,4.38,5.22,4.38,5.22,0,0-3.38.22-4.38-5.22Z"/>
            <path class="cls-97" d="M50.39,203.53c2.32-1.05,3.33,4.33,3.33,4.33,0,0-3.33-2.28-3.33-4.33Z"/>
            <path class="cls-97" d="M11.15,246.59c3.81-3.01,5.18,8.57,5.18,8.57,0,0-4.47-4.62-5.18-8.57Z"/>
            <path class="cls-41" d="M138.45,122.75c3.08.02,12.45,7.6,8,13.02-4.45,5.43-13.6,1.54-21.37,5.05-7.76,3.52,2.75-15.69,13.36-18.08Z"/>
            <path class="cls-23" d="M58.16,202.24c2.53-1.95,10.02,5.8,11.28,8.15,1.26,2.33-4.43,3.4-4.43,3.4,0,0-6.62-3.77-8-6.7-1.38-2.94,1.15-4.85,1.15-4.85Z"/>
            <path class="cls-39" d="M145.58,157.45c2.08.56-12.41,15.81-15.28,17.3-2.86,1.48-10.97-1.83-13.09-4.46-2.12-2.63,5.74-6.82,8.98-9.42,3.24-2.61,4.01-8.26,4.01-8.26,0,0,9.9,4.48,15.38,4.84Z"/>
            <path class="cls-20" d="M91.45,218.19c2.18,1.22-3.53,6.3-3.53,6.3,0,0-5.42-.47-8.18-2.06-2.77-1.59,3.43-6.08,3.43-6.08,0,0,7.28,1.18,8.28,1.84Z"/>
            <path class="cls-22" d="M88.25,228.06c.39.33-3.14,5.84-5.71,5.78-2.56-.03-8.45-2.06-8.92-3.34-.47-1.29,5.56-5.18,5.56-5.18,0,0,7.56,2.55,9.07,2.74Z"/>
            <path class="cls-33" d="M199.97,14.04c6,5.39,2.65,6.84,2.65,6.84,0,0-19.49-14.52-36.96-10.01-17.47,4.52-16.19,19.3-12.98,26.16,3.22,6.86-4.31,5.07-4.31,5.07,0,0-14.38-23.94-3.92-34.16,10.47-10.21,39.41-5.23,55.51,6.1Z"/>
            <path class="cls-69" d="M137.84,121.68c1.16-2.19,4.57-1.49,6.7.09,2.14,1.57.56,2.66.56,2.66,0,0-5.27-2.47-7.26-2.75Z"/>
            <path class="cls-86" d="M66.07,166.6c1.5-.58,2.26,2.54,2.2,6.06-.07,3.52-2.53,2.32-2.53,2.32,0,0-.26-8.08.33-8.38Z"/>
            <path class="cls-90" d="M68.3,149.91c.76-.49-3.74,10.72-3.5,21.31.25,10.59-7.87,18.18-9.2,17.87-1.32-.33-2.01-1.81-2.01-1.81,0,0,2.35,4.42,3.05,5.04,0,0,6.4-4.6,8.35-13.39,1.96-8.79.49-11.85,1.53-20.01,1.03-8.17,4.53-12.06,4.53-12.06l-2.75,3.06Z"/>
            <path class="cls-21" d="M215.39,91.62c2.01.12-4.12,8.66-5.37,9.7-1.25,1.04-15.45-1.65-18.67-3.65-3.22-1.98,8.2-8.12,8.2-8.12,0,0,12.65,2.65,15.84,2.07Z"/>
            <path class="cls-92" d="M229.52,59.02c-1.4-1.81-2.17,3.66-2.17,3.66,0,0,2.85,9.24-3.17,13.82-6.02,4.59-16.82,3.62-16.82,3.62,0,0,13.21,2.3,19.26-4.04,6.05-6.35,2.9-17.05,2.9-17.05Z"/>
            <path class="cls-97" d="M53.28,202.81c1.93-1.41,2.08,1.39,1.64,1.93-.44.53-1.64-1.93-1.64-1.93Z"/>
            <path class="cls-99" d="M108.15,129.87c1.17.83,2.58,4.67-.32,2.49-2.91-2.18.32-2.49.32-2.49Z"/>
            <path class="cls-100" d="M124.12,103.17c.82-.73,1.53,2.22,1.93,3.19.41.98-3.39-1.35-1.93-3.19Z"/>
            <path class="cls-97" d="M16.06,245.29c1.42-.75,3.03,4.68,3.03,4.68,0,0-4.43-1.61-3.03-4.68Z"/>
            <path class="cls-98" d="M162.54,1.61c10.65,0,23.74,4.03,36.75,11.66-.29-.2-.5-.33-.66-.42.21.12.59.35,1.12.67,3.71,2.2,7.41,4.67,11.04,7.44,8.89,6.8,16.26,14.43,21.72,22.12,0,0,.06.08.17.23,9.83,13.91,13.41,27.92,8.63,37.38-.02.05-.06.1-.08.15-.18.34-.35.68-.55,1.01-.31.52-.65,1.04-1.04,1.56-.41.52-1.51,1.9-2.93,3.65,0,0-4.56,5.83-8.45,9.79-1.08,1.15-1.97,2.01-2.43,2.28-1.13.92-2.66,1.49-4.28,1.84-2.16.69-4.53,1.14-7.06,1.33-5.94,2.65-11.63,6.9-16.98,11.86-1.26,1.2-2.62,2.52-4.07,3.97-.2.2-.4.41-.6.61-.66.66-1.25,1.31-1.88,1.97-10.62,11.35-19.6,24.14-26.15,30.06-.06.1-.13.2-.19.3-.22.64-.69,1.49-1.66,2.35-1.3,1.67-3.76,4.79-6.43,8.14-3.48,4.62-7.81,10.11-10.49,12.64-.29.29-.52.52-.63.58-1.19,1.01-2.8,1.51-4.53,1.71-1.68.39-3.49.58-5.43.58-1.41,0-2.87-.1-4.39-.29,0,0,0,0-.01.01l-.75,1.01c-1.48,1.98-2.95,4-4.41,6.01l-.87,1.22c-.47.65-.93,1.3-1.39,1.94,1.83-2.21,3.01-4.12,3.13-4.32.01.03.03.06.04.12.06.23.17.75.19,1.46.01.09.01.17.02.24.12,1.53.06,3.57-.91,4.42-.16.21-.35.4-.52.61.09-.09.19-.15.28-.24,0,0-.01,0-.02.05-.24.36-1.76,2.75-3.89,5.96.25-.16.49-.32.75-.47,0,0,9.81,13.13-14.26,20.21,0,.07,0,.17,0,.23-.05,1.55-.4,2.98-.9,4.31-.14.48-.31.95-.54,1.41-.11.23-.23.45-.37.67-.18.31-.38.62-.62.91-.03.03-.07.07-.1.12-.34.44-1.08,1.36-1.98,2.46h0s-1.93,3.2-4.93,5.73c-.84.92-1.53,1.61-1.87,1.78-2.47,1.44-5.58,2.13-9.12,2.13-2.33,0-4.84-.3-7.46-.89,0,.01-.01.01-.01.02-6.15,8.09-10.42,14.66-13.45,19.7.09.33.15.65.23.97l.02-.03s3.38,10.89-3.45,16.14c-.24.18-.52.34-.78.5-.36.44-.73.89-1.13,1.39.11-.05.24-.11.34-.12,3.53,6.76-2.69,8.73-6.89,8.73-1.36,0-2.51-.21-3.05-.53-.02-.01-.03-.03-.04-.04-1.94.57-4.06.87-6.32.87-.34,0-.67,0-1.01-.02-.93.78-2.26,1.21-3.74,1.21-1.79,0-3.8-.65-5.56-2.17-.44-.38-.76-.74-1.03-1.1-3.1-1.07-6.26-2.54-9.37-4.42-.04,0-.08,0-.12,0-1.16,0-2.43-.35-3.69-1.21-1.09-.73-1.89-1.59-2.46-2.49-.24-.41-.42-.81-.57-1.22-3.71-3.12-6.81-6.55-9.21-10.08-.41-.16-.85-.37-1.32-.71-1.19-.81-2.1-1.8-2.71-2.84-1.21-2.02-1.38-4.26-.66-5.86-.8-2.54-1.21-5.03-1.16-7.36-.63-.61-1.35-2.43-1.64-4.48-.5-3.45.24-7.51,4.78-7.51.2,0,.41.01.62.03h.01c.47.02.99.09,1.54.22,0,.03,0,.1,0,.14,1.38-1.89,2.66-3.6,2.93-3.95,2.8-3.66,7.36-5.52,12.76-5.71,3.35-4.15,7.68-9.73,13.97-17.86l1.05-1.74c.03.09.07.16.11.25.01-.02.02-.03.03-.04-1.47-2.8-2.56-5.55-3.13-8.14,0-.04-.02-.09-.02-.11-.01-.04-.03-.08-.03-.12h0s0-.03,0-.03c-.73-3.47-.6-6.67.47-9.36.38-.94,6.33-8.97,6.96-9.78.14-.2.31-.38.47-.57.14-.15.28-.31.43-.44.25-.25.5-.47.77-.67.14-.12.29-.22.44-.34h0c1.38-1.07,3.01-1.88,4.87-2.39.41-15.29,6.35-18.82,10.82-19.29.34-.05.66-.07.95-.07.15,0,.3,0,.44.02,2.06.04,3.55.63,3.55.63,0,0,0,0,0,0,.65-.73,1.24-1.41,1.77-2h0l.06-.07c1.36-1.52,2.22-2.48,2.35-2.62l.34-.37s-.15.18-.35.45c-.04.07-.06.14-.1.21.15-.22.29-.45.45-.66.89-1.82,5.18-2.22,5.76-2.27.89-1.1,1.77-2.19,2.65-3.3l1.61-2.61s.05.12.18.35c.05-.07.11-.14.16-.21-2.28-5.45-3-10.6-1.75-14.78.1-.39.24-.76.38-1.12.41-1.03,15.73-21.34,16.4-22.22.03-.04.07-.07.11-.12,1.01-1.28,2.27-2.32,3.72-3.14,7.29-12.53,24.51-32.94,30.05-52.43.51-1.79.91-3.56,1.2-5.32-1.22-5.54-1.08-10.66.64-14.95.59-1.47,9.83-13.95,10.81-15.21.61-.8,1.27-1.5,1.96-2.11,4.19-3.92,10.33-5.8,17.62-5.8h0ZM75.25,146.54c.24-.31.49-.62.73-.92-.2.23-.43.5-.67.8,0,0-.03.04-.06.12h0ZM125.85,189.28h0ZM162.54,0v1.61V0c-7.88,0-14.35,2.15-18.72,6.24-.78.69-1.49,1.45-2.14,2.31-.1.13-10.27,13.69-11.02,15.59-1.77,4.42-2.04,9.67-.78,15.58-.28,1.61-.65,3.23-1.11,4.84-3.86,13.59-13.65,27.85-21.52,39.3-3.1,4.51-6.03,8.78-8.16,12.38-1.51.92-2.79,2.03-3.81,3.33-.06.05-.07.07-.12.13-.16.21-16.07,21.22-16.62,22.6-.17.45-.33.86-.44,1.3-1.22,4.06-.76,9.11,1.34,14.63l-1.31,2.1c-.65.82-1.3,1.63-1.95,2.45l-.21.26c-1.89.22-5.08.88-6.25,2.86l-.22.24c-.12.13-.99,1.08-2.35,2.61l-1.15,1.3c-1.38-.34-2.97-.4-2.99-.4-.07-.02-.26-.02-.47-.02-.36,0-.76.03-1.19.1-4.22.44-11.4,3.62-12.15,19.69-1.59.55-3.02,1.31-4.29,2.31,0,0-.01.01-.02.02l-.13.09c-.13.1-.25.19-.37.29-.26.2-.56.46-.85.76-.11.1-.3.3-.48.5-.21.24-.39.46-.56.68-.05.06-6.63,8.82-7.16,10.14-1.18,2.96-1.37,6.4-.57,10.23.01.07.03.14.05.21,0,.01.01.03.01.05.54,2.43,1.46,4.94,2.76,7.57l-.56.93-.16.21c-5.78,7.46-10.02,12.94-13.27,16.98-5.79.36-10.36,2.54-13.24,6.31-.23.3-1.15,1.54-2.26,3.04-.29-.06-.57-.07-.83-.09h-.14c-.2,0-.39,0-.58,0-2.56,0-4.05,1.08-4.84,2-1.94,2.23-1.79,5.56-1.54,7.33.22,1.53.76,3.57,1.63,4.83.01,2.11.37,4.37,1.07,6.73-.67,2.06-.32,4.59.98,6.74.75,1.29,1.85,2.45,3.19,3.35.38.25.76.48,1.16.67,2.45,3.5,5.45,6.78,8.93,9.75.13.33.31.71.55,1.08.72,1.16,1.71,2.17,2.93,2.99,1.32.9,2.78,1.4,4.25,1.47,2.86,1.71,5.84,3.12,8.86,4.19.29.34.6.65.94.95,1.93,1.66,4.28,2.57,6.62,2.57,1.59,0,3.08-.43,4.25-1.21.17,0,.33.01.5.01,2.17,0,4.24-.27,6.15-.76,1.08.39,2.45.46,3.26.46,1.52,0,6.62-.27,8.74-3.75.77-1.28,1.35-3.41-.03-6.54l.06-.08.05-.03c.22-.13.43-.26.62-.41,7.64-5.88,4.16-17.41,4.01-17.9-.02-.05-.04-.11-.06-.16h0c3.6-5.96,7.67-11.92,12.41-18.21,2.38.47,4.66.71,6.79.71,3.91,0,7.25-.8,9.93-2.35.34-.19.85-.57,2.19-2.02,2.86-2.43,4.77-5.38,5.13-5.96.88-1.07,1.6-1.98,1.94-2.4.37-.47.62-.84.84-1.24.13-.19.28-.46.42-.74.26-.53.47-1.08.64-1.68.47-1.24.77-2.49.9-3.77,8.77-2.77,14.07-6.73,15.75-11.78,1.51-4.54-.42-8.49-1.33-9.99,1.43-2.17,2.43-3.75,2.73-4.21.03-.04.06-.09.1-.15.02-.04.05-.09.07-.14,1.08-1.06,1.51-2.9,1.31-5.61-.01-.1-.02-.18-.03-.26-.01-.43-.06-.8-.1-1.1,1.03-1.42,2.07-2.83,3.11-4.22l.21-.28c1.25.13,2.48.19,3.65.19,2.03,0,3.94-.19,5.7-.59,2.16-.26,3.92-.94,5.22-2,.21-.15.45-.37.83-.77,2.78-2.62,7.31-8.41,10.61-12.79,2.6-3.25,5.01-6.32,6.33-8.01,1.09-1.01,1.64-2.01,1.93-2.73,3.53-3.23,7.63-8.23,12.36-14.01,4.11-5.01,8.76-10.69,13.71-15.98l.62-.66c.4-.43.8-.85,1.22-1.28l.6-.61c1.43-1.42,2.78-2.74,4.03-3.93,5.75-5.33,11.09-9.08,16.28-11.44,2.52-.21,4.9-.66,7.07-1.36,1.99-.44,3.61-1.14,4.79-2.08.42-.27,1.11-.83,2.67-2.49,3.89-3.96,8.36-9.67,8.55-9.91,1.41-1.73,2.52-3.12,2.93-3.65.4-.53.78-1.09,1.15-1.73.2-.33.38-.68.56-1.03l-1.32-.96,1.44.72c4.92-9.73,1.64-24.32-8.76-39.03-.12-.18-.21-.28-.21-.28-5.66-7.97-13.29-15.74-22.02-22.42-3.51-2.68-7.27-5.22-11.19-7.54-.51-.32-.9-.55-1.12-.69-.09-.04-.19-.09-.29-.12-12.77-7.33-25.73-11.34-36.63-11.34h0Z"/>
          </g>
        </g>
      </g>
    </g>
  </g>
</svg>