<?xml version="1.0" encoding="UTF-8"?>
<svg xmlns="http://www.w3.org/2000/svg" xmlns:xlink="http://www.w3.org/1999/xlink" viewBox="0 0 201.33 257.34">
  <defs>
    <style>
      .cls-1 {
        fill: url(#_ÂÁ_Ï_ÌÌ_È_ËÂÌÚ_112-11);
      }

      .cls-2 {
        fill: url(#_ÂÁ_Ï_ÌÌ_È_ËÂÌÚ_112-10);
      }

      .cls-3 {
        fill: url(#_ÂÁ_Ï_ÌÌ_È_ËÂÌÚ_112-12);
      }

      .cls-4 {
        fill: url(#_ÂÁ_Ï_ÌÌ_È_ËÂÌÚ_104);
      }

      .cls-5 {
        fill: url(#_ÂÁ_Ï_ÌÌ_È_ËÂÌÚ_113);
      }

      .cls-6 {
        fill: url(#_ÂÁ_Ï_ÌÌ_È_ËÂÌÚ_112);
      }

      .cls-7 {
        fill: url(#_ÂÁ_Ï_ÌÌ_È_ËÂÌÚ_159);
      }

      .cls-8 {
        fill: url(#_ÂÁ_Ï_ÌÌ_È_ËÂÌÚ_331);
      }

      .cls-9 {
        fill: url(#_ÂÁ_Ï_ÌÌ_È_ËÂÌÚ_109-2);
      }

      .cls-9, .cls-10, .cls-11, .cls-12, .cls-13, .cls-14, .cls-15, .cls-16, .cls-17, .cls-18, .cls-19, .cls-20, .cls-21, .cls-22, .cls-23, .cls-24, .cls-25, .cls-26, .cls-27, .cls-28, .cls-29, .cls-30, .cls-31, .cls-32, .cls-33, .cls-34, .cls-35, .cls-36, .cls-37, .cls-38, .cls-39, .cls-40, .cls-41, .cls-42, .cls-43, .cls-44, .cls-45 {
        opacity: .5;
      }

      .cls-9, .cls-10, .cls-11, .cls-12, .cls-13, .cls-14, .cls-15, .cls-16, .cls-17, .cls-18, .cls-19, .cls-20, .cls-21, .cls-22, .cls-23, .cls-24, .cls-25, .cls-26, .cls-27, .cls-28, .cls-29, .cls-30, .cls-31, .cls-32, .cls-33, .cls-34, .cls-35, .cls-36, .cls-37, .cls-38, .cls-39, .cls-40, .cls-41, .cls-42, .cls-43, .cls-44, .cls-45, .cls-46, .cls-47, .cls-48, .cls-49, .cls-50, .cls-51, .cls-52, .cls-53, .cls-54, .cls-55, .cls-56, .cls-57 {
        mix-blend-mode: multiply;
      }

      .cls-10 {
        fill: url(#_ÂÁ_Ï_ÌÌ_È_ËÂÌÚ_712-3);
      }

      .cls-11 {
        fill: url(#_ÂÁ_Ï_ÌÌ_È_ËÂÌÚ_712-4);
      }

      .cls-12 {
        fill: url(#_ÂÁ_Ï_ÌÌ_È_ËÂÌÚ_712-2);
      }

      .cls-13 {
        fill: url(#_ÂÁ_Ï_ÌÌ_È_ËÂÌÚ_715-2);
      }

      .cls-14 {
        fill: url(#_ÂÁ_Ï_ÌÌ_È_ËÂÌÚ_105-2);
      }

      .cls-15 {
        fill: url(#_ÂÁ_Ï_ÌÌ_È_ËÂÌÚ_105-3);
      }

      .cls-16 {
        fill: url(#_ÂÁ_Ï_ÌÌ_È_ËÂÌÚ_105-6);
      }

      .cls-17 {
        fill: url(#_ÂÁ_Ï_ÌÌ_È_ËÂÌÚ_105-4);
      }

      .cls-18 {
        fill: url(#_ÂÁ_Ï_ÌÌ_È_ËÂÌÚ_105-7);
      }

      .cls-19 {
        fill: url(#_ÂÁ_Ï_ÌÌ_È_ËÂÌÚ_105-5);
      }

      .cls-20 {
        fill: url(#_ÂÁ_Ï_ÌÌ_È_ËÂÌÚ_111-3);
      }

      .cls-21 {
        fill: url(#_ÂÁ_Ï_ÌÌ_È_ËÂÌÚ_111-2);
      }

      .cls-22 {
        fill: url(#_ÂÁ_Ï_ÌÌ_È_ËÂÌÚ_110-2);
      }

      .cls-23 {
        fill: url(#_ÂÁ_Ï_ÌÌ_È_ËÂÌÚ_416-3);
      }

      .cls-24 {
        fill: url(#_ÂÁ_Ï_ÌÌ_È_ËÂÌÚ_416-2);
      }

      .cls-25 {
        fill: url(#_ÂÁ_Ï_ÌÌ_È_ËÂÌÚ_493-7);
      }

      .cls-26 {
        fill: url(#_ÂÁ_Ï_ÌÌ_È_ËÂÌÚ_493-3);
      }

      .cls-27 {
        fill: url(#_ÂÁ_Ï_ÌÌ_È_ËÂÌÚ_493-4);
      }

      .cls-28 {
        fill: url(#_ÂÁ_Ï_ÌÌ_È_ËÂÌÚ_493-5);
      }

      .cls-29 {
        fill: url(#_ÂÁ_Ï_ÌÌ_È_ËÂÌÚ_493-6);
      }

      .cls-30 {
        fill: url(#_ÂÁ_Ï_ÌÌ_È_ËÂÌÚ_493-9);
      }

      .cls-31 {
        fill: url(#_ÂÁ_Ï_ÌÌ_È_ËÂÌÚ_493-8);
      }

      .cls-32 {
        fill: url(#_ÂÁ_Ï_ÌÌ_È_ËÂÌÚ_493-2);
      }

      .cls-33 {
        fill: url(#_ÂÁ_Ï_ÌÌ_È_ËÂÌÚ_524-2);
      }

      .cls-58 {
        fill: url(#_ÂÁ_Ï_ÌÌ_È_ËÂÌÚ_112-5);
      }

      .cls-59 {
        fill: url(#_ÂÁ_Ï_ÌÌ_È_ËÂÌÚ_112-4);
      }

      .cls-60 {
        fill: url(#_ÂÁ_Ï_ÌÌ_È_ËÂÌÚ_112-7);
      }

      .cls-61 {
        fill: url(#_ÂÁ_Ï_ÌÌ_È_ËÂÌÚ_112-2);
      }

      .cls-62 {
        fill: url(#_ÂÁ_Ï_ÌÌ_È_ËÂÌÚ_112-8);
      }

      .cls-63 {
        fill: url(#_ÂÁ_Ï_ÌÌ_È_ËÂÌÚ_112-3);
      }

      .cls-64 {
        fill: url(#_ÂÁ_Ï_ÌÌ_È_ËÂÌÚ_112-6);
      }

      .cls-65 {
        fill: url(#_ÂÁ_Ï_ÌÌ_È_ËÂÌÚ_112-9);
      }

      .cls-66 {
        fill: url(#_ÂÁ_Ï_ÌÌ_È_ËÂÌÚ_113-2);
      }

      .cls-67 {
        fill: url(#_ÂÁ_Ï_ÌÌ_È_ËÂÌÚ_104-4);
      }

      .cls-68 {
        fill: url(#_ÂÁ_Ï_ÌÌ_È_ËÂÌÚ_104-2);
      }

      .cls-69 {
        fill: url(#_ÂÁ_Ï_ÌÌ_È_ËÂÌÚ_104-3);
      }

      .cls-34 {
        fill: url(#_ÂÁ_Ï_ÌÌ_È_ËÂÌÚ_675);
      }

      .cls-35 {
        fill: url(#_ÂÁ_Ï_ÌÌ_È_ËÂÌÚ_712);
      }

      .cls-36 {
        fill: url(#_ÂÁ_Ï_ÌÌ_È_ËÂÌÚ_715);
      }

      .cls-37 {
        fill: url(#_ÂÁ_Ï_ÌÌ_È_ËÂÌÚ_111);
      }

      .cls-38 {
        fill: url(#_ÂÁ_Ï_ÌÌ_È_ËÂÌÚ_114);
      }

      .cls-39 {
        fill: url(#_ÂÁ_Ï_ÌÌ_È_ËÂÌÚ_110);
      }

      .cls-40 {
        fill: url(#_ÂÁ_Ï_ÌÌ_È_ËÂÌÚ_105);
      }

      .cls-41 {
        fill: url(#_ÂÁ_Ï_ÌÌ_È_ËÂÌÚ_109);
      }

      .cls-42 {
        fill: url(#_ÂÁ_Ï_ÌÌ_È_ËÂÌÚ_524);
      }

      .cls-43 {
        fill: url(#_ÂÁ_Ï_ÌÌ_È_ËÂÌÚ_598);
      }

      .cls-44 {
        fill: url(#_ÂÁ_Ï_ÌÌ_È_ËÂÌÚ_416);
      }

      .cls-45 {
        fill: url(#_ÂÁ_Ï_ÌÌ_È_ËÂÌÚ_493);
      }

      .cls-46 {
        fill: url(#_ÂÁ_Ï_ÌÌ_È_ËÂÌÚ_12);
      }

      .cls-46, .cls-52 {
        opacity: .3;
      }

      .cls-70 {
        isolation: isolate;
      }

      .cls-71, .cls-72 {
        fill: #fff;
      }

      .cls-47 {
        fill: url(#_ÂÁ_Ï_ÌÌ_È_ËÂÌÚ_157);
      }

      .cls-48 {
        fill: url(#_ÂÁ_Ï_ÌÌ_È_ËÂÌÚ_393);
      }

      .cls-73 {
        fill: #fff1df;
      }

      .cls-49 {
        fill: url(#_ÂÁ_Ï_ÌÌ_È_ËÂÌÚ_393-4);
      }

      .cls-50 {
        fill: url(#_ÂÁ_Ï_ÌÌ_È_ËÂÌÚ_393-2);
      }

      .cls-51 {
        fill: url(#_ÂÁ_Ï_ÌÌ_È_ËÂÌÚ_393-3);
      }

      .cls-74 {
        fill: #c2ffc4;
      }

      .cls-75 {
        fill: #681e26;
      }

      .cls-52 {
        fill: url(#_ÂÁ_Ï_ÌÌ_È_ËÂÌÚ_12-2);
      }

      .cls-76 {
        fill: url(#_ÂÁ_Ï_ÌÌ_È_ËÂÌÚ_156-2);
      }

      .cls-76, .cls-77, .cls-78, .cls-79, .cls-80 {
        mix-blend-mode: screen;
      }

      .cls-76, .cls-80 {
        opacity: .8;
      }

      .cls-77 {
        fill: url(#_ÂÁ_Ï_ÌÌ_È_ËÂÌÚ_319-2);
      }

      .cls-77, .cls-78 {
        opacity: .7;
      }

      .cls-72 {
        mix-blend-mode: soft-light;
        opacity: .6;
      }

      .cls-78 {
        fill: url(#_ÂÁ_Ï_ÌÌ_È_ËÂÌÚ_1833);
      }

      .cls-79 {
        fill: url(#_ÂÁ_Ï_ÌÌ_È_ËÂÌÚ_319);
        opacity: .97;
      }

      .cls-80 {
        fill: url(#_ÂÁ_Ï_ÌÌ_È_ËÂÌÚ_156);
      }

      .cls-53 {
        fill: url(#_ÂÁ_Ï_ÌÌ_È_ËÂÌÚ_1866);
      }

      .cls-54 {
        fill: url(#_ÂÁ_Ï_ÌÌ_È_ËÂÌÚ_1687);
      }

      .cls-55 {
        fill: url(#_ÂÁ_Ï_ÌÌ_È_ËÂÌÚ_1900);
      }

      .cls-56 {
        fill: url(#_ÂÁ_Ï_ÌÌ_È_ËÂÌÚ_1951);
      }

      .cls-57 {
        fill: url(#_ÂÁ_Ï_ÌÌ_È_ËÂÌÚ_2010);
      }

      .cls-81 {
        fill: url(#_ÂÁ_Ï_ÌÌ_È_ËÂÌÚ_2069);
      }

      .cls-82 {
        fill: url(#_ÂÁ_Ï_ÌÌ_È_ËÂÌÚ_1963);
      }

      .cls-83 {
        fill: url(#_ÂÁ_Ï_ÌÌ_È_ËÂÌÚ_13);
      }
    </style>
    <linearGradient id="_ÂÁ_Ï_ÌÌ_È_ËÂÌÚ_1900" data-name="¡ÂÁ˚ÏˇÌÌ˚È „‡‰ËÂÌÚ 1900" x1="100.66" y1="257.34" x2="100.66" y2="14.44" gradientUnits="userSpaceOnUse">
      <stop offset="0" stop-color="#e7a4df"/>
      <stop offset="1" stop-color="#a12a9a"/>
    </linearGradient>
    <linearGradient id="_ÂÁ_Ï_ÌÌ_È_ËÂÌÚ_104" data-name="¡ÂÁ˚ÏˇÌÌ˚È „‡‰ËÂÌÚ 104" x1="4127.31" y1="134.23" x2="4127.31" y2="66.7" gradientTransform="translate(4179.97) rotate(-180) scale(1 -1)" gradientUnits="userSpaceOnUse">
      <stop offset="0" stop-color="#ef8b77"/>
      <stop offset=".41" stop-color="#ad494a"/>
      <stop offset="1" stop-color="#6a222e"/>
    </linearGradient>
    <linearGradient id="_ÂÁ_Ï_ÌÌ_È_ËÂÌÚ_331" data-name="¡ÂÁ˚ÏˇÌÌ˚È „‡‰ËÂÌÚ 331" x1="99.26" y1="223.24" x2="99.26" y2="146.26" gradientUnits="userSpaceOnUse">
      <stop offset="0" stop-color="#ef8b77"/>
      <stop offset=".57" stop-color="#ad494a"/>
      <stop offset="1" stop-color="#6a222e"/>
    </linearGradient>
    <linearGradient id="_ÂÁ_Ï_ÌÌ_È_ËÂÌÚ_113" data-name="¡ÂÁ˚ÏˇÌÌ˚È „‡‰ËÂÌÚ 113" x1="99.95" y1="244.5" x2="99.95" y2="143.27" gradientUnits="userSpaceOnUse">
      <stop offset="0" stop-color="#f1beb1"/>
      <stop offset=".13" stop-color="#f3c6b5"/>
      <stop offset=".69" stop-color="#fbe3c5"/>
      <stop offset="1" stop-color="#ffefcc"/>
    </linearGradient>
    <linearGradient id="_ÂÁ_Ï_ÌÌ_È_ËÂÌÚ_114" data-name="¡ÂÁ˚ÏˇÌÌ˚È „‡‰ËÂÌÚ 114" x1="99.51" y1="244.5" x2="99.51" y2="145.66" gradientUnits="userSpaceOnUse">
      <stop offset="0" stop-color="#ffb1ae"/>
      <stop offset="1" stop-color="#8b1559"/>
    </linearGradient>
    <linearGradient id="_ÂÁ_Ï_ÌÌ_È_ËÂÌÚ_112" data-name="¡ÂÁ˚ÏˇÌÌ˚È „‡‰ËÂÌÚ 112" x1="88.54" y1="232.62" x2="88.54" y2="201.22" gradientUnits="userSpaceOnUse">
      <stop offset="0" stop-color="#f4c293"/>
      <stop offset=".1" stop-color="#f5c899"/>
      <stop offset=".68" stop-color="#fce5b6"/>
      <stop offset="1" stop-color="#fff1c2"/>
    </linearGradient>
    <linearGradient id="_ÂÁ_Ï_ÌÌ_È_ËÂÌÚ_112-2" data-name="¡ÂÁ˚ÏˇÌÌ˚È „‡‰ËÂÌÚ 112" x1="72.86" y1="224.07" x2="72.86" y2="196.99" xlink:href="#_ÂÁ_Ï_ÌÌ_È_ËÂÌÚ_112"/>
    <linearGradient id="_ÂÁ_Ï_ÌÌ_È_ËÂÌÚ_112-3" data-name="¡ÂÁ˚ÏˇÌÌ˚È „‡‰ËÂÌÚ 112" x1="5572.05" y1="232.62" x2="5572.05" gradientTransform="translate(5680.96) rotate(-180) scale(1 -1)" xlink:href="#_ÂÁ_Ï_ÌÌ_È_ËÂÌÚ_112"/>
    <linearGradient id="_ÂÁ_Ï_ÌÌ_È_ËÂÌÚ_112-4" data-name="¡ÂÁ˚ÏˇÌÌ˚È „‡‰ËÂÌÚ 112" x1="5555.74" y1="224.07" x2="5555.74" y2="196.99" gradientTransform="translate(5680.96) rotate(-180) scale(1 -1)" xlink:href="#_ÂÁ_Ï_ÌÌ_È_ËÂÌÚ_112"/>
    <linearGradient id="_ÂÁ_Ï_ÌÌ_È_ËÂÌÚ_112-5" data-name="¡ÂÁ˚ÏˇÌÌ˚È „‡‰ËÂÌÚ 112" x1="5543.91" y1="212.61" x2="5543.91" y2="192.85" gradientTransform="translate(5680.96) rotate(-180) scale(1 -1)" xlink:href="#_ÂÁ_Ï_ÌÌ_È_ËÂÌÚ_112"/>
    <linearGradient id="_ÂÁ_Ï_ÌÌ_È_ËÂÌÚ_112-6" data-name="¡ÂÁ˚ÏˇÌÌ˚È „‡‰ËÂÌÚ 112" x1="1271.64" y1="212.61" x2="1271.64" y2="192.85" gradientTransform="translate(-1210.54)" xlink:href="#_ÂÁ_Ï_ÌÌ_È_ËÂÌÚ_112"/>
    <linearGradient id="_ÂÁ_Ï_ÌÌ_È_ËÂÌÚ_113-2" data-name="¡ÂÁ˚ÏˇÌÌ˚È „‡‰ËÂÌÚ 113" x1="100.67" y1="187.8" x2="100.67" y2="1.61" xlink:href="#_ÂÁ_Ï_ÌÌ_È_ËÂÌÚ_113"/>
    <linearGradient id="_ÂÁ_Ï_ÌÌ_È_ËÂÌÚ_112-7" data-name="¡ÂÁ˚ÏˇÌÌ˚È „‡‰ËÂÌÚ 112" x1="71.73" y1="194.46" x2="71.73" y2="160.87" xlink:href="#_ÂÁ_Ï_ÌÌ_È_ËÂÌÚ_112"/>
    <linearGradient id="_ÂÁ_Ï_ÌÌ_È_ËÂÌÚ_112-8" data-name="¡ÂÁ˚ÏˇÌÌ˚È „‡‰ËÂÌÚ 112" x1="88.92" y1="199.74" x2="88.92" y2="158.85" xlink:href="#_ÂÁ_Ï_ÌÌ_È_ËÂÌÚ_112"/>
    <linearGradient id="_ÂÁ_Ï_ÌÌ_È_ËÂÌÚ_112-9" data-name="¡ÂÁ˚ÏˇÌÌ˚È „‡‰ËÂÌÚ 112" x1="128.52" y1="194.46" x2="128.52" y2="160.87" xlink:href="#_ÂÁ_Ï_ÌÌ_È_ËÂÌÚ_112"/>
    <linearGradient id="_ÂÁ_Ï_ÌÌ_È_ËÂÌÚ_112-10" data-name="¡ÂÁ˚ÏˇÌÌ˚È „‡‰ËÂÌÚ 112" x1="110.13" y1="199.74" x2="110.13" y2="161.04" xlink:href="#_ÂÁ_Ï_ÌÌ_È_ËÂÌÚ_112"/>
    <linearGradient id="_ÂÁ_Ï_ÌÌ_È_ËÂÌÚ_112-11" data-name="¡ÂÁ˚ÏˇÌÌ˚È „‡‰ËÂÌÚ 112" x1="138.57" y1="185.82" x2="138.57" y2="164.03" xlink:href="#_ÂÁ_Ï_ÌÌ_È_ËÂÌÚ_112"/>
    <linearGradient id="_ÂÁ_Ï_ÌÌ_È_ËÂÌÚ_112-12" data-name="¡ÂÁ˚ÏˇÌÌ˚È „‡‰ËÂÌÚ 112" x1="62.2" y1="185.36" x2="62.2" y2="164.02" xlink:href="#_ÂÁ_Ï_ÌÌ_È_ËÂÌÚ_112"/>
    <linearGradient id="_ÂÁ_Ï_ÌÌ_È_ËÂÌÚ_104-2" data-name="¡ÂÁ˚ÏˇÌÌ˚È „‡‰ËÂÌÚ 104" x1="98.09" y1="151.44" x2="98.09" y2="116.28" gradientTransform="matrix(1,0,0,1,0,0)" xlink:href="#_ÂÁ_Ï_ÌÌ_È_ËÂÌÚ_104"/>
    <linearGradient id="_ÂÁ_Ï_ÌÌ_È_ËÂÌÚ_416" data-name="¡ÂÁ˚ÏˇÌÌ˚È „‡‰ËÂÌÚ 416" x1="32.53" y1="168.98" x2="32.53" y2="134.01" gradientUnits="userSpaceOnUse">
      <stop offset="0" stop-color="#8b4259"/>
      <stop offset="1" stop-color="#ffb1ae"/>
    </linearGradient>
    <linearGradient id="_ÂÁ_Ï_ÌÌ_È_ËÂÌÚ_416-2" data-name="¡ÂÁ˚ÏˇÌÌ˚È „‡‰ËÂÌÚ 416" x1="4389.38" x2="4389.38" gradientTransform="translate(4556.77) rotate(-180) scale(1 -1)" xlink:href="#_ÂÁ_Ï_ÌÌ_È_ËÂÌÚ_416"/>
    <linearGradient id="_ÂÁ_Ï_ÌÌ_È_ËÂÌÚ_393" data-name="¡ÂÁ˚ÏˇÌÌ˚È „‡‰ËÂÌÚ 393" x1="89.13" y1="149.55" x2="89.13" y2="122.68" gradientUnits="userSpaceOnUse">
      <stop offset="0" stop-color="#b65bab"/>
      <stop offset="1" stop-color="#7f4ab1"/>
    </linearGradient>
    <linearGradient id="_ÂÁ_Ï_ÌÌ_È_ËÂÌÚ_393-2" data-name="¡ÂÁ˚ÏˇÌÌ˚È „‡‰ËÂÌÚ 393" x1="4414.14" x2="4414.14" gradientTransform="translate(4521.33) rotate(-180) scale(1 -1)" xlink:href="#_ÂÁ_Ï_ÌÌ_È_ËÂÌÚ_393"/>
    <linearGradient id="_ÂÁ_Ï_ÌÌ_È_ËÂÌÚ_598" data-name="¡ÂÁ˚ÏˇÌÌ˚È „‡‰ËÂÌÚ 598" x1="101.17" y1="188.97" x2="101.17" y2="156.79" gradientUnits="userSpaceOnUse">
      <stop offset="0" stop-color="#ff5968"/>
      <stop offset="1" stop-color="#9d1d59"/>
    </linearGradient>
    <linearGradient id="_ÂÁ_Ï_ÌÌ_È_ËÂÌÚ_493" data-name="¡ÂÁ˚ÏˇÌÌ˚È „‡‰ËÂÌÚ 493" x1="77.09" y1="232.65" x2="77.09" y2="198.13" gradientUnits="userSpaceOnUse">
      <stop offset="0" stop-color="#9d1d59"/>
      <stop offset="1" stop-color="#ffb1ae"/>
    </linearGradient>
    <linearGradient id="_ÂÁ_Ï_ÌÌ_È_ËÂÌÚ_493-2" data-name="¡ÂÁ˚ÏˇÌÌ˚È „‡‰ËÂÌÚ 493" x1="120.59" y1="233.75" x2="120.59" y2="200.27" xlink:href="#_ÂÁ_Ï_ÌÌ_È_ËÂÌÚ_493"/>
    <linearGradient id="_ÂÁ_Ï_ÌÌ_È_ËÂÌÚ_111" data-name="¡ÂÁ˚ÏˇÌÌ˚È „‡‰ËÂÌÚ 111" x1="96.54" y1="112.72" x2="96.54" y2="68.85" gradientUnits="userSpaceOnUse">
      <stop offset="0" stop-color="#a94259"/>
      <stop offset="1" stop-color="#ffb1ae"/>
    </linearGradient>
    <linearGradient id="_ÂÁ_Ï_ÌÌ_È_ËÂÌÚ_715" data-name="¡ÂÁ˚ÏˇÌÌ˚È „‡‰ËÂÌÚ 715" x1="191.16" y1="122.68" x2="191.16" y2="57.31" gradientUnits="userSpaceOnUse">
      <stop offset="0" stop-color="#ffb1ae"/>
      <stop offset="1" stop-color="#8b4259"/>
    </linearGradient>
    <linearGradient id="_ÂÁ_Ï_ÌÌ_È_ËÂÌÚ_715-2" data-name="¡ÂÁ˚ÏˇÌÌ˚È „‡‰ËÂÌÚ 715" x1="4431.79" x2="4431.79" gradientTransform="translate(4441.59) rotate(-180) scale(1 -1)" xlink:href="#_ÂÁ_Ï_ÌÌ_È_ËÂÌÚ_715"/>
    <linearGradient id="_ÂÁ_Ï_ÌÌ_È_ËÂÌÚ_111-2" data-name="¡ÂÁ˚ÏˇÌÌ˚È „‡‰ËÂÌÚ 111" x1="15.98" y1="64.36" x2="71.1" y2="64.36" xlink:href="#_ÂÁ_Ï_ÌÌ_È_ËÂÌÚ_111"/>
    <linearGradient id="_ÂÁ_Ï_ÌÌ_È_ËÂÌÚ_111-3" data-name="¡ÂÁ˚ÏˇÌÌ˚È „‡‰ËÂÌÚ 111" x1="4362.4" y1="64.36" x2="4417.51" y2="64.36" gradientTransform="translate(4534.98) rotate(-180) scale(1 -1)" xlink:href="#_ÂÁ_Ï_ÌÌ_È_ËÂÌÚ_111"/>
    <linearGradient id="_ÂÁ_Ï_ÌÌ_È_ËÂÌÚ_493-3" data-name="¡ÂÁ˚ÏˇÌÌ˚È „‡‰ËÂÌÚ 493" x1="61.18" y1="185.36" x2="61.18" y2="172.97" xlink:href="#_ÂÁ_Ï_ÌÌ_È_ËÂÌÚ_493"/>
    <linearGradient id="_ÂÁ_Ï_ÌÌ_È_ËÂÌÚ_493-4" data-name="¡ÂÁ˚ÏˇÌÌ˚È „‡‰ËÂÌÚ 493" x1="70.32" y1="194.46" x2="70.32" y2="185.93" xlink:href="#_ÂÁ_Ï_ÌÌ_È_ËÂÌÚ_493"/>
    <linearGradient id="_ÂÁ_Ï_ÌÌ_È_ËÂÌÚ_493-5" data-name="¡ÂÁ˚ÏˇÌÌ˚È „‡‰ËÂÌÚ 493" x1="88.67" y1="199.74" x2="88.67" y2="189.85" xlink:href="#_ÂÁ_Ï_ÌÌ_È_ËÂÌÚ_493"/>
    <linearGradient id="_ÂÁ_Ï_ÌÌ_È_ËÂÌÚ_493-6" data-name="¡ÂÁ˚ÏˇÌÌ˚È „‡‰ËÂÌÚ 493" x1="110.16" y1="199.74" x2="110.16" y2="190.44" xlink:href="#_ÂÁ_Ï_ÌÌ_È_ËÂÌÚ_493"/>
    <linearGradient id="_ÂÁ_Ï_ÌÌ_È_ËÂÌÚ_493-7" data-name="¡ÂÁ˚ÏˇÌÌ˚È „‡‰ËÂÌÚ 493" x1="128.8" y1="194.46" x2="128.8" y2="180.31" xlink:href="#_ÂÁ_Ï_ÌÌ_È_ËÂÌÚ_493"/>
    <linearGradient id="_ÂÁ_Ï_ÌÌ_È_ËÂÌÚ_493-8" data-name="¡ÂÁ˚ÏˇÌÌ˚È „‡‰ËÂÌÚ 493" x1="139.83" y1="185.82" x2="139.83" y2="176.35" xlink:href="#_ÂÁ_Ï_ÌÌ_È_ËÂÌÚ_493"/>
    <linearGradient id="_ÂÁ_Ï_ÌÌ_È_ËÂÌÚ_493-9" data-name="¡ÂÁ˚ÏˇÌÌ˚È „‡‰ËÂÌÚ 493" x1="143.92" y1="177.14" x2="143.92" y2="175.73" xlink:href="#_ÂÁ_Ï_ÌÌ_È_ËÂÌÚ_493"/>
    <linearGradient id="_ÂÁ_Ï_ÌÌ_È_ËÂÌÚ_416-3" data-name="¡ÂÁ˚ÏˇÌÌ˚È „‡‰ËÂÌÚ 416" x1="98.11" y1="110.87" x2="98.11" y2="98.13" xlink:href="#_ÂÁ_Ï_ÌÌ_È_ËÂÌÚ_416"/>
    <linearGradient id="_ÂÁ_Ï_ÌÌ_È_ËÂÌÚ_524" data-name="¡ÂÁ˚ÏˇÌÌ˚È „‡‰ËÂÌÚ 524" x1="54.93" y1="141.58" x2="54.93" y2="122.16" gradientUnits="userSpaceOnUse">
      <stop offset="0" stop-color="#fff"/>
      <stop offset="1" stop-color="#a94259"/>
    </linearGradient>
    <linearGradient id="_ÂÁ_Ï_ÌÌ_È_ËÂÌÚ_524-2" data-name="¡ÂÁ˚ÏˇÌÌ˚È „‡‰ËÂÌÚ 524" x1="4382.43" x2="4382.43" gradientTransform="translate(4523.99) rotate(-180) scale(1 -1)" xlink:href="#_ÂÁ_Ï_ÌÌ_È_ËÂÌÚ_524"/>
    <linearGradient id="_ÂÁ_Ï_ÌÌ_È_ËÂÌÚ_110" data-name="¡ÂÁ˚ÏˇÌÌ˚È „‡‰ËÂÌÚ 110" x1="153.72" y1="165.52" x2="153.72" y2="147.9" gradientUnits="userSpaceOnUse">
      <stop offset="0" stop-color="#ffb1ae"/>
      <stop offset="1" stop-color="#8b0059"/>
    </linearGradient>
    <linearGradient id="_ÂÁ_Ï_ÌÌ_È_ËÂÌÚ_110-2" data-name="¡ÂÁ˚ÏˇÌÌ˚È „‡‰ËÂÌÚ 110" x1="4434.52" x2="4434.52" y2="149.57" gradientTransform="translate(4478.75) rotate(-180) scale(1 -1)" xlink:href="#_ÂÁ_Ï_ÌÌ_È_ËÂÌÚ_110"/>
    <linearGradient id="_ÂÁ_Ï_ÌÌ_È_ËÂÌÚ_13" data-name="¡ÂÁ˚ÏˇÌÌ˚È „‡‰ËÂÌÚ 13" x1="155.51" y1="41.98" x2="174.81" y2="41.98" gradientUnits="userSpaceOnUse">
      <stop offset="0" stop-color="#ef8b77"/>
      <stop offset="1" stop-color="#ad494a"/>
    </linearGradient>
    <linearGradient id="_ÂÁ_Ï_ÌÌ_È_ËÂÌÚ_12" data-name="¡ÂÁ˚ÏˇÌÌ˚È „‡‰ËÂÌÚ 12" x1="32.31" y1="62.49" x2="32.31" y2="26.79" gradientUnits="userSpaceOnUse">
      <stop offset="0" stop-color="#a94259"/>
      <stop offset="1" stop-color="#fff"/>
    </linearGradient>
    <linearGradient id="_ÂÁ_Ï_ÌÌ_È_ËÂÌÚ_109" data-name="¡ÂÁ˚ÏˇÌÌ˚È „‡‰ËÂÌÚ 109" x1="159.59" y1="141.13" x2="159.59" y2="122.68" gradientUnits="userSpaceOnUse">
      <stop offset="0" stop-color="#ca6888"/>
      <stop offset="1" stop-color="#ffd3ae"/>
    </linearGradient>
    <linearGradient id="_ÂÁ_Ï_ÌÌ_È_ËÂÌÚ_109-2" data-name="¡ÂÁ˚ÏˇÌÌ˚È „‡‰ËÂÌÚ 109" x1="4417.48" x2="4417.48" gradientTransform="translate(4456.64) rotate(-180) scale(1 -1)" xlink:href="#_ÂÁ_Ï_ÌÌ_È_ËÂÌÚ_109"/>
    <linearGradient id="_ÂÁ_Ï_ÌÌ_È_ËÂÌÚ_12-2" data-name="¡ÂÁ˚ÏˇÌÌ˚È „‡‰ËÂÌÚ 12" x1="664.71" y1="-291.5" x2="664.71" y2="-308.87" gradientTransform="translate(-454.85 461.83) rotate(-10.55)" xlink:href="#_ÂÁ_Ï_ÌÌ_È_ËÂÌÚ_12"/>
    <linearGradient id="_ÂÁ_Ï_ÌÌ_È_ËÂÌÚ_675" data-name="¡ÂÁ˚ÏˇÌÌ˚È „‡‰ËÂÌÚ 675" x1="99.55" y1="244.5" x2="99.55" y2="204.68" gradientUnits="userSpaceOnUse">
      <stop offset="0" stop-color="#8b1559"/>
      <stop offset="1" stop-color="#ce72ae"/>
    </linearGradient>
    <linearGradient id="_ÂÁ_Ï_ÌÌ_È_ËÂÌÚ_105" data-name="¡ÂÁ˚ÏˇÌÌ˚È „‡‰ËÂÌÚ 105" x1="186.3" y1="112.17" x2="186.3" y2="73.7" gradientUnits="userSpaceOnUse">
      <stop offset="0" stop-color="#ffb1ae"/>
      <stop offset="1" stop-color="#a94259"/>
    </linearGradient>
    <linearGradient id="_ÂÁ_Ï_ÌÌ_È_ËÂÌÚ_105-2" data-name="¡ÂÁ˚ÏˇÌÌ˚È „‡‰ËÂÌÚ 105" x1="4425.02" x2="4425.02" gradientTransform="translate(4438.71) rotate(-180) scale(1 -1)" xlink:href="#_ÂÁ_Ï_ÌÌ_È_ËÂÌÚ_105"/>
    <linearGradient id="_ÂÁ_Ï_ÌÌ_È_ËÂÌÚ_712" data-name="¡ÂÁ˚ÏˇÌÌ˚È „‡‰ËÂÌÚ 712" x1="12.64" y1="144.51" x2="12.64" y2="127.28" gradientUnits="userSpaceOnUse">
      <stop offset="0" stop-color="#ffdeae"/>
      <stop offset="1" stop-color="#a74259"/>
    </linearGradient>
    <linearGradient id="_ÂÁ_Ï_ÌÌ_È_ËÂÌÚ_712-2" data-name="¡ÂÁ˚ÏˇÌÌ˚È „‡‰ËÂÌÚ 712" x1="159.59" y1="151.34" x2="159.59" y2="144.47" xlink:href="#_ÂÁ_Ï_ÌÌ_È_ËÂÌÚ_712"/>
    <linearGradient id="_ÂÁ_Ï_ÌÌ_È_ËÂÌÚ_105-3" data-name="¡ÂÁ˚ÏˇÌÌ˚È „‡‰ËÂÌÚ 105" x1="12.64" y1="142.38" x2="12.64" y2="127.07" xlink:href="#_ÂÁ_Ï_ÌÌ_È_ËÂÌÚ_105"/>
    <linearGradient id="_ÂÁ_Ï_ÌÌ_È_ËÂÌÚ_712-3" data-name="¡ÂÁ˚ÏˇÌÌ˚È „‡‰ËÂÌÚ 712" x1="4553.06" y1="215.85" x2="4553.06" y2="192.37" gradientTransform="translate(4691.39 186.26) rotate(-175.44) scale(1 -1)" xlink:href="#_ÂÁ_Ï_ÌÌ_È_ËÂÌÚ_712"/>
    <linearGradient id="_ÂÁ_Ï_ÌÌ_È_ËÂÌÚ_712-4" data-name="¡ÂÁ˚ÏˇÌÌ˚È „‡‰ËÂÌÚ 712" x1="4568.46" y1="198.76" x2="4568.46" y2="191.17" gradientTransform="translate(4691.39 186.26) rotate(-175.44) scale(1 -1)" xlink:href="#_ÂÁ_Ï_ÌÌ_È_ËÂÌÚ_712"/>
    <linearGradient id="_ÂÁ_Ï_ÌÌ_È_ËÂÌÚ_105-4" data-name="¡ÂÁ˚ÏˇÌÌ˚È „‡‰ËÂÌÚ 105" x1="4552.85" y1="210.07" x2="4552.85" y2="192.28" gradientTransform="translate(4691.39 186.26) rotate(-175.44) scale(1 -1)" xlink:href="#_ÂÁ_Ï_ÌÌ_È_ËÂÌÚ_105"/>
    <linearGradient id="_ÂÁ_Ï_ÌÌ_È_ËÂÌÚ_105-5" data-name="¡ÂÁ˚ÏˇÌÌ˚È „‡‰ËÂÌÚ 105" x1="4568.42" y1="198.18" x2="4568.42" y2="190.93" gradientTransform="translate(4691.39 186.26) rotate(-175.44) scale(1 -1)" xlink:href="#_ÂÁ_Ï_ÌÌ_È_ËÂÌÚ_105"/>
    <linearGradient id="_ÂÁ_Ï_ÌÌ_È_ËÂÌÚ_105-6" data-name="¡ÂÁ˚ÏˇÌÌ˚È „‡‰ËÂÌÚ 105" x1="51.84" y1="105.47" x2="51.84" y2="77.6" xlink:href="#_ÂÁ_Ï_ÌÌ_È_ËÂÌÚ_105"/>
    <linearGradient id="_ÂÁ_Ï_ÌÌ_È_ËÂÌÚ_104-3" data-name="¡ÂÁ˚ÏˇÌÌ˚È „‡‰ËÂÌÚ 104" x1="4395.11" y1="134.43" x2="4395.11" y2="83.61" gradientTransform="translate(4447.5) rotate(-180) scale(1 -1)" xlink:href="#_ÂÁ_Ï_ÌÌ_È_ËÂÌÚ_104"/>
    <linearGradient id="_ÂÁ_Ï_ÌÌ_È_ËÂÌÚ_393-3" data-name="¡ÂÁ˚ÏˇÌÌ˚È „‡‰ËÂÌÚ 393" x1="52.78" y1="134.87" x2="52.78" y2="85.4" xlink:href="#_ÂÁ_Ï_ÌÌ_È_ËÂÌÚ_393"/>
    <linearGradient id="_ÂÁ_Ï_ÌÌ_È_ËÂÌÚ_105-7" data-name="¡ÂÁ˚ÏˇÌÌ˚È „‡‰ËÂÌÚ 105" x1="5975.74" y1="105.29" x2="5975.74" y2="77.43" gradientTransform="translate(6121.87) rotate(-180) scale(1 -1)" xlink:href="#_ÂÁ_Ï_ÌÌ_È_ËÂÌÚ_105"/>
    <linearGradient id="_ÂÁ_Ï_ÌÌ_È_ËÂÌÚ_104-4" data-name="¡ÂÁ˚ÏˇÌÌ˚È „‡‰ËÂÌÚ 104" x1="-1528.74" y1="134.25" x2="-1528.74" y2="82.5" gradientTransform="translate(1674.37)" xlink:href="#_ÂÁ_Ï_ÌÌ_È_ËÂÌÚ_104"/>
    <linearGradient id="_ÂÁ_Ï_ÌÌ_È_ËÂÌÚ_393-4" data-name="¡ÂÁ˚ÏˇÌÌ˚È „‡‰ËÂÌÚ 393" x1="5976.96" y1="134.69" x2="5976.96" y2="83.56" gradientTransform="translate(6121.87) rotate(-180) scale(1 -1)" xlink:href="#_ÂÁ_Ï_ÌÌ_È_ËÂÌÚ_393"/>
    <linearGradient id="_ÂÁ_Ï_ÌÌ_È_ËÂÌÚ_1951" data-name="¡ÂÁ˚ÏˇÌÌ˚È „‡‰ËÂÌÚ 1951" x1="326.35" y1="-108.14" x2="326.35" y2="-146.06" gradientTransform="translate(-164.1 275.49) rotate(-5.79)" gradientUnits="userSpaceOnUse">
      <stop offset="0" stop-color="#e098c7"/>
      <stop offset="1" stop-color="#b54ab1"/>
    </linearGradient>
    <linearGradient id="_ÂÁ_Ï_ÌÌ_È_ËÂÌÚ_1963" data-name="¡ÂÁ˚ÏˇÌÌ˚È „‡‰ËÂÌÚ 1963" x1="325.37" y1="-110.98" x2="325.37" y2="-158.04" gradientTransform="translate(-164.1 275.49) rotate(-5.79)" gradientUnits="userSpaceOnUse">
      <stop offset="0" stop-color="#00d4b4"/>
      <stop offset="1" stop-color="#004dff"/>
    </linearGradient>
    <linearGradient id="_ÂÁ_Ï_ÌÌ_È_ËÂÌÚ_319" data-name="¡ÂÁ˚ÏˇÌÌ˚È „‡‰ËÂÌÚ 319" x1="332.82" y1="-137.14" x2="318.12" y2="-162.6" gradientTransform="translate(-164.1 275.49) rotate(-5.79)" gradientUnits="userSpaceOnUse">
      <stop offset="0" stop-color="#525252"/>
      <stop offset=".99" stop-color="#fff"/>
    </linearGradient>
    <linearGradient id="_ÂÁ_Ï_ÌÌ_È_ËÂÌÚ_2069" data-name="¡ÂÁ˚ÏˇÌÌ˚È „‡‰ËÂÌÚ 2069" x1="325.38" y1="-111.71" x2="325.38" y2="-154.8" gradientTransform="translate(-164.1 275.49) rotate(-5.79)" gradientUnits="userSpaceOnUse">
      <stop offset="0" stop-color="#41e0cb"/>
      <stop offset="1" stop-color="#86ecff"/>
    </linearGradient>
    <linearGradient id="_ÂÁ_Ï_ÌÌ_È_ËÂÌÚ_159" data-name="¡ÂÁ˚ÏˇÌÌ˚È „‡‰ËÂÌÚ 159" x1="321.5" y1="-116.15" x2="321.5" y2="-142.94" gradientTransform="translate(-164.1 275.49) rotate(-5.79)" gradientUnits="userSpaceOnUse">
      <stop offset="0" stop-color="#00b8c6"/>
      <stop offset="1" stop-color="#005cff"/>
    </linearGradient>
    <linearGradient id="_ÂÁ_Ï_ÌÌ_È_ËÂÌÚ_157" data-name="¡ÂÁ˚ÏˇÌÌ˚È „‡‰ËÂÌÚ 157" x1="318.72" y1="-112.11" x2="318.72" y2="-120.7" gradientTransform="translate(-164.1 275.49) rotate(-5.79)" gradientUnits="userSpaceOnUse">
      <stop offset="0" stop-color="#d4f0ff"/>
      <stop offset="1" stop-color="#83c2dd"/>
    </linearGradient>
    <linearGradient id="_ÂÁ_Ï_ÌÌ_È_ËÂÌÚ_2010" data-name="¡ÂÁ˚ÏˇÌÌ˚È „‡‰ËÂÌÚ 2010" x1="340.01" y1="-117.47" x2="340.01" y2="-145.97" gradientTransform="translate(-164.1 275.49) rotate(-5.79)" gradientUnits="userSpaceOnUse">
      <stop offset="0" stop-color="#b0f3ff"/>
      <stop offset="1" stop-color="#83c0dd"/>
    </linearGradient>
    <linearGradient id="_ÂÁ_Ï_ÌÌ_È_ËÂÌÚ_1687" data-name="¡ÂÁ˚ÏˇÌÌ˚È „‡‰ËÂÌÚ 1687" x1="304.82" y1="-128.17" x2="304.82" y2="-151.59" gradientTransform="translate(-164.1 275.49) rotate(-5.79)" gradientUnits="userSpaceOnUse">
      <stop offset="0" stop-color="#e2ffff"/>
      <stop offset="1" stop-color="#83c0dd"/>
    </linearGradient>
    <linearGradient id="_ÂÁ_Ï_ÌÌ_È_ËÂÌÚ_156" data-name="¡ÂÁ˚ÏˇÌÌ˚È „‡‰ËÂÌÚ 156" x1="319.89" y1="-116.9" x2="319.89" y2="-134.14" gradientTransform="translate(-164.1 275.49) rotate(-5.79)" gradientUnits="userSpaceOnUse">
      <stop offset="0" stop-color="#16ac00"/>
      <stop offset="1" stop-color="#000"/>
    </linearGradient>
    <linearGradient id="_ÂÁ_Ï_ÌÌ_È_ËÂÌÚ_156-2" data-name="¡ÂÁ˚ÏˇÌÌ˚È „‡‰ËÂÌÚ 156" x1="320.07" y1="-116.33" x2="320.07" y2="-127.41" xlink:href="#_ÂÁ_Ï_ÌÌ_È_ËÂÌÚ_156"/>
    <linearGradient id="_ÂÁ_Ï_ÌÌ_È_ËÂÌÚ_319-2" data-name="¡ÂÁ˚ÏˇÌÌ˚È „‡‰ËÂÌÚ 319" x1="304.61" y1="-148.87" x2="340.5" y2="-148.87" xlink:href="#_ÂÁ_Ï_ÌÌ_È_ËÂÌÚ_319"/>
    <linearGradient id="_ÂÁ_Ï_ÌÌ_È_ËÂÌÚ_1833" data-name="¡ÂÁ˚ÏˇÌÌ˚È „‡‰ËÂÌÚ 1833" x1="313.39" y1="-111.85" x2="313.39" y2="-130.9" gradientTransform="translate(-164.1 275.49) rotate(-5.79)" gradientUnits="userSpaceOnUse">
      <stop offset="0" stop-color="#525252"/>
      <stop offset=".99" stop-color="#7affff"/>
    </linearGradient>
    <linearGradient id="_ÂÁ_Ï_ÌÌ_È_ËÂÌÚ_1866" data-name="¡ÂÁ˚ÏˇÌÌ˚È „‡‰ËÂÌÚ 1866" x1="324.91" y1="-136.38" x2="324.91" y2="-157.89" gradientTransform="translate(-164.1 275.49) rotate(-5.79)" gradientUnits="userSpaceOnUse">
      <stop offset="0" stop-color="#e2dbf2"/>
      <stop offset="1" stop-color="#a24ab1"/>
    </linearGradient>
  </defs>
  <g class="cls-70">
    <g id="Layer_2" data-name="Layer 2">
      <g id="_Layer_" data-name="&amp;lt;Layer&amp;gt;">
        <g>
          <path class="cls-55" d="M199.64,135.48h0s.01.04.01.04h0v-.08c0-.06-.01-.15-.01-.26-.05-1.63-.13-3.26-.23-4.93-.07-1.22-.16-2.46-.26-3.69-.03-.31-.05-.61-.08-.92-.1-1.21-.22-2.41-.34-3.62,0-.03,0-.07-.01-.1-.14-1.24-.28-2.49-.44-3.73-.04-.31-.08-.64-.12-.94-.15-1.19-.32-2.38-.49-3.57,0-.05-.01-.11-.03-.17-.18-1.24-.37-2.48-.58-3.71-.05-.31-.1-.62-.15-.93-.19-1.16-.4-2.33-.6-3.48-.01-.07-.03-.14-.04-.21-.22-1.23-.45-2.44-.69-3.65-.05-.29-.11-.59-.17-.89-.23-1.12-.45-2.23-.68-3.33-.01-.08-.03-.16-.05-.24-.24-1.18-.5-2.35-.75-3.5-.06-.27-.12-.53-.18-.8-.25-1.09-.49-2.16-.73-3.22-.02-.06-.03-.12-.05-.19-.26-1.11-.52-2.21-.79-3.31-.06-.23-.12-.47-.17-.71-.25-1.01-.51-2.01-.75-2.98-.01-.05-.03-.11-.04-.16-.27-1.05-.54-2.07-.8-3.07-.04-.18-.1-.35-.14-.54-.26-.96-.51-1.9-.77-2.81v-.02c-.26-.95-.52-1.86-.78-2.75-.03-.13-.07-.25-.1-.37-.25-.87-.49-1.69-.71-2.48,0,0,0,0,0,0h0c-1.15-3.94-2.14-6.96-2.76-8.79-.02-.07-.05-.13-.07-.2-.09-.25-.17-.48-.25-.69-.37-1.05-.8-2.08-1.26-3.09-.12-.27-.27-.54-.41-.81-.35-.74-.71-1.47-1.11-2.19-.14-.26-.32-.53-.47-.79-.41-.72-.83-1.42-1.28-2.11-.15-.23-.31-.45-.47-.67-.48-.72-.97-1.43-1.51-2.13-.13-.17-.27-.35-.41-.52-.58-.73-1.17-1.47-1.78-2.18-.11-.12-.22-.24-.32-.36-.67-.77-1.37-1.51-2.08-2.24-.08-.07-.14-.14-.21-.21-.77-.78-1.55-1.53-2.38-2.27-.03-.03-.05-.06-.09-.09-.86-.78-1.74-1.53-2.64-2.27h0c-.23-.34-.4-.58-.55-.8h0c-.29-.43-.47-.63-.47-.63,0,0,.21.25.47.63h0c.13.19.27.42.45.72h0c-11.53-9.4-26.65-15.81-40.51-19.62-.03-.01-.05-.02-.08-.03-1.52-.42-3.03-.81-4.52-1.16-.03,0-.05,0-.07-.02-1.39-.33-2.75-.63-4.09-.91-.16-.03-.33-.07-.49-.1-1.36-.28-2.69-.53-4-.75-.08-.02-.16-.03-.23-.04-1.18-.2-2.33-.37-3.44-.53-.25-.04-.49-.06-.74-.1-1.17-.16-2.32-.29-3.42-.39-.08-.01-.14-.01-.22-.02-1.01-.09-1.96-.16-2.9-.22-.26-.01-.51-.03-.76-.04-.97-.04-1.92-.08-2.79-.08-4.72,0-10.86.72-17.69,2.19-7.8,1.68-16.51,4.32-25.05,7.97-1.07.46-2.13.93-3.19,1.42-2.12.98-4.22,2.02-6.29,3.12-5.16,2.77-10.09,5.93-14.53,9.5-3.56,2.86-6.8,5.98-9.59,9.36-3.49,4.23-6.28,8.89-8.11,13.96-.07.2-.15.43-.24.7-.02.06-.04.13-.06.19-.07.22-.14.45-.23.71-.03.09-.06.19-.09.29-.08.25-.17.53-.26.82-.03.1-.06.21-.09.3-.1.32-.2.67-.31,1.02-.03.1-.05.2-.09.3-.11.39-.23.79-.36,1.22-.03.1-.06.2-.09.3-.13.45-.26.91-.4,1.4-.03.09-.05.18-.08.28-.15.54-.31,1.1-.47,1.69-.01.04-.02.08-.03.12-.17.63-.35,1.29-.54,1.98,0,.01,0,.02,0,.03.2-1.03.37-2.05.61-3.15-.62,2.3-1.22,4.58-1.78,6.82-.02.08-.04.15-.05.22-.55,2.19-1.06,4.36-1.55,6.48-.01.05-.03.12-.04.17-.48,2.14-.94,4.24-1.37,6.3-.01.03-.02.07-.02.11-.43,2.08-.83,4.12-1.21,6.11h0s0,.01,0,.02c-.63,3.14-1.25,6.38-1.82,9.68,0,0,0,.02,0,.02-.27,1.56-.53,3.14-.78,4.73-.02.17-.05.34-.08.52-.24,1.55-.47,3.1-.68,4.66-.02.14-.04.27-.05.41-.21,1.52-.4,3.06-.58,4.59-.01.1-.02.19-.03.28-.17,1.51-.32,3.01-.46,4.5-.02.26-.05.54-.08.8-.13,1.46-.24,2.91-.34,4.35-.02.24-.03.49-.04.74-.09,1.5-.17,2.98-.22,4.45-.06,1.85-.08,3.67-.06,5.46.02,1.79.08,3.54.18,5.24v.02c.1,1.94.29,3.79.53,5.58v.02h0c.16,1.22.36,2.4.58,3.55.45,2.3,1.03,4.43,1.74,6.38.72,1.96,1.58,3.73,2.6,5.27,1.02,1.55,2.19,2.88,3.55,3.95.68.54,1.4,1.01,2.17,1.42.61.32,1.33.6,2.12.83.05.02.11.03.16.04.75.21,1.57.39,2.45.53.09.02.19.03.28.04.87.13,1.79.24,2.75.32.11,0,.23.02.34.02.97.08,1.98.12,3.02.15.12,0,.24,0,.36,0,1.06.01,2.16.01,3.27,0h.3c1.18-.02,2.37-.06,3.58-.11h.09c1.25-.05,2.51-.12,3.76-.19.04,0,.08,0,.12-.01,1.24-.07,2.47-.15,3.68-.23.06,2.62.02,5.52-.07,8.59h0c-.13,4.08-.37,8.47-.69,12.94,0,.03,0,.06,0,.09-.23,3.3-.51,6.6-.8,9.89-.01.12-.02.25-.04.38-.08.93-.16,1.84-.25,2.75-.01.17-.03.35-.05.54-.2,2.04-.4,4.05-.6,5.99-.02.23-.04.44-.07.66-.08.73-.15,1.46-.23,2.16-.03.29-.06.57-.09.84-.08.67-.15,1.32-.22,1.96-.03.25-.05.49-.08.72-.1.85-.19,1.71-.28,2.5-.09.75-.09,1.48-.02,2.2h0s0,.1,0,.13l.02.03c0,.08.03.14.04.2.07.58.17,1.15.33,1.72h0c.21.76.51,1.47.87,2.18.06.12.14.25.21.38.31.58.67,1.15,1.07,1.7.12.15.23.32.36.48.41.53.86,1.06,1.35,1.58.13.14.25.27.39.41.63.63,1.3,1.26,2.04,1.87h0c.47.4.99.78,1.5,1.17.19.13.36.27.55.41h0c.44.32.91.62,1.39.93.29.18.57.38.87.57.43.27.87.53,1.32.79.37.22.74.44,1.13.66.41.23.83.45,1.25.66.45.25.89.48,1.35.72.39.19.79.38,1.19.58h0c.51.25,1.02.49,1.54.73.38.18.77.34,1.15.51.56.25,1.12.51,1.69.74.36.15.72.3,1.09.45.61.25,1.23.49,1.85.74.34.13.68.26,1.02.38.65.25,1.31.49,1.96.73h0c.32.12.64.23.96.34h0c.69.25,1.38.48,2.07.71.31.11.61.21.91.3.71.25,1.42.47,2.14.69h0s0,0,0,.02c.27.09.55.17.82.25.73.23,1.48.45,2.21.67.25.07.5.15.76.21.76.23,1.51.45,2.25.66.22.07.44.12.66.19.77.21,1.53.4,2.28.62.2.05.39.1.58.14.76.2,1.51.4,2.25.58.18.05.36.09.54.15.75.18,1.48.35,2.2.52.15.04.31.07.46.11.75.18,1.48.36,2.19.51.11.03.21.04.31.08.73.16,1.42.31,2.11.47.1.01.2.04.29.06.69.14,1.35.28,1.98.42.06.01.14.02.21.04.65.12,1.27.26,1.85.38.04.02.08.02.12.03.6.12,1.16.22,1.68.32.02,0,.05,0,.07.02.51.1.99.19,1.41.27.03,0,.05,0,.08.01.43.08.81.15,1.15.21h.05c1.05.2,1.63.29,1.63.29,0,0,9.33-1.49,20.86-4.54.95-.25,1.93-.52,2.92-.79,3.95-1.11,8.07-2.38,12.11-3.82,2.02-.73,4.02-1.5,5.97-2.31,1.94-.81,3.83-1.67,5.63-2.57.91-.45,1.79-.91,2.64-1.38,1.7-.95,3.31-1.92,4.76-2.97,5.86-4.12,9.52-8.98,8.87-14.56-.11-.98-.23-2.03-.34-3.1,0-.03-.01-.08-.01-.12-.01-.1-.03-.19-.03-.27-.02-.24-.05-.49-.08-.73-.07-.64-.13-1.28-.2-1.94-.02-.22-.05-.47-.06-.69,0-.03,0-.06-.01-.08h0c-.14-1.48-.29-3.03-.43-4.6-.04-.45-.08-.92-.11-1.37-.11-1.17-.21-2.36-.3-3.56-.04-.49-.08-1.01-.12-1.52-.09-1.25-.19-2.53-.27-3.8-.03-.42-.05-.84-.08-1.25-.23-3.52-.43-7.06-.58-10.55,0-.07,0-.14,0-.22-.07-1.64-.12-3.27-.16-4.87-.01-.26-.01-.53-.03-.78-.03-1.46-.06-2.89-.07-4.28,0-.24,0-.48,0-.72,0-1.57,0-3.12.02-4.58h0c1.93.03,3.89.06,5.84.06,3.21.03,5.33-.03,5.33-.03h0,.29c1.03,0,2.03-.02,2.99-.03.11,0,.23,0,.34-.01.84-.01,1.63-.05,2.4-.08.19-.02.38-.03.56-.03.69-.03,1.32-.09,1.93-.15.18-.02.39-.03.57-.04.73-.1,1.41-.19,1.99-.32.26-.05.49-.15.76-.22.51-.08,1-.18,1.48-.28.02,0,.03,0,.05-.01.43-.1.85-.2,1.24-.32.05-.02.1-.03.15-.04.36-.1.69-.22,1.01-.33.08-.03.14-.05.21-.07.36-.15.71-.3,1.02-.46.77-.41,1.48-.88,2.16-1.42,1.35-1.07,2.53-2.4,3.55-3.95,1.02-1.54,1.88-3.3,2.6-5.27.71-1.95,1.29-4.08,1.74-6.38.23-1.15.42-2.33.58-3.55h0v-.02c.24-1.8.43-3.65.53-5.58-.08.25-.18.48-.26.73.3-3.82.36-7.88.22-12.1ZM148.21,186.5c-.01.05-.03.11-.04.16-.84,3.95-2.05,8.03-3.71,12.01-.01.03-.03.06-.04.09-1.12,2.66-2.44,5.29-4,7.78h0c-.6-1.54-2.43-.72-3.97.83-.08.08-.14.16-.21.23-.23.25-.46.49-.66.75-.16.21-.28.42-.42.62-.1.16-.23.32-.31.47-.21.38-.39.75-.51,1.11-.07.21-.14.47-.21.76-.01.08-.04.17-.06.27-.05.22-.1.45-.14.71-.03.1-.04.23-.06.34-.05.27-.09.56-.13.88-.01.1-.03.19-.04.3-.05.42-.1.86-.14,1.32h0c-.36.34-.71.71-1.08,1.04h0c.03-.58.06-1.11.06-1.63v-.03c0-.47-.01-.93-.05-1.34,0-.12-.02-.22-.03-.32-.03-.3-.06-.59-.1-.84-.07-.34-.15-.63-.25-.86-.11-.24-.25-.44-.4-.61-1.89-2.05-7.17.6-10.17,3.64-.76.75-1.36,1.55-1.73,2.31-.16.32-.33.75-.48,1.23-.05.12-.08.24-.12.36-.32,1.03-.6,2.29-.82,3.69-.03.15-.04.29-.07.44-.11.71-.2,1.46-.27,2.22-.25.09-.49.19-.75.25v-.03c.11-.57.21-1.13.3-1.68.05-.29.1-.57.14-.85.06-.34.1-.66.16-.98.03-.26.07-.51.1-.75.05-.38.09-.73.13-1.07.02-.14.04-.32.05-.44.05-.46.08-.85.1-1.23.01-.1.01-.22.01-.32.01-.27.01-.49,0-.67,0-.09,0-.16,0-.25-.02-.23-.05-.41-.1-.51-.06-.12-.18-.23-.34-.34-.47-.34-1.37-.62-2.51-.87-1.15-.23-2.55-.42-4.02-.53-.98-.08-2.01-.12-3.01-.11-3.54,0-6.91.52-8.02,1.84-.1.1-.18.27-.26.47-.02.05-.04.12-.06.19-.06.15-.1.35-.15.56-.01.07-.03.15-.05.22-.11.6-.19,1.34-.22,2.2,0,.08,0,.17-.01.25-.01.39-.02.81-.02,1.25v.15c0,1.03.06,2.16.14,3.34,0,.05,0,.1,0,.14.04.59.1,1.19.16,1.81h0c-.71-.05-1.44-.14-2.17-.21h0c.19-1.87.29-3.65.29-5.18v-.14c0-.45,0-.87-.02-1.28,0-.06,0-.11,0-.16-.04-.87-.12-1.59-.23-2.18-.01-.08-.03-.15-.05-.23-.04-.19-.09-.38-.15-.55-.02-.05-.04-.12-.06-.18-.08-.19-.16-.36-.25-.47-1.1-1.32-4.48-1.84-8.01-1.84-1.01-.01-2.03.03-3.02.11-1.48.11-2.87.3-4.02.53-1.15.24-2.04.53-2.52.87-.16.1-.27.21-.33.34-.06.1-.1.3-.12.57-.01.22,0,.51,0,.82,0,.08,0,.14,0,.21.03.8.15,1.89.32,3.11,0,.01,0,.03,0,.03-.09-.43-.18-.85-.27-1.25,0-.03-.01-.04-.01-.06-.09-.38-.18-.73-.27-1.06-.03-.11-.06-.19-.1-.28-.07-.25-.15-.49-.22-.71-.12-.3-.23-.58-.34-.8-.38-.76-.98-1.55-1.73-2.31-3-3.03-8.29-5.68-10.18-3.64-.16.17-.29.37-.4.61-.09.2-.15.47-.22.77-.02.12-.04.23-.06.35-.03.19-.06.4-.08.62-.03.34-.06.7-.06,1.09-.42-.34-.83-.69-1.23-1.04h0c-.07-.46-.14-.87-.22-1.24-.01-.09-.03-.17-.06-.25-.08-.35-.16-.67-.24-.91-.12-.34-.29-.7-.49-1.06-.07-.12-.16-.25-.24-.37-.14-.22-.29-.45-.45-.67-.12-.16-.25-.3-.38-.45-.14-.17-.28-.33-.43-.48-.17-.18-.34-.34-.51-.49-.12-.1-.23-.21-.35-.29-.21-.16-.41-.31-.61-.44-.09-.05-.16-.11-.24-.14-.23-.13-.45-.23-.66-.3-.05-.02-.1-.03-.16-.05-.22-.05-.43-.08-.62-.05-.03,0-.05.01-.08.01-.2.05-.39.12-.54.27h0c-.9-1.22-1.72-2.48-2.47-3.76-.11-.18-.21-.37-.32-.55-.69-1.19-1.32-2.4-1.9-3.62-.03-.07-.06-.12-.09-.19-.61-1.3-1.14-2.63-1.62-3.95-.06-.15-.1-.29-.15-.44-.44-1.24-.82-2.49-1.15-3.72-.02-.09-.05-.17-.07-.26-.35-1.34-.65-2.68-.88-4.01,0-.04-.01-.1-.02-.14-.23-1.3-.4-2.59-.53-3.85,0-.05-.01-.1-.02-.15-.26-2.62-.31-5.15-.18-7.5h.02c.57-.02,1.12-.03,1.64-.04h.23c.53,0,1.04,0,1.51,0h0c1.67.31,3.05.78,4.15,1.33,0,.01.01.01.02.01.54.28,1.01.56,1.41.86.02.01.03.03.05.04.4.29.73.6,1,.91h0s0,0,0,0c.23.4.46.84.67,1.27.06.13.12.26.18.38.14.31.27.61.39.9.06.15.1.28.15.41.1.27.18.53.25.76.03.11.06.23.09.32.07.31.1.58.07.76-.05.31-.15.65-.28,1.01-.02.06-.04.12-.07.2-.12.32-.27.66-.43,1-.06.14-.12.27-.19.4-.09.19-.19.38-.29.58-1.16,2.27-2.57,4.67-2.02,6.13-1.3,4.92,1.6,6.79,3.54,7.02h.05c.14.02.28.04.4.04.05,0,.1-.02.14-.02.09,0,.18,0,.26-.03.07,0,.12-.03.19-.05.04-.01.1-.02.14-.03.09-.06.16-.09.22-.14,0,0,.02,0,.02,0,.06-.05.13-.16.2-.3.07-.14.15-.33.23-.54-.09.36-.16.67-.21.95-.05.19-.08.36-.09.55-.03.06-.03.1-.03.15v.06c-.17,1.15-.12,2.18.22,3.02.38,1,2.29,2.64,4.65,3.86.78.4,1.61.77,2.46,1.06.84.27,1.7.47,2.52.54,2.46.23,4.64-.62,5.46-3.6.29-1,.6-2.27.88-3.69.15-.64.29-1.35.44-2.04-.08.45-.13.73-.13.73h0l1.21.35s.03-.17.09-.45h0c-.14.69-.26,1.38-.37,2.02,0,.05-.02.08-.02.12-.11.67-.21,1.3-.29,1.89v.02h0v.07c-.19,1.43-.3,2.64-.3,3.5,0,.45.02.81.08,1.07.05.27.13.45.25.53.1.06.24.17.44.29.38.26.94.63,1.64,1.04,1.04.62,2.37,1.37,3.83,1.99,1.46.64,3.05,1.15,4.61,1.37.52.06,1.03.1,1.54.1,1.01-.03,1.98-.22,2.87-.66,1.77-.86,3.2-2.66,3.91-5.92.05-.12.08-.18.08-.23.25-1.24.39-2.67.42-4.33,0,.1,0,.17.01.23,0,.05,0,.14,0,.14h1.33c-.01-.36,0-.77.01-1.18h.03c0,.21-.02.43-.01.65v.03h0c0,.67.02,1.32.07,1.91,0,0,0,.03.02.07,1.36,17.07,17.58,5.6,19.22,4.51.19-.12.35-.52.46-1.13.12-.61.19-1.46.23-2.47h0c.02-.44.03-.89.04-1.37,0-.45,0-.92,0-1.41v-.1c-.01-1.06-.06-2.21-.13-3.41h0s.03,0,.06,0c.03-.01.07-.02.1-.02h0c.03.16.04.25.04.29v.04s0-.08.01-.11c0-.06,0-.14,0-.22,0,0,0,0,0-.01h0c.06-.02.1-.02.15-.03v.03c.1,1.28.23,2.46.39,3.54.14.84.28,1.62.47,2.27.82,2.97,3.01,3.83,5.48,3.6.82-.07,1.68-.26,2.52-.54.84-.29,1.68-.66,2.46-1.06,2.36-1.22,4.28-2.86,4.65-3.86.18-.47.3-1.02.37-1.61.05-.4.05-.86.06-1.31,0-.19.02-.37.01-.58-.02-.62-.08-1.3-.18-2,0-.04,0-.08-.01-.12-.1-.74-.23-1.52-.41-2.33.21-.08.41-.17.6-.26.03,0,.07-.03.1-.04.36,1.26.69,2.36.96,3.2.03.08.06.16.08.23.1.3.19.55.28.76.03.07.06.15.09.21.1.23.19.4.26.47.78.75,4.93-.21,5.29-4.37.04-.32.04-.66.02-1.03-.02-.36-.08-.75-.16-1.16-.1-.43-.22-.88-.36-1.37-.32-.94-.7-1.94-1.15-2.97,0-.02,0-.02-.02-.05-.44-1-.93-2.03-1.46-3.02h0c-.09-.37-.17-.69-.25-1.03l.21-.21h0v-.02s-.04-.06-.09-.14c-.02-.05-.03-.07-.08-.15-.08-.16-.19-.35-.32-.6t-.01-.02c-.11-.45-.2-.82-.29-1.22-.08-.31-.16-.63-.22-.92-.09-.41-.14-.75-.19-1.09-.02-.15-.06-.34-.08-.48-.04-.36-.01-.66.02-.94,0-.08,0-.17,0-.25.05-.21.16-.37.26-.55.57-.43,1.36-.8,2.33-1.13,1.76-.32,4.39-.44,7.58-.48h0c-.16,3.46-.62,7.29-1.44,11.25ZM167.59,37.36c.07.1.17.23.27.38-.11-.17-.19-.27-.27-.38Z"/>
          <g>
            <path class="cls-4" d="M79.63,118.86c3.57-6.41,1.86-48.2-10.84-51.56-12.7-3.36-35.87,7.85-42.97,26.52-7.1,18.68,8.96,38.91,16.44,40.04,8.9,1.34,29.24-.44,37.36-15Z"/>
            <g>
              <path class="cls-8" d="M53.8,146.26c-8.91,5.01-12.62,59.9,41.5,66.94,54.12,7.04,58-54.99,52.66-64.83-1.86-3.42,5.97-1.24,5.97-1.24,0,0,11.42,68.22-40.03,75.26-51.45,7.04-83.94-30.93-64.87-76.14h4.76Z"/>
              <path class="cls-5" d="M163.27,211.57c2.6,22.31-63.76,32.93-63.76,32.93,0,0-61.66-9.84-63.75-30.56l-.02-.02c-.07-.77-.07-1.56.02-2.34,2.6-22.33,6.39-63.9,0-63.3,4.05-5.29,13.28-.91,13.28-.91-3.65,13.16-3.5,25.91-.07,36.96,6.32,20.29,23.84,34.69,49.57,34.69s45.15-15.31,51.52-36.58c2.95-9.72,3.31-20.74.67-32.12-.21-.98-.45-1.96-.74-2.95,0,0,10.18-7.49,14.24-2.22-.65-.05-1.17.34-1.65,1.12-3.71,6.25-2.09,37.46-.05,58.36v.05c.24,2.46.5,4.78.74,6.89Z"/>
            </g>
            <path class="cls-38" d="M99.51,244.5s-66.35-10.61-63.75-32.93c2.6-22.33,6.39-63.9,0-63.3,4.05-5.29,13.28-.91,13.28-.91-3.65,13.16-3.5,25.91-.07,36.96-9.88-12.08-15.12,19.75-7.57,34.51,7.56,14.77,52.44,23.79,82.7,16.87,30.28-6.94,38.35-32.54,35.32-47.9-1.76-8.99-6.54-6.42-9.36-5.37,2.95-9.72,3.31-20.74.67-32.12l11.85-4.05c-4.17,6.99-1.65,45.2.69,65.31,2.6,22.31-63.76,32.93-63.76,32.93Z"/>
            <path class="cls-6" d="M86.4,231.39c-3.43-2.82-8.11-26.53-7.13-28.35.98-1.8,15.39-3,17.9,0,2.52,3.02-1.09,36.32-10.77,28.35Z"/>
            <path class="cls-61" d="M76.54,224.04c-9.05.95-12.28-21.91-10.58-25.72,1.71-3.81,10.31,1.35,12.31,5.31,1.99,3.97,3.71,19.83-1.73,20.4Z"/>
            <path class="cls-63" d="M111.05,231.39c3.43-2.82,8.11-26.53,7.14-28.35-.98-1.8-15.39-3-17.91,0-2.52,3.02,1.09,36.32,10.77,28.35Z"/>
            <path class="cls-59" d="M121.53,224.04c9.06.95,12.28-21.91,10.58-25.72-1.7-3.81-10.31,1.35-12.3,5.31-2,3.97-3.71,19.83,1.72,20.4Z"/>
            <path class="cls-58" d="M135.2,212.59c4.53.7,6.14-15.98,5.29-18.76-.85-2.78-5.16.98-6.15,3.89-1,2.89-1.85,14.46.86,14.88Z"/>
            <path class="cls-64" d="M62.93,212.59c-4.52.7-6.14-15.98-5.29-18.76.85-2.78,5.15.98,6.15,3.89,1,2.89,1.85,14.46-.86,14.88Z"/>
            <path class="cls-66" d="M182.6,161.91c-8.66,1.84-37.07-.96-41.88,1.2-2.84,1.28-.43,4.52,1.33,14.54.14.88-8.25,4.91-14.59,6.11-1,.17-2,.35-3.01.52-11.18,1.98-21.65,3.19-23.96,3.46-.31.02-.45.05-.45.05,0,0-.71-.07-1.96-.21-3.93-.43-13.4-1.55-23.23-3.27-.86-.12-1.74-.29-2.62-.46-8.46-1.54-8.95-2.2-14.05-4.56-3.31-1.52,1.75-7,2.3-10.31.22-1.21-.91-5.46-2.3-6.17-6.54-5.97-35.92,2.28-45.22-2.65-6.13-3.24-9.32-10.8-10.63-20.55v-.03c-.24-1.78-.43-3.65-.53-5.58v-.02c-.21-3.41-.24-6.99-.12-10.7.98-30.28,11.8-68.29,13.9-74.15C27.29,16.63,78.46,1.61,100.04,1.61s73.1,13.52,84.78,46.04c2.34,6.44,12.86,40.38,14.59,69.76,1.34,21.98-1.14,41.14-16.81,44.5Z"/>
            <path class="cls-60" d="M80.73,174.16c-.55,4.51-1.44,9.3-2.27,12.97-.29,1.44-.59,2.69-.88,3.7-2.19,7.92-14.07.84-15.09-1.85-.34-.84-.38-1.86-.22-3.04v-.04c0-.05,0-.1.03-.15.02-.19.04-.35.09-.55.05-.28.12-.6.21-.95.03-.13.05-.22.1-.35.02-.13.08-.3.12-.46.19-.62.43-1.27.67-1.94,1-2.54,2.53-5.39,4.22-8.08,3.72-5.87,8.39-11.2,11.02-12.4,2.93-1.29,2.95,5.48,2,13.13Z"/>
            <path class="cls-62" d="M98.75,188.47c-.03,1.71-.16,3.19-.43,4.46,0,.04-.03.12-.08.24-2.81,13.04-17.26,2.84-18.83,1.78-.46-.3-.41-2.24-.03-5.1v-.07c.57-4.2,1.91-10.3,3.5-16,.03-.07.03-.12.03-.12,1.5-5.22,3.24-10.01,4.91-12.63,4.48-7.02,9.58,3.79,10.71,19.76.17,2.46.24,5.03.21,7.68Z"/>
            <path class="cls-65" d="M136.37,188.97c-1.02,2.69-12.92,9.77-15.12,1.85-.19-.65-.33-1.43-.47-2.26-.17-1.13-.31-2.36-.4-3.72v-.1c-.19-2.68-.21-5.73-.07-8.72.38-8.4,2.07-16.4,5.22-15,3.67,1.64,8.65,11.35,10.54,19.28.01.05.01.12.04.17.79,3.46,1,6.54.26,8.49Z"/>
            <path class="cls-2" d="M120.11,191.35c-.07,2.03-.32,3.36-.69,3.59-1.64,1.11-17.86,12.57-19.22-4.5-.02-.04-.02-.07-.02-.07-.05-.59-.07-1.24-.07-1.9-.07-5.25.57-10.04,1.7-14.09,3.08-11.3,9.6-16.88,13.39-10.92,1.82,2.85,3.12,8.08,3.96,13.44.81,5.39,1.12,10.94.95,14.45Z"/>
            <path class="cls-1" d="M143.88,181.21c-.36,4.15-4.5,5.13-5.29,4.37-.46-.43-1.68-4.69-2.84-9.23-.02-.04-.02-.07-.02-.07-.08-.31-.17-.62-.24-.93-1.24-4.84-2.31-9.63-2.27-9.92,1.1-5.17,7.84,5.11,10.16,12.23.14.48.26.93.36,1.35.16.82.21,1.56.14,2.19Z"/>
            <path class="cls-3" d="M67.54,165.43c.08.31-1.05,5.06-2.31,9.8-.05.19-.1.38-.14.58-.12.44-.24.9-.36,1.36-.02.05-.04.12-.04.17-.41,1.5-.81,2.96-1.19,4.17-.29.96-.55,1.79-.79,2.4-.05.13-.07.22-.1.35-.16.43-.31.74-.43.84-.98.93-7.1-.29-4.79-7.42.12-.38.26-.8.41-1.17.43-1.14.95-2.34,1.52-3.53.05-.04.05-.07.05-.07,2.94-6.03,7.32-11.56,8.18-7.46Z"/>
            <path class="cls-68" d="M99.23,116.28c-3.98-.1-8.02,6.53-12.21,12.82-3.84,5.75-8.09,10.96-6.93,15.38,1.4,10.48,14.02,6.1,18.22.89,4.2,5.2,16.44,10.51,17.84.02.93-5-3.14-11.17-6.47-17.01-3.58-6.26-6.61-12.03-10.45-12.11Z"/>
            <path class="cls-44" d="M60.48,168.98c.22-1.21-2.23-6.33-3.62-7.05-3.58-3.16-34.6,3.16-43.9-1.77-6.13-3.24-9.32-10.8-10.63-20.55v-.03c-.24-1.78-.43-3.65-.53-5.58,10.73,35.12,49.33,22.34,55.02,13.9,5.68-8.44,6.13,3.59,6.13,3.59,0,0,1.58,10.53-2.48,17.49Z"/>
            <path class="cls-24" d="M139.95,168.98c-.21-1.21-1.38-4.63,0-5.35,3.58-3.17,39.27,1.46,48.56-3.47,6.13-3.24,9.32-10.8,10.63-20.55v-.03c.24-1.78.43-3.65.52-5.58-10.73,35.12-49.33,22.34-55.02,13.9-5.67-8.44-9.54,2.71-9.54,2.71,0,0,.79,11.41,4.84,18.37Z"/>
            <path class="cls-48" d="M96.82,123.06c-1.88-2.6-14,8.69-15.46,17.85-1.46,9.14,6.69,10.84,11.91,5.98,5.22-4.85,3.55-23.83,3.55-23.83Z"/>
            <path class="cls-50" d="M99.39,123.06c1.9-2.6,14.21,8.69,15.69,17.85,1.49,9.14-6.78,10.84-12.1,5.98-5.3-4.85-3.6-23.83-3.6-23.83Z"/>
            <path class="cls-43" d="M61.61,168.62s2.89-5.76,5.21-6.27c2.32-.51-.04,6.93,0,9.07.04,2.13,6.78-10.19,12.42-13.15,5.65-2.95,2.26,15.59,2.26,15.59,0,0,4.87-15.19,9.53-16.92,4.65-1.74,8.13,11.74,8.91,13.47.78,1.74,5.26-9.8,10.01-11.94,4.75-2.14,9.61,14.37,9.61,14.37,0,0,1.26-13.51,4.35-13.99,3.08-.48,8.82,10.57,8.82,10.57,0,0-1.83-4.62.47-6.93,2.31-2.31,7.5,7.91,7.5,7.91l-.4.39s-4-7.29-5.72-6.68c-1.72.61,1.51,16.38,1.51,16.38,0,0-7.6-20.58-11.29-18.69-3.68,1.89-4.61,23.55-4.61,23.55,0,0-3.12-22.39-9-23.48-5.88-1.08-11.38,19.14-11.14,27.1h-1.33s-.88-27.3-7.15-29.2c-6.27-1.91-11.62,26.4-11.62,26.4l-1.21-.35s3.59-18.92.02-22.99c-3.57-4.08-13.27,13.38-15.29,18.68,0,0,3.34-13.38,2.34-15.9-.99-2.51-4.22,3.01-4.22,3.01Z"/>
            <path class="cls-45" d="M57.43,198.13s-.22,7.83,3.56,11.21c3.78,3.39,3.77-2.41,3.77-2.41l1.41,1.39s2.51,15.35,8.66,15.45c6.16.1,5.36-7.5,5.36-7.5l.94.36s3.28,15.01,8.81,14.64c5.53-.37,6.82-11.75,6.82-11.75,0,0-.8,13.57-7.59,13.12-6.78-.48-8.39-12.66-8.39-12.66,0,0-2.03,6.84-6.65,6.16-4.62-.68-8.61-17.03-8.61-17.03,0,0-.97,4.23-3.7,4.06-2.73-.14-4.54-8.88-4.4-15.05Z"/>
            <path class="cls-32" d="M100.7,219.51s2.11,10.08,7.29,11.75c5.18,1.65,8.35-14.71,8.35-14.71l1.57-.59s.08,7.69,5.61,7.16c5.53-.53,8.4-15.81,8.4-15.81l1.48-1.55s0,5.7,2.86,5.44c2.86-.28,4.24-10.94,4.24-10.94,0,0-.75,10.65-3.48,12.39-2.73,1.73-4.26-3.23-4.26-3.23,0,0-3.36,14.14-9.16,15.49-5.81,1.35-6.93-7-6.93-7,0,0-3.22,16.11-8.19,15.82-4.96-.3-7.77-14.24-7.77-14.24Z"/>
            <path class="cls-37" d="M81.19,109.59c22.28-22.97,36.41,3.13,36.41,3.13,0,0-7.62-31.39,2.62-42.54,0,0-4.1,2.89-8.61,9.81-4.52,6.93-22.89,8.11-25.6-.61s-13.15-10.53-13.15-10.53c0,0,6.41,1.21,8.42,13.25,2.02,12.04-.09,27.49-.09,27.49Z"/>
            <path class="cls-36" d="M187.89,57.31c6.73,29.15-3.54,31.97-4.67,37.38-1.13,5.43-1.3,16.04,6.61,18.02,7.92,1.98,9.82,9.96,9.82,9.96,0,0-1.35-29.46-11.76-65.36Z"/>
            <path class="cls-13" d="M12.86,57.31c-6.33,29.15,3.33,31.97,4.39,37.38,1.06,5.43,1.22,16.04-6.22,18.02-7.44,1.98-9.23,9.96-9.23,9.96,0,0,1.27-29.46,11.06-65.36Z"/>
            <path class="cls-21" d="M15.98,74.72c23.18-36.14,47.49-15.27,55.12-9.48,0,0-30.27-22.69-55.12,9.48Z"/>
            <path class="cls-20" d="M172.58,74.72c-23.18-36.14-47.48-15.27-55.11-9.48,0,0,30.27-22.69,55.11,9.48Z"/>
            <path class="cls-26" d="M62.6,184.25c-.16.43-.31.74-.43.84-.98.93-7.1-.29-4.79-7.42.12-.38.26-.8.41-1.17.43-1.14.95-2.34,1.52-3.53-.26.62-2.17,5.25-1.38,8.59.86,3.62,2.77,2.38,4.25.62,1.48-1.74,2.53-5.96,2.53-5.96l.52-.98.26-.43c-.1.29-.38,1.2-.76,2.36-.02.05-.04.12-.04.17-.6,1.84-1.36,4.26-1.86,6.1-.04.16-.09.33-.12.46-.05.13-.07.22-.1.35Z"/>
            <path class="cls-27" d="M78.46,187.13c-.29,1.44-.59,2.69-.88,3.7-2.19,7.92-14.07.84-15.09-1.85-.34-.84-.38-1.86-.22-3.04,0,1.72,4.03,6.81,10.01,6.18,3.65-.38,5.39-2.98,6.18-4.99Z"/>
            <path class="cls-28" d="M98.25,193.17c-2.81,13.04-17.26,2.84-18.83,1.78-.46-.3-.41-2.24-.03-5.1,0,.6.19,7.15,8.58,8.61,7.7,1.34,9.87-3.93,10.28-5.29Z"/>
            <path class="cls-29" d="M120.11,191.35c-.07,2.03-.32,3.36-.69,3.59-1.64,1.11-17.86,12.57-19.22-4.5.24.81,2.46,7.56,10.54,6.86,7.24-.62,9.01-4.71,9.37-5.96Z"/>
            <path class="cls-25" d="M136.11,180.48c.79,3.46,1,6.54.26,8.49-1.02,2.69-12.92,9.77-15.12,1.85-.19-.65-.33-1.43-.47-2.26.46,1.5,1.38,3.08,3.17,3.91,4.13,1.9,9.54-2.15,11.22-4.7.93-1.41,1-4.74.89-7.46.01.05.01.12.04.17Z"/>
            <path class="cls-31" d="M143.74,179.02c.16.82.21,1.56.14,2.19-.36,4.15-4.5,5.13-5.29,4.37-.46-.43-1.68-4.69-2.84-9.23.32.79,2.77,6.96,4.74,6.9,1.44-.04,2.73-2.08,3.25-4.23Z"/>
            <path class="cls-30" d="M144,177.14c-.1-.79-.17-1.32-.17-1.41.03.05.05.15.08.29.07.35.1.71.1,1.12Z"/>
            <path class="cls-23" d="M80.96,98.13c2.17,9.58,6.25,2.05,18.6.38,12.35-1.65,15.69,10.77,15.69,10.77,0,0-3.8-8.35-14.49-8.8-10.69-.45-19.57,10.39-19.57,10.39l-.23-12.74Z"/>
            <path class="cls-42" d="M75.96,122.17c.49-.41-10.22,13.85-24.59,16.7-13.79,2.75-17.62,0-17.62,0,0,0,2.71,5.31,23.94,1.08,21.23-4.24,18.27-17.78,18.27-17.78Z"/>
            <path class="cls-33" d="M120.52,122.17c-.49-.41,10.22,13.85,24.59,16.7,13.79,2.75,17.62,0,17.62,0,0,0-2.71,5.31-23.94,1.08-21.24-4.24-18.27-17.78-18.27-17.78Z"/>
            <path class="cls-39" d="M138.57,165.52s-5.57-10.12-.61-15.97c4.96-5.87,13.11,5.53,20.93,9.29,7.83,3.77,12.66,3.74,12.66,3.74,0,0-9.05.24-18.23-.52-9.18-.75-14.13,1.21-14.75,3.46Z"/>
            <path class="cls-22" d="M59.5,165.52s5.27-8.23.3-14.08c-4.97-5.86-12.79,3.65-20.62,7.4-7.83,3.77-12.66,2.35-12.66,2.35,0,0,9.34.27,18.52-.48,9.19-.75,13.85,2.56,14.46,4.82Z"/>
            <path class="cls-72" d="M108.92,165.52c-6.18,3.22-8.51,23.67-5.09,28.94,3.42,5.27,15.62-1.08,15.62-9.67s-3.28-23.04-10.52-19.28Z"/>
            <path class="cls-72" d="M91.73,160.55c-6.93,0-12.35,24.24-10.24,31.18,2.11,6.93,13.25,6.32,14.76-5.73,1.51-12.04-2.56-25.45-4.52-25.45Z"/>
            <path class="cls-72" d="M76.76,162.35c-1.59,1.21-14.54,18.89-12.74,25.04,1.81,6.14,12.33,8.67,15.36-6.06,3.03-14.72-2.63-18.98-2.63-18.98Z"/>
            <path class="cls-72" d="M124.4,163.71c-3.34.26-3.75,21.54-.91,26.13,2.85,4.6,11-2.43,10.84-9.54-.14-7.11-9.93-16.6-9.93-16.6Z"/>
            <path class="cls-72" d="M25.47,67.27c-13.55,25.53,4.52,7.68,25.3,5.2,20.78-2.48,24.5,4.49,24.5,4.49,0,0-4.15-18.72-23.59-18.95-19.44-.23-26.2,9.26-26.2,9.26Z"/>
            <path class="cls-72" d="M120.37,66.7c-2.51,5.54,10.81-.11,27.75,1.25,16.94,1.35,19.26,5.21,19.26,5.21,0,0,.61-11.54-20.62-14.03-21.23-2.48-26.39,7.56-26.39,7.56Z"/>
            <path class="cls-72" d="M44.23,32.94c-14.25,11.52,20.77,21.68,40.87,33.65,20.11,11.97,30.5-15.81,62.8-17.62,32.29-1.81,10.61-39.98-35.02-41.79-45.63-1.81-68.66,25.75-68.66,25.75Z"/>
            <path class="cls-72" d="M135.9,157.55c-.08,3.91-2.2,3-3.35,3s-1.37,4.36-1.37,4.36c0,0-3.95-6.3-7.22-7.36-3.28-1.06-3.16,6.51-4.3,7.86-1.13,1.35-5.11-9.26-8.82-10.5-3.71-1.24-6.95,9.1-9.58,10.39-2.63,1.29-4.52-9.26-8.47-10.95-3.95-1.7-6.89,8.13-8.25,8.92-1.36.79-.73-5.76-4.26-7.57-3.53-1.81-7.18,8.69-9.96,9.21-2.78.52-.8-3.87-3.4-5.07-2.59-1.21-6.43,9.14-6.43,9.14,0,0,4.46-7.77,6.1-6.63,1.64,1.14-.07,8.46.25,9.07.32.59,9.9-15.04,13.07-13.41,3.17,1.64,1.72,15.23,1.72,15.23,0,0,6.24-16.84,10.04-16.53,3.79.3,7.05,13.06,8.3,13.7,1.24.64,6.3-13.81,10.88-12.62,4.59,1.18,8.74,15.05,8.74,15.05,0,0,1.38-14.12,4.6-14,3.22.14,8.35,10.14,8.35,10.14,0,0-1.26-6.63.95-7.04,2.22-.42,5.29,5.04,5.29,5.04l-2.87-9.43Z"/>
            <path class="cls-72" d="M20.78,131.87c-12.02-10.31-17.29,16.94,2.73,22.21,20.03,5.28,33.89-9.63,34.78-12.04.9-2.42-26.55,3.17-37.52-10.17Z"/>
            <path class="cls-72" d="M144,143.26c.65,4.65,25.73,19.38,41.09,8.18,15.36-11.21,6.62-28.68,1.5-30.18-5.12-1.51-9.59,21.74-42.59,22.01Z"/>
            <path class="cls-72" d="M75.46,132.7c-3.91,11.75,15.06-18.08,21.99-19.87,6.92-1.81,16.53,23.69,20.01,23.29,3.48-.4-1.04-33.23-16.7-35.64-15.66-2.41-25.3,32.23-25.3,32.23Z"/>
            <path class="cls-83" d="M155.51,57.31c7.74,3.56,9.71-5.93,8.8-6.99-.91-1.05,1.51-1.5,4.06.15,2.56,1.67,5.49-6.49,3.46-15.05-2.02-8.55-4.45-11.15-4.45-11.15,0,0,5.35,6.48,7.16,17.62,1.81,11.14-6.19,10.26-7.6,8.88-1.41-1.36-1.96-2.33-1.88,3.39.08,5.72-3.03,5.59-4.52,5.5-1.48-.09-5.03-2.35-5.03-2.35Z"/>
            <path class="cls-72" d="M170.82,52.93c-5.42-1.13-6.66,6.84-6.89,8.73-.23,1.88,6.89,2.68,13.22,9,6.33,6.32,11.29-.9,6.66-16.48-4.63-15.58-8.98-2.45-12.99-1.24Z"/>
            <path class="cls-46" d="M42.91,26.79c-15.14,7.91-11.5,27.56-2.02,29.59,0,0-3.76.64-14.37,5.61-10.62,4.96-3.03-28.88,16.39-35.2Z"/>
            <path class="cls-41" d="M139.98,139.11s29.27,6,39.21-16.44c0,0-.25,25.72-39.21,16.44Z"/>
            <path class="cls-9" d="M58.76,139.11s-29.27,6-39.2-16.44c0,0,.24,25.72,39.2,16.44Z"/>
            <path class="cls-73" d="M80.09,144.49c7.56,12.79,18.22.89,18.22.89,0,0,5.88,4.74,11.36,4.68,5.48-.06,6.34-3.79,6.34-3.79,0,0,.38,4.52-5.26,5.48-5.65.96-12.65-5.48-12.65-5.48,0,0-4.12,5.62-10.95,5.58-6.83-.04-7.05-7.36-7.05-7.36Z"/>
            <path class="cls-52" d="M127.57,55.02c31.39-6.5,33.56-14.06,30.17-21.47,0,0,7.08,11.2,1.11,16.11-5.98,4.9-6.76-.46-31.27,5.36Z"/>
            <path class="cls-34" d="M99.51,244.5s-61.66-9.84-63.75-30.56c8.08,8.99,42.58,25.68,74.65,23.85,31.66-1.76,51.74-31.15,52.12-33.1.24,2.46.5,4.78.74,6.89,2.6,22.31-63.76,32.93-63.76,32.93Z"/>
            <path class="cls-40" d="M190.15,73.7c1,13.67-1.26,14.9-3.97,21-2.7,6.12,2.11,17.48,2.11,17.48,0,0-6.52-1.43-6.06-11.81.45-10.39,5.2-11.07,6.21-15.47,1.02-4.4,1.71-11.19,1.71-11.19Z"/>
            <path class="cls-14" d="M9.84,73.7c-1,13.67,1.26,14.9,3.97,21,2.71,6.12-2.1,17.48-2.1,17.48,0,0,6.51-1.43,6.06-11.81-.45-10.39-5.19-11.07-6.21-15.47-1.02-4.4-1.72-11.19-1.72-11.19Z"/>
            <path class="cls-35" d="M10.56,127.28c-8.28.3-.6,15.96,4.07,17.17,4.67,1.2,6.62-14.91-4.07-17.17Z"/>
            <path class="cls-12" d="M157.47,144.86c-4.45,1.24.21,6.33,3.37,6.48,3.17.15,5.11-8.84-3.37-6.48Z"/>
            <path class="cls-15" d="M7.24,133.86c-1.8-9.9,7.39-4.25,9.54.49,2.15,4.74.79,8.03.79,8.03,0,0,1.52-2.75.43-8.52-1.1-5.78-6.29-7.86-9.23-6.28-2.94,1.58-1.52,6.28-1.52,6.28Z"/>
            <path class="cls-10" d="M138.34,16.17c18.8.13,8.77,17.92-3.37,22.39-12.14,4.47-16.15-19.19,3.37-22.39Z"/>
            <path class="cls-11" d="M122.63,13.86c11.18-.92-.12,7.88-3.49,7.1-3.36-.78-3.94-6.48,3.49-7.1Z"/>
            <path class="cls-17" d="M145.35,30.87s4.94-9.25-.29-11.96c-5.22-2.69-15.12,1.07-18.21,5.74-3.09,4.66-1.76,8.15-1.76,8.15,0,0-1.36-5.09,1.82-9.86,3.18-4.75,11.35-9.37,19-5.1,7.65,4.26-.57,13.04-.57,13.04Z"/>
            <path class="cls-19" d="M126.72,16.92c2.28-3.55-6.84-3.67-8.77-.71-1.94,2.98-.14,4.08-.14,4.08,0,0-2.31-.62-1.18-3.43,1.11-2.79,5.84-3.96,9.54-3.04,3.7.92.56,3.09.56,3.09Z"/>
            <path class="cls-16" d="M22.14,105.47s-3.68-10.99,3.43-22.89c7.1-11.9,28.79,1.03,50.14,2.82,10.66.9,5.55,11.37,5.55,11.37,0,0-6.5-12.39-31.22-6.52-24.71,5.87-27.9,15.21-27.9,15.21Z"/>
            <path class="cls-69" d="M79.14,119.04c3.67-6.57,7.55-32.07-5.9-31.16-23.2,1.56-42-13.67-49.29,5.48-7.28,19.16,9.1,41.04,16.86,41.07,13.4.04,29.99-.45,38.32-15.39Z"/>
            <path class="cls-51" d="M39.7,133.31c-17.73-9.04-22.44-49.57,5.75-47.86,39.98,2.43,35.36,8.12,33.68,27.3-1.68,19.18-27.75,25.38-39.44,20.56Z"/>
            <path class="cls-73" d="M25.72,122.44c-1.23.76,10.04,15.59,23.79,15.74,13.74.15,20.69-9.73,20.69-9.73,0,0-21.31,16.08-44.48-6.01Z"/>
            <path class="cls-18" d="M175.82,105.29s3.68-10.99-3.43-22.9c-7.11-11.88-28.79,1.04-50.14,2.83-10.66.9-5.55,11.36-5.55,11.36,0,0,6.51-12.38,31.21-6.51,24.71,5.86,27.9,15.22,27.9,15.22Z"/>
            <path class="cls-67" d="M118.82,118.86c-3.67-6.57-7.31-34.55,6.14-33.64,23.2,1.57,41.76-11.2,49.04,7.96,7.28,19.16-9.11,41.03-16.87,41.05-13.39.05-29.99-.44-38.31-15.38Z"/>
            <path class="cls-49" d="M158.26,133.14c17.73-9.04,21.62-51.25-6.58-49.53-39.98,2.42-34.53,9.77-32.86,28.95,1.67,19.18,27.75,25.38,39.43,20.57Z"/>
            <path class="cls-73" d="M172.24,122.25c1.24.77-10.04,15.6-23.79,15.75-13.74.16-20.69-9.73-20.69-9.73,0,0,21.31,16.07,44.48-6.02Z"/>
            <g>
              <path class="cls-75" d="M100.04,1.61c15.79,0,47.75,7.29,68.27,24.01-.17-.29-.32-.51-.45-.7.16.21.32.46.56.79,7.39,6.05,13.31,13.33,16.4,21.94.6,1.63,1.71,5.03,3.08,9.66h0s0,0,0,.01c4.02,13.68,10.22,38.15,11.51,60.09.1,1.67.18,3.3.23,4.93.01.22.01.33.01.33,0,0,0-.02-.01-.03.14,4.21.08,8.28-.22,12.1.08-.26.18-.48.26-.74-.1,1.93-.29,3.8-.53,5.58v.03c-1.31,9.75-4.5,17.31-10.63,20.55-1.28.68-3.06,1.17-5.16,1.53-.26.06-.49.16-.76.22-2.39.51-6.3.66-10.79.66-1.35.02-2.75.04-4.14.04-2.43,0-4.89-.03-7.29-.07-.22,12.45.88,29.22,2.14,42.09h0c.03.27.05.54.08.78.09.91.19,1.82.27,2.67.02.14.03.27.05.41.12,1.06.23,2.11.34,3.1,2.6,22.31-63.76,32.93-63.76,32.93,0,0-.58-.1-1.63-.28-.01,0-.03,0-.05,0-.33-.06-.72-.12-1.15-.21-.03,0-.05,0-.08,0-.43-.09-.91-.18-1.41-.27-.02,0-.05,0-.07-.01-.52-.1-1.08-.21-1.68-.33-.04,0-.08-.01-.12-.03-.58-.11-1.2-.23-1.85-.37-.07-.01-.14-.03-.21-.04-.63-.12-1.29-.27-1.98-.43-.09-.03-.19-.04-.3-.06-.67-.14-1.36-.29-2.07-.47-.12-.02-.25-.05-.37-.09-.7-.16-1.42-.32-2.16-.48-.15-.04-.31-.1-.46-.12-.72-.17-1.45-.35-2.2-.54-.18-.05-.36-.1-.54-.14-.74-.18-1.48-.38-2.23-.57-.21-.06-.42-.12-.62-.16-.74-.21-1.49-.41-2.25-.62-.23-.06-.46-.13-.68-.19-.75-.21-1.5-.43-2.25-.65-.25-.07-.5-.15-.74-.22-.74-.22-1.47-.44-2.21-.67-.28-.08-.55-.18-.83-.26-.72-.23-1.44-.47-2.16-.7-.29-.08-.58-.18-.88-.3-.69-.24-1.39-.47-2.08-.71-.32-.12-.64-.23-.96-.34-.66-.24-1.31-.47-1.96-.72-.35-.14-.69-.27-1.04-.41-.61-.23-1.22-.48-1.83-.73-.37-.14-.73-.3-1.1-.45-.57-.25-1.14-.49-1.7-.74-.38-.16-.76-.34-1.13-.51-.53-.25-1.04-.49-1.55-.73-.4-.2-.8-.38-1.19-.58-.46-.23-.91-.47-1.35-.7-.42-.23-.84-.45-1.25-.67-.39-.22-.76-.44-1.14-.66-.44-.27-.88-.52-1.3-.78-.31-.2-.59-.39-.88-.59-.46-.3-.94-.61-1.38-.93-.19-.13-.36-.27-.55-.41-.51-.39-1.03-.77-1.5-1.15,0,0,0,0,0-.01-3.14-2.6-5.39-5.46-6.28-8.57,0-.02,0-.03,0-.03-.16-.56-.26-1.13-.33-1.71,0-.08-.03-.13-.04-.2l-.02-.02c0-.05,0-.1,0-.16-.06-.71-.06-1.44.02-2.18,1.65-14.15,3.77-36.02,3.48-50-4.33.27-8.91.55-13.13.55-5.46,0-10.31-.46-13.14-1.97-6.13-3.24-9.32-10.8-10.63-20.55v-.03c-.24-1.78-.43-3.65-.53-5.58v-.02c-.21-3.41-.24-6.99-.12-10.7.42-12.87,2.61-27.13,5.16-39.73,1.52-8.05,3.48-16.92,6.02-26.24-.24,1.12-.42,2.12-.61,3.16,1.51-5.67,2.76-9.73,3.33-11.35C27.29,16.63,78.46,1.61,100.04,1.61h0ZM58.03,193.19c.22-.21.49-.31.8-.31,1.61,0,4.21,2.64,4.97,4.83.18.53.36,1.37.52,2.39.4.36.82.71,1.23,1.05.03-1.25.16-2.27.41-2.83.42-.95,1.26-1.33,2.32-1.33,3.23,0,8.48,3.67,9.98,6.65.45.89.88,2.4,1.22,4.17-.35-2.51-.46-4.31-.21-4.76.55-1.01,5.3-1.83,9.83-1.83,3.56,0,6.96.5,8.07,1.83.83,1,.99,5.33.48,10.39.73.06,1.46.15,2.17.19-.54-5.14-.38-9.58.46-10.59,1.11-1.32,4.52-1.83,8.08-1.83,4.52,0,9.28.82,9.83,1.83.36.67-.05,4.33-.89,8.81.25-.07.49-.18.75-.26.32-3.37,1.02-6.49,1.76-7.96,1.5-2.98,6.76-6.65,9.98-6.65,1.06,0,1.89.38,2.32,1.33.38.85.5,2.7.37,5.02.37-.34.72-.71,1.08-1.06.18-1.96.47-3.69.78-4.57.75-2.19,3.36-4.83,4.96-4.83.49,0,.89.25,1.11.82,6.24-10.04,8.8-21.98,9.23-31.27-4.68.02-8.22.26-9.47,1.06-.08.07-.2.12-.27.19,0,0-.01.01-.01.02-.84.98-.45,2.68.33,5.75.32.57.5.93.5.93l-.21.21c.09.33.16.65.25,1.02,1.06,2,2.01,4.13,2.63,6.04.14.48.26.93.36,1.35.16.82.21,1.56.14,2.19-.28,3.31-2.98,4.61-4.46,4.61-.37,0-.67-.09-.82-.24-.3-.29-.94-2.26-1.68-4.87-.23.1-.47.2-.71.3.69,3.24.86,6.1.16,7.96-.68,1.78-6.12,5.49-10.37,5.49-2.16,0-4.01-.96-4.75-3.64-.19-.65-.33-1.43-.47-2.27-.16-1.08-.3-2.28-.39-3.57-.06,0-.1.01-.15.02-.01.21-.02.34-.02.34,0,0-.02-.13-.05-.33-.06.01-.1.01-.15.03.14,2.41.18,4.6.1,6.3-.07,2.03-.32,3.36-.69,3.59-.95.65-6.84,4.79-11.86,4.79-3.61,0-6.78-2.14-7.35-9.29-.02-.04-.02-.07-.02-.07-.05-.59-.07-1.24-.07-1.9,0-.24.02-.46.01-.68h-.03c-.01.4-.03.81-.01,1.18h-1.33s0-.15-.01-.38c-.03,1.66-.16,3.1-.42,4.34,0,.04-.03.12-.08.24-1.08,4.98-3.85,6.57-6.96,6.57-5.02,0-10.91-4.14-11.87-4.79-.46-.3-.41-2.24-.03-5.1v-.07c.16-1.21.4-2.59.68-4.06-.05.28-.09.45-.09.45l-1.21-.35s.05-.27.13-.73c-.14.7-.29,1.41-.44,2.04-.29,1.43-.6,2.69-.88,3.7-.74,2.68-2.58,3.64-4.74,3.64-4.23,0-9.67-3.71-10.35-5.49-.34-.84-.38-1.86-.22-3.04v-.04c0-.05,0-.1.03-.15.02-.19.04-.35.09-.55.05-.28.12-.6.21-.95-.16.43-.31.74-.43.84-.18.17-.54.26-.98.26-1.89,0-5.39-1.74-3.98-7.04-.84-2.2,2.81-6.52,3.27-9.32.13-.76-.77-3.03-1.8-4.8-1.09-1.27-3.28-2.54-6.63-3.17-.33,0-.66,0-1.01,0-.75,0-1.55.01-2.4.04-.5,9.47,1.77,21.78,9.39,32.15h0ZM100.04,0C79.89,0,26.53,13.98,14.07,48.58c-.43,1.19-1.24,3.76-2.3,7.55-.21.2-.38.46-.46.76-2.31,8.49-4.35,17.35-6.05,26.36C2.18,98.46.44,111.92.07,123.23c-.13,3.98-.09,7.53.12,10.86.09,1.79.26,3.64.53,5.65,0,.03,0,.06.01.09,1.51,11.21,5.37,18.53,11.48,21.77,2.76,1.47,7.17,2.15,13.89,2.15,3.69,0,7.68-.21,11.54-.45.11,15.37-2.39,38.58-3.49,48.09-.09.8-.1,1.59-.03,2.44,0,.09,0,.19,0,.23.01.14.04.26.08.38.08.66.2,1.27.36,1.85,0,.03.01.05.02.08.96,3.27,3.24,6.38,6.79,9.32.5.41,1.04.81,1.58,1.22l.21.15c.12.08.24.17.36.27.39.27.8.54,1.21.82l.22.14.3.2c.2.14.4.27.61.41.34.21.7.41,1.05.62l.29.17.3.19c.29.16.57.33.86.5.33.19.66.35.99.53l.29.15.26.15c.37.19.74.4,1.12.58.31.15.62.32.93.45l.28.15c.58.27,1.07.51,1.57.74l.87.38.29.12c.57.26,1.15.52,1.73.77l.88.35.24.09c.61.27,1.23.51,1.86.76l.83.33.22.07c.66.25,1.32.5,1.99.74l.81.29.16.06c.7.25,1.4.49,2.11.73l.78.26c.83.29,1.56.51,2.28.74l.84.27c.75.23,1.49.46,2.23.68l.75.22c.76.22,1.52.44,2.27.65l.69.2c.76.21,1.51.41,2.26.61l.63.16c.76.19,1.5.4,2.25.58l.55.14c.76.19,1.49.37,2.22.55l.17.03.29.07c.74.19,1.47.34,2.17.5l.38.09c.72.16,1.41.32,2.08.47,0,0,.29.06.3.06l1.99.43.21.04,1.87.38,1.81.36,1.5.27,1.24.23c1.11.19,1.71.29,1.71.29.09.01.17.02.26.02s.17,0,.26-.02c2.77-.45,67.85-11.12,65.11-34.71l-.34-3.09-.02-.18-.03-.21c-.09-.87-.19-1.76-.27-2.66l-.05-.48-.03-.29c-1.44-14.75-2.24-29.65-2.16-40.3,1.89.02,3.8.04,5.7.04,1.41,0,2.8-.02,4.17-.03,5.34,0,8.87-.22,11.09-.69.21-.04.4-.11.58-.17l.23-.06c2.32-.4,4.17-.95,5.53-1.67,6.11-3.23,9.98-10.56,11.48-21.77,0-.03.01-.07.01-.1.26-2.01.44-3.85.52-5.64.01-.26-.04-.53-.15-.76.19-3.23.24-6.77.13-10.52,0-.06,0-.13,0-.2l-.02-.35c-.05-1.6-.12-3.25-.22-4.94-1.41-23.86-8.57-50.22-11.58-60.45-1.39-4.72-2.52-8.14-3.1-9.77-2.96-8.22-8.57-15.79-16.72-22.49-.18-.26-.32-.47-.45-.65-.29-.4-.73-.63-1.19-.66C147.31,7.24,116.04,0,100.04,0h0ZM50.2,162.63c.29,0,.57,0,.84,0,.29,0,.57,0,.84,0,3.39.66,4.92,1.9,5.49,2.5.97,1.71,1.5,3.3,1.51,3.68-.14.81-.83,2.14-1.5,3.43-1.14,2.18-2.21,4.25-1.84,6.09-.72,3.17.14,5.17,1.01,6.32,1.13,1.46,2.71,2.12,4.01,2.28-.03,1,.11,1.86.42,2.64.7,1.85,4.36,4.62,8.19,5.87-.31-.04-.61-.06-.9-.06-1.33,0-2.42.46-3.16,1.3-1.11-2.57-3.98-5.4-6.29-5.4-.06,0-.12,0-.18.01-7.64-10.99-8.55-22.79-8.45-28.65h0ZM141.08,164.83c.44-.25,1.93-.66,6.85-.77-.25,3.4-.91,8.66-2.63,14.54-.1-.46-.23-.93-.37-1.4-.62-1.91-1.53-4.03-2.65-6.15l-.03-.14c.14-.4.11-.85-.1-1.24,0,0-.15-.31-.42-.8-.37-1.46-.87-3.47-.67-4.01t.02-.02h0ZM139.42,187.43c.91,0,1.98-.29,2.98-.89-.72,1.6-1.53,3.21-2.44,4.8-.21-.06-.43-.07-.64-.07-2.33,0-5.22,2.88-6.31,5.44-.73-.84-1.81-1.31-3.14-1.33,3.77-1.28,7.33-4.01,8.02-5.84.25-.65.41-1.41.49-2.26.32.11.66.15,1.04.15h0ZM72.84,196.08c1.95,0,3.53-.65,4.67-1.83.11,1.15.47,1.67,1,2.03l.18.12c2.33,1.57,4.37,2.66,6.14,3.41-2.21.23-4.71.67-6.1,1.58-1.74-2.21-4.77-4.46-7.62-5.48.59.1,1.16.16,1.73.16h0ZM113.71,199.95c1.84-.76,3.98-1.87,6.44-3.55l.16-.1c.47-.3.85-.8,1.11-1.95,1.13,1.12,2.68,1.73,4.58,1.73.19,0,.4-.01.6-.03-2.87,1.11-5.86,3.43-7.48,5.64-1.07-.94-3.27-1.46-5.41-1.74h0ZM95.49,200.32c1.59-.9,3.04-2.51,3.93-5.29.81,2.53,2.08,4.09,3.52,5.05-1.84.41-3.14,1.05-3.89,1.94-.12.14-.22.3-.32.49-.1-.19-.2-.35-.32-.49-.61-.73-1.58-1.29-2.92-1.7h0Z"/>
              <path class="cls-75" d="M143.83,175.73c.03.05.05.15.08.29.07.35.1.71.1,1.12-.1-.79-.17-1.32-.17-1.41h0ZM143.83,174.12c-.12,0-.24.02-.36.04-.73.17-1.25.82-1.25,1.57,0,.09.03.41.1.92l.08.69c.1.82.8,1.42,1.61,1.42.03,0,.06,0,.1,0,.85-.05,1.52-.76,1.52-1.61,0-.56-.03-1-.13-1.44-.04-.27-.11-.49-.21-.69-.28-.56-.84-.89-1.45-.89h0Z"/>
              <path class="cls-75" d="M167.39,24.27s.18.21.47.65c-.27-.38-.47-.65-.47-.65h0ZM167.39,22.68c-.36,0-.73.12-1.03.38-.66.55-.77,1.52-.25,2.2,0,.02.19.25.45.6.31.44.8.67,1.31.67.32,0,.64-.1.92-.29.73-.5.91-1.49.41-2.22-.37-.55-.6-.8-.6-.8-.32-.35-.76-.53-1.21-.53h0Z"/>
            </g>
          </g>
          <g>
            <path class="cls-56" d="M167.44,95.1c1.76,2.79,6.64,29.86-2.53,36.22-10.93,7.59-35.92.64-39.38-8.26-3.84-9.88,41.91-27.96,41.91-27.96Z"/>
            <path class="cls-82" d="M161.99,128.58c-1.28,1.7-5.38,2.7-10.43,2.91v-.02c-1.24.05-2.51.06-3.83,0-7.15-.26-15.15-1.96-20-5.33-1.98-1.37-3.54-5.91-4.54-11.33-.32-1.73-.58-3.56-.78-5.4,0,0,0-.01,0-.03-.8-7.37-.61-15.13.97-18.49,3.31-7.04,33.05-5.38,41.75,1.33.98.74,1.73,1.72,2.31,2.87,4.83,9.47-2.41,29.42-5.44,33.48Z"/>
            <path class="cls-79" d="M123.37,90.91c-.95,3.38,6.99,12.51,8.99,14.25,2.02,1.75,20.96-.66,24.33-2.56,3.46-1.96,9.78-8.23,8.43-10.35-1.35-2.12-30.03-10.86-41.75-1.33Z"/>
            <path class="cls-81" d="M123.37,90.91c.19,1.97,4,9.11,6.78,10.26,2.83,1.16,20.09,1.82,24.63.73,3.61-.86,10.64-8.53,10.64-8.53,0,0-.78,2.8-4.61,6.26-3.73,3.36-4.27,4.3-4.33,4.77-.06.45-1.22,19.7-.71,22.15.14.66,2.72,3.62,2.72,3.62,0,0-5.05-2.93-6.24-3.14-1.18-.21-15.56.16-22.44-2.6l-2.68.72s1.96-.79,1.94-3.28c-.02-2.5-.62-17.95-1.34-20.16-.71-2.21-4.63-7.63-4.37-10.8Z"/>
            <path class="cls-7" d="M129.53,102.16c-.83.9-.12,20.25.96,21.94,1.08,1.7,21.53,3.07,23,2.14,1.49-.93,2.16-22.88,1.55-22.86-.6.02-25.51-1.22-25.51-1.22Z"/>
            <path class="cls-47" d="M128.73,124.72c-1,.85,6.32,5.67,15.57,6.3,9.8.68,9.81-2.47,9.15-3.54-.66-1.07-5-.28-13.28-.8-7.87-.5-10.37-2.26-10.37-2.26l-1.08.29Z"/>
            <path class="cls-57" d="M157.35,104.64c-.66,1.43-2.74,16.94-2.39,19.52.36,2.56,9.21-3.17,11.2-13.11,2.03-10.25.66-15.84-.3-15.62-.95.2-8.51,9.21-8.51,9.21Z"/>
            <path class="cls-54" d="M122.94,94.12c-.45,1.54-1.11,16.2,1.25,21.75,2.35,5.57,3.83-8.49,3.14-13.5-.69-5.05-4.39-8.25-4.39-8.25Z"/>
            <path class="cls-80" d="M131.83,123.68c-2.25-4.7-2.34-7.29,3.6-11.92,6.23-4.87,16.81.14,17.46,8.73.63,8.48-15.31,6.54-21.06,3.19Z"/>
            <path class="cls-76" d="M130.23,124.03c2.48-11.74,20.95-6.71,22.98-3.7,2.04,3.03.28,5.91.28,5.91,0,0-15.85,2.55-23.26-2.21Z"/>
            <path class="cls-77" d="M138.94,86.32c-11.18,6.26-5.17,13.01,4.15,14.19,9.84,1.25,17.2-1.31,17.2-1.31l-4.23,3.34s-21.3.24-26.66-1.48c-5.19-1.67-6.03-10.15-6.03-10.15,0,0,2.25-4.62,15.57-4.58Z"/>
            <path class="cls-71" d="M150.9,102.91c-1.19-1.28,8.82-3.27,8.82-3.27,0,0-2.53,4.86-3.75,5.31-1.21.47-5.07-2.04-5.07-2.04Z"/>
            <path class="cls-71" d="M127.44,99.52c-.53.07.99,3.18,1.35,3.04.36-.14,2.16-.92,2.16-.92,0,0-2.31-2.28-3.52-2.12Z"/>
            <path class="cls-78" d="M138.41,129.68c4.26,1.09,7.27,1.59,9.32,1.79-7.15-.26-15.15-1.96-20-5.33-1.98-1.37-3.54-5.91-4.54-11.33,1.76,6.84,5.85,12.47,15.23,14.87Z"/>
            <path class="cls-74" d="M126.72,125.14c.08-.58,1.49-.57,2.83.52,1.35,1.08,1.92,2.36,1.92,2.36,0,0-3.93-1.59-4.74-2.88Z"/>
            <path class="cls-53" d="M167.44,95.1c-14.18-13.04-40.7-2.06-42.96,0-2.12,1.95-2.03,13.66-2.08,14.29-.8-7.37-.61-15.13.97-18.49,3.31-7.04,33.05-5.38,41.75,1.33.98.74,1.73,1.72,2.31,2.87Z"/>
          </g>
        </g>
      </g>
    </g>
  </g>
</svg>