<?xml version="1.0" encoding="UTF-8"?>
<svg xmlns="http://www.w3.org/2000/svg" xmlns:xlink="http://www.w3.org/1999/xlink" viewBox="0 0 259.74 243.58">
  <defs>
    <style>
      .cls-1 {
        fill: url(#_ÂÁ_Ï_ÌÌ_È_ËÂÌÚ_1410-2);
      }

      .cls-2 {
        fill: url(#_ÂÁ_Ï_ÌÌ_È_ËÂÌÚ_1410-5);
      }

      .cls-3 {
        fill: url(#_ÂÁ_Ï_ÌÌ_È_ËÂÌÚ_1410-3);
      }

      .cls-4 {
        fill: url(#_ÂÁ_Ï_ÌÌ_È_ËÂÌÚ_1410-4);
      }

      .cls-5 {
        fill: url(#_ÂÁ_Ï_ÌÌ_È_ËÂÌÚ_1048-2);
      }

      .cls-6 {
        fill: url(#_ÂÁ_Ï_ÌÌ_È_ËÂÌÚ_1326-2);
      }

      .cls-7 {
        fill: url(#_ÂÁ_Ï_ÌÌ_È_ËÂÌÚ_1428-2);
      }

      .cls-7, .cls-8, .cls-9, .cls-10, .cls-11, .cls-12, .cls-13, .cls-14, .cls-15, .cls-16, .cls-17, .cls-18, .cls-19, .cls-20, .cls-21, .cls-22 {
        mix-blend-mode: multiply;
      }

      .cls-8, .cls-23 {
        opacity: .5;
      }

      .cls-9 {
        fill: url(#_ÂÁ_Ï_ÌÌ_È_ËÂÌÚ_511-5);
      }

      .cls-9, .cls-10, .cls-11, .cls-12, .cls-13, .cls-14, .cls-15, .cls-16, .cls-17, .cls-18, .cls-19, .cls-20 {
        opacity: .8;
      }

      .cls-10 {
        fill: url(#_ÂÁ_Ï_ÌÌ_È_ËÂÌÚ_511-3);
      }

      .cls-11 {
        fill: url(#_ÂÁ_Ï_ÌÌ_È_ËÂÌÚ_511-4);
      }

      .cls-12 {
        fill: url(#_ÂÁ_Ï_ÌÌ_È_ËÂÌÚ_511-2);
      }

      .cls-13 {
        fill: url(#_ÂÁ_Ï_ÌÌ_È_ËÂÌÚ_511);
      }

      .cls-24 {
        fill: url(#_ÂÁ_Ï_ÌÌ_È_ËÂÌÚ_623-2);
      }

      .cls-24, .cls-25, .cls-26, .cls-27, .cls-28, .cls-29, .cls-30, .cls-31, .cls-32, .cls-33, .cls-34, .cls-35, .cls-36, .cls-37, .cls-38, .cls-39, .cls-23, .cls-40, .cls-41, .cls-42 {
        mix-blend-mode: screen;
      }

      .cls-25 {
        fill: url(#_ÂÁ_Ï_ÌÌ_È_ËÂÌÚ_624-2);
      }

      .cls-26 {
        fill: url(#_ÂÁ_Ï_ÌÌ_È_ËÂÌÚ_624-3);
      }

      .cls-27 {
        fill: url(#_ÂÁ_Ï_ÌÌ_È_ËÂÌÚ_624-4);
      }

      .cls-14 {
        fill: url(#_ÂÁ_Ï_ÌÌ_È_ËÂÌÚ_1566-2);
      }

      .cls-43 {
        isolation: isolate;
      }

      .cls-28 {
        fill: url(#_ÂÁ_Ï_ÌÌ_È_ËÂÌÚ_1509-2);
      }

      .cls-29 {
        fill: url(#_ÂÁ_Ï_ÌÌ_È_ËÂÌÚ_1509-3);
      }

      .cls-30 {
        fill: url(#_ÂÁ_Ï_ÌÌ_È_ËÂÌÚ_1355-3);
      }

      .cls-31 {
        fill: url(#_ÂÁ_Ï_ÌÌ_È_ËÂÌÚ_1355-2);
      }

      .cls-32 {
        fill: url(#_ÂÁ_Ï_ÌÌ_È_ËÂÌÚ_1718-2);
      }

      .cls-44 {
        fill: #c1bbd1;
        opacity: .2;
      }

      .cls-44, .cls-45 {
        mix-blend-mode: soft-light;
      }

      .cls-46 {
        fill: #ffffae;
      }

      .cls-47 {
        fill: #fff;
      }

      .cls-33 {
        fill: url(#_ÂÁ_Ï_ÌÌ_È_ËÂÌÚ_1718);
      }

      .cls-34 {
        fill: url(#_ÂÁ_Ï_ÌÌ_È_ËÂÌÚ_1355);
      }

      .cls-35 {
        fill: url(#_ÂÁ_Ï_ÌÌ_È_ËÂÌÚ_1527);
      }

      .cls-36 {
        fill: url(#_ÂÁ_Ï_ÌÌ_È_ËÂÌÚ_1509);
      }

      .cls-48 {
        fill: #ffff9a;
      }

      .cls-49 {
        fill: #681e26;
      }

      .cls-15 {
        fill: url(#_ÂÁ_Ï_ÌÌ_È_ËÂÌÚ_1354);
      }

      .cls-16 {
        fill: url(#_ÂÁ_Ï_ÌÌ_È_ËÂÌÚ_1677);
      }

      .cls-17 {
        fill: url(#_ÂÁ_Ï_ÌÌ_È_ËÂÌÚ_1566);
      }

      .cls-18 {
        fill: url(#_ÂÁ_Ï_ÌÌ_È_ËÂÌÚ_1506);
      }

      .cls-19 {
        fill: url(#_ÂÁ_Ï_ÌÌ_È_ËÂÌÚ_1397);
      }

      .cls-20 {
        fill: url(#_ÂÁ_Ï_ÌÌ_È_ËÂÌÚ_1701);
      }

      .cls-37 {
        fill: url(#_ÂÁ_Ï_ÌÌ_È_ËÂÌÚ_7);
      }

      .cls-38 {
        fill: url(#_ÂÁ_Ï_ÌÌ_È_ËÂÌÚ_1752);
      }

      .cls-38, .cls-39, .cls-42 {
        opacity: .6;
      }

      .cls-39 {
        fill: url(#_ÂÁ_Ï_ÌÌ_È_ËÂÌÚ_1645);
      }

      .cls-23 {
        fill: url(#_ÂÁ_Ï_ÌÌ_È_ËÂÌÚ_748);
      }

      .cls-45 {
        fill: #de9760;
        opacity: .4;
      }

      .cls-40 {
        fill: url(#_ÂÁ_Ï_ÌÌ_È_ËÂÌÚ_623);
      }

      .cls-41 {
        fill: url(#_ÂÁ_Ï_ÌÌ_È_ËÂÌÚ_624);
      }

      .cls-21 {
        fill: url(#_ÂÁ_Ï_ÌÌ_È_ËÂÌÚ_1428);
      }

      .cls-22 {
        fill: url(#_ÂÁ_Ï_ÌÌ_È_ËÂÌÚ_1900);
      }

      .cls-50 {
        fill: url(#_ÂÁ_Ï_ÌÌ_È_ËÂÌÚ_2568);
      }

      .cls-51 {
        fill: url(#_ÂÁ_Ï_ÌÌ_È_ËÂÌÚ_1719);
      }

      .cls-52 {
        fill: url(#_ÂÁ_Ï_ÌÌ_È_ËÂÌÚ_1436);
      }

      .cls-53 {
        fill: url(#_ÂÁ_Ï_ÌÌ_È_ËÂÌÚ_1410);
      }

      .cls-54 {
        fill: url(#_ÂÁ_Ï_ÌÌ_È_ËÂÌÚ_1063);
      }

      .cls-55 {
        fill: url(#_ÂÁ_Ï_ÌÌ_È_ËÂÌÚ_1048);
      }

      .cls-56 {
        fill: url(#_ÂÁ_Ï_ÌÌ_È_ËÂÌÚ_1340);
      }

      .cls-57 {
        fill: url(#_ÂÁ_Ï_ÌÌ_È_ËÂÌÚ_1590);
      }

      .cls-58 {
        fill: url(#_ÂÁ_Ï_ÌÌ_È_ËÂÌÚ_1691);
      }

      .cls-59 {
        fill: url(#_ÂÁ_Ï_ÌÌ_È_ËÂÌÚ_1330);
      }

      .cls-60 {
        fill: url(#_ÂÁ_Ï_ÌÌ_È_ËÂÌÚ_1339);
      }

      .cls-61 {
        fill: url(#_ÂÁ_Ï_ÌÌ_È_ËÂÌÚ_1326);
      }

      .cls-62 {
        fill: url(#_ÂÁ_Ï_ÌÌ_È_ËÂÌÚ_1329);
      }

      .cls-63 {
        fill: url(#_ÂÁ_Ï_ÌÌ_È_ËÂÌÚ_1537);
      }

      .cls-42 {
        fill: url(#_ÂÁ_Ï_ÌÌ_È_ËÂÌÚ_1645-2);
      }

      .cls-64 {
        fill: url(#_ÂÁ_Ï_ÌÌ_È_ËÂÌÚ_24);
      }
    </style>
    <linearGradient id="_ÂÁ_Ï_ÌÌ_È_ËÂÌÚ_1900" data-name="¡ÂÁ˚ÏˇÌÌ˚È „‡‰ËÂÌÚ 1900" x1="288.56" y1="111.3" x2="214.5" y2="-16.97" gradientTransform="translate(-106.63 97.41) rotate(-2.17)" gradientUnits="userSpaceOnUse">
      <stop offset="0" stop-color="#e7a4df"/>
      <stop offset="1" stop-color="#a12a9a"/>
    </linearGradient>
    <linearGradient id="_ÂÁ_Ï_ÌÌ_È_ËÂÌÚ_24" data-name="¡ÂÁ˚ÏˇÌÌ˚È „‡‰ËÂÌÚ 24" x1="239.26" y1="137.76" x2="239.26" y2="-82.47" gradientTransform="translate(-106.63 97.41) rotate(-2.17)" gradientUnits="userSpaceOnUse">
      <stop offset="0" stop-color="#831f24"/>
      <stop offset="1" stop-color="#bb540e"/>
    </linearGradient>
    <linearGradient id="_ÂÁ_Ï_ÌÌ_È_ËÂÌÚ_1410" data-name="¡ÂÁ˚ÏˇÌÌ˚È „‡‰ËÂÌÚ 1410" x1="257.52" y1="66.19" x2="257.52" y2="-1.4" gradientTransform="translate(-106.63 97.41) rotate(-2.17)" gradientUnits="userSpaceOnUse">
      <stop offset="0" stop-color="#f6f2ff"/>
      <stop offset="1" stop-color="#cf6781"/>
    </linearGradient>
    <linearGradient id="_ÂÁ_Ï_ÌÌ_È_ËÂÌÚ_1410-2" data-name="¡ÂÁ˚ÏˇÌÌ˚È „‡‰ËÂÌÚ 1410" x1="242.6" y1="120.61" x2="242.6" y2="37.27" xlink:href="#_ÂÁ_Ï_ÌÌ_È_ËÂÌÚ_1410"/>
    <linearGradient id="_ÂÁ_Ï_ÌÌ_È_ËÂÌÚ_1410-3" data-name="¡ÂÁ˚ÏˇÌÌ˚È „‡‰ËÂÌÚ 1410" x1="279.61" y1="32.39" x2="279.61" y2="-29.44" xlink:href="#_ÂÁ_Ï_ÌÌ_È_ËÂÌÚ_1410"/>
    <linearGradient id="_ÂÁ_Ï_ÌÌ_È_ËÂÌÚ_1410-4" data-name="¡ÂÁ˚ÏˇÌÌ˚È „‡‰ËÂÌÚ 1410" x1="178.6" y1="119.88" x2="178.6" y2="84.5" xlink:href="#_ÂÁ_Ï_ÌÌ_È_ËÂÌÚ_1410"/>
    <linearGradient id="_ÂÁ_Ï_ÌÌ_È_ËÂÌÚ_1410-5" data-name="¡ÂÁ˚ÏˇÌÌ˚È „‡‰ËÂÌÚ 1410" x1="179.46" y1="103.36" x2="179.46" y2="72.52" xlink:href="#_ÂÁ_Ï_ÌÌ_È_ËÂÌÚ_1410"/>
    <linearGradient id="_ÂÁ_Ï_ÌÌ_È_ËÂÌÚ_1397" data-name="¡ÂÁ˚ÏˇÌÌ˚È „‡‰ËÂÌÚ 1397" x1="224.86" y1="137.76" x2="224.86" y2="-65.97" gradientTransform="translate(-106.63 97.41) rotate(-2.17)" gradientUnits="userSpaceOnUse">
      <stop offset="0" stop-color="#ba84bb"/>
      <stop offset="1" stop-color="#a12a9a"/>
    </linearGradient>
    <linearGradient id="_ÂÁ_Ï_ÌÌ_È_ËÂÌÚ_2568" data-name="¡ÂÁ˚ÏˇÌÌ˚È „‡‰ËÂÌÚ 2568" x1="119.16" y1="73.5" x2="212.82" y2="4.65" gradientTransform="translate(-106.63 97.41) rotate(-2.17)" gradientUnits="userSpaceOnUse">
      <stop offset="0" stop-color="#ff8e00"/>
      <stop offset="1" stop-color="#a70b00"/>
    </linearGradient>
    <linearGradient id="_ÂÁ_Ï_ÌÌ_È_ËÂÌÚ_1048" data-name="¡ÂÁ˚ÏˇÌÌ˚È „‡‰ËÂÌÚ 1048" x1="106.84" y1="28.23" x2="223.94" y2="28.23" gradientTransform="translate(-106.63 97.41) rotate(-2.17)" gradientUnits="userSpaceOnUse">
      <stop offset="0" stop-color="#ffca00"/>
      <stop offset="1" stop-color="#f80"/>
    </linearGradient>
    <linearGradient id="_ÂÁ_Ï_ÌÌ_È_ËÂÌÚ_1063" data-name="¡ÂÁ˚ÏˇÌÌ˚È „‡‰ËÂÌÚ 1063" x1="333.26" y1="-41.38" x2="322.22" y2="-73.43" gradientTransform="translate(-106.63 97.41) rotate(-2.17)" gradientUnits="userSpaceOnUse">
      <stop offset="0" stop-color="#312559"/>
      <stop offset=".25" stop-color="#372c61"/>
      <stop offset=".65" stop-color="#4a4279"/>
      <stop offset="1" stop-color="#5e5994"/>
    </linearGradient>
    <linearGradient id="_ÂÁ_Ï_ÌÌ_È_ËÂÌÚ_1506" data-name="¡ÂÁ˚ÏˇÌÌ˚È „‡‰ËÂÌÚ 1506" x1="340" y1="-35.8" x2="340" y2="-82.46" gradientTransform="translate(-106.63 97.41) rotate(-2.17)" gradientUnits="userSpaceOnUse">
      <stop offset="0" stop-color="#6d259a"/>
      <stop offset="1" stop-color="#ac72cf"/>
    </linearGradient>
    <linearGradient id="_ÂÁ_Ï_ÌÌ_È_ËÂÌÚ_1048-2" data-name="¡ÂÁ˚ÏˇÌÌ˚È „‡‰ËÂÌÚ 1048" x1="271.45" y1="-37.21" x2="321.13" y2="-37.21" xlink:href="#_ÂÁ_Ï_ÌÌ_È_ËÂÌÚ_1048"/>
    <linearGradient id="_ÂÁ_Ï_ÌÌ_È_ËÂÌÚ_1691" data-name="¡ÂÁ˚ÏˇÌÌ˚È „‡‰ËÂÌÚ 1691" x1="293.73" y1="-17.89" x2="293.73" y2="-50.83" gradientTransform="translate(-106.63 97.41) rotate(-2.17)" gradientUnits="userSpaceOnUse">
      <stop offset="0" stop-color="#ba2a00"/>
      <stop offset="1" stop-color="#a70b00"/>
    </linearGradient>
    <linearGradient id="_ÂÁ_Ï_ÌÌ_È_ËÂÌÚ_1590" data-name="¡ÂÁ˚ÏˇÌÌ˚È „‡‰ËÂÌÚ 1590" x1="241.54" y1="125.07" x2="241.54" y2="-21.11" gradientTransform="translate(-106.63 97.41) rotate(-2.17)" gradientUnits="userSpaceOnUse">
      <stop offset="0" stop-color="#ff7000"/>
      <stop offset="1" stop-color="#ffe600"/>
    </linearGradient>
    <linearGradient id="_ÂÁ_Ï_ÌÌ_È_ËÂÌÚ_1436" data-name="¡ÂÁ˚ÏˇÌÌ˚È „‡‰ËÂÌÚ 1436" x1="242.35" y1="127" x2="242.35" y2="-20.99" gradientTransform="translate(-106.63 97.41) rotate(-2.17)" gradientUnits="userSpaceOnUse">
      <stop offset="0" stop-color="#ff6d00"/>
      <stop offset="1" stop-color="#ffa100"/>
    </linearGradient>
    <linearGradient id="_ÂÁ_Ï_ÌÌ_È_ËÂÌÚ_1340" data-name="¡ÂÁ˚ÏˇÌÌ˚È „‡‰ËÂÌÚ 1340" x1="142.97" y1="136.64" x2="142.97" y2="68.79" gradientTransform="translate(-106.63 97.41) rotate(-2.17)" gradientUnits="userSpaceOnUse">
      <stop offset="0" stop-color="#a70b00"/>
      <stop offset=".7" stop-color="#e55300"/>
      <stop offset="1" stop-color="#ffac00"/>
    </linearGradient>
    <linearGradient id="_ÂÁ_Ï_ÌÌ_È_ËÂÌÚ_1537" data-name="¡ÂÁ˚ÏˇÌÌ˚È „‡‰ËÂÌÚ 1537" x1="140.39" y1="136.97" x2="140.39" y2="70.31" gradientTransform="translate(-106.63 97.41) rotate(-2.17)" gradientUnits="userSpaceOnUse">
      <stop offset="0" stop-color="#ff6d00"/>
      <stop offset="1" stop-color="#ffb300"/>
    </linearGradient>
    <linearGradient id="_ÂÁ_Ï_ÌÌ_È_ËÂÌÚ_1326" data-name="¡ÂÁ˚ÏˇÌÌ˚È „‡‰ËÂÌÚ 1326" x1="136.23" y1="127.78" x2="136.23" y2="84.5" gradientTransform="translate(-106.63 97.41) rotate(-2.17)" gradientUnits="userSpaceOnUse">
      <stop offset="0" stop-color="#ffac00"/>
      <stop offset=".3" stop-color="#e55300"/>
      <stop offset="1" stop-color="#a70b00"/>
    </linearGradient>
    <linearGradient id="_ÂÁ_Ï_ÌÌ_È_ËÂÌÚ_1339" data-name="¡ÂÁ˚ÏˇÌÌ˚È „‡‰ËÂÌÚ 1339" x1="136.9" y1="125.85" x2="136.9" y2="84.5" gradientTransform="translate(-106.63 97.41) rotate(-2.17)" gradientUnits="userSpaceOnUse">
      <stop offset="0" stop-color="#4cc7ff"/>
      <stop offset="1" stop-color="#0061ff"/>
    </linearGradient>
    <linearGradient id="_ÂÁ_Ï_ÌÌ_È_ËÂÌÚ_1355" data-name="¡ÂÁ˚ÏˇÌÌ˚È „‡‰ËÂÌÚ 1355" x1="106.84" y1="29.53" x2="223.94" y2="29.53" gradientTransform="translate(-106.63 97.41) rotate(-2.17)" gradientUnits="userSpaceOnUse">
      <stop offset="0" stop-color="#ffff40"/>
      <stop offset="1" stop-color="#000"/>
    </linearGradient>
    <linearGradient id="_ÂÁ_Ï_ÌÌ_È_ËÂÌÚ_1428" data-name="¡ÂÁ˚ÏˇÌÌ˚È „‡‰ËÂÌÚ 1428" x1="135.88" y1="114.78" x2="135.88" y2="85.79" gradientTransform="translate(-106.63 97.41) rotate(-2.17)" gradientUnits="userSpaceOnUse">
      <stop offset="0" stop-color="#f6f2ff"/>
      <stop offset="1" stop-color="#816781"/>
    </linearGradient>
    <linearGradient id="_ÂÁ_Ï_ÌÌ_È_ËÂÌÚ_511" data-name="¡ÂÁ˚ÏˇÌÌ˚È „‡‰ËÂÌÚ 511" x1="313.02" y1="-19.34" x2="313.02" y2="-49.87" gradientTransform="translate(-106.63 97.41) rotate(-2.17)" gradientUnits="userSpaceOnUse">
      <stop offset="0" stop-color="#c2409a"/>
      <stop offset="1" stop-color="#ee9fff"/>
    </linearGradient>
    <linearGradient id="_ÂÁ_Ï_ÌÌ_È_ËÂÌÚ_1527" data-name="¡ÂÁ˚ÏˇÌÌ˚È „‡‰ËÂÌÚ 1527" x1="139.43" y1="129.3" x2="139.43" y2="71" gradientTransform="translate(-106.63 97.41) rotate(-2.17)" gradientUnits="userSpaceOnUse">
      <stop offset="0" stop-color="#000"/>
      <stop offset="1" stop-color="#ffa700"/>
    </linearGradient>
    <linearGradient id="_ÂÁ_Ï_ÌÌ_È_ËÂÌÚ_1509" data-name="¡ÂÁ˚ÏˇÌÌ˚È „‡‰ËÂÌÚ 1509" x1="141.72" y1="136.97" x2="141.72" y2="70.31" gradientTransform="translate(-106.63 97.41) rotate(-2.17)" gradientUnits="userSpaceOnUse">
      <stop offset="0" stop-color="#000"/>
      <stop offset="1" stop-color="#ffff40"/>
    </linearGradient>
    <linearGradient id="_ÂÁ_Ï_ÌÌ_È_ËÂÌÚ_7" data-name="¡ÂÁ˚ÏˇÌÌ˚È „‡‰ËÂÌÚ 7" x1="147.87" y1="102.19" x2="147.87" y2="87.73" gradientTransform="translate(-106.63 97.41) rotate(-2.17)" gradientUnits="userSpaceOnUse">
      <stop offset="0" stop-color="#000"/>
      <stop offset="1" stop-color="#ffff95"/>
    </linearGradient>
    <linearGradient id="_ÂÁ_Ï_ÌÌ_È_ËÂÌÚ_511-2" data-name="¡ÂÁ˚ÏˇÌÌ˚È „‡‰ËÂÌÚ 511" x1="145.3" y1="135.52" x2="145.3" y2="118.89" xlink:href="#_ÂÁ_Ï_ÌÌ_È_ËÂÌÚ_511"/>
    <linearGradient id="_ÂÁ_Ï_ÌÌ_È_ËÂÌÚ_511-3" data-name="¡ÂÁ˚ÏˇÌÌ˚È „‡‰ËÂÌÚ 511" x1="167.92" y1="66.2" x2="167.92" y2="34.52" xlink:href="#_ÂÁ_Ï_ÌÌ_È_ËÂÌÚ_511"/>
    <linearGradient id="_ÂÁ_Ï_ÌÌ_È_ËÂÌÚ_623" data-name="¡ÂÁ˚ÏˇÌÌ˚È „‡‰ËÂÌÚ 623" x1="139.04" y1="65.36" x2="139.04" y2="52.42" gradientTransform="translate(-106.63 97.41) rotate(-2.17)" gradientUnits="userSpaceOnUse">
      <stop offset="0" stop-color="#000"/>
      <stop offset="1" stop-color="#ffa711"/>
    </linearGradient>
    <linearGradient id="_ÂÁ_Ï_ÌÌ_È_ËÂÌÚ_624" data-name="¡ÂÁ˚ÏˇÌÌ˚È „‡‰ËÂÌÚ 624" x1="168.85" y1="52.82" x2="168.85" y2="3.38" gradientTransform="translate(-106.63 97.41) rotate(-2.17)" gradientUnits="userSpaceOnUse">
      <stop offset="0" stop-color="#ffa711"/>
      <stop offset="1" stop-color="#000"/>
    </linearGradient>
    <linearGradient id="_ÂÁ_Ï_ÌÌ_È_ËÂÌÚ_1355-2" data-name="¡ÂÁ˚ÏˇÌÌ˚È „‡‰ËÂÌÚ 1355" x1="120.07" y1="26.28" x2="209.66" y2="26.28" xlink:href="#_ÂÁ_Ï_ÌÌ_È_ËÂÌÚ_1355"/>
    <linearGradient id="_ÂÁ_Ï_ÌÌ_È_ËÂÌÚ_1330" data-name="¡ÂÁ˚ÏˇÌÌ˚È „‡‰ËÂÌÚ 1330" x1="122.28" y1="26.29" x2="207.46" y2="26.29" gradientTransform="translate(-106.63 97.41) rotate(-2.17)" gradientUnits="userSpaceOnUse">
      <stop offset="0" stop-color="#ca3400"/>
      <stop offset="1" stop-color="#ff8e00"/>
    </linearGradient>
    <linearGradient id="_ÂÁ_Ï_ÌÌ_È_ËÂÌÚ_1329" data-name="¡ÂÁ˚ÏˇÌÌ˚È „‡‰ËÂÌÚ 1329" x1="124.35" y1="29.79" x2="206.94" y2="29.79" gradientTransform="translate(-106.63 97.41) rotate(-2.17)" gradientUnits="userSpaceOnUse">
      <stop offset="0" stop-color="#5e0624"/>
      <stop offset="1" stop-color="#ca340e"/>
    </linearGradient>
    <linearGradient id="_ÂÁ_Ï_ÌÌ_È_ËÂÌÚ_1354" data-name="¡ÂÁ˚ÏˇÌÌ˚È „‡‰ËÂÌÚ 1354" x1="122.28" y1="28.22" x2="200.92" y2="28.22" gradientTransform="translate(-106.63 97.41) rotate(-2.17)" gradientUnits="userSpaceOnUse">
      <stop offset="0" stop-color="#b6259a"/>
      <stop offset="1" stop-color="#e3c2cf"/>
    </linearGradient>
    <linearGradient id="_ÂÁ_Ï_ÌÌ_È_ËÂÌÚ_623-2" data-name="¡ÂÁ˚ÏˇÌÌ˚È „‡‰ËÂÌÚ 623" x1="193.6" y1="16.89" x2="193.6" y2="8.88" xlink:href="#_ÂÁ_Ï_ÌÌ_È_ËÂÌÚ_623"/>
    <linearGradient id="_ÂÁ_Ï_ÌÌ_È_ËÂÌÚ_1566" data-name="¡ÂÁ˚ÏˇÌÌ˚È „‡‰ËÂÌÚ 1566" x1="179.45" y1="19.29" x2="221.94" y2="19.29" gradientTransform="translate(-106.63 97.41) rotate(-2.17)" gradientUnits="userSpaceOnUse">
      <stop offset="0" stop-color="#fff"/>
      <stop offset="1" stop-color="#d57cba"/>
    </linearGradient>
    <linearGradient id="_ÂÁ_Ï_ÌÌ_È_ËÂÌÚ_511-4" data-name="¡ÂÁ˚ÏˇÌÌ˚È „‡‰ËÂÌÚ 511" x1="248.67" y1="88.37" x2="249.06" y2="88.37" xlink:href="#_ÂÁ_Ï_ÌÌ_È_ËÂÌÚ_511"/>
    <linearGradient id="_ÂÁ_Ï_ÌÌ_È_ËÂÌÚ_511-5" data-name="¡ÂÁ˚ÏˇÌÌ˚È „‡‰ËÂÌÚ 511" x1="188.62" y1="52.98" x2="296.09" y2="52.98" xlink:href="#_ÂÁ_Ï_ÌÌ_È_ËÂÌÚ_511"/>
    <linearGradient id="_ÂÁ_Ï_ÌÌ_È_ËÂÌÚ_1326-2" data-name="¡ÂÁ˚ÏˇÌÌ˚È „‡‰ËÂÌÚ 1326" x1="241.54" y1="120.62" x2="241.54" y2="54.52" xlink:href="#_ÂÁ_Ï_ÌÌ_È_ËÂÌÚ_1326"/>
    <linearGradient id="_ÂÁ_Ï_ÌÌ_È_ËÂÌÚ_1719" data-name="¡ÂÁ˚ÏˇÌÌ˚È „‡‰ËÂÌÚ 1719" x1="238.54" y1="118.98" x2="238.54" y2="72.5" gradientTransform="translate(-106.63 97.41) rotate(-2.17)" gradientUnits="userSpaceOnUse">
      <stop offset="0" stop-color="#4cc7ff"/>
      <stop offset=".71" stop-color="#0061ff"/>
    </linearGradient>
    <linearGradient id="_ÂÁ_Ï_ÌÌ_È_ËÂÌÚ_1428-2" data-name="¡ÂÁ˚ÏˇÌÌ˚È „‡‰ËÂÌÚ 1428" x1="238.28" y1="111.47" x2="238.28" y2="74.69" xlink:href="#_ÂÁ_Ï_ÌÌ_È_ËÂÌÚ_1428"/>
    <linearGradient id="_ÂÁ_Ï_ÌÌ_È_ËÂÌÚ_624-2" data-name="¡ÂÁ˚ÏˇÌÌ˚È „‡‰ËÂÌÚ 624" x1="273.92" y1="44.68" x2="273.92" y2="12.87" xlink:href="#_ÂÁ_Ï_ÌÌ_È_ËÂÌÚ_624"/>
    <linearGradient id="_ÂÁ_Ï_ÌÌ_È_ËÂÌÚ_624-3" data-name="¡ÂÁ˚ÏˇÌÌ˚È „‡‰ËÂÌÚ 624" x1="204.05" y1="76.13" x2="204.05" y2="63.35" xlink:href="#_ÂÁ_Ï_ÌÌ_È_ËÂÌÚ_624"/>
    <linearGradient id="_ÂÁ_Ï_ÌÌ_È_ËÂÌÚ_1509-2" data-name="¡ÂÁ˚ÏˇÌÌ˚È „‡‰ËÂÌÚ 1509" x1="223.95" y1="86.6" x2="223.95" y2="86.57" xlink:href="#_ÂÁ_Ï_ÌÌ_È_ËÂÌÚ_1509"/>
    <linearGradient id="_ÂÁ_Ï_ÌÌ_È_ËÂÌÚ_1509-3" data-name="¡ÂÁ˚ÏˇÌÌ˚È „‡‰ËÂÌÚ 1509" x1="208.77" y1="116.81" x2="208.77" y2="64.46" xlink:href="#_ÂÁ_Ï_ÌÌ_È_ËÂÌÚ_1509"/>
    <linearGradient id="_ÂÁ_Ï_ÌÌ_È_ËÂÌÚ_1566-2" data-name="¡ÂÁ˚ÏˇÌÌ˚È „‡‰ËÂÌÚ 1566" x1="196.85" y1="76.21" x2="227.11" y2="76.21" xlink:href="#_ÂÁ_Ï_ÌÌ_È_ËÂÌÚ_1566"/>
    <linearGradient id="_ÂÁ_Ï_ÌÌ_È_ËÂÌÚ_1355-3" data-name="¡ÂÁ˚ÏˇÌÌ˚È „‡‰ËÂÌÚ 1355" x1="216.37" y1="90.48" x2="254.32" y2="90.48" xlink:href="#_ÂÁ_Ï_ÌÌ_È_ËÂÌÚ_1355"/>
    <linearGradient id="_ÂÁ_Ï_ÌÌ_È_ËÂÌÚ_1645" data-name="¡ÂÁ˚ÏˇÌÌ˚È „‡‰ËÂÌÚ 1645" x1="234.17" y1="118.32" x2="234.17" y2="99.63" gradientTransform="translate(-106.63 97.41) rotate(-2.17)" gradientUnits="userSpaceOnUse">
      <stop offset="0" stop-color="#52ffff"/>
      <stop offset="1" stop-color="#000"/>
    </linearGradient>
    <linearGradient id="_ÂÁ_Ï_ÌÌ_È_ËÂÌÚ_1645-2" data-name="¡ÂÁ˚ÏˇÌÌ˚È „‡‰ËÂÌÚ 1645" x1="140.47" y1="125.88" x2="140.47" y2="103.62" xlink:href="#_ÂÁ_Ï_ÌÌ_È_ËÂÌÚ_1645"/>
    <linearGradient id="_ÂÁ_Ï_ÌÌ_È_ËÂÌÚ_624-4" data-name="¡ÂÁ˚ÏˇÌÌ˚È „‡‰ËÂÌÚ 624" x1="297.3" y1="-49.15" x2="309.73" y2="-49.15" xlink:href="#_ÂÁ_Ï_ÌÌ_È_ËÂÌÚ_624"/>
    <linearGradient id="_ÂÁ_Ï_ÌÌ_È_ËÂÌÚ_1677" data-name="¡ÂÁ˚ÏˇÌÌ˚È „‡‰ËÂÌÚ 1677" x1="293.04" y1="-17.99" x2="293.04" y2="-46.13" gradientTransform="translate(-106.63 97.41) rotate(-2.17)" gradientUnits="userSpaceOnUse">
      <stop offset="0" stop-color="#e35970"/>
      <stop offset="1" stop-color="#6d009a"/>
    </linearGradient>
    <linearGradient id="_ÂÁ_Ï_ÌÌ_È_ËÂÌÚ_1701" data-name="¡ÂÁ˚ÏˇÌÌ˚È „‡‰ËÂÌÚ 1701" x1="120.39" y1="55.25" x2="220.37" y2="55.25" gradientTransform="translate(-106.63 97.41) rotate(-2.17)" gradientUnits="userSpaceOnUse">
      <stop offset="0" stop-color="#c784bb"/>
      <stop offset="1" stop-color="#a12a9a"/>
    </linearGradient>
    <linearGradient id="_ÂÁ_Ï_ÌÌ_È_ËÂÌÚ_748" data-name="¡ÂÁ˚ÏˇÌÌ˚È „‡‰ËÂÌÚ 748" x1="310.45" y1="-63.71" x2="362.13" y2="-63.71" gradientTransform="translate(-106.63 97.41) rotate(-2.17)" gradientUnits="userSpaceOnUse">
      <stop offset="0" stop-color="#95a1a9"/>
      <stop offset="1" stop-color="#000"/>
    </linearGradient>
    <linearGradient id="_ÂÁ_Ï_ÌÌ_È_ËÂÌÚ_1718" data-name="¡ÂÁ˚ÏˇÌÌ˚È „‡‰ËÂÌÚ 1718" x1="132.31" y1="99.01" x2="132.31" y2="89.79" gradientTransform="translate(-106.63 97.41) rotate(-2.17)" gradientUnits="userSpaceOnUse">
      <stop offset="0" stop-color="#313131"/>
      <stop offset="1" stop-color="#ffff95"/>
    </linearGradient>
    <linearGradient id="_ÂÁ_Ï_ÌÌ_È_ËÂÌÚ_1718-2" data-name="¡ÂÁ˚ÏˇÌÌ˚È „‡‰ËÂÌÚ 1718" x1="258.49" y1="97.39" x2="258.49" y2="92.35" xlink:href="#_ÂÁ_Ï_ÌÌ_È_ËÂÌÚ_1718"/>
    <linearGradient id="_ÂÁ_Ï_ÌÌ_È_ËÂÌÚ_1752" data-name="¡ÂÁ˚ÏˇÌÌ˚È „‡‰ËÂÌÚ 1752" x1="197.66" y1="29.73" x2="189.58" y2="15.73" gradientTransform="translate(-106.63 97.41) rotate(-2.17)" gradientUnits="userSpaceOnUse">
      <stop offset="0" stop-color="#000"/>
      <stop offset=".09" stop-color="#060402"/>
      <stop offset=".22" stop-color="#171108"/>
      <stop offset=".36" stop-color="#342512"/>
      <stop offset=".52" stop-color="#5d4220"/>
      <stop offset=".7" stop-color="#916732"/>
      <stop offset=".88" stop-color="#cf9448"/>
      <stop offset="1" stop-color="#ffb659"/>
    </linearGradient>
  </defs>
  <g class="cls-43">
    <g id="Layer_2" data-name="Layer 2">
      <g id="_Layer_" data-name="&amp;lt;Layer&amp;gt;">
        <g>
          <path class="cls-22" d="M213.41,59.5c.92-1.07,1.84-2.11,2.79-3.08.49-.49,1-.93,1.5-1.4.69-.65,1.38-1.33,2.08-1.93.95-.81,1.9-1.56,2.86-2.29.24-.18.48-.4.71-.56.6-.44,1.2-.84,1.79-1.25.56-.39,1.11-.77,1.67-1.13.58-.38,1.16-.75,1.74-1.09.61-.36,1.21-.71,1.82-1.05.51-.29,1.04-.59,1.56-.86,1.03-.55,2.06-1.06,3.07-1.53.49-.24.96-.44,1.44-.65.63-.28,1.27-.56,1.9-.82.49-.2.99-.4,1.48-.6.61-.24,1.21-.45,1.8-.68.44-.16.89-.33,1.3-.47.9-.32,1.79-.62,2.63-.88.48-.15.93-.29,1.4-.43.45-.13.91-.27,1.33-.4.52-.15,1.02-.29,1.51-.43.26-.07.51-.13.76-.22,2.03-.54,3.73-.98,5-1.36.08-.02.17-.05.25-.07.4-.12.74-.24,1.04-.35.1-.03.2-.07.28-.11.33-.13.61-.27.78-.4.23-.18.41-.42.54-.71.06-.11.06-.27.1-.4.05-.19.12-.37.15-.59.01-.17,0-.37,0-.55,0-.22.01-.43,0-.66-.02-.2-.08-.42-.11-.63-.05-.25-.08-.51-.14-.77-.05-.22-.14-.45-.21-.67-.08-.29-.16-.57-.27-.87-.09-.24-.19-.47-.29-.69-.13-.32-.25-.63-.41-.95-.11-.23-.23-.45-.34-.68-.18-.34-.34-.67-.54-1.01-.12-.22-.26-.44-.4-.66-.21-.34-.41-.68-.64-1.02-.15-.21-.3-.43-.46-.65-.24-.33-.47-.67-.72-.99-.17-.21-.35-.42-.52-.62-.26-.32-.52-.61-.79-.91-.19-.2-.38-.39-.57-.59-.28-.28-.56-.56-.84-.81-.21-.18-.41-.35-.62-.52-.29-.24-.58-.48-.88-.69-.22-.16-.44-.31-.67-.44-.3-.2-.6-.38-.9-.55-.23-.12-.47-.23-.7-.33-.14-.06-.27-.14-.4-.2,0,0-.01-.02-.01-.02,0,0,0,0-.01,0-.16-.06-.32-.11-.48-.17-.24-.09-.48-.15-.71-.2-.31-.07-.62-.15-.92-.18-.25-.03-.49-.04-.73-.05-.18-.01-.36-.04-.54-.03h-.02c-.23,0-.45.03-.7.08-.32.05-.69.13-1.11.21-.08.02-.15.04-.23.06-.89.19-1.97.47-3.23.81-.03,0-.05.01-.08.02-3.31.92-7.78,2.34-12.91,4.24-.07.02-.14.05-.21.08-1.98.73-4.05,1.53-6.19,2.41-.16.06-.32.12-.47.19-2.09.86-4.24,1.78-6.43,2.76-.22.1-.43.19-.64.28-2.18.99-4.37,2.04-6.58,3.14-.22.11-.44.22-.66.33-1.03.52-2.07,1.05-3.1,1.6-.08.04-.14.07-.21.11-1.12.6-2.24,1.2-3.34,1.83-.07.03-.15.08-.21.12-.07.03-.13.08-.19.11-1.63.92-3.25,1.87-4.84,2.85-.15.1-.31.2-.46.29-1.56.97-3.09,1.97-4.59,3-.16.11-.32.21-.47.33-1.52,1.05-2.99,2.12-4.42,3.23-.11.09-.22.17-.33.26-.41.3-.79.63-1.18.94-3.96-.12-7.06.15-7.98.42-6.54,1.94-9.68,8.16-9.68,8.16h0s0,0,0,0c-.95,3.87,2.53,10.17,2.53,10.17,0,0,.23-.83.63-1.92v.21c-7.08,18.01-8.46,70.26-31.88,83.79-3.5,2.04-6.41,3.15-8.8,3.48-1.32-.35-2.97-.57-5-.66-2.26-1.16-3.72-3.59-4.64-6.89.38-.45.78-.88,1.14-1.35t.03-.06h.02,0c.56-.72,1.11-1.45,1.63-2.19,3.14-4.43-.91-19.57-.91-19.57-1.08-4.19-5.44-7.22-12.1-9-1.83-.5-3.89-.86-6.06-1.17,2.07.04,3.47.14,3.47.14-13.36-2.66-32.29.54-32.29.54v.03c-5.25.77-10.69,1.84-16.26,3.27-23.23,5.94-41.99,16.06-49.34,25.61h0c-2.77,3.59-3.93,7.09-3.12,10.25,0,0,5.07,17.53,7.39,19.63,1.19,1.07,3.57,2.02,6.79,2.75.43,1.64.86,3.28,1.22,4.97.38,1.72.73,3.46,1.06,5.22-.93,2.21-1.51,5.21-1.68,8.8-.25,2.64-.26,5.33.17,7.6.01.03.02.07.03.1,1.01,11.64,5.21,25.74,13.16,35.14.14.12.29.27.42.47.02.03.02.04.04.06,1.25,1.44,2.61,2.75,4.04,3.93,3.05,2.49,6.52,4.33,10.43,5.26,2.87.67,5.23.65,7.15.06h-.01s.96,0,2-.93c.56-.36,1.05-.78,1.5-1.25.36.08.7.19,1.07.27,9.04,2.07,20.45,2.64,35.05,1.22,19.6-1.91,35.27-7.94,47.93-16.61.13-.06.25-.12.38-.19.25-.12.51-.25.75-.37.79-.38,1.57-.77,2.35-1.19.34-.18.67-.36,1-.56.71-.39,1.41-.8,2.11-1.23.34-.21.68-.42,1.02-.64.73-.47,1.45-.95,2.16-1.46.29-.2.57-.39.86-.6,1.97-1.44,3.89-3.02,5.75-4.76.29-.25.57-.54.84-.82.64-.61,1.26-1.25,1.88-1.89.33-.34.65-.69.98-1.05.56-.62,1.13-1.27,1.67-1.93.32-.37.63-.76.95-1.14.56-.71,1.12-1.44,1.67-2.19.26-.35.53-.71.79-1.06.79-1.13,1.56-2.28,2.3-3.47,5.2-8.44,8.71-17.22,11.09-26.11,12.31-29.79,15.8-62.57,19.68-83.05.62-3.33,1.42-6.43,2.33-9.37,2.05.2,3.69-.16,4.96-.89v.02s.04-.04.05-.04c.22-.13.42-.28.62-.44.1-.08.16-.12.28-.21,1.94-1.48,6.16-4.92,6.82-7.62.51-2,.29-6.55-2.13-11.54.45-.59.89-1.22,1.35-1.79.22-.27.46-.5.69-.76Z"/>
          <path class="cls-64" d="M257.33,20.43c-2.19,1.77-19.12,3.3-34.63,14.85-4.94,3.65-9.73,8.32-13.85,14.34-4.9,7.12-8.83,16.11-10.99,27.53-8.19,43.22-14.56,141.34-106.15,150.3-14.6,1.41-26.01.84-35.05-1.22-34.7-8.02-33.66-38.53-39.39-64.73-.94-4.31-2.07-8.52-3.57-12.49-1.88-4.97-4.35-9.56-7.8-13.56l56.93-15.59,51.47-14.09c-.33,13.65-.03,25.69,6.01,28.8,1.35.69,2.99.94,5,.65,2.4-.33,5.3-1.44,8.79-3.48,23.42-13.52,24.8-65.77,31.89-83.78.53-1.41,1.12-2.6,1.75-3.55,2.52-3.81,5.78-7.41,9.55-10.78,5.71-5.11,12.56-9.71,19.68-13.72,19.13-10.78,40.11-17.3,45.59-18.19,8.88-1.45,18.49,15.73,14.78,18.74Z"/>
          <g class="cls-8">
            <path class="cls-53" d="M138,129.74c17.23-15.34,21.67-39.03,25.06-43.65,3.38-4.62,4.13,40.16-4.59,67.5,0,0,5.61-42.55,3.63-51.7-1.97-9.15-11.9,20.71-24.1,27.85Z"/>
            <path class="cls-1" d="M129.28,137.5c17.31-4.3,19.12-12.54,22.84-12.6,3.72-.07,5.53,25.26-8.05,53.35-13.58,28.09-20.93,31.15-20.93,31.15,0,0,19.98-23.75,25.76-50.47,5.79-26.73,4.91-28.9,2.24-29.02-2.68-.12-19.29,8.02-21.86,7.59Z"/>
            <path class="cls-3" d="M161.3,69.2c11.82-28.71,19.89,1.92,23.23,19.82,3.36,17.91,1.13,29.72,1.13,29.72,0,0-.36-46.55-11.2-54.72-10.85-8.16-14.95,11.96-14.95,11.96l1.79-6.79Z"/>
            <path class="cls-4" d="M46.7,176.15c13.46,8.18,11.6,21.49,28.6,31.64,17.01,10.15,27.49-14.61,28.35-27.12,0,0-2.81,19.7-17.38,25.81-14.58,6.12-26.33-23.75-39.58-30.33Z"/>
            <path class="cls-2" d="M42.21,170.77c18.19,1.76,27.1,19.89,44.92,20.1,17.82.22,21.82-29.07,21.82-29.07,0,0-3.14,32.79-23.14,31.66-19.99-1.12-22.65-19.71-43.6-22.7Z"/>
          </g>
          <path class="cls-19" d="M222.71,35.27c-4.94,3.65-9.73,8.32-13.85,14.34-4.9,7.12-8.83,16.11-10.99,27.53-8.19,43.22-14.56,141.34-106.15,150.3-14.6,1.41-26.01.84-35.05-1.22-2.77-9.54-16.72-55.43-16.94-56.23.41.17,8.2,2.48,15.87,17.1,8.07,15.36,9.23,24.89,10.13,30.88.88,5.99,29.79.91,30.79-2.31.99-3.24-20.96-11.25-8.92-41.48,3.97-9.98,13.22-10.12,11.86-16.74,0,0-12.06,13.13-38.22,15.92-21.74,2.31-39.52-9.08-43.97-11.85-.94-4.31-2.07-8.52-3.57-12.49l49.13-29.15,51.47-14.09c-.33,13.65-.03,25.69,6.01,28.8,2.03.07,3.68.3,5,.65,12.89,3.34-4.85,18-4.85,18,0,0,6.84-.58,7.21,8.98.36,9.56-6.42,12.12-6.42,12.12,0,0-5.65-7.44-8.29-.67-2.63,6.79,15.89,22.35,41.81,1.99,25.94-20.36,21.39-95.53,30.7-110.29,7.72-12.28-9.54-22.39-19.48-17.4.53-1.41,1.12-2.6,1.75-3.55,2.52-3.81,5.78-7.41,9.55-10.78,5.71-5.11,12.56-9.71,19.68-13.72l23.42,2.1,2.32,13.29Z"/>
          <path class="cls-50" d="M118.48,124.06c-.51.75-1.07,1.47-1.63,2.18v.02h-.01s-.01.01-.03.06c-28.51,36.25-98.78,35.34-107.54,27.47-2.31-2.11-7.39-19.63-7.39-19.63,0,0,12.78,14.81,58.49,3.93,45.74-10.88,57.2-33.59,57.2-33.59,0,0,4.06,15.14.91,19.57Z"/>
          <path class="cls-55" d="M65.33,141.55c-29.05,6.16-60.48,4.21-63.46-7.4-.81-3.16.35-6.65,3.12-10.24h0c7.35-9.56,26.11-19.69,49.34-25.62,20.42-5.24,39.35-5.99,51.13-2.81,6.66,1.79,11.03,4.82,12.1,9,2.97,11.63-20.4,30.31-52.24,37.06Z"/>
          <path class="cls-54" d="M257.33,20.43c-2.89,2.33-31.38,4.26-48.48,29.19-1.07-.92-2.69-2.29-4.72-3.83-6.39-4.83-16.81-11.45-26.84-12.18C198.38,14.71,235.04,2.91,242.55,1.69c.25-.04.47-.06.71-.08h.02c8.66-.46,17.66,15.87,14.05,18.81Z"/>
          <path class="cls-18" d="M257.33,20.43c-2.89,2.33-31.38,4.26-48.48,29.19-1.07-.92-2.69-2.29-4.72-3.83.65-4.2,2.35-8.55,6.21-11.27,9.44-6.63,40.46-20.29,40.87-22.98.4-2.69-.35-6.55-7.93-9.91,8.66-.46,17.66,15.87,14.05,18.81Z"/>
          <path class="cls-5" d="M212.94,58.57c-.67,2.7-4.9,6.14-6.83,7.62-.58.43-.95.69-.95.69,0,0-1.69-19.85-10.11-25.7-8.43-5.83-32.22-1.71-32.22-1.71,0,0,3.14-6.22,9.68-8.16,2.38-.71,19.23-1.38,28.21,4.53,11.8,7.76,13.12,19.21,12.23,22.73Z"/>
          <path class="cls-58" d="M165.35,49.64s-3.47-6.3-2.53-10.17c.95-3.87,25.18-6.98,36.52,3.27,11.33,10.24,12.56,26.13.84,25.03l3.25-8.54s-.2-7.88-10.26-13.25c-10.05-5.36-21.11-4.27-23.55-3.64-2.44.64-4.27,7.3-4.27,7.3Z"/>
          <path class="cls-57" d="M185.46,65.34c-20.59,8.56-13.79,79.85-39.08,106.26-26.2,27.37-38.79,6.01-37.94-1.41.84-7.42,11.77-9.99,11.34,2.34,0,0,10.18-11.19.67-19.31-9.52-8.12-36.16,8.58-36.43,36.78-.03,2.64,3.06,10.35,3.95,12.59,9.99,17.95,54.13,17.79,77.34-19.79,25.26-40.89,8.76-86.02,23.14-117.58.15-.42-3.15.54-2.99.12Z"/>
          <path class="cls-52" d="M188.46,65.22c-5.75,15.13-4.57,35.41-5.36,57.14,0,0,0,.02,0,.05-.05,1.15-.09,2.3-.15,3.46,0,.02-.02.02,0,.04-.95,20.03-3.95,41.11-15.86,60.39-21.35,34.55-63.74,36.1-77.13,19.34-2.68-3.36-4.21-7.44-4.17-12.14,0-.73.03-1.45.08-2.16,0-.01,0-.06.01-.07,1.54-26.91,25.83-43.68,35.09-35.79,8.27,7.04,1.43,17.36-.51,19.96-.02.01,0,.01,0,.01-.02.02-.04.02-.04.02-.28.38-.45.58-.45.58.43-12.33-8.92-9.79-9.75-2.38-.78,6.83,12.49,21.73,35.02,2.76.12-.1.24-.2.36-.31.34-.32.67-.59.97-.84,1.54-1.37,3.13-2.9,4.75-4.6,15.78-16.47,18.32-50.09,22.96-75.14,2.81-15.12,6.41-27.11,14.16-30.32Z"/>
          <path class="cls-56" d="M19.04,165.22c5.25-5.29,27.37,9.67,34.74,36.28,7.37,26.62-1.69,26.63-1.69,26.63l4.24-3.03s12.82-11.31-5.31-42.37c-13.4-22.92-27.32-21.99-28.58-21.08-2.44,1.74-3.4,3.58-3.4,3.58Z"/>
          <path class="cls-63" d="M44.94,228.05c-3.91-.92-7.38-2.76-10.44-5.25-1.43-1.15-2.79-2.49-4.04-3.92-.02-.02-.02-.03-.04-.06-.13-.21-.27-.35-.42-.47-13.07-15.45-16.07-43.64-11.25-52.64,1.08-2.03,2.56-3.09,4.42-2.79,27.66,4.42,51.59,72.19,21.77,65.12Z"/>
          <path class="cls-61" d="M46.43,216.11s-.01.03-.01.03c-1.19,2.83-3.78,4.23-8.12,3.21-17.6-4.17-21.63-36.76-16.09-41.7.56-.5,1.21-.72,1.96-.6,13.94,2.22,26.41,29.2,22.26,39.05Z"/>
          <path class="cls-60" d="M46.43,216.11s-.01.03-.01.03c-1.45,1.43-3.68,1.98-6.84,1.22-16-3.79-20.81-31.09-17.37-39.71.56-.5,1.21-.72,1.96-.6,13.94,2.22,26.41,29.2,22.26,39.05Z"/>
          <path class="cls-34" d="M65.33,141.55c-29.05,6.16-60.48,4.21-63.46-7.4-.81-3.16.35-6.65,3.12-10.24-7.44,25.29,49.55,23.69,85.97,6.91,32.51-14.96,20.57-31,14.5-35.33,6.66,1.79,11.03,4.82,12.1,9,2.97,11.63-20.4,30.31-52.24,37.06Z"/>
          <path class="cls-21" d="M25.21,178.32c-4.88-1.11-4.51,18.98,1.86,25.53,6.37,6.54,16.29.93,17.09-1.32.8-2.26-9.74-22.11-18.95-24.21Z"/>
          <path class="cls-13" d="M212.94,58.57c-.67,2.7-4.9,6.14-6.83,7.62,1.16-3.02,4.82-15.68-9.76-25.67,3.48-.17,4.37-4.69,4.37-4.69,11.8,7.76,13.12,19.21,12.23,22.73Z"/>
          <path class="cls-35" d="M16.82,183.12c.5,1.98,1.67,6.19,1.67,6.19,0,0-.16-8.43,4.1-12.93,4.25-4.5,15.57,7.87,21.93,21.51,6.36,13.64,3,20.28,3,20.28,0,0,5.87,3.78,8.46,2.1,2.58-1.68.35-21.39-11.07-40.81-11.42-19.44-24.15-16.28-25.51-14.81-1.37,1.47-3.82,11.86-2.57,18.46Z"/>
          <path class="cls-36" d="M44.94,228.05c-3.91-.92-7.38-2.76-10.44-5.25,9.14,6.38,26.47,7.75,21.59-16.51-5.48-27.33-31.22-45.93-37.35-40.57,1.08-2.03,2.56-3.09,4.42-2.79,27.66,4.42,51.59,72.19,21.77,65.12Z"/>
          <path class="cls-37" d="M36.85,185.12c4.47,4.05,8.46-2.22,8.05-5.66,0,0,5.84,8.34,7.9,13.29,0,0-8.9-3.8-10.56,1.27,0,0-.96-3.77-5.39-8.9Z"/>
          <path class="cls-12" d="M30.42,218.83c-1.17-1.38.71-3.2.71-3.2,0,0,8.66,6.68,13.73,3.91,5.07-2.77,2.7-8.13,3.42-8.93.71-.81,8.22,3.25,8.22,3.25,0,0,.56,11.89-7.74,13.2-8.29,1.31-18.34-8.24-18.34-8.24Z"/>
          <path class="cls-10" d="M116.8,126.32c-28.51,36.25-98.78,35.34-107.54,27.47,33.46,10.53,77.8-7.42,77.8-7.42,0,0-.89-11.32-2.51-10.65,10.22-2.8,21.21-11.82,21.21-11.82,0,0-2.4,11.05.82,10.82,3.06-.24,9.61-7.73,10.22-8.4Z"/>
          <path class="cls-40" d="M27.41,144.79c3.35.71,4.55,12.3,4.55,12.3,0,0,3.64.89,9.71-.31,0,0-5.69-9.93-4.18-11.84,0,0-4.24.92-10.08-.15Z"/>
          <path class="cls-41" d="M23.44,143.22c22.57-.56,47.15-48.22,47.15-48.22,0,0,18.93-3.21,32.29-.54,0,0-12.16-.88-19.08,1.54-6.92,2.44-32.39,39.16-32.94,42.66-.55,3.5,4.9,4.61,4.9,4.61,0,0-22.9,3.41-32.32-.07Z"/>
          <path class="cls-31" d="M103.15,110.3h-.02c-2.83,8.05-19.02,17.57-39.91,22.8-2.64.65-5.23,1.23-7.79,1.68-17.65,3.3-32.77,2.09-38.4-2.91-1.09-.96-1.84-2.09-2.17-3.35-2.06-7.9,12.77-18.6,34-25.04,1.99-.61,4.04-1.19,6.16-1.72,24.45-6.14,46.11-4.08,48.38,4.58.33,1.25.23,2.58-.23,3.96Z"/>
          <path class="cls-59" d="M100.99,110.65h-.02c-2.69,7.67-18.08,16.71-37.94,21.67-2.51.63-4.98,1.18-7.41,1.61-16.79,3.14-31.15,1.99-36.51-2.77-1.04-.91-1.75-1.98-2.07-3.19-1.96-7.5,12.14-17.67,32.31-23.8,1.9-.58,3.86-1.13,5.86-1.63,23.25-5.83,43.83-3.89,46,4.35.32,1.19.22,2.46-.22,3.76Z"/>
          <path class="cls-62" d="M100.97,110.64c-2.7,7.67-18.08,16.71-37.94,21.68-19.86,4.99-37.8,4.29-43.93-1.17,2.7-7.67,18.08-16.71,37.94-21.69,19.86-4.98,37.8-4.27,43.93,1.18Z"/>
          <path class="cls-15" d="M94.83,107.6s-17.24-3.67-34.2,2.64c-16.63,6.22-5.46,23.05-5.02,23.69-16.79,3.14-31.15,1.99-36.51-2.77-1.04-.91-1.75-1.98-2.07-3.19-1.96-7.5,12.14-17.67,32.31-23.8-5.35,7.37,10.83,2.76,24.98,1.55,14.14-1.21,20.5,1.88,20.5,1.88Z"/>
          <path class="cls-47" d="M29.44,143.74c6.45-6.01,17.5-3,18.65-1.29,1.15,1.71-12.57,3.23-18.65,1.29Z"/>
          <path class="cls-24" d="M81.14,99.18c2.88-.12,2,6.32,2,6.32l9.29,1.27s-2.34-5.58.82-6.02c0,0-7.87-1.76-12.12-1.57Z"/>
          <path class="cls-17" d="M77.01,94.54c-4.52.85-4.04,3.06-4.04,3.06,0,0,22.57-1.75,28.42,5.82,5.85,7.57-6.05,16.48-8.11,17.9-2.07,1.41,5.67,2.84,5.67,2.84,0,0,18.53-7.21,16.72-19.71-1.81-12.51-38.66-9.89-38.66-9.89Z"/>
          <path class="cls-11" d="M145.6,176.12c-.12.11-.24.21-.38.34l.02-.04c.12-.1.24-.2.36-.31Z"/>
          <path class="cls-9" d="M182.96,125.9c-.95,20.03-3.95,41.11-15.86,60.39-25.61,41.46-81.57,35.38-81.3,7.19,0-.73.03-1.45.08-2.16.45,16.92,18.54,28.49,44.4,22.04,26.29-6.58,28.26-47.36,16.3-38.09,1.54-1.37,3.13-2.9,4.75-4.6,15.78-16.47,18.32-50.09,22.96-75.14,0,0,7.24-31.4,14.16-30.32-6.09,15.03-5.94,63.46-5.5,60.69Z"/>
          <path class="cls-6" d="M172.69,141.38c0,.07,1.54,40.79-24.33,59.21-14.09,10.02-26.7,10.52-35.09,6.05-7.42-3.93-11.54-11.73-10.44-20.23.08-.66.2-1.33.34-1.99,2.75,3.47,5.86,6.02,9.19,7.74,18.14,9.39,43.24-5.56,54.94-32.57,2.44-5.59,4.29-11.68,5.38-18.21Z"/>
          <path class="cls-51" d="M167.3,159.58c-.15.73-.3,1.47-.47,2.21-.03.16-.06.34-.1.52-.04.08-.05.16-.07.25-2.82,12.49-8.9,27.3-21.86,36.51-12.23,8.72-23.34,10.23-31.55,7.59-2.81-1.49-5.19-3.57-7-6.12-2.97-4.2-4.3-9.73-3.1-16.12,2.92,2.73,5.79,6.62,9.19,7.74,17.62,9.12,41.81-4.72,53.9-30.27.36-.76.7-1.52,1.04-2.3Z"/>
          <path class="cls-7" d="M166.86,161.79s-.05.19-.12.52c-.04.08-.05.16-.07.25-1.23,4.7-8.42,29.8-24.09,35.07-17.3,5.84-35.58-.98-36.32,2.91-2.97-4.2-4.3-9.73-3.1-16.12,2.92,2.73,5.79,6.62,9.19,7.74,17.62,9.12,41.81-4.72,53.9-30.27l.58-.1h.02Z"/>
          <path class="cls-25" d="M163.72,131.87c2.58-4.27,4.48-1.07,4.48-1.07,0,0,4.08-18.8,4.52-26.16.44-7.35-2.29-4.26-2.29-4.26,0,0-6.43,27.97-6.72,31.49Z"/>
          <path class="cls-26" d="M92.12,165.2c3.1-3.07,3.17.74,3.17.74,0,0,5.05-7.21,12.51-10.53,0,0-3.32-.96-.54-2.71,0,0-9.34,3.6-15.14,12.5Z"/>
          <path class="cls-28" d="M120.43,175.46s.02-.02.04-.03c-.02.01,0,.01,0,.01-.02.02-.04.02-.04.02Z"/>
          <path class="cls-29" d="M120.47,175.43c8.35-12.15,3-28.67-17.14-16.19-18.53,11.49-18.14,36.17-10.76,47.51l-2.6-1.12c-2.68-3.36-4.21-7.44-4.17-12.14,0-.73.03-1.45.08-2.16,0-.01,0-.06.01-.07,1.54-26.91,25.83-43.68,35.09-35.79,8.27,7.04,1.43,17.36-.51,19.96Z"/>
          <path class="cls-14" d="M93.17,171.12c11.27-11.11,16.31,4.52,16.31,4.52,0,0,1.05-7.51,5.02-8.5,3.97-.97,5.59,3.68,5.59,3.68,0,0,5.18-7.31,1.96-13.09-3.23-5.77-20.01-2.35-28.87,13.39Z"/>
          <path class="cls-30" d="M113.06,180.71s4.55,6.38,17.67,2.69c13.12-3.69,19.95-12.05,19.95-12.05,0,0-9.47,12.24-21.19,14.25-11.73,2.01-16.24-4.18-16.44-4.89Z"/>
          <path class="cls-39" d="M112.51,205.83c-5.25-6.26,1.15-9.28,1.15-9.28,0,0,14.19,3.69,25.15-.96,10.97-4.63,13.5-8.29,13.5-8.29,0,0-7.6,13.96-20.8,17.97-13.2,4.02-19.01.57-19.01.57Z"/>
          <path class="cls-42" d="M39.59,216.83c-13.02-5.73-10-17.2-6.01-20.47,4-3.27,14.39,6.57,12.17,15.56-2.22,8.99-6.16,4.91-6.16,4.91Z"/>
          <path class="cls-48" d="M125.11,185.99c-.29-.66,3.87-2.6,6.36-2.8,2.5-.21,2.75.91,2.75.91,0,0-4.52,2.41-9.11,1.9Z"/>
          <path class="cls-48" d="M127.54,208.87c-2.19-.58,2.25-2.6,5.23-2.92,2.98-.32,1.37,1.76,1.37,1.76,0,0-1.71,1.15-6.6,1.16Z"/>
          <path class="cls-48" d="M103.16,154.86c-1.87,1.68.69,3.09,4.13,1.45l3.45-1.63s-.68-2.31-1.77-2.6c-1.1-.3-5.81,2.78-5.81,2.78Z"/>
          <path class="cls-48" d="M32.2,163.26c-2.54.09-1.93,2.17-1.93,2.17,0,0,5.42,3.11,8.21,6.22l1.28-3.24s-4.8-4.04-7.56-5.15Z"/>
          <path class="cls-48" d="M169.68,100.97c-.19,2.73,3.53.78,3.53.78,0,0,1.19-7,1.27-9.51.07-2.5-3.17.75-3.17.75l-1.63,7.99Z"/>
          <path class="cls-48" d="M33.83,215.43c-2.69.19,1.87,3.59,4.46,3.92,2.59.33,2.31-1.55,2.31-1.55,0,0-3,0-6.77-2.37Z"/>
          <path class="cls-44" d="M184.72,28.97c-4.24,1.92,14.19,1.87,18.99,5.8,4.79,3.91,37.21-17.35,44.26-20.78,7.04-3.44-1.3-11.76-1.3-11.76,0,0-32.41,6.76-61.95,26.74Z"/>
          <path class="cls-44" d="M187.87,27.29c-5.24,3.7,12.02,5.19,14.29,7.54,2.27,2.35,18.78-11.3,36.37-18.64,17.59-7.36,4.02-14.5,4.02-14.5,0,0-35.3,8.5-54.68,25.6Z"/>
          <path class="cls-27" d="M188.61,37.26c2.97-.27,3.08-5,3.08-5,0,0,7.53.84,9.02,3.58,1.5,2.76-2.75,5.47-2.75,5.47,0,0-4.68-3.09-9.36-4.05Z"/>
          <path class="cls-16" d="M167.59,46.37c2.97-7.35,25.64-3.13,30.65,4.84,5,7.99,1.94,16.56,1.94,16.56,0,0,4.57-3.34,3.63-10.43-.93-7.08-9.45-14.38-22.43-16.17-12.89-1.78-15.7.7-15.4,6.76l1.61-1.56Z"/>
          <path class="cls-45" d="M125.84,147.87c-2.29,2.79,3.32,6.9,3.7,16.86.38,9.94-8.92,11.42-8.9,14.75.01,3.34,22.91-3.35,26.9-21.35,4-17.99,4.72-23.37,1.69-25.14-3.04-1.78-18.15,4.92-18.15,4.92l-5.24,9.96Z"/>
          <path class="cls-45" d="M129.86,135.17c-1.82,1.96,11.66-.78,17.03-8.99,5.36-8.22,9.77-.7,8.92,9.34-.84,10.05-2.57,18.91-2.57,18.91,0,0,8.9-17.81,8.29-38.15-.6-20.35-6.97-4.92-11.79,2.95-4.82,7.86-19.87,15.95-19.87,15.95Z"/>
          <path class="cls-45" d="M151.49,108.11c-.08,1.03,7.62-11.78,9.89-22.38,2.27-10.6,7.26,6.41,7.24,10.41-.02,4.01,5.97-18.51,6.84-26.3.88-7.8-10.38-9.62-13.84.36-3.46,9.98-4.15,26.12-10.13,37.92Z"/>
          <path class="cls-45" d="M56.09,174.95s16.35,12.99,23.17,12.4c6.82-.59,5.55-19.41,5.55-19.41,0,0-16.68,7.64-28.72,7.01Z"/>
          <path class="cls-45" d="M53.52,177.76c-2.14.79,13.24,23.4,22.68,25.72,9.44,2.31,6.43-10.98,6.43-10.98,0,0-14.65-7.63-21.86-12.84-7.2-5.21-7.24-1.9-7.24-1.9Z"/>
          <path class="cls-20" d="M16.83,159.54c3.11-2.62,35.05,5.72,62.75,1.25,27.7-4.48,35.49-32.38,35.49-32.38,0,0-15.85,17.52-42.61,25.3-26.76,7.78-56.38,2.85-56.38,2.85l.74,2.99Z"/>
          <path class="cls-23" d="M247.39,3.93c5.08,5.55-17.79,16.6-29.97,23.5-12.16,6.89-15.7,8.39-15.7,8.39l2.12,2.37s6.29-4.97,24.51-15.34c18.22-10.38,21.87-8.68,23.78-11.17,1.91-2.49-4.74-7.73-4.74-7.73Z"/>
          <path class="cls-33" d="M28.04,182.19c-7.9,1.03.82,9.9,3.79,9.01,2.97-.9,2.12-9.79-3.79-9.01Z"/>
          <path class="cls-32" d="M153.14,183.65c.41,3.3,4.23-.28,4.26-2.73.04-2.46-4.64-.3-4.26,2.73Z"/>
          <path class="cls-45" d="M57.35,111.81c-2.28,4.34-.26,14.93,1.68,17.71,1.94,2.76,31-5.69,35.7-13.89,4.7-8.19-18.33-10.63-37.38-3.82Z"/>
          <path class="cls-47" d="M105.7,157.37c.16-2.34,2.92-3.61,3.96-2.49,1.04,1.13-3.96,2.49-3.96,2.49Z"/>
          <path class="cls-38" d="M82.48,106.54c4.11-.22,5.05,15.92,5.05,15.92,0,0,.64-11.75,1.72-13.63l1.07-1.88-7.84-.4Z"/>
          <path class="cls-46" d="M82.19,99.04c1.73.21,2.45,1.45,5.07,2.52,2.64,1.07,4.37-1.52,4.37-1.52,0,0-1.96-2.49-9.45-1Z"/>
          <path class="cls-49" d="M243.34,1.62c.16,0,.32.03.48.03.24,0,.49.01.73.04.31.04.62.11.92.18.24.06.48.12.72.2.16.05.32.1.48.16h.03c.14.08.27.15.41.21.23.11.47.21.7.33.3.17.6.35.9.55.23.14.45.28.66.43.3.22.59.46.89.7.21.17.42.33.62.52.29.26.56.53.84.81.19.2.38.38.57.58.27.29.53.6.79.91.17.21.35.41.51.62.25.33.49.66.73.99.15.21.31.42.46.64.23.34.43.69.63,1.02.14.22.28.44.41.67.19.34.36.67.54,1.01.12.23.23.45.34.68.16.33.28.63.41.95.1.23.2.47.28.69.11.3.19.58.28.88.06.23.15.45.2.67.08.27.1.52.15.78.03.2.09.42.11.62.02.23.01.45.01.67,0,.19.01.38,0,.55-.03.22-.1.4-.15.59-.04.13-.05.28-.1.4-.14.28-.31.52-.54.71-.17.13-.45.27-.77.41-.08.04-.19.07-.29.11-.29.11-.64.23-1.04.35-.09.02-.17.05-.25.08-1.28.37-2.98.81-5,1.37-.25.07-.51.13-.76.21-.49.13-.99.28-1.51.43-.43.13-.89.26-1.33.39-.47.15-.92.28-1.4.43-.84.27-1.72.57-2.63.88-.42.15-.87.32-1.3.48-.59.21-1.19.45-1.8.68-.49.19-.98.39-1.48.59-.62.26-1.26.54-1.89.82-.48.22-.96.42-1.44.65-1.02.47-2.04.99-3.08,1.53-.51.27-1.04.58-1.55.87-.6.34-1.21.69-1.82,1.06-.58.34-1.16.71-1.74,1.08-.56.35-1.11.74-1.67,1.13-.6.41-1.2.81-1.79,1.25-.23.18-.47.38-.71.56-.96.73-1.92,1.48-2.86,2.29-.71.61-1.39,1.28-2.08,1.93-.49.48-1,.91-1.5,1.4-.95.97-1.87,2.01-2.79,3.07-.23.27-.46.5-.69.78-.47.55-.9,1.19-1.35,1.78,2.43,4.99,2.64,9.54,2.14,11.54-.67,2.7-4.9,6.14-6.83,7.62-.12.09-.18.14-.27.21-.21.16-.41.32-.62.44-.01,0-.05.04-.05.04h0c-1.04.58-2.32.93-3.88.93-.34,0-.7-.02-1.07-.05-.91,2.93-1.71,6.03-2.34,9.37-3.88,20.47-7.37,53.25-19.68,83.04-2.37,8.89-5.88,17.67-11.09,26.11-.74,1.2-1.51,2.35-2.3,3.47-.26.36-.53.71-.79,1.06-.55.75-1.11,1.48-1.67,2.19-.32.38-.63.76-.95,1.15-.55.66-1.1,1.29-1.68,1.92-.32.36-.64.71-.96,1.06-.62.65-1.25,1.28-1.89,1.89-.28.27-.56.55-.84.81-1.86,1.75-3.78,3.32-5.75,4.76-.28.21-.57.41-.87.6-.71.49-1.43.98-2.16,1.45-.34.21-.67.43-1.02.64-.7.43-1.4.84-2.11,1.25-.33.17-.67.36-1,.54-.78.43-1.56.81-2.35,1.19-.25.12-.5.25-.75.37-.13.06-.25.12-.38.19-12.65,8.68-28.33,14.71-47.93,16.61-5.45.52-10.46.8-15.07.8-7.72,0-14.32-.71-19.98-2.02-.37-.09-.71-.19-1.07-.27-.45.47-.95.89-1.5,1.25-1.04.92-2,.93-2,.93h0c-.95.28-1.99.44-3.16.44s-2.53-.16-4-.51c-3.91-.92-7.38-2.76-10.44-5.25-1.43-1.15-2.79-2.49-4.04-3.92-.02-.02-.02-.03-.04-.06-.13-.21-.27-.35-.42-.47-7.95-9.41-12.15-23.49-13.16-35.13,0-.03-.02-.07-.03-.1-.43-2.26-.42-4.97-.17-7.6.16-3.58.75-6.59,1.68-8.79-.33-1.76-.68-3.5-1.06-5.23-.36-1.67-.79-3.32-1.22-4.96-3.23-.73-5.59-1.68-6.79-2.74-2.31-2.11-7.39-19.63-7.39-19.63-.81-3.16.35-6.65,3.12-10.24h0c7.35-9.56,26.11-19.69,49.34-25.62,5.57-1.43,11.01-2.5,16.25-3.27v-.03s9.45-1.61,19.7-1.61c4.26,0,8.67.28,12.6,1.07,0,0-1.39-.1-3.47-.14,2.16.3,4.21.67,6.05,1.16,6.66,1.79,11.03,4.82,12.1,9,0,0,4.06,15.14.91,19.57-.51.75-1.07,1.47-1.63,2.18v.02h-.01s-.01.01-.03.06c-.36.46-.77.89-1.15,1.35.93,3.3,2.38,5.72,4.65,6.89,2.03.07,3.68.3,5,.65,2.4-.33,5.3-1.44,8.79-3.48,23.42-13.52,24.8-65.77,31.89-83.78v-.21c-.4,1.08-.63,1.92-.63,1.92,0,0-3.47-6.3-2.53-10.17h0,0s3.14-6.22,9.68-8.16c.77-.23,3.05-.45,6.08-.45.61,0,1.24.01,1.9.03.39-.32.78-.64,1.18-.94.11-.09.22-.17.33-.25,1.43-1.12,2.9-2.19,4.42-3.24.15-.11.31-.21.47-.32,1.5-1.03,3.03-2.03,4.59-3,.16-.1.31-.19.46-.28,1.59-.99,3.21-1.94,4.84-2.86.06-.03.12-.07.19-.11.06-.04.14-.07.21-.12,1.11-.62,2.22-1.23,3.34-1.83.07-.04.14-.07.21-.12,1.04-.54,2.08-1.07,3.11-1.59.22-.11.44-.22.66-.33,2.21-1.11,4.41-2.15,6.58-3.13.21-.1.42-.2.63-.29,2.19-.99,4.35-1.91,6.44-2.76.15-.06.31-.12.47-.19,2.13-.87,4.21-1.68,6.19-2.41.07-.03.14-.06.21-.08,5.13-1.89,9.6-3.32,12.91-4.23.02,0,.05-.02.08-.02,1.26-.35,2.35-.62,3.23-.82.08-.01.16-.03.23-.05.41-.09.79-.16,1.1-.22.25-.04.47-.06.71-.08h.08ZM243.34,0h-.14c-.3.01-.6.04-.93.1-.31.05-.71.13-1.15.23l-.24.04c-.91.21-2.03.48-3.32.84-3.82,1.06-8.44,2.58-13.11,4.3l-.21.08c-1.99.74-4.08,1.55-6.23,2.43l-.47.2c-2.18.88-4.36,1.83-6.49,2.78l-.64.29c-2.25,1.02-4.48,2.08-6.64,3.15l-.5.26-.17.08c-1.04.53-2.09,1.06-3.14,1.62,0,0-.21.11-.21.11-1.13.6-2.25,1.22-3.37,1.84l-.22.11s-.12.08-.14.09c-1.72.97-3.36,1.95-4.94,2.92l-.46.29c-1.59.99-3.16,2-4.65,3.03l-.14.11-.33.22c-1.54,1.08-3.06,2.19-4.48,3.3l-.14.1-.2.15c-.25.19-.5.39-.74.59-.46-.02-.91-.02-1.35-.02-2.91,0-5.48.2-6.54.51-7.12,2.11-10.52,8.69-10.66,8.98-.07.13-.12.27-.14.42-.87,3.72,1.45,8.8,2.37,10.63-1.72,5.32-3.11,12.57-4.69,20.77-4.34,22.54-9.74,50.58-25.63,59.76-3.07,1.78-5.73,2.88-7.92,3.25-1.29-.32-2.81-.52-4.62-.61-1.42-.85-2.51-2.46-3.29-4.91.21-.24.41-.48.6-.73.01,0,.01-.02.02-.02.05-.05.08-.1.12-.16.55-.7,1.09-1.41,1.6-2.14,3.48-4.91-.25-19.3-.69-20.92-1.18-4.62-5.77-8.13-13.24-10.14-.54-.14-1.09-.28-1.7-.41-.23-.32-.58-.56-.99-.64-3.63-.72-7.97-1.08-12.91-1.08-10.26,0-19.57,1.56-19.96,1.62-.08.01-.16.03-.24.05-5.45.82-10.89,1.91-16.15,3.26-23.08,5.9-42.32,15.94-50.22,26.18-.03.05-.08.11-.11.17-3.1,4.05-4.2,7.91-3.3,11.47,1.24,4.27,5.4,18.2,7.87,20.43,1.27,1.14,3.47,2.11,6.56,2.9.33,1.27.67,2.6.96,3.96.34,1.56.66,3.14.96,4.71-.91,2.36-1.46,5.34-1.62,8.89-.29,3.05-.22,5.76.2,7.98,0,0,0,.04.01.06,1.23,13.93,6.28,27.34,13.52,35.91.06.07.14.14.21.21.05.06.11.16.19.23.02.04.05.08.08.11h0c1.34,1.54,2.77,2.92,4.24,4.11,3.38,2.75,7.11,4.63,11.08,5.59,1.55.36,3.01.54,4.37.54,1.23,0,2.38-.16,3.44-.46.5-.05,1.57-.29,2.68-1.23.35-.23.68-.47,1-.75.09,0,.17.03.25.06,5.92,1.35,12.77,2.04,20.34,2.04,4.71,0,9.83-.27,15.22-.78,18.57-1.82,34.92-7.48,48.58-16.83l.1-.05.14-.07.49-.23.29-.14c.81-.38,1.61-.8,2.42-1.22.29-.18.6-.34.9-.49.84-.48,1.57-.9,2.29-1.35.35-.21.7-.43,1.05-.65.74-.48,1.48-.99,2.21-1.5l.31-.22c.19-.12.38-.26.57-.4,2.05-1.49,4.03-3.14,5.9-4.87.19-.18.38-.36.56-.55l.3-.3c.64-.62,1.29-1.28,1.93-1.94.33-.34.67-.71,1-1.08.58-.64,1.15-1.28,1.72-1.97.32-.39.65-.77.96-1.17.58-.72,1.15-1.48,1.71-2.24l.27-.37c.19-.23.36-.47.54-.72.89-1.27,1.65-2.42,2.35-3.56,4.95-8.02,8.63-16.67,11.25-26.43,9.8-23.78,13.96-48.95,17.3-69.18.84-5.08,1.63-9.88,2.42-14.08.51-2.71,1.15-5.34,1.94-8.01,1.65-.02,3.12-.37,4.39-1.06.11-.04.22-.1.32-.17.23-.13.47-.32.72-.51l.26-.19c4.37-3.35,6.87-6.21,7.45-8.54.62-2.48.27-6.98-1.84-11.74.23-.33.47-.64.72-.94.1-.13.21-.24.32-.36.12-.12.24-.25.36-.38.79-.92,1.73-2,2.71-2.99.3-.3.6-.57.9-.85l.55-.5.44-.42c.53-.49,1.05-1,1.59-1.47,1-.85,2.01-1.64,2.78-2.23l.36-.27c.12-.1.23-.19.35-.28.47-.34.93-.67,1.4-.99l.34-.23c.54-.38,1.08-.75,1.63-1.1.57-.36,1.13-.72,1.7-1.06.6-.36,1.19-.7,1.78-1.03l.44-.25c.36-.2.72-.41,1.08-.59,1.01-.54,2.01-1.04,3-1.51.33-.15.65-.29.97-.43l.44-.19c.62-.28,1.24-.56,1.85-.81.49-.2.97-.39,1.45-.58.6-.23,1.18-.46,1.76-.67l.37-.13c.31-.12.61-.23.91-.34.88-.31,1.75-.6,2.59-.86.37-.11.73-.23,1.08-.33l.29-.09.27-.08,1.04-.32c.51-.14,1.02-.28,1.5-.42l.76-.21,2.08-.56c1.14-.31,2.13-.57,2.95-.81l.18-.06c.52-.16.91-.29,1.23-.41l.34-.12c.54-.23.89-.42,1.17-.64.42-.34.75-.79.98-1.29.11-.25.16-.46.19-.6.11-.37.18-.61.21-.89.02-.19.02-.39.01-.59v-.28c0-.22,0-.44-.02-.69-.02-.18-.05-.37-.09-.56l-.03-.17-.04-.16c-.03-.24-.08-.48-.14-.73-.03-.17-.1-.35-.15-.54l-.07-.21-.05-.17c-.08-.26-.17-.52-.26-.79-.07-.17-.14-.36-.22-.53l-.09-.22c-.17-.43-.29-.72-.43-1.02-.08-.17-.17-.34-.26-.52l-.11-.21c-.21-.42-.38-.74-.56-1.07-.1-.17-.2-.34-.3-.49l-.12-.21c-.24-.39-.45-.73-.67-1.07-.12-.17-.23-.34-.36-.5l-.14-.19c-.25-.36-.49-.71-.76-1.04-.14-.17-.27-.33-.41-.5l-.14-.18c-.28-.33-.55-.66-.84-.96-.15-.16-.31-.33-.47-.48l-.14-.14c-.3-.31-.6-.6-.91-.88-.18-.17-.36-.31-.54-.46l-.12-.11c-.32-.26-.64-.53-.97-.76-.21-.15-.42-.28-.63-.42-.44-.27-.77-.48-1.11-.67-.24-.14-.49-.25-.73-.36l-.16-.07c-.08-.04-.16-.09-.25-.12-.08-.04-.15-.07-.24-.1-.11-.04-.22-.09-.33-.11-.43-.14-.7-.22-.99-.29-.37-.09-.73-.17-1.1-.22-.3-.03-.6-.05-.89-.06-.23-.02-.38-.03-.52-.03h0Z"/>
        </g>
      </g>
    </g>
  </g>
</svg>