<?xml version="1.0" encoding="UTF-8"?>
<svg id="Layer_2" data-name="Layer 2" xmlns="http://www.w3.org/2000/svg" xmlns:xlink="http://www.w3.org/1999/xlink" viewBox="0 0 164.54 249.49">
  <defs>
    <style>
      .cls-1 {
        fill: url(#_ÂÁ_Ï_ÌÌ_È_ËÂÌÚ_2172-9);
      }

      .cls-2 {
        fill: url(#_ÂÁ_Ï_ÌÌ_È_ËÂÌÚ_2172-2);
      }

      .cls-3 {
        fill: url(#_ÂÁ_Ï_ÌÌ_È_ËÂÌÚ_2172-6);
      }

      .cls-4 {
        fill: url(#_ÂÁ_Ï_ÌÌ_È_ËÂÌÚ_2172-4);
      }

      .cls-5 {
        fill: url(#_ÂÁ_Ï_ÌÌ_È_ËÂÌÚ_2172-5);
      }

      .cls-6 {
        fill: url(#_ÂÁ_Ï_ÌÌ_È_ËÂÌÚ_2172-7);
      }

      .cls-7 {
        fill: url(#_ÂÁ_Ï_ÌÌ_È_ËÂÌÚ_2172-8);
      }

      .cls-8 {
        fill: url(#_ÂÁ_Ï_ÌÌ_È_ËÂÌÚ_2172-3);
      }

      .cls-9 {
        fill: url(#_ÂÁ_Ï_ÌÌ_È_ËÂÌÚ_2381-2);
      }

      .cls-10 {
        fill: url(#_ÂÁ_Ï_ÌÌ_È_ËÂÌÚ_2381-3);
      }

      .cls-11 {
        fill: url(#_ÂÁ_Ï_ÌÌ_È_ËÂÌÚ_2381-5);
      }

      .cls-12 {
        fill: url(#_ÂÁ_Ï_ÌÌ_È_ËÂÌÚ_2381-6);
      }

      .cls-13 {
        fill: url(#_ÂÁ_Ï_ÌÌ_È_ËÂÌÚ_2381-7);
      }

      .cls-14 {
        fill: url(#_ÂÁ_Ï_ÌÌ_È_ËÂÌÚ_2381-4);
      }

      .cls-15 {
        fill: url(#_ÂÁ_Ï_ÌÌ_È_ËÂÌÚ_2381-9);
      }

      .cls-16 {
        fill: url(#_ÂÁ_Ï_ÌÌ_È_ËÂÌÚ_2381-8);
      }

      .cls-17 {
        fill: url(#_ÂÁ_Ï_ÌÌ_È_ËÂÌÚ_2381-10);
      }

      .cls-18 {
        fill: url(#_ÂÁ_Ï_ÌÌ_È_ËÂÌÚ_2172-13);
      }

      .cls-19 {
        fill: url(#_ÂÁ_Ï_ÌÌ_È_ËÂÌÚ_2172-18);
      }

      .cls-20 {
        fill: url(#_ÂÁ_Ï_ÌÌ_È_ËÂÌÚ_2172-15);
      }

      .cls-21 {
        fill: url(#_ÂÁ_Ï_ÌÌ_È_ËÂÌÚ_2172-16);
      }

      .cls-22 {
        fill: url(#_ÂÁ_Ï_ÌÌ_È_ËÂÌÚ_2172-12);
      }

      .cls-23 {
        fill: url(#_ÂÁ_Ï_ÌÌ_È_ËÂÌÚ_2172-17);
      }

      .cls-24 {
        fill: url(#_ÂÁ_Ï_ÌÌ_È_ËÂÌÚ_2172-14);
      }

      .cls-25 {
        fill: url(#_ÂÁ_Ï_ÌÌ_È_ËÂÌÚ_2172-11);
      }

      .cls-26 {
        fill: url(#_ÂÁ_Ï_ÌÌ_È_ËÂÌÚ_2172-10);
      }

      .cls-27 {
        fill: url(#_ÂÁ_Ï_ÌÌ_È_ËÂÌÚ_2172);
      }

      .cls-28 {
        fill: url(#_ÂÁ_Ï_ÌÌ_È_ËÂÌÚ_2381);
      }

      .cls-29 {
        fill: url(#_ÂÁ_Ï_ÌÌ_È_ËÂÌÚ_2500);
      }

      .cls-30 {
        fill: url(#_ÂÁ_Ï_ÌÌ_È_ËÂÌÚ_2587);
      }
    </style>
    <linearGradient id="_ÂÁ_Ï_ÌÌ_È_ËÂÌÚ_2172" data-name="¡ÂÁ˚ÏˇÌÌ˚È „‡‰ËÂÌÚ 2172" x1="82.27" y1="242.86" x2="82.27" y2="10.81" gradientTransform="translate(0 3.4)" gradientUnits="userSpaceOnUse">
      <stop offset="0" stop-color="#6e0a0e"/>
      <stop offset="1" stop-color="#680945"/>
    </linearGradient>
    <linearGradient id="_ÂÁ_Ï_ÌÌ_È_ËÂÌÚ_2172-2" data-name="¡ÂÁ˚ÏˇÌÌ˚È „‡‰ËÂÌÚ 2172" y1="242.41" y2="10.35" gradientTransform="translate(0 3.2)" xlink:href="#_ÂÁ_Ï_ÌÌ_È_ËÂÌÚ_2172"/>
    <linearGradient id="_ÂÁ_Ï_ÌÌ_È_ËÂÌÚ_2172-3" data-name="¡ÂÁ˚ÏˇÌÌ˚È „‡‰ËÂÌÚ 2172" y1="241.98" y2="9.92" gradientTransform="translate(0 3)" xlink:href="#_ÂÁ_Ï_ÌÌ_È_ËÂÌÚ_2172"/>
    <linearGradient id="_ÂÁ_Ï_ÌÌ_È_ËÂÌÚ_2172-4" data-name="¡ÂÁ˚ÏˇÌÌ˚È „‡‰ËÂÌÚ 2172" y1="241.52" y2="9.46" gradientTransform="translate(0 2.8)" xlink:href="#_ÂÁ_Ï_ÌÌ_È_ËÂÌÚ_2172"/>
    <linearGradient id="_ÂÁ_Ï_ÌÌ_È_ËÂÌÚ_2172-5" data-name="¡ÂÁ˚ÏˇÌÌ˚È „‡‰ËÂÌÚ 2172" y1="241.07" y2="9.02" gradientTransform="translate(0 2.6)" xlink:href="#_ÂÁ_Ï_ÌÌ_È_ËÂÌÚ_2172"/>
    <linearGradient id="_ÂÁ_Ï_ÌÌ_È_ËÂÌÚ_2172-6" data-name="¡ÂÁ˚ÏˇÌÌ˚È „‡‰ËÂÌÚ 2172" y1="240.64" y2="8.57" gradientTransform="translate(0 2.4)" xlink:href="#_ÂÁ_Ï_ÌÌ_È_ËÂÌÚ_2172"/>
    <linearGradient id="_ÂÁ_Ï_ÌÌ_È_ËÂÌÚ_2172-7" data-name="¡ÂÁ˚ÏˇÌÌ˚È „‡‰ËÂÌÚ 2172" y1="240.2" y2="8.13" gradientTransform="translate(0 2.2)" xlink:href="#_ÂÁ_Ï_ÌÌ_È_ËÂÌÚ_2172"/>
    <linearGradient id="_ÂÁ_Ï_ÌÌ_È_ËÂÌÚ_2172-8" data-name="¡ÂÁ˚ÏˇÌÌ˚È „‡‰ËÂÌÚ 2172" y1="239.74" y2="7.68" gradientTransform="translate(0 2)" xlink:href="#_ÂÁ_Ï_ÌÌ_È_ËÂÌÚ_2172"/>
    <linearGradient id="_ÂÁ_Ï_ÌÌ_È_ËÂÌÚ_2172-9" data-name="¡ÂÁ˚ÏˇÌÌ˚È „‡‰ËÂÌÚ 2172" y1="239.29" y2="7.22" gradientTransform="translate(0 1.8)" xlink:href="#_ÂÁ_Ï_ÌÌ_È_ËÂÌÚ_2172"/>
    <linearGradient id="_ÂÁ_Ï_ÌÌ_È_ËÂÌÚ_2172-10" data-name="¡ÂÁ˚ÏˇÌÌ˚È „‡‰ËÂÌÚ 2172" y1="238.85" y2="6.78" gradientTransform="translate(0 1.6)" xlink:href="#_ÂÁ_Ï_ÌÌ_È_ËÂÌÚ_2172"/>
    <linearGradient id="_ÂÁ_Ï_ÌÌ_È_ËÂÌÚ_2172-11" data-name="¡ÂÁ˚ÏˇÌÌ˚È „‡‰ËÂÌÚ 2172" y1="238.4" y2="6.35" gradientTransform="translate(0 1.4)" xlink:href="#_ÂÁ_Ï_ÌÌ_È_ËÂÌÚ_2172"/>
    <linearGradient id="_ÂÁ_Ï_ÌÌ_È_ËÂÌÚ_2172-12" data-name="¡ÂÁ˚ÏˇÌÌ˚È „‡‰ËÂÌÚ 2172" y1="237.96" y2="5.9" gradientTransform="translate(0 1.2)" xlink:href="#_ÂÁ_Ï_ÌÌ_È_ËÂÌÚ_2172"/>
    <linearGradient id="_ÂÁ_Ï_ÌÌ_È_ËÂÌÚ_2172-13" data-name="¡ÂÁ˚ÏˇÌÌ˚È „‡‰ËÂÌÚ 2172" y1="237.51" y2="5.45" gradientTransform="translate(0 1)" xlink:href="#_ÂÁ_Ï_ÌÌ_È_ËÂÌÚ_2172"/>
    <linearGradient id="_ÂÁ_Ï_ÌÌ_È_ËÂÌÚ_2172-14" data-name="¡ÂÁ˚ÏˇÌÌ˚È „‡‰ËÂÌÚ 2172" y1="237.06" y2="5.01" gradientTransform="translate(0 .8)" xlink:href="#_ÂÁ_Ï_ÌÌ_È_ËÂÌÚ_2172"/>
    <linearGradient id="_ÂÁ_Ï_ÌÌ_È_ËÂÌÚ_2172-15" data-name="¡ÂÁ˚ÏˇÌÌ˚È „‡‰ËÂÌÚ 2172" y1="236.62" y2="4.56" gradientTransform="translate(0 .6)" xlink:href="#_ÂÁ_Ï_ÌÌ_È_ËÂÌÚ_2172"/>
    <linearGradient id="_ÂÁ_Ï_ÌÌ_È_ËÂÌÚ_2172-16" data-name="¡ÂÁ˚ÏˇÌÌ˚È „‡‰ËÂÌÚ 2172" y1="236.17" y2="4.12" gradientTransform="translate(0 .4)" xlink:href="#_ÂÁ_Ï_ÌÌ_È_ËÂÌÚ_2172"/>
    <linearGradient id="_ÂÁ_Ï_ÌÌ_È_ËÂÌÚ_2172-17" data-name="¡ÂÁ˚ÏˇÌÌ˚È „‡‰ËÂÌÚ 2172" y1="235.73" y2="3.67" gradientTransform="translate(0 .2)" xlink:href="#_ÂÁ_Ï_ÌÌ_È_ËÂÌÚ_2172"/>
    <linearGradient id="_ÂÁ_Ï_ÌÌ_È_ËÂÌÚ_2172-18" data-name="¡ÂÁ˚ÏˇÌÌ˚È „‡‰ËÂÌÚ 2172" y1="235.28" y2="3.23" gradientTransform="matrix(1,0,0,1,0,0)" xlink:href="#_ÂÁ_Ï_ÌÌ_È_ËÂÌÚ_2172"/>
    <linearGradient id="_ÂÁ_Ï_ÌÌ_È_ËÂÌÚ_2587" data-name="¡ÂÁ˚ÏˇÌÌ˚È „‡‰ËÂÌÚ 2587" x1="82.27" y1="235.29" x2="82.27" y2="3.22" gradientUnits="userSpaceOnUse">
      <stop offset="0" stop-color="#4019bb"/>
      <stop offset="1" stop-color="#725786"/>
    </linearGradient>
    <linearGradient id="_ÂÁ_Ï_ÌÌ_È_ËÂÌÚ_2381" data-name="¡ÂÁ˚ÏˇÌÌ˚È „‡‰ËÂÌÚ 2381" x1="82.27" y1="239.29" x2="82.27" y2="7.24" gradientTransform="translate(0 1.8)" gradientUnits="userSpaceOnUse">
      <stop offset="0" stop-color="#861d00"/>
      <stop offset="1" stop-color="#a7201b"/>
    </linearGradient>
    <linearGradient id="_ÂÁ_Ï_ÌÌ_È_ËÂÌÚ_2381-2" data-name="¡ÂÁ˚ÏˇÌÌ˚È „‡‰ËÂÌÚ 2381" y1="238.85" y2="6.8" gradientTransform="translate(0 1.6)" xlink:href="#_ÂÁ_Ï_ÌÌ_È_ËÂÌÚ_2381"/>
    <linearGradient id="_ÂÁ_Ï_ÌÌ_È_ËÂÌÚ_2381-3" data-name="¡ÂÁ˚ÏˇÌÌ˚È „‡‰ËÂÌÚ 2381" y1="238.41" y2="6.34" gradientTransform="translate(0 1.4)" xlink:href="#_ÂÁ_Ï_ÌÌ_È_ËÂÌÚ_2381"/>
    <linearGradient id="_ÂÁ_Ï_ÌÌ_È_ËÂÌÚ_2381-4" data-name="¡ÂÁ˚ÏˇÌÌ˚È „‡‰ËÂÌÚ 2381" y1="237.96" y2="5.9" gradientTransform="translate(0 1.2)" xlink:href="#_ÂÁ_Ï_ÌÌ_È_ËÂÌÚ_2381"/>
    <linearGradient id="_ÂÁ_Ï_ÌÌ_È_ËÂÌÚ_2381-5" data-name="¡ÂÁ˚ÏˇÌÌ˚È „‡‰ËÂÌÚ 2381" y1="237.51" y2="5.45" gradientTransform="translate(0 1)" xlink:href="#_ÂÁ_Ï_ÌÌ_È_ËÂÌÚ_2381"/>
    <linearGradient id="_ÂÁ_Ï_ÌÌ_È_ËÂÌÚ_2381-6" data-name="¡ÂÁ˚ÏˇÌÌ˚È „‡‰ËÂÌÚ 2381" y1="237.07" y2="5" gradientTransform="translate(0 .8)" xlink:href="#_ÂÁ_Ï_ÌÌ_È_ËÂÌÚ_2381"/>
    <linearGradient id="_ÂÁ_Ï_ÌÌ_È_ËÂÌÚ_2381-7" data-name="¡ÂÁ˚ÏˇÌÌ˚È „‡‰ËÂÌÚ 2381" y1="236.63" y2="4.56" gradientTransform="translate(0 .6)" xlink:href="#_ÂÁ_Ï_ÌÌ_È_ËÂÌÚ_2381"/>
    <linearGradient id="_ÂÁ_Ï_ÌÌ_È_ËÂÌÚ_2381-8" data-name="¡ÂÁ˚ÏˇÌÌ˚È „‡‰ËÂÌÚ 2381" y1="236.18" y2="4.12" gradientTransform="translate(0 .4)" xlink:href="#_ÂÁ_Ï_ÌÌ_È_ËÂÌÚ_2381"/>
    <linearGradient id="_ÂÁ_Ï_ÌÌ_È_ËÂÌÚ_2381-9" data-name="¡ÂÁ˚ÏˇÌÌ˚È „‡‰ËÂÌÚ 2381" y1="235.73" y2="3.67" gradientTransform="translate(0 .2)" xlink:href="#_ÂÁ_Ï_ÌÌ_È_ËÂÌÚ_2381"/>
    <linearGradient id="_ÂÁ_Ï_ÌÌ_È_ËÂÌÚ_2381-10" data-name="¡ÂÁ˚ÏˇÌÌ˚È „‡‰ËÂÌÚ 2381" y1="235.28" y2="3.22" gradientTransform="matrix(1,0,0,1,0,0)" xlink:href="#_ÂÁ_Ï_ÌÌ_È_ËÂÌÚ_2381"/>
    <linearGradient id="_ÂÁ_Ï_ÌÌ_È_ËÂÌÚ_2500" data-name="¡ÂÁ˚ÏˇÌÌ˚È „‡‰ËÂÌÚ 2500" x1="82.27" y1="235.28" x2="82.27" y2="3.22" gradientUnits="userSpaceOnUse">
      <stop offset="0" stop-color="#f87000"/>
      <stop offset="1" stop-color="#ffe800"/>
    </linearGradient>
  </defs>
  <g id="_Layer_" data-name="&amp;lt;Layer&amp;gt;">
    <g>
      <path d="M92.7,36.1c5.48-6.95,11.01-13.44,16.6-19.44,5.58-6,10.17-9.74,13.75-11.22,3.58-1.47,10.85-2.21,21.81-2.21s16.44,1.37,16.44,4.13c0,1.04-1.16,2.2-3.48,3.46-2.32,1.26-5.48,3.28-9.48,6.01-4.01,2.75-12.38,10.22-25.13,22.44-12.76,12.23-25.56,26.56-38.41,43-.43.43-.64,1.02-.64,1.74s.58,1.21,1.74,1.42c1.16.21,2.79.53,4.9.94,2.1.43,5.96,2.06,11.54,4.9,5.58,2.85,10.59,6.44,15.02,10.75,4.43,4.34,8.69,10.96,12.8,19.92,4.11,8.97,6.48,17.38,7.12,25.29.63,7.9,1.26,15.02,1.89,21.34.64,6.32,2.27,15.39,4.9,27.19,2.63,11.81,5.74,18.87,9.33,21.19,1.05.84,1.58,1.89,1.58,3.17,0,3.37-4.64,6.47-13.91,9.32-9.28,2.85-17.55,4.26-24.82,4.26s-11.44-2.94-12.49-8.85c-1.05-6.32-1.79-21.39-2.21-45.21v-12.65c0-22.13-3.16-38.16-9.48-48.06-5.48-8.64-10.43-13.48-14.86-14.54-3.37-1.06-5.17-1.58-5.38-1.58l-3.48,1.58c-5.06,5.9-9.07,11.59-12.01,17.08-2.95,5.48-4.53,9.49-4.74,12l-.63,4.12c0,29.71,1.26,55.12,3.79,76.18.42,2.54.63,4.02.63,4.45,0,4.63-4.9,8.64-14.7,12-9.8,3.37-17.81,5.07-24.03,5.07s-9.33-.95-9.33-2.85c0-1.27.32-2.85.95-4.75,2.1-4.62,3.64-19.96,4.58-45.99.95-26.03,1.42-49.75,1.42-71.13s-.43-38.74-1.27-52.01c-1.26-20.03-3.37-32.04-6.32-36.05-2.32-2.94-3.48-4.85-3.48-5.68,0-2.94,5.42-5.8,16.28-8.53,10.85-2.74,19.6-4.11,26.24-4.11s9.96,1.48,9.96,4.42l-.32,4.11c-2.74,22.76-4.11,47.12-4.11,73.03,0,2.11.48,3.16,1.42,3.16s2.05-.95,3.32-2.85c1.27-1.9,3.11-4.52,5.53-7.9,2.42-3.38,6.84-9.49,13.28-18.33,6.43-8.86,12.38-16.77,17.86-23.73Z"/>
      <g>
        <path class="cls-27" d="M16.67,249.49c-3.44,0-12.56,0-12.56-6.07,0-1.63.37-3.52,1.12-5.77.04-.1.08-.21.12-.3,1.32-2.92,3.14-13.05,4.29-44.79.95-25.88,1.42-49.77,1.42-71.01s-.42-38.6-1.26-51.8c-1.6-25.31-4.26-32.38-5.7-34.34C.7,31.07,0,29.27,0,27.8c0-4.86,5.6-8.35,18.72-11.67,11.07-2.78,20.16-4.2,27.03-4.2,10.9,0,13.19,4.17,13.19,7.65l-.33,4.36c-2.61,21.7-3.99,45.06-4.1,69.57,1.16-1.7,2.63-3.78,4.42-6.26,2.42-3.36,6.85-9.47,13.29-18.34,6.46-8.9,12.49-16.91,17.94-23.82h0c5.5-6.98,11.14-13.59,16.77-19.64,5.96-6.4,10.83-10.34,14.89-12.01,4.02-1.65,11.56-2.44,23.04-2.44,10.22,0,19.67.88,19.67,7.33,0,3.14-2.95,5.1-5.16,6.32-2.19,1.2-5.29,3.15-9.21,5.84-3.83,2.62-12.14,10.06-24.72,22.11-12.17,11.65-24.55,25.46-36.84,41.05.84.17,1.78.34,2.83.56,2.44.48,6.48,2.18,12.37,5.18,5.84,2.99,11.16,6.8,15.81,11.31,4.69,4.59,9.23,11.61,13.48,20.9,4.25,9.25,6.74,18.14,7.4,26.38.63,7.89,1.26,14.97,1.89,21.27.62,6.21,2.25,15.21,4.84,26.82,3.18,14.28,6.33,18.14,7.93,19.17.1.07.19.13.27.2,1.82,1.46,2.79,3.43,2.79,5.68,0,6.67-9.24,10.28-16.19,12.41-9.54,2.93-18.21,4.42-25.77,4.42-11.84,0-14.9-7.22-15.67-11.53-1.1-6.57-1.83-21.51-2.26-45.7v-12.71c0-21.41-3.02-36.99-8.98-46.32-6.22-9.8-10.44-12.56-12.89-13.13-2.33-.73-3.61-1.11-4.33-1.33l-1.79.82c-4.68,5.53-8.43,10.89-11.16,15.97-3.58,6.63-4.27,9.57-4.37,10.74l-.62,4.09c0,29.36,1.28,54.78,3.77,75.57.61,3.62.66,4.35.66,4.81,0,6.23-5.52,11.16-16.88,15.06-10.25,3.53-18.45,5.24-25.08,5.24ZM10.64,242.48c.79.23,2.52.55,6.02.55,5.82,0,13.55-1.64,22.98-4.87,8.07-2.77,12.52-5.97,12.52-8.97,0-.08-.07-.78-.59-3.9-2.55-21.25-3.84-47.01-3.84-76.73,0-.15.01-.32.04-.49l.63-4.11c.22-2.84,1.85-7.04,5.09-13.06,3.04-5.64,7.21-11.57,12.41-17.64.31-.35.68-.64,1.11-.84l3.48-1.58c.42-.19.88-.28,1.34-.28.6,0,.8,0,6.34,1.74,5.11,1.21,10.62,6.42,16.62,15.89,6.72,10.53,9.99,26.82,9.99,49.79v12.65c.42,23.5,1.14,38.54,2.17,44.68.51,2.86,2.03,6.15,9.31,6.15s14.94-1.39,23.87-4.13c11.31-3.47,11.63-6.22,11.63-6.24,0-.17,0-.32-.28-.57-4.34-2.95-7.7-10.29-10.55-23.06-2.65-11.85-4.32-21.13-4.96-27.57-.63-6.34-1.27-13.48-1.9-21.41-.6-7.48-2.9-15.62-6.83-24.2-3.93-8.55-8-14.93-12.13-18.96-4.18-4.06-8.96-7.5-14.22-10.18-6.93-3.54-9.69-4.41-10.71-4.61-2.08-.41-3.7-.73-4.85-.95-3.22-.56-4.38-2.75-4.38-4.59s.73-3.1,1.41-3.85c12.86-16.43,25.86-30.96,38.63-43.22,13.01-12.47,21.37-19.92,25.54-22.79,4.16-2.84,7.35-4.86,9.77-6.17.28-.16.54-.31.74-.43-1.61-.49-5.04-1.09-12.16-1.09-13.05,0-18.4,1.08-20.59,1.98-2.16.88-6.09,3.41-12.62,10.42-5.51,5.92-11.03,12.4-16.43,19.25h0c-5.39,6.83-11.38,14.77-17.78,23.62-6.43,8.84-10.85,14.94-13.27,18.32-2.4,3.33-4.22,5.92-5.47,7.81-1.23,1.83-3.19,4.28-6.01,4.28-1.09,0-4.65-.47-4.65-6.39,0-25.95,1.39-50.65,4.13-73.42l.3-3.97c-.03.23-1.18-.95-6.74-.95-6.34,0-14.9,1.35-25.45,4.01-10.25,2.59-12.99,4.67-13.68,5.38.31.56,1.02,1.69,2.62,3.71,2.21,2.99,5.26,10.06,7.01,37.85.84,13.35,1.27,30.9,1.27,52.2s-.48,45.3-1.43,71.24c-1.27,34.96-3.33,43.7-4.79,47.05-.37,1.15-.57,2-.66,2.65Z"/>
        <path class="cls-2" d="M16.67,248.84c-3.44,0-12.56,0-12.56-6.07,0-1.63.37-3.52,1.12-5.77.04-.11.08-.21.12-.32,1.32-2.9,3.14-13.04,4.29-44.78.95-25.87,1.42-49.77,1.42-71.02s-.42-38.58-1.26-51.81c-1.6-25.3-4.26-32.36-5.7-34.32C.7,30.41,0,28.63,0,27.16c0-4.87,5.6-8.36,18.72-11.67,11.07-2.79,20.16-4.22,27.03-4.22,10.9,0,13.19,4.17,13.19,7.65l-.33,4.36c-2.61,21.71-3.99,45.05-4.1,69.57,1.16-1.69,2.63-3.78,4.42-6.26,2.42-3.37,6.85-9.49,13.29-18.34,6.46-8.9,12.49-16.9,17.94-23.82h0c5.5-7,11.14-13.6,16.77-19.64,5.96-6.41,10.83-10.35,14.89-12.01,4.02-1.65,11.56-2.46,23.04-2.46,10.22,0,19.67.89,19.67,7.35,0,3.13-2.95,5.09-5.16,6.3-2.19,1.2-5.29,3.16-9.21,5.84-3.83,2.63-12.14,10.06-24.72,22.11-12.17,11.66-24.55,25.47-36.84,41.05.84.16,1.78.34,2.83.55,2.44.51,6.48,2.2,12.37,5.2,5.84,2.97,11.16,6.78,15.81,11.31,4.69,4.58,9.23,11.61,13.48,20.89,4.25,9.25,6.74,18.14,7.4,26.38.63,7.87,1.26,14.97,1.89,21.28.62,6.18,2.25,15.2,4.84,26.8,3.18,14.28,6.33,18.14,7.93,19.17.1.06.19.12.27.19,1.82,1.46,2.79,3.44,2.79,5.68,0,6.67-9.24,10.28-16.19,12.41-9.54,2.93-18.21,4.41-25.77,4.41-11.84,0-14.9-7.21-15.67-11.51-1.1-6.58-1.83-21.52-2.26-45.72v-12.71c0-21.4-3.02-36.98-8.98-46.32-6.22-9.8-10.44-12.55-12.89-13.13-2.33-.73-3.61-1.12-4.33-1.32l-1.79.82c-4.68,5.51-8.43,10.88-11.16,15.95-3.58,6.62-4.27,9.58-4.37,10.74l-.62,4.09c0,29.36,1.28,54.77,3.77,75.56.61,3.64.66,4.35.66,4.82,0,6.23-5.52,11.16-16.88,15.06-10.25,3.53-18.45,5.23-25.08,5.23ZM10.64,241.82c.79.25,2.52.57,6.02.57,5.82,0,13.55-1.65,22.98-4.88,8.07-2.79,12.52-5.97,12.52-8.97,0-.08-.07-.78-.59-3.9-2.55-21.24-3.84-47.01-3.84-76.72,0-.17.01-.34.04-.49l.63-4.11c.22-2.81,1.85-7.04,5.09-13.06,3.04-5.64,7.21-11.58,12.41-17.63.31-.36.68-.65,1.11-.84l3.48-1.58c.42-.21.88-.3,1.34-.3.6,0,.8,0,6.34,1.73,5.11,1.21,10.62,6.44,16.62,15.9,6.72,10.52,9.99,26.82,9.99,49.78v12.65c.42,23.49,1.14,38.54,2.17,44.67.51,2.85,2.03,6.16,9.31,6.16s14.94-1.39,23.87-4.12c11.31-3.47,11.63-6.22,11.63-6.24,0-.18,0-.32-.28-.57-4.34-2.95-7.7-10.3-10.55-23.08-2.65-11.85-4.32-21.13-4.96-27.57-.63-6.33-1.27-13.48-1.9-21.41-.6-7.48-2.9-15.62-6.83-24.2-3.93-8.55-8-14.93-12.13-18.95-4.18-4.08-8.96-7.5-14.22-10.18-6.93-3.54-9.69-4.41-10.71-4.62-2.08-.41-3.7-.72-4.85-.93-3.22-.57-4.38-2.75-4.38-4.61s.73-3.09,1.41-3.83c12.86-16.45,25.86-30.99,38.63-43.23,13.01-12.47,21.37-19.92,25.54-22.79,4.16-2.83,7.35-4.85,9.77-6.18.28-.15.54-.29.74-.43-1.61-.47-5.04-1.08-12.16-1.08-13.05,0-18.4,1.08-20.59,1.97-2.16.89-6.09,3.42-12.62,10.44-5.51,5.92-11.03,12.4-16.43,19.25h0c-5.39,6.84-11.38,14.77-17.78,23.6-6.43,8.85-10.85,14.97-13.27,18.33-2.4,3.33-4.22,5.93-5.47,7.81-1.23,1.84-3.19,4.28-6.01,4.28-1.09,0-4.65-.45-4.65-6.38,0-25.94,1.39-50.65,4.13-73.41l.3-3.97c-.03.25-1.18-.95-6.74-.95-6.34,0-14.9,1.35-25.45,4.01-10.25,2.59-12.99,4.67-13.68,5.39.31.56,1.02,1.67,2.62,3.71,2.21,2.99,5.26,10.07,7.01,37.83.84,13.35,1.27,30.92,1.27,52.21s-.48,45.32-1.43,71.25c-1.27,34.96-3.33,43.68-4.79,47.05-.37,1.15-.57,2-.66,2.63Z"/>
        <path class="cls-8" d="M16.67,248.21c-3.44,0-12.56,0-12.56-6.09,0-1.62.37-3.51,1.12-5.76.04-.11.08-.21.12-.32,1.32-2.91,3.14-13.04,4.29-44.78.95-25.86,1.42-49.75,1.42-71.01s-.42-38.59-1.26-51.8c-1.6-25.31-4.26-32.38-5.7-34.34C.7,29.78,0,27.98,0,26.51c0-4.87,5.6-8.35,18.72-11.66,11.07-2.8,20.16-4.22,27.03-4.22,10.9,0,13.19,4.16,13.19,7.65l-.33,4.37c-2.61,21.72-3.99,45.05-4.1,69.57,1.16-1.69,2.63-3.78,4.42-6.25,2.42-3.37,6.85-9.49,13.29-18.35,6.46-8.9,12.49-16.9,17.94-23.81h0c5.5-6.99,11.14-13.61,16.77-19.65,5.96-6.41,10.83-10.34,14.89-12.01,4.02-1.65,11.56-2.45,23.04-2.45,10.22,0,19.67.89,19.67,7.33,0,3.14-2.95,5.11-5.16,6.31-2.19,1.19-5.29,3.16-9.21,5.85-3.83,2.61-12.14,10.06-24.72,22.1-12.17,11.66-24.55,25.47-36.84,41.06.84.16,1.78.34,2.83.55,2.44.49,6.48,2.19,12.37,5.19,5.84,2.99,11.16,6.8,15.81,11.33,4.69,4.57,9.23,11.6,13.48,20.87,4.25,9.27,6.74,18.14,7.4,26.39.63,7.87,1.26,14.97,1.89,21.28.62,6.19,2.25,15.21,4.84,26.81,3.18,14.28,6.33,18.14,7.93,19.17.1.06.19.12.27.19,1.82,1.47,2.79,3.43,2.79,5.68,0,6.67-9.24,10.28-16.19,12.41-9.54,2.92-18.21,4.41-25.77,4.41-11.84,0-14.9-7.22-15.67-11.51-1.1-6.56-1.83-21.52-2.26-45.72v-12.7c0-21.41-3.02-36.99-8.98-46.31-6.22-9.82-10.44-12.56-12.89-13.15-2.33-.72-3.61-1.11-4.33-1.31l-1.79.81c-4.68,5.51-8.43,10.89-11.16,15.96-3.58,6.64-4.27,9.58-4.37,10.74l-.62,4.09c0,29.34,1.28,54.77,3.77,75.56.61,3.62.66,4.35.66,4.82,0,6.23-5.52,11.16-16.88,15.08-10.25,3.51-18.45,5.23-25.08,5.23ZM10.64,241.18c.79.24,2.52.56,6.02.56,5.82,0,13.55-1.65,22.98-4.88,8.07-2.78,12.52-5.95,12.52-8.96,0-.07-.07-.78-.59-3.9-2.55-21.24-3.84-47-3.84-76.73,0-.16.01-.32.04-.48l.63-4.12c.22-2.81,1.85-7.04,5.09-13.04,3.04-5.66,7.21-11.57,12.41-17.64.31-.36.68-.65,1.11-.84l3.48-1.59c.42-.18.88-.27,1.34-.27.6,0,.8,0,6.34,1.72,5.11,1.21,10.62,6.43,16.62,15.89,6.72,10.53,9.99,26.82,9.99,49.79v12.65c.42,23.49,1.14,38.53,2.17,44.67.51,2.86,2.03,6.15,9.31,6.15s14.94-1.37,23.87-4.12c11.31-3.46,11.63-6.21,11.63-6.23,0-.16,0-.32-.28-.56-4.34-2.95-7.7-10.29-10.55-23.08-2.65-11.85-4.32-21.12-4.96-27.57-.63-6.34-1.27-13.47-1.9-21.41-.6-7.48-2.9-15.63-6.83-24.19-3.93-8.55-8-14.92-12.13-18.96-4.18-4.08-8.96-7.5-14.22-10.19-6.93-3.53-9.69-4.4-10.71-4.6-2.08-.43-3.7-.73-4.85-.95-3.22-.57-4.38-2.75-4.38-4.6s.73-3.1,1.41-3.84c12.86-16.44,25.86-30.98,38.63-43.22,13.01-12.48,21.37-19.94,25.54-22.79,4.16-2.85,7.35-4.87,9.77-6.19.28-.15.54-.3.74-.43-1.61-.49-5.04-1.08-12.16-1.08-13.05,0-18.4,1.07-20.59,1.96-2.16.88-6.09,3.42-12.62,10.44-5.51,5.92-11.03,12.4-16.43,19.25h0c-5.39,6.84-11.38,14.77-17.78,23.61-6.43,8.84-10.85,14.95-13.27,18.32-2.4,3.34-4.22,5.94-5.47,7.81-1.23,1.83-3.19,4.28-6.01,4.28-1.09,0-4.65-.46-4.65-6.39,0-25.95,1.39-50.65,4.13-73.42l.3-3.96c-.03.23-1.18-.95-6.74-.95-6.34,0-14.9,1.34-25.45,4.01-10.25,2.58-12.99,4.66-13.68,5.38.31.56,1.02,1.68,2.62,3.72,2.21,2.98,5.26,10.06,7.01,37.83.84,13.35,1.27,30.91,1.27,52.21s-.48,45.3-1.43,71.25c-1.27,34.96-3.33,43.68-4.79,47.04-.37,1.15-.57,2-.66,2.64Z"/>
        <path class="cls-4" d="M16.67,247.55c-3.44,0-12.56,0-12.56-6.08,0-1.63.37-3.52,1.12-5.77.04-.11.08-.22.12-.32,1.32-2.9,3.14-13.04,4.29-44.77.95-25.87,1.42-49.77,1.42-71.01s-.42-38.6-1.26-51.81c-1.6-25.3-4.26-32.36-5.7-34.32C.7,29.13,0,27.33,0,25.86c0-4.87,5.6-8.36,18.72-11.67,11.07-2.79,20.16-4.21,27.03-4.21,10.9,0,13.19,4.16,13.19,7.66l-.33,4.35c-2.61,21.71-3.99,45.05-4.1,69.57,1.16-1.7,2.63-3.77,4.42-6.25,2.42-3.36,6.85-9.49,13.29-18.35,6.46-8.9,12.49-16.91,17.94-23.81h0c5.5-6.99,11.14-13.6,16.77-19.65,5.96-6.41,10.83-10.33,14.89-12.01,4.02-1.65,11.56-2.46,23.04-2.46,10.22,0,19.67.88,19.67,7.34,0,3.14-2.95,5.1-5.16,6.32-2.19,1.2-5.29,3.17-9.21,5.84-3.83,2.62-12.14,10.05-24.72,22.11-12.17,11.67-24.55,25.46-36.84,41.05.84.17,1.78.34,2.83.56,2.44.49,6.48,2.19,12.37,5.19,5.84,2.97,11.16,6.78,15.81,11.32,4.69,4.57,9.23,11.6,13.48,20.88,4.25,9.26,6.74,18.15,7.4,26.38.63,7.89,1.26,14.99,1.89,21.28.62,6.19,2.25,15.21,4.84,26.82,3.18,14.28,6.33,18.14,7.93,19.18.1.05.19.12.27.18,1.82,1.46,2.79,3.43,2.79,5.68,0,6.68-9.24,10.29-16.19,12.41-9.54,2.93-18.21,4.41-25.77,4.41-11.84,0-14.9-7.22-15.67-11.51-1.1-6.57-1.83-21.52-2.26-45.72v-12.69c0-21.42-3.02-36.98-8.98-46.33-6.22-9.79-10.44-12.55-12.89-13.14-2.33-.72-3.61-1.1-4.33-1.31l-1.79.82c-4.68,5.52-8.43,10.88-11.16,15.95-3.58,6.65-4.27,9.58-4.37,10.75l-.62,4.08c0,29.36,1.28,54.79,3.77,75.58.61,3.61.66,4.35.66,4.79,0,6.25-5.52,11.17-16.88,15.08-10.25,3.52-18.45,5.24-25.08,5.24ZM10.64,240.53c.79.23,2.52.56,6.02.56,5.82,0,13.55-1.63,22.98-4.88,8.07-2.77,12.52-5.95,12.52-8.97,0-.07-.07-.78-.59-3.89-2.55-21.25-3.84-47.01-3.84-76.73,0-.17.01-.32.04-.49l.63-4.11c.22-2.82,1.85-7.04,5.09-13.05,3.04-5.64,7.21-11.58,12.41-17.64.31-.36.68-.65,1.11-.84l3.48-1.58c.42-.19.88-.29,1.34-.29.6,0,.8,0,6.34,1.73,5.11,1.21,10.62,6.43,16.62,15.89,6.72,10.54,9.99,26.82,9.99,49.79v12.64c.42,23.5,1.14,38.54,2.17,44.69.51,2.84,2.03,6.15,9.31,6.15s14.94-1.39,23.87-4.13c11.31-3.47,11.63-6.21,11.63-6.24,0-.16,0-.31-.28-.57-4.34-2.94-7.7-10.28-10.55-23.07-2.65-11.85-4.32-21.12-4.96-27.57-.63-6.34-1.27-13.47-1.9-21.41-.6-7.48-2.9-15.62-6.83-24.19-3.93-8.55-8-14.94-12.13-18.95-4.18-4.09-8.96-7.52-14.22-10.19-6.93-3.52-9.69-4.41-10.71-4.61-2.08-.43-3.7-.74-4.85-.95-3.22-.57-4.38-2.75-4.38-4.6s.73-3.1,1.41-3.84c12.86-16.44,25.86-30.98,38.63-43.21,13.01-12.48,21.37-19.93,25.54-22.79,4.16-2.84,7.35-4.86,9.77-6.18.28-.15.54-.3.74-.43-1.61-.49-5.04-1.1-12.16-1.1-13.05,0-18.4,1.08-20.59,1.97-2.16.9-6.09,3.43-12.62,10.44-5.51,5.92-11.03,12.4-16.43,19.24h0c-5.39,6.84-11.38,14.78-17.78,23.61-6.43,8.86-10.85,14.95-13.27,18.32-2.4,3.35-4.22,5.94-5.47,7.81-1.23,1.85-3.19,4.29-6.01,4.29-1.09,0-4.65-.47-4.65-6.39,0-25.94,1.39-50.64,4.13-73.42l.3-3.96c-.03.24-1.18-.96-6.74-.96-6.34,0-14.9,1.35-25.45,4-10.25,2.61-12.99,4.68-13.68,5.41.31.54,1.02,1.66,2.62,3.71,2.21,2.98,5.26,10.05,7.01,37.83.84,13.35,1.27,30.91,1.27,52.22s-.48,45.3-1.43,71.25c-1.27,34.95-3.33,43.69-4.79,47.05-.37,1.13-.57,2-.66,2.62Z"/>
        <path class="cls-5" d="M16.67,246.9c-3.44,0-12.56,0-12.56-6.07,0-1.63.37-3.52,1.12-5.77.04-.11.08-.21.12-.32,1.32-2.9,3.14-13.04,4.29-44.77.95-25.88,1.42-49.77,1.42-71.03s-.42-38.58-1.26-51.79c-1.6-25.31-4.26-32.38-5.7-34.34C.7,28.49,0,26.69,0,25.21c0-4.86,5.6-8.35,18.72-11.66,11.07-2.79,20.16-4.21,27.03-4.21,10.9,0,13.19,4.16,13.19,7.65l-.33,4.36c-2.61,21.71-3.99,45.05-4.1,69.57,1.16-1.7,2.63-3.78,4.42-6.26,2.42-3.37,6.85-9.49,13.29-18.34,6.46-8.9,12.49-16.91,17.94-23.82h0c5.5-6.98,11.14-13.59,16.77-19.63,5.96-6.42,10.83-10.35,14.89-12.02,4.02-1.65,11.56-2.45,23.04-2.45,10.22,0,19.67.89,19.67,7.33,0,3.14-2.95,5.1-5.16,6.32-2.19,1.19-5.29,3.16-9.21,5.84-3.83,2.62-12.14,10.05-24.72,22.11-12.17,11.66-24.55,25.46-36.84,41.05.84.16,1.78.34,2.83.55,2.44.49,6.48,2.2,12.37,5.19,5.84,2.98,11.16,6.78,15.81,11.32,4.69,4.57,9.23,11.6,13.48,20.88,4.25,9.27,6.74,18.15,7.4,26.39.63,7.88,1.26,14.97,1.89,21.28.62,6.18,2.25,15.19,4.84,26.8,3.18,14.28,6.33,18.14,7.93,19.17.1.07.19.12.27.2,1.82,1.46,2.79,3.43,2.79,5.68,0,6.67-9.24,10.28-16.19,12.41-9.54,2.92-18.21,4.4-25.77,4.4-11.84,0-14.9-7.21-15.67-11.51-1.1-6.57-1.83-21.51-2.26-45.72v-12.71c0-21.39-3.02-36.98-8.98-46.31-6.22-9.81-10.44-12.56-12.89-13.13-2.33-.73-3.61-1.12-4.33-1.33l-1.79.82c-4.68,5.52-8.43,10.89-11.16,15.97-3.58,6.63-4.27,9.57-4.37,10.74l-.62,4.09c0,29.35,1.28,54.78,3.77,75.56.61,3.62.66,4.35.66,4.82,0,6.23-5.52,11.16-16.88,15.06-10.25,3.52-18.45,5.23-25.08,5.23ZM10.64,239.9c.79.23,2.52.55,6.02.55,5.82,0,13.55-1.65,22.98-4.87,8.07-2.79,12.52-5.97,12.52-8.97,0-.08-.07-.79-.59-3.91-2.55-21.24-3.84-47.01-3.84-76.72,0-.16.01-.33.04-.49l.63-4.11c.22-2.82,1.85-7.03,5.09-13.06,3.04-5.64,7.21-11.57,12.41-17.64.31-.34.68-.64,1.11-.83l3.48-1.59c.42-.19.88-.29,1.34-.29.6,0,.8,0,6.34,1.72,5.11,1.23,10.62,6.43,16.62,15.91,6.72,10.52,9.99,26.82,9.99,49.77v12.66c.42,23.49,1.14,38.54,2.17,44.66.51,2.85,2.03,6.17,9.31,6.17s14.94-1.39,23.87-4.13c11.31-3.47,11.63-6.22,11.63-6.24,0-.17,0-.32-.28-.58-4.34-2.94-7.7-10.27-10.55-23.05-2.65-11.86-4.32-21.13-4.96-27.58-.63-6.34-1.27-13.48-1.9-21.4-.6-7.48-2.9-15.63-6.83-24.21-3.93-8.55-8-14.93-12.13-18.96-4.18-4.08-8.96-7.5-14.22-10.19-6.93-3.53-9.69-4.39-10.71-4.61-2.08-.42-3.7-.73-4.85-.94-3.22-.58-4.38-2.75-4.38-4.59s.73-3.11,1.41-3.85c12.86-16.44,25.86-30.98,38.63-43.22,13.01-12.46,21.37-19.92,25.54-22.77,4.16-2.86,7.35-4.87,9.77-6.19.28-.16.54-.31.74-.43-1.61-.49-5.04-1.09-12.16-1.09-13.05,0-18.4,1.06-20.59,1.97-2.16.88-6.09,3.42-12.62,10.44-5.51,5.92-11.03,12.39-16.43,19.25h0c-5.39,6.84-11.38,14.77-17.78,23.62-6.43,8.83-10.85,14.94-13.27,18.32-2.4,3.32-4.22,5.92-5.47,7.81-1.23,1.83-3.19,4.27-6.01,4.27-1.09,0-4.65-.45-4.65-6.38,0-25.95,1.39-50.65,4.13-73.42l.3-3.97c-.03.23-1.18-.95-6.74-.95-6.34,0-14.9,1.35-25.45,4.01-10.25,2.58-12.99,4.65-13.68,5.38.31.56,1.02,1.67,2.62,3.71,2.21,2.99,5.26,10.07,7.01,37.82.84,13.35,1.27,30.93,1.27,52.22s-.48,45.31-1.43,71.25c-1.27,34.96-3.33,43.68-4.79,47.05-.37,1.14-.57,2-.66,2.65Z"/>
        <path class="cls-3" d="M16.67,246.27c-3.44,0-12.56,0-12.56-6.08,0-1.63.37-3.51,1.12-5.76.04-.12.08-.21.12-.32,1.32-2.91,3.14-13.04,4.29-44.77.95-25.87,1.42-49.77,1.42-71.02s-.42-38.59-1.26-51.8c-1.6-25.31-4.26-32.38-5.7-34.34C.7,27.85,0,26.05,0,24.56c0-4.86,5.6-8.35,18.72-11.66,11.07-2.8,20.16-4.22,27.03-4.22,10.9,0,13.19,4.17,13.19,7.65l-.33,4.37c-2.61,21.71-3.99,45.05-4.1,69.57,1.16-1.69,2.63-3.78,4.42-6.26,2.42-3.37,6.85-9.49,13.29-18.34,6.46-8.91,12.49-16.92,17.94-23.82h0c5.5-6.98,11.14-13.6,16.77-19.66,5.96-6.4,10.83-10.33,14.89-12,4.02-1.65,11.56-2.46,23.04-2.46,10.22,0,19.67.89,19.67,7.35,0,3.12-2.95,5.09-5.16,6.32-2.19,1.18-5.29,3.14-9.21,5.83-3.83,2.62-12.14,10.06-24.72,22.11-12.17,11.66-24.55,25.47-36.84,41.05.84.17,1.78.34,2.83.55,2.44.51,6.48,2.2,12.37,5.2,5.84,2.97,11.16,6.78,15.81,11.3,4.69,4.59,9.23,11.61,13.48,20.9,4.25,9.25,6.74,18.13,7.4,26.38.63,7.87,1.26,14.97,1.89,21.27.62,6.19,2.25,15.21,4.84,26.82,3.18,14.28,6.33,18.14,7.93,19.17.1.06.19.13.27.19,1.82,1.47,2.79,3.45,2.79,5.68,0,6.69-9.24,10.28-16.19,12.41-9.54,2.93-18.21,4.41-25.77,4.41-11.84,0-14.9-7.21-15.67-11.51-1.1-6.58-1.83-21.52-2.26-45.72v-12.71c0-21.41-3.02-36.98-8.98-46.32-6.22-9.8-10.44-12.55-12.89-13.14-2.33-.71-3.61-1.11-4.33-1.3l-1.79.82c-4.68,5.51-8.43,10.88-11.16,15.96-3.58,6.63-4.27,9.58-4.37,10.74l-.62,4.1c0,29.36,1.28,54.77,3.77,75.57.61,3.62.66,4.35.66,4.81,0,6.23-5.52,11.16-16.88,15.06-10.25,3.53-18.45,5.24-25.08,5.24ZM10.64,239.24c.79.25,2.52.56,6.02.56,5.82,0,13.55-1.64,22.98-4.88,8.07-2.78,12.52-5.95,12.52-8.96,0-.08-.07-.78-.59-3.9-2.55-21.24-3.84-47.01-3.84-76.72,0-.17.01-.32.04-.49l.63-4.11c.22-2.81,1.85-7.04,5.09-13.04,3.04-5.65,7.21-11.59,12.41-17.65.31-.36.68-.64,1.11-.83l3.48-1.59c.42-.19.88-.29,1.34-.29.6,0,.8,0,6.34,1.73,5.11,1.21,10.62,6.44,16.62,15.9,6.72,10.52,9.99,26.82,9.99,49.78v12.65c.42,23.49,1.14,38.54,2.17,44.67.51,2.85,2.03,6.16,9.31,6.16s14.94-1.39,23.87-4.13c11.31-3.46,11.63-6.21,11.63-6.23,0-.17,0-.32-.28-.56-4.34-2.97-7.7-10.3-10.55-23.08-2.65-11.84-4.32-21.12-4.96-27.56-.63-6.34-1.27-13.49-1.9-21.42-.6-7.48-2.9-15.62-6.83-24.2-3.93-8.55-8-14.93-12.13-18.95-4.18-4.08-8.96-7.5-14.22-10.19-6.93-3.53-9.69-4.41-10.71-4.61-2.08-.41-3.7-.72-4.85-.94-3.22-.56-4.38-2.75-4.38-4.6s.73-3.09,1.41-3.84c12.86-16.43,25.86-30.98,38.63-43.22,13.01-12.47,21.37-19.93,25.54-22.79,4.16-2.83,7.35-4.86,9.77-6.18.28-.15.54-.29.74-.43-1.61-.49-5.04-1.08-12.16-1.08-13.05,0-18.4,1.07-20.59,1.96-2.16.89-6.09,3.42-12.62,10.44-5.51,5.93-11.03,12.4-16.43,19.25h0c-5.39,6.82-11.38,14.78-17.78,23.6-6.43,8.84-10.85,14.97-13.27,18.33-2.4,3.33-4.22,5.93-5.47,7.8-1.23,1.85-3.19,4.3-6.01,4.3-1.09,0-4.65-.47-4.65-6.4,0-25.95,1.39-50.64,4.13-73.42l.3-3.95c-.03.23-1.18-.96-6.74-.96-6.34,0-14.9,1.34-25.45,4.01-10.25,2.59-12.99,4.67-13.68,5.38.31.56,1.02,1.67,2.62,3.72,2.21,2.98,5.26,10.06,7.01,37.83.84,13.35,1.27,30.92,1.27,52.21s-.48,45.32-1.43,71.25c-1.27,34.95-3.33,43.68-4.79,47.05-.37,1.14-.57,2-.66,2.63Z"/>
        <path class="cls-6" d="M16.67,245.62c-3.44,0-12.56,0-12.56-6.09,0-1.62.37-3.51,1.12-5.76.04-.11.08-.21.12-.32,1.32-2.91,3.14-13.04,4.29-44.78.95-25.88,1.42-49.75,1.42-71.01s-.42-38.59-1.26-51.8c-1.6-25.31-4.26-32.38-5.7-34.34C.7,27.2,0,25.39,0,23.92c0-4.87,5.6-8.35,18.72-11.67,11.07-2.78,20.16-4.2,27.03-4.2,10.9,0,13.19,4.16,13.19,7.65l-.33,4.37c-2.61,21.71-3.99,45.06-4.1,69.57,1.16-1.69,2.63-3.78,4.42-6.26,2.42-3.36,6.85-9.49,13.29-18.35,6.46-8.9,12.49-16.89,17.94-23.8h0c5.5-6.99,11.14-13.59,16.77-19.65,5.96-6.41,10.83-10.33,14.89-12.01,4.02-1.65,11.56-2.45,23.04-2.45,10.22,0,19.67.89,19.67,7.33,0,3.14-2.95,5.11-5.16,6.32-2.19,1.2-5.29,3.16-9.21,5.83-3.83,2.62-12.14,10.06-24.72,22.11-12.17,11.66-24.55,25.46-36.84,41.06.84.16,1.78.34,2.83.56,2.44.49,6.48,2.18,12.37,5.18,5.84,2.99,11.16,6.79,15.81,11.33,4.69,4.57,9.23,11.6,13.48,20.88,4.25,9.26,6.74,18.13,7.4,26.38.63,7.88,1.26,14.97,1.89,21.28.62,6.19,2.25,15.21,4.84,26.81,3.18,14.28,6.33,18.14,7.93,19.17.1.05.19.12.27.19,1.82,1.47,2.79,3.43,2.79,5.68,0,6.67-9.24,10.28-16.19,12.41-9.54,2.92-18.21,4.41-25.77,4.41-11.84,0-14.9-7.21-15.67-11.52-1.1-6.55-1.83-21.5-2.26-45.71v-12.71c0-21.39-3.02-36.98-8.98-46.3-6.22-9.82-10.44-12.56-12.89-13.15-2.33-.72-3.61-1.11-4.33-1.32l-1.79.82c-4.68,5.52-8.43,10.89-11.16,15.96-3.58,6.63-4.27,9.58-4.37,10.74l-.62,4.09c0,29.36,1.28,54.77,3.77,75.56.61,3.62.66,4.35.66,4.82,0,6.23-5.52,11.16-16.88,15.06-10.25,3.53-18.45,5.25-25.08,5.25ZM10.64,238.6c.79.24,2.52.56,6.02.56,5.82,0,13.55-1.65,22.98-4.89,8.07-2.77,12.52-5.95,12.52-8.95,0-.07-.07-.78-.59-3.91-2.55-21.23-3.84-47-3.84-76.71,0-.16.01-.33.04-.48l.63-4.12c.22-2.82,1.85-7.04,5.09-13.06,3.04-5.64,7.21-11.58,12.41-17.63.31-.36.68-.65,1.11-.85l3.48-1.58c.42-.18.88-.27,1.34-.27.6,0,.8,0,6.34,1.72,5.11,1.21,10.62,6.43,16.62,15.9,6.72,10.53,9.99,26.81,9.99,49.77v12.65c.42,23.49,1.14,38.54,2.17,44.67.51,2.86,2.03,6.16,9.31,6.16s14.94-1.38,23.87-4.11c11.31-3.48,11.63-6.22,11.63-6.25,0-.17,0-.32-.28-.58-4.34-2.94-7.7-10.28-10.55-23.07-2.65-11.85-4.32-21.12-4.96-27.57-.63-6.34-1.27-13.47-1.9-21.39-.6-7.49-2.9-15.64-6.83-24.22-3.93-8.54-8-14.91-12.13-18.95-4.18-4.08-8.96-7.5-14.22-10.19-6.93-3.53-9.69-4.41-10.71-4.6-2.08-.43-3.7-.73-4.85-.95-3.22-.58-4.38-2.75-4.38-4.6s.73-3.09,1.41-3.84c12.86-16.44,25.86-30.98,38.63-43.22,13.01-12.48,21.37-19.93,25.54-22.79,4.16-2.84,7.35-4.87,9.77-6.17.28-.17.54-.32.74-.44-1.61-.49-5.04-1.08-12.16-1.08-13.05,0-18.4,1.07-20.59,1.96-2.16.89-6.09,3.42-12.62,10.43-5.51,5.92-11.03,12.41-16.43,19.25h0c-5.39,6.83-11.38,14.78-17.78,23.62-6.43,8.85-10.85,14.95-13.27,18.32-2.4,3.33-4.22,5.94-5.47,7.81-1.23,1.83-3.19,4.28-6.01,4.28-1.09,0-4.65-.45-4.65-6.39,0-25.94,1.39-50.65,4.13-73.41l.3-3.97c-.03.23-1.18-.95-6.74-.95-6.34,0-14.9,1.35-25.45,4.01-10.25,2.59-12.99,4.66-13.68,5.39.31.56,1.02,1.68,2.62,3.72,2.21,2.98,5.26,10.06,7.01,37.83.84,13.35,1.27,30.92,1.27,52.21s-.48,45.3-1.43,71.25c-1.27,34.96-3.33,43.68-4.79,47.04-.37,1.15-.57,2-.66,2.64Z"/>
        <path class="cls-7" d="M16.67,244.97c-3.44,0-12.56,0-12.56-6.08,0-1.63.37-3.52,1.12-5.78.04-.1.08-.19.12-.3,1.32-2.91,3.14-13.04,4.29-44.77.95-25.88,1.42-49.77,1.42-71.01s-.42-38.6-1.26-51.81c-1.6-25.3-4.26-32.37-5.7-34.32C.7,26.55,0,24.75,0,23.28c0-4.87,5.6-8.36,18.72-11.68,11.07-2.79,20.16-4.2,27.03-4.2,10.9,0,13.19,4.17,13.19,7.66l-.33,4.36c-2.61,21.7-3.99,45.04-4.1,69.56,1.16-1.7,2.63-3.78,4.42-6.25,2.42-3.36,6.85-9.49,13.29-18.35,6.46-8.9,12.49-16.91,17.94-23.82h0c5.5-6.99,11.14-13.59,16.77-19.64,5.96-6.41,10.83-10.33,14.89-12.01,4.02-1.66,11.56-2.46,23.04-2.46,10.22,0,19.67.89,19.67,7.34,0,3.14-2.95,5.1-5.16,6.32-2.19,1.19-5.29,3.17-9.21,5.84-3.83,2.62-12.14,10.05-24.72,22.11-12.17,11.66-24.55,25.46-36.84,41.05.84.17,1.78.34,2.83.56,2.44.49,6.48,2.2,12.37,5.19,5.84,2.98,11.16,6.79,15.81,11.31,4.69,4.59,9.23,11.61,13.48,20.89,4.25,9.27,6.74,18.14,7.4,26.37.63,7.9,1.26,14.98,1.89,21.28.62,6.19,2.25,15.21,4.84,26.81,3.18,14.28,6.33,18.13,7.93,19.17.1.06.19.13.27.2,1.82,1.47,2.79,3.43,2.79,5.68,0,6.68-9.24,10.29-16.19,12.41-9.54,2.94-18.21,4.42-25.77,4.42-11.84,0-14.9-7.22-15.67-11.52-1.1-6.56-1.83-21.51-2.26-45.72v-12.71c0-21.39-3.02-36.98-8.98-46.31-6.22-9.79-10.44-12.56-12.89-13.14-2.33-.72-3.61-1.1-4.33-1.31l-1.79.81c-4.68,5.53-8.43,10.89-11.16,15.96-3.58,6.65-4.27,9.58-4.37,10.76l-.62,4.08c0,29.36,1.28,54.78,3.77,75.58.61,3.61.66,4.34.66,4.8,0,6.24-5.52,11.16-16.88,15.07-10.25,3.52-18.45,5.24-25.08,5.24ZM10.64,237.95c.79.23,2.52.56,6.02.56,5.82,0,13.55-1.63,22.98-4.89,8.07-2.77,12.52-5.96,12.52-8.96,0-.08-.07-.78-.59-3.89-2.55-21.25-3.84-47.01-3.84-76.71,0-.18.01-.34.04-.51l.63-4.11c.22-2.82,1.85-7.04,5.09-13.05,3.04-5.65,7.21-11.58,12.41-17.64.31-.37.68-.65,1.11-.85l3.48-1.57c.42-.2.88-.29,1.34-.29.6,0,.8,0,6.34,1.72,5.11,1.22,10.62,6.43,16.62,15.9,6.72,10.54,9.99,26.82,9.99,49.78v12.65c.42,23.5,1.14,38.54,2.17,44.67.51,2.86,2.03,6.17,9.31,6.17s14.94-1.39,23.87-4.13c11.31-3.47,11.63-6.21,11.63-6.24,0-.17,0-.31-.28-.56-4.34-2.95-7.7-10.29-10.55-23.07-2.65-11.85-4.32-21.12-4.96-27.56-.63-6.34-1.27-13.48-1.9-21.41-.6-7.48-2.9-15.61-6.83-24.19-3.93-8.55-8-14.94-12.13-18.95-4.18-4.09-8.96-7.52-14.22-10.2-6.93-3.52-9.69-4.41-10.71-4.61-2.08-.43-3.7-.74-4.85-.95-3.22-.56-4.38-2.75-4.38-4.59s.73-3.1,1.41-3.84c12.86-16.44,25.86-30.98,38.63-43.22,13.01-12.47,21.37-19.92,25.54-22.78,4.16-2.83,7.35-4.85,9.77-6.18.28-.15.54-.3.74-.43-1.61-.49-5.04-1.1-12.16-1.1-13.05,0-18.4,1.07-20.59,1.98-2.16.88-6.09,3.42-12.62,10.43-5.51,5.92-11.03,12.4-16.43,19.24h0c-5.39,6.84-11.38,14.77-17.78,23.61-6.43,8.84-10.85,14.95-13.27,18.32-2.4,3.35-4.22,5.95-5.47,7.83-1.23,1.84-3.19,4.28-6.01,4.28-1.09,0-4.65-.47-4.65-6.39,0-25.94,1.39-50.65,4.13-73.42l.3-3.96c-.03.25-1.18-.95-6.74-.95-6.34,0-14.9,1.35-25.45,4.01-10.25,2.59-12.99,4.66-13.68,5.4.31.54,1.02,1.65,2.62,3.69,2.21,3,5.26,10.08,7.01,37.84.84,13.35,1.27,30.91,1.27,52.22s-.48,45.3-1.43,71.24c-1.27,34.95-3.33,43.68-4.79,47.05-.37,1.14-.57,2-.66,2.64Z"/>
        <path class="cls-1" d="M16.67,244.32c-3.44,0-12.56,0-12.56-6.07,0-1.63.37-3.51,1.12-5.77.04-.11.08-.21.12-.32,1.32-2.9,3.14-13.04,4.29-44.77.95-25.88,1.42-49.77,1.42-71.03s-.42-38.59-1.26-51.8c-1.6-25.31-4.26-32.37-5.7-34.33C.7,25.91,0,24.11,0,22.63c0-4.86,5.6-8.35,18.72-11.66,11.07-2.81,20.16-4.2,27.03-4.2,10.9,0,13.19,4.15,13.19,7.65l-.33,4.36c-2.61,21.71-3.99,45.05-4.1,69.57,1.16-1.7,2.63-3.78,4.42-6.27,2.42-3.36,6.85-9.5,13.29-18.35,6.46-8.88,12.49-16.9,17.94-23.8h0c5.5-6.98,11.14-13.6,16.77-19.66,5.96-6.41,10.83-10.33,14.89-12.01,4.02-1.65,11.56-2.46,23.04-2.46,10.22,0,19.67.91,19.67,7.35,0,3.14-2.95,5.11-5.16,6.32-2.19,1.19-5.29,3.16-9.21,5.84-3.83,2.62-12.14,10.06-24.72,22.11-12.17,11.67-24.55,25.47-36.84,41.07.84.15,1.78.34,2.83.55,2.44.49,6.48,2.2,12.37,5.18,5.84,2.99,11.16,6.79,15.81,11.33,4.69,4.57,9.23,11.6,13.48,20.88,4.25,9.27,6.74,18.15,7.4,26.38.63,7.89,1.26,14.99,1.89,21.28.62,6.19,2.25,15.21,4.84,26.81,3.18,14.28,6.33,18.14,7.93,19.17.1.07.19.12.27.2,1.82,1.46,2.79,3.43,2.79,5.68,0,6.67-9.24,10.28-16.19,12.41-9.54,2.91-18.21,4.4-25.77,4.4-11.84,0-14.9-7.2-15.67-11.51-1.1-6.57-1.83-21.51-2.26-45.72v-12.7c0-21.4-3.02-36.98-8.98-46.32-6.22-9.8-10.44-12.56-12.89-13.15-2.33-.71-3.61-1.11-4.33-1.31l-1.79.82c-4.68,5.51-8.43,10.89-11.16,15.97-3.58,6.62-4.27,9.57-4.37,10.74l-.62,4.09c0,29.35,1.28,54.78,3.77,75.56.61,3.62.66,4.35.66,4.82,0,6.23-5.52,11.15-16.88,15.06-10.25,3.52-18.45,5.23-25.08,5.23ZM10.64,237.3c.79.24,2.52.56,6.02.56,5.82,0,13.55-1.65,22.98-4.87,8.07-2.8,12.52-5.97,12.52-8.97,0-.08-.07-.79-.59-3.91-2.55-21.24-3.84-47-3.84-76.72,0-.15.01-.33.04-.49l.63-4.13c.22-2.81,1.85-7.03,5.09-13.04,3.04-5.64,7.21-11.57,12.41-17.64.31-.36.68-.65,1.11-.84l3.48-1.59c.42-.19.88-.29,1.34-.29.6,0,.8,0,6.34,1.73,5.11,1.21,10.62,6.43,16.62,15.9,6.72,10.52,9.99,26.8,9.99,49.78v12.65c.42,23.49,1.14,38.54,2.17,44.67.51,2.85,2.03,6.17,9.31,6.17s14.94-1.39,23.87-4.13c11.31-3.48,11.63-6.23,11.63-6.24,0-.17,0-.32-.28-.58-4.34-2.94-7.7-10.27-10.55-23.07-2.65-11.85-4.32-21.13-4.96-27.57-.63-6.34-1.27-13.48-1.9-21.4-.6-7.49-2.9-15.63-6.83-24.21-3.93-8.55-8-14.93-12.13-18.95-4.18-4.08-8.96-7.51-14.22-10.19-6.93-3.53-9.69-4.39-10.71-4.61-2.08-.42-3.7-.72-4.85-.94-3.22-.58-4.38-2.75-4.38-4.6s.73-3.1,1.41-3.84c12.86-16.44,25.86-30.98,38.63-43.22,13.01-12.47,21.37-19.93,25.54-22.77,4.16-2.86,7.35-4.87,9.77-6.19.28-.16.54-.31.74-.45-1.61-.49-5.04-1.09-12.16-1.09-13.05,0-18.4,1.07-20.59,1.97-2.16.89-6.09,3.42-12.62,10.44-5.51,5.92-11.03,12.39-16.43,19.25h0c-5.39,6.82-11.38,14.77-17.78,23.6-6.43,8.85-10.85,14.95-13.27,18.33-2.4,3.32-4.22,5.92-5.47,7.81-1.23,1.83-3.19,4.27-6.01,4.27-1.09,0-4.65-.45-4.65-6.38,0-25.95,1.39-50.65,4.13-73.42l.3-3.97c-.03.23-1.18-.96-6.74-.96-6.34,0-14.9,1.36-25.45,4.02-10.25,2.59-12.99,4.66-13.68,5.39.31.56,1.02,1.67,2.62,3.71,2.21,2.99,5.26,10.08,7.01,37.83.84,13.35,1.27,30.92,1.27,52.21s-.48,45.3-1.43,71.25c-1.27,34.95-3.33,43.68-4.79,47.05-.37,1.15-.57,2-.66,2.64Z"/>
        <path class="cls-26" d="M16.67,243.67c-3.44,0-12.56,0-12.56-6.07,0-1.63.37-3.52,1.12-5.77.04-.11.08-.22.12-.32,1.32-2.91,3.14-13.04,4.29-44.78.95-25.88,1.42-49.77,1.42-71.01s-.42-38.6-1.26-51.8c-1.6-25.32-4.26-32.38-5.7-34.34C.7,25.26,0,23.46,0,21.98c0-4.86,5.6-8.35,18.72-11.67,11.07-2.79,20.16-4.2,27.03-4.2,10.9,0,13.19,4.17,13.19,7.65l-.33,4.36c-2.61,21.71-3.99,45.05-4.1,69.57,1.16-1.7,2.63-3.79,4.42-6.26,2.42-3.38,6.85-9.49,13.29-18.34,6.46-8.9,12.49-16.92,17.94-23.82h0c5.5-6.98,11.14-13.59,16.77-19.63,5.96-6.41,10.83-10.35,14.89-12.01,4.02-1.66,11.56-2.47,23.04-2.47,10.22,0,19.67.9,19.67,7.36,0,3.12-2.95,5.09-5.16,6.3-2.19,1.19-5.29,3.16-9.21,5.84-3.83,2.62-12.14,10.05-24.72,22.11-12.17,11.66-24.55,25.47-36.84,41.05.84.15,1.78.34,2.83.55,2.44.49,6.48,2.18,12.37,5.18,5.84,2.99,11.16,6.79,15.81,11.32,4.69,4.59,9.23,11.6,13.48,20.88,4.25,9.26,6.74,18.14,7.4,26.39.63,7.87,1.26,14.97,1.89,21.27.62,6.19,2.25,15.21,4.84,26.82,3.18,14.28,6.33,18.14,7.93,19.17.1.05.19.12.27.19,1.82,1.46,2.79,3.43,2.79,5.68,0,6.66-9.24,10.28-16.19,12.41-9.54,2.92-18.21,4.41-25.77,4.41-11.84,0-14.9-7.22-15.67-11.52-1.1-6.56-1.83-21.52-2.26-45.71v-12.71c0-21.4-3.02-36.98-8.98-46.31-6.22-9.8-10.44-12.55-12.89-13.14-2.33-.71-3.61-1.11-4.33-1.32l-1.79.82c-4.68,5.51-8.43,10.89-11.16,15.95-3.58,6.64-4.27,9.58-4.37,10.74l-.62,4.1c0,29.36,1.28,54.77,3.77,75.56.61,3.62.66,4.35.66,4.82,0,6.22-5.52,11.16-16.88,15.06-10.25,3.53-18.45,5.23-25.08,5.23ZM10.64,236.66c.79.23,2.52.55,6.02.55,5.82,0,13.55-1.63,22.98-4.87,8.07-2.77,12.52-5.96,12.52-8.95,0-.08-.07-.78-.59-3.91-2.55-21.23-3.84-47.01-3.84-76.72,0-.16.01-.32.04-.49l.63-4.1c.22-2.81,1.85-7.04,5.09-13.06,3.04-5.64,7.21-11.57,12.41-17.64.31-.36.68-.63,1.11-.84l3.48-1.59c.42-.19.88-.29,1.34-.29.6,0,.8,0,6.34,1.74,5.11,1.21,10.62,6.44,16.62,15.9,6.72,10.52,9.99,26.8,9.99,49.77v12.65c.42,23.5,1.14,38.56,2.17,44.69.51,2.84,2.03,6.14,9.31,6.14s14.94-1.39,23.87-4.12c11.31-3.47,11.63-6.22,11.63-6.23,0-.18,0-.32-.28-.58-4.34-2.94-7.7-10.28-10.55-23.07-2.65-11.85-4.32-21.12-4.96-27.57-.63-6.34-1.27-13.48-1.9-21.41-.6-7.48-2.9-15.62-6.83-24.21-3.93-8.55-8-14.93-12.13-18.96-4.18-4.06-8.96-7.48-14.22-10.17-6.93-3.53-9.69-4.41-10.71-4.61-2.08-.41-3.7-.73-4.85-.94-3.22-.56-4.38-2.75-4.38-4.59s.73-3.1,1.41-3.84c12.86-16.44,25.86-30.98,38.63-43.22,13.01-12.47,21.37-19.92,25.54-22.78,4.16-2.84,7.35-4.87,9.77-6.18.28-.16.54-.3.74-.43-1.61-.49-5.04-1.09-12.16-1.09-13.05,0-18.4,1.07-20.59,1.98-2.16.89-6.09,3.42-12.62,10.44-5.51,5.91-11.03,12.4-16.43,19.24h0c-5.39,6.85-11.38,14.79-17.78,23.62-6.43,8.84-10.85,14.95-13.27,18.32-2.4,3.34-4.22,5.93-5.47,7.81-1.23,1.84-3.19,4.3-6.01,4.3-1.09,0-4.65-.47-4.65-6.4,0-25.95,1.39-50.65,4.13-73.42l.3-3.98c-.03.25-1.18-.95-6.74-.95-6.34,0-14.9,1.35-25.45,4.02-10.25,2.58-12.99,4.65-13.68,5.38.31.55,1.02,1.68,2.62,3.71,2.21,2.99,5.26,10.06,7.01,37.84.84,13.35,1.27,30.91,1.27,52.21s-.48,45.3-1.43,71.24c-1.27,34.97-3.33,43.7-4.79,47.05-.37,1.14-.57,2-.66,2.64Z"/>
        <path class="cls-25" d="M16.67,243.03c-3.44,0-12.56,0-12.56-6.08,0-1.62.37-3.51,1.12-5.76.04-.11.08-.21.12-.32,1.32-2.91,3.14-13.04,4.29-44.78.95-25.86,1.42-49.75,1.42-71.02s-.42-38.58-1.26-51.79c-1.6-25.31-4.26-32.38-5.7-34.34C.7,24.62,0,22.81,0,21.34c0-4.86,5.6-8.35,18.72-11.66,11.07-2.79,20.16-4.22,27.03-4.22,10.9,0,13.19,4.16,13.19,7.66l-.33,4.35c-2.61,21.7-3.99,45.06-4.1,69.57,1.16-1.69,2.63-3.78,4.42-6.26,2.42-3.36,6.85-9.49,13.29-18.35,6.46-8.89,12.49-16.9,17.94-23.82h0c5.5-6.99,11.14-13.58,16.77-19.64,5.96-6.41,10.83-10.33,14.89-12.01,4.02-1.65,11.56-2.46,23.04-2.46,10.22,0,19.67.89,19.67,7.33,0,3.14-2.95,5.09-5.16,6.32-2.19,1.19-5.29,3.16-9.21,5.84-3.83,2.62-12.14,10.06-24.72,22.11-12.17,11.66-24.55,25.46-36.84,41.05.84.16,1.78.35,2.83.56,2.44.49,6.48,2.18,12.37,5.18,5.84,2.98,11.16,6.78,15.81,11.31,4.69,4.59,9.23,11.62,13.48,20.88,4.25,9.27,6.74,18.14,7.4,26.38.63,7.88,1.26,14.97,1.89,21.28.62,6.19,2.25,15.21,4.84,26.82,3.18,14.27,6.33,18.14,7.93,19.17.1.06.19.12.27.21,1.82,1.46,2.79,3.42,2.79,5.67,0,6.67-9.24,10.28-16.19,12.41-9.54,2.92-18.21,4.41-25.77,4.41-11.84,0-14.9-7.21-15.67-11.51-1.1-6.56-1.83-21.52-2.26-45.72v-12.71c0-21.39-3.02-36.98-8.98-46.3-6.22-9.82-10.44-12.56-12.89-13.15-2.33-.73-3.61-1.11-4.33-1.33l-1.79.82c-4.68,5.51-8.43,10.88-11.16,15.96-3.58,6.63-4.27,9.58-4.37,10.75l-.62,4.09c0,29.36,1.28,54.78,3.77,75.56.61,3.62.66,4.35.66,4.81,0,6.24-5.52,11.16-16.88,15.06-10.25,3.53-18.45,5.25-25.08,5.25ZM10.64,236.02c.79.23,2.52.56,6.02.56,5.82,0,13.55-1.65,22.98-4.88,8.07-2.77,12.52-5.95,12.52-8.97,0-.08-.07-.78-.59-3.89-2.55-21.24-3.84-47.01-3.84-76.73,0-.16.01-.33.04-.48l.63-4.13c.22-2.82,1.85-7.03,5.09-13.05,3.04-5.64,7.21-11.57,12.41-17.63.31-.36.68-.66,1.11-.85l3.48-1.58c.42-.19.88-.29,1.34-.29.6,0,.8,0,6.34,1.73,5.11,1.22,10.62,6.43,16.62,15.9,6.72,10.52,9.99,26.81,9.99,49.77v12.65c.42,23.49,1.14,38.54,2.17,44.67.51,2.86,2.03,6.16,9.31,6.16s14.94-1.38,23.87-4.11c11.31-3.48,11.63-6.22,11.63-6.25,0-.16,0-.32-.28-.58-4.34-2.94-7.7-10.28-10.55-23.06-2.65-11.86-4.32-21.13-4.96-27.58-.63-6.34-1.27-13.48-1.9-21.41-.6-7.48-2.9-15.63-6.83-24.19-3.93-8.55-8-14.94-12.13-18.96-4.18-4.08-8.96-7.5-14.22-10.19-6.93-3.53-9.69-4.41-10.71-4.6-2.08-.43-3.7-.74-4.85-.96-3.22-.56-4.38-2.73-4.38-4.57s.73-3.11,1.41-3.86c12.86-16.44,25.86-30.98,38.63-43.22,13.01-12.45,21.37-19.92,25.54-22.77,4.16-2.85,7.35-4.87,9.77-6.17.28-.17.54-.32.74-.45-1.61-.48-5.04-1.07-12.16-1.07-13.05,0-18.4,1.06-20.59,1.96-2.16.88-6.09,3.42-12.62,10.42-5.51,5.93-11.03,12.41-16.43,19.26h0c-5.39,6.83-11.38,14.78-17.78,23.61-6.43,8.84-10.85,14.95-13.27,18.32-2.4,3.33-4.22,5.94-5.47,7.81-1.23,1.83-3.19,4.28-6.01,4.28-1.09,0-4.65-.45-4.65-6.39,0-25.94,1.39-50.65,4.13-73.42l.3-3.96c-.03.23-1.18-.95-6.74-.95-6.34,0-14.9,1.35-25.45,4.02-10.25,2.58-12.99,4.66-13.68,5.38.31.56,1.02,1.68,2.62,3.72,2.21,2.98,5.26,10.05,7.01,37.83.84,13.35,1.27,30.92,1.27,52.2s-.48,45.31-1.43,71.26c-1.27,34.96-3.33,43.68-4.79,47.04-.37,1.15-.57,2-.66,2.64Z"/>
        <path class="cls-22" d="M16.67,242.39c-3.44,0-12.56,0-12.56-6.08,0-1.63.37-3.51,1.12-5.77.04-.1.08-.21.12-.31,1.32-2.91,3.14-13.04,4.29-44.77.95-25.88,1.42-49.77,1.42-71.01s-.42-38.6-1.26-51.82c-1.6-25.29-4.26-32.36-5.7-34.33C.7,23.96,0,22.17,0,20.69c0-4.86,5.6-8.35,18.72-11.67,11.07-2.79,20.16-4.2,27.03-4.2,10.9,0,13.19,4.17,13.19,7.66l-.33,4.35c-2.61,21.71-3.99,45.05-4.1,69.57,1.16-1.7,2.63-3.78,4.42-6.26,2.42-3.37,6.85-9.49,13.29-18.34,6.46-8.9,12.49-16.91,17.94-23.82h0c5.5-6.99,11.14-13.59,16.77-19.64,5.96-6.41,10.83-10.35,14.89-12.01,4.02-1.65,11.56-2.45,23.04-2.45,10.22,0,19.67.89,19.67,7.34,0,3.14-2.95,5.1-5.16,6.31-2.19,1.19-5.29,3.16-9.21,5.85-3.83,2.61-12.14,10.05-24.72,22.11-12.17,11.67-24.55,25.46-36.84,41.05.84.16,1.78.34,2.83.56,2.44.49,6.48,2.2,12.37,5.19,5.84,2.98,11.16,6.79,15.81,11.31,4.69,4.59,9.23,11.6,13.48,20.88,4.25,9.27,6.74,18.14,7.4,26.38.63,7.89,1.26,14.97,1.89,21.27.62,6.19,2.25,15.21,4.84,26.8,3.18,14.29,6.33,18.14,7.93,19.18.1.06.19.14.27.19,1.82,1.47,2.79,3.43,2.79,5.68,0,6.68-9.24,10.29-16.19,12.41-9.54,2.92-18.21,4.41-25.77,4.41-11.84,0-14.9-7.22-15.67-11.52-1.1-6.56-1.83-21.51-2.26-45.72v-12.71c0-21.39-3.02-36.98-8.98-46.31-6.22-9.8-10.44-12.56-12.89-13.15-2.33-.72-3.61-1.09-4.33-1.31l-1.79.82c-4.68,5.53-8.43,10.88-11.16,15.96-3.58,6.65-4.27,9.58-4.37,10.74l-.62,4.1c0,29.36,1.28,54.78,3.77,75.56.61,3.62.66,4.35.66,4.82,0,6.24-5.52,11.16-16.88,15.06-10.25,3.54-18.45,5.25-25.08,5.25ZM10.64,235.37c.79.23,2.52.56,6.02.56,5.82,0,13.55-1.64,22.98-4.88,8.07-2.77,12.52-5.96,12.52-8.96,0-.07-.07-.78-.59-3.89-2.55-21.25-3.84-47.01-3.84-76.73,0-.17.01-.33.04-.49l.63-4.11c.22-2.83,1.85-7.04,5.09-13.06,3.04-5.64,7.21-11.57,12.41-17.64.31-.36.68-.64,1.11-.84l3.48-1.58c.42-.19.88-.29,1.34-.29.6,0,.8,0,6.34,1.72,5.11,1.22,10.62,6.44,16.62,15.9,6.72,10.52,9.99,26.81,9.99,49.78v12.65c.42,23.5,1.14,38.55,2.17,44.69.51,2.83,2.03,6.14,9.31,6.14s14.94-1.38,23.87-4.13c11.31-3.47,11.63-6.21,11.63-6.24,0-.16,0-.31-.28-.56-4.34-2.95-7.7-10.29-10.55-23.07-2.65-11.85-4.32-21.13-4.96-27.58-.63-6.33-1.27-13.47-1.9-21.39-.6-7.48-2.9-15.63-6.83-24.21-3.93-8.55-8-14.92-12.13-18.95-4.18-4.08-8.96-7.51-14.22-10.18-6.93-3.54-9.69-4.41-10.71-4.62-2.08-.41-3.7-.73-4.85-.93-3.22-.57-4.38-2.75-4.38-4.6s.73-3.1,1.41-3.84c12.86-16.44,25.86-30.98,38.63-43.22,13.01-12.47,21.37-19.92,25.54-22.78,4.16-2.84,7.35-4.86,9.77-6.18.28-.15.54-.3.74-.43-1.61-.49-5.04-1.1-12.16-1.1-13.05,0-18.4,1.07-20.59,1.98-2.16.89-6.09,3.42-12.62,10.44-5.51,5.92-11.03,12.39-16.43,19.24h0c-5.39,6.84-11.38,14.77-17.78,23.61-6.43,8.84-10.85,14.95-13.27,18.32-2.4,3.34-4.22,5.94-5.47,7.81-1.23,1.85-3.19,4.28-6.01,4.28-1.09,0-4.65-.46-4.65-6.38,0-25.96,1.39-50.65,4.13-73.42l.3-3.96c-.03.24-1.18-.97-6.74-.97-6.34,0-14.9,1.36-25.45,4.02-10.25,2.6-12.99,4.66-13.68,5.39.31.56,1.02,1.68,2.62,3.71,2.21,3,5.26,10.08,7.01,37.84.84,13.35,1.27,30.91,1.27,52.22s-.48,45.3-1.43,71.24c-1.27,34.95-3.33,43.7-4.79,47.05-.37,1.14-.57,2-.66,2.64Z"/>
        <path class="cls-18" d="M16.67,241.74c-3.44,0-12.56,0-12.56-6.07,0-1.64.37-3.52,1.12-5.78.04-.1.08-.21.12-.31,1.32-2.92,3.14-13.04,4.29-44.78.95-25.87,1.42-49.75,1.42-71.01s-.42-38.59-1.26-51.81c-1.6-25.31-4.26-32.36-5.7-34.33C.7,23.31,0,21.53,0,20.05c0-4.87,5.6-8.35,18.72-11.67,11.07-2.79,20.16-4.2,27.03-4.2,10.9,0,13.19,4.16,13.19,7.65l-.33,4.37c-2.61,21.71-3.99,45.05-4.1,69.57,1.16-1.7,2.63-3.79,4.42-6.26,2.42-3.37,6.85-9.49,13.29-18.34,6.46-8.9,12.49-16.91,17.94-23.82h0c5.5-6.99,11.14-13.59,16.77-19.63,5.96-6.42,10.83-10.35,14.89-12.02,4.02-1.65,11.56-2.46,23.04-2.46,10.22,0,19.67.89,19.67,7.34,0,3.13-2.95,5.1-5.16,6.32-2.19,1.19-5.29,3.16-9.21,5.84-3.83,2.62-12.14,10.05-24.72,22.12-12.17,11.66-24.55,25.46-36.84,41.05.84.15,1.78.34,2.83.55,2.44.49,6.48,2.18,12.37,5.19,5.84,2.98,11.16,6.78,15.81,11.32,4.69,4.57,9.23,11.6,13.48,20.88,4.25,9.27,6.74,18.15,7.4,26.38.63,7.88,1.26,14.98,1.89,21.3.62,6.17,2.25,15.19,4.84,26.8,3.18,14.28,6.33,18.15,7.93,19.17.1.05.19.12.27.2,1.82,1.46,2.79,3.43,2.79,5.67,0,6.68-9.24,10.28-16.19,12.42-9.54,2.92-18.21,4.39-25.77,4.39-11.84,0-14.9-7.19-15.67-11.5-1.1-6.57-1.83-21.52-2.26-45.72v-12.71c0-21.39-3.02-36.98-8.98-46.31-6.22-9.81-10.44-12.56-12.89-13.15-2.33-.73-3.61-1.11-4.33-1.32l-1.79.82c-4.68,5.52-8.43,10.89-11.16,15.95-3.58,6.64-4.27,9.58-4.37,10.75l-.62,4.1c0,29.35,1.28,54.77,3.77,75.56.61,3.62.66,4.35.66,4.82,0,6.22-5.52,11.15-16.88,15.06-10.25,3.52-18.45,5.23-25.08,5.23ZM10.64,234.72c.79.24,2.52.57,6.02.57,5.82,0,13.55-1.65,22.98-4.87,8.07-2.79,12.52-5.97,12.52-8.97,0-.08-.07-.79-.59-3.91-2.55-21.24-3.84-47.01-3.84-76.72,0-.15.01-.33.04-.49l.63-4.11c.22-2.82,1.85-7.04,5.09-13.06,3.04-5.64,7.21-11.58,12.41-17.64.31-.35.68-.64,1.11-.84l3.48-1.59c.42-.19.88-.29,1.34-.29.6,0,.8,0,6.34,1.72,5.11,1.21,10.62,6.43,16.62,15.89,6.72,10.53,9.99,26.82,9.99,49.79v12.65c.42,23.51,1.14,38.54,2.17,44.68.51,2.84,2.03,6.15,9.31,6.15s14.94-1.39,23.87-4.12c11.31-3.47,11.63-6.22,11.63-6.24,0-.17,0-.32-.28-.57-4.34-2.94-7.7-10.28-10.55-23.07-2.65-11.85-4.32-21.13-4.96-27.57-.63-6.34-1.27-13.48-1.9-21.41-.6-7.49-2.9-15.62-6.83-24.2-3.93-8.55-8-14.93-12.13-18.96-4.18-4.08-8.96-7.5-14.22-10.19-6.93-3.53-9.69-4.39-10.71-4.61-2.08-.42-3.7-.72-4.85-.94-3.22-.58-4.38-2.76-4.38-4.6s.73-3.1,1.41-3.85c12.86-16.43,25.86-30.98,38.63-43.22,13.01-12.47,21.37-19.92,25.54-22.78,4.16-2.84,7.35-4.87,9.77-6.17.28-.16.54-.31.74-.44-1.61-.49-5.04-1.08-12.16-1.08-13.05,0-18.4,1.06-20.59,1.96-2.16.89-6.09,3.42-12.62,10.44-5.51,5.91-11.03,12.39-16.43,19.24h0c-5.39,6.84-11.38,14.79-17.78,23.61-6.43,8.85-10.85,14.96-13.27,18.34-2.4,3.32-4.22,5.92-5.47,7.8-1.23,1.84-3.19,4.28-6.01,4.28-1.09,0-4.65-.46-4.65-6.38,0-25.95,1.39-50.65,4.13-73.42l.3-3.97c-.03.23-1.18-.96-6.74-.96-6.34,0-14.9,1.36-25.45,4.02-10.25,2.58-12.99,4.65-13.68,5.38.31.56,1.02,1.68,2.62,3.71,2.21,2.99,5.26,10.07,7.01,37.83.84,13.35,1.27,30.92,1.27,52.21s-.48,45.3-1.43,71.25c-1.27,34.96-3.33,43.69-4.79,47.05-.37,1.15-.57,2-.66,2.63Z"/>
        <path class="cls-24" d="M16.67,241.09c-3.44,0-12.56,0-12.56-6.07,0-1.63.37-3.51,1.12-5.76.04-.12.08-.21.12-.32,1.32-2.91,3.14-13.05,4.29-44.78.95-25.88,1.42-49.77,1.42-71.01s-.42-38.6-1.26-51.8c-1.6-25.31-4.26-32.38-5.7-34.34C.7,22.68,0,20.87,0,19.41c0-4.88,5.6-8.38,18.72-11.68,11.07-2.79,20.16-4.2,27.03-4.2,10.9,0,13.19,4.16,13.19,7.65l-.33,4.35c-2.61,21.71-3.99,45.06-4.1,69.57,1.16-1.69,2.63-3.78,4.42-6.25,2.42-3.38,6.85-9.5,13.29-18.36,6.46-8.88,12.49-16.9,17.94-23.81h0c5.5-6.98,11.14-13.59,16.77-19.63,5.96-6.41,10.83-10.35,14.89-12.01,4.02-1.66,11.56-2.46,23.04-2.46,10.22,0,19.67.88,19.67,7.33,0,3.14-2.95,5.11-5.16,6.32-2.19,1.19-5.29,3.16-9.21,5.84-3.83,2.62-12.14,10.06-24.72,22.11-12.17,11.67-24.55,25.48-36.84,41.07.84.16,1.78.34,2.83.55,2.44.49,6.48,2.18,12.37,5.18,5.84,2.99,11.16,6.79,15.81,11.32,4.69,4.59,9.23,11.6,13.48,20.88,4.25,9.27,6.74,18.14,7.4,26.38.63,7.89,1.26,14.98,1.89,21.28.62,6.19,2.25,15.21,4.84,26.82,3.18,14.28,6.33,18.14,7.93,19.17.1.06.19.12.27.19,1.82,1.46,2.79,3.43,2.79,5.68,0,6.67-9.24,10.28-16.19,12.41-9.54,2.92-18.21,4.41-25.77,4.41-11.84,0-14.9-7.21-15.67-11.52-1.1-6.57-1.83-21.52-2.26-45.71v-12.71c0-21.41-3.02-36.98-8.98-46.31-6.22-9.8-10.44-12.55-12.89-13.14-2.33-.71-3.61-1.11-4.33-1.3l-1.79.81c-4.68,5.51-8.43,10.89-11.16,15.96-3.58,6.64-4.27,9.58-4.37,10.74l-.62,4.1c0,29.34,1.28,54.77,3.77,75.57.61,3.61.66,4.35.66,4.81,0,6.23-5.52,11.15-16.88,15.06-10.25,3.51-18.45,5.22-25.08,5.22ZM10.64,234.08c.79.23,2.52.56,6.02.56,5.82,0,13.55-1.65,22.98-4.89,8.07-2.77,12.52-5.96,12.52-8.95,0-.09-.07-.8-.59-3.9-2.55-21.25-3.84-47.01-3.84-76.73,0-.16.01-.32.04-.49l.63-4.12c.22-2.81,1.85-7.03,5.09-13.05,3.04-5.64,7.21-11.57,12.41-17.64.31-.36.68-.65,1.11-.84l3.48-1.59c.42-.19.88-.29,1.34-.29.6,0,.8,0,6.34,1.74,5.11,1.21,10.62,6.44,16.62,15.9,6.72,10.52,9.99,26.8,9.99,49.77v12.65c.42,23.5,1.14,38.56,2.17,44.68.51,2.84,2.03,6.15,9.31,6.15s14.94-1.39,23.87-4.13c11.31-3.46,11.63-6.21,11.63-6.23,0-.18,0-.32-.28-.58-4.34-2.94-7.7-10.28-10.55-23.07-2.65-11.85-4.32-21.12-4.96-27.58-.63-6.34-1.27-13.47-1.9-21.41-.6-7.48-2.9-15.62-6.83-24.2-3.93-8.55-8-14.92-12.13-18.95-4.18-4.08-8.96-7.5-14.22-10.19-6.93-3.52-9.69-4.4-10.71-4.61-2.08-.41-3.7-.73-4.85-.93-3.22-.58-4.38-2.75-4.38-4.6s.73-3.1,1.41-3.84c12.86-16.44,25.86-30.98,38.63-43.22,13.01-12.47,21.37-19.92,25.54-22.78,4.16-2.85,7.35-4.87,9.77-6.18.28-.16.54-.31.74-.43-1.61-.49-5.04-1.09-12.16-1.09-13.05,0-18.4,1.07-20.59,1.98-2.16.88-6.09,3.41-12.62,10.44-5.51,5.91-11.03,12.38-16.43,19.24h0c-5.39,6.85-11.38,14.79-17.78,23.62-6.43,8.84-10.85,14.95-13.27,18.32-2.4,3.34-4.22,5.93-5.47,7.81-1.23,1.84-3.19,4.28-6.01,4.28-1.09,0-4.65-.45-4.65-6.38,0-25.94,1.39-50.65,4.13-73.41l.3-3.97c-.03.24-1.18-.96-6.74-.96-6.34,0-14.9,1.35-25.45,4.02-10.25,2.58-12.99,4.65-13.68,5.38.31.56,1.02,1.66,2.62,3.71,2.21,2.99,5.26,10.06,7.01,37.83.84,13.36,1.27,30.92,1.27,52.22s-.48,45.3-1.43,71.24c-1.27,34.96-3.33,43.69-4.79,47.05-.37,1.15-.57,2-.66,2.64Z"/>
        <path class="cls-20" d="M16.67,240.45c-3.44,0-12.56,0-12.56-6.08,0-1.62.37-3.51,1.12-5.75.04-.11.08-.22.12-.32,1.32-2.92,3.14-13.04,4.29-44.79.95-25.85,1.42-49.77,1.42-71.01s-.42-38.58-1.26-51.81c-1.6-25.31-4.26-32.37-5.7-34.33C.7,22.02,0,20.23,0,18.76c0-4.87,5.6-8.35,18.72-11.66,11.07-2.8,20.16-4.23,27.03-4.23,10.9,0,13.19,4.17,13.19,7.66l-.33,4.37c-2.61,21.7-3.99,45.05-4.1,69.56,1.16-1.67,2.63-3.76,4.42-6.25,2.42-3.38,6.85-9.49,13.29-18.36,6.46-8.9,12.49-16.91,17.94-23.82h0c5.5-6.98,11.14-13.59,16.77-19.64,5.96-6.4,10.83-10.33,14.89-12,4.02-1.66,11.56-2.46,23.04-2.46,10.22,0,19.67.88,19.67,7.33,0,3.13-2.95,5.11-5.16,6.32-2.19,1.19-5.29,3.15-9.21,5.83-3.83,2.63-12.14,10.07-24.72,22.11-12.17,11.67-24.55,25.47-36.84,41.05.84.17,1.78.36,2.83.56,2.44.49,6.48,2.18,12.37,5.19,5.84,2.97,11.16,6.78,15.81,11.31,4.69,4.59,9.23,11.62,13.48,20.88,4.25,9.27,6.74,18.14,7.4,26.38.63,7.88,1.26,14.97,1.89,21.28.62,6.19,2.25,15.21,4.84,26.8,3.18,14.29,6.33,18.15,7.93,19.18.1.06.19.12.27.19,1.82,1.48,2.79,3.44,2.79,5.68,0,6.68-9.24,10.28-16.19,12.41-9.54,2.93-18.21,4.41-25.77,4.41-11.84,0-14.9-7.22-15.67-11.51-1.1-6.58-1.83-21.52-2.26-45.74v-12.7c0-21.39-3.02-36.98-8.98-46.32-6.22-9.8-10.44-12.56-12.89-13.13-2.33-.73-3.61-1.11-4.33-1.32l-1.79.82c-4.68,5.51-8.43,10.87-11.16,15.95-3.58,6.63-4.27,9.58-4.37,10.74l-.62,4.1c0,29.36,1.28,54.78,3.77,75.56.61,3.63.66,4.36.66,4.81,0,6.23-5.52,11.16-16.88,15.07-10.25,3.54-18.45,5.24-25.08,5.24ZM10.64,233.42c.79.24,2.52.56,6.02.56,5.82,0,13.55-1.63,22.98-4.87,8.07-2.77,12.52-5.96,12.52-8.97,0-.07-.07-.78-.59-3.89-2.55-21.25-3.84-47.02-3.84-76.73,0-.16.01-.32.04-.49l.63-4.11c.22-2.81,1.85-7.04,5.09-13.05,3.04-5.64,7.21-11.59,12.41-17.66.31-.34.68-.63,1.11-.81l3.48-1.59c.42-.2.88-.3,1.34-.3.6,0,.8,0,6.34,1.74,5.11,1.21,10.62,6.43,16.62,15.89,6.72,10.53,9.99,26.82,9.99,49.79v12.65c.42,23.5,1.14,38.55,2.17,44.68.51,2.86,2.03,6.16,9.31,6.16s14.94-1.38,23.87-4.13c11.31-3.46,11.63-6.21,11.63-6.23,0-.16,0-.31-.28-.57-4.34-2.95-7.7-10.28-10.55-23.07-2.65-11.85-4.32-21.13-4.96-27.57-.63-6.34-1.27-13.48-1.9-21.41-.6-7.48-2.9-15.62-6.83-24.2-3.93-8.55-8-14.93-12.13-18.95-4.18-4.08-8.96-7.51-14.22-10.19-6.93-3.53-9.69-4.41-10.71-4.62-2.08-.41-3.7-.72-4.85-.93-3.22-.57-4.38-2.75-4.38-4.6s.73-3.1,1.41-3.84c12.86-16.44,25.86-30.98,38.63-43.22,13.01-12.47,21.37-19.92,25.54-22.78,4.16-2.84,7.35-4.86,9.77-6.19.28-.14.54-.29.74-.43-1.61-.48-5.04-1.08-12.16-1.08-13.05,0-18.4,1.07-20.59,1.98-2.16.88-6.09,3.42-12.62,10.43-5.51,5.92-11.03,12.39-16.43,19.25h0c-5.39,6.83-11.38,14.78-17.78,23.61-6.43,8.84-10.85,14.95-13.27,18.32-2.4,3.34-4.22,5.93-5.47,7.81-1.23,1.84-3.19,4.28-6.01,4.28-1.09,0-4.65-.47-4.65-6.39,0-25.95,1.39-50.64,4.13-73.42l.3-3.96c-.03.23-1.18-.96-6.74-.96-6.34,0-14.9,1.35-25.45,4.01-10.25,2.6-12.99,4.67-13.68,5.39.31.56,1.02,1.68,2.62,3.71,2.21,2.99,5.26,10.07,7.01,37.83.84,13.36,1.27,30.93,1.27,52.22s-.48,45.31-1.43,71.25c-1.27,34.97-3.33,43.69-4.79,47.05-.37,1.15-.57,2.01-.66,2.64Z"/>
        <path class="cls-21" d="M16.67,239.8c-3.44,0-12.56,0-12.56-6.07,0-1.63.37-3.52,1.12-5.77.04-.1.08-.21.12-.31,1.32-2.91,3.14-13.04,4.29-44.79.95-25.87,1.42-49.76,1.42-71.01s-.42-38.6-1.26-51.8c-1.6-25.31-4.26-32.38-5.7-34.34C.7,21.39,0,19.58,0,18.11c0-4.86,5.6-8.35,18.72-11.67,11.07-2.79,20.16-4.2,27.03-4.2,10.9,0,13.19,4.16,13.19,7.66l-.33,4.35c-2.61,21.71-3.99,45.05-4.1,69.57,1.16-1.7,2.63-3.78,4.42-6.25,2.42-3.38,6.85-9.49,13.29-18.35,6.46-8.9,12.49-16.91,17.94-23.82h0c5.5-6.98,11.14-13.59,16.77-19.64,5.96-6.41,10.83-10.34,14.89-12.01,4.02-1.66,11.56-2.46,23.04-2.46,10.22,0,19.67.89,19.67,7.34,0,3.12-2.95,5.1-5.16,6.31-2.19,1.19-5.29,3.15-9.21,5.84-3.83,2.63-12.14,10.06-24.72,22.12-12.17,11.65-24.55,25.46-36.84,41.05.84.16,1.78.34,2.83.56,2.44.49,6.48,2.18,12.37,5.19,5.84,2.98,11.16,6.78,15.81,11.31,4.69,4.58,9.23,11.6,13.48,20.88,4.25,9.27,6.74,18.14,7.4,26.38.63,7.89,1.26,14.97,1.89,21.28.62,6.19,2.25,15.21,4.84,26.81,3.18,14.28,6.33,18.14,7.93,19.17.1.06.19.13.27.2,1.82,1.47,2.79,3.43,2.79,5.67,0,6.69-9.24,10.28-16.19,12.42-9.54,2.93-18.21,4.41-25.77,4.41-11.84,0-14.9-7.22-15.67-11.52-1.1-6.56-1.83-21.52-2.26-45.72v-12.7c0-21.39-3.02-36.98-8.98-46.31-6.22-9.8-10.44-12.56-12.89-13.14-2.33-.72-3.61-1.1-4.33-1.32l-1.79.81c-4.68,5.53-8.43,10.9-11.16,15.96-3.58,6.65-4.27,9.58-4.37,10.76l-.62,4.08c0,29.36,1.28,54.78,3.77,75.57.61,3.62.66,4.35.66,4.81,0,6.24-5.52,11.16-16.88,15.07-10.25,3.52-18.45,5.23-25.08,5.23ZM10.64,232.78c.79.24,2.52.56,6.02.56,5.82,0,13.55-1.63,22.98-4.88,8.07-2.77,12.52-5.96,12.52-8.96,0-.08-.07-.78-.59-3.89-2.55-21.25-3.84-47.01-3.84-76.73,0-.16.01-.32.04-.49l.63-4.11c.22-2.83,1.85-7.04,5.09-13.07,3.04-5.64,7.21-11.56,12.41-17.63.31-.36.68-.64,1.11-.84l3.48-1.58c.42-.19.88-.29,1.34-.29.6,0,.8,0,6.34,1.72,5.11,1.21,10.62,6.44,16.62,15.89,6.72,10.53,9.99,26.82,9.99,49.79v12.65c.42,23.51,1.14,38.55,2.17,44.69.51,2.84,2.03,6.14,9.31,6.14s14.94-1.39,23.87-4.12c11.31-3.47,11.63-6.21,11.63-6.25,0-.16,0-.3-.28-.56-4.34-2.96-7.7-10.29-10.55-23.07-2.65-11.85-4.32-21.12-4.96-27.57-.63-6.34-1.27-13.47-1.9-21.41-.6-7.48-2.9-15.62-6.83-24.21-3.93-8.55-8-14.93-12.13-18.95-4.18-4.08-8.96-7.5-14.22-10.18-6.93-3.53-9.69-4.41-10.71-4.61-2.08-.41-3.7-.73-4.85-.93-3.22-.58-4.38-2.75-4.38-4.6s.73-3.1,1.41-3.84c12.86-16.44,25.86-30.98,38.63-43.22,13.01-12.47,21.37-19.92,25.54-22.78,4.16-2.84,7.35-4.86,9.77-6.18.28-.15.54-.3.74-.43-1.61-.49-5.04-1.1-12.16-1.1-13.05,0-18.4,1.07-20.59,1.98-2.16.89-6.09,3.42-12.62,10.43-5.51,5.92-11.03,12.39-16.43,19.24h0c-5.39,6.84-11.38,14.78-17.78,23.61-6.43,8.85-10.85,14.96-13.27,18.32-2.4,3.34-4.22,5.94-5.47,7.81-1.23,1.84-3.19,4.28-6.01,4.28-1.09,0-4.65-.46-4.65-6.38,0-25.95,1.39-50.64,4.13-73.42l.3-3.96c-.03.25-1.18-.96-6.74-.96-6.34,0-14.9,1.36-25.45,4.02-10.25,2.58-12.99,4.66-13.68,5.38.31.56,1.02,1.68,2.62,3.71,2.21,2.99,5.26,10.06,7.01,37.83.84,13.35,1.27,30.91,1.27,52.21s-.48,45.31-1.43,71.25c-1.27,34.96-3.33,43.7-4.79,47.05-.37,1.15-.57,2.01-.66,2.64Z"/>
        <path class="cls-23" d="M16.67,239.16c-3.44,0-12.56,0-12.56-6.07,0-1.64.37-3.51,1.12-5.77.04-.11.08-.22.12-.32,1.32-2.9,3.14-13.04,4.29-44.78.95-25.86,1.42-49.76,1.42-71.01s-.42-38.59-1.26-51.81c-1.6-25.31-4.26-32.36-5.7-34.33C.7,20.73,0,18.95,0,17.46c0-4.85,5.6-8.35,18.72-11.66C29.79,3.02,38.88,1.59,45.75,1.59c10.9,0,13.19,4.16,13.19,7.65l-.33,4.37c-2.61,21.71-3.99,45.04-4.1,69.56,1.16-1.69,2.63-3.77,4.42-6.25,2.42-3.36,6.85-9.49,13.29-18.35,6.46-8.9,12.49-16.9,17.94-23.81h0c5.5-6.99,11.14-13.59,16.77-19.63,5.96-6.42,10.83-10.35,14.89-12.02,4.02-1.65,11.56-2.46,23.04-2.46,10.22,0,19.67.89,19.67,7.34,0,3.14-2.95,5.1-5.16,6.32-2.19,1.19-5.29,3.16-9.21,5.84-3.83,2.62-12.14,10.06-24.72,22.12-12.17,11.66-24.55,25.46-36.84,41.04.84.16,1.78.36,2.83.56,2.44.49,6.48,2.19,12.37,5.2,5.84,2.98,11.16,6.78,15.81,11.31,4.69,4.58,9.23,11.61,13.48,20.87,4.25,9.27,6.74,18.15,7.4,26.39.63,7.88,1.26,14.98,1.89,21.28.62,6.19,2.25,15.21,4.84,26.82,3.18,14.27,6.33,18.14,7.93,19.17.1.06.19.12.27.19,1.82,1.47,2.79,3.43,2.79,5.67,0,6.69-9.24,10.29-16.19,12.43-9.54,2.92-18.21,4.4-25.77,4.4-11.84,0-14.9-7.21-15.67-11.51-1.1-6.57-1.83-21.52-2.26-45.72v-12.7c0-21.4-3.02-36.98-8.98-46.32-6.22-9.8-10.44-12.56-12.89-13.15-2.33-.72-3.61-1.11-4.33-1.31l-1.79.81c-4.68,5.53-8.43,10.9-11.16,15.97-3.58,6.63-4.27,9.58-4.37,10.75l-.62,4.09c0,29.35,1.28,54.76,3.77,75.56.61,3.62.66,4.35.66,4.82,0,6.22-5.52,11.15-16.88,15.06-10.25,3.51-18.45,5.23-25.08,5.23ZM10.64,232.14c.79.23,2.52.56,6.02.56,5.82,0,13.55-1.65,22.98-4.87,8.07-2.79,12.52-5.97,12.52-8.97,0-.08-.07-.8-.59-3.91-2.55-21.24-3.84-47-3.84-76.71,0-.17.01-.33.04-.49l.63-4.11c.22-2.83,1.85-7.05,5.09-13.06,3.04-5.64,7.21-11.57,12.41-17.64.31-.37.68-.65,1.11-.84l3.48-1.58c.42-.19.88-.29,1.34-.29.6,0,.8,0,6.34,1.73,5.11,1.22,10.62,6.43,16.62,15.89,6.72,10.53,9.99,26.82,9.99,49.79v12.65c.42,23.49,1.14,38.54,2.17,44.67.51,2.84,2.03,6.17,9.31,6.17s14.94-1.39,23.87-4.13c11.31-3.47,11.63-6.22,11.63-6.25,0-.16,0-.31-.28-.56-4.34-2.94-7.7-10.29-10.55-23.07-2.65-11.84-4.32-21.12-4.96-27.56-.63-6.35-1.27-13.48-1.9-21.41-.6-7.49-2.9-15.63-6.83-24.21-3.93-8.55-8-14.92-12.13-18.95-4.18-4.08-8.96-7.5-14.22-10.19-6.93-3.52-9.69-4.4-10.71-4.61-2.08-.41-3.7-.71-4.85-.93-3.22-.58-4.38-2.76-4.38-4.6s.73-3.1,1.41-3.86c12.86-16.42,25.86-30.97,38.63-43.21,13.01-12.47,21.37-19.93,25.54-22.79,4.16-2.84,7.35-4.86,9.77-6.17.28-.15.54-.3.74-.44-1.61-.49-5.04-1.08-12.16-1.08-13.05,0-18.4,1.05-20.59,1.96-2.16.89-6.09,3.42-12.62,10.44-5.51,5.92-11.03,12.38-16.43,19.24h0c-5.39,6.84-11.38,14.79-17.78,23.61-6.43,8.85-10.85,14.96-13.27,18.34-2.4,3.32-4.22,5.92-5.47,7.8-1.23,1.84-3.19,4.28-6.01,4.28-1.09,0-4.65-.45-4.65-6.38,0-25.95,1.39-50.65,4.13-73.42l.3-3.97c-.03.23-1.18-.96-6.74-.96-6.34,0-14.9,1.35-25.45,4.01-10.25,2.59-12.99,4.66-13.68,5.4.31.56,1.02,1.67,2.62,3.71,2.21,2.99,5.26,10.06,7.01,37.83.84,13.35,1.27,30.92,1.27,52.21s-.48,45.3-1.43,71.25c-1.27,34.96-3.33,43.69-4.79,47.05-.37,1.15-.57,2-.66,2.64Z"/>
        <path class="cls-19" d="M16.67,238.51c-3.44,0-12.56,0-12.56-6.08,0-1.63.37-3.52,1.12-5.77.04-.1.08-.21.12-.3,1.32-2.91,3.14-13.05,4.29-44.79.95-25.87,1.42-49.76,1.42-71.01s-.42-38.6-1.26-51.81c-1.6-25.31-4.26-32.37-5.7-34.33C.7,20.09,0,18.3,0,16.82c0-4.87,5.6-8.36,18.72-11.67C29.79,2.36,38.88.95,45.75.95c10.9,0,13.19,4.16,13.19,7.65l-.33,4.36c-2.61,21.71-3.99,45.06-4.1,69.57,1.16-1.69,2.63-3.78,4.42-6.25,2.42-3.38,6.85-9.5,13.29-18.36,6.46-8.88,12.49-16.9,17.94-23.81h0c5.5-6.99,11.14-13.59,16.77-19.63,5.96-6.41,10.83-10.35,14.89-12.01,4.02-1.66,11.56-2.46,23.04-2.46,10.22,0,19.67.89,19.67,7.35,0,3.12-2.95,5.09-5.16,6.3-2.19,1.2-5.29,3.17-9.21,5.84-3.83,2.62-12.14,10.06-24.72,22.11-12.17,11.66-24.55,25.47-36.84,41.07.84.16,1.78.34,2.83.55,2.44.49,6.48,2.19,12.37,5.18,5.84,2.98,11.16,6.78,15.81,11.32,4.69,4.57,9.23,11.6,13.48,20.88,4.25,9.26,6.74,18.14,7.4,26.37.63,7.9,1.26,14.99,1.89,21.29.62,6.19,2.25,15.21,4.84,26.8,3.18,14.29,6.33,18.14,7.93,19.18.1.05.19.12.27.19,1.82,1.46,2.79,3.43,2.79,5.68,0,6.67-9.24,10.27-16.19,12.4-9.54,2.94-18.21,4.42-25.77,4.42-11.84,0-14.9-7.21-15.67-11.52-1.1-6.57-1.83-21.52-2.26-45.71v-12.71c0-21.4-3.02-36.99-8.98-46.31-6.22-9.8-10.44-12.56-12.89-13.14-2.33-.71-3.61-1.11-4.33-1.3l-1.79.81c-4.68,5.51-8.43,10.89-11.16,15.94-3.58,6.65-4.27,9.6-4.37,10.76l-.62,4.1c0,29.34,1.28,54.77,3.77,75.56.61,3.62.66,4.35.66,4.82,0,6.22-5.52,11.16-16.88,15.06-10.25,3.52-18.45,5.23-25.08,5.23ZM10.64,231.5c.79.23,2.52.56,6.02.56,5.82,0,13.55-1.65,22.98-4.89,8.07-2.77,12.52-5.96,12.52-8.95,0-.09-.07-.78-.59-3.91-2.55-21.24-3.84-47-3.84-76.71,0-.16.01-.33.04-.49l.63-4.11c.22-2.82,1.85-7.04,5.09-13.05,3.04-5.64,7.21-11.58,12.41-17.64.31-.36.68-.63,1.11-.84l3.48-1.59c.42-.19.88-.28,1.34-.28.6,0,.8,0,6.34,1.72,5.11,1.22,10.62,6.44,16.62,15.9,6.72,10.53,9.99,26.82,9.99,49.79v12.65c.42,23.5,1.14,38.54,2.17,44.68.51,2.84,2.03,6.15,9.31,6.15s14.94-1.39,23.87-4.13c11.31-3.47,11.63-6.21,11.63-6.23,0-.18,0-.33-.28-.58-4.34-2.94-7.7-10.28-10.55-23.07-2.65-11.85-4.32-21.13-4.96-27.58-.63-6.34-1.27-13.48-1.9-21.41-.6-7.48-2.9-15.62-6.83-24.2-3.93-8.55-8-14.93-12.13-18.95-4.18-4.08-8.96-7.5-14.22-10.19-6.93-3.52-9.69-4.4-10.71-4.61-2.08-.41-3.7-.73-4.85-.94-3.22-.57-4.38-2.74-4.38-4.59s.73-3.1,1.41-3.84c12.86-16.44,25.86-30.99,38.63-43.22,13.01-12.47,21.37-19.92,25.54-22.78,4.16-2.85,7.35-4.87,9.77-6.18.28-.16.54-.31.74-.43-1.61-.49-5.04-1.09-12.16-1.09-13.05,0-18.4,1.07-20.59,1.96-2.16.89-6.09,3.42-12.62,10.44-5.51,5.92-11.03,12.39-16.43,19.24h0c-5.39,6.85-11.38,14.79-17.78,23.62-6.43,8.84-10.85,14.95-13.27,18.32-2.4,3.34-4.22,5.93-5.47,7.8-1.23,1.85-3.19,4.3-6.01,4.3-1.09,0-4.65-.45-4.65-6.39,0-25.94,1.39-50.65,4.13-73.41l.3-3.98c-.03.25-1.18-.95-6.74-.95-6.34,0-14.9,1.35-25.45,4.02-10.25,2.58-12.99,4.65-13.68,5.38.31.55,1.02,1.68,2.62,3.71,2.21,2.99,5.26,10.06,7.01,37.83.84,13.36,1.27,30.92,1.27,52.22s-.48,45.3-1.43,71.24c-1.27,34.96-3.33,43.68-4.79,47.05-.37,1.14-.57,2-.66,2.64Z"/>
      </g>
      <path class="cls-30" d="M92.7,36.1c5.48-6.95,11.01-13.44,16.6-19.44,5.58-6,10.17-9.74,13.75-11.22,3.58-1.47,10.85-2.21,21.81-2.21s16.44,1.37,16.44,4.13c0,1.04-1.16,2.2-3.48,3.46-2.32,1.26-5.48,3.28-9.48,6.01-4.01,2.75-12.38,10.22-25.13,22.44-12.76,12.23-25.56,26.56-38.41,43-.43.43-.64,1.02-.64,1.74s.58,1.21,1.74,1.42c1.16.21,2.79.53,4.9.94,2.1.43,5.96,2.06,11.54,4.9,5.58,2.85,10.59,6.44,15.02,10.75,4.43,4.34,8.69,10.96,12.8,19.92,4.11,8.97,6.48,17.38,7.12,25.29.63,7.9,1.26,15.02,1.89,21.34.64,6.32,2.27,15.39,4.9,27.19,2.63,11.81,5.74,18.87,9.33,21.19,1.05.84,1.58,1.89,1.58,3.17,0,3.37-4.64,6.47-13.91,9.32-9.28,2.85-17.55,4.26-24.82,4.26s-11.44-2.94-12.49-8.85c-1.05-6.32-1.79-21.39-2.21-45.21v-12.65c0-22.13-3.16-38.16-9.48-48.06-5.48-8.64-10.43-13.48-14.86-14.54-3.37-1.06-5.17-1.58-5.38-1.58l-3.48,1.58c-5.06,5.9-9.07,11.59-12.01,17.08-2.95,5.48-4.53,9.49-4.74,12l-.63,4.12c0,29.71,1.26,55.12,3.79,76.18.42,2.54.63,4.02.63,4.45,0,4.63-4.9,8.64-14.7,12-9.8,3.37-17.81,5.07-24.03,5.07s-9.33-.95-9.33-2.85c0-1.27.32-2.85.95-4.75,2.1-4.62,3.64-19.96,4.58-45.99.95-26.03,1.42-49.75,1.42-71.13s-.43-38.74-1.27-52.01c-1.26-20.03-3.37-32.04-6.32-36.05-2.32-2.94-3.48-4.85-3.48-5.68,0-2.94,5.42-5.8,16.28-8.53,10.85-2.74,19.6-4.11,26.24-4.11s9.96,1.48,9.96,4.42l-.32,4.11c-2.74,22.76-4.11,47.12-4.11,73.03,0,2.11.48,3.16,1.42,3.16s2.05-.95,3.32-2.85c1.27-1.9,3.11-4.52,5.53-7.9,2.42-3.38,6.84-9.49,13.28-18.33,6.43-8.86,12.38-16.77,17.86-23.73Z"/>
      <g>
        <path class="cls-28" d="M16.67,242.71c-5.09,0-10.94-.51-10.94-4.46,0-1.46.34-3.17,1.03-5.26,1.44-3.2,3.34-13.54,4.5-45.54.94-25.9,1.42-49.8,1.42-71.08s-.43-38.65-1.26-51.9c-1.54-24.42-4.12-32.61-6.01-35.18-3.33-4.23-3.79-5.71-3.79-6.65,0-3.94,5.4-7.04,17.5-10.09,10.94-2.77,19.9-4.16,26.64-4.16,7.68,0,11.57,2.03,11.57,6.03l-.32,4.24c-2.73,22.65-4.11,47.15-4.11,72.91,0,.67.06,1.11.11,1.37.31-.23.87-.75,1.67-1.96,1.27-1.91,3.12-4.55,5.56-7.94,2.42-3.38,6.85-9.49,13.28-18.35,6.45-8.88,12.47-16.87,17.9-23.76h0c5.48-6.95,11.09-13.53,16.69-19.54,5.79-6.25,10.48-10.04,14.32-11.62,3.82-1.57,11.16-2.33,22.43-2.33,12.66,0,18.06,1.71,18.06,5.72,0,2.27-2.47,3.89-4.32,4.9-2.24,1.22-5.39,3.21-9.35,5.92-3.9,2.66-12.29,10.17-24.93,22.27-12.64,12.12-25.5,26.53-38.26,42.84-.13.15-.23.25-.27.47.09.03.21.08.38.1,1.18.22,2.82.52,4.94.95,2.29.46,6.2,2.11,11.96,5.05,5.7,2.9,10.88,6.61,15.41,11.03,4.55,4.44,8.97,11.31,13.15,20.4,4.17,9.09,6.61,17.79,7.26,25.84.63,7.89,1.26,14.99,1.89,21.31.63,6.25,2.27,15.34,4.87,27.01,3.14,14.09,6.43,18.74,8.63,20.16,1.56,1.25,2.32,2.78,2.32,4.53,0,4.26-4.79,7.72-15.05,10.86-9.39,2.9-17.9,4.34-25.29,4.34-10.13,0-13.25-5.53-14.08-10.17-1.08-6.47-1.81-21.34-2.23-45.48v-12.67c0-21.71-3.11-37.59-9.23-47.18-5.23-8.24-9.89-12.89-13.87-13.85-2.98-.93-4.27-1.3-4.83-1.46l-2.66,1.21c-4.86,5.7-8.76,11.26-11.59,16.51-3.53,6.56-4.43,9.8-4.56,11.38l-.65,4.23c.02,29.27,1.29,54.84,3.8,75.76.56,3.38.64,4.23.64,4.62,0,5.46-5.17,9.87-15.79,13.54-9.93,3.42-18.2,5.14-24.55,5.14ZM8.95,238.25s.77,1.24,7.71,1.24c6,0,13.91-1.69,23.5-4.98,6.21-2.13,13.61-5.68,13.61-10.48,0-.16-.07-.89-.61-4.16-2.54-21.12-3.82-46.81-3.82-76.47l.65-4.35c.22-2.67,1.83-6.8,4.92-12.55,2.98-5.52,7.09-11.37,12.21-17.34.15-.18.34-.33.56-.43l3.48-1.58c.21-.1.44-.14.67-.14.33,0,.55,0,5.86,1.65,4.79,1.14,9.97,6.13,15.74,15.22,6.46,10.13,9.73,26.58,9.73,48.92v12.65c.42,23.6,1.15,38.73,2.19,44.93.91,5.11,4.38,7.52,10.9,7.52,7.07,0,15.26-1.43,24.34-4.21,11.53-3.53,12.77-6.62,12.77-7.77,0-.78-.3-1.36-.98-1.91-3.86-2.49-7.14-9.74-9.89-22.09-2.63-11.79-4.29-21-4.93-27.38-.63-6.32-1.27-13.46-1.9-21.37-.61-7.68-2.96-16.01-6.97-24.76-4.01-8.73-8.2-15.28-12.46-19.44-4.3-4.18-9.22-7.7-14.62-10.46-6.75-3.44-9.78-4.48-11.13-4.76-2.09-.41-3.72-.73-4.87-.95-2.76-.48-3.06-2.27-3.06-3.01,0-1.18.37-2.14,1.11-2.88,12.71-16.27,25.69-30.8,38.44-43.02,12.95-12.4,21.24-19.8,25.34-22.62,4.11-2.81,7.26-4.79,9.62-6.09,2.46-1.34,2.64-2.07,2.64-2.07,0,0-.41-2.48-14.83-2.48-10.69,0-17.82.71-21.2,2.09-3.35,1.39-7.79,5.02-13.18,10.83-5.54,5.95-11.09,12.46-16.51,19.34h0c-5.4,6.86-11.4,14.82-17.82,23.66-6.43,8.84-10.85,14.96-13.27,18.33-2.41,3.35-4.24,5.97-5.5,7.85-1.62,2.44-3.1,3.57-4.66,3.57-1.14,0-3.04-.63-3.04-4.78,0-25.88,1.39-50.52,4.12-73.22l.31-4.04c0-2.33-5.23-2.69-8.35-2.69-6.47,0-15.17,1.37-25.85,4.06-14.33,3.62-15.06,6.44-15.06,6.97.01.03.25,1.03,3.13,4.7,3.2,4.34,5.37,16.41,6.67,36.95.84,13.3,1.27,30.83,1.27,52.09s-.48,45.27-1.42,71.19c-.96,26.49-2.51,41.74-4.73,46.62-.51,1.57-.81,2.99-.81,4.08h0Z"/>
        <path class="cls-9" d="M16.67,242.07c-5.09,0-10.94-.52-10.94-4.46,0-1.46.34-3.18,1.03-5.26,1.44-3.21,3.34-13.54,4.5-45.54.94-25.9,1.42-49.8,1.42-71.08s-.43-38.66-1.26-51.92c-1.54-24.41-4.12-32.61-6.01-35.17-3.33-4.24-3.79-5.7-3.79-6.65,0-3.93,5.4-7.04,17.5-10.09,10.94-2.77,19.9-4.17,26.64-4.17,7.68,0,11.57,2.04,11.57,6.05l-.32,4.23c-2.73,22.65-4.11,47.16-4.11,72.92,0,.67.06,1.11.11,1.37.31-.22.87-.75,1.67-1.96,1.27-1.91,3.12-4.56,5.56-7.95,2.42-3.36,6.85-9.49,13.28-18.34,6.45-8.87,12.47-16.86,17.9-23.75h0c5.48-6.95,11.09-13.53,16.69-19.55,5.79-6.22,10.48-10.03,14.32-11.6,3.82-1.58,11.16-2.33,22.43-2.33,12.66,0,18.06,1.7,18.06,5.73,0,2.27-2.47,3.87-4.32,4.89-2.24,1.22-5.39,3.21-9.35,5.92-3.9,2.67-12.29,10.17-24.93,22.28-12.64,12.11-25.5,26.52-38.26,42.81-.13.15-.23.25-.27.49.09.03.21.06.38.08,1.18.23,2.82.54,4.94.96,2.29.47,6.2,2.11,11.96,5.05,5.7,2.9,10.88,6.61,15.41,11.03,4.55,4.44,8.97,11.31,13.15,20.4,4.17,9.1,6.61,17.79,7.26,25.83.63,7.91,1.26,15.01,1.89,21.32.63,6.25,2.27,15.34,4.87,26.99,3.14,14.1,6.43,18.76,8.63,20.18,1.56,1.24,2.32,2.77,2.32,4.52,0,4.26-4.79,7.72-15.05,10.87-9.39,2.88-17.9,4.35-25.29,4.35-10.13,0-13.25-5.55-14.08-10.19-1.08-6.47-1.81-21.34-2.23-45.45v-12.69c0-21.71-3.11-37.58-9.23-47.19-5.23-8.23-9.89-12.89-13.87-13.84-2.98-.91-4.27-1.31-4.83-1.46l-2.66,1.21c-4.86,5.7-8.76,11.26-11.59,16.52-3.53,6.54-4.43,9.8-4.56,11.38l-.65,4.22c.02,29.27,1.29,54.85,3.8,75.75.56,3.39.64,4.23.64,4.63,0,5.45-5.17,9.89-15.79,13.54-9.93,3.41-18.2,5.15-24.55,5.15ZM8.95,237.61s.77,1.24,7.71,1.24c6,0,13.91-1.68,23.5-4.98,6.21-2.13,13.61-5.68,13.61-10.48,0-.16-.07-.9-.61-4.17-2.54-21.1-3.82-46.8-3.82-76.45l.65-4.36c.22-2.66,1.83-6.8,4.92-12.53,2.98-5.55,7.09-11.38,12.21-17.35.15-.19.34-.33.56-.41l3.48-1.59c.21-.1.44-.15.67-.15.33,0,.55,0,5.86,1.66,4.79,1.14,9.97,6.12,15.74,15.23,6.46,10.12,9.73,26.58,9.73,48.91v12.65c.42,23.62,1.15,38.73,2.19,44.95.91,5.11,4.38,7.5,10.9,7.5,7.07,0,15.26-1.41,24.34-4.2,11.53-3.53,12.77-6.61,12.77-7.77,0-.78-.3-1.37-.98-1.9-3.86-2.5-7.14-9.76-9.89-22.11-2.63-11.79-4.29-20.98-4.93-27.38-.63-6.33-1.27-13.44-1.9-21.37-.61-7.68-2.96-16-6.97-24.74-4.01-8.75-8.2-15.28-12.46-19.46-4.3-4.17-9.22-7.7-14.62-10.46-6.75-3.43-9.78-4.48-11.13-4.76-2.09-.41-3.72-.71-4.87-.93-2.76-.49-3.06-2.27-3.06-3.01,0-1.18.37-2.15,1.11-2.87,12.71-16.29,25.69-30.82,38.44-43.03,12.95-12.41,21.24-19.81,25.34-22.62,4.11-2.81,7.26-4.8,9.62-6.09,2.46-1.35,2.64-2.07,2.64-2.07,0,0-.41-2.48-14.83-2.48-10.69,0-17.82.71-21.2,2.1-3.35,1.37-7.79,5.03-13.18,10.83-5.54,5.95-11.09,12.45-16.51,19.35h0c-5.4,6.85-11.4,14.81-17.82,23.65-6.43,8.85-10.85,14.97-13.27,18.34-2.41,3.34-4.24,5.96-5.5,7.85-1.62,2.43-3.1,3.57-4.66,3.57-1.14,0-3.04-.63-3.04-4.78,0-25.88,1.39-50.53,4.12-73.22l.31-4.04c0-2.31-5.23-2.68-8.35-2.68-6.47,0-15.17,1.36-25.85,4.05-14.33,3.62-15.06,6.45-15.06,6.98.01.04.25,1.04,3.13,4.7,3.2,4.35,5.37,16.41,6.67,36.94.84,13.32,1.27,30.85,1.27,52.11s-.48,45.26-1.42,71.19c-.96,26.49-2.51,41.73-4.73,46.61-.51,1.57-.81,2.99-.81,4.08h0Z"/>
        <path class="cls-10" d="M16.67,241.42c-5.09,0-10.94-.51-10.94-4.47,0-1.45.34-3.17,1.03-5.24,1.44-3.21,3.34-13.56,4.5-45.56.94-25.89,1.42-49.8,1.42-71.08s-.43-38.66-1.26-51.9c-1.54-24.43-4.12-32.62-6.01-35.18-3.33-4.23-3.79-5.71-3.79-6.66,0-3.93,5.4-7.04,17.5-10.1,10.94-2.76,19.9-4.16,26.64-4.16,7.68,0,11.57,2.04,11.57,6.05l-.32,4.23c-2.73,22.66-4.11,47.16-4.11,72.9,0,.68.06,1.11.11,1.38.31-.23.87-.76,1.67-1.95,1.27-1.91,3.12-4.57,5.56-7.96,2.42-3.37,6.85-9.49,13.28-18.34,6.45-8.88,12.47-16.87,17.9-23.77h0c5.48-6.95,11.09-13.52,16.69-19.55,5.79-6.23,10.48-10.03,14.32-11.61,3.82-1.58,11.16-2.35,22.43-2.35,12.66,0,18.06,1.72,18.06,5.73,0,2.28-2.47,3.89-4.32,4.9-2.24,1.22-5.39,3.21-9.35,5.93-3.9,2.66-12.29,10.15-24.93,22.27-12.64,12.11-25.5,26.53-38.26,42.83-.13.14-.23.24-.27.48.09.03.21.06.38.1,1.18.22,2.82.53,4.94.95,2.29.47,6.2,2.11,11.96,5.05,5.7,2.9,10.88,6.62,15.41,11.04,4.55,4.43,8.97,11.3,13.15,20.4,4.17,9.08,6.61,17.77,7.26,25.83.63,7.89,1.26,14.99,1.89,21.31.63,6.25,2.27,15.34,4.87,26.99,3.14,14.1,6.43,18.76,8.63,20.18,1.56,1.24,2.32,2.77,2.32,4.52,0,4.26-4.79,7.72-15.05,10.86-9.39,2.88-17.9,4.34-25.29,4.34-10.13,0-13.25-5.53-14.08-10.17-1.08-6.47-1.81-21.34-2.23-45.46v-12.69c0-21.71-3.11-37.58-9.23-47.18-5.23-8.24-9.89-12.89-13.87-13.84-2.98-.93-4.27-1.3-4.83-1.46l-2.66,1.21c-4.86,5.7-8.76,11.26-11.59,16.52-3.53,6.54-4.43,9.8-4.56,11.37l-.65,4.23c.02,29.27,1.29,54.84,3.8,75.75.56,3.41.64,4.24.64,4.62,0,5.47-5.17,9.89-15.79,13.54-9.93,3.42-18.2,5.16-24.55,5.16ZM8.95,236.95s.77,1.24,7.71,1.24c6,0,13.91-1.68,23.5-4.98,6.21-2.13,13.61-5.69,13.61-10.49,0-.16-.07-.89-.61-4.16-2.54-21.11-3.82-46.8-3.82-76.46l.65-4.36c.22-2.66,1.83-6.79,4.92-12.53,2.98-5.54,7.09-11.39,12.21-17.36.15-.19.34-.33.56-.43l3.48-1.58c.21-.1.44-.15.67-.15.33,0,.55,0,5.86,1.68,4.79,1.13,9.97,6.12,15.74,15.21,6.46,10.11,9.73,26.58,9.73,48.91v12.65c.42,23.61,1.15,38.73,2.19,44.95.91,5.11,4.38,7.5,10.9,7.5,7.07,0,15.26-1.42,24.34-4.2,11.53-3.54,12.77-6.62,12.77-7.78,0-.78-.3-1.37-.98-1.91-3.86-2.48-7.14-9.73-9.89-22.08-2.63-11.79-4.29-21.01-4.93-27.38-.63-6.34-1.27-13.47-1.9-21.38-.61-7.67-2.96-16-6.97-24.75-4.01-8.73-8.2-15.28-12.46-19.43-4.3-4.19-9.22-7.72-14.62-10.46-6.75-3.44-9.78-4.49-11.13-4.76-2.09-.42-3.72-.73-4.87-.95-2.76-.48-3.06-2.27-3.06-2.99,0-1.18.37-2.16,1.11-2.89,12.71-16.28,25.69-30.8,38.44-43.02,12.95-12.41,21.24-19.81,25.34-22.61,4.11-2.82,7.26-4.81,9.62-6.09,2.46-1.34,2.64-2.08,2.64-2.08,0-.01-.41-2.47-14.83-2.47-10.69,0-17.82.7-21.2,2.09-3.35,1.37-7.79,5.03-13.18,10.83-5.54,5.95-11.09,12.45-16.51,19.34h0c-5.4,6.86-11.4,14.82-17.82,23.66-6.43,8.85-10.85,14.95-13.27,18.33-2.41,3.35-4.24,5.96-5.5,7.85-1.62,2.44-3.1,3.58-4.66,3.58-1.14,0-3.04-.62-3.04-4.79,0-25.88,1.39-50.52,4.12-73.22l.31-4.04c0-2.33-5.23-2.69-8.35-2.69-6.47,0-15.17,1.36-25.85,4.06-14.33,3.62-15.06,6.44-15.06,6.96.01.04.25,1.03,3.13,4.7,3.2,4.34,5.37,16.41,6.67,36.94.84,13.31,1.27,30.85,1.27,52.1s-.48,45.28-1.42,71.2c-.96,26.48-2.51,41.73-4.73,46.6-.51,1.57-.81,3-.81,4.08h0Z"/>
        <path class="cls-14" d="M16.67,240.77c-5.09,0-10.94-.5-10.94-4.46,0-1.45.34-3.17,1.03-5.26,1.44-3.2,3.34-13.55,4.5-45.55.94-25.89,1.42-49.79,1.42-71.06s-.43-38.66-1.26-51.91c-1.54-24.43-4.12-32.62-6.01-35.18-3.33-4.24-3.79-5.71-3.79-6.66,0-3.93,5.4-7.05,17.5-10.1,10.94-2.77,19.9-4.15,26.64-4.15,7.68,0,11.57,2.03,11.57,6.04l-.32,4.23c-2.73,22.64-4.11,47.15-4.11,72.91,0,.69.06,1.1.11,1.37.31-.23.87-.75,1.67-1.95,1.27-1.91,3.12-4.56,5.56-7.96,2.42-3.36,6.85-9.47,13.28-18.33,6.45-8.9,12.47-16.88,17.9-23.77h0c5.48-6.95,11.09-13.52,16.69-19.54,5.79-6.24,10.48-10.04,14.32-11.62,3.82-1.58,11.16-2.33,22.43-2.33,12.66,0,18.06,1.72,18.06,5.73,0,2.27-2.47,3.88-4.32,4.89-2.24,1.23-5.39,3.22-9.35,5.92-3.9,2.66-12.29,10.17-24.93,22.28-12.64,12.1-25.5,26.51-38.26,42.83-.13.14-.23.25-.27.47.09.03.21.07.38.1,1.18.22,2.82.54,4.94.96,2.29.47,6.2,2.11,11.96,5.05,5.7,2.9,10.88,6.62,15.41,11.03,4.55,4.45,8.97,11.31,13.15,20.4,4.17,9.1,6.61,17.79,7.26,25.83.63,7.9,1.26,15,1.89,21.31.63,6.25,2.27,15.34,4.87,27,3.14,14.1,6.43,18.76,8.63,20.18,1.56,1.24,2.32,2.77,2.32,4.51,0,4.26-4.79,7.72-15.05,10.88-9.39,2.87-17.9,4.33-25.29,4.33-10.13,0-13.25-5.54-14.08-10.19-1.08-6.47-1.81-21.32-2.23-45.46v-12.67c0-21.71-3.11-37.58-9.23-47.18-5.23-8.24-9.89-12.9-13.87-13.84-2.98-.93-4.27-1.3-4.83-1.46l-2.66,1.19c-4.86,5.71-8.76,11.27-11.59,16.52-3.53,6.55-4.43,9.8-4.56,11.4l-.65,4.22c.02,29.27,1.29,54.85,3.8,75.75.56,3.39.64,4.23.64,4.62,0,5.46-5.17,9.89-15.79,13.54-9.93,3.41-18.2,5.14-24.55,5.14ZM8.95,236.31s.77,1.23,7.71,1.23c6,0,13.91-1.67,23.5-4.98,6.21-2.12,13.61-5.67,13.61-10.48,0-.16-.07-.89-.61-4.15-2.54-21.13-3.82-46.81-3.82-76.46l.65-4.35c.22-2.66,1.83-6.81,4.92-12.54,2.98-5.55,7.09-11.38,12.21-17.36.15-.18.34-.33.56-.43l3.48-1.58c.21-.1.44-.15.67-.15.33,0,.55,0,5.86,1.66,4.79,1.14,9.97,6.12,15.74,15.22,6.46,10.13,9.73,26.59,9.73,48.91v12.65c.42,23.6,1.15,38.74,2.19,44.94.91,5.11,4.38,7.5,10.9,7.5,7.07,0,15.26-1.41,24.34-4.2,11.53-3.53,12.77-6.62,12.77-7.78,0-.78-.3-1.35-.98-1.9-3.86-2.49-7.14-9.74-9.89-22.1-2.63-11.78-4.29-20.99-4.93-27.38-.63-6.33-1.27-13.46-1.9-21.36-.61-7.68-2.96-16.01-6.97-24.76-4.01-8.73-8.2-15.27-12.46-19.44-4.3-4.18-9.22-7.71-14.62-10.46-6.75-3.45-9.78-4.49-11.13-4.76-2.09-.42-3.72-.74-4.87-.95-2.76-.48-3.06-2.27-3.06-3.01,0-1.18.37-2.14,1.11-2.88,12.71-16.28,25.69-30.8,38.44-43.02,12.95-12.41,21.24-19.8,25.34-22.61,4.11-2.81,7.26-4.81,9.62-6.1,2.46-1.34,2.64-2.06,2.64-2.08,0,0-.41-2.46-14.83-2.46-10.69,0-17.82.7-21.2,2.09-3.35,1.37-7.79,5.02-13.18,10.82-5.54,5.97-11.09,12.47-16.51,19.35h0c-5.4,6.85-11.4,14.82-17.82,23.66-6.43,8.84-10.85,14.97-13.27,18.33-2.41,3.35-4.24,5.97-5.5,7.85-1.62,2.43-3.1,3.56-4.66,3.56-1.14,0-3.04-.62-3.04-4.77,0-25.88,1.39-50.51,4.12-73.22l.31-4.04c0-2.33-5.23-2.7-8.35-2.7-6.47,0-15.17,1.37-25.85,4.06-14.33,3.62-15.06,6.44-15.06,6.98.01.04.25,1.04,3.13,4.7,3.2,4.33,5.37,16.4,6.67,36.93.84,13.31,1.27,30.85,1.27,52.12s-.48,45.26-1.42,71.18c-.96,26.49-2.51,41.74-4.73,46.62-.51,1.57-.81,2.99-.81,4.08h0Z"/>
        <path class="cls-11" d="M16.67,240.13c-5.09,0-10.94-.52-10.94-4.46,0-1.46.34-3.17,1.03-5.26,1.44-3.2,3.34-13.54,4.5-45.54.94-25.9,1.42-49.8,1.42-71.08s-.43-38.65-1.26-51.9c-1.54-24.44-4.12-32.62-6.01-35.19-3.33-4.22-3.79-5.7-3.79-6.65,0-3.93,5.4-7.04,17.5-10.11,10.94-2.75,19.9-4.15,26.64-4.15,7.68,0,11.57,2.02,11.57,6.03l-.32,4.24c-2.73,22.65-4.11,47.15-4.11,72.91,0,.67.06,1.1.11,1.37.31-.23.87-.77,1.67-1.96,1.27-1.91,3.12-4.55,5.56-7.96,2.42-3.36,6.85-9.47,13.28-18.34,6.45-8.87,12.47-16.88,17.9-23.75h0c5.48-6.95,11.09-13.53,16.69-19.55,5.79-6.23,10.48-10.04,14.32-11.6,3.82-1.58,11.16-2.35,22.43-2.35,12.66,0,18.06,1.72,18.06,5.73,0,2.28-2.47,3.89-4.32,4.9-2.24,1.22-5.39,3.21-9.35,5.92-3.9,2.66-12.29,10.15-24.93,22.27-12.64,12.12-25.5,26.52-38.26,42.83-.13.15-.23.24-.27.47.09.03.21.06.38.1,1.18.22,2.82.54,4.94.95,2.29.47,6.2,2.11,11.96,5.05,5.7,2.9,10.88,6.62,15.41,11.04,4.55,4.44,8.97,11.29,13.15,20.4,4.17,9.09,6.61,17.8,7.26,25.84.63,7.89,1.26,14.99,1.89,21.31.63,6.25,2.27,15.34,4.87,26.99,3.14,14.11,6.43,18.76,8.63,20.18,1.56,1.24,2.32,2.77,2.32,4.52,0,4.28-4.79,7.72-15.05,10.87-9.39,2.88-17.9,4.34-25.29,4.34-10.13,0-13.25-5.54-14.08-10.18-1.08-6.47-1.81-21.33-2.23-45.47v-12.67c0-21.71-3.11-37.58-9.23-47.18-5.23-8.24-9.89-12.89-13.87-13.84-2.98-.93-4.27-1.31-4.83-1.47l-2.66,1.21c-4.86,5.7-8.76,11.25-11.59,16.52-3.53,6.56-4.43,9.8-4.56,11.38l-.65,4.23c.02,29.27,1.29,54.84,3.8,75.75.56,3.39.64,4.24.64,4.63,0,5.45-5.17,9.88-15.79,13.54-9.93,3.41-18.2,5.14-24.55,5.14ZM8.95,235.67s.77,1.22,7.71,1.22c6,0,13.91-1.66,23.5-4.96,6.21-2.14,13.61-5.7,13.61-10.49,0-.17-.07-.89-.61-4.16-2.54-21.12-3.82-46.82-3.82-76.46l.65-4.37c.22-2.66,1.83-6.79,4.92-12.52,2.98-5.55,7.09-11.38,12.21-17.37.15-.16.34-.32.56-.41l3.48-1.59c.21-.1.44-.14.67-.14.33,0,.55,0,5.86,1.66,4.79,1.14,9.97,6.13,15.74,15.22,6.46,10.13,9.73,26.58,9.73,48.92v12.65c.42,23.6,1.15,38.73,2.19,44.95.91,5.11,4.38,7.5,10.9,7.5,7.07,0,15.26-1.41,24.34-4.19,11.53-3.54,12.77-6.63,12.77-7.79,0-.78-.3-1.37-.98-1.9-3.86-2.47-7.14-9.74-9.89-22.09-2.63-11.79-4.29-20.99-4.93-27.37-.63-6.34-1.27-13.46-1.9-21.38-.61-7.68-2.96-15.99-6.97-24.75-4.01-8.74-8.2-15.28-12.46-19.44-4.3-4.17-9.22-7.7-14.62-10.46-6.75-3.44-9.78-4.48-11.13-4.76-2.09-.43-3.72-.73-4.87-.95-2.76-.48-3.06-2.27-3.06-3.01,0-1.17.37-2.14,1.11-2.88,12.71-16.27,25.69-30.8,38.44-43.02,12.95-12.41,21.24-19.79,25.34-22.62,4.11-2.79,7.26-4.79,9.62-6.08,2.46-1.35,2.64-2.07,2.64-2.07,0,0-.41-2.48-14.83-2.48-10.69,0-17.82.71-21.2,2.09-3.35,1.39-7.79,5.01-13.18,10.83-5.54,5.95-11.09,12.45-16.51,19.34h0c-5.4,6.86-11.4,14.82-17.82,23.66-6.43,8.86-10.85,14.95-13.27,18.32-2.41,3.36-4.24,5.97-5.5,7.86-1.62,2.43-3.1,3.56-4.66,3.56-1.14,0-3.04-.62-3.04-4.76,0-25.88,1.39-50.52,4.12-73.22l.31-4.05c0-2.32-5.23-2.68-8.35-2.68-6.47,0-15.17,1.37-25.85,4.06-14.33,3.62-15.06,6.44-15.06,6.97.01.03.25,1.03,3.13,4.7,3.2,4.34,5.37,16.41,6.67,36.95.84,13.31,1.27,30.83,1.27,52.09s-.48,45.27-1.42,71.19c-.96,26.49-2.51,41.73-4.73,46.61-.51,1.57-.81,2.99-.81,4.08h0Z"/>
        <path class="cls-12" d="M16.67,239.49c-5.09,0-10.94-.52-10.94-4.47,0-1.46.34-3.17,1.03-5.25,1.44-3.21,3.34-13.54,4.5-45.55.94-25.89,1.42-49.8,1.42-71.07s-.43-38.67-1.26-51.92c-1.54-24.42-4.12-32.62-6.01-35.18-3.33-4.24-3.79-5.71-3.79-6.64,0-3.95,5.4-7.06,17.5-10.11,10.94-2.77,19.9-4.17,26.64-4.17,7.68,0,11.57,2.03,11.57,6.05l-.32,4.23c-2.73,22.65-4.11,47.15-4.11,72.91,0,.67.06,1.11.11,1.37.31-.23.87-.75,1.67-1.96,1.27-1.9,3.12-4.56,5.56-7.95,2.42-3.37,6.85-9.49,13.28-18.34,6.45-8.88,12.47-16.87,17.9-23.77h0c5.48-6.94,11.09-13.52,16.69-19.54,5.79-6.23,10.48-10.03,14.32-11.61,3.82-1.58,11.16-2.35,22.43-2.35,12.66,0,18.06,1.71,18.06,5.73,0,2.27-2.47,3.89-4.32,4.9-2.24,1.21-5.39,3.21-9.35,5.92-3.9,2.67-12.29,10.17-24.93,22.28-12.64,12.11-25.5,26.52-38.26,42.82-.13.14-.23.24-.27.49.09.03.21.05.38.1,1.18.22,2.82.52,4.94.96,2.29.44,6.2,2.1,11.96,5.04,5.7,2.9,10.88,6.61,15.41,11.03,4.55,4.44,8.97,11.31,13.15,20.4,4.17,9.09,6.61,17.79,7.26,25.84.63,7.88,1.26,14.99,1.89,21.31.63,6.25,2.27,15.34,4.87,26.99,3.14,14.1,6.43,18.76,8.63,20.17,1.56,1.26,2.32,2.79,2.32,4.53,0,4.26-4.79,7.72-15.05,10.86-9.39,2.88-17.9,4.35-25.29,4.35-10.13,0-13.25-5.55-14.08-10.19-1.08-6.47-1.81-21.34-2.23-45.45v-12.69c0-21.71-3.11-37.58-9.23-47.19-5.23-8.23-9.89-12.89-13.87-13.83-2.98-.93-4.27-1.3-4.83-1.46l-2.66,1.21c-4.86,5.71-8.76,11.27-11.59,16.52-3.53,6.55-4.43,9.8-4.56,11.39l-.65,4.22c.02,29.27,1.29,54.84,3.8,75.75.56,3.39.64,4.23.64,4.63,0,5.45-5.17,9.89-15.79,13.53-9.93,3.41-18.2,5.16-24.55,5.16ZM8.95,235.02s.77,1.23,7.71,1.23c6,0,13.91-1.68,23.5-4.97,6.21-2.13,13.61-5.68,13.61-10.48,0-.16-.07-.9-.61-4.17-2.54-21.11-3.82-46.8-3.82-76.45l.65-4.37c.22-2.66,1.83-6.8,4.92-12.52,2.98-5.55,7.09-11.38,12.21-17.36.15-.18.34-.32.56-.41l3.48-1.59c.21-.1.44-.14.67-.14.33,0,.55,0,5.86,1.65,4.79,1.13,9.97,6.13,15.74,15.22,6.46,10.13,9.73,26.59,9.73,48.92v12.65c.42,23.62,1.15,38.74,2.19,44.95.91,5.11,4.38,7.5,10.9,7.5,7.07,0,15.26-1.41,24.34-4.2,11.53-3.54,12.77-6.62,12.77-7.77,0-.78-.3-1.37-.98-1.91-3.86-2.49-7.14-9.73-9.89-22.1-2.63-11.77-4.29-20.99-4.93-27.37-.63-6.33-1.27-13.46-1.9-21.37-.61-7.68-2.96-16-6.97-24.76-4.01-8.73-8.2-15.26-12.46-19.42-4.3-4.19-9.22-7.72-14.62-10.48-6.75-3.43-9.78-4.48-11.13-4.75-2.09-.41-3.72-.73-4.87-.96-2.76-.47-3.06-2.26-3.06-2.99,0-1.18.37-2.15,1.11-2.88,12.71-16.28,25.69-30.8,38.44-43.02,12.95-12.41,21.24-19.81,25.34-22.61,4.11-2.81,7.26-4.81,9.62-6.1,2.46-1.35,2.64-2.07,2.64-2.07,0,0-.41-2.48-14.83-2.48-10.69,0-17.82.71-21.2,2.09-3.35,1.38-7.79,5.02-13.18,10.83-5.54,5.95-11.09,12.45-16.51,19.35h0c-5.4,6.84-11.4,14.8-17.82,23.65-6.43,8.85-10.85,14.96-13.27,18.34-2.41,3.34-4.24,5.96-5.5,7.85-1.62,2.43-3.1,3.56-4.66,3.56-1.14,0-3.04-.62-3.04-4.77,0-25.88,1.39-50.51,4.12-73.22l.31-4.04c0-2.33-5.23-2.68-8.35-2.68-6.47,0-15.17,1.36-25.85,4.05-14.33,3.62-15.06,6.45-15.06,6.99.01.03.25,1.03,3.13,4.68,3.2,4.34,5.37,16.41,6.67,36.93.84,13.3,1.27,30.85,1.27,52.11s-.48,45.26-1.42,71.19c-.96,26.49-2.51,41.73-4.73,46.62-.51,1.56-.81,2.99-.81,4.07h0Z"/>
        <path class="cls-13" d="M16.67,238.84c-5.09,0-10.94-.52-10.94-4.48,0-1.44.34-3.16,1.03-5.25,1.44-3.19,3.34-13.55,4.5-45.54.94-25.89,1.42-49.8,1.42-71.08s-.43-38.66-1.26-51.9c-1.54-24.43-4.12-32.62-6.01-35.19-3.33-4.24-3.79-5.7-3.79-6.65,0-3.93,5.4-7.06,17.5-10.11,10.94-2.76,19.9-4.16,26.64-4.16,7.68,0,11.57,2.05,11.57,6.04l-.32,4.24c-2.73,22.66-4.11,47.14-4.11,72.9,0,.67.06,1.11.11,1.38.31-.23.87-.76,1.67-1.96,1.27-1.91,3.12-4.55,5.56-7.94,2.42-3.37,6.85-9.49,13.28-18.34,6.45-8.88,12.47-16.88,17.9-23.77h0c5.48-6.95,11.09-13.52,16.69-19.55,5.79-6.23,10.48-10.02,14.32-11.61,3.82-1.58,11.16-2.34,22.43-2.34,12.66,0,18.06,1.72,18.06,5.73,0,2.28-2.47,3.89-4.32,4.9-2.24,1.21-5.39,3.21-9.35,5.92-3.9,2.66-12.29,10.16-24.93,22.28-12.64,12.11-25.5,26.51-38.26,42.81-.13.15-.23.25-.27.49.09.03.21.06.38.08,1.18.23,2.82.54,4.94.96,2.29.47,6.2,2.11,11.96,5.05,5.7,2.9,10.88,6.6,15.41,11.04,4.55,4.43,8.97,11.3,13.15,20.38,4.17,9.1,6.61,17.79,7.26,25.83.63,7.91,1.26,15.01,1.89,21.32.63,6.25,2.27,15.34,4.87,27,3.14,14.1,6.43,18.76,8.63,20.17,1.56,1.25,2.32,2.77,2.32,4.52,0,4.26-4.79,7.72-15.05,10.87-9.39,2.88-17.9,4.34-25.29,4.34-10.13,0-13.25-5.53-14.08-10.19-1.08-6.47-1.81-21.32-2.23-45.46v-12.67c0-21.71-3.11-37.59-9.23-47.19-5.23-8.22-9.89-12.89-13.87-13.84-2.98-.92-4.27-1.3-4.83-1.44l-2.66,1.19c-4.86,5.71-8.76,11.26-11.59,16.52-3.53,6.56-4.43,9.8-4.56,11.38l-.65,4.23c.02,29.27,1.29,54.84,3.8,75.74.56,3.39.64,4.24.64,4.62,0,5.46-5.17,9.89-15.79,13.55-9.93,3.42-18.2,5.16-24.55,5.16ZM8.95,234.37s.77,1.24,7.71,1.24c6,0,13.91-1.67,23.5-4.96,6.21-2.14,13.61-5.7,13.61-10.5,0-.15-.07-.89-.61-4.15-2.54-21.11-3.82-46.81-3.82-76.46l.65-4.35c.22-2.67,1.83-6.8,4.92-12.54,2.98-5.54,7.09-11.39,12.21-17.36.15-.17.34-.32.56-.42l3.48-1.58c.21-.1.44-.15.67-.15.33,0,.55,0,5.86,1.65,4.79,1.14,9.97,6.14,15.74,15.22,6.46,10.13,9.73,26.58,9.73,48.92v12.65c.42,23.61,1.15,38.73,2.19,44.94.91,5.12,4.38,7.51,10.9,7.51,7.07,0,15.26-1.41,24.34-4.2,11.53-3.54,12.77-6.62,12.77-7.78,0-.77-.3-1.36-.98-1.9-3.86-2.48-7.14-9.73-9.89-22.09-2.63-11.79-4.29-20.99-4.93-27.39-.63-6.32-1.27-13.45-1.9-21.37-.61-7.66-2.96-15.99-6.97-24.74-4.01-8.73-8.2-15.27-12.46-19.44-4.3-4.19-9.22-7.7-14.62-10.46-6.75-3.43-9.78-4.49-11.13-4.75-2.09-.42-3.72-.73-4.87-.95-2.76-.48-3.06-2.27-3.06-3.01,0-1.16.37-2.14,1.11-2.88,12.71-16.27,25.69-30.8,38.44-43.02,12.95-12.41,21.24-19.81,25.34-22.61,4.11-2.81,7.26-4.81,9.62-6.1,2.46-1.35,2.64-2.07,2.64-2.07,0-.01-.41-2.47-14.83-2.47-10.69,0-17.82.69-21.2,2.09-3.35,1.38-7.79,5.02-13.18,10.83-5.54,5.95-11.09,12.45-16.51,19.34h0c-5.4,6.85-11.4,14.81-17.82,23.66-6.43,8.85-10.85,14.95-13.27,18.33-2.41,3.35-4.24,5.96-5.5,7.85-1.62,2.43-3.1,3.56-4.66,3.56-1.14,0-3.04-.61-3.04-4.77,0-25.88,1.39-50.52,4.12-73.22l.31-4.04c0-2.32-5.23-2.69-8.35-2.69-6.47,0-15.17,1.37-25.85,4.08-14.33,3.61-15.06,6.44-15.06,6.96.01.03.25,1.03,3.13,4.7,3.2,4.34,5.37,16.41,6.67,36.94.84,13.31,1.27,30.85,1.27,52.11s-.48,45.26-1.42,71.19c-.96,26.48-2.51,41.73-4.73,46.61-.51,1.57-.81,3-.81,4.07h0Z"/>
        <path class="cls-16" d="M16.67,238.2c-5.09,0-10.94-.51-10.94-4.46,0-1.46.34-3.17,1.03-5.26,1.44-3.2,3.34-13.54,4.5-45.54.94-25.9,1.42-49.81,1.42-71.08s-.43-38.66-1.26-51.9c-1.54-24.43-4.12-32.62-6.01-35.19-3.33-4.23-3.79-5.68-3.79-6.65,0-3.94,5.4-7.05,17.5-10.11,10.94-2.75,19.9-4.16,26.64-4.16,7.68,0,11.57,2.04,11.57,6.06l-.32,4.23c-2.73,22.64-4.11,47.15-4.11,72.91,0,.67.06,1.1.11,1.36.31-.21.87-.74,1.67-1.95,1.27-1.9,3.12-4.56,5.56-7.95,2.42-3.36,6.85-9.47,13.28-18.33,6.45-8.89,12.47-16.88,17.9-23.77h0c5.48-6.95,11.09-13.54,16.69-19.55,5.79-6.23,10.48-10.02,14.32-11.62,3.82-1.57,11.16-2.33,22.43-2.33,12.66,0,18.06,1.71,18.06,5.73,0,2.27-2.47,3.89-4.32,4.89-2.24,1.23-5.39,3.22-9.35,5.92-3.9,2.68-12.29,10.17-24.93,22.28-12.64,12.1-25.5,26.53-38.26,42.83-.13.14-.23.25-.27.47.09.03.21.06.38.1,1.18.22,2.82.53,4.94.95,2.29.47,6.2,2.11,11.96,5.05,5.7,2.92,10.88,6.62,15.41,11.03,4.55,4.45,8.97,11.3,13.15,20.4,4.17,9.1,6.61,17.79,7.26,25.83.63,7.9,1.26,14.99,1.89,21.31.63,6.25,2.27,15.34,4.87,26.99,3.14,14.11,6.43,18.76,8.63,20.19,1.56,1.24,2.32,2.76,2.32,4.5,0,4.27-4.79,7.72-15.05,10.89-9.39,2.87-17.9,4.33-25.29,4.33-10.13,0-13.25-5.54-14.08-10.18-1.08-6.48-1.81-21.34-2.23-45.47v-12.68c0-21.71-3.11-37.59-9.23-47.18-5.23-8.24-9.89-12.9-13.87-13.84-2.98-.93-4.27-1.32-4.83-1.46l-2.66,1.21c-4.86,5.7-8.76,11.26-11.59,16.5-3.53,6.55-4.43,9.8-4.56,11.4l-.65,4.21c.02,29.27,1.29,54.86,3.8,75.76.56,3.39.64,4.23.64,4.62,0,5.46-5.17,9.89-15.79,13.55-9.93,3.41-18.2,5.15-24.55,5.15ZM8.95,233.73s.77,1.22,7.71,1.22c6,0,13.91-1.66,23.5-4.97,6.21-2.13,13.61-5.68,13.61-10.48,0-.16-.07-.89-.61-4.17-2.54-21.1-3.82-46.79-3.82-76.46l.65-4.35c.22-2.66,1.83-6.81,4.92-12.54,2.98-5.55,7.09-11.4,12.21-17.36.15-.18.34-.33.56-.43l3.48-1.58c.21-.1.44-.15.67-.15.33,0,.55,0,5.86,1.66,4.79,1.13,9.97,6.12,15.74,15.22,6.46,10.13,9.73,26.59,9.73,48.91v12.65c.42,23.61,1.15,38.73,2.19,44.95.91,5.11,4.38,7.5,10.9,7.5,7.07,0,15.26-1.41,24.34-4.2,11.53-3.53,12.77-6.62,12.77-7.79,0-.77-.3-1.36-.98-1.89-3.86-2.49-7.14-9.76-9.89-22.09-2.63-11.79-4.29-21-4.93-27.39-.63-6.33-1.27-13.46-1.9-21.36-.61-7.68-2.96-16.01-6.97-24.75-4.01-8.74-8.2-15.27-12.46-19.44-4.3-4.18-9.22-7.71-14.62-10.47-6.75-3.43-9.78-4.48-11.13-4.75-2.09-.42-3.72-.73-4.87-.95-2.76-.48-3.06-2.27-3.06-3.01,0-1.18.37-2.16,1.11-2.88,12.71-16.28,25.69-30.8,38.44-43.02,12.95-12.41,21.24-19.81,25.34-22.61,4.11-2.81,7.26-4.81,9.62-6.1,2.46-1.34,2.64-2.06,2.64-2.08,0,0-.41-2.48-14.83-2.48-10.69,0-17.82.71-21.2,2.1-3.35,1.37-7.79,5.03-13.18,10.83-5.54,5.95-11.09,12.46-16.51,19.35h0c-5.4,6.86-11.4,14.82-17.82,23.65-6.43,8.86-10.85,14.97-13.27,18.34-2.41,3.34-4.24,5.96-5.5,7.85-1.62,2.43-3.1,3.56-4.66,3.56-1.14,0-3.04-.62-3.04-4.77,0-25.88,1.39-50.51,4.12-73.22l.31-4.05c0-2.31-5.23-2.68-8.35-2.68-6.47,0-15.17,1.37-25.85,4.06-14.33,3.62-15.06,6.45-15.06,6.97.01.04.25,1.04,3.13,4.7,3.2,4.35,5.37,16.41,6.67,36.93.84,13.31,1.27,30.85,1.27,52.11s-.48,45.27-1.42,71.19c-.96,26.48-2.51,41.74-4.73,46.61-.51,1.57-.81,2.99-.81,4.08h0Z"/>
        <path class="cls-15" d="M16.67,237.54c-5.09,0-10.94-.51-10.94-4.46,0-1.46.34-3.18,1.03-5.26,1.44-3.2,3.34-13.54,4.5-45.54.94-25.9,1.42-49.8,1.42-71.08s-.43-38.66-1.26-51.9c-1.54-24.43-4.12-32.62-6.01-35.18-3.33-4.24-3.79-5.71-3.79-6.66,0-3.92,5.4-7.04,17.5-10.08,10.94-2.77,19.9-4.17,26.64-4.17,7.68,0,11.57,2.03,11.57,6.04l-.32,4.24c-2.73,22.64-4.11,47.15-4.11,72.91,0,.67.06,1.1.11,1.37.31-.23.87-.75,1.67-1.96,1.27-1.91,3.12-4.54,5.56-7.95,2.42-3.37,6.85-9.47,13.28-18.34,6.45-8.87,12.47-16.87,17.9-23.75h0c5.48-6.95,11.09-13.54,16.69-19.55,5.79-6.23,10.48-10.03,14.32-11.62,3.82-1.57,11.16-2.33,22.43-2.33,12.66,0,18.06,1.71,18.06,5.73,0,2.27-2.47,3.89-4.32,4.9-2.24,1.21-5.39,3.21-9.35,5.92-3.9,2.68-12.29,10.16-24.93,22.28-12.64,12.12-25.5,26.52-38.26,42.83-.13.14-.23.24-.27.48.09.04.21.05.38.1,1.18.22,2.82.54,4.94.95,2.29.47,6.2,2.11,11.96,5.05,5.7,2.9,10.88,6.62,15.41,11.04,4.55,4.44,8.97,11.31,13.15,20.4,4.17,9.09,6.61,17.78,7.26,25.83.63,7.9,1.26,15.01,1.89,21.32.63,6.25,2.27,15.34,4.87,26.99,3.14,14.11,6.43,18.76,8.63,20.18,1.56,1.24,2.32,2.77,2.32,4.51,0,4.28-4.79,7.73-15.05,10.87-9.39,2.88-17.9,4.34-25.29,4.34-10.13,0-13.25-5.54-14.08-10.17-1.08-6.47-1.81-21.34-2.23-45.48v-12.67c0-21.71-3.11-37.59-9.23-47.19-5.23-8.24-9.89-12.89-13.87-13.84-2.98-.93-4.27-1.3-4.83-1.46l-2.66,1.2c-4.86,5.71-8.76,11.26-11.59,16.52-3.53,6.54-4.43,9.8-4.56,11.38l-.65,4.23c.02,29.27,1.29,54.84,3.8,75.75.56,3.39.64,4.23.64,4.63,0,5.45-5.17,9.87-15.79,13.54-9.93,3.42-18.2,5.14-24.55,5.14ZM8.95,233.09s.77,1.22,7.71,1.22c6,0,13.91-1.66,23.5-4.96,6.21-2.14,13.61-5.7,13.61-10.49,0-.17-.07-.89-.61-4.16-2.54-21.12-3.82-46.82-3.82-76.47l.65-4.35c.22-2.67,1.83-6.81,4.92-12.54,2.98-5.53,7.09-11.38,12.21-17.36.15-.19.34-.33.56-.43l3.48-1.59c.21-.1.44-.14.67-.14.33,0,.55,0,5.86,1.66,4.79,1.14,9.97,6.12,15.74,15.21,6.46,10.12,9.73,26.58,9.73,48.93v12.65c.42,23.59,1.15,38.72,2.19,44.93.91,5.11,4.38,7.5,10.9,7.5,7.07,0,15.26-1.41,24.34-4.19,11.53-3.54,12.77-6.63,12.77-7.8,0-.77-.3-1.35-.98-1.89-3.86-2.47-7.14-9.75-9.89-22.09-2.63-11.79-4.29-20.99-4.93-27.38-.63-6.34-1.27-13.46-1.9-21.38-.61-7.67-2.96-15.98-6.97-24.74-4.01-8.73-8.2-15.27-12.46-19.44-4.3-4.18-9.22-7.71-14.62-10.46-6.75-3.43-9.78-4.48-11.13-4.76-2.09-.41-3.72-.73-4.87-.95-2.76-.49-3.06-2.27-3.06-3.01,0-1.18.37-2.14,1.11-2.88,12.71-16.28,25.69-30.8,38.44-43.02,12.95-12.41,21.24-19.79,25.34-22.61,4.11-2.8,7.26-4.8,9.62-6.08,2.46-1.36,2.64-2.09,2.64-2.09,0-.01-.41-2.48-14.83-2.48-10.69,0-17.82.71-21.2,2.09-3.35,1.39-7.79,5.03-13.18,10.82-5.54,5.96-11.09,12.47-16.51,19.35h0c-5.4,6.87-11.4,14.83-17.82,23.67-6.43,8.84-10.85,14.96-13.27,18.32-2.41,3.36-4.24,5.97-5.5,7.86-1.62,2.43-3.1,3.56-4.66,3.56-1.14,0-3.04-.62-3.04-4.76,0-25.88,1.39-50.53,4.12-73.22l.31-4.05c0-2.32-5.23-2.68-8.35-2.68-6.47,0-15.17,1.36-25.85,4.05-14.33,3.62-15.06,6.44-15.06,6.97.01.04.25,1.04,3.13,4.7,3.2,4.34,5.37,16.41,6.67,36.94.84,13.3,1.27,30.85,1.27,52.11s-.48,45.27-1.42,71.19c-.96,26.49-2.51,41.73-4.73,46.6-.51,1.58-.81,3.01-.81,4.09h0Z"/>
        <path class="cls-17" d="M16.67,236.89c-5.09,0-10.94-.5-10.94-4.46,0-1.46.34-3.17,1.03-5.25,1.44-3.21,3.34-13.55,4.5-45.56.94-25.88,1.42-49.8,1.42-71.06s-.43-38.66-1.26-51.91c-1.54-24.42-4.12-32.62-6.01-35.18-3.33-4.23-3.79-5.7-3.79-6.65,0-3.93,5.4-7.06,17.5-10.11,10.94-2.75,19.9-4.15,26.64-4.15,7.68,0,11.57,2.03,11.57,6.03l-.32,4.23c-2.73,22.66-4.11,47.16-4.11,72.92,0,.68.06,1.1.11,1.37.31-.23.87-.75,1.67-1.96,1.27-1.9,3.12-4.56,5.56-7.95,2.42-3.36,6.85-9.49,13.28-18.34,6.45-8.88,12.47-16.87,17.9-23.77h0c5.48-6.93,11.09-13.51,16.69-19.54,5.79-6.23,10.48-10.04,14.32-11.6,3.82-1.59,11.16-2.35,22.43-2.35,12.66,0,18.06,1.71,18.06,5.74,0,2.27-2.47,3.87-4.32,4.89-2.24,1.22-5.39,3.21-9.35,5.92-3.9,2.67-12.29,10.17-24.93,22.28-12.64,12.11-25.5,26.51-38.26,42.82-.13.15-.23.25-.27.47.09.04.21.07.38.11,1.18.22,2.82.52,4.94.96,2.29.45,6.2,2.1,11.96,5.04,5.7,2.9,10.88,6.62,15.41,11.03,4.55,4.44,8.97,11.31,13.15,20.4,4.17,9.1,6.61,17.79,7.26,25.84.63,7.88,1.26,14.99,1.89,21.31.63,6.25,2.27,15.33,4.87,26.99,3.14,14.1,6.43,18.76,8.63,20.17,1.56,1.26,2.32,2.79,2.32,4.53,0,4.26-4.79,7.72-15.05,10.86-9.39,2.88-17.9,4.34-25.29,4.34-10.13,0-13.25-5.53-14.08-10.18-1.08-6.47-1.81-21.34-2.23-45.46v-12.69c0-21.71-3.11-37.58-9.23-47.19-5.23-8.24-9.89-12.89-13.87-13.84-2.98-.93-4.27-1.31-4.83-1.46l-2.66,1.21c-4.86,5.7-8.76,11.26-11.59,16.52-3.53,6.55-4.43,9.8-4.56,11.38l-.65,4.23c.02,29.27,1.29,54.84,3.8,75.75.56,3.39.64,4.23.64,4.63,0,5.45-5.17,9.87-15.79,13.52-9.93,3.42-18.2,5.15-24.55,5.15ZM8.95,232.44s.77,1.23,7.71,1.23c6,0,13.91-1.67,23.5-4.97,6.21-2.14,13.61-5.68,13.61-10.48,0-.16-.07-.9-.61-4.17-2.54-21.11-3.82-46.81-3.82-76.45l.65-4.37c.22-2.66,1.83-6.8,4.92-12.52,2.98-5.55,7.09-11.38,12.21-17.36.15-.18.34-.32.56-.4l3.48-1.59c.21-.1.44-.14.67-.14.33,0,.55,0,5.86,1.65,4.79,1.15,9.97,6.13,15.74,15.22,6.46,10.12,9.73,26.58,9.73,48.92v12.65c.42,23.6,1.15,38.74,2.19,44.94.91,5.12,4.38,7.51,10.9,7.51,7.07,0,15.26-1.41,24.34-4.2,11.53-3.54,12.77-6.61,12.77-7.77,0-.78-.3-1.37-.98-1.92-3.86-2.48-7.14-9.73-9.89-22.09-2.63-11.79-4.29-21.01-4.93-27.38-.63-6.33-1.27-13.46-1.9-21.37-.61-7.68-2.96-16-6.97-24.76-4.01-8.73-8.2-15.26-12.46-19.42-4.3-4.19-9.22-7.72-14.62-10.48-6.75-3.43-9.78-4.48-11.13-4.76-2.09-.42-3.72-.72-4.87-.94-2.76-.49-3.06-2.27-3.06-3.01,0-1.18.37-2.15,1.11-2.87,12.71-16.29,25.69-30.82,38.44-43.03,12.95-12.41,21.24-19.81,25.34-22.61,4.11-2.82,7.26-4.81,9.62-6.1,2.46-1.35,2.64-2.07,2.64-2.07,0,0-.41-2.49-14.83-2.49-10.69,0-17.82.71-21.2,2.1-3.35,1.37-7.79,5.01-13.18,10.83-5.54,5.95-11.09,12.45-16.51,19.35h0c-5.4,6.85-11.4,14.81-17.82,23.65-6.43,8.85-10.85,14.96-13.27,18.34-2.41,3.34-4.24,5.96-5.5,7.85-1.62,2.42-3.1,3.57-4.66,3.57-1.14,0-3.04-.63-3.04-4.78,0-25.88,1.39-50.51,4.12-73.22l.31-4.04c0-2.31-5.23-2.68-8.35-2.68-6.47,0-15.17,1.36-25.85,4.05-14.33,3.62-15.06,6.44-15.06,6.98.01.03.25,1.03,3.13,4.69,3.2,4.35,5.37,16.41,6.67,36.94.84,13.32,1.27,30.84,1.27,52.11s-.48,45.26-1.42,71.19c-.96,26.49-2.51,41.73-4.73,46.61-.51,1.57-.81,2.99-.81,4.08h0Z"/>
      </g>
      <path class="cls-29" d="M16.67,236.89c-5.09,0-10.94-.5-10.94-4.46,0-1.46.34-3.17,1.03-5.25,1.44-3.21,3.34-13.55,4.5-45.56.94-25.88,1.42-49.8,1.42-71.06s-.43-38.66-1.26-51.91c-1.54-24.42-4.12-32.62-6.01-35.18-3.33-4.23-3.79-5.7-3.79-6.65,0-3.93,5.4-7.06,17.5-10.11,10.94-2.75,19.9-4.15,26.64-4.15,7.68,0,11.57,2.03,11.57,6.03l-.32,4.23c-2.73,22.66-4.11,47.16-4.11,72.92,0,.68.06,1.1.11,1.37.31-.23.87-.75,1.67-1.96,1.27-1.9,3.12-4.56,5.56-7.95,2.42-3.36,6.85-9.49,13.28-18.34,6.45-8.88,12.47-16.87,17.9-23.77h0c5.48-6.93,11.09-13.51,16.69-19.54,5.79-6.23,10.48-10.04,14.32-11.6,3.82-1.59,11.16-2.35,22.43-2.35,12.66,0,18.06,1.71,18.06,5.74,0,2.27-2.47,3.87-4.32,4.89-2.24,1.22-5.39,3.21-9.35,5.92-3.9,2.67-12.29,10.17-24.93,22.28-12.64,12.11-25.5,26.51-38.26,42.82-.13.15-.23.25-.27.47.09.04.21.07.38.11,1.18.22,2.82.52,4.94.96,2.29.45,6.2,2.1,11.96,5.04,5.7,2.9,10.88,6.62,15.41,11.03,4.55,4.44,8.97,11.31,13.15,20.4,4.17,9.1,6.61,17.79,7.26,25.84.63,7.88,1.26,14.99,1.89,21.31.63,6.25,2.27,15.33,4.87,26.99,3.14,14.1,6.43,18.76,8.63,20.17,1.56,1.26,2.32,2.79,2.32,4.53,0,4.26-4.79,7.72-15.05,10.86-9.39,2.88-17.9,4.34-25.29,4.34-10.13,0-13.25-5.53-14.08-10.18-1.08-6.47-1.81-21.34-2.23-45.46v-12.69c0-21.71-3.11-37.58-9.23-47.19-5.23-8.24-9.89-12.89-13.87-13.84-2.98-.93-4.27-1.31-4.83-1.46l-2.66,1.21c-4.86,5.7-8.76,11.26-11.59,16.52-3.53,6.55-4.43,9.8-4.56,11.38l-.65,4.23c.02,29.27,1.29,54.84,3.8,75.75.56,3.39.64,4.23.64,4.63,0,5.45-5.17,9.87-15.79,13.52-9.93,3.42-18.2,5.15-24.55,5.15ZM8.95,232.44s.77,1.23,7.71,1.23c6,0,13.91-1.67,23.5-4.97,6.21-2.14,13.61-5.68,13.61-10.48,0-.16-.07-.9-.61-4.17-2.54-21.11-3.82-46.81-3.82-76.45l.65-4.37c.22-2.66,1.83-6.8,4.92-12.52,2.98-5.55,7.09-11.38,12.21-17.36.15-.18.34-.32.56-.4l3.48-1.59c.21-.1.44-.14.67-.14.33,0,.55,0,5.86,1.65,4.79,1.15,9.97,6.13,15.74,15.22,6.46,10.12,9.73,26.58,9.73,48.92v12.65c.42,23.6,1.15,38.74,2.19,44.94.91,5.12,4.38,7.51,10.9,7.51,7.07,0,15.26-1.41,24.34-4.2,11.53-3.54,12.77-6.61,12.77-7.77,0-.78-.3-1.37-.98-1.92-3.86-2.48-7.14-9.73-9.89-22.09-2.63-11.79-4.29-21.01-4.93-27.38-.63-6.33-1.27-13.46-1.9-21.37-.61-7.68-2.96-16-6.97-24.76-4.01-8.73-8.2-15.26-12.46-19.42-4.3-4.19-9.22-7.72-14.62-10.48-6.75-3.43-9.78-4.48-11.13-4.76-2.09-.42-3.72-.72-4.87-.94-2.76-.49-3.06-2.27-3.06-3.01,0-1.18.37-2.15,1.11-2.87,12.71-16.29,25.69-30.82,38.44-43.03,12.95-12.41,21.24-19.81,25.34-22.61,4.11-2.82,7.26-4.81,9.62-6.1,2.46-1.35,2.64-2.07,2.64-2.07,0,0-.41-2.49-14.83-2.49-10.69,0-17.82.71-21.2,2.1-3.35,1.37-7.79,5.01-13.18,10.83-5.54,5.95-11.09,12.45-16.51,19.35h0c-5.4,6.85-11.4,14.81-17.82,23.65-6.43,8.85-10.85,14.96-13.27,18.34-2.41,3.34-4.24,5.96-5.5,7.85-1.62,2.42-3.1,3.57-4.66,3.57-1.14,0-3.04-.63-3.04-4.78,0-25.88,1.39-50.51,4.12-73.22l.31-4.04c0-2.31-5.23-2.68-8.35-2.68-6.47,0-15.17,1.36-25.85,4.05-14.33,3.62-15.06,6.44-15.06,6.98.01.03.25,1.03,3.13,4.69,3.2,4.35,5.37,16.41,6.67,36.94.84,13.32,1.27,30.84,1.27,52.11s-.48,45.26-1.42,71.19c-.96,26.49-2.51,41.73-4.73,46.61-.51,1.57-.81,2.99-.81,4.08h0Z"/>
    </g>
  </g>
</svg>