<?xml version="1.0" encoding="UTF-8"?>
<svg xmlns="http://www.w3.org/2000/svg" xmlns:xlink="http://www.w3.org/1999/xlink" viewBox="0 0 285.15 230.39">
  <defs>
    <style>
      .cls-1 {
        fill: url(#_ÂÁ_Ï_ÌÌ_È_ËÂÌÚ_2040-2);
      }

      .cls-2 {
        fill: url(#_ÂÁ_Ï_ÌÌ_È_ËÂÌÚ_3786-2);
      }

      .cls-2, .cls-3, .cls-4, .cls-5, .cls-6, .cls-7, .cls-8 {
        mix-blend-mode: multiply;
      }

      .cls-9 {
        fill: url(#_ÂÁ_Ï_ÌÌ_È_ËÂÌÚ_138);
      }

      .cls-10 {
        fill: #a39abb;
        mix-blend-mode: soft-light;
        opacity: .3;
      }

      .cls-11 {
        isolation: isolate;
      }

      .cls-12 {
        fill: url(#_ÂÁ_Ï_ÌÌ_È_ËÂÌÚ_1671-2);
      }

      .cls-12, .cls-13, .cls-14, .cls-15, .cls-16, .cls-17, .cls-18 {
        mix-blend-mode: screen;
      }

      .cls-13 {
        fill: url(#_ÂÁ_Ï_ÌÌ_È_ËÂÌÚ_1671-3);
      }

      .cls-14 {
        fill: url(#_ÂÁ_Ï_ÌÌ_È_ËÂÌÚ_2058);
      }

      .cls-15 {
        fill: url(#_ÂÁ_Ï_ÌÌ_È_ËÂÌÚ_3883);
      }

      .cls-16 {
        fill: url(#_ÂÁ_Ï_ÌÌ_È_ËÂÌÚ_1671);
      }

      .cls-19 {
        fill: #681e26;
      }

      .cls-3 {
        fill: url(#_ÂÁ_Ï_ÌÌ_È_ËÂÌÚ_3838);
      }

      .cls-3, .cls-4 {
        opacity: .8;
      }

      .cls-4 {
        fill: url(#_ÂÁ_Ï_ÌÌ_È_ËÂÌÚ_1944);
      }

      .cls-5 {
        fill: url(#_ÂÁ_Ï_ÌÌ_È_ËÂÌÚ_3773);
      }

      .cls-5, .cls-6, .cls-17, .cls-18 {
        opacity: .6;
      }

      .cls-6 {
        fill: url(#_ÂÁ_Ï_ÌÌ_È_ËÂÌÚ_3767);
      }

      .cls-17 {
        fill: url(#_ÂÁ_Ï_ÌÌ_È_ËÂÌÚ_3837);
      }

      .cls-7 {
        fill: url(#_ÂÁ_Ï_ÌÌ_È_ËÂÌÚ_1900);
      }

      .cls-8 {
        fill: url(#_ÂÁ_Ï_ÌÌ_È_ËÂÌÚ_3786);
      }

      .cls-20 {
        fill: url(#_ÂÁ_Ï_ÌÌ_È_ËÂÌÚ_3807);
      }

      .cls-21 {
        fill: url(#_ÂÁ_Ï_ÌÌ_È_ËÂÌÚ_2040);
      }

      .cls-22 {
        fill: url(#_ÂÁ_Ï_ÌÌ_È_ËÂÌÚ_1979);
      }

      .cls-23 {
        fill: url(#_ÂÁ_Ï_ÌÌ_È_ËÂÌÚ_1954);
      }

      .cls-18 {
        fill: url(#_ÂÁ_Ï_ÌÌ_È_ËÂÌÚ_3837-2);
      }
    </style>
    <linearGradient id="_ÂÁ_Ï_ÌÌ_È_ËÂÌÚ_1900" data-name="¡ÂÁ˚ÏˇÌÌ˚È „‡‰ËÂÌÚ 1900" x1="1516.46" y1="-686.27" x2="1516.46" y2="-869.14" gradientTransform="translate(-888.69 1475.2) rotate(-26.27)" gradientUnits="userSpaceOnUse">
      <stop offset="0" stop-color="#e7a4df"/>
      <stop offset="1" stop-color="#a12a9a"/>
    </linearGradient>
    <linearGradient id="_ÂÁ_Ï_ÌÌ_È_ËÂÌÚ_2040" data-name="¡ÂÁ˚ÏˇÌÌ˚È „‡‰ËÂÌÚ 2040" x1="1547.67" y1="-780.62" x2="1547.67" y2="-880.95" gradientTransform="translate(-888.69 1475.2) rotate(-26.27)" gradientUnits="userSpaceOnUse">
      <stop offset="0" stop-color="#371f5d"/>
      <stop offset=".55" stop-color="#2e1d5d"/>
      <stop offset="1" stop-color="#231c5e"/>
    </linearGradient>
    <linearGradient id="_ÂÁ_Ï_ÌÌ_È_ËÂÌÚ_2040-2" data-name="¡ÂÁ˚ÏˇÌÌ˚È „‡‰ËÂÌÚ 2040" x1="3917.25" y1="-780.28" x2="3917.25" y2="-880.63" gradientTransform="translate(3955.61 -915.71) rotate(153.73) scale(1 -1)" xlink:href="#_ÂÁ_Ï_ÌÌ_È_ËÂÌÚ_2040"/>
    <linearGradient id="_ÂÁ_Ï_ÌÌ_È_ËÂÌÚ_1954" data-name="¡ÂÁ˚ÏˇÌÌ˚È „‡‰ËÂÌÚ 1954" x1="1515.43" y1="-699.73" x2="1515.43" y2="-882.27" gradientTransform="translate(-888.69 1475.2) rotate(-26.27)" gradientUnits="userSpaceOnUse">
      <stop offset="0" stop-color="#352e51"/>
      <stop offset=".53" stop-color="#3b3359"/>
      <stop offset="1" stop-color="#453b66"/>
    </linearGradient>
    <linearGradient id="_ÂÁ_Ï_ÌÌ_È_ËÂÌÚ_138" data-name="¡ÂÁ˚ÏˇÌÌ˚È „‡‰ËÂÌÚ 138" x1="1515.57" y1="-724.25" x2="1514.23" y2="-920.84" gradientTransform="translate(-888.69 1475.2) rotate(-26.27)" gradientUnits="userSpaceOnUse">
      <stop offset="0" stop-color="#fa6300"/>
      <stop offset="1" stop-color="#ffba00"/>
    </linearGradient>
    <linearGradient id="_ÂÁ_Ï_ÌÌ_È_ËÂÌÚ_3767" data-name="¡ÂÁ˚ÏˇÌÌ˚È „‡‰ËÂÌÚ 3767" x1="1430.41" y1="-692.93" x2="1431.9" y2="-847.92" gradientTransform="translate(-888.69 1475.2) rotate(-26.27)" gradientUnits="userSpaceOnUse">
      <stop offset="0" stop-color="#5d0099"/>
      <stop offset="1" stop-color="#f3cfff"/>
    </linearGradient>
    <linearGradient id="_ÂÁ_Ï_ÌÌ_È_ËÂÌÚ_3773" data-name="¡ÂÁ˚ÏˇÌÌ˚È „‡‰ËÂÌÚ 3773" x1="1596.96" y1="-690.59" x2="1598.58" y2="-859.02" gradientTransform="translate(-888.69 1475.2) rotate(-26.27)" gradientUnits="userSpaceOnUse">
      <stop offset="0" stop-color="#5d0099"/>
      <stop offset="1" stop-color="#fff"/>
    </linearGradient>
    <linearGradient id="_ÂÁ_Ï_ÌÌ_È_ËÂÌÚ_3786" data-name="¡ÂÁ˚ÏˇÌÌ˚È „‡‰ËÂÌÚ 3786" x1="1474.72" y1="-747.67" x2="1476.32" y2="-913.9" gradientTransform="translate(-888.69 1475.2) rotate(-26.27)" gradientUnits="userSpaceOnUse">
      <stop offset="0" stop-color="#fff"/>
      <stop offset="1" stop-color="#760099"/>
    </linearGradient>
    <linearGradient id="_ÂÁ_Ï_ÌÌ_È_ËÂÌÚ_3786-2" data-name="¡ÂÁ˚ÏˇÌÌ˚È „‡‰ËÂÌÚ 3786" x1="2625.89" y1="-747.33" x2="2627.5" y2="-914.47" gradientTransform="translate(2862.79 -376.41) rotate(153.73) scale(1 -1)" xlink:href="#_ÂÁ_Ï_ÌÌ_È_ËÂÌÚ_3786"/>
    <linearGradient id="_ÂÁ_Ï_ÌÌ_È_ËÂÌÚ_3807" data-name="¡ÂÁ˚ÏˇÌÌ˚È „‡‰ËÂÌÚ 3807" x1="1507.45" y1="-796.44" x2="1534.82" y2="-876.45" gradientTransform="translate(-888.69 1475.2) rotate(-26.27)" gradientUnits="userSpaceOnUse">
      <stop offset="0" stop-color="#fab300"/>
      <stop offset="1" stop-color="#ffd300"/>
    </linearGradient>
    <linearGradient id="_ÂÁ_Ï_ÌÌ_È_ËÂÌÚ_1671" data-name="¡ÂÁ˚ÏˇÌÌ˚È „‡‰ËÂÌÚ 1671" x1="1628.46" y1="-795.03" x2="1628.79" y2="-829.48" gradientTransform="translate(-888.69 1475.2) rotate(-26.27)" gradientUnits="userSpaceOnUse">
      <stop offset="0" stop-color="#000"/>
      <stop offset=".99" stop-color="#ffffea"/>
    </linearGradient>
    <linearGradient id="_ÂÁ_Ï_ÌÌ_È_ËÂÌÚ_1671-2" data-name="¡ÂÁ˚ÏˇÌÌ˚È „‡‰ËÂÌÚ 1671" x1="2674.53" y1="-796.94" x2="2674.85" y2="-829.19" gradientTransform="translate(2769.95 -330.59) rotate(153.73) scale(1 -1)" xlink:href="#_ÂÁ_Ï_ÌÌ_È_ËÂÌÚ_1671"/>
    <linearGradient id="_ÂÁ_Ï_ÌÌ_È_ËÂÌÚ_1671-3" data-name="¡ÂÁ˚ÏˇÌÌ˚È „‡‰ËÂÌÚ 1671" x1="1494.65" y1="-800.59" x2="1535.88" y2="-800.59" xlink:href="#_ÂÁ_Ï_ÌÌ_È_ËÂÌÚ_1671"/>
    <linearGradient id="_ÂÁ_Ï_ÌÌ_È_ËÂÌÚ_3837" data-name="¡ÂÁ˚ÏˇÌÌ˚È „‡‰ËÂÌÚ 3837" x1="1643.08" y1="-714.9" x2="1629.57" y2="-738.31" gradientTransform="translate(-888.69 1475.2) rotate(-26.27)" gradientUnits="userSpaceOnUse">
      <stop offset="0" stop-color="#7a4fa9"/>
      <stop offset="1" stop-color="#000"/>
    </linearGradient>
    <linearGradient id="_ÂÁ_Ï_ÌÌ_È_ËÂÌÚ_3837-2" data-name="¡ÂÁ˚ÏˇÌÌ˚È „‡‰ËÂÌÚ 3837" x1="2684.53" y1="-714.59" x2="2671.01" y2="-738.01" gradientTransform="translate(2765.95 -328.61) rotate(153.73) scale(1 -1)" xlink:href="#_ÂÁ_Ï_ÌÌ_È_ËÂÌÚ_3837"/>
    <linearGradient id="_ÂÁ_Ï_ÌÌ_È_ËÂÌÚ_3838" data-name="¡ÂÁ˚ÏˇÌÌ˚È „‡‰ËÂÌÚ 3838" x1="1515.57" y1="-784.81" x2="1515.57" y2="-818.59" gradientTransform="translate(-888.69 1475.2) rotate(-26.27)" gradientUnits="userSpaceOnUse">
      <stop offset="0" stop-color="#760099"/>
      <stop offset="1" stop-color="#fff"/>
    </linearGradient>
    <linearGradient id="_ÂÁ_Ï_ÌÌ_È_ËÂÌÚ_3883" data-name="¡ÂÁ˚ÏˇÌÌ˚È „‡‰ËÂÌÚ 3883" x1="1532.35" y1="-745.49" x2="1532.35" y2="-805.27" gradientTransform="translate(-888.69 1475.2) rotate(-26.27)" gradientUnits="userSpaceOnUse">
      <stop offset="0" stop-color="#000"/>
      <stop offset="1" stop-color="#a26d00"/>
    </linearGradient>
    <linearGradient id="_ÂÁ_Ï_ÌÌ_È_ËÂÌÚ_1979" data-name="¡ÂÁ˚ÏˇÌÌ˚È „‡‰ËÂÌÚ 1979" x1="1516.25" y1="-699.39" x2="1516.25" y2="-752.75" gradientTransform="translate(-888.69 1475.2) rotate(-26.27)" gradientUnits="userSpaceOnUse">
      <stop offset="0" stop-color="#261f49"/>
      <stop offset=".62" stop-color="#241648"/>
      <stop offset="1" stop-color="#230e48"/>
    </linearGradient>
    <linearGradient id="_ÂÁ_Ï_ÌÌ_È_ËÂÌÚ_1944" data-name="¡ÂÁ˚ÏˇÌÌ˚È „‡‰ËÂÌÚ 1944" x1="1517.84" y1="-705.53" x2="1517.84" y2="-733.25" gradientTransform="translate(-888.69 1475.2) rotate(-26.27)" gradientUnits="userSpaceOnUse">
      <stop offset="0" stop-color="#cac7e0"/>
      <stop offset="1" stop-color="#5d0099"/>
    </linearGradient>
    <linearGradient id="_ÂÁ_Ï_ÌÌ_È_ËÂÌÚ_2058" data-name="¡ÂÁ˚ÏˇÌÌ˚È „‡‰ËÂÌÚ 2058" x1="1524.5" y1="-699.67" x2="1524.5" y2="-755" gradientTransform="translate(-888.69 1475.2) rotate(-26.27)" gradientUnits="userSpaceOnUse">
      <stop offset="0" stop-color="#000"/>
      <stop offset="1" stop-color="#3f3138"/>
    </linearGradient>
  </defs>
  <g class="cls-11">
    <g id="Layer_2" data-name="Layer 2">
      <g id="_Layer_" data-name="&amp;lt;Layer&amp;gt;">
        <g>
          <path class="cls-7" d="M278.17,74.65c-.32-.03-.61-.06-.92-.08-.19-.26-.39-.52-.59-.78-.29-.39-.58-.78-.88-1.16-.9-1.14-1.85-2.28-2.88-3.42-.34-.38-.71-.77-1.06-1.15-.84-.91-1.71-1.8-2.63-2.72-.38-.38-.77-.77-1.17-1.16-1.2-1.15-2.45-2.3-3.77-3.45-.47-.41-.97-.82-1.46-1.24-1.07-.91-2.18-1.82-3.32-2.72-.46-.36-.89-.73-1.35-1.08-1.48-1.13-3.02-2.28-4.61-3.39-.59-.43-1.19-.84-1.8-1.25-.46-.32-.91-.65-1.37-.96v-.03c-1.04-.7-2.13-1.38-3.2-2.06-.27-.19-.55-.37-.83-.55-1.89-1.19-3.86-2.38-5.87-3.55-.56-.32-1.13-.64-1.7-.97-1.58-.9-3.21-1.78-4.87-2.67-.15-.08-.29-.16-.44-.24,0,0,0,0,0,0,0,0-.08-.03-.19-.1-.36-.19-.73-.38-1.11-.58-2.16-1.11-4.37-2.2-6.65-3.28-.36-.16-.73-.32-1.1-.49-2.01-.93-4.06-1.83-6.14-2.72-.59-.26-1.17-.51-1.76-.74-2.46-1.03-4.95-2.02-7.5-2.98-.62-.23-1.22-.43-1.84-.65-1.85-.71-3.62-1.35-5.25-1.87-.08-.03-.15-.06-.23-.08-.08-.03-.14-.06-.21-.07h0c-31.35-10.76-55.89-13.59-73.74-12.97-.45-.06-.75-.09-.75-.09-.04.03-.05.08-.09.12h-.06c.06-.04.09-.09.15-.12-1.92.06-4.39.28-7.08.62-18.09,1.83-27.42,7.28-28.09,9.68h-.01.01c-.39,1.68,2.06,4.33,6.04,7.61,10.79,14,32.32,43.99,33.06,61.42,0,.15,0,.27,0,.43-2.02,1.69-4.22,3.25-6.54,4.61-1.13.6-1.87.92-1.87.92,0,0-.8.52-2.18,1.23-.55.27-1.09.49-1.64.73-1.37.54-2.81,1.03-4.31,1.46-.32-.27-.62-.48-.94-.75-17.89-14.95-31-73.05-31-73.05l-.42.65c-.1-.11-.2-.21-.32-.25-1.46-.59-6.41,1.59-13.08,6.84-5.08,3.61-10.92,9.6-14.31,13.72h0c-13.27,15.04-28.15,38.67-37.08,72.15-.84,3.17-1.62,6.27-2.35,9.32-.23.93-.44,1.85-.65,2.77-.53,2.29-1.02,4.54-1.49,6.76-.17.81-.34,1.62-.5,2.4-.26,1.29-.49,2.54-.72,3.8-.47,2.15-.75,3.48-.75,3.48.04-.03.07-.03.11-.06-.07.4-.14.8-.21,1.21-.1.59-.18,1.17-.28,1.76-.37,2.25-.7,4.46-1,6.63-.1.75-.21,1.5-.3,2.24-.32,2.46-.59,4.88-.82,7.22-.02.17-.04.37-.05.54-.25,2.68-.43,5.27-.56,7.82-.01.29-.02.58-.03.87-.11,2.42-.18,4.76-.19,7.06,0,.09,0,.18,0,.27-.01,4.72.2,9.19.61,13.36,0,.03,0,.06.01.09.18,1.82.4,3.58.66,5.28.05.3.09.6.14.89.24,1.49.51,2.93.81,4.33.06.3.12.61.19.91.37,1.64.77,3.23,1.21,4.74,2.76,5.14,8.3,8.67,15.28,11.06.12.04.2.07.31.08,1.25.43,2.56.8,3.89,1.14,8.66,2.86,19.81,3.33,29.95,2.9,10.16-.14,19.9-1.15,27.08-2.42,0,0-.02-.23-.04-.62.09-.03.14-.03.14-.03,6.32,3.73,84.1-66.64,158.63-77.67,2.42-.38,12.84-11.9,18.14-17.92.15-.16.29-.33.45-.5.53-.6.97-1.11,1.37-1.56.37-.43.74-.85,1.11-1.27t.01-.03s0,.02,0,.02c7.04-8.31,13.27-17.63,15.86-27.06,6.35-21.41-5.05-26.54-5.05-26.54Z"/>
          <path class="cls-21" d="M85.98,11.91s38.13,45.73,39.12,69.02c.99,23.3-8.12,27.56-8.12,27.56l60.4-62.61-29.05-29.93-62.34-4.05Z"/>
          <path class="cls-1" d="M76.63,16.52s13.11,58.08,30.99,73.04c17.89,14.96,26.82,10.32,26.82,10.32l-86.44,9.85-6.08-41.26,34.71-51.95Z"/>
          <path class="cls-23" d="M278.69,80.65c-.01,2.9-.48,5.84-1.29,8.75v.03c-5.2,19.02-25.17,37.55-36.91,48.32,0,0-30.28-28.42-87.37-5.55-3.74,1.51-7.58,3.21-11.53,5.16-6.01,2.97-11.44,6.08-16.32,9.27t-.05.03c-47.28,30.92-43.45,69.41-43.45,69.41-15.54,2.72-42.94,4.37-60.93-1.61-.11-.01-.18-.04-.31-.08-6.98-2.4-12.51-5.93-15.28-11.07-1.88-6.41-3.08-13.9-3.47-22.38-.95-18.89,2.02-42.8,9.64-71.33C29.3,42.56,71.11,14.97,75.89,16.9c4.75,1.94-6.97,50.62,6.16,67.25,13.13,16.67,34.65,2.76,34.65,2.76,0,0,24.64-10.67,18.9-29.18-6.21-20.22-50.96-40.86-49.61-45.81,1.35-4.96,39.97-23.23,117.19,5.43,15.82,5.88,29.82,13.19,41.36,20.94v.03c21.41,14.43,34.23,30.52,34.16,42.33Z"/>
          <path class="cls-9" d="M278.69,80.65c-.01,2.9-.48,5.84-1.29,8.75C232.13,10.91,115.67.36,103.42,13.04c-4.84,5.03,37.94,35.87,40.65,57.78.28,2.04.16,4.02-.34,5.87-6.01,21.82-46.39,46.5-62.59,12.66-.65-1.39-1.27-2.77-1.82-4.15-13.07-32.22,1.71-60.62-19.59-46.65C23.97,62.01-11.47,184.94,20.83,214.46c-.11-.01-.18-.04-.31-.08-6.98-2.4-12.51-5.93-15.28-11.07C-.88,182.54.39,150.92,11.42,109.6,29.3,42.56,71.11,14.97,75.89,16.9c4.75,1.94-6.97,50.62,6.16,67.25,13.13,16.67,34.65,2.76,34.65,2.76,0,0,24.64-10.67,18.9-29.18-6.21-20.22-50.96-40.86-49.61-45.81,1.35-4.96,39.97-23.23,117.19,5.43,45.23,16.81,75.64,45.13,75.52,63.3Z"/>
          <path class="cls-6" d="M102.36,148.12c7.07,3.34,12.34,2.09,22.85-1.46-47.28,30.92-43.45,69.41-43.45,69.41-15.54,2.72-42.94,4.37-60.93-1.61-.11-.01-.18-.04-.31-.08-6.98-2.4-12.51-5.93-15.28-11.07-1.88-6.41-3.08-13.9-3.47-22.38,22.28,25.36,79.63.62,75.14-20.04-4.65-21.45-17.77-79.03-2.59-107.12-2.38,22.89,9.44,35.95,9.44,35.95,0,0,1.48,50.31,18.59,58.4Z"/>
          <path class="cls-5" d="M278.69,80.65c-.01,2.9-.48,5.84-1.29,8.75v.03c-5.2,19.02-25.17,37.55-36.91,48.32,0,0-30.28-28.42-87.37-5.55,11.32-8.2,24.28-21.36,22.96-28.85-3.37-18.64-40.49-45.61-40.49-45.61-1-10.17-29.84-32.61-31.04-33.24,40.25,15.75,86.39,70.68,108.66,75.92,22.28,5.26,55.51-22.92,31.33-62.09,21.4,14.43,34.22,30.52,34.15,42.33Z"/>
          <path class="cls-8" d="M48.5,37.48c23.72-8.06,12.68,91.09,27.86,126.06,0,0-4.89-42.58-4.8-85.28.09-42.7,3.67-51.91.23-56.65-3.44-4.74-17.26,8.53-23.3,15.87Z"/>
          <path class="cls-2" d="M121.16,1.61c-20.82,13.92,64.6,65.47,83.12,98.8,0,0-29.75-27.19-63.69-53.1-33.94-25.9-48.38-30.3-50.05-35.91-1.67-5.61,21.12-9.46,30.62-9.78Z"/>
          <path class="cls-20" d="M75.89,16.9c3.89,3.58-5.83,56.89,10.05,70.51,15.88,13.61,48.83-6.3,50.4-24.04,1.57-17.73-52.07-44.02-50.35-51.44,1.06,6.84,50.97,30.78,51.96,50.12,1.15,22.6-38.81,43.63-54.17,27.68-15.37-15.94-5.71-69.19-7.89-72.83Z"/>
          <path class="cls-10" d="M93.48,97.21c-10.55,5.21,10.53,47.27,11.15,48.53.62,1.26,37.88-10.58,55.11-22.5,17.23-11.94-4-36.69-12.77-45.46-8.78-8.76-21.43,22.98-53.48,19.44Z"/>
          <path class="cls-10" d="M121.16,1.61c-14.82,17.21,45.15,78.69,80.19,102.07,35.03,23.37,48.65-24.99,37.12-56.79C226.94,15.11,121.16,1.61,121.16,1.61Z"/>
          <path class="cls-10" d="M56.14,36.94C29,52.81,2.83,138.2,12.01,171.99c9.17,33.78,69.4-10.92,69.4-10.92,0,0-27.1-94.07-25.27-124.12Z"/>
          <path class="cls-16" d="M195.65,14.67c4.46,5.29.73,8.33.73,8.33,0,0,15.76,6.45,28.18,14.29,0,0-4.22-6.65,3.08-9.05,0,0-20.29-9.83-31.99-13.58Z"/>
          <path class="cls-12" d="M13.64,104.49c1.49,6.76,5.22,5.72,5.22,5.72,0,0-5.67,15.1-7,29.73,0,0-.55-6.14-6.9-1.8,0,0,4.54-22.07,8.68-33.65Z"/>
          <path class="cls-13" d="M99.42,91.89c-4.4.26,3.53,3.09,3.53,3.09,0,0,6.77.06,18.97-7.04,9.87-5.73,11.02-13.97,11.02-13.97,0,0-12.34,16.7-33.52,17.92Z"/>
          <path class="cls-10" d="M189.07,26.97c-31.07.97-13.55,51.67,18.34,63.11,31.88,11.43,34.22-30.56,34.22-30.56,0,0-28.91-27.04-52.56-32.55Z"/>
          <path class="cls-10" d="M94.76,107.87c-9.23,6.76,11.14,41.05,48.91,27.1,37.77-13.96,12.19-46.63,6.13-52.46-6.06-5.84,2.24,8.66-21.12,19.55-23.36,10.9-33.92,5.81-33.92,5.81Z"/>
          <path class="cls-10" d="M64.74,88.96c-12.82-17.1-32.66-6.06-32.66-6.06,0,0-25.88,62.75-17.45,79.84,8.43,17.07,48.92,11.14,55.73,2.78,6.81-8.35-4.48-77.74-4.48-77.74l-1.13,1.17Z"/>
          <path class="cls-17" d="M272.36,62.89c-16.78-2.2-8.38,18.22-16.18,42.89-7.81,24.67-14.25,30.63-14.25,30.63,0,0,29.13-25.61,35.49-47,6.35-21.41-5.05-26.53-5.05-26.53Z"/>
          <path class="cls-18" d="M5,194.82c8.46-14.65,19.55,4.44,43.89,13.26,24.34,8.82,32.98,7.33,32.98,7.33,0,0-38.03,7.55-58.88-.43-20.85-7.97-17.99-20.16-17.99-20.16Z"/>
          <path class="cls-3" d="M144.07,70.81c.28,2.04.16,4.02-.34,5.87-6.01,21.82-46.39,46.5-62.59,12.66-.65-1.39-1.27-2.77-1.82-4.15l.03-.47s4.66,10.65,15.31,10.31c-3.88,5.9,12.86,16.67,33.92,1.43,21.07-15.24,9.19-30.71,9.19-30.71l-.36-7.35s4.2,5.05,6.65,12.41Z"/>
          <path class="cls-15" d="M125.45,85.51c8.27-5.92,21.15,44.78,22.71,45.91,1.57,1.12,7.79-3.84,7.79-3.84,0,0-15.8-30.25-19.47-40.3-3.68-10.05-.41-15.71-.41-15.71,0,0-4.24,9.92-10.62,13.93Z"/>
          <path class="cls-22" d="M81.87,215.41c6.32,3.73,84.1-66.63,158.63-77.67,0,0-22.46-41-96.2-11.18-71.84,29.07-64.15,85.39-62.43,88.85Z"/>
          <path class="cls-4" d="M96.08,197.4c4.04,10.85,35.95-20.25,70.84-37.46,34.89-17.22,54.03-17.94,53.47-23.19-.56-5.24-37.31-7.79-73.23,9.67-35.92,17.42-52.86,46.2-51.09,50.99Z"/>
          <path class="cls-14" d="M69.34,217.31c12.42-1.24-.16-56.02,64.05-88.34,64.21-32.31,99.09-.32,108.4-.15,9.31.18,19.98-12.57,19.98-12.57,0,0-18,20.97-21.27,21.5,0,0-37.55-35.34-102.91-7.12-65.36,28.22-55.72,84.79-55.72,84.79,0,0-8.71,1.47-12.52,1.89Z"/>
          <path class="cls-19" d="M121.16,1.61c-.06.03-.1.08-.15.13h.07s.05-.1.09-.13c0,0,.3.03.75.1,1.53-.05,3.12-.09,4.75-.09,17.37,0,40.33,3.21,68.99,13.05h0c.07.01.14.05.21.06.08.04.16.07.23.09,1.62.53,3.39,1.17,5.24,1.87.62.23,1.22.43,1.84.66,2.55.95,5.04,1.94,7.5,2.97.6.25,1.18.5,1.77.75,2.09.89,4.13,1.79,6.14,2.73.36.16.73.33,1.09.5,2.28,1.06,4.49,2.16,6.66,3.29.37.19.74.38,1.11.57.1.05.19.1.19.1h-.01c.15.08.29.16.44.25,1.66.87,3.29,1.77,4.88,2.67.57.32,1.15.64,1.7.96,2.02,1.16,3.98,2.35,5.87,3.55.29.18.56.35.83.54,1.07.69,2.15,1.37,3.19,2.07v.03c.49.32.93.64,1.39.96.6.41,1.2.82,1.79,1.24,1.58,1.14,3.13,2.27,4.61,3.41.46.36.9.71,1.35,1.08,1.14.91,2.25,1.81,3.32,2.72.49.41.99.82,1.46,1.24,1.31,1.15,2.58,2.3,3.77,3.45.41.38.79.77,1.17,1.16.92.91,1.79,1.82,2.63,2.71.36.39.72.77,1.06,1.15,1.03,1.15,1.98,2.29,2.88,3.42.3.38.59.77.88,1.15.19.26.41.54.59.78.31.03.6.04.92.1,0,0,11.4,5.12,5.05,26.53-2.6,9.44-8.81,18.76-15.86,27.06,0,0,0,0,0-.01h0c-.37.45-.74.87-1.11,1.29-.39.45-.84.96-1.37,1.57-.14.16-.3.33-.44.49-5.29,6.01-15.73,17.53-18.14,17.92-72.61,10.75-148.3,77.82-158,77.82-.25,0-.47-.06-.63-.15,0,0-.06,0-.14.03.02.4.04.63.04.63-7.19,1.26-16.92,2.28-27.08,2.43-2.03.09-4.11.14-6.19.14-8.32,0-16.83-.77-23.76-3.05-1.34-.34-2.64-.71-3.9-1.13-.11-.01-.19-.04-.31-.08-6.98-2.4-12.51-5.93-15.28-11.07-.45-1.51-.84-3.11-1.21-4.74-.07-.3-.12-.61-.19-.92-.3-1.41-.57-2.84-.81-4.33-.05-.3-.09-.59-.14-.89-.26-1.7-.48-3.47-.67-5.27,0-.04,0-.06-.01-.09-.42-4.18-.62-8.64-.61-13.37,0-.08,0-.19,0-.27.01-2.29.07-4.65.19-7.06.01-.3.02-.58.04-.88.13-2.54.31-5.12.56-7.81.02-.18.04-.36.06-.54.22-2.35.5-4.77.81-7.22.1-.74.2-1.49.3-2.25.3-2.17.63-4.39,1-6.62.1-.59.18-1.17.28-1.77.07-.4.14-.81.22-1.22-.04.04-.07.05-.11.07,0,0,.27-1.32.74-3.49.24-1.26.47-2.51.72-3.78.16-.8.34-1.61.51-2.41.46-2.22.96-4.47,1.49-6.74.21-.93.43-1.85.65-2.79.73-3.06,1.5-6.15,2.35-9.32,8.92-33.46,23.81-57.09,37.08-72.13h0c3.39-4.13,9.23-10.11,14.31-13.74,5.96-4.68,10.55-6.93,12.5-6.93.23,0,.42.03.58.09.12.05.22.15.32.26l.42-.64s13.11,58.08,30.99,73.04c.33.27.63.49.95.74,1.5-.41,2.94-.9,4.31-1.45.55-.23,1.1-.47,1.64-.71,1.37-.71,2.17-1.22,2.17-1.22,0,0,.74-.34,1.87-.93,2.32-1.38,4.52-2.93,6.53-4.62,0-.15,0-.27,0-.43-.74-17.42-22.26-47.41-33.06-61.4-3.98-3.3-6.43-5.94-6.04-7.61h-.01s.01,0,.01,0c.67-2.4,10-7.85,28.09-9.68,2.69-.34,5.16-.55,7.08-.62h0ZM261.57,116.47h0,0ZM121.16,0h-.07c-1.98.07-4.47.28-7.21.62-16.46,1.67-27.92,6.76-29.37,10.63-.07.15-.11.32-.13.48-.39,2.21,1.46,4.75,6.49,8.91,9.58,12.45,31.55,42.72,32.6,59.97-1.8,1.45-3.72,2.79-5.71,3.97-.99.52-1.69.82-1.71.84-.08.03-.15.08-.22.12,0,0-.77.49-2.04,1.15-.47.22-1,.44-1.53.67-1.02.41-2.14.8-3.34,1.17-.08-.07-.17-.14-.25-.21-17.27-14.43-30.33-71.58-30.46-72.15-.14-.64-.65-1.12-1.28-1.24-.1-.01-.2-.03-.3-.03-.34,0-.67.11-.94.31-.12,0-.25-.03-.38-.03-2.65,0-7.7,2.73-13.5,7.3-5.1,3.62-11,9.64-14.56,13.96-11.74,13.32-27.8,36.78-37.39,72.74-.77,2.86-1.51,5.84-2.36,9.36-.19.8-.37,1.57-.55,2.36l-.1.43c-.53,2.29-1.03,4.55-1.49,6.78l-.18.84c-.11.54-.22,1.06-.33,1.58-.23,1.15-.45,2.29-.66,3.42l-.07.39c-.46,2.14-.74,3.45-.74,3.45-.04.21-.04.41,0,.6l-.11.6-.17,1.04-.12.73c-.37,2.25-.71,4.49-1.01,6.69-.1.76-.21,1.5-.3,2.27-.34,2.62-.6,4.99-.82,7.26l-.02.24-.03.32c-.24,2.54-.42,5.12-.56,7.87l-.02.52-.02.36c-.11,2.42-.18,4.82-.19,7.12l1.61.28H0c-.01,4.74.19,9.3.61,13.53.19,1.87.41,3.68.69,5.44l.14.9c.24,1.51.52,2.99.82,4.41l.08.36.12.57c.42,1.86.82,3.44,1.24,4.85.03.1.08.21.13.3,2.75,5.11,8.19,9.09,16.18,11.82.17.06.3.1.43.12,1.15.38,2.43.74,3.89,1.13,6.2,2.03,14.37,3.1,24.16,3.1,2.02,0,4.12-.05,6.26-.14,9.22-.14,19.18-1.03,27.3-2.46.38-.06.7-.25.93-.53,3.37-.4,10.08-4.85,24.14-14.37,28.87-19.52,82.6-55.88,133.61-63.43.93-.14,3.32-.53,19.13-18.45l.24-.27.18-.22,1.38-1.58.35-.4c.26-.29.52-.59.78-.89h0c8.54-10.08,13.84-19.13,16.17-27.69,6.67-22.46-5.42-28.2-5.95-28.43-.14-.06-.29-.11-.45-.13-.09,0-.18-.02-.27-.03l-.16-.21-.2-.26c-.23-.32-.45-.62-.7-.93-.93-1.17-1.92-2.35-2.94-3.47-.25-.28-.49-.55-.75-.81l-.34-.37c-.85-.92-1.75-1.84-2.68-2.76l-.37-.37c-.27-.27-.54-.54-.82-.81-1.18-1.14-2.47-2.31-3.82-3.5-.37-.32-.75-.65-1.13-.98l-.34-.27c-1.09-.93-2.21-1.85-3.37-2.76l-.5-.4c-.28-.23-.57-.47-.87-.69-1.41-1.08-2.94-2.21-4.66-3.44-.56-.39-1.13-.78-1.7-1.19l-.66-.45c-.23-.16-.45-.32-.69-.49-.06-.05-.11-.09-.17-.13-.97-.65-1.97-1.29-2.97-1.92l-.24-.16-.35-.23-.49-.32c-1.86-1.16-3.85-2.38-5.92-3.58-.37-.22-.76-.44-1.15-.66l-.56-.32c-1.61-.91-3.25-1.8-4.92-2.7l-.18-.1-.07-.03c-.07-.06-.15-.1-.23-.14l-.2-.1-.93-.47-.14-.08c-2.27-1.17-4.52-2.27-6.71-3.3l-.64-.3-.47-.22c-1.96-.89-4.04-1.83-6.19-2.75-.59-.25-1.18-.5-1.78-.75-2.86-1.18-5.26-2.14-7.55-2.99-.36-.14-.7-.25-1.06-.38l-.79-.28c-1.95-.74-3.74-1.39-5.29-1.9l-.23-.08-.71,1.47.53-1.54C170.79,4.44,147.4.02,126.66.02c-1.61,0-3.16.01-4.68.07l-.59-.07c-.07-.02-.14-.02-.21-.02h-.03Z"/>
          <path class="cls-19" d="M261.76,116.24s-.08.1-.19.23c.12-.14.19-.23.19-.23h0ZM261.76,114.63c-.45,0-.91.19-1.22.56h0l-.19.22c-.58.67-.51,1.7.16,2.28.31.27.68.39,1.06.39.45,0,.9-.18,1.22-.56l.2-.23c.58-.67.5-1.7-.18-2.27-.3-.27-.67-.4-1.04-.4h0Z"/>
        </g>
      </g>
    </g>
  </g>
</svg>