<?xml version="1.0" encoding="UTF-8"?>
<svg id="Layer_2" data-name="Layer 2" xmlns="http://www.w3.org/2000/svg" xmlns:xlink="http://www.w3.org/1999/xlink" viewBox="0 0 172.44 262.46">
  <defs>
    <style>
      .cls-1 {
        fill: url(#_ÂÁ_Ï_ÌÌ_È_ËÂÌÚ_2172-9);
      }

      .cls-2 {
        fill: url(#_ÂÁ_Ï_ÌÌ_È_ËÂÌÚ_2172-2);
      }

      .cls-3 {
        fill: url(#_ÂÁ_Ï_ÌÌ_È_ËÂÌÚ_2172-6);
      }

      .cls-4 {
        fill: url(#_ÂÁ_Ï_ÌÌ_È_ËÂÌÚ_2172-4);
      }

      .cls-5 {
        fill: url(#_ÂÁ_Ï_ÌÌ_È_ËÂÌÚ_2172-5);
      }

      .cls-6 {
        fill: url(#_ÂÁ_Ï_ÌÌ_È_ËÂÌÚ_2172-7);
      }

      .cls-7 {
        fill: url(#_ÂÁ_Ï_ÌÌ_È_ËÂÌÚ_2172-8);
      }

      .cls-8 {
        fill: url(#_ÂÁ_Ï_ÌÌ_È_ËÂÌÚ_2172-3);
      }

      .cls-9 {
        fill: url(#_ÂÁ_Ï_ÌÌ_È_ËÂÌÚ_2381-2);
      }

      .cls-10 {
        fill: url(#_ÂÁ_Ï_ÌÌ_È_ËÂÌÚ_2381-3);
      }

      .cls-11 {
        fill: url(#_ÂÁ_Ï_ÌÌ_È_ËÂÌÚ_2381-5);
      }

      .cls-12 {
        fill: url(#_ÂÁ_Ï_ÌÌ_È_ËÂÌÚ_2381-6);
      }

      .cls-13 {
        fill: url(#_ÂÁ_Ï_ÌÌ_È_ËÂÌÚ_2381-7);
      }

      .cls-14 {
        fill: url(#_ÂÁ_Ï_ÌÌ_È_ËÂÌÚ_2381-4);
      }

      .cls-15 {
        fill: url(#_ÂÁ_Ï_ÌÌ_È_ËÂÌÚ_2381-9);
      }

      .cls-16 {
        fill: url(#_ÂÁ_Ï_ÌÌ_È_ËÂÌÚ_2381-8);
      }

      .cls-17 {
        fill: url(#_ÂÁ_Ï_ÌÌ_È_ËÂÌÚ_2381-10);
      }

      .cls-18 {
        fill: url(#_ÂÁ_Ï_ÌÌ_È_ËÂÌÚ_2172-13);
      }

      .cls-19 {
        fill: url(#_ÂÁ_Ï_ÌÌ_È_ËÂÌÚ_2172-18);
      }

      .cls-20 {
        fill: url(#_ÂÁ_Ï_ÌÌ_È_ËÂÌÚ_2172-15);
      }

      .cls-21 {
        fill: url(#_ÂÁ_Ï_ÌÌ_È_ËÂÌÚ_2172-16);
      }

      .cls-22 {
        fill: url(#_ÂÁ_Ï_ÌÌ_È_ËÂÌÚ_2172-12);
      }

      .cls-23 {
        fill: url(#_ÂÁ_Ï_ÌÌ_È_ËÂÌÚ_2172-17);
      }

      .cls-24 {
        fill: url(#_ÂÁ_Ï_ÌÌ_È_ËÂÌÚ_2172-14);
      }

      .cls-25 {
        fill: url(#_ÂÁ_Ï_ÌÌ_È_ËÂÌÚ_2172-11);
      }

      .cls-26 {
        fill: url(#_ÂÁ_Ï_ÌÌ_È_ËÂÌÚ_2172-10);
      }

      .cls-27 {
        fill: url(#_ÂÁ_Ï_ÌÌ_È_ËÂÌÚ_2172);
      }

      .cls-28 {
        fill: url(#_ÂÁ_Ï_ÌÌ_È_ËÂÌÚ_2381);
      }

      .cls-29 {
        fill: url(#_ÂÁ_Ï_ÌÌ_È_ËÂÌÚ_2657);
      }

      .cls-30 {
        fill: url(#_ÂÁ_Ï_ÌÌ_È_ËÂÌÚ_2500);
      }
    </style>
    <linearGradient id="_ÂÁ_Ï_ÌÌ_È_ËÂÌÚ_2172" data-name="¡ÂÁ˚ÏˇÌÌ˚È „‡‰ËÂÌÚ 2172" x1="86.22" y1="255.83" x2="86.22" y2="10.81" gradientTransform="translate(0 3.4)" gradientUnits="userSpaceOnUse">
      <stop offset="0" stop-color="#6e0a0e"/>
      <stop offset="1" stop-color="#680945"/>
    </linearGradient>
    <linearGradient id="_ÂÁ_Ï_ÌÌ_È_ËÂÌÚ_2172-2" data-name="¡ÂÁ˚ÏˇÌÌ˚È „‡‰ËÂÌÚ 2172" y1="255.38" y2="10.36" gradientTransform="translate(0 3.2)" xlink:href="#_ÂÁ_Ï_ÌÌ_È_ËÂÌÚ_2172"/>
    <linearGradient id="_ÂÁ_Ï_ÌÌ_È_ËÂÌÚ_2172-3" data-name="¡ÂÁ˚ÏˇÌÌ˚È „‡‰ËÂÌÚ 2172" y1="254.94" y2="9.91" gradientTransform="translate(0 3)" xlink:href="#_ÂÁ_Ï_ÌÌ_È_ËÂÌÚ_2172"/>
    <linearGradient id="_ÂÁ_Ï_ÌÌ_È_ËÂÌÚ_2172-4" data-name="¡ÂÁ˚ÏˇÌÌ˚È „‡‰ËÂÌÚ 2172" y1="254.49" y2="9.48" gradientTransform="translate(0 2.8)" xlink:href="#_ÂÁ_Ï_ÌÌ_È_ËÂÌÚ_2172"/>
    <linearGradient id="_ÂÁ_Ï_ÌÌ_È_ËÂÌÚ_2172-5" data-name="¡ÂÁ˚ÏˇÌÌ˚È „‡‰ËÂÌÚ 2172" y1="254.04" y2="9.03" gradientTransform="translate(0 2.6)" xlink:href="#_ÂÁ_Ï_ÌÌ_È_ËÂÌÚ_2172"/>
    <linearGradient id="_ÂÁ_Ï_ÌÌ_È_ËÂÌÚ_2172-6" data-name="¡ÂÁ˚ÏˇÌÌ˚È „‡‰ËÂÌÚ 2172" y1="253.6" y2="8.58" gradientTransform="translate(0 2.4)" xlink:href="#_ÂÁ_Ï_ÌÌ_È_ËÂÌÚ_2172"/>
    <linearGradient id="_ÂÁ_Ï_ÌÌ_È_ËÂÌÚ_2172-7" data-name="¡ÂÁ˚ÏˇÌÌ˚È „‡‰ËÂÌÚ 2172" y1="253.14" y2="8.13" gradientTransform="translate(0 2.2)" xlink:href="#_ÂÁ_Ï_ÌÌ_È_ËÂÌÚ_2172"/>
    <linearGradient id="_ÂÁ_Ï_ÌÌ_È_ËÂÌÚ_2172-8" data-name="¡ÂÁ˚ÏˇÌÌ˚È „‡‰ËÂÌÚ 2172" y1="252.71" y2="7.7" gradientTransform="translate(0 2)" xlink:href="#_ÂÁ_Ï_ÌÌ_È_ËÂÌÚ_2172"/>
    <linearGradient id="_ÂÁ_Ï_ÌÌ_È_ËÂÌÚ_2172-9" data-name="¡ÂÁ˚ÏˇÌÌ˚È „‡‰ËÂÌÚ 2172" y1="252.26" y2="7.24" gradientTransform="translate(0 1.8)" xlink:href="#_ÂÁ_Ï_ÌÌ_È_ËÂÌÚ_2172"/>
    <linearGradient id="_ÂÁ_Ï_ÌÌ_È_ËÂÌÚ_2172-10" data-name="¡ÂÁ˚ÏˇÌÌ˚È „‡‰ËÂÌÚ 2172" y1="251.82" y2="6.8" gradientTransform="translate(0 1.6)" xlink:href="#_ÂÁ_Ï_ÌÌ_È_ËÂÌÚ_2172"/>
    <linearGradient id="_ÂÁ_Ï_ÌÌ_È_ËÂÌÚ_2172-11" data-name="¡ÂÁ˚ÏˇÌÌ˚È „‡‰ËÂÌÚ 2172" y1="251.38" y2="6.35" gradientTransform="translate(0 1.4)" xlink:href="#_ÂÁ_Ï_ÌÌ_È_ËÂÌÚ_2172"/>
    <linearGradient id="_ÂÁ_Ï_ÌÌ_È_ËÂÌÚ_2172-12" data-name="¡ÂÁ˚ÏˇÌÌ˚È „‡‰ËÂÌÚ 2172" y1="250.92" y2="5.9" gradientTransform="translate(0 1.2)" xlink:href="#_ÂÁ_Ï_ÌÌ_È_ËÂÌÚ_2172"/>
    <linearGradient id="_ÂÁ_Ï_ÌÌ_È_ËÂÌÚ_2172-13" data-name="¡ÂÁ˚ÏˇÌÌ˚È „‡‰ËÂÌÚ 2172" y1="250.48" y2="5.46" gradientTransform="translate(0 1)" xlink:href="#_ÂÁ_Ï_ÌÌ_È_ËÂÌÚ_2172"/>
    <linearGradient id="_ÂÁ_Ï_ÌÌ_È_ËÂÌÚ_2172-14" data-name="¡ÂÁ˚ÏˇÌÌ˚È „‡‰ËÂÌÚ 2172" y1="250.03" y2="5.01" gradientTransform="translate(0 .8)" xlink:href="#_ÂÁ_Ï_ÌÌ_È_ËÂÌÚ_2172"/>
    <linearGradient id="_ÂÁ_Ï_ÌÌ_È_ËÂÌÚ_2172-15" data-name="¡ÂÁ˚ÏˇÌÌ˚È „‡‰ËÂÌÚ 2172" y1="249.59" y2="4.57" gradientTransform="translate(0 .6)" xlink:href="#_ÂÁ_Ï_ÌÌ_È_ËÂÌÚ_2172"/>
    <linearGradient id="_ÂÁ_Ï_ÌÌ_È_ËÂÌÚ_2172-16" data-name="¡ÂÁ˚ÏˇÌÌ˚È „‡‰ËÂÌÚ 2172" y1="249.14" y2="4.12" gradientTransform="translate(0 .4)" xlink:href="#_ÂÁ_Ï_ÌÌ_È_ËÂÌÚ_2172"/>
    <linearGradient id="_ÂÁ_Ï_ÌÌ_È_ËÂÌÚ_2172-17" data-name="¡ÂÁ˚ÏˇÌÌ˚È „‡‰ËÂÌÚ 2172" y1="248.69" y2="3.67" gradientTransform="translate(0 .2)" xlink:href="#_ÂÁ_Ï_ÌÌ_È_ËÂÌÚ_2172"/>
    <linearGradient id="_ÂÁ_Ï_ÌÌ_È_ËÂÌÚ_2172-18" data-name="¡ÂÁ˚ÏˇÌÌ˚È „‡‰ËÂÌÚ 2172" y1="248.24" y2="3.23" gradientTransform="matrix(1,0,0,1,0,0)" xlink:href="#_ÂÁ_Ï_ÌÌ_È_ËÂÌÚ_2172"/>
    <linearGradient id="_ÂÁ_Ï_ÌÌ_È_ËÂÌÚ_2657" data-name="¡ÂÁ˚ÏˇÌÌ˚È „‡‰ËÂÌÚ 2657" x1="86.22" y1="248.25" x2="86.22" y2="3.23" gradientUnits="userSpaceOnUse">
      <stop offset="0" stop-color="#7a0008"/>
      <stop offset="1" stop-color="#ff2c16"/>
    </linearGradient>
    <linearGradient id="_ÂÁ_Ï_ÌÌ_È_ËÂÌÚ_2381" data-name="¡ÂÁ˚ÏˇÌÌ˚È „‡‰ËÂÌÚ 2381" x1="86.22" y1="252.26" x2="86.22" y2="7.24" gradientTransform="translate(0 1.8)" gradientUnits="userSpaceOnUse">
      <stop offset="0" stop-color="#861d00"/>
      <stop offset="1" stop-color="#a7201b"/>
    </linearGradient>
    <linearGradient id="_ÂÁ_Ï_ÌÌ_È_ËÂÌÚ_2381-2" data-name="¡ÂÁ˚ÏˇÌÌ˚È „‡‰ËÂÌÚ 2381" y1="251.81" y2="6.8" gradientTransform="translate(0 1.6)" xlink:href="#_ÂÁ_Ï_ÌÌ_È_ËÂÌÚ_2381"/>
    <linearGradient id="_ÂÁ_Ï_ÌÌ_È_ËÂÌÚ_2381-3" data-name="¡ÂÁ˚ÏˇÌÌ˚È „‡‰ËÂÌÚ 2381" y1="251.37" y2="6.35" gradientTransform="translate(0 1.4)" xlink:href="#_ÂÁ_Ï_ÌÌ_È_ËÂÌÚ_2381"/>
    <linearGradient id="_ÂÁ_Ï_ÌÌ_È_ËÂÌÚ_2381-4" data-name="¡ÂÁ˚ÏˇÌÌ˚È „‡‰ËÂÌÚ 2381" y1="250.92" y2="5.89" gradientTransform="translate(0 1.2)" xlink:href="#_ÂÁ_Ï_ÌÌ_È_ËÂÌÚ_2381"/>
    <linearGradient id="_ÂÁ_Ï_ÌÌ_È_ËÂÌÚ_2381-5" data-name="¡ÂÁ˚ÏˇÌÌ˚È „‡‰ËÂÌÚ 2381" y1="250.47" y2="5.45" gradientTransform="translate(0 1)" xlink:href="#_ÂÁ_Ï_ÌÌ_È_ËÂÌÚ_2381"/>
    <linearGradient id="_ÂÁ_Ï_ÌÌ_È_ËÂÌÚ_2381-6" data-name="¡ÂÁ˚ÏˇÌÌ˚È „‡‰ËÂÌÚ 2381" y1="250.03" y2="5.02" gradientTransform="translate(0 .8)" xlink:href="#_ÂÁ_Ï_ÌÌ_È_ËÂÌÚ_2381"/>
    <linearGradient id="_ÂÁ_Ï_ÌÌ_È_ËÂÌÚ_2381-7" data-name="¡ÂÁ˚ÏˇÌÌ˚È „‡‰ËÂÌÚ 2381" y1="249.59" y2="4.56" gradientTransform="translate(0 .6)" xlink:href="#_ÂÁ_Ï_ÌÌ_È_ËÂÌÚ_2381"/>
    <linearGradient id="_ÂÁ_Ï_ÌÌ_È_ËÂÌÚ_2381-8" data-name="¡ÂÁ˚ÏˇÌÌ˚È „‡‰ËÂÌÚ 2381" y1="249.14" y2="4.12" gradientTransform="translate(0 .4)" xlink:href="#_ÂÁ_Ï_ÌÌ_È_ËÂÌÚ_2381"/>
    <linearGradient id="_ÂÁ_Ï_ÌÌ_È_ËÂÌÚ_2381-9" data-name="¡ÂÁ˚ÏˇÌÌ˚È „‡‰ËÂÌÚ 2381" y1="248.69" y2="3.68" gradientTransform="translate(0 .2)" xlink:href="#_ÂÁ_Ï_ÌÌ_È_ËÂÌÚ_2381"/>
    <linearGradient id="_ÂÁ_Ï_ÌÌ_È_ËÂÌÚ_2381-10" data-name="¡ÂÁ˚ÏˇÌÌ˚È „‡‰ËÂÌÚ 2381" y1="248.25" y2="3.23" gradientTransform="matrix(1,0,0,1,0,0)" xlink:href="#_ÂÁ_Ï_ÌÌ_È_ËÂÌÚ_2381"/>
    <linearGradient id="_ÂÁ_Ï_ÌÌ_È_ËÂÌÚ_2500" data-name="¡ÂÁ˚ÏˇÌÌ˚È „‡‰ËÂÌÚ 2500" x1="86.22" y1="248.25" x2="86.22" y2="3.23" gradientUnits="userSpaceOnUse">
      <stop offset="0" stop-color="#f87000"/>
      <stop offset="1" stop-color="#ffe800"/>
    </linearGradient>
  </defs>
  <g id="_Layer_" data-name="&amp;lt;Layer&amp;gt;">
    <g>
      <path d="M31.68,57.93l1.26-1.9c2.1-9.69,5.53-18.07,10.28-25.13,4.74-7.06,9.49-12.33,14.23-15.8,4.74-3.48,10.06-6.16,15.96-8.06,7.8-2.54,14.65-3.8,20.55-3.8,14.12,0,26.29,3.27,36.52,9.8,10.22,6.54,17.97,15.38,23.24,26.57,9.69,21.28,14.54,45.41,14.54,72.39,0,45.32-10.75,78.73-32.25,100.22,9.9,10.96,19.6,16.45,29.09,16.45,2.73,0,4.11.94,4.11,2.84,0,3.36-3.9,7-11.7,10.9-7.8,3.9-16.13,5.85-24.98,5.85l-10.12-.95c-2.74-.43-4.95-1.41-6.64-3.01-1.69-1.58-2.74-3.74-3.16-6.47l-2.22-8.85c-9.91,4-20.02,6-30.34,6-26.36,0-45.74-9.01-58.18-27.02-12.44-18.03-18.65-40.85-18.65-68.46,0-16,1.37-30.71,4.11-44.1,2.74-13.38,5.58-22.82,8.53-28.28l4.11-8.22c.84-1.91,2.21-2.85,4.11-2.85s3.32.16,4.27.47c.95.33,1.69.63,2.22.95.52.32.89.48,1.11.48ZM69.62,38.01c-8.86,9.69-13.28,21.97-13.28,36.84s3.79,23.75,11.38,26.71c1.89.64,2.84,2,2.84,4.11,0,6.33-2.11,11.66-6.32,15.98-4.22,4.32-9.38,6.91-15.49,7.74-1.89,0-2.84.74-2.84,2.21-.21,2.33-.32,5.65-.32,9.95s.21,9.07.63,14.23c.42,5.18,1.43,11.28,3.01,18.34,1.58,7.06,3.68,13.17,6.32,18.34,2.63,5.18,6.43,9.6,11.38,13.29,4.96,3.68,10.7,5.51,17.24,5.51s12.54-1.89,18.01-5.68c-4.85-10.96-9.91-18.76-15.17-23.4l-2.53-2.21c-.63-.84-.94-1.68-.94-2.53,0-2.31,2.1-3.47,6.32-3.47,8.64,0,17.5,4.52,26.56,13.59,8-16.44,12.01-37.83,12.01-64.18,0-42.58-7.06-70.82-21.19-84.72-6.12-5.91-12.65-8.86-19.6-8.86s-12.96,2.75-18.02,8.22Z"/>
      <g>
        <path class="cls-27" d="M132.53,262.46l-10.42-.96c-3.58-.55-6.38-1.84-8.54-3.87-2.22-2.06-3.62-4.87-4.15-8.33l-1.27-5.04c-9.18,3.27-18.61,4.93-28.1,4.93-27.35,0-47.82-9.57-60.83-28.42C6.47,202.28,0,178.63,0,150.47c0-16.16,1.4-31.21,4.17-44.75,2.83-13.83,5.73-23.38,8.86-29.18l4.06-8.14c1.29-2.94,3.8-4.63,7-4.63,2.27,0,4,.21,5.29.65.27.08.53.18.78.27,2.21-9.38,5.7-17.65,10.38-24.63,4.94-7.34,9.98-12.93,15-16.6,5-3.67,10.68-6.54,16.88-8.54,8.08-2.61,15.33-3.94,21.54-3.94,14.67,0,27.54,3.47,38.25,10.3,10.7,6.84,18.91,16.22,24.42,27.9,9.86,21.66,14.85,46.47,14.85,73.78,0,44.45-10.43,78.15-31.02,100.25,8.49,8.75,16.77,13.18,24.63,13.18,5.41,0,7.34,3.13,7.34,6.07,0,4.81-4.28,9.19-13.48,13.8-8.22,4.1-17.12,6.19-26.42,6.19ZM110.4,236.71c.51,0,1.01.11,1.47.34.83.43,1.44,1.19,1.67,2.1l2.21,8.86c.37,2.32,1.08,3.83,2.24,4.9,1.21,1.14,2.82,1.84,4.92,2.17l9.93.93c8,0,15.92-1.87,23.23-5.51,7.89-3.95,9.51-6.56,9.84-7.59-.19-.03-.46-.05-.8-.05-10.4,0-20.99-5.88-31.49-17.5-1.15-1.28-1.1-3.23.12-4.45,20.77-20.77,31.31-53.74,31.31-97.94,0-26.38-4.8-50.29-14.26-71.06-4.96-10.53-12.38-19-22.04-25.18-9.65-6.16-21.35-9.3-34.77-9.3-5.54,0-12.12,1.22-19.55,3.63-5.55,1.79-10.62,4.33-15.06,7.61-4.41,3.23-8.94,8.27-13.46,14.99-4.5,6.69-7.79,14.78-9.8,24.02-.08.39-.25.76-.47,1.11l-1.26,1.89c-.6.89-1.61,1.43-2.69,1.43s-2-.47-2.77-.93c-.18-.1-.63-.33-1.57-.65-.28-.1-1.15-.32-3.25-.32-.42,0-.75,0-1.15.93l-4.17,8.36c-2.84,5.25-5.6,14.48-8.26,27.5-2.68,13.11-4.04,27.74-4.04,43.46,0,26.82,6.08,49.24,18.08,66.62,11.9,17.24,30.06,25.62,55.51,25.62,9.85,0,19.66-1.94,29.14-5.77.39-.16.8-.23,1.21-.23ZM84.17,225.47c-7.22,0-13.67-2.08-19.17-6.16-5.33-3.98-9.48-8.81-12.32-14.4-2.75-5.38-4.96-11.79-6.6-19.1-1.61-7.18-2.64-13.5-3.08-18.78-.42-5.2-.64-10.08-.64-14.49s.1-7.82.32-10.25c-.01-2.17,1.52-5.04,5.82-5.15,5.34-.77,9.73-2.99,13.43-6.77,3.63-3.72,5.4-8.21,5.4-13.72,0-.84-.17-.89-.65-1.04-9.06-3.52-13.58-13.52-13.58-29.78s4.75-28.74,14.12-39.01c0,0,0-.01.01-.01,5.67-6.15,12.54-9.25,20.39-9.25s15.12,3.28,21.84,9.76c14.92,14.71,22.17,43.17,22.17,87.06,0,26.71-4.15,48.78-12.34,65.59-.46.93-1.35,1.59-2.38,1.76-1.03.17-2.08-.16-2.82-.89-8.4-8.4-16.56-12.66-24.28-12.66-1.83,0-2.7.25-3.05.4.03.07.05.14.1.22l2.22,1.94c5.68,5,10.92,13.02,16.01,24.52.62,1.42.16,3.08-1.12,3.97-6.01,4.16-12.69,6.26-19.85,6.26ZM49.06,143.57c-.16,2.35-.23,5.29-.23,8.96,0,4.25.21,8.93.62,13.96.4,4.99,1.39,11,2.94,17.89,1.52,6.78,3.55,12.69,6.05,17.58,2.39,4.7,5.9,8.79,10.43,12.16,4.42,3.3,9.43,4.9,15.31,4.9,5.03,0,9.6-1.21,13.92-3.69-4.29-9.17-8.73-15.8-13.21-19.75l-2.53-2.21c-.16-.14-.32-.31-.45-.48-1.06-1.41-1.59-2.92-1.59-4.47,0-2.03.93-6.71,9.55-6.71s16.94,3.82,25.49,11.38c6.54-15.4,9.86-35.13,9.86-58.73,0-41.49-6.8-69.21-20.23-82.43-5.52-5.33-11.2-7.93-17.33-7.93s-11.18,2.35-15.64,7.18c-8.25,9.03-12.43,20.69-12.43,34.64s3.14,21.3,9.32,23.71c3.06,1.02,4.91,3.64,4.91,7.11,0,7.17-2.44,13.3-7.24,18.22-4.72,4.83-10.56,7.76-17.36,8.69-.05,0-.1.01-.14.01ZM49.13,142.56v.07-.07Z"/>
        <path class="cls-2" d="M132.53,261.81l-10.42-.96c-3.58-.55-6.38-1.85-8.54-3.87-2.22-2.07-3.62-4.88-4.15-8.34l-1.27-5.04c-9.18,3.27-18.61,4.94-28.1,4.94-27.35,0-47.82-9.57-60.83-28.42C6.47,201.63,0,177.99,0,149.83c0-16.16,1.4-31.22,4.17-44.75,2.83-13.83,5.73-23.38,8.86-29.18l4.06-8.14c1.29-2.94,3.8-4.63,7-4.63,2.27,0,4,.21,5.29.65.27.09.53.19.78.27,2.21-9.36,5.7-17.63,10.38-24.62,4.94-7.35,9.98-12.92,15-16.61,5-3.67,10.68-6.54,16.88-8.53,8.08-2.61,15.33-3.95,21.54-3.95,14.67,0,27.54,3.48,38.25,10.3,10.7,6.84,18.91,16.24,24.42,27.9,9.86,21.67,14.85,46.47,14.85,73.78,0,44.45-10.43,78.17-31.02,100.25,8.49,8.75,16.77,13.18,24.63,13.18,5.41,0,7.34,3.13,7.34,6.08,0,4.81-4.28,9.19-13.48,13.81-8.22,4.11-17.12,6.18-26.42,6.18ZM110.4,236.07c.51,0,1.01.12,1.47.35.83.42,1.44,1.18,1.67,2.11l2.21,8.84c.37,2.32,1.08,3.82,2.24,4.91,1.21,1.13,2.82,1.83,4.92,2.16l9.93.92c8-.01,15.92-1.86,23.23-5.52,7.89-3.94,9.51-6.55,9.84-7.58-.19-.03-.46-.05-.8-.05-10.4,0-20.99-5.89-31.49-17.49-1.15-1.29-1.1-3.24.12-4.45,20.77-20.78,31.31-53.74,31.31-97.95,0-26.38-4.8-50.27-14.26-71.06-4.96-10.5-12.38-19-22.04-25.17-9.65-6.16-21.35-9.29-34.77-9.29-5.54,0-12.12,1.22-19.55,3.64-5.55,1.78-10.62,4.33-15.06,7.59-4.41,3.24-8.94,8.29-13.46,15.01-4.5,6.69-7.79,14.77-9.8,24.01-.08.4-.25.77-.47,1.11l-1.26,1.89c-.6.89-1.61,1.43-2.69,1.43s-2-.47-2.77-.93c-.18-.1-.63-.35-1.57-.65-.28-.09-1.15-.31-3.25-.31-.42,0-.75,0-1.15.91l-4.17,8.36c-2.84,5.26-5.6,14.49-8.26,27.5-2.68,13.12-4.04,27.74-4.04,43.46,0,26.82,6.08,49.23,18.08,66.61,11.9,17.26,30.06,25.64,55.51,25.64,9.85,0,19.66-1.94,29.14-5.77.39-.15.8-.23,1.21-.23ZM84.17,224.82c-7.22,0-13.67-2.07-19.17-6.16-5.33-3.98-9.48-8.81-12.32-14.4-2.75-5.37-4.96-11.8-6.6-19.11-1.61-7.17-2.64-13.5-3.08-18.78-.42-5.2-.64-10.06-.64-14.48s.1-7.83.32-10.26c-.01-2.18,1.52-5.04,5.82-5.15,5.34-.77,9.73-2.98,13.43-6.78,3.63-3.72,5.4-8.21,5.4-13.7,0-.83-.17-.89-.65-1.05-9.06-3.51-13.58-13.5-13.58-29.77s4.75-28.75,14.12-39t.01-.03c5.67-6.13,12.54-9.25,20.39-9.25s15.12,3.27,21.84,9.76c14.92,14.69,22.17,43.16,22.17,87.04,0,26.71-4.15,48.78-12.34,65.6-.46.94-1.35,1.59-2.38,1.77-1.03.15-2.08-.17-2.82-.91-8.4-8.39-16.56-12.65-24.28-12.65-1.83,0-2.7.25-3.05.4.03.07.05.13.1.21l2.22,1.95c5.68,5,10.92,13.03,16.01,24.52.62,1.42.16,3.09-1.12,3.97-6.01,4.16-12.69,6.25-19.85,6.25ZM49.06,142.93c-.16,2.34-.23,5.29-.23,8.95,0,4.23.21,8.93.62,13.95.4,5,1.39,11.01,2.94,17.9,1.52,6.78,3.55,12.69,6.05,17.57,2.39,4.7,5.9,8.78,10.43,12.15,4.42,3.29,9.43,4.9,15.31,4.9,5.03,0,9.6-1.21,13.92-3.69-4.29-9.15-8.73-15.79-13.21-19.75l-2.53-2.19c-.16-.16-.32-.32-.45-.51-1.06-1.4-1.59-2.9-1.59-4.46,0-2.02.93-6.71,9.55-6.71s16.94,3.84,25.49,11.4c6.54-15.41,9.86-35.14,9.86-58.75,0-41.47-6.8-69.21-20.23-82.43-5.52-5.32-11.2-7.91-17.33-7.91s-11.18,2.33-15.64,7.17c-8.25,9.04-12.43,20.69-12.43,34.64s3.14,21.31,9.32,23.71c3.06,1.02,4.91,3.62,4.91,7.11,0,7.17-2.44,13.3-7.24,18.22-4.72,4.83-10.56,7.76-17.36,8.69-.05,0-.1,0-.14.03ZM49.13,141.92v.06-.06Z"/>
        <path class="cls-8" d="M132.53,261.17l-10.42-.96c-3.58-.56-6.38-1.84-8.54-3.86-2.22-2.09-3.62-4.89-4.15-8.35l-1.27-5.04c-9.18,3.27-18.61,4.94-28.1,4.94-27.35,0-47.82-9.57-60.83-28.43C6.47,200.99,0,177.34,0,149.18c0-16.16,1.4-31.22,4.17-44.75,2.83-13.82,5.73-23.38,8.86-29.18l4.06-8.14c1.29-2.92,3.8-4.62,7-4.62,2.27,0,4,.21,5.29.64.27.09.53.18.78.27,2.21-9.37,5.7-17.65,10.38-24.61,4.94-7.35,9.98-12.93,15-16.61,5-3.67,10.68-6.55,16.88-8.54,8.08-2.62,15.33-3.95,21.54-3.95,14.67,0,27.54,3.47,38.25,10.31,10.7,6.85,18.91,16.23,24.42,27.9,9.86,21.67,14.85,46.48,14.85,73.78,0,44.47-10.43,78.16-31.02,100.25,8.49,8.75,16.77,13.18,24.63,13.18,5.41,0,7.34,3.14,7.34,6.07,0,4.81-4.28,9.19-13.48,13.8-8.22,4.11-17.12,6.19-26.42,6.19ZM110.4,235.42c.51,0,1.01.11,1.47.34.83.43,1.44,1.19,1.67,2.1l2.21,8.85c.37,2.33,1.08,3.84,2.24,4.91,1.21,1.14,2.82,1.84,4.92,2.18l9.93.93c8-.02,15.92-1.88,23.23-5.53,7.89-3.95,9.51-6.54,9.84-7.59-.19-.03-.46-.03-.8-.03-10.4,0-20.99-5.9-31.49-17.51-1.15-1.28-1.1-3.23.12-4.46,20.77-20.77,31.31-53.71,31.31-97.93,0-26.38-4.8-50.29-14.26-71.08-4.96-10.5-12.38-18.98-22.04-25.15-9.65-6.17-21.35-9.3-34.77-9.3-5.54,0-12.12,1.22-19.55,3.64-5.55,1.78-10.62,4.33-15.06,7.59-4.41,3.23-8.94,8.28-13.46,15-4.5,6.71-7.79,14.79-9.8,24.02-.08.39-.25.77-.47,1.11l-1.26,1.9c-.6.89-1.61,1.43-2.69,1.43s-2-.47-2.77-.93c-.18-.1-.63-.34-1.57-.65-.28-.09-1.15-.31-3.25-.31-.42,0-.75,0-1.15.92l-4.17,8.36c-2.84,5.26-5.6,14.49-8.26,27.5-2.68,13.11-4.04,27.73-4.04,43.46,0,26.82,6.08,49.24,18.08,66.61,11.9,17.26,30.06,25.63,55.51,25.63,9.85,0,19.66-1.94,29.14-5.77.39-.15.8-.23,1.21-.23ZM84.17,224.18c-7.22,0-13.67-2.07-19.17-6.18-5.33-3.95-9.48-8.81-12.32-14.4-2.75-5.38-4.96-11.79-6.6-19.1-1.61-7.17-2.64-13.5-3.08-18.78-.42-5.2-.64-10.08-.64-14.49s.1-7.83.32-10.26c-.01-2.18,1.52-5.04,5.82-5.15,5.34-.77,9.73-2.98,13.43-6.77,3.63-3.73,5.4-8.21,5.4-13.72,0-.84-.17-.91-.65-1.04-9.06-3.53-13.58-13.52-13.58-29.78s4.75-28.75,14.12-39.01c0,0,0-.01.01-.01,5.67-6.14,12.54-9.25,20.39-9.25s15.12,3.28,21.84,9.76c14.92,14.71,22.17,43.17,22.17,87.04,0,26.71-4.15,48.78-12.34,65.6-.46.93-1.35,1.59-2.38,1.77-1.03.15-2.08-.17-2.82-.91-8.4-8.39-16.56-12.65-24.28-12.65-1.83,0-2.7.25-3.05.41.03.06.05.14.1.21l2.22,1.96c5.68,5,10.92,13.01,16.01,24.52.62,1.41.16,3.07-1.12,3.95-6.01,4.16-12.69,6.27-19.85,6.27ZM49.06,142.27c-.16,2.35-.23,5.29-.23,8.97,0,4.23.21,8.93.62,13.96.4,4.98,1.39,11.01,2.94,17.89,1.52,6.77,3.55,12.69,6.05,17.58,2.39,4.7,5.9,8.77,10.43,12.15,4.42,3.3,9.43,4.9,15.31,4.9,5.03,0,9.6-1.21,13.92-3.67-4.29-9.17-8.73-15.82-13.21-19.76l-2.53-2.21c-.16-.14-.32-.3-.45-.49-1.06-1.4-1.59-2.91-1.59-4.48,0-2.01.93-6.69,9.55-6.69s16.94,3.82,25.49,11.37c6.54-15.39,9.86-35.12,9.86-58.73,0-41.48-6.8-69.22-20.23-82.43-5.52-5.32-11.2-7.92-17.33-7.92s-11.18,2.35-15.64,7.17c-8.25,9.04-12.43,20.7-12.43,34.65s3.14,21.3,9.32,23.71c3.06,1.02,4.91,3.63,4.91,7.12,0,7.18-2.44,13.3-7.24,18.22-4.72,4.83-10.56,7.76-17.36,8.68-.05,0-.1.02-.14.02ZM49.13,141.27v.07-.07Z"/>
        <path class="cls-4" d="M132.53,260.52l-10.42-.96c-3.58-.56-6.38-1.84-8.54-3.87-2.22-2.07-3.62-4.87-4.15-8.33l-1.27-5.04c-9.18,3.27-18.61,4.92-28.1,4.92-27.35,0-47.82-9.56-60.83-28.43C6.47,200.33,0,176.69,0,148.54c0-16.17,1.4-31.22,4.17-44.75,2.83-13.82,5.73-23.38,8.86-29.18l4.06-8.14c1.29-2.94,3.8-4.63,7-4.63,2.27,0,4,.21,5.29.63.27.09.53.19.78.27,2.21-9.36,5.7-17.64,10.38-24.62,4.94-7.33,9.98-12.93,15-16.6,5-3.67,10.68-6.54,16.88-8.55,8.08-2.62,15.33-3.93,21.54-3.93,14.67,0,27.54,3.46,38.25,10.3,10.7,6.84,18.91,16.22,24.42,27.9,9.86,21.66,14.85,46.48,14.85,73.79,0,44.45-10.43,78.15-31.02,100.25,8.49,8.75,16.77,13.17,24.63,13.17,5.41,0,7.34,3.14,7.34,6.09,0,4.8-4.28,9.18-13.48,13.79-8.22,4.11-17.12,6.19-26.42,6.19ZM110.4,234.77c.51,0,1.01.12,1.47.36.83.41,1.44,1.18,1.67,2.09l2.21,8.86c.37,2.31,1.08,3.83,2.24,4.9,1.21,1.14,2.82,1.85,4.92,2.17l9.93.92c8-.01,15.92-1.87,23.23-5.52,7.89-3.95,9.51-6.54,9.84-7.59-.19-.03-.46-.05-.8-.05-10.4,0-20.99-5.88-31.49-17.51-1.15-1.27-1.1-3.23.12-4.45,20.77-20.77,31.31-53.71,31.31-97.93,0-26.38-4.8-50.29-14.26-71.07-4.96-10.52-12.38-19-22.04-25.17-9.65-6.17-21.35-9.3-34.77-9.3-5.54,0-12.12,1.22-19.55,3.64-5.55,1.79-10.62,4.34-15.06,7.59-4.41,3.23-8.94,8.28-13.46,14.99-4.5,6.7-7.79,14.79-9.8,24.03-.08.39-.25.77-.47,1.1l-1.26,1.89c-.6.91-1.61,1.44-2.69,1.44s-2-.47-2.77-.93c-.18-.1-.63-.34-1.57-.65-.28-.1-1.15-.29-3.25-.29-.42,0-.75,0-1.15.91l-4.17,8.35c-2.84,5.27-5.6,14.48-8.26,27.5-2.68,13.1-4.04,27.72-4.04,43.46,0,26.82,6.08,49.24,18.08,66.61,11.9,17.26,30.06,25.63,55.51,25.63,9.85,0,19.66-1.94,29.14-5.77.39-.16.8-.24,1.21-.24ZM84.17,223.53c-7.22,0-13.67-2.08-19.17-6.18-5.33-3.97-9.48-8.81-12.32-14.4-2.75-5.35-4.96-11.79-6.6-19.09-1.61-7.18-2.64-13.5-3.08-18.78-.42-5.2-.64-10.08-.64-14.49s.1-7.83.32-10.26c-.01-2.18,1.52-5.04,5.82-5.14,5.34-.77,9.73-2.99,13.43-6.78,3.63-3.73,5.4-8.21,5.4-13.7,0-.85-.17-.91-.65-1.06-9.06-3.51-13.58-13.52-13.58-29.79s4.75-28.74,14.12-39t.01-.01c5.67-6.14,12.54-9.26,20.39-9.26s15.12,3.27,21.84,9.76c14.92,14.7,22.17,43.17,22.17,87.04,0,26.71-4.15,48.78-12.34,65.6-.46.94-1.35,1.6-2.38,1.77-1.03.16-2.08-.16-2.82-.9-8.4-8.4-16.56-12.65-24.28-12.65-1.83,0-2.7.25-3.05.4.03.07.05.14.1.21l2.22,1.95c5.68,5.01,10.92,13.02,16.01,24.52.62,1.41.16,3.08-1.12,3.96-6.01,4.16-12.69,6.27-19.85,6.27ZM49.06,141.63c-.16,2.35-.23,5.29-.23,8.97,0,4.23.21,8.92.62,13.95.4,4.98,1.39,11.01,2.94,17.9,1.52,6.78,3.55,12.69,6.05,17.58,2.39,4.7,5.9,8.78,10.43,12.16,4.42,3.3,9.43,4.89,15.31,4.89,5.03,0,9.6-1.21,13.92-3.68-4.29-9.17-8.73-15.8-13.21-19.74l-2.53-2.21c-.16-.15-.32-.32-.45-.49-1.06-1.4-1.59-2.9-1.59-4.46,0-2.02.93-6.71,9.55-6.71s16.94,3.82,25.49,11.38c6.54-15.39,9.86-35.13,9.86-58.74,0-41.47-6.8-69.2-20.23-82.42-5.52-5.33-11.2-7.92-17.33-7.92s-11.18,2.34-15.64,7.17c-8.25,9.05-12.43,20.71-12.43,34.65s3.14,21.31,9.32,23.71c3.06,1.02,4.91,3.64,4.91,7.14,0,7.15-2.44,13.29-7.24,18.21-4.72,4.83-10.56,7.75-17.36,8.68-.05.02-.1.02-.14.02ZM49.13,140.63v.07-.07Z"/>
        <path class="cls-5" d="M132.53,259.87l-10.42-.96c-3.58-.54-6.38-1.84-8.54-3.87-2.22-2.07-3.62-4.88-4.15-8.35l-1.27-5.03c-9.18,3.27-18.61,4.92-28.1,4.92-27.35,0-47.82-9.56-60.83-28.42C6.47,199.7,0,176.04,0,147.88c0-16.17,1.4-31.22,4.17-44.75,2.83-13.82,5.73-23.36,8.86-29.18l4.06-8.13c1.29-2.94,3.8-4.63,7-4.63,2.27,0,4,.21,5.29.65.27.08.53.16.78.26,2.21-9.37,5.7-17.64,10.38-24.62,4.94-7.35,9.98-12.93,15-16.61,5-3.67,10.68-6.53,16.88-8.53,8.08-2.61,15.33-3.94,21.54-3.94,14.67,0,27.54,3.46,38.25,10.3,10.7,6.84,18.91,16.23,24.42,27.9,9.86,21.66,14.85,46.46,14.85,73.77,0,44.46-10.43,78.17-31.02,100.27,8.49,8.74,16.77,13.17,24.63,13.17,5.41,0,7.34,3.13,7.34,6.07,0,4.81-4.28,9.19-13.48,13.79-8.22,4.11-17.12,6.19-26.42,6.19ZM110.4,234.13c.51,0,1.01.11,1.47.34.83.44,1.44,1.19,1.67,2.09l2.21,8.86c.37,2.31,1.08,3.82,2.24,4.9,1.21,1.13,2.82,1.84,4.92,2.16l9.93.93c8,0,15.92-1.87,23.23-5.51,7.89-3.97,9.51-6.56,9.84-7.61-.19-.01-.46-.03-.8-.03-10.4,0-20.99-5.9-31.49-17.51-1.15-1.26-1.1-3.21.12-4.45,20.77-20.76,31.31-53.72,31.31-97.94,0-26.38-4.8-50.28-14.26-71.06-4.96-10.52-12.38-19.01-22.04-25.17-9.65-6.17-21.35-9.3-34.77-9.3-5.54,0-12.12,1.23-19.55,3.64-5.55,1.79-10.62,4.35-15.06,7.59-4.41,3.25-8.94,8.29-13.46,15-4.5,6.71-7.79,14.79-9.8,24.03-.08.4-.25.77-.47,1.1l-1.26,1.89c-.6.9-1.61,1.44-2.69,1.44s-2-.47-2.77-.94c-.18-.1-.63-.32-1.57-.64-.28-.1-1.15-.32-3.25-.32-.42,0-.75,0-1.15.92l-4.17,8.36c-2.84,5.26-5.6,14.49-8.26,27.5-2.68,13.11-4.04,27.74-4.04,43.46,0,26.82,6.08,49.24,18.08,66.61,11.9,17.25,30.06,25.63,55.51,25.63,9.85,0,19.66-1.94,29.14-5.77.39-.16.8-.23,1.21-.23ZM84.17,222.89c-7.22,0-13.67-2.08-19.17-6.18-5.33-3.96-9.48-8.81-12.32-14.39-2.75-5.38-4.96-11.79-6.6-19.1-1.61-7.19-2.64-13.51-3.08-18.8-.42-5.19-.64-10.06-.64-14.48s.1-7.82.32-10.25c-.01-2.18,1.52-5.04,5.82-5.15,5.34-.78,9.73-2.99,13.43-6.78,3.63-3.71,5.4-8.21,5.4-13.71,0-.84-.17-.89-.65-1.05-9.06-3.52-13.58-13.52-13.58-29.77s4.75-28.75,14.12-39.01t.01-.01c5.67-6.14,12.54-9.27,20.39-9.27s15.12,3.29,21.84,9.76c14.92,14.71,22.17,43.17,22.17,87.05,0,26.72-4.15,48.79-12.34,65.59-.46.95-1.35,1.61-2.38,1.78-1.03.16-2.08-.16-2.82-.91-8.4-8.38-16.56-12.64-24.28-12.64-1.83,0-2.7.25-3.05.4.03.07.05.14.1.21l2.22,1.96c5.68,5,10.92,13.01,16.01,24.51.62,1.42.16,3.08-1.12,3.96-6.01,4.16-12.69,6.27-19.85,6.27ZM49.06,140.98c-.16,2.35-.23,5.29-.23,8.96,0,4.23.21,8.95.62,13.96.4,4.98,1.39,11.01,2.94,17.88,1.52,6.78,3.55,12.7,6.05,17.58,2.39,4.7,5.9,8.78,10.43,12.16,4.42,3.3,9.43,4.89,15.31,4.89,5.03,0,9.6-1.21,13.92-3.68-4.29-9.16-8.73-15.8-13.21-19.75l-2.53-2.2c-.16-.15-.32-.32-.45-.49-1.06-1.41-1.59-2.91-1.59-4.46,0-2.02.93-6.71,9.55-6.71s16.94,3.82,25.49,11.38c6.54-15.39,9.86-35.12,9.86-58.74,0-41.47-6.8-69.2-20.23-82.42-5.52-5.33-11.2-7.92-17.33-7.92s-11.18,2.35-15.64,7.17c-8.25,9.04-12.43,20.69-12.43,34.66s3.14,21.3,9.32,23.71c3.06,1.02,4.91,3.62,4.91,7.11,0,7.17-2.44,13.29-7.24,18.22-4.72,4.83-10.56,7.76-17.36,8.69-.05,0-.1.01-.14.01ZM49.13,139.98v.06-.06Z"/>
        <path class="cls-3" d="M132.53,259.23l-10.42-.96c-3.58-.55-6.38-1.85-8.54-3.86-2.22-2.09-3.62-4.89-4.15-8.35l-1.27-5.04c-9.18,3.27-18.61,4.94-28.1,4.94-27.35,0-47.82-9.57-60.83-28.44C6.47,199.05,0,175.39,0,147.24c0-16.15,1.4-31.22,4.17-44.74,2.83-13.83,5.73-23.38,8.86-29.18l4.06-8.14c1.29-2.94,3.8-4.63,7-4.63,2.27,0,4,.21,5.29.63.27.1.53.19.78.27,2.21-9.37,5.7-17.63,10.38-24.62,4.94-7.34,9.98-12.92,15-16.61,5-3.66,10.68-6.54,16.88-8.53,8.08-2.62,15.33-3.95,21.54-3.95,14.67,0,27.54,3.48,38.25,10.3,10.7,6.84,18.91,16.23,24.42,27.9,9.86,21.67,14.85,46.47,14.85,73.77,0,44.46-10.43,78.17-31.02,100.26,8.49,8.75,16.77,13.18,24.63,13.18,5.41,0,7.34,3.13,7.34,6.07,0,4.82-4.28,9.2-13.48,13.81-8.22,4.09-17.12,6.18-26.42,6.18ZM110.4,233.49c.51,0,1.01.12,1.47.35.83.42,1.44,1.18,1.67,2.09l2.21,8.86c.37,2.32,1.08,3.82,2.24,4.9,1.21,1.13,2.82,1.84,4.92,2.17l9.93.92c8-.01,15.92-1.87,23.23-5.52,7.89-3.95,9.51-6.55,9.84-7.58-.19-.03-.46-.06-.8-.06-10.4,0-20.99-5.88-31.49-17.49-1.15-1.28-1.1-3.24.12-4.45,20.77-20.77,31.31-53.73,31.31-97.95,0-26.38-4.8-50.27-14.26-71.06-4.96-10.52-12.38-19-22.04-25.17-9.65-6.17-21.35-9.29-34.77-9.29-5.54,0-12.12,1.23-19.55,3.64-5.55,1.78-10.62,4.33-15.06,7.59-4.41,3.24-8.94,8.28-13.46,14.99-4.5,6.7-7.79,14.79-9.8,24.03-.08.4-.25.77-.47,1.11l-1.26,1.9c-.6.89-1.61,1.43-2.69,1.43s-2-.47-2.77-.94c-.18-.1-.63-.34-1.57-.65-.28-.1-1.15-.32-3.25-.32-.42,0-.75,0-1.15.93l-4.17,8.35c-2.84,5.27-5.6,14.49-8.26,27.5-2.68,13.12-4.04,27.73-4.04,43.46,0,26.82,6.08,49.23,18.08,66.61,11.9,17.26,30.06,25.64,55.51,25.64,9.85,0,19.66-1.94,29.14-5.78.39-.14.8-.23,1.21-.23ZM84.17,222.23c-7.22,0-13.67-2.07-19.17-6.17-5.33-3.97-9.48-8.81-12.32-14.4-2.75-5.36-4.96-11.79-6.6-19.1-1.61-7.19-2.64-13.5-3.08-18.78-.42-5.2-.64-10.09-.64-14.48s.1-7.83.32-10.26c-.01-2.18,1.52-5.04,5.82-5.16,5.34-.76,9.73-2.97,13.43-6.76,3.63-3.73,5.4-8.21,5.4-13.71,0-.84-.17-.9-.65-1.06-9.06-3.52-13.58-13.52-13.58-29.77s4.75-28.75,14.12-39.01t.01-.02c5.67-6.14,12.54-9.25,20.39-9.25s15.12,3.27,21.84,9.76c14.92,14.7,22.17,43.16,22.17,87.04,0,26.7-4.15,48.78-12.34,65.6-.46.93-1.35,1.59-2.38,1.77-1.03.15-2.08-.17-2.82-.91-8.4-8.39-16.56-12.65-24.28-12.65-1.83,0-2.7.25-3.05.4.03.07.05.13.1.21l2.22,1.95c5.68,5,10.92,13.02,16.01,24.52.62,1.41.16,3.09-1.12,3.97-6.01,4.16-12.69,6.25-19.85,6.25ZM49.06,140.35c-.16,2.34-.23,5.29-.23,8.95,0,4.23.21,8.93.62,13.95.4,5,1.39,11.01,2.94,17.9,1.52,6.78,3.55,12.69,6.05,17.58,2.39,4.7,5.9,8.78,10.43,12.15,4.42,3.3,9.43,4.9,15.31,4.9,5.03,0,9.6-1.22,13.92-3.69-4.29-9.17-8.73-15.79-13.21-19.75l-2.53-2.19c-.16-.17-.32-.33-.45-.51-1.06-1.41-1.59-2.9-1.59-4.46,0-2.02.93-6.71,9.55-6.71s16.94,3.83,25.49,11.38c6.54-15.4,9.86-35.12,9.86-58.73,0-41.47-6.8-69.21-20.23-82.43-5.52-5.32-11.2-7.92-17.33-7.92s-11.18,2.35-15.64,7.17c-8.25,9.04-12.43,20.69-12.43,34.65s3.14,21.31,9.32,23.71c3.06,1.02,4.91,3.63,4.91,7.13,0,7.16-2.44,13.3-7.24,18.21-4.72,4.84-10.56,7.76-17.36,8.69-.05,0-.1,0-.14.03ZM49.13,139.34v.06-.06Z"/>
        <path class="cls-6" d="M132.53,258.57l-10.42-.95c-3.58-.56-6.38-1.84-8.54-3.86-2.22-2.09-3.62-4.89-4.15-8.35l-1.27-5.04c-9.18,3.27-18.61,4.94-28.1,4.94-27.35,0-47.82-9.57-60.83-28.43C6.47,198.41,0,174.76,0,146.6c0-16.17,1.4-31.22,4.17-44.75,2.83-13.82,5.73-23.36,8.86-29.18l4.06-8.13c1.29-2.93,3.8-4.63,7-4.63,2.27,0,4,.21,5.29.64.27.09.53.18.78.27,2.21-9.36,5.7-17.64,10.38-24.6,4.94-7.36,9.98-12.94,15-16.61,5-3.67,10.68-6.55,16.88-8.54,8.08-2.62,15.33-3.95,21.54-3.95,14.67,0,27.54,3.47,38.25,10.3,10.7,6.84,18.91,16.22,24.42,27.9,9.86,21.67,14.85,46.48,14.85,73.77,0,44.47-10.43,78.17-31.02,100.26,8.49,8.75,16.77,13.18,24.63,13.18,5.41,0,7.34,3.13,7.34,6.07,0,4.81-4.28,9.2-13.48,13.8-8.22,4.11-17.12,6.18-26.42,6.18ZM110.4,232.84c.51,0,1.01.11,1.47.34.83.43,1.44,1.19,1.67,2.1l2.21,8.85c.37,2.32,1.08,3.82,2.24,4.91,1.21,1.14,2.82,1.84,4.92,2.18l9.93.91c8-.01,15.92-1.85,23.23-5.51,7.89-3.95,9.51-6.54,9.84-7.59-.19-.03-.46-.03-.8-.03-10.4,0-20.99-5.9-31.49-17.51-1.15-1.28-1.1-3.23.12-4.46,20.77-20.77,31.31-53.71,31.31-97.94,0-26.38-4.8-50.28-14.26-71.06-4.96-10.52-12.38-19-22.04-25.17-9.65-6.17-21.35-9.3-34.77-9.3-5.54,0-12.12,1.22-19.55,3.64-5.55,1.77-10.62,4.33-15.06,7.59-4.41,3.23-8.94,8.28-13.46,14.99-4.5,6.7-7.79,14.78-9.8,24.02-.08.4-.25.78-.47,1.11l-1.26,1.89c-.6.9-1.61,1.43-2.69,1.43s-2-.47-2.77-.93c-.18-.1-.63-.34-1.57-.65-.28-.09-1.15-.31-3.25-.31-.42,0-.75,0-1.15.92l-4.17,8.36c-2.84,5.26-5.6,14.49-8.26,27.5-2.68,13.11-4.04,27.72-4.04,43.46,0,26.82,6.08,49.24,18.08,66.61,11.9,17.25,30.06,25.63,55.51,25.63,9.85,0,19.66-1.95,29.14-5.77.39-.15.8-.23,1.21-.23ZM84.17,221.6c-7.22,0-13.67-2.07-19.17-6.18-5.33-3.95-9.48-8.82-12.32-14.4-2.75-5.35-4.96-11.79-6.6-19.1-1.61-7.17-2.64-13.5-3.08-18.77-.42-5.21-.64-10.08-.64-14.49s.1-7.84.32-10.26c-.01-2.18,1.52-5.04,5.82-5.15,5.34-.77,9.73-2.99,13.43-6.77,3.63-3.73,5.4-8.22,5.4-13.72,0-.84-.17-.9-.65-1.05-9.06-3.52-13.58-13.52-13.58-29.77s4.75-28.74,14.12-39.01c0,0,0-.01.01-.01,5.67-6.14,12.54-9.26,20.39-9.26s15.12,3.27,21.84,9.76c14.92,14.71,22.17,43.18,22.17,87.05,0,26.72-4.15,48.8-12.34,65.6-.46.93-1.35,1.59-2.38,1.76-1.03.16-2.08-.16-2.82-.9-8.4-8.39-16.56-12.65-24.28-12.65-1.83,0-2.7.25-3.05.4.03.06.05.14.1.21l2.22,1.94c5.68,5.01,10.92,13.02,16.01,24.52.62,1.41.16,3.08-1.12,3.96-6.01,4.15-12.69,6.27-19.85,6.27ZM49.06,139.69c-.16,2.35-.23,5.29-.23,8.97,0,4.23.21,8.93.62,13.96.4,4.98,1.39,11,2.94,17.89,1.52,6.77,3.55,12.69,6.05,17.57,2.39,4.7,5.9,8.77,10.43,12.15,4.42,3.3,9.43,4.89,15.31,4.89,5.03,0,9.6-1.21,13.92-3.67-4.29-9.17-8.73-15.8-13.21-19.76l-2.53-2.21c-.16-.14-.32-.32-.45-.49-1.06-1.41-1.59-2.92-1.59-4.48,0-2.01.93-6.69,9.55-6.69s16.94,3.82,25.49,11.38c6.54-15.41,9.86-35.14,9.86-58.75,0-41.48-6.8-69.21-20.23-82.42-5.52-5.33-11.2-7.92-17.33-7.92s-11.18,2.35-15.64,7.17c-8.25,9.05-12.43,20.71-12.43,34.66s3.14,21.3,9.32,23.71c3.06,1.02,4.91,3.63,4.91,7.12,0,7.17-2.44,13.31-7.24,18.23-4.72,4.83-10.56,7.74-17.36,8.68-.05,0-.1.02-.14.02ZM49.13,138.68v.08-.08Z"/>
        <path class="cls-7" d="M132.53,257.94l-10.42-.97c-3.58-.55-6.38-1.84-8.54-3.87-2.22-2.07-3.62-4.87-4.15-8.33l-1.27-5.04c-9.18,3.27-18.61,4.92-28.1,4.92-27.35,0-47.82-9.56-60.83-28.43C6.47,197.75,0,174.11,0,145.96c0-16.17,1.4-31.22,4.17-44.75,2.83-13.82,5.73-23.38,8.86-29.18l4.06-8.14c1.29-2.94,3.8-4.63,7-4.63,2.27,0,4,.21,5.29.63.27.08.53.19.78.27,2.21-9.36,5.7-17.64,10.38-24.62,4.94-7.33,9.98-12.93,15-16.61,5-3.67,10.68-6.52,16.88-8.53,8.08-2.62,15.33-3.93,21.54-3.93,14.67,0,27.54,3.46,38.25,10.31,10.7,6.83,18.91,16.22,24.42,27.89,9.86,21.66,14.85,46.48,14.85,73.79,0,44.45-10.43,78.15-31.02,100.25,8.49,8.75,16.77,13.17,24.63,13.17,5.41,0,7.34,3.14,7.34,6.09,0,4.79-4.28,9.18-13.48,13.79-8.22,4.11-17.12,6.19-26.42,6.19ZM110.4,232.19c.51,0,1.01.12,1.47.35.83.43,1.44,1.19,1.67,2.09l2.21,8.86c.37,2.31,1.08,3.83,2.24,4.9,1.21,1.14,2.82,1.85,4.92,2.17l9.93.92c8-.01,15.92-1.87,23.23-5.52,7.89-3.95,9.51-6.55,9.84-7.59-.19-.02-.46-.04-.8-.04-10.4,0-20.99-5.88-31.49-17.5-1.15-1.28-1.1-3.23.12-4.46,20.77-20.77,31.31-53.71,31.31-97.93,0-26.38-4.8-50.29-14.26-71.07-4.96-10.52-12.38-19-22.04-25.18-9.65-6.17-21.35-9.28-34.77-9.28-5.54,0-12.12,1.21-19.55,3.63-5.55,1.78-10.62,4.35-15.06,7.59-4.41,3.24-8.94,8.29-13.46,15-4.5,6.7-7.79,14.79-9.8,24.03-.08.39-.25.77-.47,1.1l-1.26,1.9c-.6.9-1.61,1.44-2.69,1.44s-2-.47-2.77-.94c-.18-.1-.63-.34-1.57-.64-.28-.1-1.15-.32-3.25-.32-.42,0-.75,0-1.15.92l-4.17,8.36c-2.84,5.27-5.6,14.48-8.26,27.5-2.68,13.1-4.04,27.72-4.04,43.46,0,26.82,6.08,49.24,18.08,66.61,11.9,17.25,30.06,25.65,55.51,25.65,9.85,0,19.66-1.95,29.14-5.78.39-.16.8-.24,1.21-.24ZM84.17,220.95c-7.22,0-13.67-2.08-19.17-6.18-5.33-3.97-9.48-8.81-12.32-14.4-2.75-5.35-4.96-11.79-6.6-19.09-1.61-7.18-2.64-13.51-3.08-18.8-.42-5.19-.64-10.06-.64-14.48s.1-7.82.32-10.26c-.01-2.18,1.52-5.04,5.82-5.14,5.34-.77,9.73-2.99,13.43-6.78,3.63-3.73,5.4-8.22,5.4-13.72,0-.81-.17-.88-.65-1.03-9.06-3.53-13.58-13.53-13.58-29.79s4.75-28.74,14.12-39.01h.01c5.67-6.16,12.54-9.27,20.39-9.27s15.12,3.29,21.84,9.76c14.92,14.71,22.17,43.17,22.17,87.05,0,26.72-4.15,48.78-12.34,65.6-.46.93-1.35,1.6-2.38,1.77-1.03.16-2.08-.16-2.82-.9-8.4-8.4-16.56-12.65-24.28-12.65-1.83,0-2.7.25-3.05.39.03.08.05.13.1.21l2.22,1.95c5.68,5,10.92,13.02,16.01,24.52.62,1.41.16,3.08-1.12,3.95-6.01,4.17-12.69,6.27-19.85,6.27ZM49.06,139.05c-.16,2.35-.23,5.29-.23,8.96,0,4.24.21,8.93.62,13.96.4,4.99,1.39,11.01,2.94,17.89,1.52,6.79,3.55,12.7,6.05,17.58,2.39,4.7,5.9,8.78,10.43,12.16,4.42,3.28,9.43,4.89,15.31,4.89,5.03,0,9.6-1.21,13.92-3.68-4.29-9.17-8.73-15.8-13.21-19.74l-2.53-2.21c-.16-.15-.32-.31-.45-.49-1.06-1.4-1.59-2.9-1.59-4.46,0-2.02.93-6.71,9.55-6.71s16.94,3.83,25.49,11.38c6.54-15.39,9.86-35.13,9.86-58.74,0-41.47-6.8-69.2-20.23-82.42-5.52-5.33-11.2-7.94-17.33-7.94s-11.18,2.35-15.64,7.18c-8.25,9.04-12.43,20.71-12.43,34.65s3.14,21.3,9.32,23.71c3.06,1.02,4.91,3.64,4.91,7.11,0,7.18-2.44,13.31-7.24,18.23-4.72,4.83-10.56,7.75-17.36,8.68-.05.02-.1.02-.14.02ZM49.13,138.05v.07-.07Z"/>
        <path class="cls-1" d="M132.53,257.29l-10.42-.96c-3.58-.54-6.38-1.85-8.54-3.86-2.22-2.08-3.62-4.89-4.15-8.36l-1.27-5.04c-9.18,3.28-18.61,4.94-28.1,4.94-27.35,0-47.82-9.56-60.83-28.42C6.47,197.11,0,173.46,0,145.3c0-16.15,1.4-31.22,4.17-44.75,2.83-13.83,5.73-23.36,8.86-29.18l4.06-8.13c1.29-2.94,3.8-4.63,7-4.63,2.27,0,4,.19,5.29.62.27.1.53.19.78.28,2.21-9.37,5.7-17.64,10.38-24.62,4.94-7.35,9.98-12.93,15-16.61,5-3.67,10.68-6.54,16.88-8.53,8.08-2.62,15.33-3.95,21.54-3.95,14.67,0,27.54,3.47,38.25,10.31,10.7,6.84,18.91,16.23,24.42,27.9,9.86,21.66,14.85,46.46,14.85,73.78,0,44.45-10.43,78.16-31.02,100.26,8.49,8.74,16.77,13.17,24.63,13.17,5.41,0,7.34,3.14,7.34,6.08,0,4.81-4.28,9.19-13.48,13.79-8.22,4.11-17.12,6.19-26.42,6.19ZM110.4,231.54c.51,0,1.01.12,1.47.36.83.43,1.44,1.19,1.67,2.09l2.21,8.86c.37,2.32,1.08,3.82,2.24,4.9,1.21,1.13,2.82,1.84,4.92,2.16l9.93.93c8,0,15.92-1.87,23.23-5.53,7.89-3.95,9.51-6.54,9.84-7.58-.19-.03-.46-.06-.8-.06-10.4,0-20.99-5.89-31.49-17.51-1.15-1.28-1.1-3.23.12-4.45,20.77-20.76,31.31-53.72,31.31-97.93,0-26.38-4.8-50.29-14.26-71.07-4.96-10.52-12.38-19-22.04-25.17-9.65-6.17-21.35-9.3-34.77-9.3-5.54,0-12.12,1.23-19.55,3.64-5.55,1.79-10.62,4.35-15.06,7.59-4.41,3.23-8.94,8.29-13.46,15-4.5,6.7-7.79,14.79-9.8,24.03-.08.38-.25.77-.47,1.1l-1.26,1.89c-.6.89-1.61,1.44-2.69,1.44s-2-.47-2.77-.93c-.18-.11-.63-.34-1.57-.65-.28-.1-1.15-.32-3.25-.32-.42,0-.75,0-1.15.92l-4.17,8.36c-2.84,5.26-5.6,14.49-8.26,27.5-2.68,13.11-4.04,27.74-4.04,43.46,0,26.82,6.08,49.23,18.08,66.61,11.9,17.26,30.06,25.64,55.51,25.64,9.85,0,19.66-1.94,29.14-5.77.39-.17.8-.25,1.21-.25ZM84.17,220.3c-7.22,0-13.67-2.08-19.17-6.17-5.33-3.96-9.48-8.82-12.32-14.4-2.75-5.36-4.96-11.78-6.6-19.1-1.61-7.17-2.64-13.5-3.08-18.78-.42-5.19-.64-10.06-.64-14.48s.1-7.82.32-10.25c-.01-2.18,1.52-5.04,5.82-5.15,5.34-.78,9.73-2.99,13.43-6.77,3.63-3.74,5.4-8.22,5.4-13.72,0-.84-.17-.89-.65-1.06-9.06-3.52-13.58-13.52-13.58-29.77s4.75-28.74,14.12-39.01t.01-.01c5.67-6.14,12.54-9.27,20.39-9.27s15.12,3.29,21.84,9.76c14.92,14.71,22.17,43.18,22.17,87.05,0,26.71-4.15,48.78-12.34,65.59-.46.95-1.35,1.61-2.38,1.79-1.03.15-2.08-.17-2.82-.91-8.4-8.38-16.56-12.65-24.28-12.65-1.83,0-2.7.27-3.05.41.03.07.05.14.1.21l2.22,1.96c5.68,5,10.92,13.02,16.01,24.51.62,1.42.16,3.08-1.12,3.98-6.01,4.15-12.69,6.25-19.85,6.25ZM49.06,138.4c-.16,2.35-.23,5.28-.23,8.96,0,4.24.21,8.95.62,13.96.4,4.98,1.39,11.01,2.94,17.9,1.52,6.78,3.55,12.69,6.05,17.57,2.39,4.7,5.9,8.79,10.43,12.16,4.42,3.3,9.43,4.9,15.31,4.9,5.03,0,9.6-1.19,13.92-3.68-4.29-9.16-8.73-15.8-13.21-19.76l-2.53-2.2c-.16-.15-.32-.32-.45-.49-1.06-1.41-1.59-2.91-1.59-4.46,0-2.02.93-6.71,9.55-6.71s16.94,3.82,25.49,11.38c6.54-15.39,9.86-35.12,9.86-58.74,0-41.48-6.8-69.22-20.23-82.42-5.52-5.33-11.2-7.93-17.33-7.93s-11.18,2.35-15.64,7.17c-8.25,9.04-12.43,20.69-12.43,34.66s3.14,21.3,9.32,23.7c3.06,1.02,4.91,3.63,4.91,7.13,0,7.16-2.44,13.3-7.24,18.21-4.72,4.85-10.56,7.77-17.36,8.71-.05,0-.1.01-.14.01ZM49.13,137.4v.05-.05Z"/>
        <path class="cls-26" d="M132.53,256.65l-10.42-.96c-3.58-.56-6.38-1.84-8.54-3.87-2.22-2.07-3.62-4.88-4.15-8.34l-1.27-5.04c-9.18,3.27-18.61,4.92-28.1,4.92-27.35,0-47.82-9.56-60.83-28.42C6.47,196.47,0,172.83,0,144.65c0-16.15,1.4-31.21,4.17-44.75,2.83-13.82,5.73-23.37,8.86-29.18l4.06-8.13c1.29-2.94,3.8-4.63,7-4.63,2.27,0,4,.21,5.29.64.27.1.53.19.78.27,2.21-9.37,5.7-17.64,10.38-24.62,4.94-7.35,9.98-12.93,15-16.61,5-3.67,10.68-6.53,16.88-8.53,8.08-2.62,15.33-3.95,21.54-3.95,14.67,0,27.54,3.47,38.25,10.3,10.7,6.84,18.91,16.23,24.42,27.89,9.86,21.67,14.85,46.47,14.85,73.79,0,44.45-10.43,78.15-31.02,100.25,8.49,8.74,16.77,13.18,24.63,13.18,5.41,0,7.34,3.12,7.34,6.07,0,4.82-4.28,9.19-13.48,13.79-8.22,4.11-17.12,6.2-26.42,6.2ZM110.4,230.91c.51,0,1.01.11,1.47.34.83.43,1.44,1.19,1.67,2.09l2.21,8.86c.37,2.31,1.08,3.83,2.24,4.91,1.21,1.13,2.82,1.84,4.92,2.17l9.93.92c8-.01,15.92-1.87,23.23-5.52,7.89-3.95,9.51-6.55,9.84-7.59-.19-.03-.46-.05-.8-.05-10.4,0-20.99-5.88-31.49-17.49-1.15-1.28-1.1-3.24.12-4.45,20.77-20.79,31.31-53.74,31.31-97.95,0-26.38-4.8-50.29-14.26-71.06-4.96-10.52-12.38-19-22.04-25.18-9.65-6.16-21.35-9.3-34.77-9.3-5.54,0-12.12,1.24-19.55,3.64-5.55,1.79-10.62,4.34-15.06,7.61-4.41,3.24-8.94,8.28-13.46,15-4.5,6.69-7.79,14.78-9.8,24.01-.08.39-.25.78-.47,1.1l-1.26,1.91c-.6.89-1.61,1.43-2.69,1.43s-2-.48-2.77-.93c-.18-.11-.63-.34-1.57-.66-.28-.08-1.15-.3-3.25-.3-.42,0-.75,0-1.15.93l-4.17,8.35c-2.84,5.25-5.6,14.49-8.26,27.5-2.68,13.11-4.04,27.73-4.04,43.45,0,26.83,6.08,49.24,18.08,66.62,11.9,17.25,30.06,25.62,55.51,25.62,9.85,0,19.66-1.94,29.14-5.76.39-.16.8-.23,1.21-.23ZM84.17,219.65c-7.22,0-13.67-2.08-19.17-6.17-5.33-3.98-9.48-8.82-12.32-14.4-2.75-5.38-4.96-11.8-6.6-19.1-1.61-7.18-2.64-13.5-3.08-18.78-.42-5.2-.64-10.08-.64-14.49s.1-7.82.32-10.24c-.01-2.18,1.52-5.04,5.82-5.16,5.34-.76,9.73-2.99,13.43-6.76,3.63-3.73,5.4-8.21,5.4-13.72,0-.84-.17-.9-.65-1.06-9.06-3.51-13.58-13.52-13.58-29.77s4.75-28.75,14.12-39.01c0,0,0-.01.01-.02,5.67-6.14,12.54-9.25,20.39-9.25s15.12,3.27,21.84,9.75c14.92,14.71,22.17,43.17,22.17,87.06,0,26.71-4.15,48.78-12.34,65.58-.46.95-1.35,1.61-2.38,1.77-1.03.16-2.08-.16-2.82-.89-8.4-8.39-16.56-12.66-24.28-12.66-1.83,0-2.7.26-3.05.41.03.06.05.13.1.21l2.22,1.95c5.68,5,10.92,13.02,16.01,24.52.62,1.41.16,3.07-1.12,3.95-6.01,4.17-12.69,6.27-19.85,6.27ZM49.06,137.75c-.16,2.35-.23,5.29-.23,8.96,0,4.24.21,8.94.62,13.96.4,5,1.39,11.02,2.94,17.9,1.52,6.78,3.55,12.7,6.05,17.57,2.39,4.71,5.9,8.79,10.43,12.16,4.42,3.3,9.43,4.89,15.31,4.89,5.03,0,9.6-1.2,13.92-3.68-4.29-9.15-8.73-15.8-13.21-19.75l-2.53-2.2c-.16-.14-.32-.31-.45-.49-1.06-1.41-1.59-2.9-1.59-4.46,0-2.03.93-6.71,9.55-6.71s16.94,3.82,25.49,11.38c6.54-15.41,9.86-35.12,9.86-58.73,0-41.47-6.8-69.22-20.23-82.43-5.52-5.33-11.2-7.93-17.33-7.93s-11.18,2.35-15.64,7.18c-8.25,9.03-12.43,20.69-12.43,34.65s3.14,21.29,9.32,23.7c3.06,1.02,4.91,3.64,4.91,7.13,0,7.16-2.44,13.29-7.24,18.22-4.72,4.83-10.56,7.76-17.36,8.68-.05,0-.1.01-.14.01ZM49.13,136.75v.07-.07Z"/>
        <path class="cls-25" d="M132.53,256l-10.42-.96c-3.58-.56-6.38-1.84-8.54-3.86-2.22-2.08-3.62-4.89-4.15-8.36l-1.27-5.03c-9.18,3.27-18.61,4.92-28.1,4.92-27.35,0-47.82-9.56-60.83-28.42C6.47,195.82,0,172.17,0,144.02c0-16.17,1.4-31.22,4.17-44.76,2.83-13.81,5.73-23.36,8.86-29.18l4.06-8.14c1.29-2.93,3.8-4.62,7-4.62,2.27,0,4,.21,5.29.64.27.09.53.17.78.27,2.21-9.38,5.7-17.65,10.38-24.64,4.94-7.33,9.98-12.92,15-16.6,5-3.67,10.68-6.54,16.88-8.53,8.08-2.62,15.33-3.95,21.54-3.95,14.67,0,27.54,3.47,38.25,10.31,10.7,6.84,18.91,16.22,24.42,27.89,9.86,21.67,14.85,46.47,14.85,73.78,0,44.46-10.43,78.17-31.02,100.26,8.49,8.74,16.77,13.18,24.63,13.18,5.41,0,7.34,3.13,7.34,6.07,0,4.81-4.28,9.2-13.48,13.8-8.22,4.11-17.12,6.19-26.42,6.19ZM110.4,230.25c.51,0,1.01.12,1.47.35.83.43,1.44,1.19,1.67,2.1l2.21,8.85c.37,2.32,1.08,3.82,2.24,4.91,1.21,1.14,2.82,1.84,4.92,2.16l9.93.95c8-.02,15.92-1.87,23.23-5.53,7.89-3.95,9.51-6.56,9.84-7.59-.19-.03-.46-.05-.8-.05-10.4,0-20.99-5.89-31.49-17.51-1.15-1.28-1.1-3.22.12-4.45,20.77-20.77,31.31-53.71,31.31-97.94,0-26.38-4.8-50.28-14.26-71.06-4.96-10.52-12.38-19-22.04-25.17-9.65-6.17-21.35-9.3-34.77-9.3-5.54,0-12.12,1.22-19.55,3.64-5.55,1.78-10.62,4.33-15.06,7.59-4.41,3.23-8.94,8.28-13.46,14.99-4.5,6.71-7.79,14.78-9.8,24.02-.08.4-.25.78-.47,1.11l-1.26,1.89c-.6.9-1.61,1.44-2.69,1.44s-2-.47-2.77-.93c-.18-.11-.63-.34-1.57-.66-.28-.08-1.15-.3-3.25-.3-.42,0-.75,0-1.15.92l-4.17,8.36c-2.84,5.26-5.6,14.48-8.26,27.5-2.68,13.1-4.04,27.73-4.04,43.46,0,26.82,6.08,49.22,18.08,66.61,11.9,17.26,30.06,25.63,55.51,25.63,9.85,0,19.66-1.94,29.14-5.77.39-.15.8-.24,1.21-.24ZM84.17,219.01c-7.22,0-13.67-2.08-19.17-6.18-5.33-3.95-9.48-8.81-12.32-14.4-2.75-5.35-4.96-11.79-6.6-19.09-1.61-7.19-2.64-13.5-3.08-18.79-.42-5.2-.64-10.06-.64-14.47s.1-7.83.32-10.26c-.01-2.18,1.52-5.05,5.82-5.15,5.34-.77,9.73-2.98,13.43-6.78,3.63-3.73,5.4-8.22,5.4-13.71,0-.84-.17-.9-.65-1.04-9.06-3.53-13.58-13.52-13.58-29.78s4.75-28.75,14.12-39.01t.01-.01c5.67-6.15,12.54-9.26,20.39-9.26s15.12,3.29,21.84,9.76c14.92,14.71,22.17,43.17,22.17,87.05,0,26.72-4.15,48.8-12.34,65.59-.46.95-1.35,1.6-2.38,1.78-1.03.16-2.08-.16-2.82-.91-8.4-8.4-16.56-12.65-24.28-12.65-1.83,0-2.7.27-3.05.4.03.06.05.14.1.21l2.22,1.96c5.68,4.98,10.92,13,16.01,24.5.62,1.43.16,3.09-1.12,3.97-6.01,4.15-12.69,6.27-19.85,6.27ZM49.06,137.11c-.16,2.35-.23,5.29-.23,8.97,0,4.23.21,8.93.62,13.96.4,4.97,1.39,10.99,2.94,17.88,1.52,6.78,3.55,12.7,6.05,17.58,2.39,4.7,5.9,8.78,10.43,12.16,4.42,3.3,9.43,4.9,15.31,4.9,5.03,0,9.6-1.22,13.92-3.69-4.29-9.15-8.73-15.78-13.21-19.74l-2.53-2.21c-.16-.14-.32-.32-.45-.49-1.06-1.41-1.59-2.92-1.59-4.48,0-2.02.93-6.69,9.55-6.69s16.94,3.82,25.49,11.37c6.54-15.39,9.86-35.13,9.86-58.74,0-41.47-6.8-69.21-20.23-82.43-5.52-5.32-11.2-7.92-17.33-7.92s-11.18,2.35-15.64,7.17c-8.25,9.05-12.43,20.69-12.43,34.66s3.14,21.3,9.32,23.7c3.06,1.03,4.91,3.64,4.91,7.13,0,7.17-2.44,13.3-7.24,18.22-4.72,4.83-10.56,7.75-17.36,8.68-.05,0-.1.02-.14.02ZM49.13,136.1v.06-.06Z"/>
        <path class="cls-22" d="M132.53,255.35l-10.42-.95c-3.58-.55-6.38-1.84-8.54-3.87-2.22-2.07-3.62-4.88-4.15-8.35l-1.27-5.02c-9.18,3.27-18.61,4.92-28.1,4.92-27.35,0-47.82-9.56-60.83-28.43C6.47,195.17,0,171.53,0,143.36c0-16.15,1.4-31.21,4.17-44.74,2.83-13.83,5.73-23.38,8.86-29.18l4.06-8.13c1.29-2.95,3.8-4.63,7-4.63,2.27,0,4,.21,5.29.62.27.1.53.19.78.28,2.21-9.36,5.7-17.64,10.38-24.62,4.94-7.35,9.98-12.93,15-16.61,5-3.67,10.68-6.54,16.88-8.53,8.08-2.62,15.33-3.95,21.54-3.95,14.67,0,27.54,3.47,38.25,10.32,10.7,6.83,18.91,16.22,24.42,27.89,9.86,21.66,14.85,46.48,14.85,73.79,0,44.45-10.43,78.15-31.02,100.25,8.49,8.75,16.77,13.17,24.63,13.17,5.41,0,7.34,3.14,7.34,6.08,0,4.81-4.28,9.19-13.48,13.8-8.22,4.1-17.12,6.18-26.42,6.18ZM110.4,229.6c.51,0,1.01.12,1.47.35.83.43,1.44,1.2,1.67,2.11l2.21,8.86c.37,2.31,1.08,3.82,2.24,4.9,1.21,1.13,2.82,1.86,4.92,2.18l9.93.92c8-.01,15.92-1.87,23.23-5.52,7.89-3.95,9.51-6.55,9.84-7.59-.19-.03-.46-.04-.8-.04-10.4,0-20.99-5.89-31.49-17.5-1.15-1.28-1.1-3.24.12-4.45,20.77-20.78,31.31-53.73,31.31-97.93,0-26.38-4.8-50.29-14.26-71.07-4.96-10.52-12.38-19.01-22.04-25.17-9.65-6.16-21.35-9.3-34.77-9.3-5.54,0-12.12,1.22-19.55,3.65-5.55,1.77-10.62,4.34-15.06,7.59-4.41,3.24-8.94,8.28-13.46,15-4.5,6.7-7.79,14.79-9.8,24.03-.08.38-.25.76-.47,1.1l-1.26,1.9c-.6.9-1.61,1.43-2.69,1.43s-2-.47-2.77-.95c-.18-.09-.63-.33-1.57-.64-.28-.1-1.15-.32-3.25-.32-.42,0-.75,0-1.15.93l-4.17,8.35c-2.84,5.26-5.6,14.48-8.26,27.5-2.68,13.1-4.04,27.72-4.04,43.44,0,26.83,6.08,49.24,18.08,66.61,11.9,17.25,30.06,25.64,55.51,25.64,9.85,0,19.66-1.95,29.14-5.77.39-.17.8-.25,1.21-.25ZM84.17,218.37c-7.22,0-13.67-2.08-19.17-6.18-5.33-3.97-9.48-8.81-12.32-14.4-2.75-5.36-4.96-11.79-6.6-19.1-1.61-7.17-2.64-13.48-3.08-18.77-.42-5.2-.64-10.08-.64-14.5s.1-7.81.32-10.25c-.01-2.18,1.52-5.05,5.82-5.14,5.34-.77,9.73-2.99,13.43-6.78,3.63-3.73,5.4-8.21,5.4-13.71,0-.84-.17-.89-.65-1.04-9.06-3.53-13.58-13.52-13.58-29.79s4.75-28.74,14.12-39.01t.01,0c5.67-6.15,12.54-9.26,20.39-9.26s15.12,3.29,21.84,9.76c14.92,14.71,22.17,43.17,22.17,87.06,0,26.7-4.15,48.77-12.34,65.58-.46.93-1.35,1.6-2.38,1.77-1.03.16-2.08-.16-2.82-.9-8.4-8.4-16.56-12.66-24.28-12.66-1.83,0-2.7.26-3.05.41.03.06.05.14.1.21l2.22,1.95c5.68,5.01,10.92,13.02,16.01,24.52.62,1.41.16,3.08-1.12,3.95-6.01,4.16-12.69,6.27-19.85,6.27ZM49.06,136.47c-.16,2.34-.23,5.29-.23,8.95,0,4.24.21,8.94.62,13.96.4,4.99,1.39,11.01,2.94,17.9,1.52,6.78,3.55,12.69,6.05,17.58,2.39,4.7,5.9,8.78,10.43,12.16,4.42,3.3,9.43,4.89,15.31,4.89,5.03,0,9.6-1.21,13.92-3.68-4.29-9.17-8.73-15.8-13.21-19.76l-2.53-2.2c-.16-.15-.32-.31-.45-.49-1.06-1.4-1.59-2.91-1.59-4.46,0-2.02.93-6.71,9.55-6.71s16.94,3.83,25.49,11.38c6.54-15.39,9.86-35.12,9.86-58.73,0-41.49-6.8-69.22-20.23-82.44-5.52-5.33-11.2-7.92-17.33-7.92s-11.18,2.34-15.64,7.17c-8.25,9.03-12.43,20.71-12.43,34.65s3.14,21.3,9.32,23.71c3.06,1.02,4.91,3.63,4.91,7.12,0,7.17-2.44,13.3-7.24,18.23-4.72,4.83-10.56,7.75-17.36,8.68-.05,0-.1.02-.14.02ZM49.13,135.46v.07-.07Z"/>
        <path class="cls-18" d="M132.53,254.71l-10.42-.96c-3.58-.54-6.38-1.84-8.54-3.87-2.22-2.07-3.62-4.88-4.15-8.35l-1.27-5.04c-9.18,3.28-18.61,4.93-28.1,4.93-27.35,0-47.82-9.56-60.83-28.41C6.47,194.52,0,170.88,0,142.72c0-16.17,1.4-31.22,4.17-44.75,2.83-13.83,5.73-23.37,8.86-29.18l4.06-8.13c1.29-2.95,3.8-4.63,7-4.63,2.27,0,4,.21,5.29.64.27.1.53.18.78.27,2.21-9.37,5.7-17.64,10.38-24.62,4.94-7.35,9.98-12.93,15-16.61,5-3.67,10.68-6.54,16.88-8.53,8.08-2.61,15.33-3.95,21.54-3.95,14.67,0,27.54,3.47,38.25,10.31,10.7,6.84,18.91,16.23,24.42,27.9,9.86,21.67,14.85,46.46,14.85,73.77,0,44.46-10.43,78.17-31.02,100.26,8.49,8.75,16.77,13.18,24.63,13.18,5.41,0,7.34,3.13,7.34,6.07,0,4.81-4.28,9.19-13.48,13.79-8.22,4.11-17.12,6.19-26.42,6.19ZM110.4,228.97c.51,0,1.01.11,1.47.34.83.42,1.44,1.19,1.67,2.09l2.21,8.86c.37,2.32,1.08,3.82,2.24,4.9,1.21,1.13,2.82,1.84,4.92,2.16l9.93.93c8-.01,15.92-1.86,23.23-5.53,7.89-3.95,9.51-6.54,9.84-7.59-.19-.01-.46-.04-.8-.04-10.4,0-20.99-5.89-31.49-17.51-1.15-1.28-1.1-3.23.12-4.45,20.77-20.77,31.31-53.72,31.31-97.94,0-26.38-4.8-50.29-14.26-71.07-4.96-10.51-12.38-18.99-22.04-25.17-9.65-6.16-21.35-9.3-34.77-9.3-5.54,0-12.12,1.24-19.55,3.64-5.55,1.79-10.62,4.35-15.06,7.6-4.41,3.23-8.94,8.28-13.46,14.99-4.5,6.7-7.79,14.79-9.8,24.03-.08.4-.25.77-.47,1.1l-1.26,1.9c-.6.9-1.61,1.44-2.69,1.44s-2-.47-2.77-.93c-.18-.11-.63-.34-1.57-.64-.28-.1-1.15-.32-3.25-.32-.42,0-.75,0-1.15.92l-4.17,8.36c-2.84,5.26-5.6,14.49-8.26,27.49-2.68,13.11-4.04,27.75-4.04,43.46,0,26.82,6.08,49.23,18.08,66.61,11.9,17.25,30.06,25.64,55.51,25.64,9.85,0,19.66-1.95,29.14-5.77.39-.16.8-.23,1.21-.23ZM84.17,217.72c-7.22,0-13.67-2.08-19.17-6.17-5.33-3.97-9.48-8.81-12.32-14.4-2.75-5.37-4.96-11.79-6.6-19.1-1.61-7.18-2.64-13.5-3.08-18.78-.42-5.19-.64-10.06-.64-14.49s.1-7.81.32-10.24c-.01-2.18,1.52-5.04,5.82-5.15,5.34-.78,9.73-2.99,13.43-6.78,3.63-3.73,5.4-8.21,5.4-13.7,0-.84-.17-.89-.65-1.06-9.06-3.51-13.58-13.52-13.58-29.77s4.75-28.75,14.12-39.01t.01-.01c5.67-6.15,12.54-9.27,20.39-9.27s15.12,3.28,21.84,9.76c14.92,14.71,22.17,43.18,22.17,87.05,0,26.72-4.15,48.78-12.34,65.59-.46.95-1.35,1.61-2.38,1.77-1.03.16-2.08-.16-2.82-.9-8.4-8.38-16.56-12.64-24.28-12.64-1.83,0-2.7.25-3.05.4.03.07.05.12.1.21l2.22,1.95c5.68,5,10.92,13.03,16.01,24.52.62,1.42.16,3.08-1.12,3.98-6.01,4.15-12.69,6.25-19.85,6.25ZM49.06,135.82c-.16,2.35-.23,5.29-.23,8.95,0,4.24.21,8.92.62,13.96.4,4.98,1.39,11.01,2.94,17.89,1.52,6.78,3.55,12.69,6.05,17.57,2.39,4.7,5.9,8.79,10.43,12.16,4.42,3.3,9.43,4.89,15.31,4.89,5.03,0,9.6-1.19,13.92-3.67-4.29-9.16-8.73-15.8-13.21-19.75l-2.53-2.2c-.16-.15-.32-.32-.45-.49-1.06-1.41-1.59-2.91-1.59-4.48,0-2,.93-6.69,9.55-6.69s16.94,3.82,25.49,11.38c6.54-15.39,9.86-35.14,9.86-58.74,0-41.48-6.8-69.2-20.23-82.44-5.52-5.31-11.2-7.91-17.33-7.91s-11.18,2.33-15.64,7.17c-8.25,9.04-12.43,20.69-12.43,34.66s3.14,21.29,9.32,23.7c3.06,1.02,4.91,3.63,4.91,7.13,0,7.17-2.44,13.3-7.24,18.21-4.72,4.84-10.56,7.76-17.36,8.7-.05,0-.1,0-.14.01ZM49.13,134.82v.06-.06Z"/>
        <path class="cls-24" d="M132.53,254.05l-10.42-.96c-3.58-.55-6.38-1.84-8.54-3.86-2.22-2.07-3.62-4.89-4.15-8.35l-1.27-5.03c-9.18,3.27-18.61,4.92-28.1,4.92-27.35,0-47.82-9.56-60.83-28.42C6.47,193.89,0,170.22,0,142.08c0-16.17,1.4-31.22,4.17-44.75,2.83-13.83,5.73-23.38,8.86-29.18l4.06-8.12c1.29-2.94,3.8-4.64,7-4.64,2.27,0,4,.21,5.29.65.27.1.53.19.78.27,2.21-9.36,5.7-17.65,10.38-24.62,4.94-7.35,9.98-12.92,15-16.61,5-3.67,10.68-6.54,16.88-8.53,8.08-2.62,15.33-3.95,21.54-3.95,14.67,0,27.54,3.47,38.25,10.3,10.7,6.84,18.91,16.24,24.42,27.9,9.86,21.67,14.85,46.48,14.85,73.79,0,44.45-10.43,78.16-31.02,100.25,8.49,8.74,16.77,13.18,24.63,13.18,5.41,0,7.34,3.12,7.34,6.07,0,4.81-4.28,9.19-13.48,13.8-8.22,4.1-17.12,6.18-26.42,6.18ZM110.4,228.31c.51,0,1.01.12,1.47.36.83.43,1.44,1.19,1.67,2.09l2.21,8.86c.37,2.33,1.08,3.83,2.24,4.89,1.21,1.15,2.82,1.85,4.92,2.18l9.93.92c8-.01,15.92-1.87,23.23-5.52,7.89-3.95,9.51-6.55,9.84-7.59-.19-.02-.46-.05-.8-.05-10.4,0-20.99-5.88-31.49-17.51-1.15-1.27-1.1-3.22.12-4.45,20.77-20.77,31.31-53.72,31.31-97.93,0-26.38-4.8-50.29-14.26-71.06-4.96-10.52-12.38-19-22.04-25.18-9.65-6.17-21.35-9.28-34.77-9.28-5.54,0-12.12,1.22-19.55,3.62-5.55,1.78-10.62,4.34-15.06,7.61-4.41,3.23-8.94,8.28-13.46,15-4.5,6.69-7.79,14.77-9.8,24.01-.08.39-.25.78-.47,1.11l-1.26,1.89c-.6.91-1.61,1.44-2.69,1.44s-2-.47-2.77-.93c-.18-.11-.63-.34-1.57-.66-.28-.08-1.15-.3-3.25-.3-.42,0-.75,0-1.15.92l-4.17,8.35c-2.84,5.26-5.6,14.5-8.26,27.51-2.68,13.11-4.04,27.73-4.04,43.46,0,26.82,6.08,49.24,18.08,66.61,11.9,17.25,30.06,25.63,55.51,25.63,9.85,0,19.66-1.95,29.14-5.77.39-.16.8-.24,1.21-.24ZM84.17,217.06c-7.22,0-13.67-2.06-19.17-6.16-5.33-3.98-9.48-8.82-12.32-14.42-2.75-5.35-4.96-11.78-6.6-19.09-1.61-7.17-2.64-13.49-3.08-18.78-.42-5.19-.64-10.07-.64-14.49s.1-7.82.32-10.24c-.01-2.18,1.52-5.04,5.82-5.16,5.34-.78,9.73-2.99,13.43-6.76,3.63-3.73,5.4-8.21,5.4-13.72,0-.84-.17-.91-.65-1.06-9.06-3.52-13.58-13.52-13.58-29.77s4.75-28.75,14.12-39.01c0,0,0-.02.01-.02,5.67-6.14,12.54-9.26,20.39-9.26s15.12,3.29,21.84,9.76c14.92,14.71,22.17,43.17,22.17,87.05,0,26.72-4.15,48.78-12.34,65.6-.46.93-1.35,1.59-2.38,1.77-1.03.15-2.08-.18-2.82-.91-8.4-8.4-16.56-12.66-24.28-12.66-1.83,0-2.7.26-3.05.41.03.05.05.12.1.21l2.22,1.94c5.68,5,10.92,13.02,16.01,24.52.62,1.42.16,3.08-1.12,3.96-6.01,4.15-12.69,6.26-19.85,6.26ZM49.06,135.17c-.16,2.35-.23,5.29-.23,8.96,0,4.24.21,8.94.62,13.96.4,4.98,1.39,11.01,2.94,17.89,1.52,6.78,3.55,12.69,6.05,17.58,2.39,4.71,5.9,8.79,10.43,12.16,4.42,3.3,9.43,4.9,15.31,4.9,5.03,0,9.6-1.21,13.92-3.69-4.29-9.15-8.73-15.8-13.21-19.75l-2.53-2.2c-.16-.14-.32-.31-.45-.49-1.06-1.41-1.59-2.91-1.59-4.47,0-2.02.93-6.71,9.55-6.71s16.94,3.82,25.49,11.38c6.54-15.4,9.86-35.12,9.86-58.74,0-41.47-6.8-69.22-20.23-82.42-5.52-5.33-11.2-7.93-17.33-7.93s-11.18,2.34-15.64,7.17c-8.25,9.03-12.43,20.7-12.43,34.66s3.14,21.29,9.32,23.71c3.06,1.01,4.91,3.63,4.91,7.12,0,7.16-2.44,13.29-7.24,18.22-4.72,4.83-10.56,7.74-17.36,8.68-.05.01-.1.01-.14.02ZM49.13,134.17v.06-.06Z"/>
        <path class="cls-20" d="M132.53,253.42l-10.42-.98c-3.58-.54-6.38-1.83-8.54-3.87-2.22-2.07-3.62-4.87-4.15-8.34l-1.27-5.04c-9.18,3.28-18.61,4.93-28.1,4.93-27.35,0-47.82-9.56-60.83-28.44C6.47,193.23,0,169.58,0,141.42c0-16.15,1.4-31.21,4.17-44.75,2.83-13.83,5.73-23.38,8.86-29.18l4.06-8.14c1.29-2.92,3.8-4.63,7-4.63,2.27,0,4,.21,5.29.64.27.1.53.19.78.28,2.21-9.36,5.7-17.64,10.38-24.63,4.94-7.34,9.98-12.93,15-16.61,5-3.67,10.68-6.54,16.88-8.53,8.08-2.62,15.33-3.95,21.54-3.95,14.67,0,27.54,3.47,38.25,10.31,10.7,6.83,18.91,16.22,24.42,27.89,9.86,21.66,14.85,46.47,14.85,73.78,0,44.45-10.43,78.15-31.02,100.25,8.49,8.75,16.77,13.17,24.63,13.17,5.41,0,7.34,3.14,7.34,6.08,0,4.81-4.28,9.2-13.48,13.8-8.22,4.11-17.12,6.19-26.42,6.19ZM110.4,227.67c.51,0,1.01.12,1.47.34.83.43,1.44,1.19,1.67,2.11l2.21,8.84c.37,2.32,1.08,3.83,2.24,4.91,1.21,1.13,2.82,1.85,4.92,2.18l9.93.91c8,0,15.92-1.87,23.23-5.51,7.89-3.97,9.51-6.56,9.84-7.59-.19-.03-.46-.05-.8-.05-10.4,0-20.99-5.89-31.49-17.51-1.15-1.28-1.1-3.24.12-4.45,20.77-20.77,31.31-53.71,31.31-97.94,0-26.38-4.8-50.28-14.26-71.06-4.96-10.52-12.38-19-22.04-25.17-9.65-6.18-21.35-9.3-34.77-9.3-5.54,0-12.12,1.22-19.55,3.64-5.55,1.78-10.62,4.33-15.06,7.59-4.41,3.23-8.94,8.27-13.46,15-4.5,6.69-7.79,14.78-9.8,24.02-.08.4-.25.77-.47,1.1l-1.26,1.9c-.6.89-1.61,1.44-2.69,1.44s-2-.48-2.77-.93c-.18-.11-.63-.35-1.57-.65-.28-.1-1.15-.31-3.25-.31-.42,0-.75,0-1.15.92l-4.17,8.36c-2.84,5.26-5.6,14.48-8.26,27.49-2.68,13.11-4.04,27.74-4.04,43.46,0,26.83,6.08,49.24,18.08,66.61,11.9,17.27,30.06,25.64,55.51,25.64,9.85,0,19.66-1.94,29.14-5.78.39-.15.8-.23,1.21-.23ZM84.17,216.42c-7.22,0-13.67-2.07-19.17-6.17-5.33-3.97-9.48-8.81-12.32-14.4-2.75-5.37-4.96-11.79-6.6-19.1-1.61-7.18-2.64-13.5-3.08-18.78-.42-5.2-.64-10.08-.64-14.49s.1-7.82.32-10.25c-.01-2.18,1.52-5.04,5.82-5.16,5.34-.75,9.73-2.98,13.43-6.77,3.63-3.72,5.4-8.21,5.4-13.7,0-.84-.17-.9-.65-1.06-9.06-3.52-13.58-13.51-13.58-29.77s4.75-28.74,14.12-39t.01-.03c5.67-6.14,12.54-9.25,20.39-9.25s15.12,3.28,21.84,9.76c14.92,14.71,22.17,43.18,22.17,87.05,0,26.71-4.15,48.78-12.34,65.59-.46.95-1.35,1.6-2.38,1.77-1.03.16-2.08-.15-2.82-.89-8.4-8.4-16.56-12.65-24.28-12.65-1.83,0-2.7.25-3.05.41.03.06.05.12.1.21l2.22,1.94c5.68,5,10.92,13.03,16.01,24.53.62,1.4.16,3.08-1.12,3.96-6.01,4.15-12.69,6.25-19.85,6.25ZM49.06,134.53c-.16,2.34-.23,5.29-.23,8.95,0,4.24.21,8.94.62,13.96.4,4.99,1.39,11.01,2.94,17.9,1.52,6.78,3.55,12.7,6.05,17.58,2.39,4.7,5.9,8.79,10.43,12.17,4.42,3.3,9.43,4.9,15.31,4.9,5.03,0,9.6-1.22,13.92-3.69-4.29-9.16-8.73-15.8-13.21-19.75l-2.53-2.2c-.16-.17-.32-.32-.45-.49-1.06-1.41-1.59-2.91-1.59-4.47,0-2.02.93-6.71,9.55-6.71s16.94,3.84,25.49,11.38c6.54-15.4,9.86-35.12,9.86-58.73,0-41.48-6.8-69.21-20.23-82.43-5.52-5.32-11.2-7.93-17.33-7.93s-11.18,2.35-15.64,7.18c-8.25,9.05-12.43,20.69-12.43,34.65s3.14,21.29,9.32,23.71c3.06,1.02,4.91,3.63,4.91,7.13,0,7.16-2.44,13.29-7.24,18.22-4.72,4.83-10.56,7.74-17.36,8.68-.05,0-.1,0-.14.02ZM49.13,133.52v.06-.06Z"/>
        <path class="cls-21" d="M132.53,252.76l-10.42-.95c-3.58-.56-6.38-1.84-8.54-3.87-2.22-2.07-3.62-4.89-4.15-8.35l-1.27-5.04c-9.18,3.28-18.61,4.94-28.1,4.94-27.35,0-47.82-9.56-60.83-28.43C6.47,192.59,0,168.94,0,140.78c0-16.16,1.4-31.22,4.17-44.75,2.83-13.83,5.73-23.37,8.86-29.18l4.06-8.13c1.29-2.95,3.8-4.63,7-4.63,2.27,0,4,.21,5.29.62.27.1.53.19.78.28,2.21-9.36,5.7-17.64,10.38-24.62,4.94-7.35,9.98-12.93,15-16.61,5-3.67,10.68-6.54,16.88-8.53,8.08-2.62,15.33-3.95,21.54-3.95,14.67,0,27.54,3.47,38.25,10.31,10.7,6.84,18.91,16.23,24.42,27.9,9.86,21.65,14.85,46.48,14.85,73.77,0,44.46-10.43,78.16-31.02,100.26,8.49,8.75,16.77,13.17,24.63,13.17,5.41,0,7.34,3.14,7.34,6.08,0,4.81-4.28,9.19-13.48,13.79-8.22,4.12-17.12,6.19-26.42,6.19ZM110.4,227.02c.51,0,1.01.12,1.47.35.83.43,1.44,1.2,1.67,2.1l2.21,8.86c.37,2.31,1.08,3.83,2.24,4.89,1.21,1.13,2.82,1.85,4.92,2.18l9.93.92c8-.01,15.92-1.87,23.23-5.52,7.89-3.95,9.51-6.55,9.84-7.59-.19-.03-.46-.04-.8-.04-10.4,0-20.99-5.88-31.49-17.5-1.15-1.28-1.1-3.24.12-4.45,20.77-20.78,31.31-53.73,31.31-97.95,0-26.36-4.8-50.28-14.26-71.06-4.96-10.52-12.38-19.01-22.04-25.18-9.65-6.15-21.35-9.29-34.77-9.29-5.54,0-12.12,1.22-19.55,3.63-5.55,1.79-10.62,4.34-15.06,7.59-4.41,3.24-8.94,8.29-13.46,15.01-4.5,6.7-7.79,14.79-9.8,24.01-.08.4-.25.78-.47,1.11l-1.26,1.9c-.6.9-1.61,1.43-2.69,1.43s-2-.47-2.77-.93c-.18-.1-.63-.34-1.57-.65-.28-.09-1.15-.3-3.25-.3-.42,0-.75,0-1.15.92l-4.17,8.36c-2.84,5.26-5.6,14.48-8.26,27.49-2.68,13.11-4.04,27.74-4.04,43.46,0,26.83,6.08,49.24,18.08,66.61,11.9,17.25,30.06,25.64,55.51,25.64,9.85,0,19.66-1.94,29.14-5.76.39-.16.8-.25,1.21-.25ZM84.17,215.79c-7.22,0-13.67-2.08-19.17-6.19-5.33-3.96-9.48-8.81-12.32-14.4-2.75-5.37-4.96-11.79-6.6-19.1-1.61-7.18-2.64-13.48-3.08-18.77-.42-5.2-.64-10.08-.64-14.49s.1-7.82.32-10.26c-.01-2.18,1.52-5.04,5.82-5.14,5.34-.78,9.73-2.99,13.43-6.78,3.63-3.73,5.4-8.21,5.4-13.72,0-.84-.17-.89-.65-1.04-9.06-3.54-13.58-13.53-13.58-29.79s4.75-28.74,14.12-39.02h.01c5.67-6.15,12.54-9.26,20.39-9.26s15.12,3.29,21.84,9.76c14.92,14.71,22.17,43.17,22.17,87.07,0,26.69-4.15,48.77-12.34,65.58-.46.94-1.35,1.61-2.38,1.78-1.03.16-2.08-.16-2.82-.9-8.4-8.4-16.56-12.66-24.28-12.66-1.83,0-2.7.26-3.05.41.03.06.05.14.1.21l2.22,1.95c5.68,5.01,10.92,13.02,16.01,24.51.62,1.43.16,3.09-1.12,3.97-6.01,4.16-12.69,6.27-19.85,6.27ZM49.06,133.89c-.16,2.34-.23,5.29-.23,8.96,0,4.24.21,8.93.62,13.96.4,4.99,1.39,11.01,2.94,17.9,1.52,6.78,3.55,12.69,6.05,17.57,2.39,4.7,5.9,8.79,10.43,12.16,4.42,3.29,9.43,4.89,15.31,4.89,5.03,0,9.6-1.21,13.92-3.68-4.29-9.17-8.73-15.8-13.21-19.76l-2.53-2.2c-.16-.15-.32-.32-.45-.49-1.06-1.4-1.59-2.92-1.59-4.46,0-2.02.93-6.71,9.55-6.71s16.94,3.83,25.49,11.38c6.54-15.39,9.86-35.12,9.86-58.73,0-41.49-6.8-69.22-20.23-82.44-5.52-5.33-11.2-7.92-17.33-7.92s-11.18,2.34-15.64,7.17c-8.25,9.03-12.43,20.69-12.43,34.65s3.14,21.3,9.32,23.71c3.06,1.02,4.91,3.63,4.91,7.12,0,7.17-2.44,13.3-7.24,18.23-4.72,4.82-10.56,7.75-17.36,8.68-.05,0-.1.02-.14.02ZM49.13,132.88v.06-.06Z"/>
        <path class="cls-23" d="M132.53,252.12l-10.42-.96c-3.58-.54-6.38-1.83-8.54-3.86-2.22-2.08-3.62-4.88-4.15-8.35l-1.27-5.04c-9.18,3.28-18.61,4.93-28.1,4.93-27.35,0-47.82-9.57-60.83-28.41C6.47,191.94,0,168.29,0,140.14c0-16.17,1.4-31.22,4.17-44.75,2.83-13.83,5.73-23.37,8.86-29.18l4.06-8.12c1.29-2.94,3.8-4.63,7-4.63,2.27,0,4,.21,5.29.63.27.1.53.19.78.27,2.21-9.36,5.7-17.64,10.38-24.61,4.94-7.35,9.98-12.93,15-16.61,5-3.67,10.68-6.54,16.88-8.53,8.08-2.62,15.33-3.95,21.54-3.95,14.67,0,27.54,3.47,38.25,10.31,10.7,6.82,18.91,16.22,24.42,27.9,9.86,21.65,14.85,46.46,14.85,73.77,0,44.46-10.43,78.17-31.02,100.25,8.49,8.76,16.77,13.18,24.63,13.18,5.41,0,7.34,3.14,7.34,6.08,0,4.81-4.28,9.19-13.48,13.79-8.22,4.11-17.12,6.19-26.42,6.19ZM110.4,226.37c.51,0,1.01.12,1.47.36.83.42,1.44,1.18,1.67,2.09l2.21,8.86c.37,2.31,1.08,3.82,2.24,4.91,1.21,1.13,2.82,1.84,4.92,2.16l9.93.93c8-.02,15.92-1.87,23.23-5.53,7.89-3.95,9.51-6.54,9.84-7.57-.19-.03-.46-.06-.8-.06-10.4,0-20.99-5.89-31.49-17.51-1.15-1.27-1.1-3.23.12-4.45,20.77-20.75,31.31-53.72,31.31-97.93,0-26.38-4.8-50.29-14.26-71.06-4.96-10.52-12.38-19-22.04-25.17-9.65-6.17-21.35-9.3-34.77-9.3-5.54,0-12.12,1.23-19.55,3.64-5.55,1.78-10.62,4.35-15.06,7.59-4.41,3.24-8.94,8.29-13.46,15.01-4.5,6.7-7.79,14.79-9.8,24.02-.08.41-.25.78-.47,1.12l-1.26,1.88c-.6.9-1.61,1.44-2.69,1.44s-2-.48-2.77-.93c-.18-.11-.63-.35-1.57-.65-.28-.1-1.15-.32-3.25-.32-.42,0-.75,0-1.15.92l-4.17,8.36c-2.84,5.26-5.6,14.49-8.26,27.49-2.68,13.11-4.04,27.74-4.04,43.46,0,26.82,6.08,49.23,18.08,66.61,11.9,17.25,30.06,25.64,55.51,25.64,9.85,0,19.66-1.95,29.14-5.77.39-.15.8-.24,1.21-.24ZM84.17,215.14c-7.22,0-13.67-2.08-19.17-6.17-5.33-3.97-9.48-8.82-12.32-14.4-2.75-5.36-4.96-11.78-6.6-19.1-1.61-7.17-2.64-13.5-3.08-18.78-.42-5.19-.64-10.07-.64-14.49s.1-7.83.32-10.26c-.01-2.17,1.52-5.03,5.82-5.14,5.34-.78,9.73-2.98,13.43-6.78,3.63-3.72,5.4-8.21,5.4-13.7,0-.84-.17-.89-.65-1.06-9.06-3.52-13.58-13.52-13.58-29.77s4.75-28.76,14.12-39.01t.01-.03c5.67-6.14,12.54-9.25,20.39-9.25s15.12,3.28,21.84,9.76c14.92,14.71,22.17,43.18,22.17,87.05,0,26.71-4.15,48.78-12.34,65.59-.46.95-1.35,1.59-2.38,1.77-1.03.18-2.08-.16-2.82-.9-8.4-8.4-16.56-12.64-24.28-12.64-1.83,0-2.7.25-3.05.4.03.07.05.12.1.2l2.22,1.96c5.68,5,10.92,13.03,16.01,24.52.62,1.42.16,3.08-1.12,3.97-6.01,4.14-12.69,6.25-19.85,6.25ZM49.06,133.23c-.16,2.36-.23,5.29-.23,8.96,0,4.24.21,8.94.62,13.96.4,4.98,1.39,11.01,2.94,17.89,1.52,6.78,3.55,12.69,6.05,17.58,2.39,4.7,5.9,8.79,10.43,12.16,4.42,3.3,9.43,4.89,15.31,4.89,5.03,0,9.6-1.21,13.92-3.68-4.29-9.16-8.73-15.8-13.21-19.75l-2.53-2.2c-.16-.16-.32-.32-.45-.5-1.06-1.4-1.59-2.9-1.59-4.46,0-2.03.93-6.72,9.55-6.72s16.94,3.84,25.49,11.39c6.54-15.4,9.86-35.12,9.86-58.74,0-41.48-6.8-69.2-20.23-82.42-5.52-5.33-11.2-7.93-17.33-7.93s-11.18,2.34-15.64,7.17c-8.25,9.03-12.43,20.69-12.43,34.66s3.14,21.29,9.32,23.7c3.06,1.02,4.91,3.63,4.91,7.13,0,7.17-2.44,13.29-7.24,18.21-4.72,4.84-10.56,7.76-17.36,8.68-.05,0-.1.02-.14.02ZM49.13,132.24v.06-.06Z"/>
        <path class="cls-19" d="M132.53,251.47l-10.42-.96c-3.58-.55-6.38-1.84-8.54-3.86-2.22-2.07-3.62-4.87-4.15-8.34l-1.27-5.03c-9.18,3.27-18.61,4.94-28.1,4.94-27.35,0-47.82-9.58-60.83-28.44C6.47,191.31,0,167.65,0,139.49c0-16.16,1.4-31.21,4.17-44.75,2.83-13.82,5.73-23.37,8.86-29.18l4.06-8.14c1.29-2.92,3.8-4.63,7-4.63,2.27,0,4,.21,5.29.65.27.08.53.18.78.27,2.21-9.38,5.7-17.65,10.38-24.62,4.94-7.35,9.98-12.93,15-16.61,5-3.67,10.68-6.54,16.88-8.53,8.08-2.62,15.33-3.95,21.54-3.95,14.67,0,27.54,3.47,38.25,10.3,10.7,6.84,18.91,16.23,24.42,27.9,9.86,21.67,14.85,46.48,14.85,73.78,0,44.46-10.43,78.17-31.02,100.26,8.49,8.74,16.77,13.18,24.63,13.18,5.41,0,7.34,3.12,7.34,6.07,0,4.81-4.28,9.19-13.48,13.79-8.22,4.11-17.12,6.19-26.42,6.19ZM110.4,225.73c.51,0,1.01.12,1.47.36.83.43,1.44,1.19,1.67,2.1l2.21,8.85c.37,2.33,1.08,3.82,2.24,4.91,1.21,1.13,2.82,1.84,4.92,2.16l9.93.92c8,0,15.92-1.86,23.23-5.51,7.89-3.95,9.51-6.55,9.84-7.59-.19-.03-.46-.05-.8-.05-10.4,0-20.99-5.88-31.49-17.5-1.15-1.28-1.1-3.24.12-4.45,20.77-20.77,31.31-53.72,31.31-97.93,0-26.38-4.8-50.29-14.26-71.07-4.96-10.51-12.38-18.99-22.04-25.17-9.65-6.16-21.35-9.28-34.77-9.28-5.54,0-12.12,1.21-19.55,3.62-5.55,1.79-10.62,4.34-15.06,7.61-4.41,3.23-8.94,8.27-13.46,14.99-4.5,6.7-7.79,14.79-9.8,24.02-.08.39-.25.78-.47,1.1l-1.26,1.89c-.6.9-1.61,1.43-2.69,1.43s-2-.45-2.77-.92c-.18-.11-.63-.34-1.57-.66-.28-.1-1.15-.3-3.25-.3-.42,0-.75,0-1.15.91l-4.17,8.36c-2.84,5.26-5.6,14.49-8.26,27.5-2.68,13.11-4.04,27.74-4.04,43.46,0,26.83,6.08,49.24,18.08,66.62,11.9,17.25,30.06,25.63,55.51,25.63,9.85,0,19.66-1.95,29.14-5.78.39-.15.8-.23,1.21-.23ZM84.17,214.48c-7.22,0-13.67-2.06-19.17-6.16-5.33-3.98-9.48-8.82-12.32-14.4-2.75-5.37-4.96-11.79-6.6-19.11-1.61-7.16-2.64-13.48-3.08-18.76-.42-5.2-.64-10.08-.64-14.5s.1-7.82.32-10.25c-.01-2.18,1.52-5.04,5.82-5.15,5.34-.75,9.73-2.98,13.43-6.77,3.63-3.73,5.4-8.21,5.4-13.72,0-.82-.17-.89-.65-1.04-9.06-3.52-13.58-13.53-13.58-29.77s4.75-28.75,14.12-39.01c0,0,0-.02.01-.03,5.67-6.14,12.54-9.26,20.39-9.26s15.12,3.29,21.84,9.77c14.92,14.71,22.17,43.17,22.17,87.05,0,26.72-4.15,48.78-12.34,65.6-.46.93-1.35,1.59-2.38,1.76-1.03.16-2.08-.17-2.82-.91-8.4-8.39-16.56-12.65-24.28-12.65-1.83,0-2.7.26-3.05.41.03.05.05.12.1.21l2.22,1.94c5.68,5,10.92,13.02,16.01,24.52.62,1.43.16,3.08-1.12,3.97-6.01,4.16-12.69,6.26-19.85,6.26ZM49.06,132.59c-.16,2.35-.23,5.29-.23,8.95,0,4.25.21,8.95.62,13.96.4,5,1.39,11.01,2.94,17.9,1.52,6.78,3.55,12.7,6.05,17.57,2.39,4.7,5.9,8.79,10.43,12.17,4.42,3.29,9.43,4.9,15.31,4.9,5.03,0,9.6-1.21,13.92-3.69-4.29-9.15-8.73-15.8-13.21-19.75l-2.53-2.2c-.16-.14-.32-.31-.45-.49-1.06-1.41-1.59-2.91-1.59-4.48,0-2.01.93-6.71,9.55-6.71s16.94,3.83,25.49,11.39c6.54-15.4,9.86-35.14,9.86-58.74,0-41.48-6.8-69.22-20.23-82.42-5.52-5.33-11.2-7.93-17.33-7.93s-11.18,2.34-15.64,7.17c-8.25,9.03-12.43,20.69-12.43,34.66s3.14,21.3,9.32,23.7c3.06,1.02,4.91,3.64,4.91,7.11,0,7.17-2.44,13.31-7.24,18.23-4.72,4.83-10.56,7.74-17.36,8.68-.05.01-.1.01-.14.02ZM49.13,131.59v.06-.06Z"/>
      </g>
      <path class="cls-29" d="M31.68,57.93l1.26-1.9c2.1-9.69,5.53-18.07,10.28-25.13,4.74-7.06,9.49-12.33,14.23-15.8,4.74-3.48,10.06-6.16,15.96-8.06,7.8-2.54,14.65-3.8,20.55-3.8,14.12,0,26.29,3.27,36.52,9.8,10.22,6.54,17.97,15.38,23.24,26.57,9.69,21.28,14.54,45.41,14.54,72.39,0,45.32-10.75,78.73-32.25,100.22,9.9,10.96,19.6,16.45,29.09,16.45,2.73,0,4.11.94,4.11,2.84,0,3.36-3.9,7-11.7,10.9-7.8,3.9-16.13,5.85-24.98,5.85l-10.12-.95c-2.74-.43-4.95-1.41-6.64-3.01-1.69-1.58-2.74-3.74-3.16-6.47l-2.22-8.85c-9.91,4-20.02,6-30.34,6-26.36,0-45.74-9.01-58.18-27.02-12.44-18.03-18.65-40.85-18.65-68.46,0-16,1.37-30.71,4.11-44.1,2.74-13.38,5.58-22.82,8.53-28.28l4.11-8.22c.84-1.91,2.21-2.85,4.11-2.85s3.32.16,4.27.47c.95.33,1.69.63,2.22.95.52.32.89.48,1.11.48ZM69.62,38.01c-8.86,9.69-13.28,21.97-13.28,36.84s3.79,23.75,11.38,26.71c1.89.64,2.84,2,2.84,4.11,0,6.33-2.11,11.66-6.32,15.98-4.22,4.32-9.38,6.91-15.49,7.74-1.89,0-2.84.74-2.84,2.21-.21,2.33-.32,5.65-.32,9.95s.21,9.07.63,14.23c.42,5.18,1.43,11.28,3.01,18.34,1.58,7.06,3.68,13.17,6.32,18.34,2.63,5.18,6.43,9.6,11.38,13.29,4.96,3.68,10.7,5.51,17.24,5.51s12.54-1.89,18.01-5.68c-4.85-10.96-9.91-18.76-15.17-23.4l-2.53-2.21c-.63-.84-.94-1.68-.94-2.53,0-2.31,2.1-3.47,6.32-3.47,8.64,0,17.5,4.52,26.56,13.59,8-16.44,12.01-37.83,12.01-64.18,0-42.58-7.06-70.82-21.19-84.72-6.12-5.91-12.65-8.86-19.6-8.86s-12.96,2.75-18.02,8.22Z"/>
      <g>
        <path class="cls-28" d="M132.53,255.67l-10.26-.95c-3.16-.49-5.68-1.65-7.59-3.44-1.95-1.82-3.18-4.3-3.66-7.41l-1.73-6.93c-9.53,3.61-19.35,5.44-29.23,5.44-26.79,0-46.81-9.32-59.5-27.72C7.99,196.47,1.61,173.12,1.61,145.3c0-16.05,1.39-31,4.14-44.42,2.8-13.68,5.64-23.07,8.7-28.74l4.09-8.18c1.06-2.42,2.99-3.73,5.55-3.73,2.09,0,3.66.19,4.78.56.9.29,1.63.6,2.23.93l.34-.52c2.14-9.72,5.66-18.26,10.45-25.39,4.83-7.19,9.74-12.65,14.61-16.22,4.85-3.57,10.39-6.34,16.42-8.29,7.92-2.57,15-3.87,21.05-3.87,14.36,0,26.94,3.39,37.39,10.05,10.43,6.67,18.45,15.83,23.82,27.23,9.75,21.43,14.7,46.01,14.7,73.09,0,44.78-10.64,78.5-31.63,100.26,9.19,9.81,18.21,14.78,26.86,14.78,5.16,0,5.73,3.13,5.73,4.46,0,4.06-4.12,8.11-12.6,12.36-7.99,3.99-16.63,6.01-25.7,6.01ZM110.4,233.17c.25,0,.51.05.73.16.42.21.72.59.83,1.04l2.22,8.87c.39,2.5,1.29,4.37,2.7,5.68,1.43,1.35,3.37,2.22,5.77,2.59l10.02.93c8.4,0,16.56-1.91,24.1-5.68,9.41-4.7,10.81-7.96,10.81-9.47,0-.43,0-1.23-2.49-1.23-9.92,0-20.11-5.71-30.29-16.96-.58-.65-.55-1.62.06-2.23,21.08-21.09,31.77-54.42,31.77-99.08,0-26.62-4.85-50.75-14.4-71.73-5.1-10.81-12.71-19.52-22.63-25.87-9.91-6.33-21.91-9.53-35.64-9.53-5.71,0-12.46,1.24-20.05,3.71-5.71,1.83-10.93,4.48-15.51,7.83-4.57,3.34-9.22,8.53-13.84,15.41-4.61,6.86-7.99,15.13-10.04,24.58-.04.19-.12.38-.23.55l-1.26,1.9c-.6.91-1.65,1-3.28.02-.3-.17-.87-.47-1.9-.81-.54-.17-1.62-.38-3.76-.38-1.26,0-2.05.56-2.63,1.88l-4.14,8.29c-2.89,5.36-5.71,14.73-8.4,27.9-2.71,13.21-4.07,27.95-4.07,43.78,0,27.15,6.18,49.88,18.36,67.53,12.06,17.47,31.18,26.34,56.84,26.34,10.06,0,20.07-1.99,29.74-5.9.2-.08.4-.1.6-.1ZM84.17,218.69c-6.87,0-12.99-1.96-18.2-5.85-5.14-3.82-9.12-8.47-11.86-13.84-2.68-5.25-4.85-11.55-6.46-18.72-1.59-7.11-2.61-13.35-3.03-18.56-.43-5.16-.64-9.98-.64-14.35s.1-7.72.32-10.11c0-.75.32-3.68,4.45-3.68,5.5-.77,10.39-3.21,14.34-7.26,3.95-4.04,5.86-8.88,5.86-14.83,0-1.42-.5-2.17-1.74-2.58-8.31-3.24-12.48-12.71-12.48-28.24s4.61-27.95,13.7-37.93c0,0,0,0,0,0,5.35-5.79,11.82-8.74,19.21-8.74s14.32,3.14,20.72,9.32c14.39,14.17,21.68,43.07,21.68,85.88,0,26.47-4.1,48.3-12.18,64.89-.23.47-.67.8-1.18.89-.54.09-1.04-.09-1.41-.45-8.71-8.71-17.26-13.13-25.41-13.13-3.12,0-4.7.63-4.7,1.87,0,.45.18.92.53,1.43l2.39,2.09c5.42,4.79,10.67,12.83,15.59,23.97.32.7.08,1.54-.56,1.97-5.73,3.96-12.1,5.98-18.93,5.98ZM70.81,44.91c-8.53,9.34-12.85,21.38-12.85,35.74s3.48,22.54,10.35,25.21c2.47.82,3.87,2.83,3.87,5.62,0,6.73-2.28,12.48-6.78,17.09-4.46,4.56-9.99,7.33-16.43,8.21-1.45.01-1.45.3-1.45.62-.21,2.4-.32,5.7-.32,9.96s.21,9.02.62,14.09c.42,5.06,1.42,11.16,2.97,18.12,1.55,6.92,3.63,12.96,6.19,17.96,2.51,4.92,6.17,9.2,10.91,12.71,4.64,3.47,10.11,5.21,16.27,5.21,5.73,0,11.09-1.56,15.98-4.66-4.57-10.05-9.34-17.31-14.21-21.59l-2.52-2.21c-.09-.08-.16-.16-.23-.25-.84-1.12-1.27-2.3-1.27-3.49,0-2.33,1.38-5.09,7.94-5.09,8.51,0,17.27,4.19,26.06,12.47,7.23-15.89,10.9-36.54,10.9-61.44,0-41.92-6.96-70.04-20.7-83.58-5.77-5.56-11.99-8.39-18.47-8.39s-12.05,2.52-16.83,7.7Z"/>
        <path class="cls-9" d="M132.53,255.02l-10.26-.95c-3.16-.48-5.68-1.63-7.59-3.43-1.95-1.81-3.18-4.31-3.66-7.41l-1.73-6.93c-9.53,3.61-19.35,5.45-29.23,5.45-26.79,0-46.81-9.32-59.5-27.74C7.99,195.82,1.61,172.48,1.61,144.65c0-16.04,1.39-30.99,4.14-44.42,2.8-13.68,5.64-23.07,8.7-28.74l4.09-8.18c1.06-2.42,2.99-3.73,5.55-3.73,2.09,0,3.66.18,4.78.56.9.31,1.63.6,2.23.93l.34-.51c2.14-9.72,5.66-18.25,10.45-25.39,4.83-7.19,9.74-12.64,14.61-16.2,4.85-3.58,10.39-6.36,16.42-8.31,7.92-2.56,15-3.87,21.05-3.87,14.36,0,26.94,3.39,37.39,10.05,10.43,6.67,18.45,15.83,23.82,27.23,9.75,21.43,14.7,46.01,14.7,73.09,0,44.78-10.64,78.5-31.63,100.25,9.19,9.82,18.21,14.79,26.86,14.79,5.16,0,5.73,3.12,5.73,4.46,0,4.06-4.12,8.11-12.6,12.34-7.99,4-16.63,6.02-25.7,6.02ZM110.4,232.51c.25,0,.51.07.73.17.42.22.72.6.83,1.06l2.22,8.85c.39,2.5,1.29,4.37,2.7,5.7,1.43,1.34,3.37,2.22,5.77,2.58l10.02.93c8.4,0,16.56-1.92,24.1-5.68,9.41-4.7,10.81-7.94,10.81-9.46,0-.43,0-1.24-2.49-1.24-9.92,0-20.11-5.71-30.29-16.97-.58-.64-.55-1.62.06-2.22,21.08-21.08,31.77-54.41,31.77-99.07,0-26.6-4.85-50.74-14.4-71.73-5.1-10.83-12.71-19.54-22.63-25.88-9.91-6.33-21.91-9.54-35.64-9.54-5.71,0-12.46,1.25-20.05,3.71-5.71,1.84-10.93,4.47-15.51,7.83-4.57,3.35-9.22,8.53-13.84,15.41-4.61,6.87-7.99,15.13-10.04,24.58-.04.19-.12.38-.23.55l-1.26,1.9c-.6.9-1.65,1-3.28,0-.3-.16-.87-.47-1.9-.8-.54-.18-1.62-.39-3.76-.39-1.26,0-2.05.56-2.63,1.89l-4.14,8.29c-2.89,5.36-5.71,14.72-8.4,27.89-2.71,13.22-4.07,27.94-4.07,43.77,0,27.17,6.18,49.88,18.36,67.53,12.06,17.47,31.18,26.34,56.84,26.34,10.06,0,20.07-1.98,29.74-5.89.2-.08.4-.12.6-.12ZM84.17,218.03c-6.87,0-12.99-1.96-18.2-5.85-5.14-3.81-9.12-8.46-11.86-13.84-2.68-5.24-4.85-11.54-6.46-18.71-1.59-7.11-2.61-13.36-3.03-18.56-.43-5.16-.64-10-.64-14.36s.1-7.72.32-10.09c0-.77.32-3.69,4.45-3.69,5.5-.77,10.39-3.23,14.34-7.26,3.95-4.04,5.86-8.89,5.86-14.84,0-1.43-.5-2.17-1.74-2.58-8.31-3.23-12.48-12.73-12.48-28.24s4.61-27.97,13.7-37.92h0c5.35-5.81,11.82-8.75,19.21-8.75s14.32,3.13,20.72,9.31c14.39,14.18,21.68,43.06,21.68,85.89,0,26.47-4.1,48.3-12.18,64.88-.23.47-.67.8-1.18.88-.54.1-1.04-.08-1.41-.45-8.71-8.71-17.26-13.12-25.41-13.12-3.12,0-4.7.62-4.7,1.87,0,.44.18.92.53,1.43l2.39,2.09c5.42,4.77,10.67,12.84,15.59,23.97.32.7.08,1.53-.56,1.97-5.73,3.98-12.1,5.97-18.93,5.97ZM70.81,44.27c-8.53,9.34-12.85,21.36-12.85,35.74s3.48,22.53,10.35,25.2c2.47.83,3.87,2.83,3.87,5.62,0,6.73-2.28,12.48-6.78,17.09-4.46,4.57-9.99,7.34-16.43,8.22-1.45.02-1.45.29-1.45.61-.21,2.4-.32,5.7-.32,9.96s.21,9.03.62,14.09c.42,5.06,1.42,11.16,2.97,18.12,1.55,6.91,3.63,12.95,6.19,17.96,2.51,4.92,6.17,9.2,10.91,12.72,4.64,3.45,10.11,5.21,16.27,5.21,5.73,0,11.09-1.57,15.98-4.67-4.57-10.04-9.34-17.31-14.21-21.6l-2.52-2.21c-.09-.07-.16-.16-.23-.23-.84-1.13-1.27-2.29-1.27-3.5,0-2.33,1.38-5.1,7.94-5.1,8.51,0,17.27,4.2,26.06,12.47,7.23-15.89,10.9-36.54,10.9-61.44,0-41.93-6.96-70.05-20.7-83.58-5.77-5.57-11.99-8.4-18.47-8.4s-12.05,2.51-16.83,7.7Z"/>
        <path class="cls-10" d="M132.53,254.38l-10.26-.95c-3.16-.49-5.68-1.63-7.59-3.44-1.95-1.82-3.18-4.31-3.66-7.4l-1.73-6.93c-9.53,3.62-19.35,5.45-29.23,5.45-26.79,0-46.81-9.34-59.5-27.74C7.99,195.17,1.61,171.84,1.61,144.02c0-16.06,1.39-31,4.14-44.44,2.8-13.67,5.64-23.05,8.7-28.73l4.09-8.17c1.06-2.43,2.99-3.73,5.55-3.73,2.09,0,3.66.17,4.78.54.9.3,1.63.61,2.23.93l.34-.51c2.14-9.72,5.66-18.26,10.45-25.39,4.83-7.19,9.74-12.64,14.61-16.21,4.85-3.56,10.39-6.36,16.42-8.29,7.92-2.57,15-3.87,21.05-3.87,14.36,0,26.94,3.38,37.39,10.05,10.43,6.67,18.45,15.83,23.82,27.23,9.75,21.43,14.7,46.02,14.7,73.09,0,44.79-10.64,78.51-31.63,100.26,9.19,9.82,18.21,14.79,26.86,14.79,5.16,0,5.73,3.12,5.73,4.46,0,4.07-4.12,8.11-12.6,12.35-7.99,4-16.63,6.02-25.7,6.02ZM110.4,231.87c.25,0,.51.06.73.17.42.21.72.59.83,1.04l2.22,8.86c.39,2.51,1.29,4.37,2.7,5.69,1.43,1.34,3.37,2.21,5.77,2.58l10.02.93c8.4,0,16.56-1.91,24.1-5.68,9.41-4.7,10.81-7.94,10.81-9.46,0-.43,0-1.24-2.49-1.24-9.92,0-20.11-5.7-30.29-16.96-.58-.64-.55-1.61.06-2.22,21.08-21.09,31.77-54.43,31.77-99.09,0-26.61-4.85-50.74-14.4-71.73-5.1-10.8-12.71-19.52-22.63-25.86-9.91-6.33-21.91-9.54-35.64-9.54-5.71,0-12.46,1.24-20.05,3.71-5.71,1.83-10.93,4.48-15.51,7.83-4.57,3.34-9.22,8.53-13.84,15.41-4.61,6.87-7.99,15.14-10.04,24.58-.04.19-.12.38-.23.55l-1.26,1.89c-.6.91-1.65,1-3.28.03-.3-.19-.87-.47-1.9-.81-.54-.18-1.62-.39-3.76-.39-1.26,0-2.05.57-2.63,1.89l-4.14,8.29c-2.89,5.36-5.71,14.73-8.4,27.89-2.71,13.21-4.07,27.96-4.07,43.79,0,27.16,6.18,49.88,18.36,67.53,12.06,17.47,31.18,26.34,56.84,26.34,10.06,0,20.07-1.99,29.74-5.89.2-.08.4-.12.6-.12ZM84.17,217.39c-6.87,0-12.99-1.97-18.2-5.85-5.14-3.82-9.12-8.47-11.86-13.84-2.68-5.25-4.85-11.55-6.46-18.71-1.59-7.11-2.61-13.35-3.03-18.56-.43-5.15-.64-9.99-.64-14.35s.1-7.74.32-10.12c0-.74.32-3.67,4.45-3.67,5.5-.78,10.39-3.23,14.34-7.27,3.95-4.04,5.86-8.9,5.86-14.84,0-1.41-.5-2.17-1.74-2.58-8.31-3.23-12.48-12.72-12.48-28.24s4.61-27.97,13.7-37.92h0c5.35-5.81,11.82-8.75,19.21-8.75s14.32,3.14,20.72,9.31c14.39,14.17,21.68,43.07,21.68,85.88,0,26.47-4.1,48.3-12.18,64.89-.23.47-.67.8-1.18.89-.54.1-1.04-.09-1.41-.46-8.71-8.71-17.26-13.12-25.41-13.12-3.12,0-4.7.63-4.7,1.86,0,.46.18.93.53,1.44l2.39,2.1c5.42,4.77,10.67,12.82,15.59,23.95.32.71.08,1.54-.56,1.99-5.73,3.95-12.1,5.97-18.93,5.97ZM70.81,43.62c-8.53,9.35-12.85,21.37-12.85,35.74s3.48,22.55,10.35,25.21c2.47.82,3.87,2.82,3.87,5.62,0,6.74-2.28,12.47-6.78,17.09-4.46,4.56-9.99,7.33-16.43,8.21-1.45.01-1.45.3-1.45.63-.21,2.39-.32,5.68-.32,9.95s.21,9.02.62,14.07c.42,5.07,1.42,11.16,2.97,18.12,1.55,6.91,3.63,12.95,6.19,17.95,2.51,4.92,6.17,9.21,10.91,12.72,4.64,3.47,10.11,5.22,16.27,5.22,5.73,0,11.09-1.58,15.98-4.66-4.57-10.05-9.34-17.31-14.21-21.59l-2.52-2.21c-.09-.08-.16-.16-.23-.25-.84-1.13-1.27-2.31-1.27-3.51,0-2.31,1.38-5.09,7.94-5.09,8.51,0,17.27,4.19,26.06,12.48,7.23-15.9,10.9-36.55,10.9-61.46,0-41.93-6.96-70.05-20.7-83.56-5.77-5.58-11.99-8.4-18.47-8.4s-12.05,2.53-16.83,7.7Z"/>
        <path class="cls-14" d="M132.53,253.74l-10.26-.96c-3.16-.48-5.68-1.63-7.59-3.43-1.95-1.82-3.18-4.31-3.66-7.4l-1.73-6.93c-9.53,3.61-19.35,5.45-29.23,5.45-26.79,0-46.81-9.33-59.5-27.74C7.99,194.53,1.61,171.18,1.61,143.36c0-16.04,1.39-31,4.14-44.42,2.8-13.67,5.64-23.07,8.7-28.74l4.09-8.18c1.06-2.42,2.99-3.73,5.55-3.73,2.09,0,3.66.19,4.78.56.9.3,1.63.6,2.23.91l.34-.5c2.14-9.71,5.66-18.25,10.45-25.39,4.83-7.2,9.74-12.65,14.61-16.2,4.85-3.58,10.39-6.37,16.42-8.31,7.92-2.57,15-3.89,21.05-3.89,14.36,0,26.94,3.4,37.39,10.08,10.43,6.66,18.45,15.83,23.82,27.21,9.75,21.43,14.7,46.02,14.7,73.1,0,44.77-10.64,78.49-31.63,100.25,9.19,9.82,18.21,14.79,26.86,14.79,5.16,0,5.73,3.12,5.73,4.46,0,4.06-4.12,8.11-12.6,12.34-7.99,4-16.63,6.03-25.7,6.03ZM110.4,231.22c.25,0,.51.06.73.18.42.22.72.59.83,1.06l2.22,8.84c.39,2.51,1.29,4.38,2.7,5.69,1.43,1.35,3.37,2.22,5.77,2.59l10.02.93c8.4,0,16.56-1.91,24.1-5.68,9.41-4.71,10.81-7.94,10.81-9.46,0-.43,0-1.24-2.49-1.24-9.92,0-20.11-5.71-30.29-16.97-.58-.63-.55-1.61.06-2.22,21.08-21.08,31.77-54.41,31.77-99.06,0-26.62-4.85-50.75-14.4-71.74-5.1-10.82-12.71-19.52-22.63-25.86-9.91-6.34-21.91-9.55-35.64-9.55-5.71,0-12.46,1.25-20.05,3.72-5.71,1.83-10.93,4.46-15.51,7.83-4.57,3.34-9.22,8.53-13.84,15.41-4.61,6.86-7.99,15.13-10.04,24.58-.04.2-.12.38-.23.56l-1.26,1.88c-.6.9-1.65,1-3.28.01-.3-.17-.87-.46-1.9-.8-.54-.19-1.62-.38-3.76-.38-1.26,0-2.05.56-2.63,1.87l-4.14,8.29c-2.89,5.37-5.71,14.73-8.4,27.89-2.71,13.22-4.07,27.95-4.07,43.78,0,27.16,6.18,49.88,18.36,67.54,12.06,17.47,31.18,26.33,56.84,26.33,10.06,0,20.07-1.97,29.74-5.9.2-.08.4-.11.6-.11ZM84.17,216.75c-6.87,0-12.99-1.96-18.2-5.85-5.14-3.82-9.12-8.48-11.86-13.85-2.68-5.24-4.85-11.53-6.46-18.71-1.59-7.11-2.61-13.35-3.03-18.56-.43-5.14-.64-9.98-.64-14.35s.1-7.72.32-10.1c0-.76.32-3.69,4.45-3.69,5.5-.77,10.39-3.22,14.34-7.26,3.95-4.05,5.86-8.89,5.86-14.84,0-1.41-.5-2.16-1.74-2.57-8.31-3.23-12.48-12.73-12.48-28.25s4.61-27.96,13.7-37.92h0c5.35-5.8,11.82-8.74,19.21-8.74s14.32,3.13,20.72,9.3c14.39,14.18,21.68,43.07,21.68,85.9,0,26.44-4.1,48.29-12.18,64.87-.23.47-.67.8-1.18.89-.54.09-1.04-.09-1.41-.45-8.71-8.7-17.26-13.13-25.41-13.13-3.12,0-4.7.62-4.7,1.87,0,.44.18.92.53,1.43l2.39,2.09c5.42,4.77,10.67,12.83,15.59,23.95.32.71.08,1.55-.56,1.99-5.73,3.96-12.1,5.97-18.93,5.97ZM70.81,42.97c-8.53,9.34-12.85,21.37-12.85,35.74s3.48,22.54,10.35,25.2c2.47.83,3.87,2.84,3.87,5.62,0,6.73-2.28,12.49-6.78,17.1-4.46,4.57-9.99,7.33-16.43,8.22-1.45,0-1.45.28-1.45.61-.21,2.4-.32,5.7-.32,9.95s.21,9.03.62,14.09c.42,5.06,1.42,11.17,2.97,18.12,1.55,6.92,3.63,12.95,6.19,17.96,2.51,4.92,6.17,9.19,10.91,12.73,4.64,3.45,10.11,5.2,16.27,5.2,5.73,0,11.09-1.57,15.98-4.67-4.57-10.05-9.34-17.3-14.21-21.6l-2.52-2.21c-.09-.07-.16-.14-.23-.24-.84-1.12-1.27-2.29-1.27-3.49,0-2.32,1.38-5.09,7.94-5.09,8.51,0,17.27,4.2,26.06,12.47,7.23-15.88,10.9-36.54,10.9-61.43,0-41.93-6.96-70.05-20.7-83.58-5.77-5.57-11.99-8.4-18.47-8.4s-12.05,2.51-16.83,7.69Z"/>
        <path class="cls-11" d="M132.53,253.09l-10.26-.95c-3.16-.48-5.68-1.63-7.59-3.43-1.95-1.81-3.18-4.31-3.66-7.4l-1.73-6.93c-9.53,3.61-19.35,5.44-29.23,5.44-26.79,0-46.81-9.32-59.5-27.73C7.99,193.89,1.61,170.55,1.61,142.72c0-16.05,1.39-31,4.14-44.42,2.8-13.68,5.64-23.08,8.7-28.74l4.09-8.18c1.06-2.42,2.99-3.73,5.55-3.73,2.09,0,3.66.18,4.78.56.9.29,1.63.59,2.23.92l.34-.51c2.14-9.72,5.66-18.26,10.45-25.39,4.83-7.19,9.74-12.65,14.61-16.22,4.85-3.56,10.39-6.34,16.42-8.29,7.92-2.57,15-3.89,21.05-3.89,14.36,0,26.94,3.39,37.39,10.06,10.43,6.67,18.45,15.83,23.82,27.23,9.75,21.43,14.7,46.01,14.7,73.09,0,44.78-10.64,78.51-31.63,100.27,9.19,9.8,18.21,14.78,26.86,14.78,5.16,0,5.73,3.12,5.73,4.46,0,4.06-4.12,8.1-12.6,12.36-7.99,3.99-16.63,6.01-25.7,6.01ZM110.4,230.59c.25,0,.51.04.73.16.42.21.72.59.83,1.04l2.22,8.85c.39,2.52,1.29,4.38,2.7,5.7,1.43,1.35,3.37,2.22,5.77,2.59l10.02.93c8.4,0,16.56-1.92,24.1-5.68,9.41-4.7,10.81-7.95,10.81-9.46,0-.43,0-1.23-2.49-1.23-9.92,0-20.11-5.72-30.29-16.96-.58-.65-.55-1.63.06-2.23,21.08-21.09,31.77-54.42,31.77-99.09,0-26.61-4.85-50.73-14.4-71.73-5.1-10.82-12.71-19.52-22.63-25.87-9.91-6.33-21.91-9.54-35.64-9.54-5.71,0-12.46,1.25-20.05,3.72-5.71,1.83-10.93,4.46-15.51,7.83-4.57,3.34-9.22,8.53-13.84,15.41-4.61,6.87-7.99,15.13-10.04,24.58-.04.19-.12.37-.23.55l-1.26,1.89c-.6.91-1.65,1-3.28.01-.3-.18-.87-.46-1.9-.8-.54-.19-1.62-.39-3.76-.39-1.26,0-2.05.56-2.63,1.89l-4.14,8.29c-2.89,5.36-5.71,14.72-8.4,27.9-2.71,13.21-4.07,27.95-4.07,43.78,0,27.16,6.18,49.87,18.36,67.53,12.06,17.47,31.18,26.34,56.84,26.34,10.06,0,20.07-1.98,29.74-5.9.2-.08.4-.1.6-.1ZM84.17,216.1c-6.87,0-12.99-1.96-18.2-5.85-5.14-3.83-9.12-8.47-11.86-13.85-2.68-5.24-4.85-11.54-6.46-18.71-1.59-7.11-2.61-13.35-3.03-18.56-.43-5.16-.64-9.98-.64-14.36s.1-7.72.32-10.11c0-.75.32-3.67,4.45-3.67,5.5-.78,10.39-3.23,14.34-7.26,3.95-4.05,5.86-8.9,5.86-14.84,0-1.43-.5-2.16-1.74-2.58-8.31-3.23-12.48-12.73-12.48-28.24s4.61-27.97,13.7-37.92h0c5.35-5.8,11.82-8.75,19.21-8.75s14.32,3.14,20.72,9.32c14.39,14.17,21.68,43.07,21.68,85.88,0,26.47-4.1,48.3-12.18,64.89-.23.47-.67.8-1.18.88-.54.1-1.04-.07-1.41-.44-8.71-8.71-17.26-13.13-25.41-13.13-3.12,0-4.7.62-4.7,1.85,0,.46.18.95.53,1.44l2.39,2.09c5.42,4.79,10.67,12.84,15.59,23.97.32.71.08,1.53-.56,1.98-5.73,3.97-12.1,5.97-18.93,5.97ZM70.81,42.33c-8.53,9.34-12.85,21.36-12.85,35.74s3.48,22.53,10.35,25.21c2.47.82,3.87,2.83,3.87,5.62,0,6.73-2.28,12.48-6.78,17.09-4.46,4.57-9.99,7.33-16.43,8.21-1.45.01-1.45.3-1.45.62-.21,2.4-.32,5.7-.32,9.95s.21,9.03.62,14.09c.42,5.07,1.42,11.16,2.97,18.12,1.55,6.91,3.63,12.95,6.19,17.96,2.51,4.92,6.17,9.2,10.91,12.71,4.64,3.46,10.11,5.2,16.27,5.2,5.73,0,11.09-1.56,15.98-4.67-4.57-10.04-9.34-17.3-14.21-21.58l-2.52-2.21c-.09-.07-.16-.15-.23-.24-.84-1.12-1.27-2.31-1.27-3.51,0-2.31,1.38-5.09,7.94-5.09,8.51,0,17.27,4.19,26.06,12.48,7.23-15.89,10.9-36.55,10.9-61.45,0-41.92-6.96-70.04-20.7-83.58-5.77-5.56-11.99-8.39-18.47-8.39s-12.05,2.52-16.83,7.7Z"/>
        <path class="cls-12" d="M132.53,252.44l-10.26-.95c-3.16-.48-5.68-1.63-7.59-3.43-1.95-1.83-3.18-4.31-3.66-7.41l-1.73-6.93c-9.53,3.62-19.35,5.46-29.23,5.46-26.79,0-46.81-9.34-59.5-27.74C7.99,193.24,1.61,169.9,1.61,142.08c0-16.06,1.39-31,4.14-44.44,2.8-13.65,5.64-23.06,8.7-28.73l4.09-8.18c1.06-2.42,2.99-3.73,5.55-3.73,2.09,0,3.66.19,4.78.55.9.32,1.63.6,2.23.93l.34-.51c2.14-9.71,5.66-18.24,10.45-25.39,4.83-7.19,9.74-12.64,14.61-16.2,4.85-3.56,10.39-6.36,16.42-8.31,7.92-2.57,15-3.86,21.05-3.86,14.36,0,26.94,3.39,37.39,10.05,10.43,6.67,18.45,15.83,23.82,27.23,9.75,21.42,14.7,46.02,14.7,73.09,0,44.78-10.64,78.5-31.63,100.25,9.19,9.82,18.21,14.78,26.86,14.78,5.16,0,5.73,3.12,5.73,4.47,0,4.06-4.12,8.1-12.6,12.34-7.99,4-16.63,6.02-25.7,6.02ZM110.4,229.93c.25,0,.51.07.73.17.42.22.72.61.83,1.06l2.22,8.85c.39,2.51,1.29,4.37,2.7,5.68,1.43,1.36,3.37,2.22,5.77,2.6l10.02.94c8.4-.02,16.56-1.92,24.1-5.69,9.41-4.71,10.81-7.94,10.81-9.46,0-.43,0-1.24-2.49-1.24-9.92,0-20.11-5.71-30.29-16.97-.58-.65-.55-1.61.06-2.22,21.08-21.08,31.77-54.41,31.77-99.07,0-26.62-4.85-50.74-14.4-71.73-5.1-10.82-12.71-19.53-22.63-25.88-9.91-6.32-21.91-9.54-35.64-9.54-5.71,0-12.46,1.25-20.05,3.71-5.71,1.84-10.93,4.47-15.51,7.82-4.57,3.36-9.22,8.54-13.84,15.41-4.61,6.86-7.99,15.14-10.04,24.58-.04.19-.12.38-.23.55l-1.26,1.9c-.6.91-1.65,1-3.28,0-.3-.16-.87-.46-1.9-.79-.54-.18-1.62-.39-3.76-.39-1.26,0-2.05.56-2.63,1.87l-4.14,8.29c-2.89,5.36-5.71,14.73-8.4,27.9-2.71,13.22-4.07,27.94-4.07,43.78,0,27.15,6.18,49.88,18.36,67.53,12.06,17.47,31.18,26.34,56.84,26.34,10.06,0,20.07-1.99,29.74-5.9.2-.08.4-.12.6-.12ZM84.17,215.45c-6.87,0-12.99-1.96-18.2-5.85-5.14-3.82-9.12-8.48-11.86-13.84-2.68-5.24-4.85-11.54-6.46-18.71-1.59-7.11-2.61-13.36-3.03-18.56-.43-5.16-.64-10-.64-14.36s.1-7.73.32-10.09c0-.77.32-3.69,4.45-3.69,5.5-.78,10.39-3.21,14.34-7.26,3.95-4.04,5.86-8.9,5.86-14.83,0-1.42-.5-2.17-1.74-2.6-8.31-3.21-12.48-12.71-12.48-28.23s4.61-27.97,13.7-37.92c0,0,0-.01,0-.01,5.35-5.79,11.82-8.73,19.21-8.73s14.32,3.13,20.72,9.3c14.39,14.18,21.68,43.07,21.68,85.9,0,26.47-4.1,48.29-12.18,64.89-.23.47-.67.8-1.18.88-.54.09-1.04-.08-1.41-.45-8.71-8.71-17.26-13.11-25.41-13.11-3.12,0-4.7.62-4.7,1.86,0,.45.18.93.53,1.43l2.39,2.1c5.42,4.76,10.67,12.82,15.59,23.96.32.69.08,1.53-.56,1.97-5.73,3.97-12.1,5.97-18.93,5.97ZM70.81,41.69c-8.53,9.34-12.85,21.36-12.85,35.74s3.48,22.53,10.35,25.2c2.47.83,3.87,2.83,3.87,5.62,0,6.72-2.28,12.48-6.78,17.09-4.46,4.57-9.99,7.34-16.43,8.21-1.45.02-1.45.3-1.45.62-.21,2.4-.32,5.7-.32,9.96s.21,9.02.62,14.1c.42,5.05,1.42,11.15,2.97,18.11,1.55,6.91,3.63,12.95,6.19,17.96,2.51,4.92,6.17,9.2,10.91,12.71,4.64,3.45,10.11,5.22,16.27,5.22,5.73,0,11.09-1.57,15.98-4.67-4.57-10.04-9.34-17.31-14.21-21.6l-2.52-2.21c-.09-.07-.16-.17-.23-.25-.84-1.12-1.27-2.29-1.27-3.49,0-2.33,1.38-5.09,7.94-5.09,8.51,0,17.27,4.19,26.06,12.47,7.23-15.89,10.9-36.54,10.9-61.44,0-41.93-6.96-70.05-20.7-83.58-5.77-5.57-11.99-8.4-18.47-8.4s-12.05,2.53-16.83,7.71Z"/>
        <path class="cls-13" d="M132.53,251.8l-10.26-.95c-3.16-.49-5.68-1.64-7.59-3.44-1.95-1.82-3.18-4.31-3.66-7.41l-1.73-6.92c-9.53,3.61-19.35,5.45-29.23,5.45-26.79,0-46.81-9.33-59.5-27.74C7.99,192.59,1.61,169.26,1.61,141.42c0-16.05,1.39-30.99,4.14-44.42,2.8-13.67,5.64-23.06,8.7-28.74l4.09-8.16c1.06-2.43,2.99-3.73,5.55-3.73,2.09,0,3.66.16,4.78.54.9.3,1.63.61,2.23.93l.34-.51c2.14-9.72,5.66-18.26,10.45-25.4,4.83-7.19,9.74-12.63,14.61-16.21,4.85-3.55,10.39-6.34,16.42-8.29,7.92-2.57,15-3.88,21.05-3.88,14.36,0,26.94,3.38,37.39,10.05,10.43,6.68,18.45,15.84,23.82,27.23,9.75,21.43,14.7,46.01,14.7,73.09,0,44.78-10.64,78.5-31.63,100.26,9.19,9.82,18.21,14.79,26.86,14.79,5.16,0,5.73,3.12,5.73,4.46,0,4.07-4.12,8.1-12.6,12.35-7.99,3.99-16.63,6.02-25.7,6.02ZM110.4,229.27c.25,0,.51.07.73.19.42.21.72.59.83,1.04l2.22,8.86c.39,2.51,1.29,4.37,2.7,5.7,1.43,1.34,3.37,2.21,5.77,2.58l10.02.93c8.4,0,16.56-1.92,24.1-5.69,9.41-4.7,10.81-7.94,10.81-9.45,0-.43,0-1.24-2.49-1.24-9.92,0-20.11-5.71-30.29-16.97-.58-.63-.55-1.61.06-2.21,21.08-21.09,31.77-54.43,31.77-99.09,0-26.61-4.85-50.75-14.4-71.73-5.1-10.81-12.71-19.52-22.63-25.86-9.91-6.33-21.91-9.54-35.64-9.54-5.71,0-12.46,1.25-20.05,3.71-5.71,1.84-10.93,4.48-15.51,7.83-4.57,3.36-9.22,8.53-13.84,15.41-4.61,6.87-7.99,15.14-10.04,24.58-.04.2-.12.39-.23.56l-1.26,1.89c-.6.89-1.65,1-3.28.01-.3-.18-.87-.45-1.9-.81-.54-.17-1.62-.38-3.76-.38-1.26,0-2.05.56-2.63,1.88l-4.14,8.29c-2.89,5.35-5.71,14.73-8.4,27.9-2.71,13.21-4.07,27.94-4.07,43.77,0,27.16,6.18,49.88,18.36,67.53,12.06,17.47,31.18,26.33,56.84,26.33,10.06,0,20.07-1.98,29.74-5.88.2-.08.4-.14.6-.14ZM84.17,214.81c-6.87,0-12.99-1.97-18.2-5.86-5.14-3.81-9.12-8.47-11.86-13.85-2.68-5.23-4.85-11.54-6.46-18.71-1.59-7.11-2.61-13.35-3.03-18.56-.43-5.16-.64-9.99-.64-14.36s.1-7.73.32-10.11c0-.76.32-3.69,4.45-3.69,5.5-.75,10.39-3.2,14.34-7.24,3.95-4.04,5.86-8.9,5.86-14.84,0-1.43-.5-2.18-1.74-2.59-8.31-3.23-12.48-12.71-12.48-28.24s4.61-27.96,13.7-37.92h0c5.35-5.82,11.82-8.76,19.21-8.76s14.32,3.14,20.72,9.32c14.39,14.18,21.68,43.08,21.68,85.89,0,26.47-4.1,48.29-12.18,64.89-.23.47-.67.8-1.18.89-.54.08-1.04-.1-1.41-.47-8.71-8.71-17.26-13.12-25.41-13.12-3.12,0-4.7.62-4.7,1.87,0,.44.18.93.53,1.43l2.39,2.11c5.42,4.77,10.67,12.82,15.59,23.95.32.71.08,1.54-.56,1.98-5.73,3.97-12.1,5.99-18.93,5.99ZM70.81,41.04c-8.53,9.33-12.85,21.36-12.85,35.73s3.48,22.54,10.35,25.2c2.47.83,3.87,2.84,3.87,5.63,0,6.73-2.28,12.47-6.78,17.09-4.46,4.56-9.99,7.32-16.43,8.21-1.45.01-1.45.29-1.45.61-.21,2.4-.32,5.71-.32,9.96s.21,9.02.62,14.1c.42,5.05,1.42,11.15,2.97,18.11,1.55,6.91,3.63,12.95,6.19,17.95,2.51,4.92,6.17,9.2,10.91,12.71,4.64,3.46,10.11,5.22,16.27,5.22,5.73,0,11.09-1.58,15.98-4.67-4.57-10.05-9.34-17.31-14.21-21.6l-2.52-2.22c-.09-.06-.16-.14-.23-.23-.84-1.14-1.27-2.31-1.27-3.51,0-2.33,1.38-5.09,7.94-5.09,8.51,0,17.27,4.19,26.06,12.47,7.23-15.89,10.9-36.55,10.9-61.44,0-41.93-6.96-70.05-20.7-83.58-5.77-5.57-11.99-8.39-18.47-8.39s-12.05,2.53-16.83,7.7Z"/>
        <path class="cls-16" d="M132.53,251.16l-10.26-.96c-3.16-.48-5.68-1.63-7.59-3.43-1.95-1.83-3.18-4.32-3.66-7.41l-1.73-6.93c-9.53,3.61-19.35,5.45-29.23,5.45-26.79,0-46.81-9.34-59.5-27.74C7.99,191.95,1.61,168.6,1.61,140.78c0-16.05,1.39-31,4.14-44.42,2.8-13.67,5.64-23.07,8.7-28.74l4.09-8.18c1.06-2.42,2.99-3.73,5.55-3.73,2.09,0,3.66.18,4.78.56.9.29,1.63.59,2.23.92l.34-.51c2.14-9.71,5.66-18.26,10.45-25.4,4.83-7.19,9.74-12.64,14.61-16.19,4.85-3.58,10.39-6.37,16.42-8.31,7.92-2.57,15-3.88,21.05-3.88,14.36,0,26.94,3.39,37.39,10.06,10.43,6.67,18.45,15.83,23.82,27.23,9.75,21.43,14.7,46.02,14.7,73.09,0,44.78-10.64,78.5-31.63,100.26,9.19,9.82,18.21,14.79,26.86,14.79,5.16,0,5.73,3.12,5.73,4.46,0,4.06-4.12,8.11-12.6,12.34-7.99,4-16.63,6.03-25.7,6.03ZM110.4,228.64c.25,0,.51.06.73.18.42.22.72.59.83,1.04l2.22,8.86c.39,2.51,1.29,4.38,2.7,5.69,1.43,1.35,3.37,2.23,5.77,2.59l10.02.93c8.4,0,16.56-1.91,24.1-5.68,9.41-4.71,10.81-7.94,10.81-9.46,0-.43,0-1.24-2.49-1.24-9.92,0-20.11-5.71-30.29-16.97-.58-.63-.55-1.62.06-2.22,21.08-21.08,31.77-54.42,31.77-99.08,0-26.6-4.85-50.74-14.4-71.73-5.1-10.82-12.71-19.52-22.63-25.87-9.91-6.34-21.91-9.54-35.64-9.54-5.71,0-12.46,1.25-20.05,3.72-5.71,1.84-10.93,4.46-15.51,7.82-4.57,3.36-9.22,8.53-13.84,15.41-4.61,6.86-7.99,15.13-10.04,24.58-.04.19-.12.38-.23.54l-1.26,1.91c-.6.9-1.65,1-3.28.01-.3-.17-.87-.47-1.9-.8-.54-.18-1.62-.38-3.76-.38-1.26,0-2.05.56-2.63,1.87l-4.14,8.3c-2.89,5.34-5.71,14.72-8.4,27.88-2.71,13.22-4.07,27.95-4.07,43.78,0,27.17,6.18,49.88,18.36,67.54,12.06,17.46,31.18,26.33,56.84,26.33,10.06,0,20.07-1.97,29.74-5.88.2-.09.4-.12.6-.12ZM84.17,214.17c-6.87,0-12.99-1.96-18.2-5.85-5.14-3.82-9.12-8.48-11.86-13.84-2.68-5.25-4.85-11.55-6.46-18.73-1.59-7.1-2.61-13.34-3.03-18.56-.43-5.16-.64-9.98-.64-14.35s.1-7.72.32-10.11c0-.76.32-3.69,4.45-3.69,5.5-.77,10.39-3.22,14.34-7.26,3.95-4.05,5.86-8.9,5.86-14.84,0-1.41-.5-2.16-1.74-2.58-8.31-3.22-12.48-12.72-12.48-28.24s4.61-27.96,13.7-37.92h0c5.35-5.8,11.82-8.74,19.21-8.74s14.32,3.13,20.72,9.3c14.39,14.18,21.68,43.07,21.68,85.9,0,26.45-4.1,48.28-12.18,64.87-.23.47-.67.8-1.18.89-.54.1-1.04-.08-1.41-.45-8.71-8.7-17.26-13.12-25.41-13.12-3.12,0-4.7.63-4.7,1.87,0,.44.18.92.53,1.42l2.39,2.11c5.42,4.76,10.67,12.82,15.59,23.95.32.71.08,1.53-.56,1.97-5.73,3.98-12.1,5.99-18.93,5.99ZM70.81,40.39c-8.53,9.34-12.85,21.37-12.85,35.74s3.48,22.55,10.35,25.22c2.47.81,3.87,2.83,3.87,5.61,0,6.73-2.28,12.49-6.78,17.1-4.46,4.57-9.99,7.32-16.43,8.21-1.45.03-1.45.29-1.45.62-.21,2.39-.32,5.7-.32,9.96s.21,9.02.62,14.08c.42,5.07,1.42,11.16,2.97,18.12,1.55,6.92,3.63,12.95,6.19,17.96,2.51,4.92,6.17,9.19,10.91,12.71,4.64,3.46,10.11,5.22,16.27,5.22,5.73,0,11.09-1.58,15.98-4.67-4.57-10.04-9.34-17.3-14.21-21.6l-2.52-2.21c-.09-.07-.16-.15-.23-.25-.84-1.11-1.27-2.29-1.27-3.49,0-2.33,1.38-5.11,7.94-5.11,8.51,0,17.27,4.22,26.06,12.48,7.23-15.89,10.9-36.54,10.9-61.43,0-41.93-6.96-70.05-20.7-83.59-5.77-5.56-11.99-8.39-18.47-8.39s-12.05,2.51-16.83,7.7Z"/>
        <path class="cls-15" d="M132.53,250.51l-10.26-.94c-3.16-.49-5.68-1.65-7.59-3.45-1.95-1.83-3.18-4.32-3.66-7.41l-1.73-6.93c-9.53,3.61-19.35,5.44-29.23,5.44-26.79,0-46.81-9.33-59.5-27.72C7.99,191.31,1.61,167.96,1.61,140.14c0-16.05,1.39-31,4.14-44.44,2.8-13.66,5.64-23.06,8.7-28.72l4.09-8.18c1.06-2.42,2.99-3.73,5.55-3.73,2.09,0,3.66.19,4.78.55.9.3,1.63.61,2.23.93l.34-.5c2.14-9.72,5.66-18.26,10.45-25.39,4.83-7.19,9.74-12.65,14.61-16.21,4.85-3.56,10.39-6.34,16.42-8.29,7.92-2.57,15-3.87,21.05-3.87,14.36,0,26.94,3.38,37.39,10.05,10.43,6.66,18.45,15.83,23.82,27.23,9.75,21.43,14.7,46.01,14.7,73.09,0,44.79-10.64,78.51-31.63,100.26,9.19,9.81,18.21,14.79,26.86,14.79,5.16,0,5.73,3.13,5.73,4.46,0,4.08-4.12,8.11-12.6,12.36-7.99,3.99-16.63,6.01-25.7,6.01ZM110.4,227.99c.25,0,.51.05.73.18.42.21.72.59.83,1.04l2.22,8.86c.39,2.51,1.29,4.37,2.7,5.7,1.43,1.33,3.37,2.21,5.77,2.57l10.02.94c8.4,0,16.56-1.92,24.1-5.7,9.41-4.7,10.81-7.94,10.81-9.45,0-.44,0-1.23-2.49-1.23-9.92,0-20.11-5.72-30.29-16.96-.58-.65-.55-1.62.06-2.24,21.08-21.09,31.77-54.41,31.77-99.08,0-26.62-4.85-50.75-14.4-71.73-5.1-10.82-12.71-19.52-22.63-25.87-9.91-6.33-21.91-9.56-35.64-9.56-5.71,0-12.46,1.26-20.05,3.73-5.71,1.83-10.93,4.48-15.51,7.83-4.57,3.34-9.22,8.53-13.84,15.39-4.61,6.87-7.99,15.15-10.04,24.59-.04.19-.12.38-.23.55l-1.26,1.9c-.6.91-1.65,1-3.28.01-.3-.18-.87-.46-1.9-.8-.54-.17-1.62-.39-3.76-.39-1.26,0-2.05.56-2.63,1.88l-4.14,8.29c-2.89,5.36-5.71,14.73-8.4,27.9-2.71,13.21-4.07,27.94-4.07,43.78,0,27.16,6.18,49.87,18.36,67.52,12.06,17.48,31.18,26.35,56.84,26.35,10.06,0,20.07-1.99,29.74-5.9.2-.07.4-.11.6-.11ZM84.17,213.52c-6.87,0-12.99-1.98-18.2-5.85-5.14-3.82-9.12-8.49-11.86-13.85-2.68-5.24-4.85-11.53-6.46-18.71-1.59-7.11-2.61-13.35-3.03-18.56-.43-5.16-.64-9.98-.64-14.36s.1-7.73.32-10.11c0-.75.32-3.68,4.45-3.68,5.5-.77,10.39-3.21,14.34-7.25,3.95-4.05,5.86-8.91,5.86-14.84,0-1.43-.5-2.17-1.74-2.58-8.31-3.23-12.48-12.71-12.48-28.24s4.61-27.98,13.7-37.93c0,0,0,0,0,0,5.35-5.79,11.82-8.74,19.21-8.74s14.32,3.14,20.72,9.32c14.39,14.16,21.68,43.07,21.68,85.88,0,26.46-4.1,48.29-12.18,64.89-.23.47-.67.8-1.18.89-.54.09-1.04-.09-1.41-.45-8.71-8.72-17.26-13.13-25.41-13.13-3.12,0-4.7.62-4.7,1.87,0,.44.18.93.53,1.43l2.39,2.09c5.42,4.79,10.67,12.83,15.59,23.95.32.71.08,1.54-.56,1.98-5.73,3.96-12.1,5.98-18.93,5.98ZM70.81,39.75c-8.53,9.34-12.85,21.36-12.85,35.74s3.48,22.53,10.35,25.2c2.47.83,3.87,2.84,3.87,5.63,0,6.73-2.28,12.48-6.78,17.09-4.46,4.56-9.99,7.33-16.43,8.21-1.45.01-1.45.3-1.45.62-.21,2.4-.32,5.7-.32,9.95s.21,9.02.62,14.09c.42,5.05,1.42,11.16,2.97,18.12,1.55,6.91,3.63,12.95,6.19,17.96,2.51,4.92,6.17,9.2,10.91,12.71,4.64,3.46,10.11,5.21,16.27,5.21,5.73,0,11.09-1.57,15.98-4.67-4.57-10.04-9.34-17.31-14.21-21.58l-2.52-2.22c-.09-.07-.16-.15-.23-.24-.84-1.13-1.27-2.3-1.27-3.49,0-2.33,1.38-5.09,7.94-5.09,8.51,0,17.27,4.19,26.06,12.47,7.23-15.89,10.9-36.55,10.9-61.45,0-41.92-6.96-70.04-20.7-83.58-5.77-5.56-11.99-8.39-18.47-8.39s-12.05,2.52-16.83,7.7Z"/>
        <path class="cls-17" d="M132.53,249.87l-10.26-.96c-3.16-.48-5.68-1.63-7.59-3.43-1.95-1.82-3.18-4.31-3.66-7.41l-1.73-6.93c-9.53,3.62-19.35,5.46-29.23,5.46-26.79,0-46.81-9.34-59.5-27.74C7.99,190.65,1.61,167.32,1.61,139.49c0-16.05,1.39-30.99,4.14-44.43,2.8-13.66,5.64-23.07,8.7-28.73l4.09-8.18c1.06-2.42,2.99-3.73,5.55-3.73,2.09,0,3.66.19,4.78.56.9.31,1.63.6,2.23.91l.34-.5c2.14-9.71,5.66-18.25,10.45-25.39,4.83-7.19,9.74-12.64,14.61-16.21,4.85-3.56,10.39-6.36,16.42-8.31,7.92-2.55,15-3.86,21.05-3.86,14.36,0,26.94,3.38,37.39,10.05,10.43,6.67,18.45,15.83,23.82,27.23,9.75,21.43,14.7,46.01,14.7,73.09,0,44.79-10.64,78.51-31.63,100.26,9.19,9.82,18.21,14.78,26.86,14.78,5.16,0,5.73,3.12,5.73,4.47,0,4.06-4.12,8.11-12.6,12.34-7.99,4-16.63,6.03-25.7,6.03ZM110.4,227.35c.25,0,.51.05.73.16.42.23.72.59.83,1.06l2.22,8.86c.39,2.51,1.29,4.37,2.7,5.7,1.43,1.34,3.37,2.21,5.77,2.57l10.02.95c8.4,0,16.56-1.92,24.1-5.68,9.41-4.71,10.81-7.95,10.81-9.46,0-.43,0-1.24-2.49-1.24-9.92,0-20.11-5.71-30.29-16.97-.58-.64-.55-1.62.06-2.22,21.08-21.08,31.77-54.43,31.77-99.08,0-26.62-4.85-50.73-14.4-71.73-5.1-10.82-12.71-19.54-22.63-25.87-9.91-6.33-21.91-9.56-35.64-9.56-5.71,0-12.46,1.25-20.05,3.73-5.71,1.84-10.93,4.47-15.51,7.83-4.57,3.34-9.22,8.53-13.84,15.39-4.61,6.88-7.99,15.14-10.04,24.58-.04.19-.12.39-.23.56l-1.26,1.88c-.6.92-1.65,1.02-3.28.03-.3-.18-.87-.47-1.9-.8-.54-.18-1.62-.4-3.76-.4-1.26,0-2.05.56-2.63,1.88l-4.14,8.29c-2.89,5.35-5.71,14.73-8.4,27.89-2.71,13.22-4.07,27.96-4.07,43.79,0,27.16,6.18,49.88,18.36,67.53,12.06,17.48,31.18,26.35,56.84,26.35,10.06,0,20.07-1.98,29.74-5.9.2-.07.4-.11.6-.11ZM84.17,212.86c-6.87,0-12.99-1.96-18.2-5.85-5.14-3.82-9.12-8.47-11.86-13.83-2.68-5.24-4.85-11.54-6.46-18.71-1.59-7.11-2.61-13.36-3.03-18.56-.43-5.16-.64-10-.64-14.37s.1-7.72.32-10.1c0-.76.32-3.68,4.45-3.68,5.5-.78,10.39-3.21,14.34-7.26,3.95-4.04,5.86-8.9,5.86-14.84,0-1.41-.5-2.16-1.74-2.57-8.31-3.23-12.48-12.73-12.48-28.24s4.61-27.97,13.7-37.92h0c5.35-5.81,11.82-8.75,19.21-8.75s14.32,3.12,20.72,9.31c14.39,14.16,21.68,43.06,21.68,85.88,0,26.46-4.1,48.29-12.18,64.89-.23.47-.67.79-1.18.88-.54.1-1.04-.08-1.41-.45-8.71-8.7-17.26-13.12-25.41-13.12-3.12,0-4.7.62-4.7,1.86,0,.45.18.93.53,1.43l2.39,2.09c5.42,4.78,10.67,12.84,15.59,23.97.32.69.08,1.53-.56,1.97-5.73,3.98-12.1,5.97-18.93,5.97ZM70.81,39.1c-8.53,9.34-12.85,21.36-12.85,35.74s3.48,22.53,10.35,25.2c2.47.84,3.87,2.84,3.87,5.62,0,6.74-2.28,12.49-6.78,17.1-4.46,4.57-9.99,7.33-16.43,8.21-1.45.03-1.45.29-1.45.62-.21,2.4-.32,5.7-.32,9.95s.21,9.03.62,14.1c.42,5.06,1.42,11.16,2.97,18.12,1.55,6.91,3.63,12.95,6.19,17.96,2.51,4.92,6.17,9.2,10.91,12.71,4.64,3.46,10.11,5.22,16.27,5.22,5.73,0,11.09-1.57,15.98-4.67-4.57-10.05-9.34-17.31-14.21-21.6l-2.52-2.21c-.09-.07-.16-.16-.23-.23-.84-1.14-1.27-2.31-1.27-3.51,0-2.32,1.38-5.09,7.94-5.09,8.51,0,17.27,4.19,26.06,12.47,7.23-15.89,10.9-36.55,10.9-61.44,0-41.93-6.96-70.05-20.7-83.58-5.77-5.57-11.99-8.4-18.47-8.4s-12.05,2.52-16.83,7.71Z"/>
      </g>
      <path class="cls-30" d="M132.53,249.87l-10.26-.96c-3.16-.48-5.68-1.63-7.59-3.43-1.95-1.82-3.18-4.31-3.66-7.41l-1.73-6.93c-9.53,3.62-19.35,5.46-29.23,5.46-26.79,0-46.81-9.34-59.5-27.74C7.99,190.65,1.61,167.32,1.61,139.49c0-16.05,1.39-30.99,4.14-44.43,2.8-13.66,5.64-23.07,8.7-28.73l4.09-8.18c1.06-2.42,2.99-3.73,5.55-3.73,2.09,0,3.66.19,4.78.56.9.31,1.63.6,2.23.91l.34-.5c2.14-9.71,5.66-18.25,10.45-25.39,4.83-7.19,9.74-12.64,14.61-16.21,4.85-3.56,10.39-6.36,16.42-8.31,7.92-2.55,15-3.86,21.05-3.86,14.36,0,26.94,3.38,37.39,10.05,10.43,6.67,18.45,15.83,23.82,27.23,9.75,21.43,14.7,46.01,14.7,73.09,0,44.79-10.64,78.51-31.63,100.26,9.19,9.82,18.21,14.78,26.86,14.78,5.16,0,5.73,3.12,5.73,4.47,0,4.06-4.12,8.11-12.6,12.34-7.99,4-16.63,6.03-25.7,6.03ZM110.4,227.35c.25,0,.51.05.73.16.42.23.72.59.83,1.06l2.22,8.86c.39,2.51,1.29,4.37,2.7,5.7,1.43,1.34,3.37,2.21,5.77,2.57l10.02.95c8.4,0,16.56-1.92,24.1-5.68,9.41-4.71,10.81-7.95,10.81-9.46,0-.43,0-1.24-2.49-1.24-9.92,0-20.11-5.71-30.29-16.97-.58-.64-.55-1.62.06-2.22,21.08-21.08,31.77-54.43,31.77-99.08,0-26.62-4.85-50.73-14.4-71.73-5.1-10.82-12.71-19.54-22.63-25.87-9.91-6.33-21.91-9.56-35.64-9.56-5.71,0-12.46,1.25-20.05,3.73-5.71,1.84-10.93,4.47-15.51,7.83-4.57,3.34-9.22,8.53-13.84,15.39-4.61,6.88-7.99,15.14-10.04,24.58-.04.19-.12.39-.23.56l-1.26,1.88c-.6.92-1.65,1.02-3.28.03-.3-.18-.87-.47-1.9-.8-.54-.18-1.62-.4-3.76-.4-1.26,0-2.05.56-2.63,1.88l-4.14,8.29c-2.89,5.35-5.71,14.73-8.4,27.89-2.71,13.22-4.07,27.96-4.07,43.79,0,27.16,6.18,49.88,18.36,67.53,12.06,17.48,31.18,26.35,56.84,26.35,10.06,0,20.07-1.98,29.74-5.9.2-.07.4-.11.6-.11ZM84.17,212.86c-6.87,0-12.99-1.96-18.2-5.85-5.14-3.82-9.12-8.47-11.86-13.83-2.68-5.24-4.85-11.54-6.46-18.71-1.59-7.11-2.61-13.36-3.03-18.56-.43-5.16-.64-10-.64-14.37s.1-7.72.32-10.1c0-.76.32-3.68,4.45-3.68,5.5-.78,10.39-3.21,14.34-7.26,3.95-4.04,5.86-8.9,5.86-14.84,0-1.41-.5-2.16-1.74-2.57-8.31-3.23-12.48-12.73-12.48-28.24s4.61-27.97,13.7-37.92h0c5.35-5.81,11.82-8.75,19.21-8.75s14.32,3.12,20.72,9.31c14.39,14.16,21.68,43.06,21.68,85.88,0,26.46-4.1,48.29-12.18,64.89-.23.47-.67.79-1.18.88-.54.1-1.04-.08-1.41-.45-8.71-8.7-17.26-13.12-25.41-13.12-3.12,0-4.7.62-4.7,1.86,0,.45.18.93.53,1.43l2.39,2.09c5.42,4.78,10.67,12.84,15.59,23.97.32.69.08,1.53-.56,1.97-5.73,3.98-12.1,5.97-18.93,5.97ZM70.81,39.1c-8.53,9.34-12.85,21.36-12.85,35.74s3.48,22.53,10.35,25.2c2.47.84,3.87,2.84,3.87,5.62,0,6.74-2.28,12.49-6.78,17.1-4.46,4.57-9.99,7.33-16.43,8.21-1.45.03-1.45.29-1.45.62-.21,2.4-.32,5.7-.32,9.95s.21,9.03.62,14.1c.42,5.06,1.42,11.16,2.97,18.12,1.55,6.91,3.63,12.95,6.19,17.96,2.51,4.92,6.17,9.2,10.91,12.71,4.64,3.46,10.11,5.22,16.27,5.22,5.73,0,11.09-1.57,15.98-4.67-4.57-10.05-9.34-17.31-14.21-21.6l-2.52-2.21c-.09-.07-.16-.16-.23-.23-.84-1.14-1.27-2.31-1.27-3.51,0-2.32,1.38-5.09,7.94-5.09,8.51,0,17.27,4.19,26.06,12.47,7.23-15.89,10.9-36.55,10.9-61.44,0-41.93-6.96-70.05-20.7-83.58-5.77-5.57-11.99-8.4-18.47-8.4s-12.05,2.52-16.83,7.71Z"/>
    </g>
  </g>
</svg>