<?xml version="1.0" encoding="UTF-8"?>
<svg xmlns="http://www.w3.org/2000/svg" xmlns:xlink="http://www.w3.org/1999/xlink" viewBox="0 0 248.35 253.28">
  <defs>
    <style>
      .cls-1 {
        fill: url(#_ÂÁ_Ï_ÌÌ_È_ËÂÌÚ_1399-5);
      }

      .cls-2 {
        fill: url(#_ÂÁ_Ï_ÌÌ_È_ËÂÌÚ_1399-4);
      }

      .cls-3 {
        fill: url(#_ÂÁ_Ï_ÌÌ_È_ËÂÌÚ_1399-6);
      }

      .cls-4 {
        fill: url(#_ÂÁ_Ï_ÌÌ_È_ËÂÌÚ_1399-3);
      }

      .cls-5 {
        fill: url(#_ÂÁ_Ï_ÌÌ_È_ËÂÌÚ_1399-7);
      }

      .cls-6 {
        fill: url(#_ÂÁ_Ï_ÌÌ_È_ËÂÌÚ_1399-2);
      }

      .cls-7 {
        fill: url(#_ÂÁ_Ï_ÌÌ_È_ËÂÌÚ_3594-3);
      }

      .cls-8 {
        fill: url(#_ÂÁ_Ï_ÌÌ_È_ËÂÌÚ_3594-2);
      }

      .cls-9 {
        fill: url(#_ÂÁ_Ï_ÌÌ_È_ËÂÌÚ_4212-2);
      }

      .cls-10 {
        fill: url(#_ÂÁ_Ï_ÌÌ_È_ËÂÌÚ_4212-3);
      }

      .cls-11 {
        fill: url(#_ÂÁ_Ï_ÌÌ_È_ËÂÌÚ_4212-6);
      }

      .cls-12 {
        fill: url(#_ÂÁ_Ï_ÌÌ_È_ËÂÌÚ_4212-7);
      }

      .cls-13 {
        fill: url(#_ÂÁ_Ï_ÌÌ_È_ËÂÌÚ_4212-5);
      }

      .cls-14 {
        fill: url(#_ÂÁ_Ï_ÌÌ_È_ËÂÌÚ_4212-8);
      }

      .cls-15 {
        fill: url(#_ÂÁ_Ï_ÌÌ_È_ËÂÌÚ_4212-4);
      }

      .cls-16 {
        fill: url(#_ÂÁ_Ï_ÌÌ_È_ËÂÌÚ_4212-9);
      }

      .cls-16, .cls-17, .cls-18, .cls-19, .cls-20, .cls-21, .cls-22, .cls-23, .cls-24, .cls-25, .cls-26, .cls-27, .cls-28, .cls-29, .cls-30, .cls-31, .cls-32, .cls-33, .cls-34, .cls-35 {
        mix-blend-mode: multiply;
      }

      .cls-17 {
        fill: url(#_ÂÁ_Ï_ÌÌ_È_ËÂÌÚ_1592-2);
      }

      .cls-18 {
        fill: url(#_ÂÁ_Ï_ÌÌ_È_ËÂÌÚ_1592-3);
      }

      .cls-19 {
        fill: url(#_ÂÁ_Ï_ÌÌ_È_ËÂÌÚ_1592-4);
      }

      .cls-36 {
        fill: url(#_ÂÁ_Ï_ÌÌ_È_ËÂÌÚ_496);
      }

      .cls-37 {
        fill: url(#_ÂÁ_Ï_ÌÌ_È_ËÂÌÚ_492);
      }

      .cls-38 {
        fill: url(#_ÂÁ_Ï_ÌÌ_È_ËÂÌÚ_494);
      }

      .cls-39 {
        fill: url(#_ÂÁ_Ï_ÌÌ_È_ËÂÌÚ_2-2);
      }

      .cls-40 {
        fill: url(#_ÂÁ_Ï_ÌÌ_È_ËÂÌÚ_269);
      }

      .cls-41 {
        fill: url(#_ÂÁ_Ï_ÌÌ_È_ËÂÌÚ_124);
      }

      .cls-42 {
        fill: url(#_ÂÁ_Ï_ÌÌ_È_ËÂÌÚ_135);
      }

      .cls-43 {
        fill: url(#_ÂÁ_Ï_ÌÌ_È_ËÂÌÚ_134);
      }

      .cls-44 {
        fill: url(#_ÂÁ_Ï_ÌÌ_È_ËÂÌÚ_154);
      }

      .cls-45 {
        fill: url(#_ÂÁ_Ï_ÌÌ_È_ËÂÌÚ_155);
      }

      .cls-46 {
        fill: url(#_ÂÁ_Ï_ÌÌ_È_ËÂÌÚ_151);
      }

      .cls-47 {
        fill: url(#_ÂÁ_Ï_ÌÌ_È_ËÂÌÚ_329);
      }

      .cls-48 {
        fill: #c3b1cf;
        opacity: .4;
      }

      .cls-48, .cls-49 {
        mix-blend-mode: soft-light;
      }

      .cls-20, .cls-26, .cls-50, .cls-51 {
        opacity: .5;
      }

      .cls-21 {
        fill: url(#_ÂÁ_Ï_ÌÌ_È_ËÂÌÚ_133-5);
      }

      .cls-21, .cls-22, .cls-23, .cls-24, .cls-25, .cls-27, .cls-29, .cls-30 {
        opacity: .8;
      }

      .cls-22 {
        fill: url(#_ÂÁ_Ï_ÌÌ_È_ËÂÌÚ_133-2);
      }

      .cls-23 {
        fill: url(#_ÂÁ_Ï_ÌÌ_È_ËÂÌÚ_133-3);
      }

      .cls-24 {
        fill: url(#_ÂÁ_Ï_ÌÌ_È_ËÂÌÚ_133-4);
      }

      .cls-52 {
        fill: #d87104;
      }

      .cls-53 {
        fill: url(#_ÂÁ_Ï_ÌÌ_È_ËÂÌÚ_151-3);
      }

      .cls-54 {
        fill: url(#_ÂÁ_Ï_ÌÌ_È_ËÂÌÚ_151-2);
      }

      .cls-55 {
        fill: url(#_ÂÁ_Ï_ÌÌ_È_ËÂÌÚ_135-7);
      }

      .cls-56 {
        fill: url(#_ÂÁ_Ï_ÌÌ_È_ËÂÌÚ_135-6);
      }

      .cls-57 {
        fill: url(#_ÂÁ_Ï_ÌÌ_È_ËÂÌÚ_135-3);
      }

      .cls-58 {
        fill: url(#_ÂÁ_Ï_ÌÌ_È_ËÂÌÚ_135-5);
      }

      .cls-59 {
        fill: url(#_ÂÁ_Ï_ÌÌ_È_ËÂÌÚ_135-2);
      }

      .cls-60 {
        fill: url(#_ÂÁ_Ï_ÌÌ_È_ËÂÌÚ_135-4);
      }

      .cls-61 {
        fill: url(#_ÂÁ_Ï_ÌÌ_È_ËÂÌÚ_135-8);
      }

      .cls-62 {
        fill: url(#_ÂÁ_Ï_ÌÌ_È_ËÂÌÚ_124-2);
      }

      .cls-63 {
        fill: url(#_ÂÁ_Ï_ÌÌ_È_ËÂÌÚ_124-3);
      }

      .cls-64 {
        fill: url(#_ÂÁ_Ï_ÌÌ_È_ËÂÌÚ_269-2);
      }

      .cls-65 {
        fill: url(#_ÂÁ_Ï_ÌÌ_È_ËÂÌÚ_269-3);
      }

      .cls-66 {
        fill: url(#_ÂÁ_Ï_ÌÌ_È_ËÂÌÚ_269-4);
      }

      .cls-67 {
        fill: url(#_ÂÁ_Ï_ÌÌ_È_ËÂÌÚ_494-4);
      }

      .cls-68 {
        fill: url(#_ÂÁ_Ï_ÌÌ_È_ËÂÌÚ_494-3);
      }

      .cls-69 {
        fill: url(#_ÂÁ_Ï_ÌÌ_È_ËÂÌÚ_494-2);
      }

      .cls-70 {
        fill: url(#_ÂÁ_Ï_ÌÌ_È_ËÂÌÚ_492-2);
      }

      .cls-25 {
        fill: url(#_ÂÁ_Ï_ÌÌ_È_ËÂÌÚ_133);
      }

      .cls-26 {
        fill: url(#_ÂÁ_Ï_ÌÌ_È_ËÂÌÚ_936);
      }

      .cls-71 {
        fill: url(#_ÂÁ_Ï_ÌÌ_È_ËÂÌÚ_2);
      }

      .cls-72 {
        fill: #9b3d0d;
      }

      .cls-27 {
        fill: url(#_ÂÁ_Ï_ÌÌ_È_ËÂÌÚ_3702-2);
      }

      .cls-73 {
        isolation: isolate;
      }

      .cls-74 {
        fill: url(#_ÂÁ_Ï_ÌÌ_È_ËÂÌÚ_1790-4);
      }

      .cls-74, .cls-75, .cls-76, .cls-77, .cls-78, .cls-79, .cls-80, .cls-81, .cls-82, .cls-83, .cls-84, .cls-85, .cls-86, .cls-87, .cls-88, .cls-89, .cls-50, .cls-51 {
        mix-blend-mode: screen;
      }

      .cls-75 {
        fill: url(#_ÂÁ_Ï_ÌÌ_È_ËÂÌÚ_1790-3);
      }

      .cls-76 {
        fill: url(#_ÂÁ_Ï_ÌÌ_È_ËÂÌÚ_1790-8);
      }

      .cls-77 {
        fill: url(#_ÂÁ_Ï_ÌÌ_È_ËÂÌÚ_1790-7);
      }

      .cls-78 {
        fill: url(#_ÂÁ_Ï_ÌÌ_È_ËÂÌÚ_1790-6);
      }

      .cls-79 {
        fill: url(#_ÂÁ_Ï_ÌÌ_È_ËÂÌÚ_1790-5);
      }

      .cls-80 {
        fill: url(#_ÂÁ_Ï_ÌÌ_È_ËÂÌÚ_1790-2);
      }

      .cls-81 {
        fill: url(#_ÂÁ_Ï_ÌÌ_È_ËÂÌÚ_3748-2);
      }

      .cls-82 {
        fill: url(#_ÂÁ_Ï_ÌÌ_È_ËÂÌÚ_3836-2);
      }

      .cls-83 {
        fill: url(#_ÂÁ_Ï_ÌÌ_È_ËÂÌÚ_3813-2);
      }

      .cls-28 {
        fill: url(#_ÂÁ_Ï_ÌÌ_È_ËÂÌÚ_4212-10);
      }

      .cls-90 {
        fill: #fff;
      }

      .cls-84 {
        fill: url(#_ÂÁ_Ï_ÌÌ_È_ËÂÌÚ_3836);
      }

      .cls-85 {
        fill: url(#_ÂÁ_Ï_ÌÌ_È_ËÂÌÚ_3813);
      }

      .cls-86 {
        fill: url(#_ÂÁ_Ï_ÌÌ_È_ËÂÌÚ_3774);
      }

      .cls-87 {
        fill: url(#_ÂÁ_Ï_ÌÌ_È_ËÂÌÚ_3762);
      }

      .cls-88 {
        fill: url(#_ÂÁ_Ï_ÌÌ_È_ËÂÌÚ_3748);
      }

      .cls-89 {
        fill: url(#_ÂÁ_Ï_ÌÌ_È_ËÂÌÚ_1790);
      }

      .cls-91 {
        fill: #681e26;
      }

      .cls-29 {
        fill: url(#_ÂÁ_Ï_ÌÌ_È_ËÂÌÚ_3666);
      }

      .cls-30 {
        fill: url(#_ÂÁ_Ï_ÌÌ_È_ËÂÌÚ_3702);
      }

      .cls-31 {
        fill: url(#_ÂÁ_Ï_ÌÌ_È_ËÂÌÚ_3722);
      }

      .cls-31, .cls-32 {
        opacity: .6;
      }

      .cls-32 {
        fill: url(#_ÂÁ_Ï_ÌÌ_È_ËÂÌÚ_3723);
      }

      .cls-33 {
        fill: url(#_ÂÁ_Ï_ÌÌ_È_ËÂÌÚ_1592);
      }

      .cls-34 {
        fill: url(#_ÂÁ_Ï_ÌÌ_È_ËÂÌÚ_1900);
      }

      .cls-35 {
        fill: url(#_ÂÁ_Ï_ÌÌ_È_ËÂÌÚ_3611);
      }

      .cls-49 {
        fill: #f7ca60;
        opacity: .2;
      }

      .cls-92 {
        fill: url(#_ÂÁ_Ï_ÌÌ_È_ËÂÌÚ_3594);
      }

      .cls-93 {
        fill: url(#_ÂÁ_Ï_ÌÌ_È_ËÂÌÚ_3827);
      }

      .cls-94 {
        fill: url(#_ÂÁ_Ï_ÌÌ_È_ËÂÌÚ_4212);
      }

      .cls-95 {
        fill: url(#_ÂÁ_Ï_ÌÌ_È_ËÂÌÚ_1399);
      }

      .cls-50 {
        fill: url(#_ÂÁ_Ï_ÌÌ_È_ËÂÌÚ_3748-4);
      }

      .cls-51 {
        fill: url(#_ÂÁ_Ï_ÌÌ_È_ËÂÌÚ_3748-3);
      }
    </style>
    <linearGradient id="_ÂÁ_Ï_ÌÌ_È_ËÂÌÚ_1900" data-name="¡ÂÁ˚ÏˇÌÌ˚È „‡‰ËÂÌÚ 1900" x1="-1048.75" y1="2329.06" x2="-1190.29" y2="2136.26" gradientTransform="translate(2344.68 -1003.52) rotate(36.28)" gradientUnits="userSpaceOnUse">
      <stop offset="0" stop-color="#e7a4df"/>
      <stop offset="1" stop-color="#a12a9a"/>
    </linearGradient>
    <linearGradient id="_ÂÁ_Ï_ÌÌ_È_ËÂÌÚ_155" data-name="¡ÂÁ˚ÏˇÌÌ˚È „‡‰ËÂÌÚ 155" x1="-1120.54" y1="2318.09" x2="-1120.54" y2="2131.12" gradientTransform="translate(2344.68 -1003.52) rotate(36.28)" gradientUnits="userSpaceOnUse">
      <stop offset="0" stop-color="#620012"/>
      <stop offset="1" stop-color="#b01e03"/>
    </linearGradient>
    <linearGradient id="_ÂÁ_Ï_ÌÌ_È_ËÂÌÚ_154" data-name="¡ÂÁ˚ÏˇÌÌ˚È „‡‰ËÂÌÚ 154" x1="-1120.53" y1="2312.67" x2="-1120.53" y2="2125.69" gradientTransform="translate(2344.68 -1003.52) rotate(36.28)" gradientUnits="userSpaceOnUse">
      <stop offset="0" stop-color="#9a1813"/>
      <stop offset="1" stop-color="#c56601"/>
    </linearGradient>
    <linearGradient id="_ÂÁ_Ï_ÌÌ_È_ËÂÌÚ_4212" data-name="¡ÂÁ˚ÏˇÌÌ˚È „‡‰ËÂÌÚ 4212" x1="-1199.47" y1="2287.39" x2="-1199.47" y2="2172.21" gradientTransform="translate(2344.68 -1003.52) rotate(36.28)" gradientUnits="userSpaceOnUse">
      <stop offset="0" stop-color="#efddff"/>
      <stop offset="1" stop-color="#d647a8"/>
    </linearGradient>
    <linearGradient id="_ÂÁ_Ï_ÌÌ_È_ËÂÌÚ_4212-2" data-name="¡ÂÁ˚ÏˇÌÌ˚È „‡‰ËÂÌÚ 4212" x1="-1183.38" y1="2309.45" x2="-1183.38" y2="2159.6" xlink:href="#_ÂÁ_Ï_ÌÌ_È_ËÂÌÚ_4212"/>
    <linearGradient id="_ÂÁ_Ï_ÌÌ_È_ËÂÌÚ_4212-3" data-name="¡ÂÁ˚ÏˇÌÌ˚È „‡‰ËÂÌÚ 4212" x1="-1165" y1="2312.67" x2="-1165" y2="2147.08" xlink:href="#_ÂÁ_Ï_ÌÌ_È_ËÂÌÚ_4212"/>
    <linearGradient id="_ÂÁ_Ï_ÌÌ_È_ËÂÌÚ_4212-4" data-name="¡ÂÁ˚ÏˇÌÌ˚È „‡‰ËÂÌÚ 4212" x1="-1149.25" y1="2311.76" x2="-1149.25" y2="2126.66" xlink:href="#_ÂÁ_Ï_ÌÌ_È_ËÂÌÚ_4212"/>
    <linearGradient id="_ÂÁ_Ï_ÌÌ_È_ËÂÌÚ_4212-5" data-name="¡ÂÁ˚ÏˇÌÌ˚È „‡‰ËÂÌÚ 4212" x1="-1108.97" y1="2312.67" x2="-1108.97" y2="2125.7" xlink:href="#_ÂÁ_Ï_ÌÌ_È_ËÂÌÚ_4212"/>
    <linearGradient id="_ÂÁ_Ï_ÌÌ_È_ËÂÌÚ_4212-6" data-name="¡ÂÁ˚ÏˇÌÌ˚È „‡‰ËÂÌÚ 4212" x1="-1066.83" y1="2295.79" x2="-1066.83" y2="2125.7" xlink:href="#_ÂÁ_Ï_ÌÌ_È_ËÂÌÚ_4212"/>
    <linearGradient id="_ÂÁ_Ï_ÌÌ_È_ËÂÌÚ_4212-7" data-name="¡ÂÁ˚ÏˇÌÌ˚È „‡‰ËÂÌÚ 4212" x1="-1079.14" y1="2129.77" x2="-1079.14" y2="2128.63" xlink:href="#_ÂÁ_Ï_ÌÌ_È_ËÂÌÚ_4212"/>
    <linearGradient id="_ÂÁ_Ï_ÌÌ_È_ËÂÌÚ_4212-8" data-name="¡ÂÁ˚ÏˇÌÌ˚È „‡‰ËÂÌÚ 4212" x1="-1061.2" y1="2246.36" x2="-1061.2" y2="2134.08" xlink:href="#_ÂÁ_Ï_ÌÌ_È_ËÂÌÚ_4212"/>
    <linearGradient id="_ÂÁ_Ï_ÌÌ_È_ËÂÌÚ_3611" data-name="¡ÂÁ˚ÏˇÌÌ˚È „‡‰ËÂÌÚ 3611" x1="-1120.54" y1="2300.72" x2="-1120.54" y2="2148.48" gradientTransform="translate(2344.68 -1003.52) rotate(36.28)" gradientUnits="userSpaceOnUse">
      <stop offset="0" stop-color="#a62c51"/>
      <stop offset="1" stop-color="#edd3bb"/>
    </linearGradient>
    <linearGradient id="_ÂÁ_Ï_ÌÌ_È_ËÂÌÚ_124" data-name="¡ÂÁ˚ÏˇÌÌ˚È „‡‰ËÂÌÚ 124" x1="-1120.54" y1="2296.49" x2="-1120.54" y2="2144.25" gradientTransform="translate(2344.68 -1003.52) rotate(36.28)" gradientUnits="userSpaceOnUse">
      <stop offset=".22" stop-color="#b33400"/>
      <stop offset=".32" stop-color="#b73c00"/>
      <stop offset=".47" stop-color="#c35503"/>
      <stop offset=".67" stop-color="#d67c07"/>
      <stop offset=".9" stop-color="#f1b20d"/>
      <stop offset="1" stop-color="#ffce10"/>
    </linearGradient>
    <linearGradient id="_ÂÁ_Ï_ÌÌ_È_ËÂÌÚ_1399" data-name="¡ÂÁ˚ÏˇÌÌ˚È „‡‰ËÂÌÚ 1399" x1="-1120.54" y1="2294.85" x2="-1120.54" y2="2142.61" gradientTransform="translate(2344.68 -1003.52) rotate(36.28)" gradientUnits="userSpaceOnUse">
      <stop offset=".22" stop-color="#ff6a00"/>
      <stop offset=".35" stop-color="#ff7201"/>
      <stop offset=".57" stop-color="#ff8b05"/>
      <stop offset=".83" stop-color="#ffb20b"/>
      <stop offset="1" stop-color="#ffce10"/>
    </linearGradient>
    <linearGradient id="_ÂÁ_Ï_ÌÌ_È_ËÂÌÚ_492" data-name="¡ÂÁ˚ÏˇÌÌ˚È „‡‰ËÂÌÚ 492" x1="-1120.54" y1="2287.38" x2="-1120.54" y2="2150.09" gradientTransform="translate(2344.68 -1003.52) rotate(36.28)" gradientUnits="userSpaceOnUse">
      <stop offset="0" stop-color="#fc6740"/>
      <stop offset="1" stop-color="#76051c"/>
    </linearGradient>
    <linearGradient id="_ÂÁ_Ï_ÌÌ_È_ËÂÌÚ_3827" data-name="¡ÂÁ˚ÏˇÌÌ˚È „‡‰ËÂÌÚ 3827" x1="-1120.54" y1="2287.38" x2="-1120.54" y2="2155.68" gradientTransform="translate(2344.68 -1003.52) rotate(36.28)" gradientUnits="userSpaceOnUse">
      <stop offset="0" stop-color="#f59f86"/>
      <stop offset=".41" stop-color="#f9c6a8"/>
      <stop offset=".79" stop-color="#fde3c2"/>
      <stop offset="1" stop-color="#ffefcc"/>
    </linearGradient>
    <linearGradient id="_ÂÁ_Ï_ÌÌ_È_ËÂÌÚ_496" data-name="¡ÂÁ˚ÏˇÌÌ˚È „‡‰ËÂÌÚ 496" x1="-1120.54" y1="2280.28" x2="-1120.54" y2="2162.79" gradientTransform="translate(2344.68 -1003.52) rotate(36.28)" gradientUnits="userSpaceOnUse">
      <stop offset="0" stop-color="#ae5424"/>
      <stop offset="1" stop-color="#ca6e0e"/>
    </linearGradient>
    <linearGradient id="_ÂÁ_Ï_ÌÌ_È_ËÂÌÚ_269" data-name="¡ÂÁ˚ÏˇÌÌ˚È „‡‰ËÂÌÚ 269" x1="-1128.05" y1="2166.91" x2="-1128.05" y2="2220.36" gradientTransform="translate(2344.68 -1003.52) rotate(36.28)" gradientUnits="userSpaceOnUse">
      <stop offset=".22" stop-color="#cf3b00"/>
      <stop offset=".38" stop-color="#d44301"/>
      <stop offset=".62" stop-color="#e25c06"/>
      <stop offset=".93" stop-color="#f9830e"/>
      <stop offset="1" stop-color="#ff8d10"/>
    </linearGradient>
    <linearGradient id="_ÂÁ_Ï_ÌÌ_È_ËÂÌÚ_135" data-name="¡ÂÁ˚ÏˇÌÌ˚È „‡‰ËÂÌÚ 135" x1="-1113.25" y1="2272.13" x2="-1114.64" y2="2173.81" gradientTransform="translate(2344.68 -1003.52) rotate(36.28)" gradientUnits="userSpaceOnUse">
      <stop offset="0" stop-color="#ff6a00"/>
      <stop offset=".17" stop-color="#ff7201"/>
      <stop offset=".44" stop-color="#ff8b05"/>
      <stop offset=".79" stop-color="#ffb20b"/>
      <stop offset="1" stop-color="#ffce10"/>
    </linearGradient>
    <linearGradient id="_ÂÁ_Ï_ÌÌ_È_ËÂÌÚ_269-2" data-name="¡ÂÁ˚ÏˇÌÌ˚È „‡‰ËÂÌÚ 269" x1="-1128.11" y1="3921.59" x2="-1128.11" y2="3975.05" gradientTransform="translate(-1321.72 3990.64) rotate(36.28) scale(1 -1)" xlink:href="#_ÂÁ_Ï_ÌÌ_È_ËÂÌÚ_269"/>
    <linearGradient id="_ÂÁ_Ï_ÌÌ_È_ËÂÌÚ_135-2" data-name="¡ÂÁ˚ÏˇÌÌ˚È „‡‰ËÂÌÚ 135" x1="-1113.77" y1="2272.15" x2="-1115.16" y2="2173.81" xlink:href="#_ÂÁ_Ï_ÌÌ_È_ËÂÌÚ_135"/>
    <linearGradient id="_ÂÁ_Ï_ÌÌ_È_ËÂÌÚ_269-3" data-name="¡ÂÁ˚ÏˇÌÌ˚È „‡‰ËÂÌÚ 269" x1="2999.75" y1="6232.09" x2="2999.75" y2="6288.28" gradientTransform="translate(3416.57 6268.01) rotate(-53.72) scale(1 -1)" xlink:href="#_ÂÁ_Ï_ÌÌ_È_ËÂÌÚ_269"/>
    <linearGradient id="_ÂÁ_Ï_ÌÌ_È_ËÂÌÚ_135-3" data-name="¡ÂÁ˚ÏˇÌÌ˚È „‡‰ËÂÌÚ 135" x1="-1092.23" y1="2271.85" x2="-1093.62" y2="2173.51" xlink:href="#_ÂÁ_Ï_ÌÌ_È_ËÂÌÚ_135"/>
    <linearGradient id="_ÂÁ_Ï_ÌÌ_È_ËÂÌÚ_269-4" data-name="¡ÂÁ˚ÏˇÌÌ˚È „‡‰ËÂÌÚ 269" x1="2999.81" y1="-154.1" x2="2999.81" y2="-97.91" gradientTransform="translate(-1573.52 2604.61) rotate(-53.72)" xlink:href="#_ÂÁ_Ï_ÌÌ_È_ËÂÌÚ_269"/>
    <linearGradient id="_ÂÁ_Ï_ÌÌ_È_ËÂÌÚ_135-4" data-name="¡ÂÁ˚ÏˇÌÌ˚È „‡‰ËÂÌÚ 135" x1="-1142.61" y1="2272.55" x2="-1143.99" y2="2174.22" xlink:href="#_ÂÁ_Ï_ÌÌ_È_ËÂÌÚ_135"/>
    <linearGradient id="_ÂÁ_Ï_ÌÌ_È_ËÂÌÚ_494" data-name="¡ÂÁ˚ÏˇÌÌ˚È „‡‰ËÂÌÚ 494" x1="963.17" y1="-75.11" x2="963.17" y2="-112.72" gradientTransform="translate(-762.6 493.93) rotate(-19.02)" gradientUnits="userSpaceOnUse">
      <stop offset="0" stop-color="#ff8d10"/>
      <stop offset=".07" stop-color="#f9830e"/>
      <stop offset=".38" stop-color="#e25c06"/>
      <stop offset=".62" stop-color="#d44301"/>
      <stop offset=".78" stop-color="#cf3b00"/>
    </linearGradient>
    <linearGradient id="_ÂÁ_Ï_ÌÌ_È_ËÂÌÚ_135-5" data-name="¡ÂÁ˚ÏˇÌÌ˚È „‡‰ËÂÌÚ 135" x1="-1096.07" y1="2271.88" x2="-1097.46" y2="2173.57" xlink:href="#_ÂÁ_Ï_ÌÌ_È_ËÂÌÚ_135"/>
    <linearGradient id="_ÂÁ_Ï_ÌÌ_È_ËÂÌÚ_494-2" data-name="¡ÂÁ˚ÏˇÌÌ˚È „‡‰ËÂÌÚ 494" x1="4611.98" y1="5330.67" x2="4611.98" y2="5293.06" gradientTransform="translate(5214.16 5017.21) rotate(-86.89) scale(1 -1)" xlink:href="#_ÂÁ_Ï_ÌÌ_È_ËÂÌÚ_494"/>
    <linearGradient id="_ÂÁ_Ï_ÌÌ_È_ËÂÌÚ_494-3" data-name="¡ÂÁ˚ÏˇÌÌ˚È „‡‰ËÂÌÚ 494" x1="-575.55" y1="1043.53" x2="-575.55" y2="1005.46" gradientTransform="translate(-925.7 717.88) rotate(89.24) scale(1 -1)" xlink:href="#_ÂÁ_Ï_ÌÌ_È_ËÂÌÚ_494"/>
    <linearGradient id="_ÂÁ_Ï_ÌÌ_È_ËÂÌÚ_135-6" data-name="¡ÂÁ˚ÏˇÌÌ˚È „‡‰ËÂÌÚ 135" x1="-1146.5" y1="2272.61" x2="-1147.89" y2="2174.27" xlink:href="#_ÂÁ_Ï_ÌÌ_È_ËÂÌÚ_135"/>
    <linearGradient id="_ÂÁ_Ï_ÌÌ_È_ËÂÌÚ_494-4" data-name="¡ÂÁ˚ÏˇÌÌ˚È „‡‰ËÂÌÚ 494" x1="3442.58" y1="6185.82" x2="3442.58" y2="6147.76" gradientTransform="translate(5043.52 5235.44) rotate(165.12)" xlink:href="#_ÂÁ_Ï_ÌÌ_È_ËÂÌÚ_494"/>
    <linearGradient id="_ÂÁ_Ï_ÌÌ_È_ËÂÌÚ_135-7" data-name="¡ÂÁ˚ÏˇÌÌ˚È „‡‰ËÂÌÚ 135" x1="-1094.21" y1="2271.87" x2="-1095.6" y2="2173.53" xlink:href="#_ÂÁ_Ï_ÌÌ_È_ËÂÌÚ_135"/>
    <linearGradient id="_ÂÁ_Ï_ÌÌ_È_ËÂÌÚ_135-8" data-name="¡ÂÁ˚ÏˇÌÌ˚È „‡‰ËÂÌÚ 135" x1="-1148.41" y1="2272.62" x2="-1149.8" y2="2174.31" xlink:href="#_ÂÁ_Ï_ÌÌ_È_ËÂÌÚ_135"/>
    <linearGradient id="_ÂÁ_Ï_ÌÌ_È_ËÂÌÚ_124-2" data-name="¡ÂÁ˚ÏˇÌÌ˚È „‡‰ËÂÌÚ 124" x1="-1121.05" y1="2241.7" x2="-1121.05" y2="2199.49" xlink:href="#_ÂÁ_Ï_ÌÌ_È_ËÂÌÚ_124"/>
    <linearGradient id="_ÂÁ_Ï_ÌÌ_È_ËÂÌÚ_1399-2" data-name="¡ÂÁ˚ÏˇÌÌ˚È „‡‰ËÂÌÚ 1399" x1="-1121.05" y1="2241.25" x2="-1121.05" y2="2199.04" xlink:href="#_ÂÁ_Ï_ÌÌ_È_ËÂÌÚ_1399"/>
    <linearGradient id="_ÂÁ_Ï_ÌÌ_È_ËÂÌÚ_134" data-name="¡ÂÁ˚ÏˇÌÌ˚È „‡‰ËÂÌÚ 134" x1="-1121.05" y1="2234.5" x2="-1121.05" y2="2205.78" gradientTransform="translate(2344.68 -1003.52) rotate(36.28)" gradientUnits="userSpaceOnUse">
      <stop offset="0" stop-color="#bf746c"/>
      <stop offset="1" stop-color="#7c051c"/>
    </linearGradient>
    <linearGradient id="_ÂÁ_Ï_ÌÌ_È_ËÂÌÚ_2" data-name="¡ÂÁ˚ÏˇÌÌ˚È „‡‰ËÂÌÚ 2" x1="-1121.05" y1="2234.5" x2="-1121.05" y2="2206.95" gradientTransform="translate(2344.68 -1003.52) rotate(36.28)" gradientUnits="userSpaceOnUse">
      <stop offset="0" stop-color="#eba08d"/>
      <stop offset=".4" stop-color="#f4c6ab"/>
      <stop offset=".78" stop-color="#fce3c3"/>
      <stop offset="1" stop-color="#ffefcc"/>
    </linearGradient>
    <linearGradient id="_ÂÁ_Ï_ÌÌ_È_ËÂÌÚ_1399-3" data-name="¡ÂÁ˚ÏˇÌÌ˚È „‡‰ËÂÌÚ 1399" x1="-1121.04" y1="2338.15" x2="-1121.04" y2="2313.64" xlink:href="#_ÂÁ_Ï_ÌÌ_È_ËÂÌÚ_1399"/>
    <linearGradient id="_ÂÁ_Ï_ÌÌ_È_ËÂÌÚ_124-3" data-name="¡ÂÁ˚ÏˇÌÌ˚È „‡‰ËÂÌÚ 124" x1="-1122.78" y1="2337.1" x2="-1122.78" y2="2106.9" xlink:href="#_ÂÁ_Ï_ÌÌ_È_ËÂÌÚ_124"/>
    <linearGradient id="_ÂÁ_Ï_ÌÌ_È_ËÂÌÚ_1399-4" data-name="¡ÂÁ˚ÏˇÌÌ˚È „‡‰ËÂÌÚ 1399" x1="-1122.78" y1="2335.25" x2="-1122.78" y2="2102.31" xlink:href="#_ÂÁ_Ï_ÌÌ_È_ËÂÌÚ_1399"/>
    <linearGradient id="_ÂÁ_Ï_ÌÌ_È_ËÂÌÚ_492-2" data-name="¡ÂÁ˚ÏˇÌÌ˚È „‡‰ËÂÌÚ 492" x1="-1122.78" y1="2327.97" x2="-1122.78" y2="2109.29" xlink:href="#_ÂÁ_Ï_ÌÌ_È_ËÂÌÚ_492"/>
    <linearGradient id="_ÂÁ_Ï_ÌÌ_È_ËÂÌÚ_1399-5" data-name="¡ÂÁ˚ÏˇÌÌ˚È „‡‰ËÂÌÚ 1399" x1="-1121.05" y1="2125.69" x2="-1121.05" y2="2112.33" xlink:href="#_ÂÁ_Ï_ÌÌ_È_ËÂÌÚ_1399"/>
    <linearGradient id="_ÂÁ_Ï_ÌÌ_È_ËÂÌÚ_1399-6" data-name="¡ÂÁ˚ÏˇÌÌ˚È „‡‰ËÂÌÚ 1399" x1="-1120.88" y1="2102.76" x2="-1120.88" y2="2091.76" xlink:href="#_ÂÁ_Ï_ÌÌ_È_ËÂÌÚ_1399"/>
    <linearGradient id="_ÂÁ_Ï_ÌÌ_È_ËÂÌÚ_1399-7" data-name="¡ÂÁ˚ÏˇÌÌ˚È „‡‰ËÂÌÚ 1399" x1="-1120.88" y1="2349.62" x2="-1120.88" y2="2336.77" xlink:href="#_ÂÁ_Ï_ÌÌ_È_ËÂÌÚ_1399"/>
    <linearGradient id="_ÂÁ_Ï_ÌÌ_È_ËÂÌÚ_133" data-name="¡ÂÁ˚ÏˇÌÌ˚È „‡‰ËÂÌÚ 133" x1="-1120.54" y1="2230.86" x2="-1120.54" y2="2155.68" gradientTransform="translate(2344.68 -1003.52) rotate(36.28)" gradientUnits="userSpaceOnUse">
      <stop offset="0" stop-color="#cc81c7"/>
      <stop offset="1" stop-color="#722788"/>
    </linearGradient>
    <linearGradient id="_ÂÁ_Ï_ÌÌ_È_ËÂÌÚ_151" data-name="¡ÂÁ˚ÏˇÌÌ˚È „‡‰ËÂÌÚ 151" x1="-1133.48" y1="2312.67" x2="-1133.48" y2="2299.45" gradientTransform="translate(2344.68 -1003.52) rotate(36.28)" gradientUnits="userSpaceOnUse">
      <stop offset="0" stop-color="#620012"/>
      <stop offset="1" stop-color="#972006"/>
    </linearGradient>
    <linearGradient id="_ÂÁ_Ï_ÌÌ_È_ËÂÌÚ_3594" data-name="¡ÂÁ˚ÏˇÌÌ˚È „‡‰ËÂÌÚ 3594" x1="-1184.73" y1="2164.8" x2="-1184.73" y2="2147.08" gradientTransform="translate(2344.68 -1003.52) rotate(36.28)" gradientUnits="userSpaceOnUse">
      <stop offset="0" stop-color="#802114"/>
      <stop offset="1" stop-color="#4b051c"/>
    </linearGradient>
    <linearGradient id="_ÂÁ_Ï_ÌÌ_È_ËÂÌÚ_3594-2" data-name="¡ÂÁ˚ÏˇÌÌ˚È „‡‰ËÂÌÚ 3594" x1="-1074.01" y1="2147.07" x2="-1074.01" y2="2130.31" xlink:href="#_ÂÁ_Ï_ÌÌ_È_ËÂÌÚ_3594"/>
    <linearGradient id="_ÂÁ_Ï_ÌÌ_È_ËÂÌÚ_151-2" data-name="¡ÂÁ˚ÏˇÌÌ˚È „‡‰ËÂÌÚ 151" x1="-1143.67" y1="2313.07" x2="-1143.67" y2="2300.22" xlink:href="#_ÂÁ_Ï_ÌÌ_È_ËÂÌÚ_151"/>
    <linearGradient id="_ÂÁ_Ï_ÌÌ_È_ËÂÌÚ_3594-3" data-name="¡ÂÁ˚ÏˇÌÌ˚È „‡‰ËÂÌÚ 3594" x1="-1158.46" y1="2142.78" x2="-1158.46" y2="2126.88" xlink:href="#_ÂÁ_Ï_ÌÌ_È_ËÂÌÚ_3594"/>
    <linearGradient id="_ÂÁ_Ï_ÌÌ_È_ËÂÌÚ_151-3" data-name="¡ÂÁ˚ÏˇÌÌ˚È „‡‰ËÂÌÚ 151" x1="-1105.2" y1="2315.21" x2="-1105.2" y2="2310.47" xlink:href="#_ÂÁ_Ï_ÌÌ_È_ËÂÌÚ_151"/>
    <linearGradient id="_ÂÁ_Ï_ÌÌ_È_ËÂÌÚ_4212-9" data-name="¡ÂÁ˚ÏˇÌÌ˚È „‡‰ËÂÌÚ 4212" x1="-1119.77" y1="2292.94" x2="-1119.77" y2="2241.95" xlink:href="#_ÂÁ_Ï_ÌÌ_È_ËÂÌÚ_4212"/>
    <linearGradient id="_ÂÁ_Ï_ÌÌ_È_ËÂÌÚ_1790" data-name="¡ÂÁ˚ÏˇÌÌ˚È „‡‰ËÂÌÚ 1790" x1="-1190.31" y1="2169.32" x2="-1162.07" y2="2169.32" gradientTransform="translate(2344.68 -1003.52) rotate(36.28)" gradientUnits="userSpaceOnUse">
      <stop offset="0" stop-color="#000"/>
      <stop offset=".99" stop-color="#ffedc9"/>
    </linearGradient>
    <linearGradient id="_ÂÁ_Ï_ÌÌ_È_ËÂÌÚ_1790-2" data-name="¡ÂÁ˚ÏˇÌÌ˚È „‡‰ËÂÌÚ 1790" x1="6729.86" y1="2169.39" x2="6758.09" y2="2169.39" gradientTransform="translate(6922.65 2357.33) rotate(-143.72) scale(1 -1)" xlink:href="#_ÂÁ_Ï_ÌÌ_È_ËÂÌÚ_1790"/>
    <linearGradient id="_ÂÁ_Ï_ÌÌ_È_ËÂÌÚ_3666" data-name="¡ÂÁ˚ÏˇÌÌ˚È „‡‰ËÂÌÚ 3666" x1="-1119.94" y1="2260.71" x2="-1120.37" y2="2230.53" gradientTransform="translate(2344.68 -1003.52) rotate(36.28)" gradientUnits="userSpaceOnUse">
      <stop offset="0" stop-color="#fe81c7"/>
      <stop offset="1" stop-color="#952788"/>
    </linearGradient>
    <linearGradient id="_ÂÁ_Ï_ÌÌ_È_ËÂÌÚ_3702" data-name="¡ÂÁ˚ÏˇÌÌ˚È „‡‰ËÂÌÚ 3702" x1="-1093.18" y1="2216.5" x2="-1093.39" y2="2201.7" gradientTransform="translate(2344.68 -1003.52) rotate(36.28)" gradientUnits="userSpaceOnUse">
      <stop offset="0" stop-color="#ffbbe1"/>
      <stop offset="1" stop-color="#952788"/>
    </linearGradient>
    <linearGradient id="_ÂÁ_Ï_ÌÌ_È_ËÂÌÚ_3702-2" data-name="¡ÂÁ˚ÏˇÌÌ˚È „‡‰ËÂÌÚ 3702" x1="6696.56" y1="2214.58" x2="6696.35" y2="2200.15" gradientTransform="translate(6817.94 2280.45) rotate(-143.72) scale(1 -1)" xlink:href="#_ÂÁ_Ï_ÌÌ_È_ËÂÌÚ_3702"/>
    <linearGradient id="_ÂÁ_Ï_ÌÌ_È_ËÂÌÚ_3723" data-name="¡ÂÁ˚ÏˇÌÌ˚È „‡‰ËÂÌÚ 3723" x1="-1160.6" y1="2254.13" x2="-1137.05" y2="2254.13" gradientTransform="translate(2344.68 -1003.52) rotate(36.28)" gradientUnits="userSpaceOnUse">
      <stop offset="0" stop-color="#952788"/>
      <stop offset="1" stop-color="#fff"/>
    </linearGradient>
    <linearGradient id="_ÂÁ_Ï_ÌÌ_È_ËÂÌÚ_3722" data-name="¡ÂÁ˚ÏˇÌÌ˚È „‡‰ËÂÌÚ 3722" x1="-1098.82" y1="2255.33" x2="-1081.25" y2="2255.33" gradientTransform="translate(2344.68 -1003.52) rotate(36.28)" gradientUnits="userSpaceOnUse">
      <stop offset="0" stop-color="#fff"/>
      <stop offset="1" stop-color="#952788"/>
    </linearGradient>
    <linearGradient id="_ÂÁ_Ï_ÌÌ_È_ËÂÌÚ_1790-3" data-name="¡ÂÁ˚ÏˇÌÌ˚È „‡‰ËÂÌÚ 1790" x1="-1082.35" y1="2220.8" x2="-1082.4" y2="2216.79" xlink:href="#_ÂÁ_Ï_ÌÌ_È_ËÂÌÚ_1790"/>
    <linearGradient id="_ÂÁ_Ï_ÌÌ_È_ËÂÌÚ_1790-4" data-name="¡ÂÁ˚ÏˇÌÌ˚È „‡‰ËÂÌÚ 1790" x1="-1161.54" y1="2220.99" x2="-1161.61" y2="2216.21" xlink:href="#_ÂÁ_Ï_ÌÌ_È_ËÂÌÚ_1790"/>
    <linearGradient id="_ÂÁ_Ï_ÌÌ_È_ËÂÌÚ_3748" data-name="¡ÂÁ˚ÏˇÌÌ˚È „‡‰ËÂÌÚ 3748" x1="-1096.1" y1="2200.63" x2="-1096.2" y2="2193.61" gradientTransform="translate(2344.68 -1003.52) rotate(36.28)" gradientUnits="userSpaceOnUse">
      <stop offset="0" stop-color="#000"/>
      <stop offset=".99" stop-color="#ffd277"/>
    </linearGradient>
    <linearGradient id="_ÂÁ_Ï_ÌÌ_È_ËÂÌÚ_3748-2" data-name="¡ÂÁ˚ÏˇÌÌ˚È „‡‰ËÂÌÚ 3748" x1="6715.45" y1="2199.29" x2="6715.36" y2="2192.43" gradientTransform="translate(6835.01 2292.99) rotate(-143.72) scale(1 -1)" xlink:href="#_ÂÁ_Ï_ÌÌ_È_ËÂÌÚ_3748"/>
    <linearGradient id="_ÂÁ_Ï_ÌÌ_È_ËÂÌÚ_3748-3" data-name="¡ÂÁ˚ÏˇÌÌ˚È „‡‰ËÂÌÚ 3748" x1="-1095.49" y1="2251.06" x2="-1095.57" y2="2245.56" xlink:href="#_ÂÁ_Ï_ÌÌ_È_ËÂÌÚ_3748"/>
    <linearGradient id="_ÂÁ_Ï_ÌÌ_È_ËÂÌÚ_3748-4" data-name="¡ÂÁ˚ÏˇÌÌ˚È „‡‰ËÂÌÚ 3748" x1="6703.94" y1="2251.12" x2="6703.86" y2="2245.62" gradientTransform="translate(6824.98 2285.63) rotate(-143.72) scale(1 -1)" xlink:href="#_ÂÁ_Ï_ÌÌ_È_ËÂÌÚ_3748"/>
    <linearGradient id="_ÂÁ_Ï_ÌÌ_È_ËÂÌÚ_4212-10" data-name="¡ÂÁ˚ÏˇÌÌ˚È „‡‰ËÂÌÚ 4212" x1="-1121.17" y1="2240.47" x2="-1121.38" y2="2225.7" xlink:href="#_ÂÁ_Ï_ÌÌ_È_ËÂÌÚ_4212"/>
    <linearGradient id="_ÂÁ_Ï_ÌÌ_È_ËÂÌÚ_1790-5" data-name="¡ÂÁ˚ÏˇÌÌ˚È „‡‰ËÂÌÚ 1790" x1="-1105.75" y1="2213.37" x2="-1105.75" y2="2202.95" xlink:href="#_ÂÁ_Ï_ÌÌ_È_ËÂÌÚ_1790"/>
    <linearGradient id="_ÂÁ_Ï_ÌÌ_È_ËÂÌÚ_1790-6" data-name="¡ÂÁ˚ÏˇÌÌ˚È „‡‰ËÂÌÚ 1790" x1="6711.6" y1="2213.44" x2="6711.6" y2="2203.01" gradientTransform="translate(6838.96 2295.89) rotate(-143.72) scale(1 -1)" xlink:href="#_ÂÁ_Ï_ÌÌ_È_ËÂÌÚ_1790"/>
    <linearGradient id="_ÂÁ_Ï_ÌÌ_È_ËÂÌÚ_133-2" data-name="¡ÂÁ˚ÏˇÌÌ˚È „‡‰ËÂÌÚ 133" x1="-1121.33" y1="2224.34" x2="-1121.33" y2="2205.8" xlink:href="#_ÂÁ_Ï_ÌÌ_È_ËÂÌÚ_133"/>
    <linearGradient id="_ÂÁ_Ï_ÌÌ_È_ËÂÌÚ_329" data-name="¡ÂÁ˚ÏˇÌÌ˚È „‡‰ËÂÌÚ 329" x1="-1121.39" y1="2282.5" x2="-1121.39" y2="2154.05" gradientTransform="translate(2344.68 -1003.52) rotate(36.28)" gradientUnits="userSpaceOnUse">
      <stop offset="0" stop-color="#291c52"/>
      <stop offset=".36" stop-color="#2f245a"/>
      <stop offset=".96" stop-color="#403a72"/>
      <stop offset="1" stop-color="#423c75"/>
    </linearGradient>
    <linearGradient id="_ÂÁ_Ï_ÌÌ_È_ËÂÌÚ_2-2" data-name="¡ÂÁ˚ÏˇÌÌ˚È „‡‰ËÂÌÚ 2" x1="-1121.05" y1="2223.67" x2="-1121.05" y2="2216.61" xlink:href="#_ÂÁ_Ï_ÌÌ_È_ËÂÌÚ_2"/>
    <linearGradient id="_ÂÁ_Ï_ÌÌ_È_ËÂÌÚ_133-3" data-name="¡ÂÁ˚ÏˇÌÌ˚È „‡‰ËÂÌÚ 133" x1="-1121.25" y1="2282.5" x2="-1121.25" y2="2266.13" xlink:href="#_ÂÁ_Ï_ÌÌ_È_ËÂÌÚ_133"/>
    <linearGradient id="_ÂÁ_Ï_ÌÌ_È_ËÂÌÚ_133-4" data-name="¡ÂÁ˚ÏˇÌÌ˚È „‡‰ËÂÌÚ 133" x1="-1121.05" y1="2241.89" x2="-1121.05" y2="2154.05" xlink:href="#_ÂÁ_Ï_ÌÌ_È_ËÂÌÚ_133"/>
    <linearGradient id="_ÂÁ_Ï_ÌÌ_È_ËÂÌÚ_133-5" data-name="¡ÂÁ˚ÏˇÌÌ˚È „‡‰ËÂÌÚ 133" x1="-1121.31" y1="2222.34" x2="-1121.31" y2="2215.81" xlink:href="#_ÂÁ_Ï_ÌÌ_È_ËÂÌÚ_133"/>
    <linearGradient id="_ÂÁ_Ï_ÌÌ_È_ËÂÌÚ_3762" data-name="¡ÂÁ˚ÏˇÌÌ˚È „‡‰ËÂÌÚ 3762" x1="-1061.82" y1="2211.54" x2="-1102.45" y2="2166.06" gradientTransform="translate(2344.68 -1003.52) rotate(36.28)" gradientUnits="userSpaceOnUse">
      <stop offset="0" stop-color="#000"/>
      <stop offset=".99" stop-color="#f4edf4"/>
    </linearGradient>
    <linearGradient id="_ÂÁ_Ï_ÌÌ_È_ËÂÌÚ_3774" data-name="¡ÂÁ˚ÏˇÌÌ˚È „‡‰ËÂÌÚ 3774" x1="-1122.84" y1="2288.53" x2="-1122.84" y2="2262.53" gradientTransform="translate(2344.68 -1003.52) rotate(36.28)" gradientUnits="userSpaceOnUse">
      <stop offset="0" stop-color="#ffd36d"/>
      <stop offset="1" stop-color="#000"/>
    </linearGradient>
    <linearGradient id="_ÂÁ_Ï_ÌÌ_È_ËÂÌÚ_1592" data-name="¡ÂÁ˚ÏˇÌÌ˚È „‡‰ËÂÌÚ 1592" x1="-1121.05" y1="2325.04" x2="-1121.05" y2="2313.64" gradientTransform="translate(2344.68 -1003.52) rotate(36.28)" gradientUnits="userSpaceOnUse">
      <stop offset="0" stop-color="#ffc7d3"/>
      <stop offset="1" stop-color="#a54c97"/>
    </linearGradient>
    <linearGradient id="_ÂÁ_Ï_ÌÌ_È_ËÂÌÚ_1592-2" data-name="¡ÂÁ˚ÏˇÌÌ˚È „‡‰ËÂÌÚ 1592" x1="-1121.05" y1="2124.43" x2="-1121.05" y2="2112.33" xlink:href="#_ÂÁ_Ï_ÌÌ_È_ËÂÌÚ_1592"/>
    <linearGradient id="_ÂÁ_Ï_ÌÌ_È_ËÂÌÚ_1592-3" data-name="¡ÂÁ˚ÏˇÌÌ˚È „‡‰ËÂÌÚ 1592" x1="-1120.88" y1="2102.76" x2="-1120.88" y2="2093.06" xlink:href="#_ÂÁ_Ï_ÌÌ_È_ËÂÌÚ_1592"/>
    <linearGradient id="_ÂÁ_Ï_ÌÌ_È_ËÂÌÚ_1592-4" data-name="¡ÂÁ˚ÏˇÌÌ˚È „‡‰ËÂÌÚ 1592" x1="-1120.88" y1="2349.62" x2="-1120.88" y2="2336.77" xlink:href="#_ÂÁ_Ï_ÌÌ_È_ËÂÌÚ_1592"/>
    <linearGradient id="_ÂÁ_Ï_ÌÌ_È_ËÂÌÚ_1790-7" data-name="¡ÂÁ˚ÏˇÌÌ˚È „‡‰ËÂÌÚ 1790" x1="-1049.39" y1="2148.28" x2="-1049.39" y2="2114.23" xlink:href="#_ÂÁ_Ï_ÌÌ_È_ËÂÌÚ_1790"/>
    <linearGradient id="_ÂÁ_Ï_ÌÌ_È_ËÂÌÚ_1790-8" data-name="¡ÂÁ˚ÏˇÌÌ˚È „‡‰ËÂÌÚ 1790" x1="6680.73" y1="2148.34" x2="6680.73" y2="2114.31" gradientTransform="translate(6765.44 2241.91) rotate(-143.72) scale(1 -1)" xlink:href="#_ÂÁ_Ï_ÌÌ_È_ËÂÌÚ_1790"/>
    <linearGradient id="_ÂÁ_Ï_ÌÌ_È_ËÂÌÚ_3813" data-name="¡ÂÁ˚ÏˇÌÌ˚È „‡‰ËÂÌÚ 3813" x1="-1119.75" y1="2099.18" x2="-1119.75" y2="2091.64" gradientTransform="translate(2344.68 -1003.52) rotate(36.28)" gradientUnits="userSpaceOnUse">
      <stop offset="0" stop-color="#000"/>
      <stop offset=".99" stop-color="#ffc66d"/>
    </linearGradient>
    <linearGradient id="_ÂÁ_Ï_ÌÌ_È_ËÂÌÚ_3813-2" data-name="¡ÂÁ˚ÏˇÌÌ˚È „‡‰ËÂÌÚ 3813" x1="-1119.66" y1="2344.57" x2="-1119.66" y2="2337.78" xlink:href="#_ÂÁ_Ï_ÌÌ_È_ËÂÌÚ_3813"/>
    <linearGradient id="_ÂÁ_Ï_ÌÌ_È_ËÂÌÚ_3836" data-name="¡ÂÁ˚ÏˇÌÌ˚È „‡‰ËÂÌÚ 3836" x1="-1120.18" y1="2125.4" x2="-1120.18" y2="2113.78" gradientTransform="translate(2344.68 -1003.52) rotate(36.28)" gradientUnits="userSpaceOnUse">
      <stop offset="0" stop-color="#000"/>
      <stop offset=".99" stop-color="#ffc634"/>
    </linearGradient>
    <linearGradient id="_ÂÁ_Ï_ÌÌ_È_ËÂÌÚ_3836-2" data-name="¡ÂÁ˚ÏˇÌÌ˚È „‡‰ËÂÌÚ 3836" x1="-1119.77" y1="2326.83" x2="-1119.77" y2="2315.22" xlink:href="#_ÂÁ_Ï_ÌÌ_È_ËÂÌÚ_3836"/>
    <linearGradient id="_ÂÁ_Ï_ÌÌ_È_ËÂÌÚ_936" data-name="¡ÂÁ˚ÏˇÌÌ˚È „‡‰ËÂÌÚ 936" x1="-1210.88" y1="2221.3" x2="-1210.88" y2="2173.9" gradientTransform="translate(2344.68 -1003.52) rotate(36.28)" gradientUnits="userSpaceOnUse">
      <stop offset="0" stop-color="#edbfff"/>
      <stop offset="1" stop-color="#a44259"/>
    </linearGradient>
  </defs>
  <g class="cls-73">
    <g id="Layer_2" data-name="Layer 2">
      <g id="_Layer_" data-name="&amp;lt;Layer&amp;gt;">
        <g>
          <path class="cls-34" d="M220.18,205.38c16.94-23.09,23.7-50.64,21.2-77.63,0,.01.02.02.03.03,0,0-1.08-24.2-14.4-47.09.01.02.01.04.01.06-7.1-13.05-16.68-25.07-28.6-35.33.44.35.71.56.71.56,0,0,4.11-1.13,5.38-3.94.69-1.53.49-3.57-1.68-6.19-1.57-2.14-4.28-4.41-7.96-6.35-.1-.05-.17-.08-.26-.12-1.37-.73-2.58-1.2-3.59-1.39-6.58-1.27-6.27,7.12-6.27,7.12.15.1.34.23.55.37-14.51-9.58-30.3-15.79-46.34-18.8.25-.03.47-.06.75-.08-25.82-5.85-49.24.37-49.24.37.26.06.49.14.71.21-26.62,5.66-51,20.38-68.01,43.55-.32.44-.64.88-.95,1.32-.32.42-.63.84-.95,1.28C-15.61,113.56-3.25,185.55,48.5,226.01c.16.25.33.47.5.7-1.65-.78-3.13-1.22-4.13-1.07,0,0-13.23,3.64.77,13.92,8.21,6.02,11.58,4.05,12.95,1.26,1.05-2.1.96-4.71.96-4.71.27-.61-.44-1.73-1.66-3.01l.19-.25c53.71,34.73,124.04,24.39,160.19-24.86.32-.44.63-.87.93-1.3.33-.42.65-.85.97-1.3ZM49.93,215.85C6.37,178.56-3.11,115.46,29.55,70.94,63.08,25.3,130,14.22,179.14,47.49l-5.11,6.96-.69.93c-12.41-9.52-19.51-14.56-22.52-15.31-.1-.04-.15-.06-.15-.06-.03,0-.07,0-.1,0-.12-.01-.25.01-.36,0-.92.01-2.84.07-3.72.46-.56.25-.84-.34-1.18-1.05-.26-.49-.57-1.02-1.03-1.34-.12-.5-.48-.99-1.35-1.25-2.35-.71-26.86,3.16-26.86,3.16,0,0-2.85,3.36-3.42,2.93-.42-.29-1.16-1.35-2.07-1.81-.34-.19-.69-.27-1.07-.21l-2.33.32c-2.8.14-6.67.46-8.92,1.24.01,0,.02,0,.04,0h-.05s.01,0,.01,0l-6.51.75s-.22.08-.59.24l-8.58,1.19c-.74.1-1.47.26-2.19.42.01-.01.04-.04.04-.04l-.48.13c-.57.13-1.14.28-1.71.44.01-.02.02-.03.03-.04,0,0-.02.03-.03.04-.11.03-.22.06-.33.1l-.88.23s-.02.03-.03.04c-6.66,2.13-12.55,6.3-16.75,12.01l-8.63,11.76s-.02.02-.03.03l-1.69,2.31c-6.6,8.31-13.69,17.66-18.43,25.11l-.34.46c-1.7,2.3-3.03,4.8-4.07,7.42-.22.49-.41.97-.57,1.41t0,.01c-.37,1.08-.69,2.18-.95,3.27-2.84,8.5-3.62,17.64-2.11,26.64l5.44,32.37c2.38,14.18,10.2,26.87,21.78,35.37l8.76,6.44-4.11,5.6-1.86,2.53c-.37-.29-.75-.56-1.12-.86-.73-.58-1.46-1.2-2.18-1.8-.08-.07-.16-.13-.23-.19ZM67.23,220.38l1.96-2.66,9.58,7.04c11.59,8.51,26.03,12.16,40.27,10.18l32.52-4.51c9.02-1.25,17.49-4.72,24.74-9.96.32-.19.62-.4.93-.6.21-.13.43-.24.64-.38.25-.17.49-.36.74-.55,2.9-2.05,5.49-4.55,7.63-7.47l29.12-39.67c3.39-4.63,5.49-9.99,6.21-15.57v-.02c-.03-.12.19-1.03.2-3.15.01-.35.07-.7.07-1.06-.01-1.84-.16-3.67-.47-5.51l-.32-1.86h0s-2.39-14.24-2.39-14.24l-.54-3.11-4.71-28.12v-.08s-.12-.6-.12-.6l-.12-.84h-.01c-.22-.23-1.28-1-2.27-1.92-.98-.92-1.95-2.02-2.02-2.94-.02-.22-.02-.49-.01-.8,0,0,.66-2.07.75-3.58.06-.52.08-1,.03-1.4,0-.02-.01-.04-.02-.06,0-.2,0-.4,0-.58-.04-.07-.08-.15-.12-.2,0,0,0-.02,0-.02,0,0,0-.03-.02-.04-.05-.11-.13-.21-.19-.32-.66-1.65-2.14-3.65-3.74-5.46-.31-.37-.65-.72-.97-1.07-.31-.33-.6-.63-.9-.93-.46-.47-.91-.93-1.39-1.36-.61-.56-1.17-1.05-1.54-1.33,0,0,.14.14.34.34-.43-.35-.83-.73-1.28-1.06l-16.72-12.28,2.1-2.88,3.64-4.94c44.12,37.33,52.59,102.77,19.73,147.52-32.67,44.49-95.71,54.37-144.33,23.97-.07-.05-.15-.12-.26-.17-.21-.13-.42-.27-.62-.41l3.93-5.36Z"/>
          <path class="cls-45" d="M193.03,60.64l-25.63-18.81c-12.37-9.09-27.82-12.99-43.03-10.88l-29.4,4.08c-15.79,2.19-30.02,10.68-39.46,23.53l-16.32,22.23c-9.44,12.85-13.27,28.96-10.63,44.69l4.92,29.28c2.54,15.14,10.89,28.7,23.27,37.79l25.62,18.81c12.38,9.09,27.82,13,43.04,10.88l29.4-4.07c15.8-2.19,30.03-10.68,39.46-23.52l16.32-22.23c9.43-12.85,13.27-28.97,10.63-44.7l-4.92-29.27c-2.54-15.14-10.89-28.71-23.27-37.79Z"/>
          <path class="cls-44" d="M220.2,159.33l-29.12,39.67c-5.34,7.27-13.4,12.08-22.34,13.32l-50.42,6.99c-8.62,1.2-17.35-1.02-24.34-6.16l-42.39-31.11c-7-5.14-11.73-12.81-13.16-21.39l-8.44-50.2c-1.5-8.89.67-18.02,6.01-25.3l29.12-39.67c5.34-7.28,13.4-12.09,22.34-13.33l26.93-3.73c.38-.06.72.03,1.06.21.91.47,1.65,1.52,2.07,1.82.57.43,3.42-2.92,3.42-2.92l16.95-2.37c3.44-.49,6.9-.42,10.28.18h.01c.27.03.55.1.82.15h.02c.54.29.87.93,1.15,1.47.34.7.61,1.29,1.17,1.05.89-.39,2.81-.45,3.72-.47.11.02.24,0,.37,0,.03,0,.06,0,.09,0,0,0,3.67,1.56,6.7,3.79l42.39,31.12c4.05,2.97,7.35,6.82,9.67,11.18.02.01.02.04.02.04.01.01,0,.02,0,.02.05.06.08.13.12.2.14,1.61-.11,3.5-.75,5.6.01.01,0,.02,0,.02,0,.31,0,.59.02.81.08.92,1.04,2.01,2.01,2.93,1,.93,2.05,1.69,2.27,1.92h.02s.13.85.13.85l.1.6v.08s4.73,28.12,4.73,28.12l.53,3.11,2.7,16.11c.3,1.83.46,3.67.46,5.51.01,1.39-.08,2.75-.25,4.09v.1s0,.03,0,.03c-.71,5.58-2.82,10.94-6.22,15.57Z"/>
          <g class="cls-20">
            <path class="cls-94" d="M81.9,33.42c-11.19,16.28-26.13,22.2-30.06,49.39-3.92,27.19-17.2,55.42-17.2,55.42,0,0,15.47-21.47,19.11-49.43,3.64-27.98,31.55-56.26,31.55-56.26l-3.4.89Z"/>
            <path class="cls-9" d="M96.62,30.72s-14.65,5.2-26.96,29.38c-12.31,24.18-14.95,72.63-20.87,90.05-5.92,17.42-6.83,20.82-6.83,20.82,0,0,13.91-28.5,18.58-55.14,4.67-26.64,6.12-47.34,15.65-62.68,9.54-15.33,26.94-23.17,26.94-23.17l-6.51.74Z"/>
            <path class="cls-10" d="M52.34,182.59s1.34-1.65,4.3-9.2c2.97-7.57,16.47-77.83,35.77-113.48,7.92-14.61,13.79-22.66,17.96-27.03,1.75-1.86,3.23-3.07,4.39-3.85.24-.14.48-.28.69-.41.91.47,1.65,1.52,2.07,1.82.57.43,3.42-2.92,3.42-2.92,0,0-1.28,1.58-3.41,4.39-1.8,2.39-4.24,5.66-7.02,9.58-.11.14-.18.24-.18.24-12.07,16.98-30.6,45.85-34.58,67.81-5.99,33.11-20.17,75.44-20.17,75.44l-3.24-2.37Z"/>
            <path class="cls-15" d="M64.08,190.06l-3.09-2.26s28.47-52.09,44.65-97.96c14.79-42.03,30.39-57.46,43.22-62.42.44-.18.88-.33,1.32-.48.34.7.61,1.29,1.17,1.05.89-.39,2.81-.45,3.72-.47.11.02.24,0,.37,0-.17.02-.36.01-.52.03-.21,0-.43.03-.66.06-.23.04-.45.07-.69.11-.69.12-1.4.32-2.13.58-1.05.38-2.11.87-3.11,1.43-.27.14-.54.3-.82.46-.48.29-.97.58-1.46.91-.07.03-.12.09-.19.13-11.96,8.02-27,28.26-34.84,52.86-10.19,32.03-46.94,105.96-46.94,105.96Z"/>
            <path class="cls-13" d="M193.16,54.02c-6.18,21.4-18.23,28.45-49.55,60-31.32,31.55-62.37,89.78-62.37,89.78l4.28,3.14s26.94-54.27,49.42-79.69c22.48-25.42,41.3-40.53,49.64-51.88,8.33-11.35,9.71-20.53,9.71-20.53l-1.13-.83Z"/>
            <path class="cls-11" d="M200.51,59.42c7.92,13.14-8.43,40.08-42.02,74.13-33.59,34.04-54.86,57.95-45.91,71.11,8.96,13.16,33.08,11.11,67.56-17.13,34.47-28.24,45.35-57.8,45.35-57.8l-.84-5s-8.2,24.96-43.46,57.86c-35.25,32.9-58.96,31.16-66.6,20.11-7.64-11.05,21.57-46.54,52.91-75.96,31.33-29.42,37.11-64.29,37.11-64.29l-4.11-3.01Z"/>
            <path class="cls-12" d="M214.36,73.22l.71,1.93c-.21-.44-.41-.87-.63-1.28-.01-.19-.04-.37-.08-.56v-.09Z"/>
            <path class="cls-14" d="M190.92,161.14c-25.48,25.75-55.18,17.02-31.99-8.66,18.43-20.41,44.12-49.33,52.66-67.57.49-1.05.92-2.05,1.3-3.01.32-.84.58-1.63.81-2.4,0,.31,0,.59.02.81.08.92,1.04,2.01,2.01,2.93-.38.9-.89,1.98-1.5,3.21-.08.21-.18.41-.29.61-2.98,5.97-8.41,15.35-17.44,26.29-15.59,18.9-43.45,45.13-41.56,53.09,1.87,7.98,9.32,13.45,31.59-4.47,16.25-13.09,28.16-32.15,33.45-41.54,1.96-3.48,2.99-5.62,2.99-5.62l.53,3.11s-.84,2.07-2.97,5.8c-4.06,7.18-12.88,20.51-29.62,37.42Z"/>
          </g>
          <path class="cls-35" d="M188.03,172.95c-24.88,33.88-73.31,40.6-108.18,15-34.87-25.6-42.96-73.82-18.09-107.7,24.88-33.9,73.31-40.61,108.19-15.01,34.86,25.6,42.96,73.82,18.08,107.72Z"/>
          <path class="cls-41" d="M190.53,169.53c-24.88,33.89-73.31,40.61-108.18,15.01-34.87-25.6-42.97-73.82-18.09-107.71,24.88-33.89,73.32-40.61,108.18-15.01,34.88,25.6,42.97,73.82,18.09,107.71Z"/>
          <path class="cls-95" d="M191.5,168.22c-24.88,33.88-73.32,40.6-108.18,15-34.87-25.59-42.97-73.83-18.09-107.71,24.88-33.89,73.31-40.61,108.19-15.01,34.86,25.6,42.96,73.82,18.08,107.71Z"/>
          <path class="cls-37" d="M185.3,163.66c-22.44,30.56-66.11,36.62-97.56,13.54-31.44-23.08-38.74-66.57-16.31-97.13,22.43-30.56,66.11-36.62,97.55-13.54,31.44,23.09,38.75,66.57,16.32,97.13Z"/>
          <path class="cls-93" d="M181.71,164.51c-1.4,1.92-2.9,3.75-4.48,5.44-22.49,24.5-61.11,28.09-89.49,7.25-27.76-20.38-36.16-57.04-21.01-85.57,1.44-2.71,3.09-5.35,4.96-7.9,21.52-29.31,63.6-35,93.99-12.7,30.38,22.3,37.55,64.16,16.03,93.47Z"/>
          <path class="cls-36" d="M161.47,76.77c-27.11-19.91-64.64-14.84-83.85,11.31-19.2,26.15-12.79,63.5,14.32,83.4,27.1,19.9,64.65,14.83,83.84-11.32,19.21-26.15,12.79-63.49-14.32-83.38ZM93.71,169.08c-25.74-18.9-31.82-54.34-13.59-79.17,18.22-24.82,53.86-29.64,79.6-10.74,25.73,18.89,31.81,54.33,13.59,79.15-18.23,24.84-53.87,29.65-79.6,10.76Z"/>
          <polygon class="cls-40" points="126.98 122.87 121.65 106.51 158.62 79.79 126.98 122.87"/>
          <polygon class="cls-42" points="126.98 122.87 144.21 123.07 158.62 79.79 126.98 122.87"/>
          <polygon class="cls-64" points="126.98 122.87 109.76 122.69 95.35 165.97 126.98 122.87"/>
          <polygon class="cls-59" points="126.98 122.87 132.32 139.25 95.35 165.97 126.98 122.87"/>
          <polygon class="cls-65" points="126.98 122.87 129 141.72 172.28 156.13 126.98 122.87"/>
          <polygon class="cls-57" points="126.98 122.87 145.56 119.16 172.28 156.13 126.98 122.87"/>
          <polygon class="cls-66" points="126.98 122.87 108.41 126.6 81.69 89.62 126.98 122.87"/>
          <path class="cls-60" d="M131.77,106.68l-6.78,1.84h-.02s-6.88,1.89-6.88,1.89c-4.64-6.1.8-13.84,1.35-18.62.55-4.77-3.25-4.74-5.79-9.74-2.53-5,1.24-9.83,1.77-10.01l.51-.18s0,.01,0,.02c-.11.29-1.17,3.14.75,5.83,2.01,2.82,9.58,5.61,12.03,9.35,2.44,3.74-.99,13.6,3.06,19.6Z"/>
          <path class="cls-38" d="M124.99,108.52h-.02s-6.88,1.89-6.88,1.89c-4.64-6.1.8-13.84,1.35-18.62.55-4.77-3.25-4.74-5.79-9.74-2.53-5,1.24-9.83,1.77-10.01l.51-.18s0,.01,0,.02c-4.65,6.29,1.19,10.15,5.55,14.39,4.36,4.25-2.35,12.64,3.51,22.24Z"/>
          <path class="cls-58" d="M141.47,114.63l.08,7.02v.02l.08,7.13c7.14,2.79,13.1-4.56,17.53-6.4,4.44-1.84,5.45,1.82,10.96,2.89,5.51,1.07,9.11-3.89,9.13-4.44l.03-.54s0,0-.02.01c-.25.19-2.7,1.98-5.81.87-3.27-1.15-8.03-7.66-12.3-8.99-4.26-1.33-12.8,4.67-19.69,2.43Z"/>
          <path class="cls-69" d="M141.55,121.65v.02l.08,7.13c7.14,2.79,13.1-4.56,17.53-6.4,4.44-1.84,5.45,1.82,10.96,2.89,5.51,1.07,9.11-3.89,9.13-4.44l.03-.54s0,0-.02.01c-4.78,6.19-10.08,1.63-15.36-1.4-5.28-3.02-11.5,5.74-22.36,2.73Z"/>
          <path class="cls-68" d="M110.15,133.99l-.56-7v-.02l-.56-7.11c-7.32-2.3-12.76,5.43-17.06,7.58-4.3,2.13-5.56-1.46-11.13-2.16-5.56-.68-8.82,4.5-8.81,5.05v.55s.01,0,.02-.01c.24-.21,2.56-2.16,5.74-1.27,3.34.94,8.53,7.11,12.88,8.16,4.35,1.03,12.47-5.53,19.49-3.76Z"/>
          <path class="cls-56" d="M109.59,127v-.02l-.56-7.11c-7.32-2.3-12.76,5.43-17.06,7.58-4.3,2.13-5.56-1.46-11.13-2.16-5.56-.68-8.82,4.5-8.81,5.05v.55s.01,0,.02-.01c4.35-6.5,9.95-2.31,15.42.35,5.48,2.67,11.09-6.49,22.12-4.22Z"/>
          <path class="cls-67" d="M122.44,142.31l6.89-1.35h.01s7-1.39,7-1.39c4.19,6.43-1.8,13.76-2.69,18.48-.9,4.72,2.9,4.97,5.07,10.13,2.16,5.17-1.94,9.71-2.48,9.85l-.53.14s0,0,.01-.01c.13-.28,1.39-3.05-.33-5.87-1.81-2.97-9.15-6.3-11.32-10.2-2.17-3.91,1.97-13.5-1.63-19.78Z"/>
          <path class="cls-55" d="M129.33,140.96h.01s7-1.39,7-1.39c4.19,6.43-1.8,13.76-2.69,18.48-.9,4.72,2.9,4.97,5.07,10.13,2.16,5.17-1.94,9.71-2.48,9.85l-.53.14s0,0,.01-.01c5.09-5.95-.46-10.21-4.5-14.75-4.05-4.55,3.26-12.44-1.89-22.45Z"/>
          <polygon class="cls-61" points="126.98 122.87 124.97 104.04 81.69 89.62 126.98 122.87"/>
          <path class="cls-62" d="M144.36,135.91c-6.9,9.4-20.33,11.26-29.99,4.16-9.67-7.11-11.91-20.47-5.02-29.86,6.9-9.4,20.33-11.26,29.99-4.16,9.67,7.1,11.92,20.47,5.02,29.86Z"/>
          <path class="cls-6" d="M144.62,135.55c-6.9,9.39-20.33,11.26-29.99,4.16-9.67-7.1-11.92-20.47-5.02-29.87,6.9-9.38,20.33-11.25,30-4.15,9.67,7.1,11.91,20.47,5.01,29.86Z"/>
          <path class="cls-43" d="M139.03,131.45c-4.7,6.39-13.83,7.66-20.41,2.83-6.58-4.83-8.1-13.93-3.41-20.32,4.69-6.39,13.83-7.66,20.41-2.83,6.58,4.83,8.11,13.93,3.41,20.32Z"/>
          <path class="cls-71" d="M138.28,131.62c-4.5,6.13-13.3,7.32-19.66,2.66-6.36-4.67-7.86-13.42-3.36-19.55,4.5-6.14,13.31-7.33,19.66-2.66,6.36,4.67,7.86,13.42,3.36,19.55Z"/>
          <path class="cls-4" d="M75.39,203.39l-12.7,17.31s-6.08-1.73-9.54-7.46l12.49-17.01s8.11-.06,9.75,7.16Z"/>
          <path class="cls-63" d="M224.4,193.73c36.03-51.17,22.11-123.87-31.66-163.35C138.95-9.1,65.43-.59,27.41,49.11c-.44.57-.86,1.15-1.3,1.74C-11.5,102.09,2.09,176,56.51,215.96c54.39,39.93,129.01,30.78,166.62-20.47.43-.59.86-1.16,1.27-1.76ZM55.02,203.55c-.08-.08-.16-.14-.23-.19C11.21,166.07,1.74,102.95,34.42,58.44,68.76,11.66,138.97.02,188.4,36.3c49.41,36.27,59.33,106.75,24.99,153.52-32.68,44.51-95.73,54.38-144.35,23.99-.08-.05-.16-.11-.26-.16-.78-.51-1.59-1.01-2.38-1.55-1.57-1.05-3.13-2.12-4.68-3.27-1.55-1.13-3.05-2.3-4.53-3.49-.73-.58-1.46-1.21-2.18-1.8Z"/>
          <path class="cls-2" d="M195.45,26.69C141.04-13.26,66.09-3.6,28.02,48.25c-.44.6-.88,1.2-1.29,1.79C-9.74,101.81,3.81,174.97,57.6,214.46c53.77,39.48,127.65,30.51,166.11-19.8.45-.57.89-1.17,1.33-1.77,38.07-51.85,24.82-126.27-29.58-166.21ZM68.78,213.66c-.78-.51-1.59-1.01-2.38-1.55-1.57-1.05-3.13-2.12-4.68-3.27-1.55-1.13-3.05-2.3-4.53-3.49-.73-.58-1.46-1.21-2.18-1.8-.08-.08-.16-.14-.23-.19C11.21,166.07,1.73,102.96,34.4,58.48,68.72,11.72,138.91.08,188.34,36.38c49.42,36.27,59.34,106.73,25.02,153.49-32.66,44.49-95.7,54.35-144.32,23.96-.08-.05-.16-.11-.26-.16Z"/>
          <path class="cls-70" d="M219.14,188.56c-34.12,46.48-99.73,56.89-150.1,25.26,48.62,30.39,111.66,20.53,144.32-23.96,34.33-46.76,23.59-116.11-25.83-152.39C138.11,1.19,68.72,11.72,34.4,58.48,1.73,102.96,11.21,166.07,54.79,203.36,9.51,164.78-.21,99.06,33.92,52.58,69.7,3.84,140.18-5.23,191.32,32.31c51.15,37.56,63.6,107.51,27.82,156.25Z"/>
          <path class="cls-1" d="M194.6,41l-6.71,9.14-9.75-7.16,6.71-9.14s7.94.18,9.75,7.16Z"/>
          <path class="cls-3" d="M203.98,33.51s-11.42-9-14.39-10.88c0,0-.3-8.39,6.27-7.11,1.82.36,4.19,1.46,7.24,3.7,6.45,4.73,7.29,8.1,6.26,10.36-1.26,2.8-5.38,3.93-5.38,3.93Z"/>
          <path class="cls-5" d="M50.5,227.07c-14.01-10.29-.78-13.93-.78-13.93,3.99-.61,15.67,8.27,14.69,10.48,0,0,.09,2.6-.96,4.7-1.37,2.8-4.75,4.76-12.95-1.25Z"/>
          <path class="cls-25" d="M181.71,164.51c-1.4,1.92-2.9,3.75-4.48,5.44,0,0,25.87-49.61-22.33-84.23-49.62-35.62-88.17,5.93-88.17,5.93v-.02c1.44-2.71,3.08-5.35,4.95-7.9,21.52-29.31,63.6-35,93.99-12.7,30.38,22.3,37.55,64.16,16.03,93.47Z"/>
          <path class="cls-46" d="M59.12,187.57c5.36-.49,9.96-9.08,9.96-9.08,0,0-4.97,11.44-3.55,13.8l-6.42-4.71Z"/>
          <path class="cls-92" d="M120.94,27.52s-1.44,1.93-3.28,4.37c-2.75,3.67-6.32,8.48-7.15,9.59-.11.14-.18.24-.18.24-.02-.02,2.52-5.43,3.77-9.34.46-1.43.75-2.65.66-3.35-.04-.34-.15-.56-.38-.62.38-.06.72.03,1.06.21.91.47,1.65,1.52,2.07,1.82.57.43,3.42-2.92,3.42-2.92Z"/>
          <path class="cls-8" d="M218.15,86.01c-.44-1.69-2.09-.83-3.85.73-.12.1-.23.21-.35.32-2.31,2.16-4.68,5.3-4.68,5.3,0,0,1.13-3.41,2.32-7.45.37-1.18.71-2.42,1.04-3.64.6-2.14,1.52-4.21,1.84-5.89.08,1.52-.76,4.11-.76,4.11,0,.31,0,.59.02.81.08.92,1.04,2.01,2.01,2.93,1,.93,2.05,1.69,2.27,1.92h.02s.13.85.13.85Z"/>
          <path class="cls-54" d="M51.58,182.03c3.94-.09,7.32-10.07,7.32-10.07,0,0-4.62,12.06-2.2,13.84,0,0-4.83-2.44-5.12-3.77Z"/>
          <path class="cls-7" d="M155.07,27.52l-.15.03c-.21,0-.43.03-.66.06-.22.03-.45.06-.69.11-.7.12-1.41.32-2.13.58-1.05.38-2.11.87-3.11,1.43-.29.14-.56.29-.82.46-.51.29-1,.59-1.46.91-.07.03-.12.09-.19.13-2.85,1.9-5.14,3.98-6.03,4.82,3.12-3.13,7.65-6.49,9.02-8.64.67-1.02.62-1.77-.67-2.09.32-.03.59.03.82.14h.02c.54.29.87.93,1.15,1.47.34.7.61,1.29,1.17,1.05.89-.39,2.81-.45,3.72-.47Z"/>
          <path class="cls-72" d="M68.65,180.97c-4.66,10.44,6.8,18.93,10.57,20.21,3.77,1.27,6.44-1.61,6.44-1.61,0,0,.83,7.17,12.82,14.25,11.98,7.07,28.13,1.18,28.13,1.18,0,0,37.47-2.19,48-5.42,10.52-3.23,22.85-19.73,22.85-19.73,0,0-7.61,12.34-14.75,17.14-7.15,4.8-16.19,5.62-16.19,5.62,0,0-52.05,8.67-61.97,6.97-9.93-1.7-39.02-27.3-39.02-27.3,0,0,.43-5.89,3.11-11.31Z"/>
          <path class="cls-72" d="M32.96,128.18s3.37,16.33,5.31,23.35c1.94,7.01,2.35,16.15,6.04,21.65,3.69,5.5,6.45,8.18,9.28,6.82,2.83-1.36,4.97-7.1,4.97-7.1,0,0-3.58,9.36-6.98,9.14-3.41-.23-7.83-8.52-11.34-13.99-3.5-5.48-7.28-39.86-7.28-39.86Z"/>
          <path class="cls-72" d="M56.71,178.92s-1.65,5.8,1.65,7.14c3.31,1.36,6.68-2.07,6.68-2.07,0,0-4.1,4.36-5.92,3.58,0,0-2.57-1.37-3.03-2.22-.45-.84.62-6.43.62-6.43Z"/>
          <path class="cls-52" d="M103.13,29.98c11.79-1.17,4.31,6.14,4.31,6.14l8.01-7.49s-8.5.04-12.32,1.35Z"/>
          <path class="cls-52" d="M115.85,34.45c3.83-5.26,12.27-7.77,22.29-8.44,10.02-.68,10.71,1.41,10.71,1.41,0,0,1.29-2.36-1.05-3.07-2.34-.71-26.86,3.16-26.86,3.16l-5.09,6.93Z"/>
          <path class="cls-52" d="M150.12,29.14c5.82-1.43,16.51,9.55,29.21,16.09,12.71,6.53,13.74,11.27,13.74,11.27,0,0,4.42.64,6.73,3.88,2.32,3.24,2.59,5.02,2.55,4.76-.03-.27-.47-3.9-1.86-5.71,0,0-5.27-3.37-19.67-14.48-14.4-11.11-22.34-16.83-25.39-17.41,0,0-3.8.15-5.32,1.61Z"/>
          <path class="cls-52" d="M205.56,63.15s4.38,4.01,6.03,10.12c1.63,6.11-.78,13.24-.78,13.24,0,0,4.11-8.58,3.67-12-.44-3.41-6.87-9.85-8.92-11.37Z"/>
          <path class="cls-52" d="M226.41,143.73c-.03-.23.76-2.99-.51-11.58-1.34-9.14-4.13-14.99-4.13-14.99,0,0,.77-4.99-2-12.01-2.77-7-1.52-18.47-3.85-17.85-2.35.61-6.17,7.39-6.3,7.62,3.55-10.48,8.39-9.77,8.39-9.77l.13.85.1.6v.08s4.73,28.12,4.73,28.12l.53,3.11,2.7,16.11c.3,1.83.46,3.67.46,5.51l-.25,4.09v.1Z"/>
          <path class="cls-49" d="M225.39,137.48c-1.39-1.23-16.83,24.23-38.74,44.44-21.9,20.22-35.39,28.1-35.39,28.1,0,0,22.28,3.15,32.42-7.15,10.15-10.31,34.74-40.4,38.18-48.74,3.44-8.34,3.53-16.65,3.53-16.65Z"/>
          <path class="cls-49" d="M215.34,89.83c-6.16.32-8.08,15.33-8.08,15.33l1.95,25.94s12.53-13.08,12.22-20.25c-.31-7.16-6.09-21.02-6.09-21.02Z"/>
          <path class="cls-49" d="M196.39,57.58c-2.73-.1-7.24,13.81-7.24,13.81,0,0,5.2,9.3,6.88,10.53,1.67,1.23,10.6-17.66.36-24.34Z"/>
          <path class="cls-49" d="M207.65,66.98c-2.2-2.18-6.58,16.07-7.46,18.72-.87,2.65,4.83,8.68,4.83,8.68,0,0,7.07-9.06,7.61-17.36.52-8.3-4.98-10.05-4.98-10.05Z"/>
          <path class="cls-49" d="M161.9,33.38c-12.87-7.9-23.67,6.81-24.12,7.98-.45,1.18,18.52,6.54,31.58,14.11,13.04,7.58,15.24,12.59,15.24,12.59,0,0,7.04-7.94,6.01-12.72-1.04-4.78-28.7-21.96-28.7-21.96Z"/>
          <path class="cls-49" d="M78.03,37.1c-5.45,7.61-21.58,23.57-24.31,36.73-2.73,13.15-2.95,27.88-7.32,38.13-4.37,10.25-10.59,16.86-10.29,16.22.29-.64-9.42-21.07-4.76-34.2,4.67-13.12,37.18-51.29,40.18-54.72,3-3.44,6.5-2.16,6.5-2.16Z"/>
          <path class="cls-49" d="M91.54,33.51s-2.35.46-7.29,3c-4.93,2.54-19.53,22.45-24.37,34.08-4.84,11.63-3.38,15.78-3.38,15.78,0,0,6.22-5.8,8.21-13.87,1.99-8.07,11.89-32.12,26.83-38.99Z"/>
          <path class="cls-49" d="M109.41,30.81c-7.69-.68-20.09,6.7-27.57,16.11-7.48,9.4-5.45,12.36-5.45,12.36,0,0,16.09-7.35,20.45-11.33,4.36-3.99,5.33-10.39,12.57-17.13Z"/>
          <path class="cls-53" d="M78.43,203.02c4.91,2.81,6.17.52,6.17.52,0,0,1.69,5.74,5.94,8.57,0,0-10.72-3.97-12.11-9.09Z"/>
          <path class="cls-49" d="M98.86,198.33c-12.64,5.72-2.38,16.12,8.5,17.09,10.89.97,15.04-2.34,15.04-2.34,0,0-12.76-7.01-14.72-9.59-1.97-2.59-8.82-5.15-8.82-5.15Z"/>
          <path class="cls-16" d="M52.2,106.88c3.79-8.5,6.74-4.69,6.74-4.69,0,0-12.27,46.33,27.87,75.52,40.14,29.18,77.56,6.03,81.08,3.72,3.52-2.31,3.22,4.39,3.22,4.39,0,0-33.04,24.07-75.72,2.34-42.68-21.74-48.51-63.06-43.19-81.28Z"/>
          <path class="cls-89" d="M92.61,52.67c8.65-2.8,9.8,4.12,9.8,4.12,0,0,15.69-5.5,25.47-4.44,0,0-2.93-7.11,4.56-7.14,0,0-13.67-2.62-39.83,7.47Z"/>
          <path class="cls-80" d="M205.11,135.26c.08-9.09-6.86-8.12-6.86-8.12,0,0,.54-16.61-3.39-25.62,0,0,7.66.67,5.44-6.48,0,0,6.6,12.25,4.81,40.23Z"/>
          <path class="cls-29" d="M144.36,135.91c-7.78,7.02.14,9.93,4.71,11.86,5.25,2.21,18.25,6.7,18.25,6.7,0,0-17.51-4.98-22.1-6.26-4.59-1.28-8.41,1.66-8.41,1.66,0,0,.94-2.25.42-4.24-.52-1.95-6.1-1.25-6.1-1.25,0,0-3.58.62-5.36,3.21-1.78,2.57-2.73,10.24-1.02,14.06,1.7,3.83,5.2,5.6,8.87,8.3,3.68,2.7,2.67,5.96,2.67,5.96,0,0-.15-3.04-4-6-3.84-2.96-7.5-4.51-9.35-7.94-1.85-3.44,1.16-12.05.02-13.58-1.13-1.54-4.65,1-4.65,1,0,0,2.17-2.99,1.59-5.02-.57-2.03-3.98-2.09-3.98-2.09l-5.06-4.22-9.9,11.14s4.16-10.05,3.56-12.35c-.6-2.3-3.16-1.94-3.16-1.94,0,0,4.08-1.61,4.5-3.94.42-2.33-1.29-4.27-1.29-4.27,0,0,.98-2.66.18-4.27-.8-1.61-3.54-1.55-3.54-1.55,0,0,2.73.42-3.1-7.72-5.84-8.15-12.65-18.32-12.65-18.32,0,0,12.3,17.42,16.07,20.18,3.76,2.77,8.09-5.18,8.09-5.18,0,0-7.69,9.13-1.59,21.02,6.09,11.88,23.21,19.1,36.34,5.06Z"/>
          <path class="cls-30" d="M171.07,125.42c-4.12.16-6.97-2.68-9.13-3.03-2.16-.35-7.57,3.05-8.06,5.11-.49,2.05.67,4.12.67,4.12,0,0-3.19-2.64-4.81-2.33-1.62.3-2.81,2-2.81,2,0,0,1.79-3.37,1.67-6.91,0,0,.05,2.6.29,2.84.26.24,5.22-1.54,8.76-4.47,3.55-2.94,5.38-1.06,8.29.71,2.9,1.77,5.13,1.97,5.13,1.97Z"/>
          <path class="cls-27" d="M113.51,81.31c1.08,3.98,4.65,5.84,5.62,7.8.99,1.96-1.36,9.45-3.17,10.53-1.82,1.08-3.85.12-3.85.12,0,0,3.92,1.4,4.11,3.04.19,1.64-1.69,2.27-1.69,2.27,0,0,3.6-2.11,7.02-3.06,0,0-1.53.49-1.84.32-.3-.17-.77-4.6.14-9.11.95-4.7-.36-5.38-2.92-7.61-2.56-2.23-3.42-4.3-3.42-4.3Z"/>
          <path class="cls-32" d="M73.13,129.5s2.63-2.94,5.73-1.98c3.11.97,6.75,2.92,7.31,3.47.56.56,1.69,4.68,4.54,6.06,2.85,1.38,6.45-.61,6.45-.61,0,0-3.84,3.1-7.98,1.42-4.14-1.68-5.46-4.37-9.8-7.13-4.35-2.76-7.34.13-7.34.13l1.08-1.37Z"/>
          <path class="cls-31" d="M125.3,162.74c2.59,2.66,3.41.61,5.37,1.41,1.97.79,6.23,5.42,6.99,8.21.76,2.8-1.68,5.48-1.68,5.48,0,0,1-4.25-2.37-7.37-3.36-3.12-7.75-5.13-8.32-7.72Z"/>
          <path class="cls-75" d="M144.79,135.17s13.44,11.23,17.07,12.53c3.62,1.3.6-5.01.6-5.01l9.56,13.07-27.66-19.84.43-.74Z"/>
          <path class="cls-74" d="M99.92,95.69s-7.93-2.94-9.36-1.71c-1.43,1.21,16.07,13.95,16.07,13.95l-24.57-18.03,17.86,5.8Z"/>
          <path class="cls-88" d="M156.51,112.51c2.66-.9,3.36,2.86,2.81,4.32-.54,1.47-2.64,2.68-2.64,2.68,0,0,3.51-1.87,5.73-1.02,2.2.84,5.48,2.82,5.48,2.82,0,0-1.98-1.54-3.99-2.77-2-1.21-3.19-3.47-2.62-4.77.59-1.3,1.62-.78,1.62-.78,0,0-3.13-2.09-6.4-.48Z"/>
          <path class="cls-81" d="M129.61,91.03c.05-2.8-3.74-2.35-4.97-1.4-1.24.95-1.76,3.33-1.76,3.33,0,0,.73-3.92-.74-5.77-1.48-1.85-4.34-4.39-4.34-4.39,0,0,2.06,1.43,3.83,2.98,1.76,1.54,4.27,2,5.34,1.06,1.07-.95-.24-1.88-.24-1.88,0,0,3.43,2.47,2.87,6.07Z"/>
          <path class="cls-51" d="M133.97,156.84c-1.97,3.71-3.7-.3-3.7-.3,0,0-.62,2.58-.24,4.29.39,1.71,1.32,2.72,1.32,2.72,0,0-.99-1.61-.77-2.34.22-.74,1.45-1.08,2.37-.79.92.3,1.01.96,1.01.96,0,0-1.13-1.1,0-4.54Z"/>
          <path class="cls-50" d="M93,126.75c-2.96,3,1.39,3.44,1.39,3.44,0,0-2.27,1.38-4.03,1.52-1.75.14-2.99-.45-2.99-.45,0,0,1.83.46,2.46.03.64-.43.6-1.69.04-2.5-.56-.79-1.21-.67-1.21-.67,0,0,1.38.75,4.33-1.37Z"/>
          <path class="cls-28" d="M107.7,113.97c3.05-3.27,5.59-.71,5.59-.71,0,0-5.34,12.66,3.97,20.89,9.31,8.24,19.09,1.06,20.95-.59,1.87-1.67,3.65,1.6,3.16,3.59-.49,2-11.77,11.22-25.49.94-13.71-10.28-8.91-23.43-8.17-24.12Z"/>
          <path class="cls-79" d="M147.44,116.29c.56,4.26-5.13,3.4-5.13,3.4l-.27,5.55s5.38-.87,6.01,2.99c0,0,1.6-5.91-.6-11.95Z"/>
          <path class="cls-78" d="M127.18,101.41c-4.24.73-1.71,5.92-1.71,5.92l-5.21,1.93s-.78-5.4-4.65-4.84c0,0,5.15-3.3,11.57-3.01Z"/>
          <path class="cls-22" d="M113.52,117.93c4.12-6.93,11.15-8.75,19.46-2.97,8.31,5.79,7.04,13.8,7.04,13.8,0,0,5.44-9.14-3.98-17.24-9.41-8.09-21.71.58-22.52,6.41Z"/>
          <g>
            <path class="cls-47" d="M99.08,179.42s-.04.02-.04.02c6.74-9.33-.83-17.37-.83-17.37,0,0-9.93-4.82-16.82,4.41v-.03s0-.01,0-.03c.03-1,.69-14.82,14.38-12.69,0,0,6.71-5.41,14.67-16.25t.02-.03c2.76-3.75,5.65-8.14,8.47-13.18,0,0-1.44-4.18,1.49-7.68,2.62-3.13,6.55-2.4,6.55-2.4,6.99-6.97,11.74-14.61,11.83-15.47.08-.87-1.51-1.72-1.51-1.72,0,0,22.93-26.69,28.94-27.58.74,4.87-11.42,25.59-15.98,33.11v.02c-1.04,1.71-1.68,2.74-1.68,2.74,0,0-1.29-1.27-2.09-.92-.26.1-1.2,1.05-2.47,2.54-2.49,2.89-6.22,7.95-8.74,13.38,0,0,1.13,2.01.76,4.4-.15.82-.48,1.71-1.08,2.56-2.69,3.67-6.88,3.72-6.88,3.72-1.98,2.11-3.83,4.17-5.51,6.18-11.56,13.55-16.6,24.06-16.6,24.06,6.13,12.44-6.04,17.87-6.88,18.21Z"/>
            <path class="cls-39" d="M129.96,124.78c-1.15,1.58-3.36,1.92-4.93.77-1.57-1.15-1.91-3.36-.76-4.94,1.15-1.56,3.36-1.9,4.93-.75,1.57,1.15,1.91,3.36.75,4.93Z"/>
            <path class="cls-23" d="M99.08,179.42s-.04.02-.04.02c6.74-9.33-.83-17.37-.83-17.37,0,0-9.93-4.82-16.82,4.41v-.03s0-.01,0-.03c.35-.94,5.48-14.48,17.27-7.47,12.12,7.21,1.71,19.88.42,20.47Z"/>
            <path class="cls-24" d="M134.95,127.26c-2.69,3.67-6.88,3.72-6.88,3.72-1.98,2.11-3.83,4.17-5.51,6.18h-.01s3.53-5.38-.41-7.66c-1.7-1-6.62,3.05-11.67,7.95,2.76-3.75,5.65-8.14,8.47-13.18,0,0-1.44-4.18,1.49-7.68,2.62-3.13,6.55-2.4,6.55-2.4,6.99-6.97,11.74-14.61,11.83-15.47.08-.87-1.51-1.72-1.51-1.72,0,0,22.93-26.69,28.94-27.58,0,0-23.84,19.84-24.59,25.16-.76,5.31,7.28,9.6,8.61,7.97-1.03,1.71-1.68,2.74-1.68,2.74,0,0-1.29-1.27-2.09-.92-.26.1-1.2,1.05-2.47,2.54l-.69-.34s-.43-5.43-2.69-6.15c-2.28-.72-12.93,14.31-12.93,14.31,0,0-5.41-.84-7.56,4.02-2.13,4.87,3.06,10.11,8.26,10.71,5.2.61,7.6-4.77,7.6-4.77h.02c-.15.83-.48,1.72-1.08,2.57Z"/>
            <path class="cls-48" d="M165.14,71.79c-1.08-2.52-22.26,18.69-23.49,22.8-1.24,4.11,6.65,7.32,8.33,6.83,1.68-.49,15.86-27.99,15.16-29.63Z"/>
            <path class="cls-48" d="M141.77,101.32c-2.26-.71-13.57,12.37-14.06,13.41-.49,1.05,6.36,3.92,7.16,3.36.8-.56,6.79-9.9,8.35-13.19,1.55-3.3-1.46-3.58-1.46-3.58Z"/>
            <path class="cls-48" d="M121.06,128.94c-3.02-1.93-22.9,26-22.9,26,0,0-4.65-2.47-7.92-1.14-3.27,1.33-4.9,6.05-4.9,6.05,0,0,8.06-4.83,14.27-.27,6.21,4.56,4.84,13.08,4.84,13.08,0,0,5.37-6.16-.46-13.44,0,0,16.25-20,17.89-24.95,1.63-4.96-.82-5.33-.82-5.33Z"/>
            <path class="cls-21" d="M123.6,122.84c.21-4.37,5.57-2.88,6.25-.44.69,2.43-.74,3.21-.74,3.21,0,0,1.88-1.1,2.35-3.06.47-1.97-1.09-3.49-4.32-4.14-3.22-.65-3.98,2.88-3.55,4.44Z"/>
          </g>
          <path class="cls-90" d="M159,118.61c1.45-3.51,3.14-.99,3.14-.64,0,.36-1.78.02-3.14.64Z"/>
          <path class="cls-90" d="M121.35,86.11c4.33,1.35,2.77,3.25,2.26,3.58-.51.34-.46-2.15-2.26-3.58Z"/>
          <path class="cls-87" d="M175.02,85.61c-17.69-8.44-19.02,12.16-1.72,28.78,17.29,16.62,23.62-18.33,1.72-28.78Z"/>
          <path class="cls-86" d="M58.61,124.98s2.25,32.48,28.73,51.93c26.49,19.44,52.85,12.98,52.85,12.98,0,0-22.49,9.32-52.14-11.07-31.2-21.44-29.44-53.83-29.44-53.83Z"/>
          <path class="cls-33" d="M75.39,203.39l-3.31,4.5c2.32-6.89-4.37-9.07-7.71-7.65-1.62.69-3.11,2.13-4.2,3.45l5.47-7.46s8.11-.06,9.75,7.16Z"/>
          <path class="cls-17" d="M194.6,41l-4.6,6.27c1.02-1.49,2.9-5.15-.63-8.12-4.55-3.84-10.49,2.81-10.49,2.81l5.97-8.12s7.94.18,9.75,7.16Z"/>
          <path class="cls-18" d="M203.98,33.51s-11.42-9-14.39-10.88c0,0-.3-8.39,6.27-7.11-6.28,1.6,1.83,10.84,9.32,13.48,1.79.64,3.16.75,4.17.58-1.26,2.8-5.38,3.93-5.38,3.93Z"/>
          <path class="cls-19" d="M50.5,227.07c-14.01-10.29-.78-13.93-.78-13.93,3.99-.61,15.67,8.27,14.69,10.48-2.06-5.03-11.39-11.05-15.19-8.8-3.77,2.24,5.97,12.34,9.62,13.64,2.54.89,3.97.3,4.61-.13-1.37,2.8-4.75,4.76-12.95-1.25Z"/>
          <path class="cls-77" d="M231.87,68.21c1.77,6.87-4.91,5.79-4.91,5.79,0,0,10.87,19.06,12.14,41.75,0,0,4.33-5.3,7.16-.46,0,0-1.09-24.19-14.4-47.09Z"/>
          <path class="cls-76" d="M144.56,4.12c-7.08.36-4.05,6.41-4.05,6.41,0,0-21.45-4.66-43.48.92,0,0,3.77-5.72-1.7-6.97,0,0,23.4-6.21,49.23-.36Z"/>
          <path class="cls-85" d="M199.71,17.02c-7.36-3.87-3.49,4.76-3.49,4.76,0,0,8.51,10.27,11.78,7.85,3.27-2.43-.16-8.35-8.29-12.61Z"/>
          <path class="cls-83" d="M56.32,216.91c-4.63-2.36-6.44,1.75-6.44,1.75,0,0,7.35,9.44,10.98,7.72,3.64-1.74.49-6.9-4.54-9.46Z"/>
          <path class="cls-90" d="M198.98,104.3c-4.57-1.53-1.37,8.54-.88,11.2.49,2.65,6.69-6.89.88-11.2Z"/>
          <path class="cls-90" d="M112.18,53.59c3.75-8.23,10.79-5.34,11.23-3.01.44,2.32-11.23,3.01-11.23,3.01Z"/>
          <path class="cls-90" d="M138.64,10.19c-7.08-11.18-11.99-3.53-13.05-2.46-1.05,1.06,13.05,2.46,13.05,2.46Z"/>
          <path class="cls-90" d="M227.76,75.52c9.58,1.36,6.07,11.01,5.44,11.09-.63.08-5.44-11.09-5.44-11.09Z"/>
          <path class="cls-84" d="M190.64,37.39c-5.21-3.21-8.35,6.22-8.95,7.22-.59,1,5.45,3.9,5.45,3.9,0,0,8.37-8.1,3.49-11.12Z"/>
          <path class="cls-82" d="M71.76,200.02c-5.2-3.21-8.35,6.22-8.94,7.22-.59,1,5.44,3.89,5.44,3.89,0,0,8.38-8.1,3.49-11.11Z"/>
          <path class="cls-26" d="M83.15,33.05s-10.32,13.19-17.24,20.56c-6.92,7.37-10.81,17.64-10.81,17.64,0,0,4.87-10.46,11.04-19.52,5.35-7.86,10.15-9.33,17.01-18.69Z"/>
          <path class="cls-91" d="M214.36,73.22l.71,1.93c-.2-.44-.41-.87-.63-1.28-.01-.19-.04-.37-.08-.56v-.09h0ZM214.36,71.61c-.14,0-.27.02-.4.05-.71.18-1.21.82-1.21,1.53,0,.11,0,.23,0,.34.05.25.07.36.08.48.02.22.08.43.19.62.2.38.39.77.58,1.17.27.6.86.95,1.48.95.21,0,.41-.04.6-.12.81-.33,1.21-1.24.91-2.05l-.71-1.93c-.23-.65-.85-1.06-1.51-1.06h0Z"/>
          <path class="cls-91" d="M121.2,1.61c7.08,0,15.1.64,23.36,2.5-.27.02-.51.05-.76.09,16.04,3.01,31.83,9.21,46.35,18.79-.21-.14-.4-.26-.56-.37,0,0-.26-7.25,4.98-7.25.4,0,.82.04,1.29.14,1.01.2,2.21.66,3.59,1.38.09.05.16.08.25.13,3.69,1.93,6.4,4.21,7.96,6.36,2.17,2.62,2.38,4.66,1.69,6.2-1.26,2.8-5.38,3.93-5.38,3.93,0,0-.27-.22-.71-.56,11.92,10.25,21.5,22.28,28.6,35.33,0-.02,0-.04,0-.06,13.31,22.9,14.4,47.09,14.4,47.09,0-.01-.02-.02-.03-.03,2.49,26.99-4.26,54.55-21.2,77.63-.32.44-.65.88-.98,1.3-.31.43-.61.86-.93,1.29-21.84,29.75-56.14,45.31-91.73,45.31-23.32,0-47.21-6.69-68.47-20.45l-.19.26c1.23,1.28,1.94,2.4,1.66,3.01,0,0,.09,2.6-.96,4.7-.71,1.46-1.97,2.69-4.16,2.69-2.03,0-4.85-1.05-8.79-3.94-14.01-10.29-.78-13.93-.78-13.93.13-.02.27-.02.42-.02.97,0,2.28.41,3.71,1.11-.17-.24-.34-.46-.5-.71C1.6,173.07-10.76,101.08,26.11,50.85c.32-.43.64-.86.95-1.28.32-.44.63-.88.95-1.32C45.03,25.08,69.41,10.36,96.03,4.71c-.22-.08-.45-.16-.71-.22,0,0,10.82-2.87,25.88-2.87h0ZM58.31,206.2l1.86-2.52,4.11-5.61-8.76-6.44c-11.59-8.5-19.4-21.19-21.78-35.37l-5.43-32.37c-1.51-9-.73-18.13,2.1-26.63.26-1.11.58-2.2.95-3.28h0c.16-.45.35-.93.57-1.43,1.04-2.61,2.38-5.11,4.07-7.42l.34-.46c4.74-7.45,11.83-16.81,18.43-25.11l1.69-2.31s.02-.02.03-.03l8.63-11.76c4.2-5.73,10.09-9.88,16.75-12.02,0-.01.02-.02.03-.03l.88-.23c.11-.03.22-.07.33-.11,0,0,.03-.03.03-.03,0,.01-.02.03-.03.03.56-.15,1.13-.31,1.71-.44l.47-.12s-.03.02-.04.04c.73-.16,1.45-.32,2.2-.43l8.57-1.18c.37-.16.59-.24.59-.24l6.51-.74h-.01.06s-.03,0-.04,0c2.26-.78,6.12-1.1,8.92-1.24l2.33-.32c.08-.02.15-.02.23-.02.29,0,.57.09.84.23.91.47,1.65,1.52,2.07,1.82.03.03.07.04.13.04.77,0,3.29-2.97,3.29-2.97,0,0,20.58-3.25,25.83-3.25.48,0,.83.03,1.03.09.86.26,1.23.74,1.35,1.25.46.31.78.84,1.03,1.34.29.6.53,1.1.93,1.1.08,0,.16-.01.24-.05.89-.39,2.81-.45,3.72-.47.03,0,.05,0,.07,0,.08,0,.16-.01.25-.01.01,0,.03,0,.05,0h.01s.04,0,.05,0c0,0,.01,0,.02,0,0,0,.06.03.15.06,3.01.76,10.11,5.79,22.52,15.32l.68-.94,5.11-6.95c-19.26-13.05-41.26-19.28-62.91-19.28-33.56,0-66.29,14.98-86.67,42.73C1.75,102.96,11.22,166.08,54.79,203.36c.07.06.16.12.23.19.72.59,1.44,1.22,2.18,1.8.36.29.75.56,1.11.85h0ZM205.9,63.48c-.2-.2-.34-.34-.34-.34.38.27.93.76,1.54,1.33.48.43.93.89,1.39,1.35.3.3.6.61.9.93.33.36.66.7.97,1.07,1.6,1.82,3.08,3.82,3.75,5.46.06.11.12.21.19.32.02.01.02.04.02.04.01.01,0,.02,0,.02.05.06.08.13.12.2.01.19,0,.39.01.58,0,.02.01.04.02.06.05.41.03.88-.03,1.4-.09,1.52-.75,3.58-.75,3.58,0,.31,0,.59.02.81.08.92,1.04,2.01,2.01,2.93,1,.93,2.05,1.69,2.27,1.92h.02s.13.85.13.85l.1.6v.08s4.73,28.12,4.73,28.12l.53,3.11,2.39,14.23h0s.32,1.87.32,1.87c.3,1.83.46,3.67.46,5.51,0,.36-.05.7-.07,1.05,0,2.11-.22,3.02-.2,3.14v.03c-.71,5.58-2.81,10.94-6.21,15.57l-29.12,39.67c-2.14,2.91-4.73,5.41-7.63,7.46-.25.18-.49.38-.73.54-.21.14-.44.25-.65.37-.32.2-.61.42-.93.61-7.24,5.23-15.71,8.71-24.74,9.96l-32.52,4.5c-2.53.35-5.06.53-7.59.53-11.68,0-23.15-3.71-32.68-10.71l-9.58-7.04-1.96,2.66-3.93,5.36c.21.13.42.27.62.41.1.05.19.11.26.16,18.86,11.79,39.89,17.52,60.48,17.52,32.48,0,63.85-14.26,83.86-41.49,32.84-44.76,24.38-110.19-19.74-147.52l-3.62,4.95-2.11,2.87,16.74,12.29c.45.32.84.7,1.28,1.05h0ZM121.2,0c-15.09,0-25.84,2.8-26.29,2.93-.35.09-.65.29-.85.56-27.24,6.2-51.11,21.71-67.33,43.81-.33.44-.65.89-.96,1.33-.3.4-.62.83-.94,1.27C6.74,74.5-.33,105.12,4.9,136.12c4.96,29.37,20.43,56.07,43.76,75.68-1.56.56-5.46,2.29-6.12,5.84-.61,3.32,1.67,6.83,7,10.73,3.9,2.87,7.09,4.26,9.75,4.26,2.48,0,4.47-1.27,5.61-3.59.9-1.8,1.08-3.86,1.12-4.86,19.98,11.95,42.48,18.23,65.38,18.23,37.68,0,71.59-16.75,93.03-45.97.32-.44.63-.87.95-1.31.3-.41.63-.84.96-1.28,16.42-22.38,24.06-50.21,21.53-78.42,0-.07,0-.13,0-.2-.05-1.01-1.26-24.86-14.62-47.83-.03-.06-.08-.12-.12-.17-6.8-12.42-15.6-23.58-26.2-33.2,1.43-.76,3.08-1.97,3.89-3.8.75-1.63,1.02-4.35-1.91-7.88-1.75-2.4-4.78-4.82-8.46-6.76-.04-.02-.21-.1-.25-.11-1.51-.8-2.87-1.32-4.04-1.55-.56-.11-1.1-.17-1.61-.17-1.7,0-3.18.61-4.28,1.75-1.2,1.25-1.78,2.91-2.06,4.33-13.16-8.22-27.47-13.91-42.61-16.93-.19-.18-.44-.31-.71-.37-7.46-1.68-15.44-2.54-23.71-2.54h0ZM56.1,202.35c-.12-.11-.24-.22-.36-.29C12.83,165.33,3.99,102.64,35.71,59.41c19.35-26.33,51.26-42.06,85.37-42.06,21.66,0,42.58,6.24,60.61,18.07l-3.81,5.21c-12.88-9.85-18.67-13.73-21.67-14.56l-.04-.02c-.21-.09-.43-.13-.64-.13h-.35c-1.81.02-2.9.17-3.56.32-.27-.54-.61-1.11-1.1-1.58-.3-.65-.93-1.43-2.24-1.83-.36-.11-.82-.15-1.5-.15-5.32,0-25.24,3.13-26.08,3.26-.38.06-.72.26-.98.55-.63.74-1.36,1.51-1.89,1.99-.43-.44-.98-.94-1.64-1.27-.5-.26-1.03-.41-1.57-.41-.15,0-.31,0-.47.03l-2.31.32c-4.02.2-7.11.62-9.06,1.25l-6.34.73c-.13.01-.25.04-.37.08,0,0-.17.06-.47.19l-8.36,1.16c-.65.09-1.29.23-1.93.36h-.02c-.13,0-.26.02-.39.06l-.47.12c-.45.09-.95.22-1.44.36-.2.02-.39.07-.57.16l-.92.24c-.13.04-.25.09-.37.15-7,2.3-12.98,6.63-17.31,12.52l-8.63,11.75-1.72,2.34c-8.16,10.27-14.4,18.77-18.49,25.2l-.28.37c-1.69,2.31-3.13,4.92-4.26,7.78-.21.49-.42,1-.59,1.47-.39,1.13-.72,2.28-1,3.46-2.9,8.68-3.65,18.17-2.12,27.28l5.43,32.36c2.46,14.67,10.43,27.6,22.42,36.41l7.46,5.48-3.16,4.3-.88,1.19c-.42-.34-.82-.67-1.23-1.01l-.67-.55h0ZM190.15,49.8l1.15-1.58,2.6-3.54c42.49,37.09,50.54,100.08,18.17,144.21-19.06,25.94-49.15,40.83-82.55,40.83-20.71,0-41.1-5.85-59.04-16.92l2.91-3.96,1-1.36,8.29,6.09c9.82,7.21,21.45,11.02,33.63,11.02,2.6,0,5.24-.19,7.81-.54l32.51-4.51c9.13-1.27,17.93-4.81,25.46-10.26.09-.04.31-.18.51-.33l.33-.22.21-.12c.17-.08.32-.17.47-.27.19-.13.39-.28.59-.43l.21-.15c3.09-2.19,5.77-4.82,7.97-7.81l29.12-39.67c3.5-4.77,5.76-10.41,6.52-16.32,0-.08.01-.15.01-.23.08-.61.19-1.55.2-3.14,0-.08.01-.2.03-.33.02-.25.04-.49.04-.73-.01-1.96-.17-3.9-.49-5.77l-.32-1.87-2.39-14.24-.53-3.11-4.72-28.13-.11-.68-.12-.81c-.07-.39-.27-.75-.58-1-.14-.12-.34-.3-.6-.5-.42-.34-1.02-.82-1.6-1.36-1.41-1.33-1.51-1.87-1.52-1.89-.01-.12-.01-.26-.01-.42.19-.62.67-2.34.75-3.73.08-.6.08-1.19.01-1.7,0-.02,0-.03,0-.05v-.02c0-.16,0-.34-.02-.5-.01-.2-.07-.4-.16-.6-.03-.06-.08-.14-.14-.23,0-.01-.01-.03-.03-.05h0c-.05-.1-.1-.19-.16-.28-.78-1.93-2.6-4.24-3.98-5.8-.22-.27-.49-.56-.76-.84l-.24-.27c-.32-.35-.62-.66-.94-.98l-.12-.12c-.43-.44-.88-.88-1.34-1.3-.71-.66-1.26-1.13-1.66-1.42-.07-.05-.14-.09-.21-.13-.24-.2-.47-.4-.73-.58l-15.43-11.33h0Z"/>
        </g>
      </g>
    </g>
  </g>
</svg>