<?xml version="1.0" encoding="UTF-8"?>
<svg xmlns="http://www.w3.org/2000/svg" xmlns:xlink="http://www.w3.org/1999/xlink" viewBox="0 0 294.37 255.26">
  <defs>
    <style>
      .cls-1 {
        fill: url(#_ÂÁ_Ï_ÌÌ_È_ËÂÌÚ_146-10);
      }

      .cls-2 {
        fill: url(#_ÂÁ_Ï_ÌÌ_È_ËÂÌÚ_2064-2);
      }

      .cls-3 {
        fill: url(#_ÂÁ_Ï_ÌÌ_È_ËÂÌÚ_146);
      }

      .cls-4 {
        fill: url(#_ÂÁ_Ï_ÌÌ_È_ËÂÌÚ_150);
      }

      .cls-5 {
        fill: #c3b1cf;
      }

      .cls-5, .cls-6 {
        mix-blend-mode: soft-light;
        opacity: .2;
      }

      .cls-7 {
        fill: #3d2b6b;
      }

      .cls-8 {
        fill: url(#_ÂÁ_Ï_ÌÌ_È_ËÂÌÚ_146-2);
      }

      .cls-9 {
        fill: url(#_ÂÁ_Ï_ÌÌ_È_ËÂÌÚ_146-3);
      }

      .cls-10 {
        fill: url(#_ÂÁ_Ï_ÌÌ_È_ËÂÌÚ_146-8);
      }

      .cls-11 {
        fill: url(#_ÂÁ_Ï_ÌÌ_È_ËÂÌÚ_146-9);
      }

      .cls-12 {
        fill: url(#_ÂÁ_Ï_ÌÌ_È_ËÂÌÚ_146-6);
      }

      .cls-13 {
        fill: url(#_ÂÁ_Ï_ÌÌ_È_ËÂÌÚ_146-7);
      }

      .cls-14 {
        fill: url(#_ÂÁ_Ï_ÌÌ_È_ËÂÌÚ_146-4);
      }

      .cls-15 {
        fill: url(#_ÂÁ_Ï_ÌÌ_È_ËÂÌÚ_146-5);
      }

      .cls-16 {
        fill: url(#_ÂÁ_Ï_ÌÌ_È_ËÂÌÚ_141);
      }

      .cls-16, .cls-17, .cls-18, .cls-19, .cls-20, .cls-21, .cls-22, .cls-23, .cls-24, .cls-25, .cls-26, .cls-27, .cls-28, .cls-29, .cls-30, .cls-31, .cls-32, .cls-33, .cls-34 {
        mix-blend-mode: multiply;
      }

      .cls-16, .cls-17, .cls-19, .cls-20, .cls-21, .cls-22, .cls-23, .cls-24, .cls-30, .cls-31 {
        opacity: .8;
      }

      .cls-17 {
        fill: url(#_ÂÁ_Ï_ÌÌ_È_ËÂÌÚ_265);
      }

      .cls-18 {
        fill: url(#_ÂÁ_Ï_ÌÌ_È_ËÂÌÚ_1343-2);
      }

      .cls-18, .cls-29 {
        opacity: .7;
      }

      .cls-19 {
        fill: url(#_ÂÁ_Ï_ÌÌ_È_ËÂÌÚ_1018-2);
      }

      .cls-20 {
        fill: url(#_ÂÁ_Ï_ÌÌ_È_ËÂÌÚ_1210-6);
      }

      .cls-21 {
        fill: url(#_ÂÁ_Ï_ÌÌ_È_ËÂÌÚ_1210-4);
      }

      .cls-22 {
        fill: url(#_ÂÁ_Ï_ÌÌ_È_ËÂÌÚ_1210-2);
      }

      .cls-23 {
        fill: url(#_ÂÁ_Ï_ÌÌ_È_ËÂÌÚ_1210-5);
      }

      .cls-24 {
        fill: url(#_ÂÁ_Ï_ÌÌ_È_ËÂÌÚ_1210-3);
      }

      .cls-35 {
        isolation: isolate;
      }

      .cls-25 {
        fill: url(#_ÂÁ_Ï_ÌÌ_È_ËÂÌÚ_323);
      }

      .cls-26 {
        fill: url(#_ÂÁ_Ï_ÌÌ_È_ËÂÌÚ_323-2);
      }

      .cls-27 {
        fill: url(#_ÂÁ_Ï_ÌÌ_È_ËÂÌÚ_265-2);
      }

      .cls-28 {
        fill: url(#_ÂÁ_Ï_ÌÌ_È_ËÂÌÚ_265-3);
      }

      .cls-36 {
        fill: #681e26;
      }

      .cls-29 {
        fill: url(#_ÂÁ_Ï_ÌÌ_È_ËÂÌÚ_1343);
      }

      .cls-30 {
        fill: url(#_ÂÁ_Ï_ÌÌ_È_ËÂÌÚ_1210);
      }

      .cls-31 {
        fill: url(#_ÂÁ_Ï_ÌÌ_È_ËÂÌÚ_1018);
      }

      .cls-32 {
        fill: url(#_ÂÁ_Ï_ÌÌ_È_ËÂÌÚ_1263);
      }

      .cls-32, .cls-33 {
        opacity: .6;
      }

      .cls-33 {
        fill: url(#_ÂÁ_Ï_ÌÌ_È_ËÂÌÚ_1325);
      }

      .cls-34 {
        fill: url(#_ÂÁ_Ï_ÌÌ_È_ËÂÌÚ_1900);
      }

      .cls-37 {
        fill: #d36f14;
      }

      .cls-38 {
        fill: url(#_ÂÁ_Ï_ÌÌ_È_ËÂÌÚ_2064);
      }

      .cls-39 {
        fill: url(#_ÂÁ_Ï_ÌÌ_È_ËÂÌÚ_1372);
      }

      .cls-6 {
        fill: #f7b360;
      }

      .cls-40 {
        fill: url(#_ÂÁ_Ï_ÌÌ_È_ËÂÌÚ_36);
      }
    </style>
    <linearGradient id="_ÂÁ_Ï_ÌÌ_È_ËÂÌÚ_1900" data-name="¡ÂÁ˚ÏˇÌÌ˚È „‡‰ËÂÌÚ 1900" x1="147.18" y1="255.26" x2="147.18" y2="26.5" gradientUnits="userSpaceOnUse">
      <stop offset="0" stop-color="#e7a4df"/>
      <stop offset="1" stop-color="#a12a9a"/>
    </linearGradient>
    <linearGradient id="_ÂÁ_Ï_ÌÌ_È_ËÂÌÚ_1372" data-name="¡ÂÁ˚ÏˇÌÌ˚È „‡‰ËÂÌÚ 1372" x1="-673.38" y1="1195.85" x2="-673.38" y2="1019.12" gradientTransform="translate(1248.36 -654.95) rotate(21.85)" gradientUnits="userSpaceOnUse">
      <stop offset="0" stop-color="#201045"/>
      <stop offset=".44" stop-color="#1b0e3c"/>
      <stop offset=".99" stop-color="#120a2a"/>
    </linearGradient>
    <linearGradient id="_ÂÁ_Ï_ÌÌ_È_ËÂÌÚ_150" data-name="¡ÂÁ˚ÏˇÌÌ˚È „‡‰ËÂÌÚ 150" x1="-722" y1="1209.68" x2="-722" y2="1010.07" gradientTransform="translate(1248.36 -654.95) rotate(21.85)" gradientUnits="userSpaceOnUse">
      <stop offset="0" stop-color="#271849"/>
      <stop offset=".36" stop-color="#2d2050"/>
      <stop offset=".94" stop-color="#3f3863"/>
      <stop offset="1" stop-color="#423c66"/>
    </linearGradient>
    <linearGradient id="_ÂÁ_Ï_ÌÌ_È_ËÂÌÚ_146" data-name="¡ÂÁ˚ÏˇÌÌ˚È „‡‰ËÂÌÚ 146" x1="-736.16" y1="1138.97" x2="-728.58" y2="1058.55" gradientTransform="translate(1248.36 -654.95) rotate(21.85)" gradientUnits="userSpaceOnUse">
      <stop offset="0" stop-color="#f19e7c"/>
      <stop offset=".41" stop-color="#f7c68b"/>
      <stop offset=".79" stop-color="#fde397"/>
      <stop offset="1" stop-color="#ffef9c"/>
    </linearGradient>
    <linearGradient id="_ÂÁ_Ï_ÌÌ_È_ËÂÌÚ_146-2" data-name="¡ÂÁ˚ÏˇÌÌ˚È „‡‰ËÂÌÚ 146" x1="-751.94" y1="1137.48" x2="-744.36" y2="1057.04" xlink:href="#_ÂÁ_Ï_ÌÌ_È_ËÂÌÚ_146"/>
    <linearGradient id="_ÂÁ_Ï_ÌÌ_È_ËÂÌÚ_146-3" data-name="¡ÂÁ˚ÏˇÌÌ˚È „‡‰ËÂÌÚ 146" x1="-740.48" y1="1138.55" x2="-732.9" y2="1058.16" xlink:href="#_ÂÁ_Ï_ÌÌ_È_ËÂÌÚ_146"/>
    <linearGradient id="_ÂÁ_Ï_ÌÌ_È_ËÂÌÚ_146-4" data-name="¡ÂÁ˚ÏˇÌÌ˚È „‡‰ËÂÌÚ 146" x1="-714.79" y1="1140.98" x2="-707.21" y2="1060.54" xlink:href="#_ÂÁ_Ï_ÌÌ_È_ËÂÌÚ_146"/>
    <linearGradient id="_ÂÁ_Ï_ÌÌ_È_ËÂÌÚ_146-5" data-name="¡ÂÁ˚ÏˇÌÌ˚È „‡‰ËÂÌÚ 146" x1="-726.7" y1="1139.86" x2="-719.12" y2="1059.44" xlink:href="#_ÂÁ_Ï_ÌÌ_È_ËÂÌÚ_146"/>
    <linearGradient id="_ÂÁ_Ï_ÌÌ_È_ËÂÌÚ_146-6" data-name="¡ÂÁ˚ÏˇÌÌ˚È „‡‰ËÂÌÚ 146" x1="-774.6" y1="1176.42" x2="-782.26" y2="1047.73" xlink:href="#_ÂÁ_Ï_ÌÌ_È_ËÂÌÚ_146"/>
    <linearGradient id="_ÂÁ_Ï_ÌÌ_È_ËÂÌÚ_146-7" data-name="¡ÂÁ˚ÏˇÌÌ˚È „‡‰ËÂÌÚ 146" x1="-774.41" y1="1179.47" x2="-782.25" y2="1047.86" xlink:href="#_ÂÁ_Ï_ÌÌ_È_ËÂÌÚ_146"/>
    <linearGradient id="_ÂÁ_Ï_ÌÌ_È_ËÂÌÚ_146-8" data-name="¡ÂÁ˚ÏˇÌÌ˚È „‡‰ËÂÌÚ 146" x1="5043.51" y1="1399.18" x2="5035.47" y2="1264.15" gradientTransform="translate(5233.83 1149.12) rotate(-153.22) scale(1 -1)" xlink:href="#_ÂÁ_Ï_ÌÌ_È_ËÂÌÚ_146"/>
    <linearGradient id="_ÂÁ_Ï_ÌÌ_È_ËÂÌÚ_1263" data-name="¡ÂÁ˚ÏˇÌÌ˚È „‡‰ËÂÌÚ 1263" x1="-835.5" y1="1102.61" x2="-769.3" y2="1102.61" gradientTransform="translate(1248.36 -654.95) rotate(21.85)" gradientUnits="userSpaceOnUse">
      <stop offset="0" stop-color="#5d0099"/>
      <stop offset=".4" stop-color="#a16bc4"/>
      <stop offset=".82" stop-color="#e4d4ee"/>
      <stop offset="1" stop-color="#fff"/>
    </linearGradient>
    <linearGradient id="_ÂÁ_Ï_ÌÌ_È_ËÂÌÚ_36" data-name="¡ÂÁ˚ÏˇÌÌ˚È „‡‰ËÂÌÚ 36" x1="-849.39" y1="1211.11" x2="-849.39" y2="1050.8" gradientTransform="translate(1248.36 -654.95) rotate(21.85)" gradientUnits="userSpaceOnUse">
      <stop offset="0" stop-color="#831f24"/>
      <stop offset="1" stop-color="#ae570e"/>
    </linearGradient>
    <linearGradient id="_ÂÁ_Ï_ÌÌ_È_ËÂÌÚ_265" data-name="¡ÂÁ˚ÏˇÌÌ˚È „‡‰ËÂÌÚ 265" x1="-850.17" y1="1200.61" x2="-849.47" y2="1063.75" gradientTransform="translate(1248.36 -654.95) rotate(21.85)" gradientUnits="userSpaceOnUse">
      <stop offset="0" stop-color="#f4acd8"/>
      <stop offset="1" stop-color="#a042b3"/>
    </linearGradient>
    <linearGradient id="_ÂÁ_Ï_ÌÌ_È_ËÂÌÚ_323" data-name="¡ÂÁ˚ÏˇÌÌ˚È „‡‰ËÂÌÚ 323" x1="-850.87" y1="1119.11" x2="-839.43" y2="1119.11" gradientTransform="translate(1248.36 -654.95) rotate(21.85)" gradientUnits="userSpaceOnUse">
      <stop offset="0" stop-color="#f6dbff"/>
      <stop offset="1" stop-color="#cf8081"/>
    </linearGradient>
    <linearGradient id="_ÂÁ_Ï_ÌÌ_È_ËÂÌÚ_323-2" data-name="¡ÂÁ˚ÏˇÌÌ˚È „‡‰ËÂÌÚ 323" x1="-854.11" y1="1141.93" x2="-839.32" y2="1141.93" xlink:href="#_ÂÁ_Ï_ÌÌ_È_ËÂÌÚ_323"/>
    <linearGradient id="_ÂÁ_Ï_ÌÌ_È_ËÂÌÚ_2064" data-name="¡ÂÁ˚ÏˇÌÌ˚È „‡‰ËÂÌÚ 2064" x1="-845.36" y1="1076.79" x2="-845.36" y2="1054.88" gradientTransform="translate(1248.36 -654.95) rotate(21.85)" gradientUnits="userSpaceOnUse">
      <stop offset="0" stop-color="#cf6d2e"/>
      <stop offset="1" stop-color="#fc9f7c"/>
    </linearGradient>
    <linearGradient id="_ÂÁ_Ï_ÌÌ_È_ËÂÌÚ_1210" data-name="¡ÂÁ˚ÏˇÌÌ˚È „‡‰ËÂÌÚ 1210" x1="-853.94" y1="1067.42" x2="-860.23" y2="1056.53" gradientTransform="translate(1248.36 -654.95) rotate(21.85)" gradientUnits="userSpaceOnUse">
      <stop offset="0" stop-color="#ae47a8"/>
      <stop offset="1" stop-color="#d3a2ff"/>
    </linearGradient>
    <linearGradient id="_ÂÁ_Ï_ÌÌ_È_ËÂÌÚ_1210-2" data-name="¡ÂÁ˚ÏˇÌÌ˚È „‡‰ËÂÌÚ 1210" x1="-1158.89" y1="1883.06" x2="-1165.5" y2="1871.61" gradientTransform="translate(2216.3 -957.3) rotate(36.03) scale(1 1.09)" xlink:href="#_ÂÁ_Ï_ÌÌ_È_ËÂÌÚ_1210"/>
    <linearGradient id="_ÂÁ_Ï_ÌÌ_È_ËÂÌÚ_1210-3" data-name="¡ÂÁ˚ÏˇÌÌ˚È „‡‰ËÂÌÚ 1210" x1="-1228.07" y1="2203.06" x2="-1234.07" y2="2192.67" gradientTransform="translate(2607.31 -920.9) rotate(42.33) scale(1 1.09)" xlink:href="#_ÂÁ_Ï_ÌÌ_È_ËÂÌÚ_1210"/>
    <linearGradient id="_ÂÁ_Ï_ÌÌ_È_ËÂÌÚ_2064-2" data-name="¡ÂÁ˚ÏˇÌÌ˚È „‡‰ËÂÌÚ 2064" x1="-845.25" y1="1172.59" x2="-845.25" y2="1154.28" xlink:href="#_ÂÁ_Ï_ÌÌ_È_ËÂÌÚ_2064"/>
    <linearGradient id="_ÂÁ_Ï_ÌÌ_È_ËÂÌÚ_1210-4" data-name="¡ÂÁ˚ÏˇÌÌ˚È „‡‰ËÂÌÚ 1210" x1="-853.95" y1="1166.82" x2="-860.23" y2="1155.94" xlink:href="#_ÂÁ_Ï_ÌÌ_È_ËÂÌÚ_1210"/>
    <linearGradient id="_ÂÁ_Ï_ÌÌ_È_ËÂÌÚ_1210-5" data-name="¡ÂÁ˚ÏˇÌÌ˚È „‡‰ËÂÌÚ 1210" x1="-1134.55" y1="1971.38" x2="-1141.15" y2="1959.94" gradientTransform="translate(2216.3 -957.3) rotate(36.03) scale(1 1.09)" xlink:href="#_ÂÁ_Ï_ÌÌ_È_ËÂÌÚ_1210"/>
    <linearGradient id="_ÂÁ_Ï_ÌÌ_È_ËÂÌÚ_1210-6" data-name="¡ÂÁ˚ÏˇÌÌ˚È „‡‰ËÂÌÚ 1210" x1="-1193.29" y1="2288.4" x2="-1199.29" y2="2278.01" gradientTransform="translate(2607.31 -920.9) rotate(42.33) scale(1 1.09)" xlink:href="#_ÂÁ_Ï_ÌÌ_È_ËÂÌÚ_1210"/>
    <linearGradient id="_ÂÁ_Ï_ÌÌ_È_ËÂÌÚ_146-9" data-name="¡ÂÁ˚ÏˇÌÌ˚È „‡‰ËÂÌÚ 146" x1="-539.27" y1="918.52" x2="-547.31" y2="783.5" gradientTransform="translate(962.93 -563.89) rotate(16.92)" xlink:href="#_ÂÁ_Ï_ÌÌ_È_ËÂÌÚ_146"/>
    <linearGradient id="_ÂÁ_Ï_ÌÌ_È_ËÂÌÚ_146-10" data-name="¡ÂÁ˚ÏˇÌÌ˚È „‡‰ËÂÌÚ 146" x1="4828.82" y1="1179.74" x2="4820.97" y2="1047.77" gradientTransform="translate(5090.45 885.81) rotate(-158.15) scale(1 -1)" xlink:href="#_ÂÁ_Ï_ÌÌ_È_ËÂÌÚ_146"/>
    <linearGradient id="_ÂÁ_Ï_ÌÌ_È_ËÂÌÚ_1018" data-name="¡ÂÁ˚ÏˇÌÌ˚È „‡‰ËÂÌÚ 1018" x1="-867.36" y1="1067" x2="-823.36" y2="1067" gradientTransform="translate(1248.36 -654.95) rotate(21.85)" gradientUnits="userSpaceOnUse">
      <stop offset="0" stop-color="#c46a86"/>
      <stop offset="1" stop-color="#af747f"/>
    </linearGradient>
    <linearGradient id="_ÂÁ_Ï_ÌÌ_È_ËÂÌÚ_1018-2" data-name="¡ÂÁ˚ÏˇÌÌ˚È „‡‰ËÂÌÚ 1018" x1="-867.15" y1="1164.96" x2="-823.36" y2="1164.96" xlink:href="#_ÂÁ_Ï_ÌÌ_È_ËÂÌÚ_1018"/>
    <linearGradient id="_ÂÁ_Ï_ÌÌ_È_ËÂÌÚ_1343" data-name="¡ÂÁ˚ÏˇÌÌ˚È „‡‰ËÂÌÚ 1343" x1="-685.87" y1="1760.13" x2="-727.78" y2="1056.42" gradientTransform="translate(1248.36 -654.95) rotate(21.85)" gradientUnits="userSpaceOnUse">
      <stop offset="0" stop-color="#5d0099"/>
      <stop offset=".62" stop-color="#824b95"/>
      <stop offset="1" stop-color="#987594"/>
    </linearGradient>
    <linearGradient id="_ÂÁ_Ï_ÌÌ_È_ËÂÌÚ_1325" data-name="¡ÂÁ˚ÏˇÌÌ˚È „‡‰ËÂÌÚ 1325" x1="-607.7" y1="1099.04" x2="-609" y2="1077.15" gradientTransform="translate(1248.36 -654.95) rotate(21.85)" gradientUnits="userSpaceOnUse">
      <stop offset="0" stop-color="#5d0099"/>
      <stop offset=".69" stop-color="#9466a4"/>
      <stop offset="1" stop-color="#ac90a9"/>
    </linearGradient>
    <linearGradient id="_ÂÁ_Ï_ÌÌ_È_ËÂÌÚ_141" data-name="¡ÂÁ˚ÏˇÌÌ˚È „‡‰ËÂÌÚ 141" x1="-679.96" y1="1186.34" x2="-679.96" y2="1171.24" gradientTransform="translate(1248.36 -654.95) rotate(21.85)" gradientUnits="userSpaceOnUse">
      <stop offset="0" stop-color="#bdbdc2"/>
      <stop offset="1" stop-color="#8914a1"/>
    </linearGradient>
    <linearGradient id="_ÂÁ_Ï_ÌÌ_È_ËÂÌÚ_1343-2" data-name="¡ÂÁ˚ÏˇÌÌ˚È „‡‰ËÂÌÚ 1343" x1="-650.07" y1="1177.24" x2="-650.07" y2="1042.44" xlink:href="#_ÂÁ_Ï_ÌÌ_È_ËÂÌÚ_1343"/>
    <linearGradient id="_ÂÁ_Ï_ÌÌ_È_ËÂÌÚ_265-2" data-name="¡ÂÁ˚ÏˇÌÌ˚È „‡‰ËÂÌÚ 265" x1="-851.13" y1="1172.59" x2="-851.13" y2="1164.12" xlink:href="#_ÂÁ_Ï_ÌÌ_È_ËÂÌÚ_265"/>
    <linearGradient id="_ÂÁ_Ï_ÌÌ_È_ËÂÌÚ_265-3" data-name="¡ÂÁ˚ÏˇÌÌ˚È „‡‰ËÂÌÚ 265" x1="-850.66" y1="1075.2" x2="-850.66" y2="1064.19" xlink:href="#_ÂÁ_Ï_ÌÌ_È_ËÂÌÚ_265"/>
  </defs>
  <g class="cls-35">
    <g id="Layer_2" data-name="Layer 2">
      <g id="_Layer_" data-name="&amp;lt;Layer&amp;gt;">
        <g>
          <path class="cls-34" d="M271.74,108.9s-.01,0-.05,0c-4.68-1.17-9-2.49-11.61-4.04-1.83-1.9-2.99-4.75-2.44-9.01.99-6.07,3.45-13.97-.4-21.43-.2-.6-.48-1.13-.84-1.55-.49-.76-1.04-1.51-1.68-2.25C211.42,20.68,107.17,28.51,83.28,37.84c-1.53.58-2.73,1.19-3.56,1.79-.1.07-.22.3-.34.6-.85-.73-1.78-1.47-2.75-2.18.38-.93.67-1.63.84-2.04.14-.36.07-.77-.1-1.18.02.02.05.04.07.07,0,0-.16-2.97-8.05-6.7-7.89-3.73-10.67-.16-10.67-.16h.05c-.37.19-.7.42-.9.73-.16.23-.48.93-.95,2-.04,0-.08-.01-.12-.02-.41-.02-.8-.03-1.18-.02h-.01c-.97.01-1.82.09-2.6.23-.01,0-.02-.01-.03-.01,0,0,.02.01.03.01-12.23,2.07-3.65,18.37-3.65,18.37l.6-1.5v.02h0c-7.64,19.17-19.43,49.41-29.45,75.26-.23-.02-.45-.06-.69-.07-1.52-.07-2.79-.01-3.89.14-11.73,1.73-1.43,15.38-1.41,15.4-7.48,19.31-12.9,33.38-12.9,33.38,3.01,7.85,15.5,6.21,15.5,6.21,0,0,.59-1.38,1.63-3.85v-.04c2.55-5.94,7.75-18.15,14.06-32.97h0l.02-.05c.42-.98.84-1.97,1.26-2.98,1.85,1.04,3.74,2.27,5.64,3.77-.87,1.34-1.76,2.67-2.68,3.98-.6.88-.3,1.85.76,2.91h0c4.61,8.12,98.25,34.37,123.05,45.51,3.03,1.35,5.69,2.68,8.03,3.95,1.18.67,2.31,1.35,3.36,2.02-4.74,10.24-8.68,18.08-11.25,21.95-1.13,1.79-.45,4.33,1.63,7.28,3.46,6.17,10.51,11.31,18.5,15.34,0,.01.02.02.03.03,20.62,12.53,35.8,10.04,35.8,10.04h-.05c.63-.04,1.15-.11,1.51-.25,6-2.1,28.11-32.58,48.32-76.88.8-1.77,1.6-3.48,2.34-5.16t.01-.03c4.52-9.94,8.2-18.13,11.18-24.88l.09-.22c.85-1.89,1.63-3.71,2.35-5.39,8.51-19.51,10-24.51,10.03-26.83.05-2.24-11.22-4.09-21.01-6.53ZM38.74,127.38h0c6.91-16.23,14.46-33.99,21.06-49.54-.31,1.03-.63,1.79-.63,1.79l2.79-6.56c-.01-.07-.04-.11-.06-.17.55-1.29,1.09-2.57,1.62-3.82,0,.19,0,.3,0,.3l.57-1.34s.08-.3.19-.79c2.01-4.73,3.87-9.12,5.53-13.04,1.09-2.58,2.09-4.93,2.99-7.06l.02-.04c1.39.85,2.78,1.79,4.18,2.89-3.71,16.54-11.89,50.41-32.5,84.5-.18-.18-.32-.35-.51-.54-1.69-1.62-3.72-3.26-6.02-4.79.25-.59.51-1.19.76-1.79ZM82.21,54.79s.93.15,2,.06t0,0h0c1.89-.17,4.26-1.11,2.9-5.05-.33-.94-1.32-2.56-2.79-4.42,1.46-.26,3.35-.21,5.9.4,6.93,1.67-.69,11.97-4.47,12.38-1.26.14-2.97-1.65-4.1-3.92.19.19.38.35.56.55ZM50.12,142.08c-.16-.47-.51-1.12-.95-1.84,5.45-6.59,7.3,2.99,5.29,7.99-1.81,4.53-6.38,1.82-7.85-1.08,1.93-.03,5.01-.7,3.51-5.07ZM68.3,161.85c7.48,2.47,15.81,5.08,24.5,7.83-8.73-2.69-16.93-5.25-24.5-7.83Z"/>
          <path class="cls-39" d="M161,197.5c14.07-21.23,69.92-162.33,69.92-162.33,0,0,23.68,7.75,23.49,25.03-.18,17.28-62.64,133.07-62.64,133.07,0,0-24.04,4.87-30.76,4.23Z"/>
          <path class="cls-4" d="M292.75,90.54c.05-2.24-11.22-4.09-21.01-6.53h-.05c-4.91-1.24-9.45-2.63-12.01-4.27-7.2-4.71,4.89-19.12-3.29-31.76-.49-.77-1.04-1.51-1.68-2.26C211.42-4.21,107.17,3.62,83.28,12.95c-1.53.59-2.73,1.19-3.56,1.79-2.2,1.56-7.65,55.92-42.67,106.41-7.08,10.2,107.36,33.21,138.87,56.9,34,25.57-22.59,6.34-14.07,25.2,8.51,18.83,50.6,28.77,56.58,26.67,6-2.09,28.11-32.57,48.32-76.87.8-1.78,1.6-3.49,2.34-5.17t.01-.03c4.52-9.94,8.2-18.13,11.18-24.87l.09-.23c.85-1.89,1.63-3.7,2.35-5.38,8.51-19.52,10-24.51,10.03-26.84ZM46.24,119.89c7.7-14.42,10.55-2.35,8.22,3.45-2.33,5.83-9.24-.32-8.22-3.45ZM90.22,20.9c6.93,1.67-.69,11.97-4.47,12.38-3.78.4-11.62-16.24,4.47-12.38Z"/>
          <g>
            <path class="cls-3" d="M176.26,51.75c-46.53-12.71-65.99,35.16-56.91,45.22,5.91,6.55,18.61,3.18,12.57,11.98l37.62,15.09c1.71-10.53,5.8.84,14.62.73,13.89-.16,35.86-55.47-7.9-73.02ZM147.29,91.66c-10.39,3.8-20.23-4.31-18.68-10.43,1.56-6.1,17.2-17.65,24.7-10.07,3.68,3.72,1.39,17.78-6.02,20.5ZM156.62,106c-.98-1.11.33-4.14.33-4.14,0,0-1.98,3.61-3.48,3.12-1.49-.48-4.96-1.27-4.82-2.99.13-1.72,8.18-9.07,11.33-7.71,2.99,1.28,2.97,10.96,2.13,12.84-.84,1.88-4.52-.04-5.49-1.14ZM191.46,106.44c-3.1,5.49-15.82,4.56-20.71-5.37-3.47-7.08,4.84-19.48,10.06-19.63,10.67-.29,13.74,19.51,10.64,24.99Z"/>
            <path class="cls-8" d="M137.91,103.67c-3.78-1.32-10.81,4.06-10.31,7.64.51,3.58,5.12,4.97,6.44,4.92,1.32-.06,6.14-11.76,3.87-12.56Z"/>
            <path class="cls-9" d="M140.92,104.88c-1.19.11-5.97,11.01-5.43,13.2.54,2.2,9.48,6.37,10.7,5.57,1.22-.78,11.66-20.38-5.27-18.77Z"/>
            <path class="cls-14" d="M167.98,115.72c3.64,1.65,5.01,10.4,2.17,12.65-2.83,2.24-7.13.05-8.05-.9-.91-.95,3.69-12.74,5.88-11.75Z"/>
            <path class="cls-15" d="M164.98,114.52c.44,1.03-3.3,12.09-5.2,13.3-1.91,1.22-11.25-1.94-11.59-3.36-.19-.78,1.87-7.53,3.76-12.25,1.52-3.79,9.58-5.72,13.04,2.32Z"/>
          </g>
          <path class="cls-12" d="M131.39,56.44s-6.4-10.05-8.72-11.4c-2.32-1.35-11.8,5.4-11.42-8.23.38-13.62,11.5-5.09,11.5-5.09,0,0-1.77-13.29,9.01-11.25,10.79,2.05,13.11,12.19,6.8,14.52-5.71,2.11,4,15.7,4,15.7l-11.16,5.75Z"/>
          <path class="cls-13" d="M131.67,57.36s-6.68-10.97-9-12.32c-2.32-1.35-11.8,5.4-11.42-8.23.38-13.62,11.5-5.09,11.5-5.09,0,0-1.77-13.29,9.01-11.25,10.79,2.05,13.11,12.19,6.8,14.52-5.71,2.11,4,15.7,4,15.7l-10.87,6.67Z"/>
          <path class="cls-10" d="M126.72,115.88s-11.08,3.53-12.92,5.48c-1.85,1.95,2.55,12.73-10.63,9.24-13.17-3.48-2.32-12.36-2.32-12.36,0,0-13.35-1.32-8.9-11.35,4.46-10.02,14.87-9.96,15.69-3.3.75,6.05,16.02.11,16.02.11l3.05,12.18Z"/>
          <path class="cls-32" d="M55.66,120.34c1.21-3.02.36-9.71.36-9.71,15.83-3.82,25.46-22.73,25.46-22.73-11.12,11.87-30.28,19.61-30.28,19.61,0,0,19.94-54.39,23.15-62.38,3.21-7.98,12.93-12.4,23.73-13.92,10.8-1.52,32.32,7.06,32.32,7.06-10.48-7.23-37.57-12.77-32.58-17.75,5-5,42.89-6.31,42.89-6.31-24.1-10.04-52.33,5.34-52.33,5.34,0,0-8.22-3.3-5.11-6.6-1.53.59-2.73,1.19-3.56,1.79-2.2,1.56-7.65,55.92-42.67,106.41,0,0,1.39,1.65,7.72,3.95,6.32,2.33,9.23-.85,24.9.69,15.66,1.56,33.14,8.98,33.14,8.98-25.28-13.31-47.15-14.43-47.15-14.43ZM90.22,20.9c6.93,1.67-.69,11.97-4.47,12.38-3.78.4-11.62-16.24,4.47-12.38ZM46.24,119.89c7.7-14.42,10.55-2.35,8.22,3.45-2.33,5.83-9.24-.32-8.22-3.45Z"/>
          <path class="cls-40" d="M77.48,11.13c-.71,1.76-3.56,8.52-7.66,18.21-14.27,33.73-43.75,102.92-51.06,120.06v.04c-1.06,2.47-1.65,3.85-1.65,3.85,0,0-12.49,1.64-15.5-6.21C1.61,147.07,55.17,8.07,57.88,3.9c1.17-1.83,5.35-1.45,9.56-.1,5.44,1.73,10.94,5.09,10.04,7.33Z"/>
          <path class="cls-17" d="M56.99,24.2c-1.68,2.05-35.86,83.92-35.86,83.92,0,0,10.22,1.89,12.64,5.07l-2.64,7.17s-4.76-7.49-9.6-3.85c-4.87,3.62-14.66,29.42-12.41,33.07,2.26,3.65,7.62,4.11,9.63-.14-1.04,2.47-1.63,3.85-1.63,3.85,0,0-12.49,1.64-15.5-6.21C1.61,147.07,55.17,8.07,57.88,3.9c1.17-1.83,5.35-1.45,9.56-.1,0,0-3.48,7.51-3.59,8.95-.12,1.45,9.75,3.15,9.12,9.13l-3.15,7.45c-4.81-12.81-11.16-7.18-12.82-5.14Z"/>
          <path class="cls-25" d="M61.96,48.18c-6.08-21.22-30.13,44.77-30.13,44.77,0,0,16.02-41.68,23.9-45.19,7.9-3.5,3.43,6.98,3.43,6.98l2.79-6.56Z"/>
          <path class="cls-26" d="M64.1,43.16s3.87-13.55-4.66-15.46c-8.53-1.93-51.66,121.35-51.66,121.35,0,0,36.42-101.86,45.96-112.35,9.54-10.49,9.79,7.8,9.79,7.8l.57-1.34Z"/>
          <path class="cls-6" d="M24.23,115.51c-4.19-2.13-13.44,29.56-14.05,33.5-.61,3.94,6.66,2.67,6.66,2.67,0,0,11.87-24.84,13.68-32.16,1.8-7.33-6.28-4-6.28-4Z"/>
          <path class="cls-6" d="M58.48,53.59c-1.21-8.3-11.44,9.04-11.44,9.04,0,0-15.95,32.18-15.54,34.54.4,2.35,7.25,5.33,7.25,5.33l19.74-48.92Z"/>
          <path class="cls-6" d="M30.2,96.66c.05-.96,18.39-46.46,25.2-51.66,6.8-5.21,6.94-1.03,6.94-1.03,0,0,1.16-9.21-4.08-10.19-5.24-.97-26.9,50.64-28.06,62.88Z"/>
          <path class="cls-38" d="M82.21,29.9c-13.45-14.37-29.46-13.89-29.46-13.89l-3.39,8.44s-9.72-18.46,6.26-18.59v-.02c.4,0,.78.01,1.19.03,10.93.5,19.45,6.22,24.66,11.41,3.19,3.19,5.13,6.17,5.64,7.63,2.12,6.19-4.91,4.98-4.91,4.98Z"/>
          <path class="cls-30" d="M52.98,6.07c6.34,1.95,2.21,9.38,9.12,11.4-3.71-2.04-4-10.44-9.12-11.4Z"/>
          <path class="cls-22" d="M68.7,8.59c5.55,3.69-.36,10.6,5.73,14.51-3.01-3.12-1.08-12.18-5.73-14.51Z"/>
          <path class="cls-24" d="M80.17,16.26c5.09,4.41-1.53,9.01,4.04,13.72-2.65-3.52.29-10.8-4.04-13.72Z"/>
          <path class="cls-2" d="M45.21,122.18c-13.45-14.38-28.59-13.9-28.59-13.9l-2.1,5.41s-10.32-13.67,1.41-15.4c1.09-.15,2.37-.22,3.89-.15,10.6.48,18.94,5.88,24.19,10.94,3.46,3.36,5.59,6.57,6.12,8.11,2.13,6.17-4.91,4.99-4.91,4.99Z"/>
          <path class="cls-21" d="M15.99,98.34c6.33,1.95,2.21,9.37,9.11,11.39-3.71-2.04-4-10.43-9.11-11.39Z"/>
          <path class="cls-23" d="M31.7,100.86c5.55,3.68-.36,10.59,5.72,14.5-3.01-3.12-1.07-12.18-5.72-14.5Z"/>
          <path class="cls-20" d="M43.17,108.52c5.08,4.41-1.54,9.02,4.04,13.72-2.65-3.52.29-10.79-4.04-13.72Z"/>
          <path class="cls-11" d="M167.92,132.41s5.56,10.2,5.55,12.89c-.01,2.68-10.64,7.43,1.29,14.02,11.94,6.58,10.22-7.33,10.22-7.33,0,0,10.57,8.27,14.27-2.06,3.71-10.33-3.87-17.47-9.06-13.22-4.72,3.85-11.66-10.99-11.66-10.99l-10.61,6.69Z"/>
          <path class="cls-1" d="M204.72,86.75s12.45-3.39,15.06-2.77c2.61.62,4.81,12.05,13.94,1.95,9.14-10.11-4.79-11.62-4.79-11.62,0,0,10.46-8.4,1.26-14.37-9.21-5.96-17.91-.23-14.95,5.8,2.68,5.47-13.73,8.58-13.73,8.58l3.21,12.42Z"/>
          <path class="cls-31" d="M82.21,29.9c-13.45-14.37-29.46-13.89-29.46-13.89l-3.39,8.44s-9.72-18.46,6.26-18.59c-6.08,1.62-1.18,7.45.62,7.77,1.72.31.92-3.79.84-4.17.11.3,1.15,2.73,6,5.55,5.18,3.01,8.68.34,8.68.34,0,0,2.09,7.39,6.01,8.44,3.58.97,5.36-3.68,3.71-6.51,3.19,3.19,5.13,6.17,5.64,7.63,2.12,6.19-4.91,4.98-4.91,4.98Z"/>
          <path class="cls-19" d="M45.21,122.18c-13.45-14.38-28.59-13.9-28.59-13.9l-2.1,5.41s-10.32-13.67,1.41-15.4c.04.03.05.04.05.04-7.16,3.3.09,7.84,2.52,7.74,2.31-.12,1.04-4.42.89-4.91.26.39,2.42,3.58,6.68,6.14,4.55,2.75,6.93,3.17,8.31-.33,0,0,3.41,8.42,6.44,8.74,3.05.31,4.96-2.88,3.32-6.21-.08-.15-.13-.3-.13-.43,3.46,3.36,5.59,6.57,6.12,8.11,2.13,6.17-4.91,4.99-4.91,4.99Z"/>
          <path class="cls-29" d="M269.09,147.88c-.74,1.68-1.54,3.39-2.34,5.17-20.2,44.3-42.32,74.78-48.32,76.87-5.97,2.09-48.07-7.84-56.58-26.67-8.53-18.85,48.06.37,14.07-25.2-31.51-23.69-145.95-46.7-138.87-56.9.72,6.14,81.96,28.01,117.99,43.36,20.11,8.56,28.23,12.24,28.23,12.24,18.65-16.65,84.22-116.24,73.11-128.78,8.18,12.64-3.91,27.05,3.29,31.76,2.55,1.65,7.1,3.04,12.01,4.27-1,.06,4.21,12.54-12.92,46.79-20.95,41.86-55.27,63.17-65.21,65.03-5.37,1.01-21.04-2.41-27.87,3.54-6.8,5.95,28.34,33.19,53.92,26.23,0,0,20.04-14.34,49.48-77.71Z"/>
          <path class="cls-33" d="M282.72,117.37c-.73,1.68-1.5,3.49-2.35,5.38.8-1.94,1.59-3.74,2.35-5.38Z"/>
          <path class="cls-5" d="M90.11,35.22c-9.38,4.77-31.57,50.73-31.37,59.15.19,8.41,17.77-2.74,23.52-10.3,5.75-7.56-.06,15.52-13.09,21.62-13.03,6.11-13.21,11.72,4.94,16.95,18.15,5.24,34.22,13.38,34.22,13.38,0,0-18.25-7.32-35.69-8.87-17.42-1.55,6.76,10.12,40.88,21.63,34.12,11.51,55.53,18.78,62.2,23.78,6.67,5,90.78-97.56,63.53-132.57-27.23-35.01-109.69-31.32-109.69-31.32,0,0,15.78.53,21.34,7.87,5.56,7.33-35.83-2.79-46.86,2.3-11.03,5.1,42.04,14.82,50.35,28.01,0,0-46.39-20.73-64.29-11.65Z"/>
          <path class="cls-5" d="M261.5,87.57c-11.08-4.69-35.7,54.16-51.91,87.81-16.21,33.64-30.75,25.77-33.04,30.64-2.29,4.86,38.97,25.83,49.71,13.47,10.74-12.37,58.04-111.65,59.54-122.18,1.5-10.53-24.3-9.75-24.3-9.75Z"/>
          <path class="cls-5" d="M162.18,10.2c-40.68,1.11-46.59,64.91-12.44,99.36,34.16,34.44,102.35-27.92,102.56-58.12.2-30.2-90.12-41.25-90.12-41.25Z"/>
          <path class="cls-16" d="M168.81,182.85c10.69-7.17,8.49,10.94,8.49,10.94,0,0,7.76.37,10.07-2.62,2.3-2.99-14.77-15.52-14.77-15.52l-3.8,7.2Z"/>
          <path class="cls-7" d="M37.81,124.06c4.61,8.11,98.25,34.36,123.05,45.5,24.79,11.14,25.04,19.4,24.14,21.25-.91,1.85-21.11,2.12-23.99,6.69-2.88,4.55,5.84,13.94,20.16,22.64,20.62,12.52,35.8,10.05,35.8,10.05,0,0-19.42-2.53-33.06-10.07-13.65-7.56-24.12-17.95-21.17-21.93,2.96-3.98,22.82-1.7,24.64-7.02,1.81-5.3-9.14-17.86-50.5-32.23-41.36-14.38-77.5-22.4-99.07-34.88Z"/>
          <path class="cls-37" d="M58.72,3.16s12.84-.59,18.72,6.85c0,0-.16-2.96-8.05-6.69-7.89-3.73-10.67-.15-10.67-.15Z"/>
          <path class="cls-18" d="M257.63,70.95c-2.54,19.65-67.36,118.24-67.36,118.24,0,0,23.45-31.73,46.15-68.99,22.32-36.63,34.47-36.4,34.47-36.4,0,0-14.97.5-13.26-12.85Z"/>
          <path class="cls-5" d="M267.26,84.93c-13.69-2.14-52.85,75.15-54.36,100.4-1.5,25.26,50.54-31,65.67-67.57,15.12-36.58-11.31-32.82-11.31-32.82Z"/>
          <path class="cls-27" d="M14.51,113.69c4.88-5.2,10.33-3.52,14.09-1.67,3.77,1.85,4.2,4.39,4.2,4.39l1.32-3.08s-6.06-4.47-14.17-5.67c-8.11-1.22-4.76,1.35-4.76,1.35l-.68,4.68Z"/>
          <path class="cls-28" d="M49.96,22.97c3.08-6.23,12.47-5.32,17.09-2.83,4.61,2.49,4.19,5.83,4.19,5.83l1.73-4.09s-4.75-4.41-15.53-7.34c-10.78-2.94-5.44,3.32-5.44,3.32l-2.05,5.11Z"/>
          <path class="cls-36" d="M62.99,1.62c1.6,0,3.7.42,6.41,1.69,7.89,3.73,8.05,6.7,8.05,6.7-.02-.02-.05-.04-.07-.07.17.42.25.82.1,1.19-.16.41-.46,1.12-.84,2.03.97.72,1.89,1.44,2.75,2.19.12-.31.23-.53.34-.61.83-.6,2.03-1.2,3.56-1.79,9.12-3.56,29.9-6.9,54.56-6.9,39.98,0,90.09,8.79,116.85,39.67.64.75,1.19,1.49,1.68,2.26.36.42.65.94.84,1.55,3.86,7.46,1.39,15.36.4,21.43-.55,4.27.62,7.11,2.44,9.01,2.61,1.55,6.93,2.87,11.61,4.04h.05c9.79,2.44,21.06,4.29,21.01,6.53-.03,2.33-1.52,7.31-10.03,26.84-.73,1.68-1.5,3.49-2.35,5.38l-.09.23c-2.97,6.73-6.65,14.93-11.18,24.87t-.01.03c-.74,1.68-1.54,3.39-2.34,5.17-20.2,44.3-42.32,74.78-48.32,76.87-.36.14-.88.21-1.51.27h.05s-1.22.19-3.45.19c-5.62,0-17.59-1.27-32.35-10.24-.01-.01-.03-.02-.03-.02-7.98-4.02-15.04-9.18-18.5-15.34-2.09-2.95-2.76-5.49-1.63-7.28,2.57-3.87,6.52-11.72,11.25-21.95-1.06-.68-2.18-1.36-3.36-2.04-2.34-1.27-5-2.59-8.03-3.95-24.8-11.14-118.44-37.39-123.05-45.5h0c-1.06-1.06-1.37-2.03-.76-2.91.93-1.33,1.81-2.65,2.68-3.98-1.9-1.49-3.8-2.73-5.64-3.77-.43,1.01-.84,2-1.26,2.97l-.02.04c-6.31,14.82-11.51,27.03-14.05,32.97v.04c-1.06,2.47-1.65,3.85-1.65,3.85,0,0-1.08.14-2.68.14-3.84,0-10.69-.81-12.82-6.35,0,0,5.42-14.07,12.9-33.38-.01-.03-10.31-13.67,1.41-15.4.79-.11,1.68-.18,2.68-.18.38,0,.79,0,1.21.02.24.01.46.06.69.08,10.02-25.84,21.81-56.09,29.45-75.25h0v-.02s-.6,1.5-.6,1.5c0,0-8.57-16.3,3.65-18.37,0,0-.02,0-.03-.01.01,0,.02,0,.03.01.78-.13,1.63-.21,2.6-.22v-.02h.27c.29,0,.6.02.92.03.04,0,.08,0,.12.01.47-1.06.79-1.76.95-1.99.2-.32.53-.55.9-.73h-.05s1.2-1.54,4.26-1.54h0ZM84.21,29.97s0,0,0,0c-.25.02-.49.03-.71.03-.73,0-1.28-.1-1.28-.1-.18-.19-.37-.36-.56-.55,1.09,2.2,2.72,3.94,3.97,3.94.05,0,.09,0,.13-.01,3.78-.41,11.4-10.71,4.47-12.38-1.61-.39-2.97-.55-4.11-.55-.66,0-1.25.06-1.79.16,1.48,1.86,2.46,3.46,2.79,4.41,1.35,3.94-1.02,4.88-2.9,5.05h0ZM63.53,44.5s0-.12,0-.31c-.53,1.26-1.07,2.53-1.62,3.82.02.06.05.11.06.17l-2.79,6.56s.32-.76.63-1.78c-6.6,15.55-14.16,33.31-21.06,49.55h0c-.25.59-.51,1.19-.76,1.78,2.3,1.52,4.33,3.17,6.02,4.79.19.19.33.36.51.54,20.61-34.08,28.79-67.96,32.5-84.49-1.4-1.1-2.79-2.05-4.18-2.9l-.02.04c-.9,2.13-1.9,4.49-2.99,7.07-1.66,3.91-3.52,8.31-5.53,13.03-.11.49-.19.79-.19.79l-.57,1.34h0ZM51.47,125.76c1.18,0,2.28-.68,2.98-2.42,1.52-3.79.83-10.22-1.98-10.22-.89,0-2,.65-3.31,2.24.44.72.79,1.37.95,1.83,1.5,4.37-1.58,5.05-3.51,5.07.91,1.78,2.98,3.5,4.87,3.5h0ZM92.8,144.79c-8.69-2.74-17.03-5.36-24.5-7.82,7.57,2.57,15.78,5.13,24.5,7.82h0ZM62.99,0h0c-3.16,0-4.81,1.38-5.35,1.95-.49.31-.85.65-1.12,1.06-.12.18-.28.46-.62,1.22h-.3s-.1.01-.15.02c-.87.01-1.69.09-2.51.21-.15,0-.31.03-.45.08-3.21.6-5.46,2.15-6.67,4.62-2.61,5.27.67,13.04,1.79,15.37-7.83,19.69-19.48,49.59-28.16,71.99-.29,0-.56-.01-.84-.01-1.04,0-2.02.07-2.91.19-3.35.5-5.53,1.93-6.49,4.25-1.86,4.52,1.96,10.75,3.49,12.98C5.37,132.82.11,146.49.11,146.49c-.14.38-.14.79,0,1.16,2.46,6.44,10.03,7.4,14.32,7.4,1.69,0,2.84-.15,2.9-.16.56-.07,1.04-.45,1.27-.96l1.63-3.86,1-2.34,13.06-30.68.57-1.32c.92.57,1.82,1.17,2.69,1.81-.6.9-1.2,1.8-1.83,2.69-.49.7-1.36,2.56.81,4.84,3.43,5.06,29.09,13.76,70.66,27.39,22.15,7.27,43.09,14.14,52.99,18.58,2.85,1.28,5.52,2.59,7.93,3.9.71.39,1.39.8,2.07,1.23-4.73,10.17-8.27,17.03-10.52,20.44-1.04,1.63-1.57,4.5,1.61,9.02,3.3,5.85,9.74,11.2,19.13,15.92,14.93,9.09,27.17,10.46,33.12,10.46,2.33,0,3.66-.22,3.71-.22.01,0,.01-.01.03-.01.69-.05,1.25-.16,1.71-.32,6.7-2.34,29.21-33.8,49.25-77.72l.93-2.04c.48-1.06.96-2.1,1.41-3.14,4.52-9.94,8.18-18.09,11.19-24.91l.11-.26c.74-1.65,1.45-3.28,2.12-4.82l.23-.54c8.44-19.36,10.12-24.73,10.16-27.44.07-2.9-4.33-4.01-15.19-6.47-2.32-.53-4.73-1.06-7.06-1.65h0s-.11-.02-.17-.03c-3.38-.84-8.09-2.14-10.87-3.73-1.67-1.84-2.27-4.29-1.86-7.52.14-.85.32-1.8.52-2.78,1.08-5.66,2.43-12.7-1.03-19.49-.27-.75-.6-1.36-1.04-1.87-.5-.78-1.07-1.55-1.76-2.34C225.58,9.67,168.92,4.44,137.85,4.44c-25.7,0-46.22,3.51-55.15,7-1.41.55-2.57,1.1-3.46,1.69-.21-.17-.42-.33-.63-.5.16-.37.28-.68.37-.9.23-.58.25-1.21.07-1.88-.1-1.03-1.07-4.25-8.96-7.99-2.6-1.23-4.99-1.85-7.1-1.85h0ZM85.2,31.46c1.82-.35,2.77-1.26,3.25-1.99.84-1.29.91-3,.2-5.07-.22-.64-.65-1.45-1.22-2.35.74.08,1.56.22,2.42.43,1.37.33,1.61.97,1.56,1.83-.19,2.92-4.13,7.19-5.82,7.37-.08-.01-.21-.08-.38-.21h0ZM65.84,42.88l5.46-12.91,2.27-5.34c.57.38,1.12.76,1.64,1.16-4.64,20.47-12.89,50.62-31.04,81.25-1.29-1.16-2.69-2.28-4.19-3.33l.24-.57c6.57-15.43,13.72-32.25,20.09-47.25.14-.14.26-.31.34-.51l2.79-6.56c.08-.2.13-.4.13-.62l1.08-2.55c.15-.15.27-.32.36-.53l.57-1.34c.02-.07.05-.13.07-.21,0,0,.08-.26.18-.7h0ZM51.15,115.58c.67-.65,1.13-.84,1.33-.84h0c.12,0,.31.26.35.31.91,1.36,1.17,5.1.12,7.7-.56,1.4-1.22,1.4-1.48,1.4-.58,0-1.29-.32-1.94-.83.77-.34,1.38-.83,1.83-1.46.92-1.3,1.01-3.05.27-5.19-.1-.31-.27-.66-.49-1.09h0Z"/>
        </g>
      </g>
    </g>
  </g>
</svg>