<?xml version="1.0" encoding="UTF-8"?>
<svg xmlns="http://www.w3.org/2000/svg" xmlns:xlink="http://www.w3.org/1999/xlink" viewBox="0 0 268.54 267.17">
  <defs>
    <style>
      .cls-1 {
        fill: #e9a660;
      }

      .cls-1, .cls-2 {
        opacity: .2;
      }

      .cls-1, .cls-2, .cls-3, .cls-4, .cls-5 {
        mix-blend-mode: soft-light;
      }

      .cls-6 {
        fill: url(#_ÂÁ_Ï_ÌÌ_È_ËÂÌÚ_1011-5);
      }

      .cls-7 {
        fill: url(#_ÂÁ_Ï_ÌÌ_È_ËÂÌÚ_1011-4);
      }

      .cls-8 {
        fill: url(#_ÂÁ_Ï_ÌÌ_È_ËÂÌÚ_1011-2);
      }

      .cls-9 {
        fill: url(#_ÂÁ_Ï_ÌÌ_È_ËÂÌÚ_1011-7);
      }

      .cls-10 {
        fill: url(#_ÂÁ_Ï_ÌÌ_È_ËÂÌÚ_1011-9);
      }

      .cls-11 {
        fill: url(#_ÂÁ_Ï_ÌÌ_È_ËÂÌÚ_1011-3);
      }

      .cls-12 {
        fill: url(#_ÂÁ_Ï_ÌÌ_È_ËÂÌÚ_1011-6);
      }

      .cls-13 {
        fill: url(#_ÂÁ_Ï_ÌÌ_È_ËÂÌÚ_1011-8);
      }

      .cls-2 {
        fill: #ffb060;
      }

      .cls-14 {
        fill: url(#_ÂÁ_Ï_ÌÌ_È_ËÂÌÚ_1027-5);
      }

      .cls-14, .cls-15, .cls-16, .cls-17, .cls-18, .cls-19, .cls-20, .cls-21, .cls-22, .cls-23, .cls-24, .cls-25, .cls-26, .cls-27, .cls-28, .cls-29, .cls-30, .cls-31, .cls-32, .cls-33, .cls-34 {
        mix-blend-mode: multiply;
      }

      .cls-35 {
        fill: url(#_ÂÁ_Ï_ÌÌ_È_ËÂÌÚ_458);
      }

      .cls-36 {
        fill: url(#_ÂÁ_Ï_ÌÌ_È_ËÂÌÚ_262);
      }

      .cls-37 {
        fill: url(#_ÂÁ_Ï_ÌÌ_È_ËÂÌÚ_108);
      }

      .cls-38 {
        fill: url(#_ÂÁ_Ï_ÌÌ_È_ËÂÌÚ_148);
      }

      .cls-39 {
        fill: url(#_ÂÁ_Ï_ÌÌ_È_ËÂÌÚ_754);
      }

      .cls-15 {
        fill: url(#_ÂÁ_Ï_ÌÌ_È_ËÂÌÚ_565-2);
      }

      .cls-15, .cls-16, .cls-17, .cls-18, .cls-19, .cls-20, .cls-21, .cls-22, .cls-23, .cls-24, .cls-25, .cls-26, .cls-27, .cls-28, .cls-29, .cls-30, .cls-31, .cls-32, .cls-33 {
        opacity: .8;
      }

      .cls-16 {
        fill: url(#_ÂÁ_Ï_ÌÌ_È_ËÂÌÚ_565-3);
      }

      .cls-17 {
        fill: url(#_ÂÁ_Ï_ÌÌ_È_ËÂÌÚ_511-3);
      }

      .cls-18 {
        fill: url(#_ÂÁ_Ï_ÌÌ_È_ËÂÌÚ_511-2);
      }

      .cls-19 {
        fill: url(#_ÂÁ_Ï_ÌÌ_È_ËÂÌÚ_720-3);
      }

      .cls-20 {
        fill: url(#_ÂÁ_Ï_ÌÌ_È_ËÂÌÚ_720-4);
      }

      .cls-21 {
        fill: url(#_ÂÁ_Ï_ÌÌ_È_ËÂÌÚ_720-2);
      }

      .cls-22 {
        fill: url(#_ÂÁ_Ï_ÌÌ_È_ËÂÌÚ_640-2);
      }

      .cls-40 {
        fill: url(#_ÂÁ_Ï_ÌÌ_È_ËÂÌÚ_754-5);
      }

      .cls-41 {
        fill: url(#_ÂÁ_Ï_ÌÌ_È_ËÂÌÚ_754-2);
      }

      .cls-42 {
        fill: url(#_ÂÁ_Ï_ÌÌ_È_ËÂÌÚ_754-3);
      }

      .cls-43 {
        fill: url(#_ÂÁ_Ï_ÌÌ_È_ËÂÌÚ_754-4);
      }

      .cls-44 {
        fill: url(#_ÂÁ_Ï_ÌÌ_È_ËÂÌÚ_754-6);
      }

      .cls-45 {
        fill: url(#_ÂÁ_Ï_ÌÌ_È_ËÂÌÚ_148-2);
      }

      .cls-46 {
        fill: url(#_ÂÁ_Ï_ÌÌ_È_ËÂÌÚ_148-3);
      }

      .cls-47 {
        fill: url(#_ÂÁ_Ï_ÌÌ_È_ËÂÌÚ_148-4);
      }

      .cls-48 {
        fill: url(#_ÂÁ_Ï_ÌÌ_È_ËÂÌÚ_108-2);
      }

      .cls-23 {
        fill: url(#_ÂÁ_Ï_ÌÌ_È_ËÂÌÚ_667);
      }

      .cls-24 {
        fill: url(#_ÂÁ_Ï_ÌÌ_È_ËÂÌÚ_640);
      }

      .cls-25 {
        fill: url(#_ÂÁ_Ï_ÌÌ_È_ËÂÌÚ_720);
      }

      .cls-26 {
        fill: url(#_ÂÁ_Ï_ÌÌ_È_ËÂÌÚ_511);
      }

      .cls-27 {
        fill: url(#_ÂÁ_Ï_ÌÌ_È_ËÂÌÚ_515);
      }

      .cls-28 {
        fill: url(#_ÂÁ_Ï_ÌÌ_È_ËÂÌÚ_565);
      }

      .cls-49 {
        fill: url(#_ÂÁ_Ï_ÌÌ_È_ËÂÌÚ_626-2);
      }

      .cls-49, .cls-50, .cls-51, .cls-52, .cls-53, .cls-54, .cls-55, .cls-56, .cls-57, .cls-58, .cls-59, .cls-60, .cls-61, .cls-62, .cls-63, .cls-64, .cls-65, .cls-66, .cls-67, .cls-68 {
        mix-blend-mode: screen;
      }

      .cls-50 {
        fill: url(#_ÂÁ_Ï_ÌÌ_È_ËÂÌÚ_623-5);
      }

      .cls-51 {
        fill: url(#_ÂÁ_Ï_ÌÌ_È_ËÂÌÚ_623-6);
      }

      .cls-52 {
        fill: url(#_ÂÁ_Ï_ÌÌ_È_ËÂÌÚ_623-2);
      }

      .cls-53 {
        fill: url(#_ÂÁ_Ï_ÌÌ_È_ËÂÌÚ_623-3);
      }

      .cls-54 {
        fill: url(#_ÂÁ_Ï_ÌÌ_È_ËÂÌÚ_623-4);
      }

      .cls-55 {
        fill: url(#_ÂÁ_Ï_ÌÌ_È_ËÂÌÚ_624-2);
      }

      .cls-29 {
        fill: url(#_ÂÁ_Ï_ÌÌ_È_ËÂÌÚ_1027-4);
      }

      .cls-30 {
        fill: url(#_ÂÁ_Ï_ÌÌ_È_ËÂÌÚ_1027-3);
      }

      .cls-31 {
        fill: url(#_ÂÁ_Ï_ÌÌ_È_ËÂÌÚ_1027-2);
      }

      .cls-3 {
        fill: #ffd8a2;
      }

      .cls-3, .cls-4, .cls-5 {
        opacity: .3;
      }

      .cls-69 {
        isolation: isolate;
      }

      .cls-56 {
        fill: url(#_ÂÁ_Ï_ÌÌ_È_ËÂÌÚ_1509-6);
      }

      .cls-57 {
        fill: url(#_ÂÁ_Ï_ÌÌ_È_ËÂÌÚ_1509-8);
      }

      .cls-58 {
        fill: url(#_ÂÁ_Ï_ÌÌ_È_ËÂÌÚ_1509-9);
      }

      .cls-59 {
        fill: url(#_ÂÁ_Ï_ÌÌ_È_ËÂÌÚ_1509-4);
      }

      .cls-60 {
        fill: url(#_ÂÁ_Ï_ÌÌ_È_ËÂÌÚ_1509-5);
      }

      .cls-4 {
        fill: #fffb98;
      }

      .cls-70 {
        fill: #fff;
      }

      .cls-5 {
        fill: #fffb60;
      }

      .cls-71 {
        fill: url(#_ÂÁ_Ï_ÌÌ_È_ËÂÌÚ_1011-10);
      }

      .cls-61 {
        fill: url(#_ÂÁ_Ï_ÌÌ_È_ËÂÌÚ_1509);
      }

      .cls-72 {
        fill: #681e26;
      }

      .cls-32 {
        fill: url(#_ÂÁ_Ï_ÌÌ_È_ËÂÌÚ_1026);
      }

      .cls-33 {
        fill: url(#_ÂÁ_Ï_ÌÌ_È_ËÂÌÚ_1027);
      }

      .cls-62 {
        fill: url(#_ÂÁ_Ï_ÌÌ_È_ËÂÌÚ_9);
      }

      .cls-63 {
        fill: url(#_ÂÁ_Ï_ÌÌ_È_ËÂÌÚ_626);
      }

      .cls-64 {
        fill: url(#_ÂÁ_Ï_ÌÌ_È_ËÂÌÚ_623);
      }

      .cls-65 {
        fill: url(#_ÂÁ_Ï_ÌÌ_È_ËÂÌÚ_624);
      }

      .cls-34 {
        fill: url(#_ÂÁ_Ï_ÌÌ_È_ËÂÌÚ_1900);
      }

      .cls-73 {
        fill: url(#_ÂÁ_Ï_ÌÌ_È_ËÂÌÚ_2128);
      }

      .cls-74 {
        fill: url(#_ÂÁ_Ï_ÌÌ_È_ËÂÌÚ_2087);
      }

      .cls-75 {
        fill: url(#_ÂÁ_Ï_ÌÌ_È_ËÂÌÚ_1011);
      }

      .cls-76 {
        fill: url(#_ÂÁ_Ï_ÌÌ_È_ËÂÌÚ_1330);
      }

      .cls-66 {
        fill: url(#_ÂÁ_Ï_ÌÌ_È_ËÂÌÚ_1509-7);
      }

      .cls-66, .cls-67, .cls-68 {
        opacity: .5;
      }

      .cls-67 {
        fill: url(#_ÂÁ_Ï_ÌÌ_È_ËÂÌÚ_1509-2);
      }

      .cls-68 {
        fill: url(#_ÂÁ_Ï_ÌÌ_È_ËÂÌÚ_1509-3);
      }
    </style>
    <linearGradient id="_ÂÁ_Ï_ÌÌ_È_ËÂÌÚ_1900" data-name="¡ÂÁ˚ÏˇÌÌ˚È „‡‰ËÂÌÚ 1900" x1="134.27" y1="267.17" x2="134.27" y2="20.08" gradientUnits="userSpaceOnUse">
      <stop offset="0" stop-color="#e7a4df"/>
      <stop offset="1" stop-color="#a12a9a"/>
    </linearGradient>
    <linearGradient id="_ÂÁ_Ï_ÌÌ_È_ËÂÌÚ_2087" data-name="¡ÂÁ˚ÏˇÌÌ˚È „‡‰ËÂÌÚ 2087" x1="-684.65" y1="1398.92" x2="-684.65" y2="1200.97" gradientTransform="translate(1289.62 -781.01) rotate(23.86)" gradientUnits="userSpaceOnUse">
      <stop offset="0" stop-color="#5e1324"/>
      <stop offset="1" stop-color="#a9450e"/>
    </linearGradient>
    <linearGradient id="_ÂÁ_Ï_ÌÌ_È_ËÂÌÚ_458" data-name="¡ÂÁ˚ÏˇÌÌ˚È „‡‰ËÂÌÚ 458" x1="-689.13" y1="1288.25" x2="-689.13" y2="1185.75" gradientTransform="translate(1289.62 -781.01) rotate(23.86)" gradientUnits="userSpaceOnUse">
      <stop offset="0" stop-color="#e57954"/>
      <stop offset="1" stop-color="#a9450e"/>
    </linearGradient>
    <linearGradient id="_ÂÁ_Ï_ÌÌ_È_ËÂÌÚ_2128" data-name="¡ÂÁ˚ÏˇÌÌ˚È „‡‰ËÂÌÚ 2128" x1="-688.52" y1="1283.66" x2="-688.52" y2="1189.01" gradientTransform="translate(1289.62 -781.01) rotate(23.86)" gradientUnits="userSpaceOnUse">
      <stop offset="0" stop-color="#5e0624"/>
      <stop offset="1" stop-color="#59090e"/>
    </linearGradient>
    <linearGradient id="_ÂÁ_Ï_ÌÌ_È_ËÂÌÚ_1330" data-name="¡ÂÁ˚ÏˇÌÌ˚È „‡‰ËÂÌÚ 1330" x1="-677.05" y1="1285.56" x2="-677.05" y2="1214.35" gradientTransform="translate(1289.62 -781.01) rotate(23.86)" gradientUnits="userSpaceOnUse">
      <stop offset="0" stop-color="#ca3400"/>
      <stop offset="1" stop-color="#ff8e00"/>
    </linearGradient>
    <linearGradient id="_ÂÁ_Ï_ÌÌ_È_ËÂÌÚ_1011" data-name="¡ÂÁ˚ÏˇÌÌ˚È „‡‰ËÂÌÚ 1011" x1="-926.95" y1="2440.04" x2="-890.96" y2="2410.43" gradientTransform="translate(2603.69 -862.83) rotate(48.1)" gradientUnits="userSpaceOnUse">
      <stop offset="0" stop-color="#a70b00"/>
      <stop offset="1" stop-color="#ff8e00"/>
    </linearGradient>
    <linearGradient id="_ÂÁ_Ï_ÌÌ_È_ËÂÌÚ_754" data-name="¡ÂÁ˚ÏˇÌÌ˚È „‡‰ËÂÌÚ 754" x1="-928.78" y1="2430.96" x2="-899.23" y2="2408.46" gradientTransform="translate(2603.69 -862.83) rotate(48.1)" gradientUnits="userSpaceOnUse">
      <stop offset="0" stop-color="#f80"/>
      <stop offset="1" stop-color="#ffca00"/>
    </linearGradient>
    <linearGradient id="_ÂÁ_Ï_ÌÌ_È_ËÂÌÚ_1509" data-name="¡ÂÁ˚ÏˇÌÌ˚È „‡‰ËÂÌÚ 1509" x1="-927.16" y1="2448.49" x2="-905.49" y2="2403.46" gradientTransform="translate(2603.69 -862.83) rotate(48.1)" gradientUnits="userSpaceOnUse">
      <stop offset="0" stop-color="#000"/>
      <stop offset="1" stop-color="#ffff40"/>
    </linearGradient>
    <linearGradient id="_ÂÁ_Ï_ÌÌ_È_ËÂÌÚ_1011-2" data-name="¡ÂÁ˚ÏˇÌÌ˚È „‡‰ËÂÌÚ 1011" x1="-727.96" y1="1392.48" x2="-691.98" y2="1362.87" gradientTransform="translate(1448.71 -796.93) rotate(26.99)" xlink:href="#_ÂÁ_Ï_ÌÌ_È_ËÂÌÚ_1011"/>
    <linearGradient id="_ÂÁ_Ï_ÌÌ_È_ËÂÌÚ_148" data-name="¡ÂÁ˚ÏˇÌÌ˚È „‡‰ËÂÌÚ 148" x1="-729.8" y1="1383.39" x2="-700.25" y2="1360.9" gradientTransform="translate(1448.71 -796.93) rotate(26.99)" gradientUnits="userSpaceOnUse">
      <stop offset="0" stop-color="#f80"/>
      <stop offset="1" stop-color="#ff8200"/>
    </linearGradient>
    <linearGradient id="_ÂÁ_Ï_ÌÌ_È_ËÂÌÚ_1011-3" data-name="¡ÂÁ˚ÏˇÌÌ˚È „‡‰ËÂÌÚ 1011" x1="-736.6" y1="1251.43" x2="-707.48" y2="1227.47" gradientTransform="translate(1289.62 -781.01) rotate(23.86)" xlink:href="#_ÂÁ_Ï_ÌÌ_È_ËÂÌÚ_1011"/>
    <linearGradient id="_ÂÁ_Ï_ÌÌ_È_ËÂÌÚ_148-2" data-name="¡ÂÁ˚ÏˇÌÌ˚È „‡‰ËÂÌÚ 148" x1="-733.62" y1="1244.7" x2="-710.78" y2="1227.32" gradientTransform="translate(1289.62 -781.01) rotate(23.86)" xlink:href="#_ÂÁ_Ï_ÌÌ_È_ËÂÌÚ_148"/>
    <linearGradient id="_ÂÁ_Ï_ÌÌ_È_ËÂÌÚ_1509-2" data-name="¡ÂÁ˚ÏˇÌÌ˚È „‡‰ËÂÌÚ 1509" x1="-728.19" y1="1400.93" x2="-706.51" y2="1355.89" gradientTransform="translate(1448.71 -796.93) rotate(26.99)" xlink:href="#_ÂÁ_Ï_ÌÌ_È_ËÂÌÚ_1509"/>
    <linearGradient id="_ÂÁ_Ï_ÌÌ_È_ËÂÌÚ_720" data-name="¡ÂÁ˚ÏˇÌÌ˚È „‡‰ËÂÌÚ 720" x1="-685.56" y1="1398.92" x2="-685.56" y2="1332.96" gradientTransform="translate(1289.62 -781.01) rotate(23.86)" gradientUnits="userSpaceOnUse">
      <stop offset="0" stop-color="#a12a9a"/>
      <stop offset=".8" stop-color="#e3c2cf"/>
    </linearGradient>
    <linearGradient id="_ÂÁ_Ï_ÌÌ_È_ËÂÌÚ_1011-4" data-name="¡ÂÁ˚ÏˇÌÌ˚È „‡‰ËÂÌÚ 1011" x1="-718.74" y1="1289.61" x2="-688.22" y2="1264.5" gradientTransform="translate(1289.62 -781.01) rotate(23.86)" xlink:href="#_ÂÁ_Ï_ÌÌ_È_ËÂÌÚ_1011"/>
    <linearGradient id="_ÂÁ_Ï_ÌÌ_È_ËÂÌÚ_148-3" data-name="¡ÂÁ˚ÏˇÌÌ˚È „‡‰ËÂÌÚ 148" x1="-858.48" y1="3210.24" x2="-828.94" y2="3187.75" gradientTransform="translate(3361.65 -610.43) rotate(62.85)" xlink:href="#_ÂÁ_Ï_ÌÌ_È_ËÂÌÚ_148"/>
    <linearGradient id="_ÂÁ_Ï_ÌÌ_È_ËÂÌÚ_1509-3" data-name="¡ÂÁ˚ÏˇÌÌ˚È „‡‰ËÂÌÚ 1509" x1="-856.88" y1="3227.77" x2="-835.2" y2="3182.74" gradientTransform="translate(3361.65 -610.43) rotate(62.85)" xlink:href="#_ÂÁ_Ï_ÌÌ_È_ËÂÌÚ_1509"/>
    <linearGradient id="_ÂÁ_Ï_ÌÌ_È_ËÂÌÚ_1011-5" data-name="¡ÂÁ˚ÏˇÌÌ˚È „‡‰ËÂÌÚ 1011" x1="-748.14" y1="3482.54" x2="-712.16" y2="3452.93" gradientTransform="translate(3653.5 -511.2) rotate(68.38)" xlink:href="#_ÂÁ_Ï_ÌÌ_È_ËÂÌÚ_1011"/>
    <linearGradient id="_ÂÁ_Ï_ÌÌ_È_ËÂÌÚ_754-2" data-name="¡ÂÁ˚ÏˇÌÌ˚È „‡‰ËÂÌÚ 754" x1="-749.97" y1="3473.45" x2="-720.42" y2="3450.96" gradientTransform="translate(3653.5 -511.2) rotate(68.38)" xlink:href="#_ÂÁ_Ï_ÌÌ_È_ËÂÌÚ_754"/>
    <linearGradient id="_ÂÁ_Ï_ÌÌ_È_ËÂÌÚ_1509-4" data-name="¡ÂÁ˚ÏˇÌÌ˚È „‡‰ËÂÌÚ 1509" x1="-748.36" y1="3490.99" x2="-726.68" y2="3445.95" gradientTransform="translate(3653.5 -511.2) rotate(68.38)" xlink:href="#_ÂÁ_Ï_ÌÌ_È_ËÂÌÚ_1509"/>
    <linearGradient id="_ÂÁ_Ï_ÌÌ_È_ËÂÌÚ_1011-6" data-name="¡ÂÁ˚ÏˇÌÌ˚È „‡‰ËÂÌÚ 1011" x1="-745.32" y1="3502.44" x2="-709.34" y2="3472.84" gradientTransform="translate(3653.5 -511.2) rotate(68.38)" xlink:href="#_ÂÁ_Ï_ÌÌ_È_ËÂÌÚ_1011"/>
    <linearGradient id="_ÂÁ_Ï_ÌÌ_È_ËÂÌÚ_754-3" data-name="¡ÂÁ˚ÏˇÌÌ˚È „‡‰ËÂÌÚ 754" x1="-747.15" y1="3493.36" x2="-717.6" y2="3470.87" gradientTransform="translate(3653.5 -511.2) rotate(68.38)" xlink:href="#_ÂÁ_Ï_ÌÌ_È_ËÂÌÚ_754"/>
    <linearGradient id="_ÂÁ_Ï_ÌÌ_È_ËÂÌÚ_1509-5" data-name="¡ÂÁ˚ÏˇÌÌ˚È „‡‰ËÂÌÚ 1509" x1="-745.54" y1="3510.89" x2="-723.86" y2="3465.86" gradientTransform="translate(3653.5 -511.2) rotate(68.38)" xlink:href="#_ÂÁ_Ï_ÌÌ_È_ËÂÌÚ_1509"/>
    <linearGradient id="_ÂÁ_Ï_ÌÌ_È_ËÂÌÚ_515" data-name="¡ÂÁ˚ÏˇÌÌ˚È „‡‰ËÂÌÚ 515" x1="-685.82" y1="1362.1" x2="-685.82" y2="1266.25" gradientTransform="translate(1289.62 -781.01) rotate(23.86)" gradientUnits="userSpaceOnUse">
      <stop offset=".2" stop-color="#e3c2cf"/>
      <stop offset="1" stop-color="#a12a9a"/>
    </linearGradient>
    <linearGradient id="_ÂÁ_Ï_ÌÌ_È_ËÂÌÚ_1027" data-name="¡ÂÁ˚ÏˇÌÌ˚È „‡‰ËÂÌÚ 1027" x1="-694.39" y1="1312.58" x2="-694.39" y2="1217.19" gradientTransform="translate(1289.62 -781.01) rotate(23.86)" gradientUnits="userSpaceOnUse">
      <stop offset="0" stop-color="#a12a9a"/>
      <stop offset="1" stop-color="#e3c2cf"/>
    </linearGradient>
    <linearGradient id="_ÂÁ_Ï_ÌÌ_È_ËÂÌÚ_720-2" data-name="¡ÂÁ˚ÏˇÌÌ˚È „‡‰ËÂÌÚ 720" x1="-606.36" y1="1212.91" x2="-606.36" y2="1188.47" xlink:href="#_ÂÁ_Ï_ÌÌ_È_ËÂÌÚ_720"/>
    <linearGradient id="_ÂÁ_Ï_ÌÌ_È_ËÂÌÚ_720-3" data-name="¡ÂÁ˚ÏˇÌÌ˚È „‡‰ËÂÌÚ 720" x1="-704.03" y1="1233.83" x2="-704.03" y2="1189.83" xlink:href="#_ÂÁ_Ï_ÌÌ_È_ËÂÌÚ_720"/>
    <linearGradient id="_ÂÁ_Ï_ÌÌ_È_ËÂÌÚ_1027-2" data-name="¡ÂÁ˚ÏˇÌÌ˚È „‡‰ËÂÌÚ 1027" x1="-742.96" y1="1299.95" x2="-742.96" y2="1246.76" xlink:href="#_ÂÁ_Ï_ÌÌ_È_ËÂÌÚ_1027"/>
    <linearGradient id="_ÂÁ_Ï_ÌÌ_È_ËÂÌÚ_262" data-name="¡ÂÁ˚ÏˇÌÌ˚È „‡‰ËÂÌÚ 262" x1="-682.42" y1="1320.49" x2="-682.42" y2="1240.17" gradientTransform="translate(1289.62 -781.01) rotate(23.86)" gradientUnits="userSpaceOnUse">
      <stop offset="0" stop-color="#b3542e"/>
      <stop offset="1" stop-color="#fc9f7c"/>
    </linearGradient>
    <linearGradient id="_ÂÁ_Ï_ÌÌ_È_ËÂÌÚ_667" data-name="¡ÂÁ˚ÏˇÌÌ˚È „‡‰ËÂÌÚ 667" x1="-774.74" y1="1280.33" x2="-590.1" y2="1280.33" gradientTransform="translate(1289.62 -781.01) rotate(23.86)" gradientUnits="userSpaceOnUse">
      <stop offset="0" stop-color="#902a74"/>
      <stop offset="1" stop-color="#e3936a"/>
    </linearGradient>
    <linearGradient id="_ÂÁ_Ï_ÌÌ_È_ËÂÌÚ_108" data-name="¡ÂÁ˚ÏˇÌÌ˚È „‡‰ËÂÌÚ 108" x1="-724.58" y1="1282.51" x2="-724.58" y2="1244.78" gradientTransform="translate(1289.62 -781.01) rotate(23.86)" gradientUnits="userSpaceOnUse">
      <stop offset="0" stop-color="#ca340e"/>
      <stop offset="1" stop-color="#5e0624"/>
    </linearGradient>
    <linearGradient id="_ÂÁ_Ï_ÌÌ_È_ËÂÌÚ_108-2" data-name="¡ÂÁ˚ÏˇÌÌ˚È „‡‰ËÂÌÚ 108" x1="-624.96" y1="1263.26" x2="-624.96" y2="1233.89" xlink:href="#_ÂÁ_Ï_ÌÌ_È_ËÂÌÚ_108"/>
    <linearGradient id="_ÂÁ_Ï_ÌÌ_È_ËÂÌÚ_565" data-name="¡ÂÁ˚ÏˇÌÌ˚È „‡‰ËÂÌÚ 565" x1="-704.92" y1="1279.78" x2="-704.92" y2="1227.68" gradientTransform="translate(1289.62 -781.01) rotate(23.86)" gradientUnits="userSpaceOnUse">
      <stop offset="0" stop-color="#ee9fff"/>
      <stop offset="1" stop-color="#8d009a"/>
    </linearGradient>
    <linearGradient id="_ÂÁ_Ï_ÌÌ_È_ËÂÌÚ_1011-7" data-name="¡ÂÁ˚ÏˇÌÌ˚È „‡‰ËÂÌÚ 1011" x1="-967.79" y1="2510.01" x2="-931.8" y2="2480.4" gradientTransform="translate(2652.47 -862.58) rotate(48.87)" xlink:href="#_ÂÁ_Ï_ÌÌ_È_ËÂÌÚ_1011"/>
    <linearGradient id="_ÂÁ_Ï_ÌÌ_È_ËÂÌÚ_754-4" data-name="¡ÂÁ˚ÏˇÌÌ˚È „‡‰ËÂÌÚ 754" x1="-969.61" y1="2500.93" x2="-940.07" y2="2478.44" gradientTransform="translate(2652.47 -862.58) rotate(48.87)" xlink:href="#_ÂÁ_Ï_ÌÌ_È_ËÂÌÚ_754"/>
    <linearGradient id="_ÂÁ_Ï_ÌÌ_È_ËÂÌÚ_1509-6" data-name="¡ÂÁ˚ÏˇÌÌ˚È „‡‰ËÂÌÚ 1509" x1="-968.01" y1="2518.46" x2="-946.33" y2="2473.43" gradientTransform="translate(2652.47 -862.58) rotate(48.87)" xlink:href="#_ÂÁ_Ï_ÌÌ_È_ËÂÌÚ_1509"/>
    <linearGradient id="_ÂÁ_Ï_ÌÌ_È_ËÂÌÚ_565-2" data-name="¡ÂÁ˚ÏˇÌÌ˚È „‡‰ËÂÌÚ 565" x1="-656.01" y1="1283.17" x2="-656.01" y2="1234.86" xlink:href="#_ÂÁ_Ï_ÌÌ_È_ËÂÌÚ_565"/>
    <linearGradient id="_ÂÁ_Ï_ÌÌ_È_ËÂÌÚ_626" data-name="¡ÂÁ˚ÏˇÌÌ˚È „‡‰ËÂÌÚ 626" x1="-700.26" y1="1269.24" x2="-679.58" y2="1252.22" gradientTransform="translate(1289.62 -781.01) rotate(23.86)" gradientUnits="userSpaceOnUse">
      <stop offset="0" stop-color="#ffff75"/>
      <stop offset="1" stop-color="#000"/>
    </linearGradient>
    <linearGradient id="_ÂÁ_Ï_ÌÌ_È_ËÂÌÚ_9" data-name="¡ÂÁ˚ÏˇÌÌ˚È „‡‰ËÂÌÚ 9" x1="-705.82" y1="1229.46" x2="-692.37" y2="1218.4" gradientTransform="translate(1289.62 -781.01) rotate(23.86)" gradientUnits="userSpaceOnUse">
      <stop offset="0" stop-color="#000"/>
      <stop offset="1" stop-color="#ffff75"/>
    </linearGradient>
    <linearGradient id="_ÂÁ_Ï_ÌÌ_È_ËÂÌÚ_626-2" data-name="¡ÂÁ˚ÏˇÌÌ˚È „‡‰ËÂÌÚ 626" x1="-650.28" y1="1232.89" x2="-650.28" y2="1214.49" xlink:href="#_ÂÁ_Ï_ÌÌ_È_ËÂÌÚ_626"/>
    <linearGradient id="_ÂÁ_Ï_ÌÌ_È_ËÂÌÚ_623" data-name="¡ÂÁ˚ÏˇÌÌ˚È „‡‰ËÂÌÚ 623" x1="-686.48" y1="1277.18" x2="-686.48" y2="1269.41" gradientTransform="translate(1289.62 -781.01) rotate(23.86)" gradientUnits="userSpaceOnUse">
      <stop offset="0" stop-color="#000"/>
      <stop offset="1" stop-color="#ffa711"/>
    </linearGradient>
    <linearGradient id="_ÂÁ_Ï_ÌÌ_È_ËÂÌÚ_623-2" data-name="¡ÂÁ˚ÏˇÌÌ˚È „‡‰ËÂÌÚ 623" x1="-689.65" y1="1239.85" x2="-689.65" y2="1231.06" xlink:href="#_ÂÁ_Ï_ÌÌ_È_ËÂÌÚ_623"/>
    <linearGradient id="_ÂÁ_Ï_ÌÌ_È_ËÂÌÚ_623-3" data-name="¡ÂÁ˚ÏˇÌÌ˚È „‡‰ËÂÌÚ 623" x1="-644.08" y1="1237.47" x2="-644.08" y2="1229.58" xlink:href="#_ÂÁ_Ï_ÌÌ_È_ËÂÌÚ_623"/>
    <linearGradient id="_ÂÁ_Ï_ÌÌ_È_ËÂÌÚ_640" data-name="¡ÂÁ˚ÏˇÌÌ˚È „‡‰ËÂÌÚ 640" x1="-736.8" y1="1371.97" x2="-736.8" y2="1334.83" gradientTransform="translate(1289.62 -781.01) rotate(23.86)" gradientUnits="userSpaceOnUse">
      <stop offset="0" stop-color="#a12a9a"/>
      <stop offset="1" stop-color="#f5eaee"/>
    </linearGradient>
    <linearGradient id="_ÂÁ_Ï_ÌÌ_È_ËÂÌÚ_1026" data-name="¡ÂÁ˚ÏˇÌÌ˚È „‡‰ËÂÌÚ 1026" x1="-762.49" y1="1315.28" x2="-762.49" y2="1279.71" gradientTransform="translate(1289.62 -781.01) rotate(23.86)" gradientUnits="userSpaceOnUse">
      <stop offset="0" stop-color="#e3c2cf"/>
      <stop offset="1" stop-color="#a12a9a"/>
    </linearGradient>
    <linearGradient id="_ÂÁ_Ï_ÌÌ_È_ËÂÌÚ_1027-3" data-name="¡ÂÁ˚ÏˇÌÌ˚È „‡‰ËÂÌÚ 1027" x1="-747.05" y1="1314.22" x2="-658.48" y2="1314.22" xlink:href="#_ÂÁ_Ï_ÌÌ_È_ËÂÌÚ_1027"/>
    <linearGradient id="_ÂÁ_Ï_ÌÌ_È_ËÂÌÚ_1027-4" data-name="¡ÂÁ˚ÏˇÌÌ˚È „‡‰ËÂÌÚ 1027" x1="-637.5" y1="1304.24" x2="-622.91" y2="1304.24" xlink:href="#_ÂÁ_Ï_ÌÌ_È_ËÂÌÚ_1027"/>
    <linearGradient id="_ÂÁ_Ï_ÌÌ_È_ËÂÌÚ_720-4" data-name="¡ÂÁ˚ÏˇÌÌ˚È „‡‰ËÂÌÚ 720" x1="-789.58" y1="1356.26" x2="-750.5" y2="1356.26" xlink:href="#_ÂÁ_Ï_ÌÌ_È_ËÂÌÚ_720"/>
    <linearGradient id="_ÂÁ_Ï_ÌÌ_È_ËÂÌÚ_1027-5" data-name="¡ÂÁ˚ÏˇÌÌ˚È „‡‰ËÂÌÚ 1027" x1="-626.37" y1="1368.55" x2="-579.19" y2="1368.55" xlink:href="#_ÂÁ_Ï_ÌÌ_È_ËÂÌÚ_1027"/>
    <linearGradient id="_ÂÁ_Ï_ÌÌ_È_ËÂÌÚ_1011-8" data-name="¡ÂÁ˚ÏˇÌÌ˚È „‡‰ËÂÌÚ 1011" x1="-858.53" y1="3118.5" x2="-817.13" y2="3084.43" gradientTransform="translate(3225.09 -626.38) rotate(59.34)" xlink:href="#_ÂÁ_Ï_ÌÌ_È_ËÂÌÚ_1011"/>
    <linearGradient id="_ÂÁ_Ï_ÌÌ_È_ËÂÌÚ_148-4" data-name="¡ÂÁ˚ÏˇÌÌ˚È „‡‰ËÂÌÚ 148" x1="-860.63" y1="3108.05" x2="-826.64" y2="3082.17" gradientTransform="translate(3225.09 -626.38) rotate(59.34)" xlink:href="#_ÂÁ_Ï_ÌÌ_È_ËÂÌÚ_148"/>
    <linearGradient id="_ÂÁ_Ï_ÌÌ_È_ËÂÌÚ_1509-7" data-name="¡ÂÁ˚ÏˇÌÌ˚È „‡‰ËÂÌÚ 1509" x1="-858.78" y1="3128.22" x2="-833.84" y2="3076.41" gradientTransform="translate(3225.09 -626.38) rotate(59.34)" xlink:href="#_ÂÁ_Ï_ÌÌ_È_ËÂÌÚ_1509"/>
    <linearGradient id="_ÂÁ_Ï_ÌÌ_È_ËÂÌÚ_1011-9" data-name="¡ÂÁ˚ÏˇÌÌ˚È „‡‰ËÂÌÚ 1011" x1="-891.92" y1="2424.42" x2="-850.52" y2="2390.36" gradientTransform="translate(2397.63 -866.42) rotate(45.31)" xlink:href="#_ÂÁ_Ï_ÌÌ_È_ËÂÌÚ_1011"/>
    <linearGradient id="_ÂÁ_Ï_ÌÌ_È_ËÂÌÚ_754-5" data-name="¡ÂÁ˚ÏˇÌÌ˚È „‡‰ËÂÌÚ 754" x1="-894.03" y1="2413.97" x2="-860.04" y2="2388.09" gradientTransform="translate(2397.63 -866.42) rotate(45.31)" xlink:href="#_ÂÁ_Ï_ÌÌ_È_ËÂÌÚ_754"/>
    <linearGradient id="_ÂÁ_Ï_ÌÌ_È_ËÂÌÚ_1509-8" data-name="¡ÂÁ˚ÏˇÌÌ˚È „‡‰ËÂÌÚ 1509" x1="-892.19" y1="2434.14" x2="-867.25" y2="2382.33" gradientTransform="translate(2397.63 -866.42) rotate(45.31)" xlink:href="#_ÂÁ_Ï_ÌÌ_È_ËÂÌÚ_1509"/>
    <linearGradient id="_ÂÁ_Ï_ÌÌ_È_ËÂÌÚ_624" data-name="¡ÂÁ˚ÏˇÌÌ˚È „‡‰ËÂÌÚ 624" x1="-707.92" y1="1396.63" x2="-707.92" y2="1377.03" gradientTransform="translate(1289.62 -781.01) rotate(23.86)" gradientUnits="userSpaceOnUse">
      <stop offset="0" stop-color="#ffa711"/>
      <stop offset="1" stop-color="#000"/>
    </linearGradient>
    <linearGradient id="_ÂÁ_Ï_ÌÌ_È_ËÂÌÚ_623-4" data-name="¡ÂÁ˚ÏˇÌÌ˚È „‡‰ËÂÌÚ 623" x1="-698.44" y1="1401.68" x2="-698.44" y2="1391.89" xlink:href="#_ÂÁ_Ï_ÌÌ_È_ËÂÌÚ_623"/>
    <linearGradient id="_ÂÁ_Ï_ÌÌ_È_ËÂÌÚ_623-5" data-name="¡ÂÁ˚ÏˇÌÌ˚È „‡‰ËÂÌÚ 623" x1="-633.87" y1="1406.95" x2="-633.87" y2="1396.77" xlink:href="#_ÂÁ_Ï_ÌÌ_È_ËÂÌÚ_623"/>
    <linearGradient id="_ÂÁ_Ï_ÌÌ_È_ËÂÌÚ_565-3" data-name="¡ÂÁ˚ÏˇÌÌ˚È „‡‰ËÂÌÚ 565" x1="-654.08" y1="1399.39" x2="-654.08" y2="1380.22" xlink:href="#_ÂÁ_Ï_ÌÌ_È_ËÂÌÚ_565"/>
    <linearGradient id="_ÂÁ_Ï_ÌÌ_È_ËÂÌÚ_1011-10" data-name="¡ÂÁ˚ÏˇÌÌ˚È „‡‰ËÂÌÚ 1011" x1="-646.42" y1="3568.78" x2="-605.03" y2="3534.71" gradientTransform="translate(3653.5 -511.2) rotate(68.38)" xlink:href="#_ÂÁ_Ï_ÌÌ_È_ËÂÌÚ_1011"/>
    <linearGradient id="_ÂÁ_Ï_ÌÌ_È_ËÂÌÚ_754-6" data-name="¡ÂÁ˚ÏˇÌÌ˚È „‡‰ËÂÌÚ 754" x1="-648.53" y1="3558.33" x2="-614.53" y2="3532.45" gradientTransform="translate(3653.5 -511.2) rotate(68.38)" xlink:href="#_ÂÁ_Ï_ÌÌ_È_ËÂÌÚ_754"/>
    <linearGradient id="_ÂÁ_Ï_ÌÌ_È_ËÂÌÚ_1509-9" data-name="¡ÂÁ˚ÏˇÌÌ˚È „‡‰ËÂÌÚ 1509" x1="-646.68" y1="3578.5" x2="-621.74" y2="3526.69" gradientTransform="translate(3653.5 -511.2) rotate(68.38)" xlink:href="#_ÂÁ_Ï_ÌÌ_È_ËÂÌÚ_1509"/>
    <linearGradient id="_ÂÁ_Ï_ÌÌ_È_ËÂÌÚ_624-2" data-name="¡ÂÁ˚ÏˇÌÌ˚È „‡‰ËÂÌÚ 624" x1="-659.28" y1="1387.43" x2="-659.28" y2="1366.05" xlink:href="#_ÂÁ_Ï_ÌÌ_È_ËÂÌÚ_624"/>
    <linearGradient id="_ÂÁ_Ï_ÌÌ_È_ËÂÌÚ_511" data-name="¡ÂÁ˚ÏˇÌÌ˚È „‡‰ËÂÌÚ 511" x1="-679.28" y1="1392.19" x2="-679.28" y2="1380.45" gradientTransform="translate(1289.62 -781.01) rotate(23.86)" gradientUnits="userSpaceOnUse">
      <stop offset="0" stop-color="#c2409a"/>
      <stop offset="1" stop-color="#ee9fff"/>
    </linearGradient>
    <linearGradient id="_ÂÁ_Ï_ÌÌ_È_ËÂÌÚ_623-6" data-name="¡ÂÁ˚ÏˇÌÌ˚È „‡‰ËÂÌÚ 623" x1="-665.33" y1="1395.24" x2="-665.33" y2="1385.63" xlink:href="#_ÂÁ_Ï_ÌÌ_È_ËÂÌÚ_623"/>
    <linearGradient id="_ÂÁ_Ï_ÌÌ_È_ËÂÌÚ_511-2" data-name="¡ÂÁ˚ÏˇÌÌ˚È „‡‰ËÂÌÚ 511" x1="-727.37" y1="1406.93" x2="-727.37" y2="1398.05" xlink:href="#_ÂÁ_Ï_ÌÌ_È_ËÂÌÚ_511"/>
    <linearGradient id="_ÂÁ_Ï_ÌÌ_È_ËÂÌÚ_511-3" data-name="¡ÂÁ˚ÏˇÌÌ˚È „‡‰ËÂÌÚ 511" x1="-664.7" y1="1406.98" x2="-664.7" y2="1395.38" xlink:href="#_ÂÁ_Ï_ÌÌ_È_ËÂÌÚ_511"/>
    <linearGradient id="_ÂÁ_Ï_ÌÌ_È_ËÂÌÚ_640-2" data-name="¡ÂÁ˚ÏˇÌÌ˚È „‡‰ËÂÌÚ 640" x1="-603.63" y1="1371.64" x2="-603.63" y2="1333.38" xlink:href="#_ÂÁ_Ï_ÌÌ_È_ËÂÌÚ_640"/>
  </defs>
  <g class="cls-69">
    <g id="Layer_2" data-name="Layer 2">
      <g id="_Layer_" data-name="&amp;lt;Layer&amp;gt;">
        <g>
          <path class="cls-34" d="M265.29,97.54h0c5.16-8.46-1.82-17.55-22.15-26.45-30.1-13.17-74.78,3.56-67.32-16.15C183.28,35.23,82.78-.14,73.91,34.99h0s0,0,0,0c-4.27,9.65,3.55,28.02,6.3,40.4-9.65.93-13.89,8.09-13.5,18.18-.07.05-.15.08-.22.12-16.89,10.06-27.56,23.3-34.3,35.69.3-.96.59-1.9.93-2.95-1.31,2.8-2.45,5.45-3.49,7.98-7.67,16.23-8.79,29.88-8.88,31.06,0,.07,0,.1,0,.1,0,0-10.92,6.58-16.44,14.9-.48.73-.93,1.47-1.31,2.22-.42.81-.78,1.63-1.07,2.44-4.37,12.59,38.04,23,38.04,23,3.03,2.39,6.16,4.64,9.33,6.79-.99,3.48-.34,7.38.27,9.14.25.7,1.54,2.07,3.73,3.68h0s.09.07.18.12c1.55,1.12,3.56,2.33,5.99,3.51.91.47,1.84.91,2.68,1.21h0c3.89,1.63,8.6,3.09,14.11,3.95,3.35.53,6.23.6,8.75.42v.03l.67-.09c.43-.03.87-.08,1.27-.13l.3-.03v-.03c.92-.13,1.77-.3,2.57-.52,5.87,2.36,11.71,4.45,17.45,6.3-.16,1.28-.18,2.4-.1,3.16.06.79,1.08,2.58,3.03,4.83h0s.03.03.03.03c3.49,4.04,10.02,9.58,19.8,13.71,3.74,1.56,7,2.4,9.83,2.76h.03c1.39.16,2.66.22,3.84.18h.07c6.07-.19,9.34-2.69,10.15-3.35l.04-.02c2.36-1.9,4.61-7.9,4.99-8.99,0,0,.01-.01.01-.01.23.04.47.07.7.11,4.74,1.03,12.14,2.49,16.82,2.61,2.89.45,4.92.82,5.87,1.18,7.48,2.73,15.65,6,23.64.87.42-.25.83-.54,1.25-.84,8.4-6.32,7.8-23.02,7.8-23.02,3.14-4.08,5.73-8.25,7.89-12.47.03-.04.06-.08.06-.08l-.03.04h0l.03-.04v.03c5.97-11.65,8.56-23.53,9.39-34.49.97-12.43-.32-23.66-1.41-31.98,3.38-2.14,5.73-3.88,6.84-4.84,11.68-10.09,2.95-20.5.41-23.09.21-1.19.1-1.69-.64-.63-.01.02-.04.04-.06.07,6.2-9.21,15.33-19.98,24.58-28,1.46-.78,2.55-1.67,3.17-2.66,0,0,.01-.01.01-.01h0ZM81.13,81.97c0,.26-.01.53-.03.78l-.88-7.26c.54,2.42.89,4.64.91,6.47Z"/>
          <path class="cls-74" d="M207.26,240.26c-.42.3-.83.59-1.25.84-7.98,5.11-16.16,1.84-23.64-.89-7.83-2.86-86.87-6.95-142.4-50.54,0,0-42.41-10.39-38.04-22.98.29-.82.65-1.65,1.07-2.46.38-.76.83-1.49,1.31-2.22,5.53-8.32,16.44-14.9,16.44-14.9,0,0,0-.04,0-.11.16-2.16,3.79-46.77,45.74-71.76,3.68-2.21,7.69-4.26,12.01-6.12,1.64-.71,2.41-2.27,2.59-4.46.03-.39.04-.76.04-1.13-.05-11.25-12.35-35.42-7.23-46.99,0,0,12.49,30.64,36.84,42.64,24.37,11.98-3.62,12.3-9.96,25.25-.69,1.41-.6,3.03.15,4.79,6.19,14.2,57.3,37.15,101.05,33.32,49.13-4.31,20.69-18.01,13.09-29.58-3.4-5.16,1.59-5.62,10.22-5.79,4.39-.08,9.75-.14,15.45-.69,8.12-.78,16.92-2.67,24.55-7.37-10.3,8.18-20.85,20.4-27.76,30.67-.02.03-.03.06-.05.08-4.23,6.32-7.08,11.88-7.66,15.29-.1.57-.12,1.3-.09,2.15.05,1.96.4,4.61.83,7.83,1.13,8.51,2.92,21.06,1.83,35.12-.83,10.96-3.43,22.85-9.41,34.5,0,0,.01-.03.01-.03l-.03.03c-2.17,4.23-4.78,8.42-7.92,12.53,0,0,.6,16.7-7.8,23.01Z"/>
          <path class="cls-35" d="M73.91,16.52c8.88-35.12,109.37.25,101.91,19.96-7.46,19.7,37.22,2.97,67.32,16.15,20.33,8.89,27.3,17.97,22.15,26.45-5.16,8.46-44.07,8.16-47.14,11.01-3.08,2.85,15.65,12.36,13.09,23.27-2.55,10.9-58.83,20.09-102.87.58-35.32-15.63-30.71-30.15-25.07-34.68,5.64-4.54,13.95-5.87,12.94-13.36-1-7.48-35.69-12.2-42.33-49.37Z"/>
          <path class="cls-73" d="M259.56,76.53c-2.22,2.7-10.01,3.82-18.7,4.79-11.4,1.26-24.38,2.27-28.5,6.12-7.24,6.79,14.45,12.2,9.27,22.87-5.22,10.67-52.48,14.62-87.09,1.14-34.59-13.48-32.95-23.36-15.9-37.31,1.28-1.04,2.42-1.98,3.41-2.84,11.39-9.84,3.9-8.11-14.34-18.85-.19-.11-.37-.22-.57-.34-1.13-.66-2.3-1.38-3.51-2.16-22.87-14.65-27.39-38.12-13.72-43.61,18.42-7.37,72.17,11.71,78.2,20.36,4.02,5.78,2.05,6.83.84,12.35-5.19,23.79,35.91,7.85,62.08,13.68,26.2,5.82,33.69,17.62,28.54,23.81Z"/>
          <path class="cls-76" d="M221.61,110.31c-4.54,9.31-41.12,13.52-73.35,5.46-4.7-1.18-9.32-2.61-13.72-4.33-14.78-5.77-22.94-10.86-26.12-15.91-4.26-6.76.45-13.41,10.22-21.39,16.01-13.08,8.89-10.01-10.94-21.69,32.89-3.05,74.87,20.64,84.61,25.66,9.02,4.63,18.14-8.99,48.56,3.21-11.4,1.27-24.4,2.27-28.51,6.12-7.24,6.79,14.46,12.2,9.26,22.87Z"/>
          <path class="cls-75" d="M193.54,89.63c-14.12-2.92-22.09-10.11-22.63-11.96-.51-1.72-.96-5.75.53-8.92.12-.26.24-.49.37-.74l44.85,8.54s-.9,6.45-2.76,8.68l-.03.03c-.91,1.08-6.35,7.28-20.33,4.38Z"/>
          <path class="cls-39" d="M213.48,80.32c-15.17,8.99-43.86-6.11-41.97-11.63.64-1.85,2.1-3.19,4.14-4.09,8.44-3.82,26.66-.14,35.72,5.27.25.14.5.3.75.45.07.05.14.11.23.16,4.75,3.14,6.3,6.78,1.13,9.84Z"/>
          <path class="cls-61" d="M213.48,80.32c-15.17,8.99-43.86-6.11-41.97-11.63.64-1.85,2.1-3.19,4.14-4.09-6.04,6.48,13.44,17.89,28.56,17.18,14.8-.69,11.74-8.81,8.14-11.3,4.75,3.14,6.3,6.78,1.13,9.84Z"/>
          <path class="cls-8" d="M196.08,116.62c-14.23,2.37-24.25-1.48-25.42-3.01-1.09-1.41-2.97-5.03-2.73-8.51.01-.29.05-.55.08-.82l44.92-8.2s1.48,6.36.55,9.09l-.03.04c-.46,1.34-3.3,9.08-17.38,11.42Z"/>
          <path class="cls-38" d="M211.33,100.74c-10.9,13.86-43.12,10.12-43.34,4.28-.08-1.96.81-3.74,2.38-5.31,6.5-6.6,24.83-9.73,35.22-7.94.3.04.58.1.87.15.08,0,.18.03.27.05,5.57,1.23,8.31,4.06,4.61,8.78Z"/>
          <path class="cls-11" d="M150.44,67.99c-.05.1-.1.18-.15.27-.62,1.18-3.14,5.73-5.31,6.99l-.05.02c-1.22.73-8.39,4.79-20.64-2.56-.78-.47-1.52-.93-2.25-1.41,2.75-2.38,4.41-4.09,5.05-5.45,1.62-3.31-2.62-4.66-11.05-8.89-2.43-1.21-5.24-2.68-8.34-4.51-.19-.11-.37-.22-.57-.34.43-1.96,1.39-4.58,3.19-6.41.19-.19.39-.37.58-.55h0s39.54,22.83,39.54,22.83Z"/>
          <path class="cls-45" d="M150.44,67.99c-.05.1-.1.18-.15.27-.67,1.03-1.99,1.81-4.1,2.24-6.21,1.25-13.06-1.01-19.1-4.65,1.62-3.31-2.62-4.66-11.05-8.89-4.56-4.83-7.03-9.49-5.64-11.27.15-.19.31-.38.49-.54h0c1.19-1.21,2.81-1.82,4.76-1.98,9.23-.81,25.23,8.68,31.99,16.75.19.22.38.45.57.67.04.08.11.14.16.23,2.12,2.75,3.01,5.31,2.07,7.15Z"/>
          <path class="cls-67" d="M211.33,100.74c-10.9,13.86-43.12,10.12-43.34,4.28-.08-1.96.81-3.74,2.38-5.31-3.29,8.23,18.99,11.84,32.84,5.75,13.55-5.99,7.78-12.45,3.51-13.49,5.57,1.23,8.31,4.06,4.61,8.78Z"/>
          <path class="cls-25" d="M200.87,241.51c1.92.05,3.63-.13,5.14-.42-7.98,5.11-16.16,1.84-23.64-.89-7.83-2.86-86.87-6.95-142.4-50.54,0,0-42.41-10.39-38.04-22.98.29-.82.65-1.65,1.07-2.46-1.95,7.43,18.03,15.95,27.33,18.06,10.24,2.29,4.85-28.36-9.58-35.29,0,0,7.34-2.17,14.35,16.49,7.02,18.66,59.35,55.69,114.97,63.98,55.6,8.29,72.94-22.77,72.94-22.77l-7.95,12.56s-12,15.84-27.15,18.54c0,0,4.85,5.52,12.96,5.73Z"/>
          <path class="cls-1" d="M96.54,11.51c-20.48,26.2,31.77,50.8,46.08,50.6,14.31-.18,25.7-21.86,14.9-36.37-10.8-14.51-54.83-20.09-60.98-14.22Z"/>
          <path class="cls-1" d="M185.26,58.16c-17.57,10.89,40.24,30.43,60.72,21.52,20.48-8.91-8.88-38.89-60.72-21.52Z"/>
          <path class="cls-1" d="M107.64,6.34c-14.83,3.25-2.33,41.63,22.55,45.67,24.89,4.04,34.36-5.99,33.59-22.33-.77-16.35-50.32-24.62-56.14-23.34Z"/>
          <path class="cls-7" d="M148.26,115.78c-4.7-1.18-9.32-2.61-13.72-4.33-14.78-5.77-22.94-10.86-26.12-15.91.3-1.95,1.06-4.39,2.59-6.21.18-.22.37-.43.54-.61l41.21,19.67s-2.25,5.4-4.5,7.39Z"/>
          <path class="cls-46" d="M148.72,111.23c-16.96,4.85-40.86-17.07-37.62-21.93,1.08-1.63,2.85-2.55,5.05-2.92,9.12-1.52,25.82,6.68,33.19,14.2.21.19.41.41.61.62.06.07.12.14.19.21,3.8,4.26,4.36,8.17-1.41,9.82Z"/>
          <path class="cls-68" d="M148.72,111.23c-16.96,4.85-40.86-17.07-37.62-21.93,1.08-1.63,2.85-2.55,5.05-2.92-7.49,4.74,8.44,20.74,23.25,23.89,14.49,3.1,13.59-5.53,10.74-8.86,3.8,4.26,4.36,8.17-1.41,9.82Z"/>
          <path class="cls-6" d="M159.4,97.43c-12.24-7.63-17.23-17.12-17.09-19.06.12-1.78,1.09-5.73,3.59-8.19.19-.2.4-.38.6-.56l39.11,23.55s-3.08,5.74-5.59,7.17l-.04.02c-1.24.7-8.49,4.62-20.59-2.94Z"/>
          <path class="cls-41" d="M181.34,95.62c-17.34,3.18-39.04-20.94-35.34-25.46,1.24-1.52,3.08-2.27,5.3-2.42,9.24-.65,25.07,9.12,31.68,17.33.19.22.37.45.55.68.05.07.1.15.16.22,3.37,4.6,3.55,8.54-2.35,9.64Z"/>
          <path class="cls-59" d="M181.34,95.62c-17.34,3.18-39.04-20.94-35.34-25.46,1.24-1.52,3.08-2.27,5.3-2.42-7.9,4,6.42,21.45,20.84,26.01,14.12,4.49,14.06-4.19,11.55-7.77,3.37,4.6,3.55,8.54-2.35,9.64Z"/>
          <path class="cls-12" d="M141.93,107.4c-12.24-7.63-17.22-17.14-17.08-19.06.12-1.8,1.1-5.75,3.59-8.2.19-.2.4-.38.6-.57l39.11,23.55s-3.08,5.75-5.59,7.18h-.05c-1.24.71-8.48,4.64-20.59-2.91Z"/>
          <path class="cls-42" d="M163.87,105.57c-17.34,3.18-39.04-20.94-35.33-25.46,1.24-1.51,3.08-2.27,5.29-2.41,9.24-.65,25.06,9.12,31.68,17.33.19.22.36.46.55.69.05.06.1.14.16.21,3.36,4.61,3.55,8.54-2.35,9.64Z"/>
          <path class="cls-60" d="M163.87,105.57c-17.34,3.18-39.04-20.94-35.33-25.46,1.24-1.51,3.08-2.27,5.29-2.41-7.9,3.99,6.41,21.44,20.84,26.01,14.12,4.48,14.06-4.19,11.55-7.79,3.36,4.61,3.55,8.54-2.35,9.64Z"/>
          <path class="cls-27" d="M232.4,170.22c-.14-.95-2.88-17.15-12.04-19.21-9.44-2.1-22.06.93-27.41,8.53-5.36,7.59-4.19,18.74-7.85,15.62-3.67-3.09,2.48-19.91-18-16.95-14.3,2.06-38.84-11.46-43.94-7.98-5.07,3.5-9.65,17.85-11.67,15.78-2.03-2.07,2.99-13.5,1.08-20.45-1.89-6.96-18.24-20.6-26.89-20.85-8.64-.25-21.76,9.89-18.47,4.24,3.29-5.67,17.23-13.58,8.9-17.44-8.33-3.86-28.43-8.99-55.36,35.59,0,0,0-.04,0-.11.16-2.16,3.79-46.77,45.74-71.76.13.02.2.03.2.03,0,0,15.43,47.23,66.49,65.79,46.99,17.07,90.74-2.71,97.39-5.95,1.13,8.51,2.92,21.06,1.83,35.12Z"/>
          <path class="cls-33" d="M235.31,120.53s-1.77,2.84-5.57,6.74c-7.06,7.22-21.08,18.06-43.85,21.27-35.07,4.92-72.72-8.46-91.81-34.97-18.22-25.34-13.47-38.84-12.99-48.92.03-.39.04-.76.04-1.13,0-.09.01-.19.01-.29,0-10.23-10.51-32.53-7.24-46.7,0,0-1.5,22.96,33.72,43.07,17.45,9.97-.51,11.88-6.84,24.82-.69,1.41-1.7,3.75-.95,5.51h0s-.45,36.41,48.18,49.75c48.64,13.33,78.66-17.25,82.23-24.57,3.59-7.3-14.38-20.78-12.1-25,.78-1.45,3.67-2.36,7.15-2.95,6.77-1.15,15.76-1.06,15.76-1.06,0,0-.12.12-.32.36-1.84,2.07-10.9,12.64-10.15,18.09.84,5.95,4.35,8.68,6.89,5.29.02-.02.03-.05.05-.08.02-.03.05-.04.06-.06,2.54-3.65-2.29,10.84-2.29,10.84Z"/>
          <path class="cls-21" d="M243.84,56.56c9.67,7.19-2.98,24.77-2.98,24.77,0,0,17.62,1.43,20.18-8.31,2.56-9.74-13.82-16.09-17.2-16.46Z"/>
          <path class="cls-19" d="M148.29,15.56c18.36,7.4,1.08,45.7,1.08,45.7l13.39,8.4s2.22-21.58,6.44-31.7c4.22-10.11-5.09-17.01-20.91-22.4Z"/>
          <path class="cls-31" d="M81.91,81.98c5.16,16.81,13.06,10.46,19.09-2.73,6.03-13.19,4.8-20.13,4.8-20.13,0,0,10.56,2.03,9.63,8.16-.93,6.11-9.29,5.01-15.03,15.69-5.73,10.68-5.92,28.78-5.92,28.78,0,0-13.68-18.69-12.58-29.77Z"/>
          <path class="cls-36" d="M237.83,133.41c-6.88,5.93-60.94,42.19-117.98,11.7-48.99-26.18-68.71-85.41-39.64-88.19l1.39,11.45s-1.85,11.71,3.56,26.42c5.4,14.68,18.04,32.34,46.98,44.32,48.91,20.23,85.07-5.16,95.99-15.4,2-1.89,3.16-3.27,3.38-3.75,1.32-3.01,6.1-10.28,6.1-10.28,0,0,13.71,12.1.23,23.72Z"/>
          <path class="cls-23" d="M237.83,133.41c-6.88,5.93-60.94,42.19-117.98,11.7-48.99-26.18-68.71-85.41-39.64-88.19l1.39,11.45s-1.85,11.71,3.56,26.42l.95,2.43c-7.38-7.19-6.73,5.36-6.73,5.36,0,0,12.54,38.4,69.05,50.02,56.51,11.6,81.72-18.03,83.71-24.22,1.34-4.13-1.81-4.73-4.02-4.67,2-1.89,3.16-3.27,3.38-3.75,1.32-3.01,6.1-10.28,6.1-10.28,0,0,13.71,12.1.23,23.72Z"/>
          <path class="cls-2" d="M71.88,113.94c-25.18-8.31-37.9,41-31.09,51.52,6.8,10.52,91.91,61.99,132.86,58.76,40.94-3.23,65.69-34.15,50.42-55.93-15.27-21.77-34.58,11.18-39.5,13.35-4.92,2.18-5.29-15.34-15.46-21.31-10.17-5.97-34.35-4.28-39.27-6.25-4.92-1.98-11.23,14.99-17.68,18.85-6.45,3.86,9.97-12.85-5.78-31.6-15.76-18.76-35.7-7.74-37.54-7.15-1.85.6-4.47-8.88,3.03-20.24Z"/>
          <path class="cls-37" d="M127.09,65.85c-3.16,11.71-14.29,29.95-13.85,35.12,0,0-8.38-5.75-5.62-14.27,2.76-8.52,13.78-12.8,19.47-20.85Z"/>
          <path class="cls-48" d="M210.94,91.03c-.1,11.79-9.67,27.84-9.67,27.84,0,0,18.16-1.43,20.75-9.49,2.59-8.03-9.45-13.16-11.07-18.35Z"/>
          <path class="cls-28" d="M171.76,75.08c5.72,6.86-13.93,8.99-20.99,5.71l1.05,2.94s-4.03-4.28-13.38-5.92c-9.36-1.63-10.71,4-10.71,4l-2.79,5.73s2.92,9.27,11.66,16.09c8.74,6.81,12.93,7.36,12.93,7.36,0,0-9.41.62-22.19-7.42-12.78-8.05-8.71-17.31-8.71-17.31,0,0,8.28-16.29,8.46-20.4.17-4.11-6.96-6.3-11.05-8.89-4.09-2.58,6.32-8.25,15.28-7.94,0,0-.67,16.69,16.61,22.75,17.27,6.06,23.36-4.17,23.36-4.17l.54.41s-2.99,5.1-.05,7.07Z"/>
          <path class="cls-9" d="M150.22,72.58c-14.08-3.1-21.95-10.39-22.46-12.26-.49-1.73-.89-5.77.65-8.91.12-.26.25-.49.38-.74l44.73,9.14s-.99,6.44-2.88,8.63l-.03.03c-.93,1.07-6.45,7.19-20.39,4.11Z"/>
          <path class="cls-43" d="M170.3,63.54c-15.29,8.79-43.78-6.7-41.81-12.19.66-1.84,2.15-3.17,4.19-4.05,8.49-3.69,26.67.23,35.64,5.75.26.14.5.3.75.47.07.05.15.1.23.17,4.71,3.2,6.2,6.87,1,9.86Z"/>
          <path class="cls-56" d="M170.3,63.54c-15.29,8.79-43.78-6.7-41.81-12.19.66-1.84,2.15-3.17,4.19-4.05-6.12,6.41,13.2,18.08,28.33,17.56,14.8-.48,11.86-8.64,8.29-11.18,4.71,3.2,6.2,6.87,1,9.86Z"/>
          <path class="cls-15" d="M205.59,91.76c-11.57,1.53-13.88,13.1-21.08,16-7.2,2.9-16.1-1.65-16.1-1.65,0,0-1.28,5.78,5.82,8.71,7.09,2.93,24.3,2.16,29.41-.32l-2.37,4.37s-18.09,3.08-35.55,0l-17.46-3.09,3.14-4.3s7.78,1.59,11.32-.12c3.53-1.74,6.15-9.84,6.15-9.84,0,0,7.7.62,10.72-1.32,3.03-1.91,6.19-5.77,6.59-8.2.4-2.43-2.51-6.01-2.51-6.01,0,0,13.42,6.58,23.61,3.43l-1.7,2.35Z"/>
          <path class="cls-63" d="M152.59,84.2c4.32,2.92-9.42,11.51-17.09,8.4,0,0,3.23,5.31,10.39,8.63,0,0-1.72-1.38-.98-2.84.74-1.44,9.76-6.8,13.08-7.25,3.33-.44,5.04,1.16,5.04,1.16,0,0-6.58-5.9-10.45-8.11Z"/>
          <path class="cls-62" d="M151.29,65.32c13.13-.73-3.61-18.81-7.29-19.37,0,0,4.11.18,7.94,1.09,0,0,4.61,11.15,7.96,14.42,3.34,3.27,7.2,2.9,7.2,2.9,0,0-4.87,3.79-15.8.96Z"/>
          <path class="cls-49" d="M192.74,63.7c15.6,4.59,8.44,18.76,1.76,18.43,0,0,7.88,1.61,14.73-.46,0,0-4.53-.23-5.66-1.58-1.14-1.35.35-8.86,1.59-10.76,1.24-1.89,3.71-.8,3.71-.8,0,0-6.1-3.16-16.13-4.83Z"/>
          <path class="cls-64" d="M144.48,100.3c3.77,2.07-2.55,7.1-2.55,7.1,0,0,3.17,1.76,5.08,2.38,0,0,3.12-5.05,5.17-5.54,0,0-2.2-.49-7.7-3.93Z"/>
          <path class="cls-52" d="M157.33,66.32c2.76.45.25,7.36.25,7.36l3.58-.49s-.19-5.63.92-7.06c0,0-3.69.47-4.75.19Z"/>
          <path class="cls-53" d="M200.34,83.08c1.54.04.55,7.18.55,7.18l2.09-.34s.17-5.83,1-6.87l-3.63.03Z"/>
          <path class="cls-70" d="M137.38,93.88c3.41-.34,6.23,4.96,6.67,5.7.43.73-6.2-2.92-6.67-5.7Z"/>
          <path class="cls-70" d="M197.83,82.87c3.21-4.26,7.26-.68,7.26-.68,0,0-4.41,1.98-7.26.68Z"/>
          <path class="cls-5" d="M174.94,103.93c-.43,6.69,30.28,6.16,33.11-3.83,2.83-10-28.79-1.57-33.11,3.83Z"/>
          <path class="cls-5" d="M136.19,79.65c-10.25,2.22,14.57,25.03,26.9,22.93,12.34-2.1-15.1-25.47-26.9-22.93Z"/>
          <path class="cls-5" d="M133.66,49.47c-7.46,7.66,29.77,21.85,36.19,11.05,6.41-10.81-29.88-17.51-36.19-11.05Z"/>
          <path class="cls-5" d="M178.51,68.39c-3.15,6.91,32.79,18.32,37.04,9.38,4.25-8.93-32.1-20.22-37.04-9.38Z"/>
          <path class="cls-2" d="M131.38,153.16c-11.01-4.54-16.85,32.5,14.2,51.64,31.07,19.13,41.67-18.54,31.59-32.57-10.08-14.03-35.77-14.94-45.8-19.07Z"/>
          <path class="cls-2" d="M195.94,158.18c-5.57,3.01-10.24,27.61-14.78,41.91-4.54,14.29,32.18,18.37,43.29-13.46,11.11-31.83-7.83-40.16-28.51-28.45Z"/>
          <path class="cls-2" d="M98.9,136.15c-22.85-16.63-38.45,20.6-15.28,35.89,23.17,15.28,34.78-23.68,15.28-35.89Z"/>
          <path class="cls-24" d="M61.95,135.49s-8.95,10.86-7.29,27.2c1.67,16.35,21.52,18.14,21.52,18.14,0,0-19.37-22.87-14.22-45.34Z"/>
          <path class="cls-2" d="M105.41,101.04c-5.33.93,3.98,28.51,51.1,39.71,47.12,11.19,62.86-13.66,63.91-16.71,1.05-3.04-52.59,23.85-115.01-23Z"/>
          <path class="cls-2" d="M125.73,114.01c-8.71,4.63,5.88,25.92,42.37,27.83,36.5,1.92,42.8-17.47,42.8-17.47,0,0-28.91,12.85-85.17-10.36Z"/>
          <path class="cls-32" d="M66.85,77.4c-1.85,8.76-20.14,23.97-21.66,28.11-1.53,4.12,8.91-2.08,20.88-.34,11.98,1.74,14.7,3.97,14.7,3.97,0,0-11.7-14.54-13.92-31.73Z"/>
          <path class="cls-30" d="M119.85,145.1c16.17,8.6,34.94,11.75,34.94,11.75,0,0-6.91.2-20.11-4.87-13.21-5.07-19.22-3.04-19.22-3.04-1.37-7.28-21.61-23.18-26.37-25.15-4.76-1.96-9.95,1.08-7.56-3.34,2.4-4.42-2.15-12.08-2.15-12.08,0,0,17.44,24.47,40.46,36.73Z"/>
          <path class="cls-29" d="M195.13,153.58c-8.77,4.94-8.38,9.41-9.05,10.59-.68,1.18-.88-7.99-8.26-7.52,0,0,12.28-1.67,17.31-3.07Z"/>
          <path class="cls-4" d="M94.58,118.01c-3.98,3.19,22.61,37.76,87.76,36.47,34.24-.69,43.99-17.21,43-21.2-1-4.01-31.15,20.39-64.85,14.38-33.69-6.01-65.91-29.65-65.91-29.65Z"/>
          <path class="cls-3" d="M117.1,135c-4.91,5.73,31.76,19.77,58.65,18.82,26.89-.95,33.85-8,32.62-10.7-1.22-2.68-26.91,6.58-50.1,3.89-23.18-2.68-41.18-12.02-41.18-12.02Z"/>
          <path class="cls-20" d="M33.12,107.95c-8.03,24.87-4.76,22.17,4.41,38.97,9.16,16.79,3.01,40.76,3.01,40.76,0,0-.45-12.07-7.22-25.89-6.78-13.81-11.86-14.87-11.86-14.87,0,0,.19-14.38,11.66-38.97Z"/>
          <path class="cls-2" d="M27.44,151.65c-11.35-3.84-25.34,15.52-22.37,20.47,2.97,4.95,23.84,8.68,28.55,1.56,4.72-7.13-6.18-22.02-6.18-22.02Z"/>
          <path class="cls-2" d="M25.02,151.75c-11.59-1.26-19.15,12.36-16.37,18.25,2.78,5.9,22.2,3.74,24.32-1.39,2.12-5.14-7.96-16.86-7.96-16.86Z"/>
          <path class="cls-2" d="M187.9,235.78c-3.45,3.09,15.95,9.16,20.33,1.91,4.39-7.25,3.49-16.61,3.49-16.61,0,0-11.4,11.6-23.83,14.71Z"/>
          <path class="cls-14" d="M180.3,238.53c2.88-3.48,12.59-3.12,21.11-8.57,8.51-5.46,13.02-11.95,13.02-11.95,0,0-18.92,12.58-33.95,16.75-15.02,4.16-25.33.65-25.33.65,0,0,21.53,5.29,25.14,3.12Z"/>
          <path class="cls-2" d="M197.52,232.8c-1.56,5.53,8,9.36,12.43,3.61,4.42-5.75,4.37-12.2,3.11-13.24-1.26-1.04-15.54,9.62-15.54,9.62Z"/>
          <g>
            <path class="cls-13" d="M130.01,245.75c-15.28-6.47-22.66-16.36-22.85-18.57-.19-2.05.21-6.72,2.6-9.95.19-.27.38-.51.58-.76l48.7,19.7s-2.46,7.09-5.06,9.16l-.04.02c-1.28,1.02-8.81,6.79-23.93.4Z"/>
            <path class="cls-47" d="M154.6,239.71c-19.13,6.75-48.13-16.73-44.75-22.53,1.13-1.94,3.08-3.13,5.58-3.69,10.37-2.4,30.12,5.82,39.13,13.94.25.23.49.46.73.69.08.06.15.14.23.22,4.65,4.62,5.57,9.07-.93,11.38Z"/>
            <path class="cls-66" d="M154.6,239.71c-19.13,6.75-48.13-16.73-44.75-22.53,1.13-1.94,3.08-3.13,5.58-3.69-8.26,5.97,11.16,23.19,28.38,25.79,16.85,2.53,15.22-7.32,11.72-10.94,4.65,4.62,5.57,9.07-.93,11.38Z"/>
            <path class="cls-10" d="M76.25,218.06c-16.39-2.55-25.95-10.37-26.68-12.47-.68-1.94-1.42-6.56.12-10.29.11-.3.25-.58.38-.86l52.02,7.29s-.67,7.47-2.68,10.11l-.04.03c-1,1.3-6.89,8.73-23.12,6.19Z"/>
            <path class="cls-40" d="M98.64,206.23c-16.92,11.19-50.75-4.54-48.87-11,.62-2.16,2.23-3.8,4.52-4.95,9.49-4.84,30.64-1.64,41.35,4.07.3.14.6.31.89.47.08.05.18.1.27.17,5.64,3.34,7.61,7.43,1.85,11.23Z"/>
            <path class="cls-57" d="M98.64,206.23c-16.92,11.19-50.75-4.54-48.87-11,.62-2.16,2.23-3.8,4.52-4.95-6.56,7.81,16.46,19.81,33.79,18.16,16.96-1.63,12.99-10.79,8.71-13.44,5.64,3.34,7.61,7.43,1.85,11.23Z"/>
            <path class="cls-65" d="M68.99,187.95c6.99,1.36,13.2,17.25,13.99,19.48.79,2.22-4.36,2.44-4.36,2.44,0,0,10.08,1.84,17.68-2.29,0,0-4.48,1.29-7.83-.29-3.35-1.58-10.92-14.51-11.03-16.39-.11-1.87,2.65-1.67,2.65-1.67,0,0-6.74-1.32-11.11-1.28Z"/>
            <path class="cls-54" d="M84.19,210.25c2.6.18.81,8.25.81,8.25l2.24-.25s.1-7.12,2.02-8.51l-5.07.51Z"/>
            <path class="cls-50" d="M141.51,240.6c2.4.14-1.67,7.91-1.67,7.91l3.95.19s2.73-6.8,3.88-7.79c0,0-3.89.38-6.16-.32Z"/>
            <path class="cls-16" d="M148.99,223.68s2.12,7.95-1.24,11.3c-3.36,3.36-12.82,2.64-24.62-2.4-11.81-5.01-13.71-14.44-13.71-14.44,0,0,19.83-6.55,39.57,5.55Z"/>
            <path class="cls-71" d="M119.56,226.9c-14.08-8.77-19.81-19.7-19.65-21.93.13-2.06,1.26-6.6,4.13-9.43.23-.23.46-.45.69-.64l45,27.09s-3.55,6.61-6.43,8.25l-.05.03c-1.42.81-9.76,5.32-23.68-3.38Z"/>
            <path class="cls-44" d="M144.8,224.81c-19.95,3.65-44.91-24.08-40.66-29.29,1.42-1.73,3.54-2.61,6.1-2.79,10.62-.73,28.83,10.5,36.44,19.94.22.27.43.54.63.79.06.08.12.17.19.27,3.86,5.29,4.08,9.83-2.71,11.08Z"/>
            <path class="cls-58" d="M144.8,224.81c-19.95,3.65-44.91-24.08-40.66-29.29,1.42-1.73,3.54-2.61,6.1-2.79-9.1,4.61,7.37,24.67,23.97,29.95,16.25,5.15,16.18-4.83,13.3-8.95,3.86,5.29,4.08,9.83-2.71,11.08Z"/>
            <path class="cls-55" d="M130.93,199.68c8.77,7.71-8.73,18.48-14.37,14.79,0,0,2.43,3.09,9.28,6.17,0,0-3-3.49,5.09-8.4,8.1-4.92,11.97-3.61,11.97-3.61,0,0-7.14-6.34-11.97-8.96Z"/>
            <path class="cls-26" d="M107.66,205.34l-4.85,5.96s5.67,6.87,6.8,7.66c.65-3.56,3.55-7.74,3.55-7.74l-5.51-5.88Z"/>
            <path class="cls-51" d="M118.17,215.7c1.38,1.39-2.9,8.29-2.9,8.29l3.47,2.4s2.9-6.99,4.16-7.33l-4.74-3.36Z"/>
            <path class="cls-18" d="M52.31,200.16c2.01,1.15.99,9.12.99,9.12,0,0,5.19,3.46,8.84,4.84,0,0-.26-7.43.56-8.41,0,0-4.35-1.81-10.39-5.55Z"/>
            <path class="cls-17" d="M112.45,223.78c1.28,1.69-2.27,8.25-2.27,8.25,0,0,5.35,5.07,7.54,6.69,0,0,1.54-5.03,2.68-7.46,0,0-5.11-2.68-7.95-7.48Z"/>
            <path class="cls-70" d="M117.44,215.38c3.58-2.27,7.06,3.59,6.99,4.11-.08.51-5.82-2.18-6.99-4.11Z"/>
            <path class="cls-70" d="M83.7,209.87c1.69-4,6.51-.66,6.51-.66,0,0-3.28,1.72-6.51.66Z"/>
            <path class="cls-70" d="M141.51,240.6c1.74-1.35,6.16.32,6.16.32,0,0-3.03,1.92-6.16-.32Z"/>
            <path class="cls-5" d="M111.46,195.52c-11.62,9.29,28.77,34.13,35.71,26.01,6.95-8.12-28.07-32.12-35.71-26.01Z"/>
            <path class="cls-5" d="M56.4,192.71c-5.14,13.94,38.03,19.87,40.72,7.97,2.69-11.88-37.72-16.1-40.72-7.97Z"/>
          </g>
          <path class="cls-22" d="M164.22,220.98c5.57-4.57,10.08-9.84,13.13-11.38,3.05-1.54,8.29,4.94,21.29,2.78,13-2.16,18.17-9.97,18.17-9.97,0,0-7.62,14.28-16.74,17.24-9.12,2.95-17.37-4.04-21.16-5.43-3.8-1.37-14.7,6.76-14.7,6.76Z"/>
          <path class="cls-2" d="M86.68,47.22c-7.39-5.41-1.23,33.91-.29,42.19.94,8.26,5.55,3.19,15.82-11.98,10.26-15.16-5.55-22.63-15.53-30.21Z"/>
          <path class="cls-2" d="M82.45,41.44c-4.1,1.14,2.58,26.91,7.63,33.6,5.05,6.67,16.91-1.87,17.9-9.72.99-7.86-15.22-14.28-25.53-23.88Z"/>
          <path class="cls-72" d="M102.15,1.61c32.1,0,78.84,21.19,73.67,34.87-3.59,9.49,4.9,10.52,18.02,10.52,3.7,0,7.77-.08,12.04-.08,12.05,0,25.72.66,37.26,5.71,20.33,8.89,27.3,17.97,22.15,26.45h0s0,0-.01,0c-.62,1-1.72,1.89-3.17,2.66-9.25,8.03-18.38,18.79-24.58,28,.02-.03.05-.04.06-.06.28-.41.47-.57.58-.57.19,0,.18.45.05,1.19,2.54,2.6,11.28,13.02-.41,23.09-1.11.95-3.47,2.71-6.84,4.84,1.1,8.33,2.38,19.54,1.41,31.97-.83,10.96-3.43,22.85-9.41,34.5,0,0,.01-.03.01-.03l-.03.03h0s.03-.03.03-.03c0,0-.03.03-.06.08-2.16,4.22-4.76,8.39-7.89,12.48,0,0,.6,16.7-7.8,23.01-.42.3-.83.59-1.25.84-3.06,1.96-6.15,2.69-9.21,2.69-4.94,0-9.81-1.9-14.42-3.58-.95-.34-2.98-.71-5.87-1.17-4.68-.12-12.08-1.56-16.82-2.59-.23-.04-.47-.09-.7-.12,0,0,0,0-.01.02-.38,1.07-2.63,7.08-4.99,8.98l-.04.02c-.8.65-4.08,3.16-10.15,3.36h-.07c-.23,0-.47.01-.7.01-.98,0-2.03-.05-3.14-.21h-.03c-2.83-.36-6.1-1.18-9.83-2.76-9.78-4.14-16.3-9.65-19.8-13.7l-.03-.02v-.02c-1.94-2.25-2.96-4.04-3.02-4.83-.08-.78-.06-1.89.1-3.15-5.74-1.86-11.58-3.95-17.45-6.31-.8.21-1.65.38-2.57.52v.02l-.3.03c-.41.06-.84.11-1.27.14l-.67.07h0c-.78.03-1.6.08-2.46.08-1.9,0-3.99-.15-6.3-.52-5.51-.86-10.21-2.31-14.11-3.95h0c-.84-.29-1.76-.73-2.68-1.19-2.43-1.2-4.43-2.4-5.99-3.52-.09-.07-.18-.12-.18-.12h0c-2.19-1.61-3.48-2.99-3.73-3.7-.61-1.75-1.26-5.66-.27-9.13-3.17-2.16-6.29-4.4-9.33-6.8,0,0-42.41-10.39-38.04-22.98.29-.82.65-1.65,1.07-2.46.38-.76.83-1.49,1.31-2.22,5.53-8.32,16.44-14.9,16.44-14.9,0,0,0-.04,0-.11.1-1.17,1.21-14.82,8.88-31.05,1.04-2.52,2.18-5.18,3.49-7.98-.34,1.05-.63,1.99-.93,2.95,6.74-12.37,17.41-25.6,34.3-35.67.07-.03.15-.08.22-.12-.39-10.09,3.84-17.25,13.5-18.19-2.75-12.37-10.57-30.74-6.3-40.39v.02s0-.02,0-.02c2.71-10.76,14.05-14.91,28.24-14.91h0ZM81.1,64.29c.01-.25.03-.51.03-.77-.01-1.85-.37-4.06-.91-6.49l.88,7.26h0ZM102.15,0v1.61V0c-16.74,0-27.04,5.51-29.77,15.96-3.33,7.71.26,20.03,3.43,30.89.89,3.08,1.75,6.02,2.42,8.71-8.53,1.59-13.27,8.26-13.15,18.63-13.33,8.06-24.12,18.87-32.14,32.15-.54.07-1.03.4-1.28.92-1.23,2.64-2.38,5.27-3.51,8.06-6.94,14.68-8.61,27.49-8.94,30.84-2.57,1.65-11.33,7.57-16.24,14.94-.6.91-1.04,1.68-1.41,2.4-.46.88-.85,1.78-1.15,2.65-.71,2.03-.49,4.11.62,6.16,5.62,10.33,34.54,17.92,38.21,18.84,2.53,1.98,5.23,3.95,8.23,6.01-.72,3.69.03,7.39.58,8.96.51,1.5,2.77,3.34,4.16,4.36.06.05.13.11.2.15l.17.12c1.74,1.24,3.84,2.47,6.17,3.61,1.08.55,2,.97,2.81,1.28.04.01.08.03.12.04,4.47,1.85,9.28,3.19,14.31,3.98,2.25.36,4.46.54,6.54.54.82,0,1.59-.03,2.35-.08.03,0,.07.01.1.01.06,0,.12-.01.18-.01l.67-.07c.43-.05.89-.09,1.32-.16l.25-.02c.1-.01.21-.03.3-.06.68-.12,1.34-.25,1.97-.39,5.12,2.03,10.44,3.97,15.84,5.74-.05.8-.04,1.53.01,2.16.15,1.72,2.12,4.25,3.34,5.67.05.08.12.15.19.22,2.18,2.53,8.71,9.12,20.31,14.02,3.52,1.5,6.94,2.47,10.15,2.88.08,0,.15.02.23.02,1.04.14,2.17.21,3.26.21.25,0,.5,0,.74-.01,5.86-.18,9.45-2.33,11.11-3.65.05-.01.09-.05.12-.08,2.16-1.72,4.06-5.99,5.03-8.42,5.05,1.09,11.82,2.35,16.34,2.49,2.09.33,4.55.73,5.46,1.08l.75.27c4.56,1.68,9.27,3.39,14.22,3.39,3.69,0,6.99-.95,10.09-2.94.42-.23.87-.56,1.33-.89,8.17-6.14,8.51-20.64,8.48-23.79,2.9-3.82,5.49-7.95,7.7-12.25.01-.03.03-.06.04-.09,5.39-10.48,8.61-22.28,9.58-35.09.89-11.48-.07-21.82-1.29-31.29,3.75-2.4,5.64-3.98,6.16-4.42,4.11-3.56,6.29-7.52,6.47-11.82.26-5.93-3.36-10.79-5.43-13.06.01-.21.01-.41,0-.62,6.54-9.4,15.07-19.03,23.12-26.04,1.69-.93,2.87-1.94,3.59-3.1.01-.01.03-.03.04-.06h0c1.92-3.14,2.36-6.39,1.33-9.65-2.07-6.56-10.21-12.98-24.21-19.11-11.77-5.16-25.76-5.85-37.91-5.85-2.22,0-4.38.02-6.47.04-1.93.03-3.8.04-5.57.04-7.04,0-14.71-.25-16.69-3.09-.78-1.15-.73-2.87.18-5.25,1.05-2.78.46-5.81-1.75-9.02C166.17,14.41,128.42,0,102.15,0h0Z"/>
        </g>
      </g>
    </g>
  </g>
</svg>