<?xml version="1.0" encoding="UTF-8"?>
<svg xmlns="http://www.w3.org/2000/svg" xmlns:xlink="http://www.w3.org/1999/xlink" viewBox="0 0 277.84 288.62">
  <defs>
    <style>
      .cls-1 {
        fill: url(#_ÂÁ_Ï_ÌÌ_È_ËÂÌÚ_1287-2);
      }

      .cls-2 {
        fill: url(#_ÂÁ_Ï_ÌÌ_È_ËÂÌÚ_2361-6);
      }

      .cls-3 {
        fill: url(#_ÂÁ_Ï_ÌÌ_È_ËÂÌÚ_2361-5);
      }

      .cls-4 {
        fill: url(#_ÂÁ_Ï_ÌÌ_È_ËÂÌÚ_2361-2);
      }

      .cls-5 {
        fill: url(#_ÂÁ_Ï_ÌÌ_È_ËÂÌÚ_2361-7);
      }

      .cls-6 {
        fill: url(#_ÂÁ_Ï_ÌÌ_È_ËÂÌÚ_2361-8);
      }

      .cls-7 {
        fill: url(#_ÂÁ_Ï_ÌÌ_È_ËÂÌÚ_2361-3);
      }

      .cls-8 {
        fill: url(#_ÂÁ_Ï_ÌÌ_È_ËÂÌÚ_2361-4);
      }

      .cls-9 {
        fill: url(#_ÂÁ_Ï_ÌÌ_È_ËÂÌÚ_2361-9);
      }

      .cls-10 {
        fill: url(#_ÂÁ_Ï_ÌÌ_È_ËÂÌÚ_2407-3);
      }

      .cls-11 {
        fill: url(#_ÂÁ_Ï_ÌÌ_È_ËÂÌÚ_2407-2);
      }

      .cls-12 {
        fill: url(#_ÂÁ_Ï_ÌÌ_È_ËÂÌÚ_2407-4);
      }

      .cls-13 {
        fill: url(#_ÂÁ_Ï_ÌÌ_È_ËÂÌÚ_4910-3);
      }

      .cls-13, .cls-14, .cls-15, .cls-16, .cls-17, .cls-18, .cls-19, .cls-20, .cls-21, .cls-22, .cls-23, .cls-24, .cls-25, .cls-26, .cls-27, .cls-28, .cls-29, .cls-30 {
        mix-blend-mode: multiply;
      }

      .cls-14 {
        fill: url(#_ÂÁ_Ï_ÌÌ_È_ËÂÌÚ_4910-2);
      }

      .cls-31 {
        fill: url(#_ÂÁ_Ï_ÌÌ_È_ËÂÌÚ_129);
      }

      .cls-32 {
        fill: url(#_ÂÁ_Ï_ÌÌ_È_ËÂÌÚ_132);
      }

      .cls-15, .cls-19, .cls-20, .cls-21, .cls-22, .cls-23, .cls-26, .cls-27, .cls-28 {
        opacity: .5;
      }

      .cls-16 {
        fill: url(#_ÂÁ_Ï_ÌÌ_È_ËÂÌÚ_779-2);
      }

      .cls-16, .cls-17, .cls-18 {
        opacity: .6;
      }

      .cls-33 {
        fill: url(#_ÂÁ_Ï_ÌÌ_È_ËÂÌÚ_129-2);
      }

      .cls-17 {
        fill: url(#_ÂÁ_Ï_ÌÌ_È_ËÂÌÚ_779);
      }

      .cls-18 {
        fill: url(#_ÂÁ_Ï_ÌÌ_È_ËÂÌÚ_130);
      }

      .cls-34 {
        fill: #ffd6bd;
      }

      .cls-34, .cls-35 {
        mix-blend-mode: soft-light;
        opacity: .3;
      }

      .cls-19 {
        fill: url(#_ÂÁ_Ï_ÌÌ_È_ËÂÌÚ_4948-2);
      }

      .cls-20 {
        fill: url(#_ÂÁ_Ï_ÌÌ_È_ËÂÌÚ_4997-4);
      }

      .cls-21 {
        fill: url(#_ÂÁ_Ï_ÌÌ_È_ËÂÌÚ_4997-3);
      }

      .cls-22 {
        fill: url(#_ÂÁ_Ï_ÌÌ_È_ËÂÌÚ_4997-2);
      }

      .cls-23 {
        fill: url(#_ÂÁ_Ï_ÌÌ_È_ËÂÌÚ_4997-5);
      }

      .cls-24 {
        fill: url(#_ÂÁ_Ï_ÌÌ_È_ËÂÌÚ_4948-3);
        opacity: .8;
      }

      .cls-36 {
        isolation: isolate;
      }

      .cls-25 {
        fill: url(#_ÂÁ_Ï_ÌÌ_È_ËÂÌÚ_437);
      }

      .cls-37 {
        fill: #681e26;
      }

      .cls-35 {
        fill: #ffdba2;
      }

      .cls-26 {
        fill: url(#_ÂÁ_Ï_ÌÌ_È_ËÂÌÚ_4997);
      }

      .cls-27 {
        fill: url(#_ÂÁ_Ï_ÌÌ_È_ËÂÌÚ_4948);
      }

      .cls-28 {
        fill: url(#_ÂÁ_Ï_ÌÌ_È_ËÂÌÚ_4821);
      }

      .cls-29 {
        fill: url(#_ÂÁ_Ï_ÌÌ_È_ËÂÌÚ_1900);
      }

      .cls-30 {
        fill: url(#_ÂÁ_Ï_ÌÌ_È_ËÂÌÚ_4910);
      }

      .cls-38 {
        fill: url(#_ÂÁ_Ï_ÌÌ_È_ËÂÌÚ_2361);
      }

      .cls-39 {
        fill: url(#_ÂÁ_Ï_ÌÌ_È_ËÂÌÚ_2407);
      }

      .cls-40 {
        fill: url(#_ÂÁ_Ï_ÌÌ_È_ËÂÌÚ_2097);
      }

      .cls-41 {
        fill: url(#_ÂÁ_Ï_ÌÌ_È_ËÂÌÚ_4963);
      }

      .cls-42 {
        fill: url(#_ÂÁ_Ï_ÌÌ_È_ËÂÌÚ_1287);
      }
    </style>
    <linearGradient id="_ÂÁ_Ï_ÌÌ_È_ËÂÌÚ_1900" data-name="¡ÂÁ˚ÏˇÌÌ˚È „‡‰ËÂÌÚ 1900" x1="138.9" y1="288.62" x2="138.9" y2="17.58" gradientUnits="userSpaceOnUse">
      <stop offset="0" stop-color="#e7a4df"/>
      <stop offset="1" stop-color="#a12a9a"/>
    </linearGradient>
    <linearGradient id="_ÂÁ_Ï_ÌÌ_È_ËÂÌÚ_2097" data-name="¡ÂÁ˚ÏˇÌÌ˚È „‡‰ËÂÌÚ 2097" x1="-854.4" y1="1453.78" x2="-854.4" y2="1268.99" gradientTransform="translate(1451.41 -744.61) rotate(23.67)" gradientUnits="userSpaceOnUse">
      <stop offset="0" stop-color="#ef885e"/>
      <stop offset="0" stop-color="#ef885e"/>
      <stop offset=".64" stop-color="#faa563"/>
      <stop offset="1" stop-color="#ffb166"/>
    </linearGradient>
    <linearGradient id="_ÂÁ_Ï_ÌÌ_È_ËÂÌÚ_132" data-name="¡ÂÁ˚ÏˇÌÌ˚È „‡‰ËÂÌÚ 132" x1="-852.42" y1="1277.56" x2="-852.42" y2="1233.41" gradientTransform="translate(1451.41 -744.61) rotate(23.67)" gradientUnits="userSpaceOnUse">
      <stop offset="0" stop-color="#f18b59"/>
      <stop offset=".51" stop-color="#f99b60"/>
      <stop offset="1" stop-color="#ffa766"/>
    </linearGradient>
    <linearGradient id="_ÂÁ_Ï_ÌÌ_È_ËÂÌÚ_4910" data-name="¡ÂÁ˚ÏˇÌÌ˚È „‡‰ËÂÌÚ 4910" x1="-770.31" y1="1274.94" x2="-770.31" y2="1233.41" gradientTransform="translate(1451.41 -744.61) rotate(23.67)" gradientUnits="userSpaceOnUse">
      <stop offset="0" stop-color="#9e4c81"/>
      <stop offset="1" stop-color="#ffeae3"/>
    </linearGradient>
    <linearGradient id="_ÂÁ_Ï_ÌÌ_È_ËÂÌÚ_4910-2" data-name="¡ÂÁ˚ÏˇÌÌ˚È „‡‰ËÂÌÚ 4910" x1="-949.39" y1="1277.56" x2="-949.39" y2="1234.81" xlink:href="#_ÂÁ_Ï_ÌÌ_È_ËÂÌÚ_4910"/>
    <linearGradient id="_ÂÁ_Ï_ÌÌ_È_ËÂÌÚ_4963" data-name="¡ÂÁ˚ÏˇÌÌ˚È „‡‰ËÂÌÚ 4963" x1="-851.47" y1="1285.65" x2="-851.47" y2="1225.46" gradientTransform="translate(1451.41 -744.61) rotate(23.67)" gradientUnits="userSpaceOnUse">
      <stop offset="0" stop-color="#f1864d"/>
      <stop offset=".15" stop-color="#f38f51"/>
      <stop offset=".69" stop-color="#fbac60"/>
      <stop offset="1" stop-color="#ffb866"/>
    </linearGradient>
    <linearGradient id="_ÂÁ_Ï_ÌÌ_È_ËÂÌÚ_2407" data-name="¡ÂÁ˚ÏˇÌÌ˚È „‡‰ËÂÌÚ 2407" x1="-758.24" y1="1248.51" x2="-758.24" y2="1240.02" gradientTransform="translate(1451.41 -744.61) rotate(23.67)" gradientUnits="userSpaceOnUse">
      <stop offset="0" stop-color="#a45250"/>
      <stop offset=".02" stop-color="#a5534f"/>
      <stop offset=".47" stop-color="#d6724c"/>
      <stop offset=".81" stop-color="#f3864a"/>
      <stop offset="1" stop-color="#ff8e4a"/>
    </linearGradient>
    <linearGradient id="_ÂÁ_Ï_ÌÌ_È_ËÂÌÚ_2407-2" data-name="¡ÂÁ˚ÏˇÌÌ˚È „‡‰ËÂÌÚ 2407" x1="-954.52" y1="1252.32" x2="-954.52" y2="1247.86" xlink:href="#_ÂÁ_Ï_ÌÌ_È_ËÂÌÚ_2407"/>
    <linearGradient id="_ÂÁ_Ï_ÌÌ_È_ËÂÌÚ_2407-3" data-name="¡ÂÁ˚ÏˇÌÌ˚È „‡‰ËÂÌÚ 2407" x1="-951.12" y1="1260.52" x2="-951.12" y2="1257.04" xlink:href="#_ÂÁ_Ï_ÌÌ_È_ËÂÌÚ_2407"/>
    <linearGradient id="_ÂÁ_Ï_ÌÌ_È_ËÂÌÚ_2361" data-name="¡ÂÁ˚ÏˇÌÌ˚È „‡‰ËÂÌÚ 2361" x1="-849.55" y1="1451.14" x2="-876.6" y2="1285.88" gradientTransform="translate(1451.41 -744.61) rotate(23.67)" gradientUnits="userSpaceOnUse">
      <stop offset="0" stop-color="#f4e3e4"/>
      <stop offset="1" stop-color="#f386b8"/>
    </linearGradient>
    <linearGradient id="_ÂÁ_Ï_ÌÌ_È_ËÂÌÚ_2361-2" data-name="¡ÂÁ˚ÏˇÌÌ˚È „‡‰ËÂÌÚ 2361" x1="-813.28" y1="1445.21" x2="-840.34" y2="1279.93" xlink:href="#_ÂÁ_Ï_ÌÌ_È_ËÂÌÚ_2361"/>
    <linearGradient id="_ÂÁ_Ï_ÌÌ_È_ËÂÌÚ_2361-3" data-name="¡ÂÁ˚ÏˇÌÌ˚È „‡‰ËÂÌÚ 2361" x1="-789.87" y1="1441.37" x2="-816.92" y2="1276.1" xlink:href="#_ÂÁ_Ï_ÌÌ_È_ËÂÌÚ_2361"/>
    <linearGradient id="_ÂÁ_Ï_ÌÌ_È_ËÂÌÚ_2361-4" data-name="¡ÂÁ˚ÏˇÌÌ˚È „‡‰ËÂÌÚ 2361" x1="-812.84" y1="1445.14" x2="-839.89" y2="1279.86" xlink:href="#_ÂÁ_Ï_ÌÌ_È_ËÂÌÚ_2361"/>
    <linearGradient id="_ÂÁ_Ï_ÌÌ_È_ËÂÌÚ_2361-5" data-name="¡ÂÁ˚ÏˇÌÌ˚È „‡‰ËÂÌÚ 2361" x1="-814.37" y1="1445.36" x2="-841.41" y2="1280.14" xlink:href="#_ÂÁ_Ï_ÌÌ_È_ËÂÌÚ_2361"/>
    <linearGradient id="_ÂÁ_Ï_ÌÌ_È_ËÂÌÚ_2361-6" data-name="¡ÂÁ˚ÏˇÌÌ˚È „‡‰ËÂÌÚ 2361" x1="142.08" y1="260.19" x2="111.99" y2="76.38" gradientTransform="matrix(1,0,0,1,0,0)" xlink:href="#_ÂÁ_Ï_ÌÌ_È_ËÂÌÚ_2361"/>
    <linearGradient id="_ÂÁ_Ï_ÌÌ_È_ËÂÌÚ_2361-7" data-name="¡ÂÁ˚ÏˇÌÌ˚È „‡‰ËÂÌÚ 2361" x1="-887.04" y1="1412.64" x2="-892.17" y2="1381.3" xlink:href="#_ÂÁ_Ï_ÌÌ_È_ËÂÌÚ_2361"/>
    <linearGradient id="_ÂÁ_Ï_ÌÌ_È_ËÂÌÚ_2361-8" data-name="¡ÂÁ˚ÏˇÌÌ˚È „‡‰ËÂÌÚ 2361" x1="-868.31" y1="1398.28" x2="-869.89" y2="1388.66" xlink:href="#_ÂÁ_Ï_ÌÌ_È_ËÂÌÚ_2361"/>
    <linearGradient id="_ÂÁ_Ï_ÌÌ_È_ËÂÌÚ_2361-9" data-name="¡ÂÁ˚ÏˇÌÌ˚È „‡‰ËÂÌÚ 2361" x1="-896.15" y1="1415.53" x2="-897.21" y2="1409.03" xlink:href="#_ÂÁ_Ï_ÌÌ_È_ËÂÌÚ_2361"/>
    <linearGradient id="_ÂÁ_Ï_ÌÌ_È_ËÂÌÚ_130" data-name="¡ÂÁ˚ÏˇÌÌ˚È „‡‰ËÂÌÚ 130" x1="-855.68" y1="1441.03" x2="-855.68" y2="1279.82" gradientTransform="translate(1451.41 -744.61) rotate(23.67)" gradientUnits="userSpaceOnUse">
      <stop offset="0" stop-color="#ffeaf3"/>
      <stop offset="1" stop-color="#ffbdb1"/>
    </linearGradient>
    <linearGradient id="_ÂÁ_Ï_ÌÌ_È_ËÂÌÚ_129" data-name="¡ÂÁ˚ÏˇÌÌ˚È „‡‰ËÂÌÚ 129" x1="-853.18" y1="1355.77" x2="-802.44" y2="1355.77" gradientTransform="translate(1451.41 -744.61) rotate(23.67)" gradientUnits="userSpaceOnUse">
      <stop offset="0" stop-color="#90362b"/>
      <stop offset="1" stop-color="#e7570e"/>
    </linearGradient>
    <linearGradient id="_ÂÁ_Ï_ÌÌ_È_ËÂÌÚ_129-2" data-name="¡ÂÁ˚ÏˇÌÌ˚È „‡‰ËÂÌÚ 129" x1="-885.01" y1="1411.18" x2="-844.34" y2="1411.18" xlink:href="#_ÂÁ_Ï_ÌÌ_È_ËÂÌÚ_129"/>
    <linearGradient id="_ÂÁ_Ï_ÌÌ_È_ËÂÌÚ_1287" data-name="¡ÂÁ˚ÏˇÌÌ˚È „‡‰ËÂÌÚ 1287" x1="-867.9" y1="1326.46" x2="-863.95" y2="1313.38" gradientTransform="translate(1451.41 -744.61) rotate(23.67)" gradientUnits="userSpaceOnUse">
      <stop offset="0" stop-color="#b8003b"/>
      <stop offset="1" stop-color="#c70926"/>
    </linearGradient>
    <linearGradient id="_ÂÁ_Ï_ÌÌ_È_ËÂÌÚ_1287-2" data-name="¡ÂÁ˚ÏˇÌÌ˚È „‡‰ËÂÌÚ 1287" x1="-870.07" y1="1338.89" x2="-858.71" y2="1301.24" xlink:href="#_ÂÁ_Ï_ÌÌ_È_ËÂÌÚ_1287"/>
    <linearGradient id="_ÂÁ_Ï_ÌÌ_È_ËÂÌÚ_2407-4" data-name="¡ÂÁ˚ÏˇÌÌ˚È „‡‰ËÂÌÚ 2407" x1="-740.55" y1="1257.04" x2="-740.55" y2="1252.65" xlink:href="#_ÂÁ_Ï_ÌÌ_È_ËÂÌÚ_2407"/>
    <linearGradient id="_ÂÁ_Ï_ÌÌ_È_ËÂÌÚ_437" data-name="¡ÂÁ˚ÏˇÌÌ˚È „‡‰ËÂÌÚ 437" x1="-856.74" y1="1315.69" x2="-856.74" y2="1279.21" gradientTransform="translate(1451.41 -744.61) rotate(23.67)" gradientUnits="userSpaceOnUse">
      <stop offset="0" stop-color="#e1b6a6"/>
      <stop offset="1" stop-color="#831a5e"/>
    </linearGradient>
    <linearGradient id="_ÂÁ_Ï_ÌÌ_È_ËÂÌÚ_4910-3" data-name="¡ÂÁ˚ÏˇÌÌ˚È „‡‰ËÂÌÚ 4910" x1="-850.64" y1="1285.65" x2="-850.64" y2="1251.72" xlink:href="#_ÂÁ_Ï_ÌÌ_È_ËÂÌÚ_4910"/>
    <linearGradient id="_ÂÁ_Ï_ÌÌ_È_ËÂÌÚ_779" data-name="¡ÂÁ˚ÏˇÌÌ˚È „‡‰ËÂÌÚ 779" x1="-885.43" y1="1264.97" x2="-885.43" y2="1232.78" gradientTransform="translate(1451.41 -744.61) rotate(23.67)" gradientUnits="userSpaceOnUse">
      <stop offset="0" stop-color="#f6f4d4"/>
      <stop offset="1" stop-color="#ffbdb1"/>
    </linearGradient>
    <linearGradient id="_ÂÁ_Ï_ÌÌ_È_ËÂÌÚ_779-2" data-name="¡ÂÁ˚ÏˇÌÌ˚È „‡‰ËÂÌÚ 779" x1="-795.01" y1="1239.2" x2="-795.01" y2="1227.12" xlink:href="#_ÂÁ_Ï_ÌÌ_È_ËÂÌÚ_779"/>
    <linearGradient id="_ÂÁ_Ï_ÌÌ_È_ËÂÌÚ_4821" data-name="¡ÂÁ˚ÏˇÌÌ˚È „‡‰ËÂÌÚ 4821" x1="-901.74" y1="1453.77" x2="-901.74" y2="1321.25" gradientTransform="translate(1451.41 -744.61) rotate(23.67)" gradientUnits="userSpaceOnUse">
      <stop offset="0" stop-color="#904261"/>
      <stop offset="1" stop-color="#ffb1ae"/>
    </linearGradient>
    <linearGradient id="_ÂÁ_Ï_ÌÌ_È_ËÂÌÚ_4948" data-name="¡ÂÁ˚ÏˇÌÌ˚È „‡‰ËÂÌÚ 4948" x1="-915.49" y1="1453.41" x2="-915.49" y2="1441.33" gradientTransform="translate(1451.41 -744.61) rotate(23.67)" gradientUnits="userSpaceOnUse">
      <stop offset="0" stop-color="#904261"/>
      <stop offset="1" stop-color="#db7783"/>
    </linearGradient>
    <linearGradient id="_ÂÁ_Ï_ÌÌ_È_ËÂÌÚ_4948-2" data-name="¡ÂÁ˚ÏˇÌÌ˚È „‡‰ËÂÌÚ 4948" x1="-788.78" y1="1357" x2="-788.78" y2="1328.47" xlink:href="#_ÂÁ_Ï_ÌÌ_È_ËÂÌÚ_4948"/>
    <linearGradient id="_ÂÁ_Ï_ÌÌ_È_ËÂÌÚ_4997" data-name="¡ÂÁ˚ÏˇÌÌ˚È „‡‰ËÂÌÚ 4997" x1="-882.71" y1="1378.25" x2="-882.71" y2="1313.44" gradientTransform="translate(1451.41 -744.61) rotate(23.67)" gradientUnits="userSpaceOnUse">
      <stop offset="0" stop-color="#b64261"/>
      <stop offset="1" stop-color="#ffffae"/>
    </linearGradient>
    <linearGradient id="_ÂÁ_Ï_ÌÌ_È_ËÂÌÚ_4997-2" data-name="¡ÂÁ˚ÏˇÌÌ˚È „‡‰ËÂÌÚ 4997" x1="-811.35" y1="1329.29" x2="-811.35" y2="1314.44" xlink:href="#_ÂÁ_Ï_ÌÌ_È_ËÂÌÚ_4997"/>
    <linearGradient id="_ÂÁ_Ï_ÌÌ_È_ËÂÌÚ_4997-3" data-name="¡ÂÁ˚ÏˇÌÌ˚È „‡‰ËÂÌÚ 4997" x1="-899.13" y1="1406.42" x2="-899.13" y2="1393.23" xlink:href="#_ÂÁ_Ï_ÌÌ_È_ËÂÌÚ_4997"/>
    <linearGradient id="_ÂÁ_Ï_ÌÌ_È_ËÂÌÚ_4997-4" data-name="¡ÂÁ˚ÏˇÌÌ˚È „‡‰ËÂÌÚ 4997" x1="-829.03" y1="1356.29" x2="-829.03" y2="1343.98" xlink:href="#_ÂÁ_Ï_ÌÌ_È_ËÂÌÚ_4997"/>
    <linearGradient id="_ÂÁ_Ï_ÌÌ_È_ËÂÌÚ_4948-3" data-name="¡ÂÁ˚ÏˇÌÌ˚È „‡‰ËÂÌÚ 4948" x1="-846.56" y1="1439.33" x2="-758.05" y2="1439.33" xlink:href="#_ÂÁ_Ï_ÌÌ_È_ËÂÌÚ_4948"/>
    <linearGradient id="_ÂÁ_Ï_ÌÌ_È_ËÂÌÚ_4997-5" data-name="¡ÂÁ˚ÏˇÌÌ˚È „‡‰ËÂÌÚ 4997" x1="121.22" y1="237.89" x2="132.2" y2="212.85" gradientTransform="matrix(1,0,0,1,0,0)" xlink:href="#_ÂÁ_Ï_ÌÌ_È_ËÂÌÚ_4997"/>
  </defs>
  <g class="cls-36">
    <g id="Layer_2" data-name="Layer 2">
      <g id="_Layer_" data-name="&amp;lt;Layer&amp;gt;">
        <g>
          <path class="cls-29" d="M274.43,123.2c2.9-7.48,2.68-16-4.08-21.79h-.01c-1.15-.99-2.55-1.86-4.08-2.66-2.09-4.7-5.91-9.48-12.1-14.13,0,0-13.91-3.76-33.58-10.03l-5.61-1.81c-9.45-3.07-19.96-6.66-30.74-10.63.27.01.45.01.45.01,0,0-38.96-14.81-58.46-25.41-9.71-5.32-18.06-10.84-24.09-16.39-6.97-2.79-13.22-2.17-18.45.61-1.13-.77-2.22-1.53-3.25-2.28-11.57-5.25-21.62,8.99-21.68,23.93-.05,5.15,1.12,10.39,3.83,14.93,0,0,1.81.64,5.05,1.8.65,3.98,1.94,7.73,4,10.98,0,0,4.27,1.37,11.48,3.79-.05.19-.11.39-.17.59-.94,2.87-5.49,16.57-8.92,25.29-.29.71-.56,1.4-.86,2.11-.04.1-.08.18-.12.27-.87,2.07-1.76,4.15-2.68,6.24v.02c-1.28,2.91-2.62,5.85-4.02,8.78.03.07.06.13.1.2.03.07.07.15.1.22,2.8,6.48-3.17,8.96-4.72,9.48-.18.07-.32.1-.35.11-3.07,6.06-6.27,12.05-9.58,17.92h0c.83,1.77,1.93,3.22,2.82,4.23,0,0,.02.02.02.02.01.02.03.03.04.05.87.97,1.54,1.52,1.54,1.53-.01,0-.44-.07-1.11-.12-2.07-.15-6.48-.11-8.22,2.81-.03.06-.07.1-.1.14v.02c-.28.46-.56.93-.85,1.41-.21.36-.42.72-.64,1.07-.66,1.1-1.34,2.14-2,3.23-1.26,2.04-2.52,4.1-3.78,6.08-.58.93-1.15,1.82-1.74,2.68-.91,1.37-1.77,2.71-2.66,4.02-.08.12-.16.23-.23.35-.08.11-.15.23-.23.34-.8,1.2-1.6,2.37-2.42,3.51-.53.79-1.07,1.55-1.61,2.3-.21.29-.41.59-.61.88-.08.09-.14.18-.21.28-.35.51-.71,1.01-1.06,1.5-.51.69-1,1.36-1.5,2.04-.47.64-.93,1.23-1.4,1.85-.53.69-1.04,1.4-1.57,2.07-.47.64-.97,1.27-1.47,1.88-.47.62-.96,1.23-1.45,1.82-.89,1.1-1.76,2.13-2.63,3.16-1.66,1.97-3.3,3.86-4.89,5.56-.45.48-.89.94-1.33,1.39-1.72,1.8-3.37,3.34-4.99,4.77-.81.71-1.63,1.45-2.41,2.07-.14.11-.28.22-.42.33-.2.15-.39.31-.6.46-.18.14-.36.26-.54.4-.3.22-.6.45-.89.64-.23.16-.46.32-.69.47-.14.09-.29.19-.42.28.19,2.41.88,4.7,1.76,6.72.29.68.6,1.33.93,1.95,2.05,1.12,4.41,2.41,7.03,3.83,6.6,3.59,14.93,8.05,24.52,12.99.93.48,1.85.96,2.81,1.45h0c.78-.37,1.51-.64,2.21-.83,4.11-1.18,6.83.32,8.55,2.29,2.03,2.31,2.69,5.27,2.69,5.27h0c2.13,1.04,4.37,2.11,6.59,3.18,1.04.5,2.05,1,3.11,1.51.2.09.41.2.61.28.48.24.97.48,1.46.71.1.04.19.1.27.14.35.14.69.32,1.04.49.53.25.86.39.95.43h.01c1.36.64,2.7,1.27,4.05,1.9,1.37.64,2.73,1.26,4.13,1.88,1.13.51,2.27,1.04,3.41,1.54,2.83,1.28,5.68,2.53,8.59,3.78l.49.22c1.68.7,3.36,1.43,5.06,2.16.21.09.41.17.62.25,25.26,10.61,52.7,20.3,78.8,25.64,3.62-1.38,6.54-3.14,8.64-4.65.08-3.18.49-7.8,1.2-13.51.24-1.93.52-3.98.83-6.14t0-.03c1.06-7.48,2.52-16.32,4.34-25.86,2.19-7.4,3.8-14.7,4.37-20.98.97-4.3,1.98-8.65,3.07-13.02-.21-1.63-3.56-3.79-7.15-5.66.19-.76.39-1.5.6-2.27,3.77.21,7.61-.39,9.42-3.14v-.02c.05-.15.09-.31.13-.46l2.29-7.82c-.1.26-.21.52-.32.77,1.06-3.69,2.16-7.36,3.3-10.96l-2.99,10.19c1.13-2.76,2.17-6.22,3.11-10.58,1.78-5.6,3.64-11.04,5.6-16.24,1.12-2.88,4.64-11.74,8.24-19.25.19-.36.36-.74.54-1.11.01-.01.02-.03.03-.04,1.26-2.49,2.56-4.83,3.87-7.05,5.37,2.95,10.44,5.92,15.06,8.87,2.95.98,8.21-.54,13.68-3.79,1.81.99,3.6,1.97,5.33,2.95,3.32,1.23,7.24-.1,10.83-2.97,2.09-1.64,4.08-3.8,5.75-6.27-1.3-2.28-3.44-4.48-3.57-4.61.07.03.36.14.75.26.03.01.04.01.06.02.12.03.25.06.39.1,1.61.41,4.39.65,5.71-2.13h0s0,0,0,0h0Z"/>
          <path class="cls-40" d="M179.97,268c-2.11,1.52-5.02,3.28-8.64,4.66-26.1-5.34-53.54-15.03-78.8-25.64-.21-.07-.41-.16-.62-.25-1.7-.73-3.38-1.45-5.06-2.17l-.49-.21c-2.9-1.25-5.75-2.5-8.59-3.78-1.15-.51-2.29-1.02-3.41-1.54-1.4-.62-2.76-1.24-4.13-1.88-1.35-.63-2.69-1.25-4.05-1.88h-.01c-.1-.04-.43-.19-.95-.44-.35-.17-.69-.34-1.04-.49-.57-.27-1.17-.55-1.73-.83-.21-.09-.42-.21-.61-.29-3.32-1.59-6.55-3.15-9.71-4.69,0,0-2.69-11.8-13.46-6.73-14.69-7.5-26.64-14.05-34.36-18.26-1.28-2.48-2.44-5.45-2.68-8.67.34-.22.74-.49,1.1-.74.47-.32.95-.67,1.43-1.04.36-.26.68-.51,1.02-.79,2.35-1.86,4.83-4.15,7.41-6.83.42-.45.87-.92,1.32-1.39,2.44-2.61,4.95-5.53,7.52-8.74.49-.59.97-1.2,1.45-1.82.5-.62,1-1.25,1.47-1.89.99-1.28,1.98-2.59,2.97-3.92.49-.69,1-1.37,1.5-2.05.43-.59.84-1.19,1.28-1.79.75-1.03,1.49-2.08,2.23-3.16.8-1.15,1.61-2.33,2.42-3.52.15-.22.29-.46.45-.69.89-1.31,1.76-2.64,2.66-4.02.58-.87,1.16-1.76,1.74-2.68,1.92-3.02,3.87-6.12,5.78-9.31.5-.81,1-1.66,1.48-2.48v-.02s.08-.08.11-.15c2.31-3.86,9.34-2.67,9.34-2.67,0,0-2.75-2.25-4.43-5.82,3.3-5.88,6.51-11.86,9.58-17.93.34-.08,8.21-2.33,5.07-9.6-.06-.14-.13-.26-.2-.41,1.4-2.93,2.75-5.87,4.02-8.79h0c7.63-17.29,13.44-34.04,15.95-47.92l141.33,59.8c-12.39,14.44-22.98,43.13-30.99,72.81v.02c-4.08,6.22-18.47,1.46-19.17,1.22.69.31,15.85,6.31,16.31,9.85-5.52,22.18-9.54,43.98-11.77,59.87t0,.04c-.31,2.15-.59,4.21-.83,6.13-.71,5.71-1.11,10.34-1.2,13.51Z"/>
          <path class="cls-32" d="M267.51,108.99c.12.13,2.27,2.33,3.57,4.61-1.67,2.46-3.66,4.63-5.75,6.27-3.59,2.86-7.52,4.19-10.83,2.96-11.35-6.39-24.64-13.06-38.82-19.68-47.99-22.43-106.29-44.51-135.14-55.09-11.22-4.12-17.98-6.49-17.98-6.49-2.71-4.53-3.88-9.78-3.83-14.92.05-14.93,10.11-29.18,21.68-23.93,4.36,3.17,9.6,6.47,15.54,9.86,34.77,19.82,92.87,42.27,130.98,56.12,22.25,8.07,37.7,13.23,37.7,13.23,2.27,1,4.16,2.18,5.71,3.52h.01c6.76,5.8,6.98,14.31,4.08,21.8-2.07,3.78-6.6,1.89-6.92,1.75Z"/>
          <path class="cls-30" d="M265.33,119.88c-3.59,2.86-7.52,4.19-10.83,2.96-11.35-6.39-24.64-13.06-38.82-19.68l3.54-32.46,7.71-2c22.25,8.07,37.7,13.23,37.7,13.23,2.27,1,4.16,2.18,5.71,3.52-1.57-.34-2.71,10.97-5.51,12.62,0,0,1.39,5.68.8,6.92-.6,1.24-8,9.46-7.33,12.67.47,2.3,4.7,2.37,7.03,2.22Z"/>
          <path class="cls-14" d="M94.37,27.95l-13.83,20.13c-11.22-4.12-17.98-6.49-17.98-6.49-2.71-4.53-3.88-9.78-3.83-14.92.49.65,7.78,10.12,9.43-.76,1.7-11.26,13.3-21.39,12.25-23.16,4.36,3.17,9.6,6.47,15.54,9.86l-1.58,15.36Z"/>
          <path class="cls-41" d="M265.4,103.21c-6.76,13.35-23.61,22.57-29.91,20.48C182.18,89.56,71.62,54.37,71.62,54.37c-3.59-5.69-4.93-12.9-4.37-20.14,0-.03,0-.04,0-.06,0-.16,0-.31.03-.45.01-.02,0-.02,0-.04,0-.02,0-.05.01-.07.23-4.75,12.14-3.82,12.14-3.82,0,0-9.58-5.22-8.73-7.97.85-2.74,5.52-2.08,5.52-2.08,0,0-3.68-1.74-2.08-5.9,6.18-9.04,16-14.21,27.96-9.43,35.64,32.81,152.03,64.25,152.03,64.25,9.21,6.91,13.26,14.1,14,20.91t0,.04c-.65,6.83-13.96,3.09-13.96,3.09,0,0,10.48,4.59,11.2,9.55h0c.05.33.06.64.01.97Z"/>
          <path class="cls-39" d="M267.94,90.6c-1.28,8.13-21.04.04-21.04.04,0,0,17.38,5.47,21.04-.04Z"/>
          <path class="cls-35" d="M44.29,193.1c-14.03-21.69-8.97-32.56,24.54-46.1,33.51-13.54,26.2,39.64,54.34,38.78,28.15-.86,62.4,3.26,49.71,45.83-12.69,42.57-84.51,24.57-97.05-10-12.54-34.57-8.32-45.71-31.55-28.51Z"/>
          <path class="cls-11" d="M74.04,14.18c-2.09,4.29,2.68,6.04,2.68,6.04,0,0-3.72-2.97-2.68-6.04Z"/>
          <path class="cls-10" d="M70.79,22.77c1.02,6.29,8.66,7,8.66,7,0,0-7.04-3.48-8.66-7Z"/>
          <path class="cls-35" d="M33.51,203.1c-22-22.46,9.67-33.62,11.34-45.87,1.66-12.26,23.97-10.23,23.97-10.23,0,0-9.54-6.55-5.64-20.66,3.91-14.1,63.11-5.46,90.18,24.4,27.06,29.86,3.59,43.14,3.59,43.14,0,0,17.9-16.84,29.32-9.89,11.42,6.95-.51,46.03-11.46,67.88-10.96,21.85-68.51,3.9-82.9-8.29-14.38-12.19-9.59-23.14-9.59-23.14,0,0,2.72,13.55-11.9-.48-14.62-14.02-13.99-28.06-13.99-28.06,0,0-9.43,16.65-22.92,11.19Z"/>
          <g class="cls-15">
            <path class="cls-38" d="M152.1,133.99c-4.08-1.79-14.47-2.54-16.56,3.81-.82,2.53-1.65,6.15-2.46,9.49-1.19,5.08-2.33,9.55-3.38,8.58-1.74-1.59-4.48-14.27-13.56,3.06-9.06,17.35-37.49,2.06-34.62-6.88,2.87-8.92-3.37-5.47-1.34-17.45,2-11.96,6.22-26.86,2.88-34.89-1.65-3.92-.3-7.14,1.82-9.19,2.2-2.16,5.29-3.04,6.78-2.13,2.91,1.77-3.09-27.71,14.54-13.16,1.14-4.19,6.88,3.22,6.88,3.22,0,0,5.83-10.93,12.5,3.07,6.67,14,3.29,11.46.1,12.39-3.17.94-13.19-10.17-6.61-.71,6.59,9.47,13.53,6.28,13.53,6.28,0,0,6.28-10.4,7.91-7.81,1.64,2.6,1.46,7.74,9.2,6.64,7.75-1.09,23.35-12.96,22.1,7.26-1.26,20.21-15.65,30.18-19.72,28.41Z"/>
            <path class="cls-4" d="M152.27,148.59c-9.92-8.15-10.95,5.24-10.46,12.04.49,6.78,10.57-4.37,13.38-2.1,2.81,2.27,5.31,6.82,6.3-7.28.99-14.1-9.22-2.66-9.22-2.66Z"/>
            <path class="cls-7" d="M183.01,129.8c-9.32-4.01-10.18,11.19-8.93,16.24,1.24,5.05,9.42-3.14,13.51-9.31,4.09-6.17,3.16.69,6.74-9.85,3.58-10.54-7.72-6.08-8.65-7.91-.93-1.83,6.35-6.59,9.3-4.62,2.93,1.98-2.18-6.17-5.86-11.91-3.69-5.73-11.46,6.41-15.08,16.24-3.61,9.83,11.42,5.54,8.97,11.12Z"/>
            <path class="cls-8" d="M148.19,177.4c-5.49-6.99-8.01,9.85-7.39,10.82.61.96,10.87-6.39,7.39-10.82Z"/>
            <path class="cls-3" d="M149.49,162.84c-3.32-1.11-3.06,2.63-2.71,5.39.35,2.75,2.71-5.39,2.71-5.39Z"/>
            <path class="cls-2" d="M166.34,207.63c-4.47-2.41-3.41,3.59-1.62,4.76,1.79,1.14,3.14-.85-.7,16.37-1.15,5.2-3.27,9.41-5.71,12.48-5.58,7.17-12.87,8.46-13.87,2.67-1.43-8.31-13.22-16.13-19.42-11.49-6.2,4.68-.09,9.67-5.52,1.29-5.44-8.37,2.17-18.89-2.42-15.83-4.58,3.08-19.57,9.9-13.6,4.7,5.53-4.83-9.67-12.84-3.58-23.89,0-.06.03-.09.06-.14.47-.86,1.08-1.72,1.83-2.6,10.52-12.45,24.41-7.31,24.53-1.26.15,6.02.91,3.18,8.46-1.38,7.52-4.53.91,3.17,3.97,7.76,3.08,4.58,16.3-18.25,25.15-6.79,0,0,6.93,15.78,2.44,13.34Z"/>
            <path class="cls-5" d="M88.4,182.23c-.27-8.96,3.5-6.5-3.54-8.61-7.04-2.1-5.78-7.33-6.71-10.74-.93-3.4-13.48-1.62-16.5,11.58-3.02,13.21,8.99,7.85,11.18,8.41,2.2.56.05,3.08.27,8.89.23,5.81,19.19.65,15.3-9.54Z"/>
            <path class="cls-6" d="M99.89,178.84c-7.98-3.11-6.9,6.25-4.8,8.56,2.11,2.31,4.8-8.56,4.8-8.56Z"/>
            <path class="cls-9" d="M61.48,185.13c-1.74-.64-.2,1.65,1.02,5.98,1.21,4.34,8.82-2.36-1.02-5.98Z"/>
          </g>
          <path class="cls-18" d="M91.33,61.06c.21,9.8-30.51,72.77-42.24,90.08-11.73,17.3-25.6,33.88-29.86,37.3-4.27,3.41.81,9.2.81,9.2,0,0,114.5,62.7,148.77,57.18,0,0,9.18-38.43,17.49-70.82,8.31-32.39,24.87-74.1,24.87-74.1,0,0-69.99-33.85-119.83-48.84Z"/>
          <path class="cls-31" d="M153.57,206.44c-.12-.06-.23-.12-.35-.21-.75-.58-.9-1.65-.32-2.41.7-.92,1.38-1.82,2.03-2.72.55-.77,1.63-.95,2.4-.39.77.56.95,1.63.39,2.39-.67.93-1.36,1.86-2.08,2.8-.49.65-1.35.84-2.06.54ZM159.44,197.97c-.08-.04-.14-.08-.21-.11-.81-.51-1.06-1.56-.56-2.37.6-.97,1.17-1.95,1.71-2.9.47-.83,1.5-1.11,2.34-.65.82.47,1.12,1.52.65,2.34-.56,1-1.15,2.01-1.79,3.01-.45.74-1.37,1.01-2.15.68ZM164.3,188.89s0,0,0,0c-.87-.4-1.26-1.41-.87-2.27l.23-.52c.38-.87.73-1.73,1.06-2.57.34-.88,1.34-1.33,2.22-.98.87.32,1.33,1.33.98,2.22-.34.91-.72,1.81-1.12,2.72l-.23.54c-.39.86-1.4,1.25-2.27.88ZM167.71,179.18c-.76-.33-1.18-1.16-.97-1.99.27-1.08.51-2.18.71-3.23.17-.94,1.06-1.56,2-1.38.93.16,1.55,1.05,1.38,1.99-.2,1.15-.46,2.31-.75,3.47-.23.92-1.17,1.48-2.09,1.25-.1-.03-.19-.06-.27-.1ZM169.16,169.03c-.62-.28-1.05-.91-1.03-1.63.03-1.1.02-2.2-.04-3.29-.06-.94.67-1.76,1.62-1.81.95-.05,1.76.67,1.81,1.62.06,1.17.08,2.38.04,3.57-.03.95-.82,1.7-1.76,1.68-.23,0-.45-.06-.64-.14ZM168.18,158.81c-.49-.21-.87-.64-.99-1.2-.24-1.06-.53-2.12-.87-3.17-.29-.9.21-1.87,1.12-2.16.9-.29,1.87.21,2.16,1.12.36,1.14.67,2.3.94,3.45.21.93-.38,1.85-1.3,2.05-.37.09-.74.04-1.06-.1ZM164.67,149.14c-.35-.15-.66-.43-.84-.79-.49-.98-1.03-1.95-1.61-2.89-.49-.81-.23-1.87.58-2.36.82-.49,1.87-.23,2.36.57.62,1.02,1.2,2.07,1.74,3.12.43.84.09,1.88-.75,2.31-.48.24-1.02.24-1.47.04ZM159.03,140.53c-.24-.11-.47-.27-.65-.49-.71-.88-1.43-1.72-2.17-2.52-.65-.7-.6-1.78.1-2.43.69-.64,1.79-.59,2.42.1.79.85,1.56,1.75,2.33,2.68.6.74.48,1.82-.25,2.42-.52.42-1.21.48-1.78.24ZM151.85,133.14c-.16-.07-.31-.16-.44-.27-.89-.77-1.76-1.48-2.59-2.13-.75-.58-.89-1.66-.3-2.41.58-.75,1.67-.89,2.41-.31.88.69,1.8,1.43,2.73,2.24.71.63.8,1.71.17,2.43-.5.58-1.32.74-1.98.45ZM143.54,127.01c-.08-.04-.15-.07-.22-.11-1.74-1.08-2.86-1.63-2.87-1.64-.85-.41-1.2-1.45-.78-2.3.43-.85,1.48-1.2,2.3-.78.05.03,1.26.62,3.16,1.8.8.5,1.05,1.56.56,2.37-.46.74-1.38,1-2.15.67Z"/>
          <path class="cls-33" d="M94.24,212.02c-.82-.36-1.23-1.29-.92-2.15.32-.9,1.3-1.36,2.2-1.04.98.34,2.01.63,3.08.86.93.18,1.52,1.11,1.32,2.04-.18.93-1.1,1.52-2.03,1.33-1.22-.26-2.4-.58-3.53-.99-.04-.01-.08-.03-.12-.04ZM88.23,208.76c-.12-.06-.25-.13-.36-.21-.96-.75-1.89-1.59-2.74-2.5-.65-.69-.61-1.78.08-2.43.69-.65,1.79-.61,2.43.09.73.78,1.51,1.48,2.33,2.12.75.59.89,1.66.31,2.41-.5.63-1.35.83-2.05.53ZM104.38,213.59c-.6-.27-1.03-.86-1.04-1.56,0-.94.75-1.72,1.71-1.73,1.07,0,2.18-.06,3.29-.16.95-.08,1.78.62,1.87,1.56.08.94-.62,1.78-1.57,1.87-1.2.11-2.4.17-3.56.17-.25,0-.49-.05-.7-.14ZM81.81,200.8c-.36-.15-.66-.43-.84-.8-.54-1.06-1.02-2.19-1.44-3.35-.32-.89.14-1.88,1.04-2.2.89-.33,1.87.14,2.2,1.03.38,1.04.8,2.03,1.28,2.98.43.85.08,1.88-.77,2.31-.47.24-1,.23-1.46.03ZM78.8,190.97c-.52-.23-.92-.71-1.01-1.33-.25-1.72-.32-3.01-.33-3.63-.03-.95.72-1.74,1.68-1.77.95-.02,1.74.73,1.76,1.67,0,.45.06,1.63.3,3.23.13.94-.52,1.81-1.46,1.95-.33.05-.65,0-.93-.13Z"/>
          <path class="cls-42" d="M115.79,100.79l-4.07,9.29s19.69,10.82,25.82,23.34l4.91-2.26s-4.61-23.56-26.66-30.38Z"/>
          <path class="cls-1" d="M140.05,100.33l7.44,8.18s-25.51,13.25-30.47,23.86l-5.33-4.89s15.08-20.61,28.37-27.15Z"/>
          <path class="cls-12" d="M274.44,107.23c-3.26,3.1-9.99.41-9.99.41l3.05,1.33s5.03,2.28,6.94-1.74Z"/>
          <path class="cls-25" d="M72.54,87.57c12.32-16.05,48.25-7.47,89.71,13.24,41.46,20.71,45.13,42.41,45.13,42.41,0,0,7.74-20.22,13.05-28.44,0,0-45.17-26.67-137.3-56.63,0,0-6.76,20.71-10.59,29.42Z"/>
          <path class="cls-13" d="M265.4,103.21c-6.76,13.35-23.61,22.57-29.91,20.48C182.18,89.56,71.62,54.37,71.62,54.37c-3.59-5.69-4.93-12.9-4.37-20.14,0-.03,0-.04,0-.06,0-.16,0-.31.03-.45.01-.02,0-.02,0-.04,0-.02,0-.05.01-.07,2.92,12.23,161.75,69.55,173.07,78.49,11.31,8.92,22.59-4.9,25.02-9.85.05.32.06.63.01.96Z"/>
          <path class="cls-17" d="M124.32,19.75c-24.42-9.14-28.8,12.31-22.68,22.43,6.12,10.12,12.8,4.75,29.62-2.42,16.82-7.17,8.33.36,9.26,7.69.94,7.34,19.17,7.2,28.75,2.74,9.57-4.46,15.41-3.99,15.41-3.99,0,0-41.6-15.82-60.35-26.44Z"/>
          <path class="cls-16" d="M214.87,56.79c2.78,1.97,2.2,11.58,13.76,15.61s16.57-5.84,16.57-5.84l-30.34-9.77Z"/>
          <path class="cls-34" d="M105.2,12.08c-24.41-10.12-28.7,6.28-27.04,8.13,1.66,1.86-3.2.83-4.7,1.36-1.49.52,7.24,7.45,7.24,7.45,0,0,6.79,7.49,12.44,6.27,5.66-1.22,4.7-14.32,11.28-17.22,6.57-2.88.78-5.99.78-5.99Z"/>
          <path class="cls-34" d="M136.63,39.35c-6.75,1.19-16.43,6.42-18.1,10.76-1.67,4.34,116.2,50.57,123.54,57.71,7.33,7.14,14.37,5.11,17.07-4.19,2.69-9.3-29.19-18.69-29.19-18.69,0,0,32.17,11.36,34.84,4.23,2.66-7.14-10.39-18.97-15.67-20.07-5.29-1.1,1.4,9.44-19.04,3.94-20.43-5.5-10.24-9.81-17.61-14.64-7.37-4.84-20.26-10.87-40.7-5.3-20.45,5.58-25.29.62-27.48-7.04-2.18-7.65-7.67-6.7-7.67-6.7Z"/>
          <path class="cls-28" d="M86.86,244.6c-3.07-1.33-6.09-2.66-9.08-4-1.15-.51-2.29-1.02-3.41-1.54-1.39-.62-2.76-1.24-4.13-1.88-1.35-.62-2.71-1.25-4.06-1.88h-.01c-.09-.04-.43-.2-.96-.44-.34-.17-.69-.34-1.04-.49-.58-.27-1.17-.55-1.74-.84-.2-.09-.41-.2-.61-.28-3.31-1.58-6.55-3.14-9.71-4.7,0,0-2.68-11.79-13.46-6.72-14.69-7.5-26.64-14.04-34.36-18.26-1.29-2.47-2.43-5.45-2.68-8.67.36-.22.74-.48,1.11-.73.47-.33.95-.68,1.43-1.06.34-.25.68-.51,1.02-.78,2.35-1.86,4.81-4.16,7.4-6.84.43-.45.88-.91,1.33-1.39,2.44-2.6,4.96-5.52,7.53-8.73.48-.59.96-1.19,1.46-1.82.49-.62.99-1.25,1.46-1.88.98-1.27,1.98-2.59,2.97-3.92.49-.68.99-1.36,1.5-2.05.42-.58.87-1.17,1.28-1.78.74-1.04,1.5-2.08,2.22-3.18.82-1.14,1.62-2.32,2.42-3.5.15-.22.31-.45.47-.69.89-1.31,1.76-2.64,2.66-4.01.58-.88,1.15-1.78,1.74-2.68,1.93-3.03,3.88-6.14,5.78-9.3.5-.83,1-1.67,1.49-2.49v-.02s.08-.08.11-.15c2.31-3.85,9.34-2.67,9.34-2.67,0,0-2.76-2.25-4.43-5.82,3.31-5.88,6.51-11.87,9.58-17.92.34-.1,8.2-2.34,5.07-9.6-.06-.13-.12-.27-.19-.41,1.39-2.94,2.74-5.87,4.01-8.79-4.02,12.88,1.48,16.55,1.48,16.55,0,0-5.97-.75-9.24,3.8-3.27,4.58.75,9.59-3.97,11.19-4.73,1.58-1.45,12.52,7.52,17.83,0,0-12.54-6.66-17.46-.16-4.93,6.49-4.06,8.48-5.63,8.39-1.57-.12-8.99,4.7-7.55,12.72,1.46,8.03-12.84,12.72-15.8,15.57-2.99,2.86-9.38,8.24-9.8,15.78-.41,7.38,9.02,4.92,9.38,4.84-.33.46-3.48,5.32,9.3,12.57,13.38,7.59,14.67,6.53,18.08,5.6,3.41-.94,3.8,6.74,12.91,11.68,7.04,3.82,16.21,1.6,16.64,1.3-.29.36-3.27,4.74,10.68,14.25Z"/>
          <path class="cls-27" d="M61.82,233.25c-3.31-1.58-6.55-3.14-9.71-4.7,0,0-2.68-11.79-13.46-6.72-14.69-7.5-26.64-14.04-34.36-18.26-1.29-2.47-2.43-5.45-2.68-8.67.36-.22.74-.48,1.11-.73-.75,3.19,5.02,7.38,7.42,10.19,2.4,2.82,24.77,15.55,27.58,16.02,2.79.46,6.06-1.5,9.93-.96,3.86.54,3.86,6.59,6.06,8.94,1.24,1.33,5.03,3.36,8.1,4.89Z"/>
          <path class="cls-19" d="M202.19,158.36c-5.38,25.22-14.5,20.93-19.61,20.59-5.12-.34-7.09-1.19-7.09-1.19,0,0,4.46,2.46,10.65,2.75,6.19.29,8.91-1.25,10.49-3.13l5.57-19.02Z"/>
          <path class="cls-26" d="M129.7,155.87c-1.74-1.59-4.48-14.27-13.56,3.06-9.06,17.35-37.49,2.06-34.62-6.88,2.87-8.92-3.37-5.47-1.34-17.45,2-11.96,6.22-26.86,2.88-34.89-1.65-3.92-.3-7.14,1.82-9.19-2.05,6.12,1.92,12.36,1.92,12.36,0,0-3.08,21.48-5.38,30.17-2.31,8.67,2.94,12.25,2.94,12.25,0,0-2.81,5.08-1.87,10.33.93,5.27,16.18,12.3,25.07,8.36,8.88-3.95,10.61-10.43,14.7-13.61,4.08-3.17,4.74,2.28,6.81,2.5,2.07.22,3.62-6.49,3.91-6.35.05.02.08.29.11.75-1.19,5.08-2.33,9.55-3.38,8.58Z"/>
          <path class="cls-22" d="M175.91,131.52c-1.52,2.27-2.89,11.71-.83,13.74,2.05,2.03,7.3-3.03,7.52-2.93.21.09-4.36,5.8-7.12,5.19-2.77-.61-2-11.43.43-16Z"/>
          <path class="cls-21" d="M64.03,168.5c-5.08,17.24,4.63,14.63,4.63,14.63,0,0-2.06,1.34-5.57-.72-3.52-2.05-.51-10.7.94-13.91Z"/>
          <path class="cls-20" d="M141.88,153.73s.17,6.05,1.89,7.79c1.72,1.73,8.51-3.49,9.81-3.95,1.3-.47,2.21,1.66,4.31,2.41,2.09.74,3.01-2.78,3.01-2.78,0,0,.08,3.84-1.74,4.14-1.82.3-3.43-2.61-4.93-3.14-1.5-.54-8.53,5.52-10.94,4.71-2.42-.82-1.41-9.17-1.41-9.17Z"/>
          <path class="cls-24" d="M179.97,268c-2.11,1.52-5.02,3.28-8.64,4.66-26.1-5.34-53.54-15.03-78.8-25.64,23.63,9.66,66.15,22.54,73.58,21.79,7.03-.67,12.7-2.05,15.06-14.31-.71,5.71-1.11,10.34-1.2,13.51Z"/>
          <path class="cls-23" d="M158.34,241.1l-.03.14c-5.58,7.17-12.87,8.46-13.87,2.67-1.43-8.31-13.22-16.13-19.42-11.49-6.2,4.68-.09,9.67-5.52,1.29-5.44-8.37,2.17-18.89-2.42-15.83-4.58,3.08-19.57,9.9-13.6,4.7,5.53-4.83-9.67-12.84-3.58-23.89-2.82,6.32,5.87,17.36,5.46,20.75-.45,3.43,11.69-2.2,13.22-2.97,1.52-.77-.15,7.02.26,11.45.41,4.47,3,5.32,3,5.32,0,0,2.29-4.56,10.28-2.23,8.03,2.3,11.02,9.82,15.81,13.23,4.59,3.23,9.88-2.56,10.4-3.14Z"/>
          <path class="cls-37" d="M75.52,1.62c1.59,0,3.23.35,4.9,1.11,1.03.75,2.12,1.51,3.25,2.28,2.9-1.53,6.1-2.42,9.58-2.41,2.79,0,5.76.56,8.87,1.81,6.03,5.55,14.38,11.07,24.09,16.39,19.5,10.6,58.46,25.4,58.46,25.4,0,0-.19,0-.45,0,10.78,3.97,21.29,7.55,30.74,10.62l5.61,1.81c19.67,6.27,33.58,10.03,33.58,10.03,6.19,4.65,10.02,9.43,12.1,14.13,1.54.8,2.94,1.68,4.08,2.67h.01c6.76,5.79,6.98,14.31,4.08,21.79h0s0,0,0,0h0c-.89,1.88-2.46,2.37-3.88,2.37-.67,0-1.32-.12-1.83-.25-.14-.03-.27-.07-.39-.1-.02,0-.04-.01-.06-.02-.4-.12-.69-.24-.75-.26.12.13,2.27,2.33,3.57,4.61-1.67,2.46-3.66,4.63-5.75,6.27-2.68,2.14-5.55,3.42-8.21,3.42-.91,0-1.78-.15-2.62-.46-1.73-.97-3.52-1.95-5.33-2.94-4.35,2.59-8.58,4.08-11.62,4.08-.77,0-1.46-.1-2.06-.29-4.62-2.96-9.69-5.92-15.06-8.87-1.31,2.2-2.61,4.55-3.87,7.04,0,.02-.01.04-.03.05-.18.36-.36.75-.54,1.12-3.6,7.5-7.12,16.36-8.24,19.24-1.96,5.21-3.82,10.64-5.6,16.24-.94,4.37-1.98,7.83-3.11,10.59l2.99-10.19c-1.14,3.6-2.24,7.26-3.3,10.96.11-.24.21-.5.32-.77l-2.29,7.82c-.04.15-.08.3-.12.46v.02c-1.6,2.43-4.78,3.18-8.08,3.18-.45,0-.9-.01-1.35-.04-.21.76-.41,1.51-.6,2.26,3.6,1.88,6.94,4.04,7.15,5.66-1.09,4.38-2.1,8.73-3.07,13.03-.57,6.27-2.18,13.58-4.37,20.98-1.82,9.54-3.28,18.37-4.34,25.86t0,.04c-.31,2.15-.59,4.21-.83,6.13-.71,5.71-1.11,10.34-1.2,13.51-2.11,1.52-5.02,3.28-8.64,4.66-26.1-5.34-53.54-15.03-78.8-25.64-.21-.07-.41-.16-.62-.25-1.7-.73-3.38-1.45-5.06-2.17l-.49-.21c-2.9-1.25-5.75-2.5-8.59-3.78-1.15-.51-2.29-1.02-3.41-1.54-1.4-.62-2.76-1.24-4.13-1.88-1.35-.63-2.69-1.25-4.05-1.88h-.01c-.1-.04-.43-.19-.95-.44-.35-.17-.69-.34-1.04-.49-.09-.04-.18-.09-.27-.13-.49-.23-.98-.46-1.46-.71-.2-.09-.41-.2-.61-.28-1.06-.51-2.07-1-3.11-1.51-2.22-1.07-4.46-2.14-6.59-3.18h0s0-.01,0-.01c0,0-.67-2.95-2.69-5.25-1.3-1.49-3.17-2.71-5.77-2.71-.85,0-1.78.12-2.79.41-.7.2-1.43.46-2.21.83h0c-.97-.49-1.88-.96-2.81-1.44-9.59-4.93-17.92-9.4-24.52-12.99-2.62-1.42-4.98-2.71-7.03-3.83-.32-.62-.63-1.27-.93-1.95-.88-2.03-1.57-4.31-1.76-6.73.13-.08.28-.19.42-.27.23-.15.46-.31.69-.47.29-.2.59-.42.89-.65.18-.14.36-.26.54-.41.21-.15.4-.3.6-.46.14-.11.28-.21.42-.33.78-.62,1.6-1.36,2.41-2.06,1.62-1.43,3.27-2.98,4.99-4.77.43-.45.88-.91,1.33-1.39,1.59-1.7,3.23-3.59,4.89-5.56.87-1.04,1.74-2.06,2.63-3.16.49-.59.97-1.2,1.45-1.82.5-.62,1-1.25,1.47-1.89.53-.67,1.04-1.37,1.57-2.07.47-.62.93-1.22,1.4-1.85.49-.68.99-1.36,1.5-2.05.35-.49.71-.99,1.06-1.5.08-.09.14-.19.21-.28.2-.28.41-.58.61-.88.54-.76,1.08-1.51,1.61-2.3.82-1.14,1.62-2.32,2.42-3.5.08-.11.15-.23.23-.34.08-.12.15-.24.23-.35.89-1.31,1.76-2.64,2.66-4.02.58-.87,1.16-1.76,1.74-2.68,1.26-1.97,2.52-4.03,3.78-6.07.67-1.08,1.35-2.13,2-3.22.22-.36.43-.72.64-1.08.29-.48.57-.95.84-1.41v-.02s.08-.08.11-.15c1.43-2.39,4.67-2.84,6.93-2.84.48,0,.93.01,1.29.04.67.05,1.1.12,1.11.12,0,0-.67-.56-1.54-1.53-.01-.02-.03-.03-.04-.04,0-.02-.01-.02-.02-.03-.89-1.01-1.99-2.45-2.82-4.22h0s0,0,0,0c3.3-5.88,6.51-11.86,9.58-17.93.04-.02.17-.04.35-.11,1.54-.52,7.52-3,4.72-9.49-.03-.07-.07-.14-.1-.21-.03-.07-.06-.13-.1-.2,1.4-2.93,2.75-5.87,4.02-8.79h0c.92-2.1,1.81-4.18,2.68-6.25.04-.1.08-.18.12-.28.29-.71.56-1.41.86-2.11,3.44-8.72,7.98-22.41,8.92-25.29.06-.2.12-.4.17-.59-7.21-2.42-11.48-3.78-11.48-3.78-2.06-3.26-3.35-7.01-4-10.99-3.25-1.16-5.05-1.8-5.05-1.8-2.71-4.53-3.88-9.78-3.83-14.92.05-12.77,7.41-25.04,16.78-25.04h0ZM75.52,0c-10.94,0-18.34,13.78-18.4,26.65-.06,5.78,1.36,11.23,4.06,15.76.19.33.5.57.85.7,0,0,1.48.52,4.16,1.48.75,4.01,2.12,7.58,4.06,10.65.2.33.51.56.88.68,0,0,3.67,1.17,9.95,3.27-1.39,4.21-5.45,16.31-8.59,24.26l-.36.87c-.16.4-.32.81-.49,1.21l1.37.9-1.49-.62c-.86,2.06-1.75,4.13-2.67,6.21-1.27,2.91-2.62,5.85-4,8.75-.21.44-.21.95,0,1.4l.12.23c.74,1.73.84,3.13.33,4.27-.87,1.97-3.3,2.91-4.03,3.16l-.23.07c-.44.12-.84.43-1.04.83-3.01,5.93-6.22,11.94-9.55,17.86-.25.45-.27,1-.06,1.46.03.05.05.1.08.15.49,1.07,1.18,2.18,2.01,3.27-3.29.26-5.66,1.48-6.91,3.57-.05.08-.1.14-.14.22l-.82,1.37-.2.34-.43.71c-.41.67-.8,1.31-1.2,1.95l-.8,1.28-.73,1.19c-1.01,1.64-2.03,3.28-3.03,4.86-.58.92-1.15,1.79-1.72,2.65l-.54.81c-.71,1.08-1.41,2.14-2.12,3.2l-.25.39-.08.11-.13.19c-.79,1.18-1.59,2.35-2.39,3.48-.48.7-.95,1.36-1.41,2.02l-.21.28-.27.39-.33.47-.14.19c-.35.51-.64.91-.91,1.29l-.22.3-1.49,2.04c-.3.41-.6.81-.91,1.21l-.48.63-.44.58c-.37.49-.74,1-1.12,1.47-.48.66-.97,1.27-1.45,1.87-.49.63-.97,1.23-1.44,1.81-.77.97-1.53,1.86-2.28,2.75l-.34.4c-1.89,2.24-3.43,3.99-4.84,5.5-.45.47-.88.92-1.3,1.37-1.53,1.6-3.09,3.08-4.9,4.69l-.4.36c-.65.58-1.3,1.16-1.94,1.65l-.22.18-.2.15-.14.11c-.14.11-.27.21-.4.3l-.34.25-.23.17-.19.14c-.21.16-.42.32-.62.46-.22.15-.38.27-.56.37l-.32.22-.21.13c-.5.33-.78.89-.73,1.49.18,2.33.82,4.77,1.88,7.23.31.71.64,1.4.98,2.05.15.3.38.53.66.68l1.33.72,5.71,3.1c8.68,4.71,16.71,8.98,24.55,13l.91.47,1.91.99c.23.12.49.18.74.18.23,0,.46-.05.68-.15.63-.3,1.26-.54,1.98-.74.82-.24,1.61-.35,2.33-.35,1.8,0,3.29.7,4.55,2.15,1.72,1.96,2.33,4.53,2.33,4.56.04.17.1.32.19.46.16.27.4.5.69.64,1.85.9,3.75,1.82,5.66,2.74l.93.45,1.3.62,1.82.88.29.14.36.17c.38.19.85.4,1.32.63l.94-1.34-.71,1.45s.14.08.15.08c.35.15.65.29.97.46.61.29.96.44,1.06.48l2.29,1.06,1.75.81c1.38.64,2.75,1.27,4.14,1.9,1.13.51,2.29,1.03,3.44,1.53,2.83,1.28,5.68,2.53,8.6,3.79l.48.22,3.59,1.53,1.48.63c.22.1.47.21.72.29,29.26,12.31,55.88,20.97,79,25.7.11.03.21.04.32.04.2,0,.39-.03.58-.11,3.18-1.2,6.21-2.84,9.01-4.85.41-.29.67-.77.67-1.27.08-3.11.47-7.6,1.18-13.36.24-1.91.52-3.95.83-6.1,0-.05,0-.1,0-.15,1.09-7.71,2.58-16.59,4.31-25.67,2.29-7.74,3.82-15.06,4.38-21.04,1.08-4.8,2.07-9.01,3.04-12.88.05-.19.06-.39.03-.6-.17-1.32-1.11-3.07-6.48-6.06,4.37-.07,7.43-1.39,9.1-3.91.05-.08.09-.16.13-.24.03-.07.05-.16.08-.24l.06-.22.06-.24,2.26-7.71c1.2-2.98,2.27-6.6,3.16-10.79,1.76-5.54,3.64-10.98,5.53-16.01,1-2.56,4.57-11.57,8.18-19.11l.24-.49.29-.59c.98-1.93,2-3.82,3.05-5.65,5.05,2.8,9.62,5.51,13.59,8.05.11.07.23.13.36.18.75.25,1.62.37,2.57.37,3.16,0,7.26-1.36,11.64-3.84,1.53.83,3.05,1.67,4.52,2.5.07.04.14.07.23.11,1,.37,2.07.56,3.18.56,2.94,0,6.12-1.3,9.22-3.77,2.22-1.75,4.33-4.05,6.08-6.63.34-.51.36-1.17.06-1.7-.32-.56-.68-1.11-1.05-1.63,1.98-.25,3.54-1.36,4.43-3.18.03-.06.06-.12.09-.18,3.63-9.41,1.98-18-4.54-23.59-.03-.03-.06-.06-.1-.08-1.02-.86-2.26-1.69-3.81-2.53-2.39-5.08-6.55-9.88-12.38-14.26-.16-.12-.35-.21-.55-.26-.14-.04-14.1-3.82-33.51-10.01l-5.6-1.81c-10.3-3.35-20.28-6.79-29.64-10.22-.16-.15-.35-.28-.57-.36-.38-.15-39.08-14.9-58.27-25.32-10.2-5.61-18.21-11.05-23.77-16.17-.14-.13-.32-.24-.49-.31-3.19-1.28-6.38-1.93-9.47-1.93-3.29,0-6.45.72-9.45,2.16-.84-.58-1.65-1.15-2.43-1.72-.09-.07-.18-.12-.28-.16-1.83-.84-3.71-1.26-5.57-1.26h0Z"/>
        </g>
      </g>
    </g>
  </g>
</svg>