<?xml version="1.0" encoding="UTF-8"?>
<svg id="Layer_2" data-name="Layer 2" xmlns="http://www.w3.org/2000/svg" xmlns:xlink="http://www.w3.org/1999/xlink" viewBox="0 0 162.5 60.55">
  <defs>
    <style>
      .cls-1 {
        fill: url(#_ÂÁ_Ï_ÌÌ_È_ËÂÌÚ_3038-7);
      }

      .cls-2 {
        fill: url(#_ÂÁ_Ï_ÌÌ_È_ËÂÌÚ_3038-6);
      }

      .cls-3 {
        fill: url(#_ÂÁ_Ï_ÌÌ_È_ËÂÌÚ_3038-3);
      }

      .cls-4 {
        fill: url(#_ÂÁ_Ï_ÌÌ_È_ËÂÌÚ_3038-2);
      }

      .cls-5 {
        fill: url(#_ÂÁ_Ï_ÌÌ_È_ËÂÌÚ_3038-5);
      }

      .cls-6 {
        fill: url(#_ÂÁ_Ï_ÌÌ_È_ËÂÌÚ_3038-4);
      }

      .cls-7 {
        fill: url(#_ÂÁ_Ï_ÌÌ_È_ËÂÌÚ_3038-9);
      }

      .cls-8 {
        fill: url(#_ÂÁ_Ï_ÌÌ_È_ËÂÌÚ_3038-8);
      }

      .cls-9 {
        fill: url(#_ÂÁ_Ï_ÌÌ_È_ËÂÌÚ_1445-2);
      }

      .cls-10 {
        fill: url(#_ÂÁ_Ï_ÌÌ_È_ËÂÌÚ_1445-3);
      }

      .cls-11 {
        fill: url(#_ÂÁ_Ï_ÌÌ_È_ËÂÌÚ_1445-4);
      }

      .cls-12 {
        fill: url(#_ÂÁ_Ï_ÌÌ_È_ËÂÌÚ_3038-16);
      }

      .cls-13 {
        fill: url(#_ÂÁ_Ï_ÌÌ_È_ËÂÌÚ_3038-17);
      }

      .cls-14 {
        fill: url(#_ÂÁ_Ï_ÌÌ_È_ËÂÌÚ_3038-10);
      }

      .cls-15 {
        fill: url(#_ÂÁ_Ï_ÌÌ_È_ËÂÌÚ_3038-11);
      }

      .cls-16 {
        fill: url(#_ÂÁ_Ï_ÌÌ_È_ËÂÌÚ_3038-12);
      }

      .cls-17 {
        fill: url(#_ÂÁ_Ï_ÌÌ_È_ËÂÌÚ_3038-13);
      }

      .cls-18 {
        fill: url(#_ÂÁ_Ï_ÌÌ_È_ËÂÌÚ_3038-14);
      }

      .cls-19 {
        fill: url(#_ÂÁ_Ï_ÌÌ_È_ËÂÌÚ_3038-15);
      }

      .cls-20 {
        fill: url(#_ÂÁ_Ï_ÌÌ_È_ËÂÌÚ_3038-18);
      }

      .cls-21 {
        fill: url(#_ÂÁ_Ï_ÌÌ_È_ËÂÌÚ_3038-19);
      }

      .cls-22 {
        fill: url(#_ÂÁ_Ï_ÌÌ_È_ËÂÌÚ_3038-24);
      }

      .cls-23 {
        fill: url(#_ÂÁ_Ï_ÌÌ_È_ËÂÌÚ_3038-22);
      }

      .cls-24 {
        fill: url(#_ÂÁ_Ï_ÌÌ_È_ËÂÌÚ_3038-23);
      }

      .cls-25 {
        fill: url(#_ÂÁ_Ï_ÌÌ_È_ËÂÌÚ_3038-20);
      }

      .cls-26 {
        fill: url(#_ÂÁ_Ï_ÌÌ_È_ËÂÌÚ_3038-21);
      }

      .cls-27 {
        fill: url(#_ÂÁ_Ï_ÌÌ_È_ËÂÌÚ_1445);
      }

      .cls-28 {
        fill: url(#_ÂÁ_Ï_ÌÌ_È_ËÂÌÚ_3038);
      }
    </style>
    <linearGradient id="_ÂÁ_Ï_ÌÌ_È_ËÂÌÚ_3038" data-name="¡ÂÁ˚ÏˇÌÌ˚È „‡‰ËÂÌÚ 3038" x1="19.57" y1="58.74" x2="19.57" y2="3.04" gradientTransform="translate(0 1)" gradientUnits="userSpaceOnUse">
      <stop offset="0" stop-color="#7a110e"/>
      <stop offset="1" stop-color="#680945"/>
    </linearGradient>
    <linearGradient id="_ÂÁ_Ï_ÌÌ_È_ËÂÌÚ_3038-2" data-name="¡ÂÁ˚ÏˇÌÌ˚È „‡‰ËÂÌÚ 3038" x1="61.99" y1="58.75" x2="61.99" y2="3.05" xlink:href="#_ÂÁ_Ï_ÌÌ_È_ËÂÌÚ_3038"/>
    <linearGradient id="_ÂÁ_Ï_ÌÌ_È_ËÂÌÚ_3038-3" data-name="¡ÂÁ˚ÏˇÌÌ˚È „‡‰ËÂÌÚ 3038" x1="96.32" y1="58.75" x2="96.32" y2="3.03" xlink:href="#_ÂÁ_Ï_ÌÌ_È_ËÂÌÚ_3038"/>
    <linearGradient id="_ÂÁ_Ï_ÌÌ_È_ËÂÌÚ_3038-4" data-name="¡ÂÁ˚ÏˇÌÌ˚È „‡‰ËÂÌÚ 3038" x1="137.42" y1="58.71" x2="137.42" y2="3.01" xlink:href="#_ÂÁ_Ï_ÌÌ_È_ËÂÌÚ_3038"/>
    <linearGradient id="_ÂÁ_Ï_ÌÌ_È_ËÂÌÚ_3038-5" data-name="¡ÂÁ˚ÏˇÌÌ˚È „‡‰ËÂÌÚ 3038" y1="58.29" y2="2.59" gradientTransform="translate(0 .8)" xlink:href="#_ÂÁ_Ï_ÌÌ_È_ËÂÌÚ_3038"/>
    <linearGradient id="_ÂÁ_Ï_ÌÌ_È_ËÂÌÚ_3038-6" data-name="¡ÂÁ˚ÏˇÌÌ˚È „‡‰ËÂÌÚ 3038" x1="61.99" y1="58.29" x2="61.99" y2="2.6" gradientTransform="translate(0 .8)" xlink:href="#_ÂÁ_Ï_ÌÌ_È_ËÂÌÚ_3038"/>
    <linearGradient id="_ÂÁ_Ï_ÌÌ_È_ËÂÌÚ_3038-7" data-name="¡ÂÁ˚ÏˇÌÌ˚È „‡‰ËÂÌÚ 3038" x1="96.32" y1="58.29" x2="96.32" y2="2.59" gradientTransform="translate(0 .8)" xlink:href="#_ÂÁ_Ï_ÌÌ_È_ËÂÌÚ_3038"/>
    <linearGradient id="_ÂÁ_Ï_ÌÌ_È_ËÂÌÚ_3038-8" data-name="¡ÂÁ˚ÏˇÌÌ˚È „‡‰ËÂÌÚ 3038" x1="137.42" y1="58.26" x2="137.42" y2="2.56" gradientTransform="translate(0 .8)" xlink:href="#_ÂÁ_Ï_ÌÌ_È_ËÂÌÚ_3038"/>
    <linearGradient id="_ÂÁ_Ï_ÌÌ_È_ËÂÌÚ_3038-9" data-name="¡ÂÁ˚ÏˇÌÌ˚È „‡‰ËÂÌÚ 3038" y1="57.84" y2="2.15" gradientTransform="translate(0 .6)" xlink:href="#_ÂÁ_Ï_ÌÌ_È_ËÂÌÚ_3038"/>
    <linearGradient id="_ÂÁ_Ï_ÌÌ_È_ËÂÌÚ_3038-10" data-name="¡ÂÁ˚ÏˇÌÌ˚È „‡‰ËÂÌÚ 3038" x1="61.99" y1="57.84" x2="61.99" y2="2.15" gradientTransform="translate(0 .6)" xlink:href="#_ÂÁ_Ï_ÌÌ_È_ËÂÌÚ_3038"/>
    <linearGradient id="_ÂÁ_Ï_ÌÌ_È_ËÂÌÚ_3038-11" data-name="¡ÂÁ˚ÏˇÌÌ˚È „‡‰ËÂÌÚ 3038" x1="96.32" y1="57.85" x2="96.32" y2="2.14" gradientTransform="translate(0 .6)" xlink:href="#_ÂÁ_Ï_ÌÌ_È_ËÂÌÚ_3038"/>
    <linearGradient id="_ÂÁ_Ï_ÌÌ_È_ËÂÌÚ_3038-12" data-name="¡ÂÁ˚ÏˇÌÌ˚È „‡‰ËÂÌÚ 3038" x1="137.42" y1="57.82" x2="137.42" y2="2.12" gradientTransform="translate(0 .6)" xlink:href="#_ÂÁ_Ï_ÌÌ_È_ËÂÌÚ_3038"/>
    <linearGradient id="_ÂÁ_Ï_ÌÌ_È_ËÂÌÚ_3038-13" data-name="¡ÂÁ˚ÏˇÌÌ˚È „‡‰ËÂÌÚ 3038" y1="57.41" y2="1.71" gradientTransform="translate(0 .4)" xlink:href="#_ÂÁ_Ï_ÌÌ_È_ËÂÌÚ_3038"/>
    <linearGradient id="_ÂÁ_Ï_ÌÌ_È_ËÂÌÚ_3038-14" data-name="¡ÂÁ˚ÏˇÌÌ˚È „‡‰ËÂÌÚ 3038" x1="61.99" y1="57.4" x2="61.99" y2="1.71" gradientTransform="translate(0 .4)" xlink:href="#_ÂÁ_Ï_ÌÌ_È_ËÂÌÚ_3038"/>
    <linearGradient id="_ÂÁ_Ï_ÌÌ_È_ËÂÌÚ_3038-15" data-name="¡ÂÁ˚ÏˇÌÌ˚È „‡‰ËÂÌÚ 3038" x1="96.32" y1="57.4" x2="96.32" y2="1.7" gradientTransform="translate(0 .4)" xlink:href="#_ÂÁ_Ï_ÌÌ_È_ËÂÌÚ_3038"/>
    <linearGradient id="_ÂÁ_Ï_ÌÌ_È_ËÂÌÚ_3038-16" data-name="¡ÂÁ˚ÏˇÌÌ˚È „‡‰ËÂÌÚ 3038" x1="137.42" y1="57.38" x2="137.42" y2="1.67" gradientTransform="translate(0 .4)" xlink:href="#_ÂÁ_Ï_ÌÌ_È_ËÂÌÚ_3038"/>
    <linearGradient id="_ÂÁ_Ï_ÌÌ_È_ËÂÌÚ_3038-17" data-name="¡ÂÁ˚ÏˇÌÌ˚È „‡‰ËÂÌÚ 3038" y1="56.95" y2="1.26" gradientTransform="translate(0 .2)" xlink:href="#_ÂÁ_Ï_ÌÌ_È_ËÂÌÚ_3038"/>
    <linearGradient id="_ÂÁ_Ï_ÌÌ_È_ËÂÌÚ_3038-18" data-name="¡ÂÁ˚ÏˇÌÌ˚È „‡‰ËÂÌÚ 3038" x1="61.99" y1="56.95" x2="61.99" y2="1.27" gradientTransform="translate(0 .2)" xlink:href="#_ÂÁ_Ï_ÌÌ_È_ËÂÌÚ_3038"/>
    <linearGradient id="_ÂÁ_Ï_ÌÌ_È_ËÂÌÚ_3038-19" data-name="¡ÂÁ˚ÏˇÌÌ˚È „‡‰ËÂÌÚ 3038" x1="96.32" y1="56.96" x2="96.32" y2="1.25" gradientTransform="translate(0 .2)" xlink:href="#_ÂÁ_Ï_ÌÌ_È_ËÂÌÚ_3038"/>
    <linearGradient id="_ÂÁ_Ï_ÌÌ_È_ËÂÌÚ_3038-20" data-name="¡ÂÁ˚ÏˇÌÌ˚È „‡‰ËÂÌÚ 3038" x1="137.42" y1="56.93" x2="137.42" y2="1.23" gradientTransform="translate(0 .2)" xlink:href="#_ÂÁ_Ï_ÌÌ_È_ËÂÌÚ_3038"/>
    <linearGradient id="_ÂÁ_Ï_ÌÌ_È_ËÂÌÚ_3038-21" data-name="¡ÂÁ˚ÏˇÌÌ˚È „‡‰ËÂÌÚ 3038" y1="56.5" y2=".82" gradientTransform="matrix(1,0,0,1,0,0)" xlink:href="#_ÂÁ_Ï_ÌÌ_È_ËÂÌÚ_3038"/>
    <linearGradient id="_ÂÁ_Ï_ÌÌ_È_ËÂÌÚ_3038-22" data-name="¡ÂÁ˚ÏˇÌÌ˚È „‡‰ËÂÌÚ 3038" x1="61.99" y1="56.51" x2="61.99" y2=".82" gradientTransform="matrix(1,0,0,1,0,0)" xlink:href="#_ÂÁ_Ï_ÌÌ_È_ËÂÌÚ_3038"/>
    <linearGradient id="_ÂÁ_Ï_ÌÌ_È_ËÂÌÚ_3038-23" data-name="¡ÂÁ˚ÏˇÌÌ˚È „‡‰ËÂÌÚ 3038" x1="96.32" y1="56.51" x2="96.32" y2=".81" gradientTransform="matrix(1,0,0,1,0,0)" xlink:href="#_ÂÁ_Ï_ÌÌ_È_ËÂÌÚ_3038"/>
    <linearGradient id="_ÂÁ_Ï_ÌÌ_È_ËÂÌÚ_3038-24" data-name="¡ÂÁ˚ÏˇÌÌ˚È „‡‰ËÂÌÚ 3038" x1="137.42" y1="56.48" x2="137.42" y2=".78" gradientTransform="matrix(1,0,0,1,0,0)" xlink:href="#_ÂÁ_Ï_ÌÌ_È_ËÂÌÚ_3038"/>
    <linearGradient id="_ÂÁ_Ï_ÌÌ_È_ËÂÌÚ_1445" data-name="¡ÂÁ˚ÏˇÌÌ˚È „‡‰ËÂÌÚ 1445" x1="19.57" y1="56.5" x2="19.57" y2=".81" gradientUnits="userSpaceOnUse">
      <stop offset="0" stop-color="#ff6d00"/>
      <stop offset="1" stop-color="#ffe30e"/>
    </linearGradient>
    <linearGradient id="_ÂÁ_Ï_ÌÌ_È_ËÂÌÚ_1445-2" data-name="¡ÂÁ˚ÏˇÌÌ˚È „‡‰ËÂÌÚ 1445" x1="61.99" y1="56.51" x2="61.99" y2=".81" xlink:href="#_ÂÁ_Ï_ÌÌ_È_ËÂÌÚ_1445"/>
    <linearGradient id="_ÂÁ_Ï_ÌÌ_È_ËÂÌÚ_1445-3" data-name="¡ÂÁ˚ÏˇÌÌ˚È „‡‰ËÂÌÚ 1445" x1="96.32" y1="56.51" x2="96.32" y2=".8" xlink:href="#_ÂÁ_Ï_ÌÌ_È_ËÂÌÚ_1445"/>
    <linearGradient id="_ÂÁ_Ï_ÌÌ_È_ËÂÌÚ_1445-4" data-name="¡ÂÁ˚ÏˇÌÌ˚È „‡‰ËÂÌÚ 1445" x1="137.42" y1="56.51" x2="137.42" y2=".8" xlink:href="#_ÂÁ_Ï_ÌÌ_È_ËÂÌÚ_1445"/>
  </defs>
  <g id="_Layer_" data-name="&amp;lt;Layer&amp;gt;">
    <g>
      <g>
        <path d="M37.27,6.7c.38.18.57.44.56.78-.01.34-.16.74-.43,1.19-.28.45-.67.93-1.17,1.43-.5.5-1.05,1.01-1.65,1.52-.49.41-1.06.85-1.7,1.32-.56.43-1.24.92-2.04,1.46-.8.54-1.72,1.15-2.75,1.79.58-.55.98-1.02,1.22-1.46.23-.43.35-.82.35-1.19,0-.49-.19-.91-.58-1.28-.38-.36-.88-.67-1.48-.91-.6-.24-1.27-.45-2-.6-.74-.14-1.46-.26-2.15-.34-.69-.07-1.33-.12-1.91-.14-.58-.01-1.01-.03-1.28-.03-1.13,0-2.28.11-3.43.34-1.16.22-2.19.59-3.11,1.11-.92.54-1.67,1.23-2.25,2.09-.58.88-.87,1.94-.87,3.23,0,1.46.41,2.7,1.22,3.74.81,1.04,1.88,1.95,3.21,2.72,1.32.76,2.83,1.44,4.51,2.02,1.68.58,3.38,1.13,5.1,1.65,1.72.54,3.39,1.06,5,1.59,1.61.54,3.02,1.14,4.22,1.83,1.58.95,2.72,2.04,3.41,3.28.7,1.26,1.04,2.58,1.04,3.97,0,1.81-.47,3.5-1.43,5.12-.95,1.61-2.19,3.12-3.72,4.5-1.53,1.39-3.27,2.64-5.21,3.76-1.95,1.11-3.92,2.06-5.9,2.86-1.99.78-3.92,1.4-5.78,1.83-1.86.42-3.48.63-4.84.63-1.78,0-3.34-.17-4.69-.52-1.35-.36-2.47-.78-3.37-1.27-.9-.49-1.57-1-2.01-1.52-.44-.51-.62-.94-.56-1.26.04-.39.24-.81.59-1.27.36-.47.89-.97,1.59-1.49.71-.54,1.59-1.13,2.66-1.77,1.07-.63,2.37-1.35,3.88-2.12-.62.61-.9,1.15-.83,1.67.06.51.36.98.91,1.38.54.41,1.26.78,2.15,1.08.89.32,1.83.56,2.82.77,1,.21,1.99.36,3,.45,1.01.12,1.89.18,2.66.18,1.3,0,2.6-.14,3.9-.42,1.29-.28,2.46-.73,3.49-1.34,1.04-.6,1.88-1.41,2.54-2.4.65-1,.98-2.2.98-3.61,0-.83-.17-1.69-.51-2.58-.34-.89-.93-1.74-1.75-2.58-.82-.83-1.93-1.62-3.32-2.35-1.39-.73-3.12-1.37-5.19-1.91-3.17-.82-5.84-1.7-8-2.58-2.18-.89-3.92-1.83-5.23-2.86-1.32-1.02-2.23-2.13-2.75-3.34-.51-1.21-.7-2.56-.58-4.06.13-1.73.65-3.31,1.57-4.72.92-1.43,2.09-2.71,3.52-3.82,1.42-1.12,3.01-2.09,4.78-2.93,1.76-.84,3.56-1.52,5.39-2.07,1.83-.54,3.61-.95,5.35-1.21,1.73-.27,3.27-.41,4.62-.41,1.03,0,1.99.06,2.9.14.91.08,1.72.17,2.44.29.71.1,1.32.23,1.81.36.49.14.84.26,1.06.33Z"/>
        <path d="M65.44,49.74c-.86.7-1.83,1.43-2.91,2.19-1.08.76-2.22,1.46-3.45,2.09-1.22.62-2.5,1.15-3.84,1.56-1.34.4-2.68.6-4.05.6-.41,0-.82-.05-1.24-.15-.41-.12-.78-.3-1.1-.56-.32-.27-.58-.62-.78-1.08-.21-.45-.29-1.02-.24-1.7,0-.77.04-2.75.12-5.93.02-1.36.06-3.04.12-5.04.05-2.02.12-4.44.19-7.3.07-2.83.16-6.14.27-9.91.1-3.78.22-8.09.35-12.96-1.41.18-2.8.33-4.16.48-1.36.14-2.67.27-3.93.38l8.21-6.04c.79.14,1.63.23,2.52.26.89.04,1.76.05,2.62.05,1.26,0,2.49-.03,3.69-.12,1.2-.09,2.37-.19,3.51-.31,1.15-.11,2.28-.22,3.4-.29,1.13-.1,2.26-.14,3.39-.14,1.84,0,3.66.23,5.45.69,1.8.47,3.41,1.17,4.83,2.11,1.42.95,2.57,2.16,3.45,3.62.88,1.47,1.32,3.2,1.32,5.22,0,1.5-.3,3.04-.91,4.57-.61,1.53-1.44,3.02-2.48,4.45-1.03,1.43-2.24,2.78-3.61,4.04-1.37,1.26-2.81,2.36-4.31,3.31-1.51.93-3.05,1.7-4.61,2.27-1.57.58-3.05.89-4.46.93l-.96-.64c1.86-.44,3.58-1.1,5.17-2,1.58-.88,2.95-1.97,4.1-3.25,1.15-1.28,2.06-2.72,2.7-4.34.64-1.61.96-3.35.96-5.21,0-1.31-.2-2.48-.58-3.54-.38-1.04-.92-1.96-1.6-2.79-.69-.81-1.48-1.51-2.39-2.1-.91-.58-1.88-1.07-2.93-1.44-1.05-.38-2.14-.64-3.26-.83-1.12-.19-2.24-.28-3.35-.28-.62,0-1.25.01-1.88.03-.62.03-1.25.06-1.87.1l-1.25,38.96c.49.36,1.08.62,1.76.76.69.15,1.39.22,2.12.22s1.44-.04,2.14-.14c.71-.1,1.34-.2,1.9-.33.66-.15,1.28-.32,1.86-.51Z"/>
        <path d="M109.37,49.23c-1.26.86-2.51,1.64-3.72,2.35-1.22.71-2.39,1.35-3.52,1.88-1.13.53-2.18.97-3.18,1.3-1,.34-1.92.54-2.75.62-.83.08-1.56.12-2.19.11-.63-.01-1.16-.16-1.59-.42-.43-.29-.75-.73-.96-1.32-.22-.6-.33-1.44-.33-2.51,0-.54,0-1.46.02-2.78.01-1.3.02-2.88.03-4.72.01-1.83.02-3.82.05-6.01.02-2.16.04-4.37.07-6.58.01-2.22.04-4.39.06-6.51.01-2.12.04-4.04.06-5.77.02-1.72.05-3.19.06-4.36.03-1.18.05-1.95.07-2.28.02-.74-.29-1.28-.95-1.59-.65-.3-1.46-.47-2.42-.47-.79,0-1.61.08-2.46.23-.84.15-1.66.32-2.45.51,1.09-.72,2.16-1.39,3.22-2,1.06-.61,2.13-1.14,3.21-1.59,1.08-.44,2.17-.8,3.29-1.04,1.11-.25,2.27-.37,3.47-.37.47,0,.91.03,1.33.09.42.05.78.13,1.09.25.31.12.56.27.73.45.18.21.27.44.27.72,0,.83-.01,2.85-.03,6.06,0,1.37,0,3.08-.01,5.09-.01,2.03-.03,4.49-.03,7.37,0,2.88-.02,6.22-.03,10.02,0,3.8-.01,8.16-.01,13.06,1.15.23,2.21.39,3.16.47.95.08,1.81.11,2.55.11.62,0,1.17-.01,1.65-.06.49-.05.9-.09,1.24-.13.38-.06.72-.12,1-.19Z"/>
        <path d="M161.69,4.94c-.3.16-.53.36-.69.62-.16.25-.28.51-.37.77-.08.3-.15.62-.19.95-.02.26-.05.8-.08,1.69-.03.87-.08,1.97-.12,3.31-.05,1.34-.11,2.83-.16,4.5-.05,1.65-.11,3.37-.17,5.14-.07,1.76-.12,3.55-.18,5.33-.05,1.77-.1,3.43-.16,4.99-.05,1.57-.1,2.96-.14,4.19-.03,1.24-.05,2.18-.07,2.86-.06,1.37-.11,2.49-.19,3.36-.1.87-.21,1.59-.36,2.17-.15.58-.33,1.07-.55,1.48-.21.41-.45.84-.7,1.28-.19.41-.49.97-.87,1.7-.34.62-.8,1.46-1.39,2.49-.59,1.04-1.35,2.33-2.27,3.89-.32-.94-.82-1.92-1.52-2.95-.69-1.02-1.4-1.99-2.13-2.88-.85-1.03-1.76-2.05-2.72-3.05-1.13-1.14-2.9-2.88-5.29-5.24-1.03-1-2.24-2.18-3.63-3.54-1.39-1.35-3.01-2.93-4.84-4.73-1.85-1.79-3.92-3.83-6.23-6.1-2.31-2.27-4.88-4.79-7.73-7.6-.04,2.61-.08,4.96-.11,7.06-.03,2.09-.05,3.98-.08,5.63-.02,1.66-.05,3.1-.07,4.33-.02,1.23-.03,2.3-.03,3.19-.02,2.1-.03,3.59-.03,4.49-.03.69.04,1.31.19,1.88.15.57.38,1.08.7,1.48.33.42.74.75,1.26.97.51.24,1.13.36,1.86.36s1.56-.13,2.5-.37c.95-.25,2.02-.65,3.21-1.21-1.04,1.02-2.04,1.91-2.97,2.66-.93.74-1.81,1.39-2.64,1.92-.82.54-1.58.97-2.28,1.32-.69.34-1.32.62-1.87.8-1.32.47-2.49.66-3.47.57-.81-.17-1.35-.48-1.59-.96-.25-.47-.37-1.15-.37-2.05,0-6.74.12-13.42.35-20.05.24-6.62.36-13.24.36-19.83v-2.5c0-.66-.02-1.15-.07-1.45.18-.56.53-1.19,1.06-1.89.45-.62,1.09-1.36,1.94-2.21.84-.87,1.99-1.83,3.45-2.93-.16.46-.29.89-.36,1.33-.06.43-.09.84-.09,1.22,0,.61.06,1.17.17,1.65.12.48.26.89.44,1.24.19.38.41.74.64,1.04.73.91,1.67,1.96,2.82,3.16,1.15,1.21,2.5,2.55,4.03,4.06,1.53,1.5,3.21,3.17,5.05,4.98,1.83,1.81,3.8,3.8,5.9,5.96,1.5,1.42,3.09,2.94,4.75,4.59,1.44,1.41,3.06,3.07,4.88,4.96,1.82,1.89,3.69,3.91,5.61,6.08.05-3.95.08-7.35.1-10.21.02-2.86.03-5.36.03-7.47,0-1.94,0-3.56,0-4.83-.01-1.26-.03-2.29-.06-3.05-.02-.89-.04-1.58-.07-2.09,0-.71-.11-1.33-.32-1.83-.21-.5-.49-.87-.82-1.15-.33-.28-.71-.47-1.14-.59-.43-.12-.86-.18-1.28-.18-.49,0-.96.05-1.41.16-.45.1-.79.24-1.02.41.89-.77,1.79-1.5,2.66-2.17.87-.66,1.76-1.25,2.68-1.74.91-.5,1.86-.88,2.85-1.17,1-.29,2.06-.43,3.2-.43.75,0,1.48.07,2.21.22Z"/>
      </g>
      <g>
        <g>
          <path class="cls-28" d="M11.44,60.55c-1.84,0-3.48-.19-4.89-.56-1.41-.38-2.6-.82-3.55-1.35-1-.55-1.73-1.11-2.24-1.71-.61-.73-.85-1.37-.73-1.95.05-.47.3-1.02.74-1.59.4-.53.98-1.07,1.74-1.65.72-.55,1.62-1.14,2.74-1.81,1.1-.66,2.42-1.39,3.93-2.15.35-.19.79-.08,1.02.25.23.33.19.77-.1,1.04-.41.38-.62.76-.6.99.03.29.23.55.6.84.48.36,1.13.67,1.93.95.84.3,1.76.54,2.72.75.96.19,1.94.34,2.92.45.97.1,1.84.17,2.58.17,1.25,0,2.5-.14,3.73-.41,1.2-.26,2.3-.67,3.26-1.24.92-.55,1.69-1.27,2.27-2.16.56-.85.85-1.92.85-3.17,0-.73-.15-1.5-.46-2.29-.3-.78-.82-1.55-1.57-2.31-.76-.76-1.81-1.51-3.12-2.21-1.33-.7-3.02-1.32-5.03-1.83-3.19-.85-5.92-1.74-8.11-2.62-2.22-.92-4.04-1.92-5.42-2.97-1.42-1.09-2.43-2.33-2.99-3.67-.56-1.31-.78-2.81-.64-4.44.14-1.85.71-3.56,1.7-5.09.96-1.5,2.21-2.84,3.69-4.01,1.47-1.17,3.13-2.18,4.94-3.04,1.78-.84,3.63-1.56,5.5-2.11,1.86-.55,3.69-.97,5.45-1.25,3.1-.47,5.63-.48,7.72-.27.92.09,1.75.18,2.48.3.75.1,1.39.23,1.91.38.53.15.91.27,1.13.36.01,0,.02,0,.03.02.68.3,1.06.85,1.04,1.52-.01.49-.19,1.01-.55,1.59-.32.49-.75,1.03-1.29,1.57-.52.52-1.08,1.04-1.7,1.57-.52.42-1.1.88-1.75,1.36-.56.41-1.24.92-2.06,1.48-.81.54-1.73,1.14-2.77,1.79-.35.22-.81.14-1.07-.19-.25-.34-.21-.8.09-1.08.63-.58.92-1,1.06-1.24.17-.3.25-.56.25-.79,0-.27-.1-.49-.33-.7-.31-.29-.72-.55-1.23-.75-.55-.22-1.18-.43-1.86-.55-.71-.14-1.41-.25-2.08-.32-.67-.08-1.29-.13-1.85-.14-.56-.01-.98-.03-1.25-.03-1.07,0-2.18.12-3.28.32-1.06.21-2.02.56-2.86,1.04-.8.45-1.47,1.08-1.98,1.83-.48.73-.73,1.65-.73,2.77,0,1.28.34,2.35,1.04,3.24.75.96,1.75,1.8,2.98,2.51,1.28.74,2.75,1.4,4.37,1.96,1.67.57,3.36,1.13,5.07,1.64,1.73.54,3.4,1.06,5.02,1.6,1.65.54,3.12,1.18,4.36,1.9,1.71,1.02,2.96,2.22,3.72,3.59.76,1.37,1.15,2.83,1.15,4.37,0,1.92-.52,3.79-1.54,5.52-1,1.68-2.3,3.26-3.88,4.7-1.56,1.41-3.36,2.72-5.35,3.86-1.96,1.11-3.98,2.1-6.01,2.91-2.01.79-3.99,1.43-5.89,1.87-1.91.43-3.6.66-5.03.66ZM7.91,50.28c-.67.34-1.28.71-1.83,1.04-1.07.64-1.92,1.2-2.59,1.72-.64.48-1.13.93-1.44,1.33-.32.42-.42.71-.43.86-.01.04.01.23.38.66.37.45.97.89,1.77,1.33.84.46,1.91.87,3.19,1.19,2.25.59,5.02.84,9.14-.11,1.82-.43,3.72-1.03,5.66-1.8,1.95-.78,3.91-1.72,5.8-2.81,1.89-1.06,3.6-2.3,5.07-3.65,1.46-1.33,2.66-2.79,3.57-4.33.88-1.48,1.32-3.05,1.32-4.7,0-1.25-.31-2.46-.94-3.58-.62-1.11-1.68-2.12-3.12-2.97-1.14-.66-2.51-1.26-4.06-1.76-1.61-.54-3.27-1.06-4.98-1.58-1.73-.52-3.44-1.08-5.13-1.67-1.72-.58-3.28-1.28-4.65-2.08-1.41-.82-2.56-1.8-3.44-2.92-.92-1.18-1.39-2.62-1.39-4.24,0-1.44.34-2.68,1-3.67.65-.96,1.49-1.75,2.52-2.33.99-.57,2.12-.97,3.36-1.21,1.2-.23,2.41-.34,3.59-.34.28,0,.72,0,1.31.03.6.01,1.25.07,1.97.14.72.08,1.46.2,2.22.35.78.15,1.5.37,2.16.64.69.28,1.26.64,1.72,1.06.55.54.83,1.17.83,1.88,0,.04,0,.08,0,.12.75-.51,1.38-.96,1.91-1.37.65-.47,1.2-.91,1.68-1.3.58-.5,1.11-.99,1.6-1.48.45-.45.81-.89,1.06-1.28.25-.41.3-.65.31-.78l.25-.75-.3.75c-.2-.08-.53-.19-.98-.31-.46-.12-1.04-.25-1.72-.34-.7-.11-1.5-.21-2.39-.28-1.96-.2-4.35-.2-7.33.27-1.69.26-3.45.66-5.23,1.19-1.8.53-3.57,1.21-5.28,2.03-1.7.79-3.25,1.76-4.62,2.83-1.35,1.07-2.47,2.28-3.34,3.62-.84,1.3-1.33,2.76-1.44,4.35-.12,1.37.06,2.59.51,3.68.46,1.07,1.29,2.09,2.5,3.01,1.25.97,2.95,1.9,5.04,2.75,2.13.87,4.79,1.73,7.91,2.55,2.12.56,3.93,1.22,5.37,1.98,1.46.78,2.64,1.62,3.52,2.5.9.91,1.54,1.87,1.93,2.86.38.97.57,1.95.57,2.87,0,1.57-.37,2.94-1.11,4.06-.72,1.09-1.66,1.99-2.8,2.66-1.11.66-2.37,1.13-3.74,1.42-1.34.29-2.71.44-4.07.44-.8,0-1.72-.05-2.75-.17-1.04-.1-2.07-.27-3.08-.47-1.03-.21-2.02-.49-2.93-.8-.96-.34-1.76-.74-2.37-1.19-.73-.55-1.14-1.19-1.23-1.92Z"/>
          <path class="cls-4" d="M51.19,60.24c-.47,0-.96-.07-1.44-.19-.53-.14-1.01-.39-1.42-.71-.41-.36-.75-.82-1.01-1.37-.25-.58-.36-1.26-.31-2.09,0-.73.04-2.71.13-5.9.02-1.35.06-3.03.11-5.04l.19-7.28c.07-2.86.16-6.15.27-9.92.1-3.52.21-7.53.33-12.03-1.1.14-2.18.27-3.24.36-1.37.16-2.68.29-3.95.4-.35.07-.7-.19-.82-.52-.12-.34-.01-.73.27-.93l8.22-6.04c.17-.13.39-.18.61-.15.74.12,1.56.21,2.43.25,2.15.12,4.22.08,6.21-.06,1.19-.08,2.35-.19,3.49-.29,1.15-.12,2.29-.23,3.42-.32,3.02-.25,6.12-.18,9.1.58,1.87.48,3.58,1.22,5.07,2.22,1.52,1.03,2.76,2.33,3.69,3.89.95,1.58,1.43,3.49,1.43,5.63,0,1.62-.33,3.25-.97,4.88-.63,1.59-1.5,3.14-2.57,4.61-1.06,1.47-2.31,2.88-3.71,4.17-1.39,1.28-2.89,2.42-4.44,3.38-1.55.97-3.15,1.76-4.75,2.36-1.63.6-3.22.93-4.71.98-.18,0-.33-.05-.47-.13l-.96-.65c-.27-.18-.41-.49-.35-.82.06-.32.3-.56.61-.63,1.78-.41,3.44-1.06,4.95-1.91,1.5-.86,2.82-1.89,3.91-3.1,1.08-1.2,1.94-2.57,2.54-4.08.6-1.52.9-3.17.9-4.93,0-1.2-.18-2.29-.53-3.24-.35-.95-.84-1.81-1.47-2.55-.63-.74-1.37-1.4-2.21-1.94-.85-.56-1.79-1.02-2.77-1.37-1-.35-2.05-.62-3.11-.8-1.7-.26-3.37-.29-5.07-.22-.38,0-.75.03-1.12.04l-1.22,37.76c.33.18.71.33,1.12.41,1.25.29,2.66.26,3.99.07.68-.08,1.28-.19,1.82-.32.64-.15,1.23-.32,1.79-.49.36-.14.78.03.97.37.18.34.1.77-.2,1.02-.86.71-1.85,1.46-2.95,2.23-1.09.78-2.29,1.5-3.54,2.15-1.26.65-2.6,1.19-3.97,1.61-1.42.43-2.86.66-4.29.66ZM48.88,13.98c.2,0,.39.07.54.22.17.15.27.38.26.6-.13,4.88-.24,9.21-.35,12.97-.11,3.77-.2,7.08-.27,9.91l-.19,7.28c-.05,2-.09,3.69-.11,5.03-.09,3.18-.13,5.16-.13,5.91-.03.6.02,1.06.17,1.37.15.34.34.6.57.8.23.18.48.32.79.39.35.09.7.14,1.04.14,1.27,0,2.56-.19,3.82-.58,1.28-.39,2.53-.89,3.7-1.5,1.14-.58,2.22-1.24,3.22-1.94-.04.01-.09.02-.14.04-1.52.18-3.12.22-4.56-.11-.78-.17-1.48-.47-2.07-.91-.21-.16-.33-.41-.33-.67l1.25-38.95c.02-.41.34-.75.75-.78.63-.03,1.27-.07,1.91-.1,1.8-.06,3.59-.04,5.38.25,1.17.19,2.31.49,3.4.87,1.1.38,2.14.9,3.1,1.52.97.62,1.84,1.39,2.57,2.26.74.88,1.33,1.9,1.74,3.03.42,1.14.62,2.42.62,3.8,0,1.96-.34,3.82-1.02,5.53-.67,1.68-1.63,3.22-2.84,4.57-1.21,1.32-2.66,2.48-4.31,3.42-.15.09-.31.17-.47.25.02,0,.04-.01.06-.01,1.5-.56,3-1.3,4.46-2.21,1.46-.92,2.88-1.99,4.19-3.2,1.33-1.24,2.51-2.55,3.5-3.94,1-1.37,1.79-2.8,2.37-4.26.57-1.43.86-2.86.86-4.28,0-1.85-.41-3.47-1.19-4.8-.82-1.35-1.89-2.49-3.21-3.37-1.34-.89-2.88-1.57-4.58-1.99-2.81-.73-5.73-.77-8.58-.55-1.12.09-2.24.18-3.38.31-1.15.12-2.33.21-3.54.29-2.04.15-4.17.17-6.4.08-.8-.05-1.56-.12-2.27-.22l-5.59,4.11c.33-.04.67-.08,1.01-.1,1.36-.15,2.74-.32,4.14-.49.03,0,.07,0,.1,0Z"/>
          <path class="cls-3" d="M94.26,59.55c-.09,0-.18-.02-.27-.02-.78,0-1.45-.2-2.01-.56-.58-.38-1.01-.95-1.28-1.72-.25-.7-.37-1.61-.37-2.79,0-.52,0-1.46.01-2.77l.04-5.23c.01-1.69.03-3.51.05-5.49l.19-18.88c.01-1.49.04-2.79.06-3.86v-.5c.03-1.21.05-1.98.07-2.32.01-.41-.13-.64-.49-.82-1-.48-2.67-.47-4.39-.17-.83.15-1.62.32-2.4.5-.38.1-.78-.1-.93-.45-.16-.36-.03-.78.3-.99,1.11-.75,2.19-1.43,3.26-2.05,1.08-.62,2.19-1.17,3.3-1.63,1.12-.47,2.27-.82,3.42-1.08,1.63-.37,3.5-.5,5.08-.31.48.06.91.18,1.28.31.43.16.77.38,1.04.66.32.34.49.78.49,1.27,0,.73,0,2.4-.03,5v1.06c0,1.37,0,3.07-.02,5.11l-.06,17.38c0,3.64-.01,7.77-.01,12.4.86.15,1.68.26,2.42.33,1.69.12,3.05.13,4.06.04.47-.04.88-.08,1.21-.13.34-.05.65-.12.92-.18.37-.08.76.12.92.47.15.36.03.78-.29,1-1.25.84-2.51,1.65-3.76,2.39-1.3.75-2.47,1.37-3.58,1.9-1.14.54-2.25,1-3.27,1.34-1.04.36-2.02.58-2.91.66-.77.08-1.44.14-2.03.14ZM88.19,12.6c1.08,0,2.01.18,2.77.54.95.45,1.44,1.28,1.41,2.34-.02.38-.03,1.12-.06,2.28v.5c-.03,1.08-.05,2.36-.07,3.85l-.19,18.89c-.02,1.96-.03,3.8-.05,5.49l-.03,5.23c-.01,1.3-.02,2.24-.02,2.76,0,.98.1,1.73.27,2.24.16.44.37.73.65.91.3.2.69.29,1.17.32.6.01,1.3-.04,2.1-.12.77-.08,1.63-.28,2.57-.59.97-.32,2-.74,3.09-1.26,1.07-.52,2.2-1.11,3.45-1.85.27-.15.54-.32.8-.47-.88.01-1.94,0-3.16-.1-1-.08-2.09-.24-3.26-.48-.38-.08-.64-.41-.64-.78,0-4.91,0-9.26,0-13.07l.07-17.38c.01-2.03.01-3.73.01-5.11v-1.08c.03-2.58.03-4.26.03-4.98-.14-.26-.29-.34-.49-.43-.25-.1-.55-.16-.91-.21-1.39-.18-3.07-.05-4.52.27-1.06.23-2.12.58-3.15,1-.92.38-1.84.84-2.75,1.33.31-.02.61-.03.91-.03Z"/>
          <path class="cls-6" d="M153.03,59.71s-.06,0-.08-.01c-.32-.03-.58-.24-.68-.54-.3-.86-.77-1.78-1.43-2.75-.68-1-1.38-1.96-2.09-2.84-.84-.99-1.73-2-2.68-2.98-1.13-1.13-2.89-2.87-5.29-5.23l-8.46-8.27c-1.64-1.6-3.45-3.38-5.46-5.34l-.78-.76c-1.94-1.89-4.06-4-6.38-6.28l-.23,15.13c-.01,1.23-.03,2.29-.03,3.18-.03,2.11-.03,3.6-.03,4.49-.02.63.03,1.18.17,1.67.12.47.3.86.56,1.19.23.32.55.55.95.74.84.38,2.14.37,3.82-.07.89-.23,1.93-.62,3.07-1.15.36-.17.78-.05,1,.27.23.32.19.76-.1,1.05-1.04,1.02-2.06,1.92-3.02,2.71-.96.77-1.87,1.43-2.71,1.97-.86.56-1.64,1.01-2.36,1.37-.71.36-1.37.63-1.96.84-1.43.5-2.71.72-3.8.62-1.15-.25-1.87-.71-2.23-1.4-.31-.6-.46-1.38-.46-2.42,0-6.66.11-13.42.34-20.09.23-6.55.36-13.21.36-19.8v-2.5c0-.6-.01-1.06-.05-1.33-.01-.12,0-.24.03-.34.21-.66.59-1.36,1.19-2.14.45-.65,1.14-1.42,2-2.31.86-.87,2.03-1.85,3.54-2.99.29-.22.69-.22.97,0,.28.22.4.6.27.93-.15.41-.26.79-.31,1.15-.06.4-.09.77-.09,1.11,0,.56.05,1.06.15,1.46.11.41.23.78.38,1.07.17.34.36.65.57.95.69.85,1.62,1.88,2.75,3.05,1.15,1.2,2.49,2.54,4.02,4.05l5.05,4.98c1.84,1.83,3.81,3.82,5.91,5.99,1.48,1.39,3.06,2.92,4.74,4.59,1.43,1.41,3.07,3.05,4.89,4.96,1.39,1.45,2.81,2.97,4.24,4.56.04-3.07.05-5.77.08-8.11.02-2.87.03-5.35.03-7.48,0-1.94,0-3.55-.01-4.83-.01-1.26-.03-2.28-.06-3.04-.01-.88-.04-1.57-.06-2.09,0-.63-.08-1.14-.25-1.53-.16-.37-.36-.65-.59-.86-.25-.2-.53-.35-.84-.43-.8-.22-1.59-.18-2.29,0-.45.1-.66.22-.74.28-.34.25-.83.18-1.11-.15-.26-.34-.22-.84.11-1.13.91-.77,1.81-1.5,2.7-2.19.91-.69,1.85-1.31,2.79-1.81.95-.52,1.97-.94,3.01-1.24,1.79-.51,3.83-.62,5.79-.22.34.07.59.34.64.69.05.34-.13.67-.44.82-.17.08-.28.19-.36.32-.13.21-.22.41-.29.59-.06.23-.12.51-.16.81-.02.21-.05.76-.08,1.6l-.13,3.33c-.05,1.34-.1,2.83-.16,4.48l-.18,5.16c-.06,1.78-.12,3.55-.18,5.32-.05,1.77-.1,3.44-.16,5.01-.06,1.55-.1,2.95-.13,4.18l-.08,2.87c-.04,1.4-.11,2.53-.19,3.41-.08.9-.21,1.66-.37,2.29-.18.65-.37,1.19-.62,1.65-.22.41-.45.84-.71,1.3-.17.37-.47.94-.86,1.68-.35.63-.82,1.46-1.41,2.51-.59,1.04-1.35,2.35-2.27,3.91-.15.25-.41.41-.7.41ZM114.62,11.16c.02.32.05.78.05,1.35v2.5c0,6.6-.12,13.28-.36,19.85-.23,6.65-.36,13.39-.36,20.03,0,.95.16,1.44.28,1.68.16.29.65.46,1.04.54.78.05,1.82-.12,3.03-.55.53-.19,1.13-.44,1.79-.75.67-.33,1.39-.74,2.2-1.28.75-.49,1.58-1.08,2.46-1.79-1.81.41-3.24.32-4.33-.17-.63-.28-1.15-.69-1.55-1.21-.38-.51-.67-1.08-.85-1.76-.16-.65-.25-1.37-.22-2.12,0-.87,0-2.37.03-4.48,0-.89.01-1.96.03-3.19l.26-17.03c0-.32.2-.6.5-.73.3-.14.64-.06.87.16,2.85,2.81,5.42,5.34,7.73,7.61l.77.76c2,1.96,3.82,3.73,5.46,5.32l8.47,8.28c2.39,2.38,4.16,4.11,5.3,5.25.98,1.02,1.91,2.07,2.77,3.1.74.91,1.48,1.91,2.18,2.95.37.54.69,1.1.96,1.62.57-.96,1.05-1.8,1.46-2.51.58-1.04,1.05-1.86,1.39-2.48.37-.69.66-1.25.84-1.65.28-.5.51-.92.72-1.32.18-.34.34-.78.48-1.3.14-.54.25-1.24.33-2.05.09-.84.14-1.94.19-3.3l.08-2.86c.03-1.23.08-2.64.13-4.19.05-1.56.11-3.21.16-5,.05-1.78.11-3.55.17-5.33l.18-5.14c.05-1.66.1-3.16.16-4.5l.12-3.32c.03-.9.07-1.47.09-1.72.05-.41.12-.78.22-1.11.06-.2.14-.37.23-.56-1.26-.08-2.47.07-3.57.39-.94.27-1.85.64-2.7,1.11-.86.47-1.72,1.03-2.57,1.67-.07.05-.14.11-.21.16.33.03.67.1,1,.18.54.15,1.02.41,1.44.76.43.35.78.84,1.04,1.45.26.59.38,1.32.38,2.16.03.47.04,1.17.07,2.06.01.78.03,1.8.05,3.08,0,1.28.01,2.88.01,4.83,0,2.13-.01,4.61-.03,7.49-.02,2.86-.05,6.27-.1,10.2,0,.34-.21.62-.52.75-.32.11-.67.03-.89-.22-1.89-2.13-3.78-4.17-5.6-6.06-1.81-1.89-3.43-3.54-4.86-4.94-1.66-1.65-3.24-3.17-4.74-4.59-2.11-2.18-4.08-4.15-5.92-5.97l-5.05-4.98c-1.53-1.52-2.88-2.88-4.04-4.08-1.16-1.2-2.13-2.27-2.87-3.2-.29-.38-.52-.78-.74-1.21-.2-.38-.36-.87-.49-1.4-.13-.55-.19-1.15-.19-1.84,0-.18,0-.36,0-.54-.64.54-1.19,1.03-1.63,1.5-.81.81-1.44,1.51-1.86,2.1-.44.58-.73,1.09-.89,1.52Z"/>
        </g>
        <g>
          <path class="cls-5" d="M11.44,59.9c-1.84,0-3.48-.19-4.89-.56-1.41-.37-2.6-.82-3.55-1.34-1-.54-1.73-1.1-2.24-1.72-.61-.71-.85-1.36-.73-1.94.05-.47.3-1.02.74-1.6.4-.51.98-1.06,1.74-1.65.72-.54,1.62-1.13,2.74-1.81,1.1-.66,2.42-1.39,3.93-2.15.35-.19.79-.09,1.02.25.23.32.19.77-.1,1.04-.41.4-.62.75-.6.99.03.29.23.55.6.83.48.36,1.13.68,1.93.95.84.3,1.76.55,2.72.74.96.21,1.94.35,2.92.45.97.11,1.84.17,2.58.17,1.25,0,2.5-.14,3.73-.4,1.2-.26,2.3-.67,3.26-1.24.92-.54,1.69-1.28,2.27-2.16.56-.86.85-1.92.85-3.16,0-.74-.15-1.5-.46-2.3-.3-.78-.82-1.55-1.57-2.3-.76-.78-1.81-1.52-3.12-2.21-1.33-.69-3.02-1.33-5.03-1.85-3.19-.83-5.92-1.72-8.11-2.61-2.22-.92-4.04-1.92-5.42-2.97-1.42-1.1-2.43-2.33-2.99-3.66s-.78-2.81-.64-4.45c.14-1.85.71-3.56,1.7-5.09.96-1.5,2.21-2.85,3.69-4.02,1.47-1.17,3.13-2.2,4.94-3.04,1.78-.84,3.63-1.55,5.5-2.11,1.86-.56,3.69-.97,5.45-1.25,3.1-.48,5.63-.48,7.72-.27.92.1,1.75.18,2.48.29.75.12,1.39.25,1.91.4.53.14.91.26,1.13.36.01,0,.02.03.03.03.68.29,1.06.85,1.04,1.52-.01.49-.19,1-.55,1.58-.32.51-.75,1.04-1.29,1.58-.52.52-1.08,1.04-1.7,1.57-.52.43-1.1.88-1.75,1.35-.56.42-1.24.93-2.06,1.48-.81.56-1.73,1.15-2.77,1.8-.35.22-.81.14-1.07-.2-.25-.32-.21-.8.09-1.06.63-.59.92-1,1.06-1.25.17-.32.25-.58.25-.8,0-.27-.1-.48-.33-.7-.31-.3-.72-.55-1.23-.75-.55-.23-1.18-.41-1.86-.55-.71-.14-1.41-.25-2.08-.33-.67-.08-1.29-.11-1.85-.14-.56-.02-.98-.03-1.25-.03-1.07,0-2.18.1-3.28.32-1.06.21-2.02.56-2.86,1.03-.8.47-1.47,1.09-1.98,1.84-.48.73-.73,1.66-.73,2.77,0,1.29.34,2.33,1.04,3.23.75.96,1.75,1.82,2.98,2.52,1.28.74,2.75,1.4,4.37,1.96,1.67.57,3.36,1.12,5.07,1.65,1.73.52,3.4,1.05,5.02,1.59,1.65.55,3.12,1.18,4.36,1.9,1.71,1.02,2.96,2.22,3.72,3.6.76,1.37,1.15,2.83,1.15,4.35,0,1.94-.52,3.8-1.54,5.53-1,1.69-2.3,3.27-3.88,4.69-1.56,1.43-3.36,2.73-5.35,3.86-1.96,1.13-3.98,2.11-6.01,2.9-2.01.81-3.99,1.43-5.89,1.87-1.91.45-3.6.67-5.03.67ZM7.91,49.64c-.67.36-1.28.7-1.83,1.04-1.07.63-1.92,1.2-2.59,1.7-.64.49-1.13.95-1.44,1.35-.32.41-.42.7-.43.86-.01.05.01.23.38.67.37.45.97.91,1.77,1.33.84.46,1.91.86,3.19,1.2,2.25.59,5.02.84,9.14-.13,1.82-.41,3.72-1.02,5.66-1.79,1.95-.77,3.91-1.73,5.8-2.81,1.89-1.08,3.6-2.31,5.07-3.65,1.46-1.33,2.66-2.77,3.57-4.33.88-1.48,1.32-3.06,1.32-4.71,0-1.24-.31-2.44-.94-3.56-.62-1.12-1.68-2.12-3.12-2.99-1.14-.65-2.51-1.24-4.06-1.76-1.61-.54-3.27-1.07-4.98-1.58-1.73-.54-3.44-1.09-5.13-1.67-1.72-.59-3.28-1.28-4.65-2.09-1.41-.81-2.56-1.8-3.44-2.9-.92-1.18-1.39-2.61-1.39-4.24,0-1.44.34-2.68,1-3.67.65-.97,1.49-1.75,2.52-2.34.99-.56,2.12-.97,3.36-1.21,1.2-.23,2.41-.36,3.59-.36.28,0,.72.01,1.31.04.6.03,1.25.07,1.97.16.72.07,1.46.19,2.22.34.78.16,1.5.37,2.16.63.69.28,1.26.65,1.72,1.08.55.53.83,1.16.83,1.87,0,.04,0,.08,0,.12.75-.5,1.38-.97,1.91-1.37.65-.47,1.2-.9,1.68-1.3.58-.49,1.11-.97,1.6-1.47.45-.46.81-.89,1.06-1.28.25-.41.3-.66.31-.8l.25-.74-.3.75c-.2-.08-.53-.19-.98-.32-.46-.12-1.04-.24-1.72-.34-.7-.1-1.5-.2-2.39-.28-1.96-.19-4.35-.19-7.33.27-1.69.25-3.45.66-5.23,1.19-1.8.54-3.57,1.21-5.28,2.03-1.7.8-3.25,1.76-4.62,2.84-1.35,1.06-2.47,2.29-3.34,3.62-.84,1.3-1.33,2.77-1.44,4.35-.12,1.37.06,2.6.51,3.68.46,1.07,1.29,2.1,2.5,3.01,1.25.98,2.95,1.9,5.04,2.75,2.13.86,4.79,1.72,7.91,2.54,2.12.55,3.93,1.22,5.37,1.98,1.46.78,2.64,1.61,3.52,2.51.9.91,1.54,1.87,1.93,2.86.38.98.57,1.94.57,2.88,0,1.56-.37,2.92-1.11,4.04-.72,1.11-1.66,1.99-2.8,2.66-1.11.64-2.37,1.13-3.74,1.43-1.34.29-2.71.44-4.07.44-.8,0-1.72-.07-2.75-.17-1.04-.1-2.07-.27-3.08-.47-1.03-.21-2.02-.49-2.93-.8-.96-.34-1.76-.73-2.37-1.19-.73-.55-1.14-1.19-1.23-1.92Z"/>
          <path class="cls-2" d="M51.19,59.58c-.47,0-.96-.05-1.44-.19-.53-.13-1.01-.38-1.42-.72-.41-.35-.75-.81-1.01-1.36-.25-.56-.36-1.27-.31-2.09,0-.71.04-2.71.13-5.9.02-1.34.06-3.02.11-5.05l.19-7.28c.07-2.85.16-6.15.27-9.91.1-3.52.21-7.53.33-12.03-1.1.14-2.18.26-3.24.37-1.37.15-2.68.28-3.95.4-.35.05-.7-.19-.82-.52-.12-.34-.01-.72.27-.93l8.22-6.04c.17-.13.39-.18.61-.16.74.13,1.56.22,2.43.25,2.15.1,4.22.08,6.21-.06,1.19-.08,2.35-.19,3.49-.3,1.15-.12,2.29-.22,3.42-.3,3.02-.25,6.12-.19,9.1.59,1.87.47,3.58,1.22,5.07,2.22,1.52,1.01,2.76,2.31,3.69,3.88.95,1.59,1.43,3.49,1.43,5.64,0,1.62-.33,3.25-.97,4.86-.63,1.59-1.5,3.15-2.57,4.63-1.06,1.46-2.31,2.86-3.71,4.15-1.39,1.29-2.89,2.43-4.44,3.41-1.55.97-3.15,1.76-4.75,2.34-1.63.61-3.22.94-4.71.99-.18,0-.33-.05-.47-.13l-.96-.65c-.27-.18-.41-.5-.35-.82.06-.3.3-.56.61-.64,1.78-.41,3.44-1.05,4.95-1.9,1.5-.85,2.82-1.9,3.91-3.1,1.08-1.19,1.94-2.57,2.54-4.08.6-1.52.9-3.17.9-4.92,0-1.21-.18-2.29-.53-3.25-.35-.95-.84-1.81-1.47-2.55-.63-.74-1.37-1.4-2.21-1.94-.85-.56-1.79-1.02-2.77-1.37-1-.34-2.05-.62-3.11-.8-1.7-.27-3.37-.29-5.07-.23-.38.02-.75.03-1.12.05l-1.22,37.76c.33.19.71.33,1.12.42,1.25.27,2.66.25,3.99.06.68-.09,1.28-.19,1.82-.32.64-.14,1.23-.32,1.79-.49.36-.12.78.03.97.37.18.34.1.77-.2,1.02-.86.71-1.85,1.47-2.95,2.23-1.09.78-2.29,1.5-3.54,2.14-1.26.65-2.6,1.2-3.97,1.62-1.42.42-2.86.64-4.29.64ZM48.88,13.33c.2,0,.39.07.54.21.17.17.27.38.26.62-.13,4.89-.24,9.2-.35,12.98-.11,3.76-.2,7.06-.27,9.91l-.19,7.28c-.05,2.01-.09,3.69-.11,5.04-.09,3.17-.13,5.16-.13,5.92-.03.59.02,1.03.17,1.36.15.34.34.6.57.8.23.19.48.32.79.4.35.1.7.12,1.04.12,1.27,0,2.56-.18,3.82-.58,1.28-.38,2.53-.89,3.7-1.5,1.14-.58,2.22-1.24,3.22-1.94-.04.01-.09.01-.14.03-1.52.2-3.12.22-4.56-.1-.78-.17-1.48-.47-2.07-.91-.21-.14-.33-.4-.33-.67l1.25-38.96c.02-.41.34-.75.75-.78.63-.04,1.27-.08,1.91-.1,1.8-.07,3.59-.04,5.38.25,1.17.19,2.31.48,3.4.87,1.1.4,2.14.91,3.1,1.52.97.64,1.84,1.39,2.57,2.27.74.88,1.33,1.9,1.74,3.03.42,1.14.62,2.42.62,3.81,0,1.96-.34,3.8-1.02,5.51-.67,1.7-1.63,3.23-2.84,4.57-1.21,1.33-2.66,2.49-4.31,3.42-.15.1-.31.18-.47.26.02,0,.04,0,.06-.01,1.5-.56,3-1.3,4.46-2.2,1.46-.91,2.88-2,4.19-3.22,1.33-1.24,2.51-2.54,3.5-3.91,1-1.37,1.79-2.82,2.37-4.28.57-1.41.86-2.86.86-4.26,0-1.86-.41-3.47-1.19-4.81-.82-1.35-1.89-2.49-3.21-3.36-1.34-.89-2.88-1.57-4.58-2-2.81-.71-5.73-.74-8.58-.54-1.12.09-2.24.2-3.38.31-1.15.11-2.33.22-3.54.31-2.04.14-4.17.17-6.4.06-.8-.04-1.56-.11-2.27-.22l-5.59,4.11c.33-.03.67-.06,1.01-.1,1.36-.16,2.74-.32,4.14-.49h.1Z"/>
          <path class="cls-1" d="M94.26,58.89h-.27c-.78-.01-1.45-.21-2.01-.56-.58-.37-1.01-.95-1.28-1.72-.25-.69-.37-1.6-.37-2.77,0-.54,0-1.46.01-2.78l.04-5.23c.01-1.69.03-3.52.05-5.49l.19-18.89c.01-1.49.04-2.77.06-3.86v-.51c.03-1.2.05-1.96.07-2.31.01-.4-.13-.64-.49-.82-1-.47-2.67-.47-4.39-.17-.83.14-1.62.32-2.4.49-.38.1-.78-.08-.93-.45-.16-.36-.03-.78.3-1,1.11-.73,2.19-1.41,3.26-2.03,1.08-.62,2.19-1.17,3.3-1.63,1.12-.47,2.27-.84,3.42-1.09,1.63-.36,3.5-.49,5.08-.3.48.06.91.17,1.28.3.43.17.77.38,1.04.67.32.33.49.78.49,1.26,0,.73,0,2.4-.03,5v1.06c0,1.37,0,3.08-.02,5.11l-.06,17.38c0,3.64-.01,7.77-.01,12.39.86.17,1.68.27,2.42.34,1.69.12,3.05.13,4.06.05.47-.05.88-.1,1.21-.14.34-.05.65-.12.92-.17.37-.08.76.1.92.47.15.35.03.77-.29.98-1.25.86-2.51,1.65-3.76,2.39-1.3.76-2.47,1.39-3.58,1.92-1.14.54-2.25.98-3.27,1.33-1.04.35-2.02.58-2.91.67-.77.08-1.44.12-2.03.12ZM88.19,11.96c1.08,0,2.01.18,2.77.54.95.45,1.44,1.28,1.41,2.35-.02.36-.03,1.11-.06,2.26v.51c-.03,1.07-.05,2.36-.07,3.86l-.19,18.88c-.02,1.96-.03,3.79-.05,5.48l-.03,5.23c-.01,1.3-.02,2.23-.02,2.77,0,.97.1,1.72.27,2.23.16.43.37.73.65.91.3.19.69.29,1.17.29.6.03,1.3-.03,2.1-.1.77-.09,1.63-.28,2.57-.59.97-.32,2-.75,3.09-1.26,1.07-.51,2.2-1.12,3.45-1.85.27-.16.54-.32.8-.48-.88.03-1.94-.01-3.16-.1-1-.08-2.09-.24-3.26-.49-.38-.07-.64-.4-.64-.78,0-4.9,0-9.24,0-13.06l.07-17.4c.01-2.02.01-3.72.01-5.09v-1.08c.03-2.59.03-4.25.03-4.98-.14-.25-.29-.34-.49-.42-.25-.08-.55-.17-.91-.21-1.39-.19-3.07-.05-4.52.27-1.06.23-2.12.56-3.15,1-.92.38-1.84.84-2.75,1.32.31-.01.61-.01.91-.01Z"/>
          <path class="cls-8" d="M153.03,59.06h-.08c-.32-.03-.58-.25-.68-.54-.3-.87-.77-1.79-1.43-2.76-.68-1.02-1.38-1.96-2.09-2.83-.84-1-1.73-2.02-2.68-2.99-1.13-1.13-2.89-2.88-5.29-5.23l-8.46-8.27c-1.64-1.59-3.45-3.38-5.46-5.35l-.78-.75c-1.94-1.91-4.06-4-6.38-6.29l-.23,15.14c-.01,1.22-.03,2.28-.03,3.17-.03,2.1-.03,3.6-.03,4.5-.02.62.03,1.17.17,1.67.12.47.3.87.56,1.19.23.32.55.56.95.73.84.39,2.14.38,3.82-.05.89-.24,1.93-.63,3.07-1.15.36-.17.78-.05,1,.27.23.32.19.76-.1,1.03-1.04,1.03-2.06,1.94-3.02,2.72-.96.77-1.87,1.43-2.71,1.98-.86.56-1.64,1-2.36,1.35-.71.36-1.37.64-1.96.84-1.43.51-2.71.71-3.8.62-1.15-.23-1.87-.7-2.23-1.39-.31-.6-.46-1.4-.46-2.44,0-6.65.11-13.41.34-20.08.23-6.56.36-13.22.36-19.8v-2.5c0-.61-.01-1.06-.05-1.33-.01-.12,0-.24.03-.34.21-.66.59-1.36,1.19-2.16.45-.62,1.14-1.41,2-2.29.86-.89,2.03-1.87,3.54-3,.29-.22.69-.22.97,0,.28.22.4.59.27.93-.15.4-.26.79-.31,1.15-.06.38-.09.74-.09,1.1,0,.55.05,1.04.15,1.46.11.41.23.78.38,1.06.17.35.36.67.57.96.69.84,1.62,1.88,2.75,3.05,1.15,1.19,2.49,2.55,4.02,4.04l5.05,4.98c1.84,1.83,3.81,3.82,5.91,5.99,1.48,1.39,3.06,2.92,4.74,4.57,1.43,1.41,3.07,3.08,4.89,4.97,1.39,1.45,2.81,2.97,4.24,4.56.04-3.06.05-5.78.08-8.13.02-2.86.03-5.35.03-7.47,0-1.94,0-3.54-.01-4.82-.01-1.26-.03-2.29-.06-3.05-.01-.88-.04-1.57-.06-2.07,0-.65-.08-1.15-.25-1.54-.16-.38-.36-.67-.59-.86-.25-.21-.53-.34-.84-.44-.8-.21-1.59-.17-2.29,0-.45.1-.66.22-.74.29-.34.23-.83.18-1.11-.17-.26-.33-.22-.82.11-1.11.91-.78,1.81-1.5,2.7-2.19.91-.71,1.85-1.3,2.79-1.82.95-.51,1.97-.93,3.01-1.24,1.79-.51,3.83-.62,5.79-.22.34.06.59.34.64.68.05.34-.13.68-.44.83-.17.1-.28.19-.36.32-.13.21-.22.4-.29.6-.06.24-.12.5-.16.81-.02.2-.05.75-.08,1.6l-.13,3.32c-.05,1.34-.1,2.85-.16,4.48l-.18,5.16c-.06,1.78-.12,3.55-.18,5.32-.05,1.78-.1,3.45-.16,5.01-.06,1.56-.1,2.95-.13,4.19l-.08,2.87c-.04,1.39-.11,2.53-.19,3.41-.08.89-.21,1.67-.37,2.29-.18.65-.37,1.2-.62,1.65-.22.43-.45.86-.71,1.31-.17.36-.47.93-.86,1.67-.35.65-.82,1.47-1.41,2.52-.59,1.03-1.35,2.33-2.27,3.91-.15.25-.41.39-.7.39ZM114.62,10.5c.02.33.05.78.05,1.36v2.5c0,6.6-.12,13.28-.36,19.87-.23,6.65-.36,13.38-.36,20.01,0,.95.16,1.45.28,1.7.16.29.65.45,1.04.54.78.05,1.82-.12,3.03-.55.53-.18,1.13-.44,1.79-.77.67-.32,1.39-.73,2.2-1.26.75-.49,1.58-1.08,2.46-1.78-1.81.39-3.24.32-4.33-.17-.63-.29-1.15-.71-1.55-1.22-.38-.5-.67-1.09-.85-1.76-.16-.66-.25-1.35-.22-2.11,0-.88,0-2.36.03-4.46,0-.91.01-1.96.03-3.2l.26-17.01c0-.34.2-.62.5-.74.3-.13.64-.07.87.18,2.85,2.8,5.42,5.33,7.73,7.59l.77.75c2,1.95,3.82,3.75,5.46,5.34l8.47,8.28c2.39,2.35,4.16,4.09,5.3,5.23.98,1.03,1.91,2.07,2.77,3.1.74.92,1.48,1.9,2.18,2.95.37.55.69,1.09.96,1.62.57-.96,1.05-1.8,1.46-2.51.58-1.03,1.05-1.87,1.39-2.47.37-.71.66-1.26.84-1.66.28-.5.51-.91.72-1.32.18-.34.34-.78.48-1.3.14-.54.25-1.22.33-2.03.09-.86.14-1.96.19-3.31l.08-2.86c.03-1.24.08-2.63.13-4.19.05-1.56.11-3.23.16-5,.05-1.77.11-3.56.17-5.33l.18-5.14c.05-1.66.1-3.17.16-4.5l.12-3.31c.03-.91.07-1.48.09-1.73.05-.41.12-.76.22-1.1.06-.19.14-.38.23-.56-1.26-.08-2.47.07-3.57.38-.94.27-1.85.65-2.7,1.11-.86.47-1.72,1.03-2.57,1.67-.07.06-.14.1-.21.17.33.03.67.08,1,.19.54.14,1.02.39,1.44.75.43.36.78.84,1.04,1.46.26.59.38,1.31.38,2.14.03.49.04,1.19.07,2.09.01.75.03,1.79.05,3.05,0,1.28.01,2.9.01,4.84,0,2.12-.01,4.62-.03,7.48-.02,2.86-.05,6.28-.1,10.2,0,.34-.21.65-.52.75-.32.11-.67.02-.89-.23-1.89-2.11-3.78-4.16-5.6-6.04-1.81-1.9-3.43-3.54-4.86-4.94-1.66-1.64-3.24-3.17-4.74-4.57-2.11-2.18-4.08-4.17-5.92-5.99l-5.05-4.99c-1.53-1.5-2.88-2.86-4.04-4.06-1.16-1.19-2.13-2.28-2.87-3.2-.29-.38-.52-.78-.74-1.19-.2-.41-.36-.89-.49-1.41-.13-.54-.19-1.14-.19-1.84,0-.18,0-.36,0-.54-.64.54-1.19,1.03-1.63,1.48-.81.82-1.44,1.54-1.86,2.11-.44.58-.73,1.1-.89,1.51Z"/>
        </g>
        <g>
          <path class="cls-7" d="M11.44,59.25c-1.84,0-3.48-.19-4.89-.55-1.41-.37-2.6-.82-3.55-1.34-1-.54-1.73-1.1-2.24-1.71-.61-.73-.85-1.35-.73-1.94.05-.47.3-1.02.74-1.61.4-.51.98-1.06,1.74-1.63.72-.55,1.62-1.15,2.74-1.82,1.1-.66,2.42-1.38,3.93-2.15.35-.17.79-.07,1.02.25.23.32.19.78-.1,1.05-.41.4-.62.75-.6.99.03.29.23.56.6.84.48.36,1.13.67,1.93.96.84.29,1.76.54,2.72.73.96.21,1.94.35,2.92.46.97.1,1.84.16,2.58.16,1.25,0,2.5-.12,3.73-.4,1.2-.26,2.3-.68,3.26-1.24.92-.54,1.69-1.27,2.27-2.15.56-.86.85-1.93.85-3.17,0-.73-.15-1.49-.46-2.28-.3-.78-.82-1.57-1.57-2.32-.76-.75-1.81-1.51-3.12-2.21-1.33-.7-3.02-1.32-5.03-1.84-3.19-.84-5.92-1.72-8.11-2.62-2.22-.91-4.04-1.9-5.42-2.97-1.42-1.1-2.43-2.32-2.99-3.65s-.78-2.83-.64-4.44c.14-1.86.71-3.58,1.7-5.1.96-1.5,2.21-2.84,3.69-4.02,1.47-1.16,3.13-2.18,4.94-3.03,1.78-.85,3.63-1.55,5.5-2.11,1.86-.56,3.69-.98,5.45-1.25,3.1-.48,5.63-.48,7.72-.27.92.1,1.75.19,2.48.29.75.12,1.39.24,1.91.39.53.15.91.26,1.13.36.01.01.02.01.03.01.68.32,1.06.86,1.04,1.54-.01.49-.19,1.02-.55,1.59-.32.5-.75,1.02-1.29,1.57-.52.51-1.08,1.04-1.7,1.57-.52.43-1.1.87-1.75,1.36-.56.42-1.24.91-2.06,1.48-.81.54-1.73,1.15-2.77,1.79-.35.21-.81.14-1.07-.19-.25-.33-.21-.81.09-1.08.63-.58.92-.99,1.06-1.24.17-.31.25-.58.25-.81,0-.26-.1-.47-.33-.69-.31-.29-.72-.55-1.23-.76-.55-.23-1.18-.42-1.86-.55-.71-.14-1.41-.25-2.08-.33-.67-.07-1.29-.11-1.85-.14-.56-.02-.98-.03-1.25-.03-1.07,0-2.18.1-3.28.32-1.06.21-2.02.56-2.86,1.03-.8.46-1.47,1.08-1.98,1.83-.48.73-.73,1.65-.73,2.78,0,1.28.34,2.34,1.04,3.24.75.95,1.75,1.8,2.98,2.51,1.28.73,2.75,1.4,4.37,1.95,1.67.58,3.36,1.13,5.07,1.65,1.73.53,3.4,1.06,5.02,1.61,1.65.54,3.12,1.18,4.36,1.89,1.71,1,2.96,2.21,3.72,3.58.76,1.37,1.15,2.84,1.15,4.35,0,1.94-.52,3.8-1.54,5.53-1,1.67-2.3,3.25-3.88,4.7-1.56,1.41-3.36,2.72-5.35,3.86-1.96,1.11-3.98,2.09-6.01,2.9-2.01.81-3.99,1.43-5.89,1.87-1.91.44-3.6.66-5.03.66ZM7.91,48.98c-.67.36-1.28.71-1.83,1.04-1.07.64-1.92,1.21-2.59,1.72-.64.49-1.13.95-1.44,1.35-.32.43-.42.71-.43.87-.01.03.01.23.38.67.37.43.97.88,1.77,1.32.84.47,1.91.87,3.19,1.2,2.25.59,5.02.84,9.14-.12,1.82-.41,3.72-1.02,5.66-1.79,1.95-.78,3.91-1.72,5.8-2.8,1.89-1.08,3.6-2.32,5.07-3.66,1.46-1.33,2.66-2.78,3.57-4.32.88-1.48,1.32-3.06,1.32-4.71,0-1.24-.31-2.44-.94-3.57-.62-1.12-1.68-2.12-3.12-2.99-1.14-.65-2.51-1.24-4.06-1.75-1.61-.54-3.27-1.07-4.98-1.59-1.73-.51-3.44-1.08-5.13-1.65-1.72-.59-3.28-1.3-4.65-2.1-1.41-.81-2.56-1.79-3.44-2.9-.92-1.18-1.39-2.6-1.39-4.24,0-1.44.34-2.68,1-3.68.65-.96,1.49-1.75,2.52-2.33.99-.56,2.12-.97,3.36-1.21,1.2-.23,2.41-.35,3.59-.35.28,0,.72,0,1.31.03.6.03,1.25.08,1.97.15.72.08,1.46.2,2.22.36.78.15,1.5.37,2.16.65.69.27,1.26.63,1.72,1.06.55.53.83,1.15.83,1.86,0,.05,0,.09,0,.13.75-.51,1.38-.97,1.91-1.37.65-.47,1.2-.91,1.68-1.3.58-.48,1.11-.97,1.6-1.47.45-.46.81-.88,1.06-1.28.25-.41.3-.66.31-.78l.25-.75-.3.75c-.2-.08-.53-.19-.98-.32-.46-.12-1.04-.25-1.72-.34-.7-.11-1.5-.21-2.39-.29-1.96-.19-4.35-.19-7.33.27-1.69.25-3.45.65-5.23,1.18-1.8.55-3.57,1.22-5.28,2.03-1.7.8-3.25,1.76-4.62,2.84-1.35,1.06-2.47,2.28-3.34,3.62-.84,1.3-1.33,2.77-1.44,4.35-.12,1.37.06,2.6.51,3.69.46,1.07,1.29,2.09,2.5,3.02,1.25.96,2.95,1.89,5.04,2.74,2.13.87,4.79,1.73,7.91,2.55,2.12.55,3.93,1.22,5.37,1.98,1.46.78,2.64,1.62,3.52,2.51.9.91,1.54,1.88,1.93,2.86.38.97.57,1.94.57,2.87,0,1.57-.37,2.94-1.11,4.05-.72,1.1-1.66,1.99-2.8,2.67-1.11.64-2.37,1.12-3.74,1.42-1.34.29-2.71.43-4.07.43-.8,0-1.72-.05-2.75-.15-1.04-.12-2.07-.27-3.08-.48-1.03-.22-2.02-.48-2.93-.81-.96-.33-1.76-.73-2.37-1.18-.73-.55-1.14-1.19-1.23-1.93Z"/>
          <path class="cls-14" d="M51.19,58.93c-.47,0-.96-.06-1.44-.18-.53-.13-1.01-.38-1.42-.72-.41-.36-.75-.81-1.01-1.37-.25-.56-.36-1.26-.31-2.07,0-.73.04-2.71.13-5.91.02-1.34.06-3.02.11-5.04l.19-7.28c.07-2.85.16-6.16.27-9.92.1-3.51.21-7.53.33-12.03-1.1.14-2.18.26-3.24.37-1.37.15-2.68.29-3.95.39-.35.07-.7-.19-.82-.52-.12-.34-.01-.72.27-.93l8.22-6.04c.17-.13.39-.18.61-.14.74.12,1.56.2,2.43.25,2.15.08,4.22.07,6.21-.07,1.19-.08,2.35-.18,3.49-.3,1.15-.12,2.29-.22,3.42-.3,3.02-.25,6.12-.19,9.1.58,1.87.48,3.58,1.23,5.07,2.22,1.52,1.02,2.76,2.33,3.69,3.89.95,1.59,1.43,3.48,1.43,5.63,0,1.62-.33,3.25-.97,4.87-.63,1.58-1.5,3.14-2.57,4.61-1.06,1.47-2.31,2.86-3.71,4.17-1.39,1.28-2.89,2.43-4.44,3.39-1.55.97-3.15,1.76-4.75,2.36-1.63.6-3.22.93-4.71.97-.18-.01-.33-.03-.47-.14l-.96-.64c-.27-.17-.41-.49-.35-.81.06-.32.3-.57.61-.64,1.78-.43,3.44-1.06,4.95-1.92,1.5-.86,2.82-1.89,3.91-3.08,1.08-1.21,1.94-2.58,2.54-4.1.6-1.5.9-3.17.9-4.92,0-1.2-.18-2.3-.53-3.25-.35-.95-.84-1.82-1.47-2.55-.63-.74-1.37-1.4-2.21-1.94-.85-.56-1.79-1.01-2.77-1.37-1-.35-2.05-.6-3.11-.8-1.7-.28-3.37-.29-5.07-.23-.38.01-.75.03-1.12.05l-1.22,37.77c.33.19.71.32,1.12.41,1.25.27,2.66.25,3.99.07.68-.08,1.28-.21,1.82-.32.64-.15,1.23-.31,1.79-.5.36-.13.78.03.97.37.18.34.1.77-.2,1.02-.86.7-1.85,1.46-2.95,2.24-1.09.78-2.29,1.5-3.54,2.14-1.26.66-2.6,1.19-3.97,1.61-1.42.43-2.86.64-4.29.64ZM48.88,12.69c.2,0,.39.07.54.21.17.15.27.38.26.61-.13,4.89-.24,9.2-.35,12.96-.11,3.78-.2,7.08-.27,9.93l-.19,7.28c-.05,2-.09,3.68-.11,5.03-.09,3.19-.13,5.15-.13,5.93-.03.59.02,1.04.17,1.36.15.34.34.6.57.8.23.19.48.3.79.4.35.08.7.12,1.04.12,1.27,0,2.56-.18,3.82-.56,1.28-.4,2.53-.91,3.7-1.5,1.14-.6,2.22-1.25,3.22-1.94-.04,0-.09.02-.14.02-1.52.2-3.12.22-4.56-.1-.78-.17-1.48-.47-2.07-.91-.21-.15-.33-.41-.33-.67l1.25-38.95c.02-.42.34-.75.75-.78.63-.05,1.27-.08,1.91-.1,1.8-.07,3.59-.04,5.38.26,1.17.18,2.31.47,3.4.87,1.1.38,2.14.91,3.1,1.52.97.63,1.84,1.38,2.57,2.27.74.88,1.33,1.89,1.74,3.02.42,1.13.62,2.42.62,3.81,0,1.96-.34,3.81-1.02,5.51-.67,1.69-1.63,3.23-2.84,4.57-1.21,1.33-2.66,2.48-4.31,3.42-.15.08-.31.17-.47.26.02,0,.04-.01.06-.01,1.5-.56,3-1.3,4.46-2.21,1.46-.92,2.88-1.99,4.19-3.23,1.33-1.21,2.51-2.53,3.5-3.91,1-1.36,1.79-2.8,2.37-4.27.57-1.42.86-2.86.86-4.27,0-1.84-.41-3.46-1.19-4.81-.82-1.35-1.89-2.49-3.21-3.36-1.34-.89-2.88-1.57-4.58-2-2.81-.72-5.73-.75-8.58-.54-1.12.08-2.24.18-3.38.3-1.15.12-2.33.21-3.54.3-2.04.15-4.17.18-6.4.08-.8-.05-1.56-.12-2.27-.22l-5.59,4.09c.33-.03.67-.07,1.01-.1,1.36-.15,2.74-.31,4.14-.47.03,0,.07-.01.1-.01Z"/>
          <path class="cls-15" d="M94.26,58.24h-.27c-.78-.02-1.45-.21-2.01-.58-.58-.36-1.01-.94-1.28-1.72-.25-.69-.37-1.59-.37-2.77,0-.54,0-1.47.01-2.78l.04-5.23c.01-1.7.03-3.51.05-5.49l.19-18.88c.01-1.5.04-2.79.06-3.87v-.5c.03-1.2.05-1.96.07-2.31.01-.42-.13-.65-.49-.82-1-.48-2.67-.47-4.39-.17-.83.14-1.62.3-2.4.5-.38.09-.78-.1-.93-.47-.16-.35-.03-.78.3-1,1.11-.74,2.19-1.41,3.26-2.03,1.08-.62,2.19-1.17,3.3-1.63,1.12-.47,2.27-.82,3.42-1.08,1.63-.36,3.5-.5,5.08-.3.48.07.91.15,1.28.29.43.17.77.39,1.04.68.32.34.49.77.49,1.25,0,.75,0,2.4-.03,5.01v1.06c0,1.37,0,3.08-.02,5.1l-.06,17.39c0,3.64-.01,7.77-.01,12.4.86.15,1.68.26,2.42.32,1.69.13,3.05.15,4.06.05.47-.05.88-.08,1.21-.12.34-.05.65-.12.92-.18.37-.09.76.1.92.47.15.35.03.77-.29.97-1.25.85-2.51,1.66-3.76,2.4-1.3.75-2.47,1.37-3.58,1.91-1.14.54-2.25.99-3.27,1.33-1.04.35-2.02.57-2.91.67-.77.08-1.44.12-2.03.12ZM88.19,11.31c1.08,0,2.01.19,2.77.54.95.46,1.44,1.3,1.41,2.35-.02.36-.03,1.1-.06,2.27v.49c-.03,1.1-.05,2.38-.07,3.86l-.19,18.88c-.02,1.98-.03,3.8-.05,5.49l-.03,5.22c-.01,1.31-.02,2.24-.02,2.77,0,.97.1,1.72.27,2.23.16.43.37.73.65.91.3.19.69.3,1.17.31.6.02,1.3-.03,2.1-.12.77-.08,1.63-.28,2.57-.58.97-.33,2-.74,3.09-1.27,1.07-.51,2.2-1.11,3.45-1.85.27-.15.54-.3.8-.48-.88.03-1.94,0-3.16-.1-1-.08-2.09-.25-3.26-.48-.38-.08-.64-.41-.64-.79,0-4.9,0-9.25,0-13.06l.07-17.39c.01-2.04.01-3.74.01-5.1v-1.07c.03-2.6.03-4.26.03-5-.14-.25-.29-.34-.49-.41-.25-.1-.55-.17-.91-.21-1.39-.19-3.07-.04-4.52.27-1.06.23-2.12.56-3.15,1-.92.39-1.84.83-2.75,1.34.31-.03.61-.04.91-.04Z"/>
          <path class="cls-16" d="M153.03,58.42s-.06,0-.08-.01c-.32-.03-.58-.25-.68-.54-.3-.86-.77-1.78-1.43-2.76-.68-1-1.38-1.96-2.09-2.83-.84-1-1.73-2-2.68-3-1.13-1.11-2.89-2.86-5.29-5.21l-8.46-8.28c-1.64-1.59-3.45-3.37-5.46-5.34l-.78-.75c-1.94-1.92-4.06-3.99-6.38-6.28l-.23,15.14c-.01,1.22-.03,2.28-.03,3.18-.03,2.09-.03,3.59-.03,4.48-.02.63.03,1.18.17,1.67.12.47.3.87.56,1.19.23.32.55.56.95.74.84.39,2.14.37,3.82-.07.89-.23,1.93-.62,3.07-1.15.36-.16.78-.05,1,.26.23.33.19.77-.1,1.04-1.04,1.03-2.06,1.94-3.02,2.71-.96.78-1.87,1.43-2.71,1.97-.86.57-1.64,1.02-2.36,1.37-.71.34-1.37.63-1.96.84-1.43.51-2.71.73-3.8.61-1.15-.23-1.87-.69-2.23-1.38-.31-.59-.46-1.39-.46-2.43,0-6.66.11-13.41.34-20.09.23-6.56.36-13.22.36-19.8v-2.5c0-.62-.01-1.06-.05-1.34-.01-.12,0-.24.03-.34.21-.65.59-1.35,1.19-2.14.45-.64,1.14-1.41,2-2.29.86-.89,2.03-1.87,3.54-3.01.29-.21.69-.21.97,0,.28.23.4.6.27.94-.15.4-.26.78-.31,1.14-.06.38-.09.75-.09,1.11,0,.56.05,1.06.15,1.46.11.43.23.78.38,1.06.17.34.36.66.57.95.69.85,1.62,1.89,2.75,3.06,1.15,1.19,2.49,2.54,4.02,4.04l5.05,4.99c1.84,1.82,3.81,3.81,5.91,5.99,1.48,1.39,3.06,2.92,4.74,4.58,1.43,1.4,3.07,3.07,4.89,4.96,1.39,1.44,2.81,2.97,4.24,4.56.04-3.06.05-5.77.08-8.13.02-2.86.03-5.35.03-7.46,0-1.94,0-3.56-.01-4.83-.01-1.27-.03-2.28-.06-3.05-.01-.88-.04-1.57-.06-2.08,0-.64-.08-1.15-.25-1.53-.16-.37-.36-.66-.59-.86-.25-.21-.53-.35-.84-.44-.8-.21-1.59-.17-2.29,0-.45.1-.66.23-.74.28-.34.25-.83.19-1.11-.15-.26-.34-.22-.84.11-1.12.91-.78,1.81-1.51,2.7-2.18.91-.71,1.85-1.32,2.79-1.83.95-.51,1.97-.93,3.01-1.24,1.79-.52,3.83-.62,5.79-.23.34.08.59.34.64.69.05.34-.13.67-.44.82-.17.08-.28.18-.36.32-.13.21-.22.4-.29.59-.06.23-.12.52-.16.81-.02.21-.05.75-.08,1.61l-.13,3.32c-.05,1.33-.1,2.83-.16,4.48l-.18,5.16c-.06,1.77-.12,3.54-.18,5.33-.05,1.77-.1,3.43-.16,5.01-.06,1.55-.1,2.94-.13,4.17l-.08,2.86c-.04,1.4-.11,2.54-.19,3.42-.08.89-.21,1.66-.37,2.29-.18.65-.37,1.19-.62,1.64-.22.42-.45.84-.71,1.31-.17.36-.47.93-.86,1.67-.35.63-.82,1.47-1.41,2.51-.59,1.04-1.35,2.34-2.27,3.91-.15.23-.41.4-.7.4ZM114.62,9.86c.02.33.05.78.05,1.36v2.5c0,6.6-.12,13.28-.36,19.85-.23,6.66-.36,13.39-.36,20.03,0,.95.16,1.44.28,1.68.16.3.65.47,1.04.54.78.05,1.82-.12,3.03-.54.53-.18,1.13-.45,1.79-.76.67-.32,1.39-.75,2.2-1.28.75-.47,1.58-1.08,2.46-1.78-1.81.38-3.24.32-4.33-.18-.63-.28-1.15-.7-1.55-1.22-.38-.49-.67-1.09-.85-1.77-.16-.63-.25-1.35-.22-2.09,0-.89,0-2.38.03-4.48,0-.9.01-1.96.03-3.2l.26-17.03c0-.33.2-.61.5-.74.3-.12.64-.04.87.18,2.85,2.8,5.42,5.33,7.73,7.61l.77.75c2,1.97,3.82,3.75,5.46,5.35l8.47,8.27c2.39,2.36,4.16,4.11,5.3,5.25.98,1.02,1.91,2.05,2.77,3.08.74.93,1.48,1.91,2.18,2.96.37.56.69,1.09.96,1.61.57-.96,1.05-1.8,1.46-2.51.58-1.03,1.05-1.85,1.39-2.48.37-.7.66-1.26.84-1.65.28-.49.51-.92.72-1.32.18-.34.34-.78.48-1.3.14-.54.25-1.23.33-2.03.09-.87.14-1.96.19-3.31l.08-2.86c.03-1.24.08-2.64.13-4.2.05-1.55.11-3.22.16-5,.05-1.78.11-3.56.17-5.34l.18-5.14c.05-1.66.1-3.17.16-4.48l.12-3.34c.03-.89.07-1.46.09-1.7.05-.41.12-.77.22-1.11.06-.21.14-.38.23-.56-1.26-.09-2.47.07-3.57.38-.94.27-1.85.65-2.7,1.11-.86.47-1.72,1.03-2.57,1.68-.07.05-.14.11-.21.15.33.04.67.1,1,.19.54.15,1.02.4,1.44.75.43.37.78.86,1.04,1.46.26.59.38,1.31.38,2.15.03.49.04,1.18.07,2.07.01.77.03,1.79.05,3.07,0,1.28.01,2.89.01,4.85,0,2.11-.01,4.61-.03,7.47-.02,2.88-.05,6.28-.1,10.21,0,.34-.21.63-.52.75-.32.11-.67.03-.89-.22-1.89-2.13-3.78-4.16-5.6-6.07-1.81-1.88-3.43-3.53-4.86-4.94-1.66-1.64-3.24-3.16-4.74-4.58-2.11-2.17-4.08-4.16-5.92-5.97l-5.05-4.99c-1.53-1.52-2.88-2.88-4.04-4.08-1.16-1.19-2.13-2.27-2.87-3.2-.29-.39-.52-.78-.74-1.2-.2-.39-.36-.87-.49-1.4-.13-.54-.19-1.14-.19-1.85,0-.17,0-.35,0-.53-.64.53-1.19,1.03-1.63,1.48-.81.82-1.44,1.53-1.86,2.12-.44.58-.73,1.08-.89,1.5Z"/>
        </g>
        <g>
          <path class="cls-17" d="M11.44,58.61c-1.84,0-3.48-.19-4.89-.56-1.41-.36-2.6-.81-3.55-1.33-1-.56-1.73-1.11-2.24-1.72-.61-.73-.85-1.37-.73-1.95.05-.47.3-1.02.74-1.59.4-.52.98-1.08,1.74-1.65.72-.56,1.62-1.15,2.74-1.81,1.1-.67,2.42-1.39,3.93-2.14.35-.19.79-.08,1.02.25.23.32.19.76-.1,1.04-.41.4-.62.75-.6.99.03.28.23.56.6.84.48.35,1.13.67,1.93.96.84.29,1.76.54,2.72.74.96.2,1.94.34,2.92.45.97.1,1.84.16,2.58.16,1.25,0,2.5-.14,3.73-.41,1.2-.25,2.3-.67,3.26-1.23.92-.55,1.69-1.26,2.27-2.16.56-.85.85-1.93.85-3.16,0-.74-.15-1.51-.46-2.31-.3-.77-.82-1.55-1.57-2.29-.76-.78-1.81-1.52-3.12-2.21-1.33-.71-3.02-1.33-5.03-1.85-3.19-.84-5.92-1.72-8.11-2.62-2.22-.9-4.04-1.89-5.42-2.95-1.42-1.1-2.43-2.33-2.99-3.67-.56-1.32-.78-2.81-.64-4.45.14-1.85.71-3.57,1.7-5.09.96-1.5,2.21-2.84,3.69-4.02,1.47-1.15,3.13-2.18,4.94-3.03,1.78-.85,3.63-1.55,5.5-2.11,1.86-.56,3.69-.98,5.45-1.25,3.1-.47,5.63-.47,7.72-.27.92.09,1.75.17,2.48.28.75.12,1.39.25,1.91.4.53.15.91.27,1.13.37.01,0,.02,0,.03,0,.68.29,1.06.86,1.04,1.53-.01.49-.19,1-.55,1.58-.32.51-.75,1.04-1.29,1.58-.52.52-1.08,1.04-1.7,1.57-.52.43-1.1.87-1.75,1.36-.56.43-1.24.91-2.06,1.48-.81.54-1.73,1.14-2.77,1.79-.35.22-.81.15-1.07-.19-.25-.34-.21-.8.09-1.08.63-.59.92-1,1.06-1.25.17-.3.25-.57.25-.8,0-.25-.1-.47-.33-.69-.31-.29-.72-.54-1.23-.75-.55-.24-1.18-.42-1.86-.56-.71-.14-1.41-.25-2.08-.33-.67-.07-1.29-.11-1.85-.14-.56-.01-.98-.03-1.25-.03-1.07,0-2.18.12-3.28.34-1.06.19-2.02.55-2.86,1.02-.8.47-1.47,1.08-1.98,1.84-.48.73-.73,1.65-.73,2.77,0,1.28.34,2.34,1.04,3.24.75.96,1.75,1.81,2.98,2.51,1.28.74,2.75,1.4,4.37,1.96,1.67.56,3.36,1.11,5.07,1.63,1.73.54,3.4,1.07,5.02,1.59,1.65.56,3.12,1.18,4.36,1.9,1.71,1.01,2.96,2.22,3.72,3.58.76,1.37,1.15,2.85,1.15,4.36,0,1.95-.52,3.8-1.54,5.53-1,1.68-2.3,3.26-3.88,4.7-1.56,1.43-3.36,2.72-5.35,3.86-1.96,1.12-3.98,2.1-6.01,2.9-2.01.8-3.99,1.43-5.89,1.87-1.91.45-3.6.67-5.03.67ZM7.91,48.34c-.67.36-1.28.71-1.83,1.04-1.07.63-1.92,1.19-2.59,1.71-.64.49-1.13.93-1.44,1.34-.32.43-.42.7-.43.87-.01.03.01.23.38.66.37.45.97.9,1.77,1.33.84.46,1.91.86,3.19,1.19,2.25.59,5.02.85,9.14-.11,1.82-.43,3.72-1.03,5.66-1.8,1.95-.78,3.91-1.72,5.8-2.8,1.89-1.09,3.6-2.32,5.07-3.65,1.46-1.33,2.66-2.79,3.57-4.33.88-1.48,1.32-3.06,1.32-4.71,0-1.24-.31-2.44-.94-3.57-.62-1.11-1.68-2.12-3.12-2.98-1.14-.66-2.51-1.25-4.06-1.76-1.61-.53-3.27-1.06-4.98-1.58-1.73-.53-3.44-1.08-5.13-1.66-1.72-.59-3.28-1.3-4.65-2.1-1.41-.8-2.56-1.79-3.44-2.9-.92-1.19-1.39-2.61-1.39-4.24,0-1.44.34-2.67,1-3.67.65-.97,1.49-1.76,2.52-2.35.99-.57,2.12-.98,3.36-1.21,1.2-.23,2.41-.36,3.59-.36.28,0,.72.01,1.31.04.6.01,1.25.07,1.97.14.72.08,1.46.2,2.22.35.78.15,1.5.36,2.16.63.69.29,1.26.66,1.72,1.07.55.53.83,1.17.83,1.87,0,.05,0,.08,0,.14.75-.51,1.38-.96,1.91-1.38.65-.47,1.2-.89,1.68-1.3.58-.48,1.11-.98,1.6-1.48.45-.44.81-.88,1.06-1.27.25-.41.3-.65.31-.79l.25-.73-.3.75c-.2-.08-.53-.19-.98-.32-.46-.12-1.04-.24-1.72-.34-.7-.1-1.5-.21-2.39-.29-1.96-.18-4.35-.2-7.33.26-1.69.27-3.45.67-5.23,1.21-1.8.54-3.57,1.21-5.28,2.02-1.7.81-3.25,1.76-4.62,2.84-1.35,1.06-2.47,2.28-3.34,3.62-.84,1.3-1.33,2.76-1.44,4.35-.12,1.37.06,2.59.51,3.69.46,1.06,1.29,2.08,2.5,3.01,1.25.97,2.95,1.89,5.04,2.74,2.13.87,4.79,1.74,7.91,2.55,2.12.54,3.93,1.21,5.37,1.98,1.46.77,2.64,1.61,3.52,2.49.9.91,1.54,1.87,1.93,2.86.38.97.57,1.95.57,2.88,0,1.56-.37,2.92-1.11,4.05-.72,1.08-1.66,1.98-2.8,2.65-1.11.65-2.37,1.14-3.74,1.43-1.34.28-2.71.44-4.07.44-.8,0-1.72-.06-2.75-.17-1.04-.12-2.07-.27-3.08-.49-1.03-.2-2.02-.47-2.93-.79-.96-.34-1.76-.74-2.37-1.2-.73-.54-1.14-1.19-1.23-1.92Z"/>
          <path class="cls-18" d="M51.19,58.29c-.47,0-.96-.06-1.44-.19-.53-.13-1.01-.38-1.42-.72-.41-.34-.75-.81-1.01-1.37-.25-.56-.36-1.27-.31-2.08,0-.73.04-2.72.13-5.91.02-1.34.06-3.02.11-5.04l.19-7.28c.07-2.84.16-6.15.27-9.9.1-3.54.21-7.54.33-12.04-1.1.13-2.18.25-3.24.36-1.37.15-2.68.29-3.95.39-.35.06-.7-.18-.82-.51-.12-.34-.01-.73.27-.93l8.22-6.03c.17-.14.39-.19.61-.15.74.12,1.56.21,2.43.24,2.15.1,4.22.08,6.21-.06,1.19-.08,2.35-.18,3.49-.3,1.15-.12,2.29-.22,3.42-.31,3.02-.23,6.12-.19,9.1.59,1.87.49,3.58,1.23,5.07,2.22,1.52,1.02,2.76,2.33,3.69,3.89.95,1.59,1.43,3.48,1.43,5.63,0,1.62-.33,3.26-.97,4.87-.63,1.59-1.5,3.14-2.57,4.63-1.06,1.46-2.31,2.86-3.71,4.15-1.39,1.28-2.89,2.42-4.44,3.4-1.55.96-3.15,1.76-4.75,2.35-1.63.62-3.22.93-4.71.99-.18-.01-.33-.05-.47-.14l-.96-.64c-.27-.18-.41-.49-.35-.81.06-.33.3-.58.61-.65,1.78-.41,3.44-1.05,4.95-1.92,1.5-.85,2.82-1.89,3.91-3.1,1.08-1.19,1.94-2.57,2.54-4.08.6-1.52.9-3.17.9-4.92,0-1.21-.18-2.29-.53-3.25-.35-.96-.84-1.81-1.47-2.55-.63-.75-1.37-1.4-2.21-1.94-.85-.56-1.79-1.02-2.77-1.37-1-.35-2.05-.62-3.11-.79-1.7-.28-3.37-.29-5.07-.23-.38,0-.75.03-1.12.04l-1.22,37.76c.33.19.71.33,1.12.41,1.25.27,2.66.26,3.99.07.68-.08,1.28-.2,1.82-.32.64-.14,1.23-.3,1.79-.49.36-.13.78.05.97.38.18.36.1.77-.2,1.02-.86.71-1.85,1.46-2.95,2.24-1.09.77-2.29,1.5-3.54,2.14-1.26.65-2.6,1.19-3.97,1.61-1.42.43-2.86.65-4.29.65ZM48.88,12.04c.2,0,.39.08.54.22.17.14.27.37.26.6-.13,4.89-.24,9.21-.35,12.97-.11,3.77-.2,7.08-.27,9.92l-.19,7.28c-.05,2-.09,3.68-.11,5.04-.09,3.17-.13,5.14-.13,5.91-.03.6.02,1.04.17,1.37.15.34.34.6.57.79.23.2.48.32.79.41.35.09.7.14,1.04.14,1.27,0,2.56-.2,3.82-.58,1.28-.4,2.53-.9,3.7-1.51,1.14-.59,2.22-1.24,3.22-1.94-.04.01-.09.03-.14.03-1.52.21-3.12.22-4.56-.1-.78-.17-1.48-.48-2.07-.9-.21-.17-.33-.42-.33-.69l1.25-38.95c.02-.41.34-.76.75-.78.63-.05,1.27-.08,1.91-.1,1.8-.07,3.59-.04,5.38.25,1.17.19,2.31.48,3.4.88,1.1.4,2.14.91,3.1,1.52.97.62,1.84,1.39,2.57,2.25.74.89,1.33,1.91,1.74,3.04.42,1.13.62,2.41.62,3.81,0,1.94-.34,3.8-1.02,5.51-.67,1.69-1.63,3.24-2.84,4.58-1.21,1.34-2.66,2.47-4.31,3.41-.15.1-.31.18-.47.27.02,0,.04,0,.06-.02,1.5-.55,3-1.3,4.46-2.21,1.46-.91,2.88-2,4.19-3.21,1.33-1.22,2.51-2.55,3.5-3.92,1-1.37,1.79-2.81,2.37-4.28.57-1.41.86-2.86.86-4.27,0-1.85-.41-3.46-1.19-4.8-.82-1.35-1.89-2.49-3.21-3.37-1.34-.89-2.88-1.58-4.58-2-2.81-.73-5.73-.75-8.58-.54-1.12.08-2.24.19-3.38.3-1.15.12-2.33.23-3.54.3-2.04.15-4.17.17-6.4.07-.8-.03-1.56-.11-2.27-.22l-5.59,4.11c.33-.03.67-.07,1.01-.1,1.36-.14,2.74-.3,4.14-.48.03,0,.07,0,.1,0Z"/>
          <path class="cls-19" d="M94.26,57.6h-.27c-.78-.01-1.45-.21-2.01-.56-.58-.37-1.01-.95-1.28-1.72-.25-.69-.37-1.61-.37-2.79,0-.52,0-1.46.01-2.77l.04-5.23c.01-1.69.03-3.52.05-5.48l.19-18.9c.01-1.48.04-2.77.06-3.86v-.5c.03-1.19.05-1.96.07-2.31.01-.41-.13-.65-.49-.81-1-.49-2.67-.48-4.39-.18-.83.14-1.62.32-2.4.5-.38.1-.78-.1-.93-.46-.16-.35-.03-.78.3-1,1.11-.74,2.19-1.41,3.26-2.03,1.08-.62,2.19-1.18,3.3-1.64,1.12-.45,2.27-.82,3.42-1.08,1.63-.36,3.5-.5,5.08-.3.48.07.91.17,1.28.3.43.17.77.39,1.04.67.32.33.49.78.49,1.26,0,.73,0,2.4-.03,4.99v1.08c0,1.36,0,3.06-.02,5.09l-.06,17.4c0,3.62-.01,7.75-.01,12.38.86.16,1.68.27,2.42.32,1.69.14,3.05.15,4.06.06.47-.04.88-.08,1.21-.12.34-.06.65-.12.92-.19.37-.07.76.12.92.47.15.36.03.78-.29,1-1.25.84-2.51,1.65-3.76,2.38-1.3.77-2.47,1.39-3.58,1.92-1.14.55-2.25.99-3.27,1.33-1.04.35-2.02.56-2.91.67-.77.08-1.44.11-2.03.11ZM88.19,10.66c1.08,0,2.01.18,2.77.54.95.45,1.44,1.28,1.41,2.35-.02.36-.03,1.11-.06,2.27v.5c-.03,1.08-.05,2.36-.07,3.85l-.19,18.89c-.02,1.96-.03,3.8-.05,5.48l-.03,5.24c-.01,1.3-.02,2.24-.02,2.76,0,.97.1,1.73.27,2.24.16.43.37.73.65.91.3.19.69.3,1.17.3.6.03,1.3-.01,2.1-.11.77-.08,1.63-.27,2.57-.58.97-.32,2-.75,3.09-1.26,1.07-.51,2.2-1.11,3.45-1.85.27-.14.54-.32.8-.47-.88.01-1.94-.02-3.16-.11-1-.08-2.09-.23-3.26-.48-.38-.08-.64-.41-.64-.8,0-4.9,0-9.25,0-13.04l.07-17.41c.01-2.03.01-3.72.01-5.09v-1.07c.03-2.6.03-4.26.03-4.98-.14-.26-.29-.34-.49-.43-.25-.09-.55-.16-.91-.21-1.39-.19-3.07-.05-4.52.28-1.06.24-2.12.58-3.15,1-.92.39-1.84.84-2.75,1.33.31,0,.61-.03.91-.03Z"/>
          <path class="cls-12" d="M153.03,57.78h-.08c-.32-.04-.58-.25-.68-.56-.3-.84-.77-1.78-1.43-2.76-.68-1-1.38-1.94-2.09-2.82-.84-1.02-1.73-2.02-2.68-3-1.13-1.12-2.89-2.86-5.29-5.22l-8.46-8.27c-1.64-1.59-3.45-3.37-5.46-5.33l-.78-.76c-1.94-1.9-4.06-3.99-6.38-6.27l-.23,15.13c-.01,1.21-.03,2.28-.03,3.17-.03,2.1-.03,3.6-.03,4.49-.02.63.03,1.18.17,1.67.12.47.3.86.56,1.2.23.32.55.56.95.74.84.38,2.14.36,3.82-.08.89-.24,1.93-.62,3.07-1.15.36-.16.78-.05,1,.28.23.32.19.75-.1,1.04-1.04,1.02-2.06,1.95-3.02,2.72-.96.78-1.87,1.44-2.71,1.98-.86.56-1.64,1-2.36,1.36-.71.35-1.37.63-1.96.84-1.43.5-2.71.72-3.8.61-1.15-.23-1.87-.7-2.23-1.39-.31-.6-.46-1.4-.46-2.43,0-6.65.11-13.41.34-20.09.23-6.56.36-13.22.36-19.8v-2.5c0-.6-.01-1.06-.05-1.34-.01-.12,0-.23.03-.34.21-.65.59-1.35,1.19-2.15.45-.63,1.14-1.41,2-2.28.86-.89,2.03-1.87,3.54-3.01.29-.22.69-.22.97,0,.28.22.4.59.27.93-.15.41-.26.79-.31,1.15-.06.39-.09.75-.09,1.11,0,.56.05,1.04.15,1.45.11.43.23.79.38,1.08.17.34.36.66.57.94.69.86,1.62,1.89,2.75,3.07,1.15,1.18,2.49,2.53,4.02,4.04l5.05,4.99c1.84,1.82,3.81,3.81,5.91,5.98,1.48,1.39,3.06,2.92,4.74,4.57,1.43,1.42,3.07,3.08,4.89,4.97,1.39,1.44,2.81,2.98,4.24,4.56.04-3.07.05-5.78.08-8.13.02-2.86.03-5.35.03-7.47,0-1.94,0-3.56-.01-4.82-.01-1.26-.03-2.28-.06-3.05-.01-.87-.04-1.56-.06-2.07,0-.64-.08-1.14-.25-1.55-.16-.36-.36-.65-.59-.85-.25-.19-.53-.35-.84-.44-.8-.21-1.59-.16-2.29,0-.45.11-.66.22-.74.28-.34.25-.83.2-1.11-.15-.26-.34-.22-.83.11-1.11.91-.78,1.81-1.52,2.7-2.2.91-.7,1.85-1.31,2.79-1.81.95-.52,1.97-.93,3.01-1.25,1.79-.52,3.83-.62,5.79-.22.34.07.59.34.64.67.05.36-.13.68-.44.84-.17.09-.28.19-.36.31-.13.21-.22.4-.29.6-.06.23-.12.52-.16.81-.02.21-.05.75-.08,1.61l-.13,3.32c-.05,1.33-.1,2.83-.16,4.48l-.18,5.16c-.06,1.77-.12,3.54-.18,5.32-.05,1.78-.1,3.45-.16,5-.06,1.56-.1,2.95-.13,4.17l-.08,2.88c-.04,1.39-.11,2.53-.19,3.41-.08.89-.21,1.68-.37,2.29-.18.65-.37,1.2-.62,1.65-.22.42-.45.84-.71,1.3-.17.37-.47.94-.86,1.68-.35.64-.82,1.48-1.41,2.51-.59,1.04-1.35,2.35-2.27,3.91-.15.25-.41.4-.7.4ZM114.62,9.21c.02.32.05.78.05,1.36v2.5c0,6.6-.12,13.28-.36,19.86-.23,6.65-.36,13.39-.36,20.03,0,.94.16,1.44.28,1.68.16.29.65.47,1.04.56.78.03,1.82-.12,3.03-.56.53-.19,1.13-.45,1.79-.78.67-.32,1.39-.74,2.2-1.27.75-.49,1.58-1.08,2.46-1.78-1.81.4-3.24.32-4.33-.18-.63-.29-1.15-.69-1.55-1.21-.38-.5-.67-1.09-.85-1.76-.16-.64-.25-1.35-.22-2.11,0-.87,0-2.37.03-4.47,0-.9.01-1.96.03-3.21l.26-17.01c0-.32.2-.62.5-.74.3-.12.64-.05.87.18,2.85,2.79,5.42,5.33,7.73,7.6l.77.75c2,1.96,3.82,3.75,5.46,5.33l8.47,8.29c2.39,2.35,4.16,4.09,5.3,5.23.98,1.03,1.91,2.07,2.77,3.1.74.93,1.48,1.91,2.18,2.95.37.56.69,1.11.96,1.64.57-.97,1.05-1.81,1.46-2.53.58-1.03,1.05-1.85,1.39-2.48.37-.69.66-1.26.84-1.65.28-.49.51-.92.72-1.3.18-.34.34-.8.48-1.32.14-.55.25-1.23.33-2.03.09-.87.14-1.96.19-3.3l.08-2.88c.03-1.22.08-2.63.13-4.19.05-1.55.11-3.23.16-5,.05-1.77.11-3.55.17-5.33l.18-5.15c.05-1.65.1-3.15.16-4.5l.12-3.32c.03-.89.07-1.47.09-1.71.05-.41.12-.77.22-1.11.06-.19.14-.37.23-.56-1.26-.08-2.47.07-3.57.38-.94.27-1.85.64-2.7,1.1-.86.47-1.72,1.03-2.57,1.68-.07.05-.14.11-.21.16.33.03.67.08,1,.18.54.15,1.02.4,1.44.75.43.36.78.85,1.04,1.46.26.59.38,1.32.38,2.14.03.48.04,1.19.07,2.07.01.77.03,1.8.05,3.08,0,1.28.01,2.88.01,4.83,0,2.11-.01,4.61-.03,7.48-.02,2.87-.05,6.27-.1,10.2,0,.34-.21.64-.52.75-.32.12-.67.03-.89-.22-1.89-2.13-3.78-4.17-5.6-6.05-1.81-1.89-3.43-3.53-4.86-4.96-1.66-1.62-3.24-3.14-4.74-4.57-2.11-2.18-4.08-4.17-5.92-5.99l-5.05-4.97c-1.53-1.52-2.88-2.88-4.04-4.08-1.16-1.2-2.13-2.28-2.87-3.2-.29-.39-.52-.78-.74-1.21-.2-.39-.36-.86-.49-1.4-.13-.54-.19-1.14-.19-1.84,0-.17,0-.36,0-.54-.64.54-1.19,1.04-1.63,1.49-.81.82-1.44,1.54-1.86,2.13-.44.56-.73,1.07-.89,1.5Z"/>
        </g>
        <g>
          <path class="cls-13" d="M11.44,57.96c-1.84,0-3.48-.18-4.89-.55-1.41-.37-2.6-.82-3.55-1.35-1-.54-1.73-1.11-2.24-1.72-.61-.71-.85-1.36-.73-1.95.05-.45.3-1,.74-1.59.4-.51.98-1.06,1.74-1.63.72-.56,1.62-1.15,2.74-1.81,1.1-.66,2.42-1.39,3.93-2.15.35-.18.79-.08,1.02.25.23.33.19.77-.1,1.04-.41.39-.62.75-.6.99.03.29.23.56.6.83.48.36,1.13.68,1.93.97.84.29,1.76.55,2.72.73.96.2,1.94.36,2.92.45.97.11,1.84.15,2.58.15,1.25,0,2.5-.12,3.73-.38,1.2-.26,2.3-.67,3.26-1.24.92-.55,1.69-1.27,2.27-2.16.56-.86.85-1.92.85-3.17,0-.73-.15-1.5-.46-2.29-.3-.78-.82-1.55-1.57-2.31-.76-.77-1.81-1.51-3.12-2.21-1.33-.7-3.02-1.33-5.03-1.84-3.19-.84-5.92-1.72-8.11-2.61-2.22-.92-4.04-1.92-5.42-2.97-1.42-1.09-2.43-2.34-2.99-3.66-.56-1.33-.78-2.82-.64-4.45.14-1.85.71-3.57,1.7-5.09.96-1.5,2.21-2.84,3.69-4.01,1.47-1.17,3.13-2.18,4.94-3.04,1.78-.84,3.63-1.55,5.5-2.11,1.86-.55,3.69-.97,5.45-1.25,3.1-.48,5.63-.48,7.72-.27.92.09,1.75.19,2.48.29.75.12,1.39.26,1.91.4.53.15.91.27,1.13.36.01,0,.02,0,.03,0,.68.31,1.06.87,1.04,1.54-.01.49-.19,1.01-.55,1.59-.32.5-.75,1.03-1.29,1.56-.52.52-1.08,1.04-1.7,1.57-.52.43-1.1.88-1.75,1.36-.56.43-1.24.92-2.06,1.47-.81.56-1.73,1.15-2.77,1.8-.35.23-.81.14-1.07-.19-.25-.34-.21-.81.09-1.09.63-.58.92-1,1.06-1.24.17-.29.25-.56.25-.79,0-.27-.1-.49-.33-.71-.31-.29-.72-.54-1.23-.75-.55-.23-1.18-.41-1.86-.55-.71-.14-1.41-.25-2.08-.32-.67-.08-1.29-.12-1.85-.15-.56,0-.98-.02-1.25-.02-1.07,0-2.18.11-3.28.32-1.06.22-2.02.55-2.86,1.04-.8.46-1.47,1.08-1.98,1.83-.48.72-.73,1.65-.73,2.77,0,1.28.34,2.35,1.04,3.23.75.96,1.75,1.81,2.98,2.52,1.28.74,2.75,1.4,4.37,1.96,1.67.57,3.36,1.13,5.07,1.64,1.73.54,3.4,1.06,5.02,1.59,1.65.55,3.12,1.19,4.36,1.9,1.71,1.01,2.96,2.22,3.72,3.58.76,1.38,1.15,2.85,1.15,4.37,0,1.92-.52,3.79-1.54,5.51-1,1.68-2.3,3.27-3.88,4.7-1.56,1.42-3.36,2.73-5.35,3.86-1.96,1.13-3.98,2.11-6.01,2.92-2.01.79-3.99,1.43-5.89,1.85-1.91.44-3.6.66-5.03.66ZM7.91,47.7c-.67.36-1.28.71-1.83,1.04-1.07.65-1.92,1.2-2.59,1.72-.64.48-1.13.93-1.44,1.35-.32.41-.42.69-.43.84-.01.05.01.24.38.68.37.43.97.88,1.77,1.32.84.46,1.91.87,3.19,1.19,2.25.59,5.02.84,9.14-.11,1.82-.41,3.72-1.03,5.66-1.8,1.95-.78,3.91-1.72,5.8-2.81,1.89-1.08,3.6-2.31,5.07-3.65,1.46-1.33,2.66-2.79,3.57-4.32.88-1.49,1.32-3.07,1.32-4.7,0-1.25-.31-2.46-.94-3.58-.62-1.11-1.68-2.11-3.12-2.99-1.14-.65-2.51-1.24-4.06-1.76-1.61-.52-3.27-1.05-4.98-1.57-1.73-.52-3.44-1.08-5.13-1.66-1.72-.6-3.28-1.29-4.65-2.09-1.41-.82-2.56-1.8-3.44-2.91-.92-1.17-1.39-2.6-1.39-4.24,0-1.43.34-2.68,1-3.67.65-.97,1.49-1.75,2.52-2.33.99-.57,2.12-.98,3.36-1.21,1.2-.23,2.41-.34,3.59-.34.28,0,.72,0,1.31.03.6.01,1.25.07,1.97.14.72.08,1.46.21,2.22.36.78.15,1.5.37,2.16.63.69.28,1.26.65,1.72,1.08.55.51.83,1.15.83,1.87,0,.04,0,.08,0,.11.75-.51,1.38-.96,1.91-1.36.65-.47,1.2-.91,1.68-1.3.58-.49,1.11-.99,1.6-1.48.45-.45.81-.88,1.06-1.28.25-.41.3-.65.31-.79l.25-.74-.3.75c-.2-.08-.53-.18-.98-.31-.46-.13-1.04-.25-1.72-.34-.7-.11-1.5-.21-2.39-.28-1.96-.2-4.35-.2-7.33.27-1.69.26-3.45.66-5.23,1.19-1.8.54-3.57,1.22-5.28,2.03-1.7.8-3.25,1.75-4.62,2.83-1.35,1.08-2.47,2.29-3.34,3.63-.84,1.29-1.33,2.76-1.44,4.35-.12,1.36.06,2.59.51,3.68.46,1.07,1.29,2.09,2.5,3.01,1.25.97,2.95,1.89,5.04,2.75,2.13.86,4.79,1.73,7.91,2.54,2.12.56,3.93,1.21,5.37,1.98,1.46.78,2.64,1.62,3.52,2.51.9.91,1.54,1.87,1.93,2.85.38.98.57,1.95.57,2.88,0,1.57-.37,2.94-1.11,4.06-.72,1.09-1.66,1.99-2.8,2.67-1.11.63-2.37,1.11-3.74,1.4-1.34.3-2.71.45-4.07.45-.8,0-1.72-.06-2.75-.16-1.04-.12-2.07-.29-3.08-.48-1.03-.22-2.02-.49-2.93-.81-.96-.33-1.76-.73-2.37-1.18-.73-.55-1.14-1.19-1.23-1.92Z"/>
          <path class="cls-20" d="M51.19,57.64c-.47,0-.96-.05-1.44-.18-.53-.14-1.01-.39-1.42-.73-.41-.34-.75-.8-1.01-1.37-.25-.56-.36-1.26-.31-2.07,0-.73.04-2.7.13-5.9.02-1.35.06-3.02.11-5.04l.19-7.28c.07-2.86.16-6.16.27-9.93.1-3.52.21-7.52.33-12.03-1.1.14-2.18.25-3.24.38-1.37.15-2.68.28-3.95.39-.35.05-.7-.19-.82-.52-.12-.34-.01-.73.27-.93l8.22-6.04c.17-.12.39-.18.61-.14.74.12,1.56.21,2.43.25,2.15.1,4.22.07,6.21-.06,1.19-.09,2.35-.19,3.49-.3,1.15-.11,2.29-.22,3.42-.3,3.02-.23,6.12-.18,9.1.58,1.87.48,3.58,1.24,5.07,2.22,1.52,1.02,2.76,2.32,3.69,3.89.95,1.59,1.43,3.49,1.43,5.63,0,1.62-.33,3.25-.97,4.87-.63,1.59-1.5,3.14-2.57,4.62-1.06,1.48-2.31,2.87-3.71,4.17-1.39,1.28-2.89,2.43-4.44,3.39-1.55.96-3.15,1.75-4.75,2.34-1.63.61-3.22.94-4.71.98-.18.01-.33-.04-.47-.12l-.96-.65c-.27-.18-.41-.5-.35-.81.06-.32.3-.58.61-.64,1.78-.41,3.44-1.06,4.95-1.91,1.5-.86,2.82-1.91,3.91-3.1,1.08-1.2,1.94-2.58,2.54-4.08.6-1.52.9-3.17.9-4.92,0-1.21-.18-2.31-.53-3.26-.35-.94-.84-1.81-1.47-2.55-.63-.75-1.37-1.4-2.21-1.94-.85-.56-1.79-1.02-2.77-1.37-1-.35-2.05-.62-3.11-.79-1.7-.27-3.37-.29-5.07-.23-.38,0-.75.03-1.12.04l-1.22,37.76c.33.19.71.33,1.12.41,1.25.27,2.66.26,3.99.07.68-.1,1.28-.2,1.82-.33.64-.14,1.23-.29,1.79-.48.36-.12.78.03.97.37.18.34.1.76-.2,1.01-.86.71-1.85,1.46-2.95,2.24-1.09.78-2.29,1.49-3.54,2.15-1.26.65-2.6,1.19-3.97,1.61-1.42.44-2.86.65-4.29.65ZM48.88,11.38c.2,0,.39.08.54.23.17.15.27.38.26.62-.13,4.87-.24,9.19-.35,12.96-.11,3.76-.2,7.08-.27,9.92l-.19,7.28c-.05,2-.09,3.69-.11,5.03-.09,3.19-.13,5.16-.13,5.92-.03.6.02,1.04.17,1.37.15.34.34.6.57.8.23.19.48.32.79.39.35.09.7.14,1.04.14,1.27,0,2.56-.21,3.82-.58,1.28-.38,2.53-.89,3.7-1.5,1.14-.58,2.22-1.24,3.22-1.94-.04.01-.09.02-.14.03-1.52.19-3.12.21-4.56-.1-.78-.16-1.48-.47-2.07-.91-.21-.16-.33-.41-.33-.67l1.25-38.97c.02-.4.34-.74.75-.77.63-.04,1.27-.07,1.91-.1,1.8-.06,3.59-.04,5.38.25,1.17.19,2.31.49,3.4.87,1.1.39,2.14.9,3.1,1.52.97.64,1.84,1.39,2.57,2.26.74.89,1.33,1.91,1.74,3.04.42,1.13.62,2.42.62,3.82,0,1.94-.34,3.8-1.02,5.49-.67,1.72-1.63,3.24-2.84,4.59-1.21,1.33-2.66,2.48-4.31,3.41-.15.1-.31.17-.47.26.02,0,.04-.01.06-.01,1.5-.56,3-1.3,4.46-2.21,1.46-.91,2.88-1.99,4.19-3.21,1.33-1.22,2.51-2.54,3.5-3.93,1-1.37,1.79-2.8,2.37-4.27.57-1.42.86-2.86.86-4.27,0-1.85-.41-3.47-1.19-4.81-.82-1.36-1.89-2.49-3.21-3.36-1.34-.9-2.88-1.57-4.58-2.02-2.81-.71-5.73-.73-8.58-.54-1.12.09-2.24.19-3.38.31-1.15.11-2.33.22-3.54.3-2.04.15-4.17.17-6.4.07-.8-.04-1.56-.12-2.27-.22l-5.59,4.11c.33-.03.67-.08,1.01-.1,1.36-.15,2.74-.32,4.14-.49.03,0,.07-.01.1-.01Z"/>
          <path class="cls-21" d="M94.26,56.95h-.27c-.78-.01-1.45-.2-2.01-.57-.58-.37-1.01-.94-1.28-1.72-.25-.69-.37-1.61-.37-2.78,0-.52,0-1.46.01-2.78l.04-5.22c.01-1.69.03-3.52.05-5.49l.19-18.88c.01-1.5.04-2.77.06-3.86v-.51c.03-1.19.05-1.96.07-2.31.01-.41-.13-.65-.49-.82-1-.48-2.67-.47-4.39-.17-.83.15-1.62.32-2.4.5-.38.11-.78-.1-.93-.45-.16-.36-.03-.78.3-1,1.11-.74,2.19-1.41,3.26-2.03,1.08-.62,2.19-1.17,3.3-1.63,1.12-.47,2.27-.82,3.42-1.1,1.63-.35,3.5-.48,5.08-.29.48.06.91.16,1.28.29.43.18.77.4,1.04.68.32.34.49.78.49,1.26,0,.75,0,2.4-.03,5v1.07c0,1.35,0,3.06-.02,5.09l-.06,17.38c0,3.64-.01,7.76-.01,12.39.86.16,1.68.27,2.42.34,1.69.12,3.05.12,4.06.04.47-.04.88-.08,1.21-.13.34-.05.65-.12.92-.18.37-.08.76.12.92.47.15.36.03.78-.29.99-1.25.84-2.51,1.65-3.76,2.4-1.3.75-2.47,1.37-3.58,1.9-1.14.54-2.25.99-3.27,1.33-1.04.35-2.02.58-2.91.68-.77.07-1.44.11-2.03.11ZM88.19,10.02c1.08,0,2.01.18,2.77.54.95.45,1.44,1.28,1.41,2.35-.02.36-.03,1.1-.06,2.26v.5c-.03,1.09-.05,2.37-.07,3.86l-.19,18.88c-.02,1.98-.03,3.82-.05,5.49l-.03,5.23c-.01,1.3-.02,2.24-.02,2.76,0,.98.1,1.73.27,2.23.16.45.37.74.65.91.3.2.69.29,1.17.3.6.03,1.3-.01,2.1-.1.77-.09,1.63-.28,2.57-.59.97-.32,2-.74,3.09-1.26,1.07-.51,2.2-1.11,3.45-1.85.27-.15.54-.32.8-.47-.88,0-1.94-.01-3.16-.12-1-.07-2.09-.24-3.26-.47-.38-.07-.64-.41-.64-.78,0-4.92,0-9.26,0-13.07l.07-17.4c.01-2.03.01-3.73.01-5.09v-1.08c.03-2.58.03-4.25.03-4.98-.14-.25-.29-.34-.49-.43-.25-.09-.55-.16-.91-.2-1.39-.19-3.07-.05-4.52.28-1.06.23-2.12.57-3.15,1-.92.38-1.84.84-2.75,1.33.31-.03.61-.03.91-.03Z"/>
          <path class="cls-25" d="M153.03,57.13s-.06,0-.08,0c-.32-.05-.58-.25-.68-.55-.3-.86-.77-1.78-1.43-2.75-.68-1-1.38-1.96-2.09-2.83-.84-1-1.73-2.01-2.68-3.01-1.13-1.12-2.89-2.86-5.29-5.2l-8.46-8.28c-1.64-1.59-3.45-3.38-5.46-5.34l-.78-.75c-1.94-1.89-4.06-4-6.38-6.29l-.23,15.14c-.01,1.23-.03,2.29-.03,3.19-.03,2.09-.03,3.58-.03,4.48-.02.63.03,1.18.17,1.68.12.45.3.86.56,1.19.23.32.55.56.95.73.84.39,2.14.38,3.82-.05.89-.24,1.93-.62,3.07-1.15.36-.17.78-.06,1,.27.23.32.19.76-.1,1.04-1.04,1.03-2.06,1.94-3.02,2.72-.96.77-1.87,1.43-2.71,1.97-.86.56-1.64,1.01-2.36,1.36-.71.35-1.37.65-1.96.84-1.43.5-2.71.72-3.8.62-1.15-.24-1.87-.71-2.23-1.4-.31-.59-.46-1.37-.46-2.42,0-6.65.11-13.41.34-20.07.23-6.56.36-13.24.36-19.81v-2.51c0-.61-.01-1.06-.05-1.33-.01-.12,0-.24.03-.34.21-.66.59-1.36,1.19-2.14.45-.65,1.14-1.42,2-2.31.86-.88,2.03-1.86,3.54-3,.29-.2.69-.2.97,0,.28.23.4.61.27.94-.15.4-.26.78-.31,1.14-.06.4-.09.77-.09,1.11,0,.55.05,1.06.15,1.46.11.42.23.78.38,1.07.17.34.36.65.57.95.69.84,1.62,1.88,2.75,3.05,1.15,1.2,2.49,2.54,4.02,4.05l5.05,4.98c1.84,1.83,3.81,3.82,5.91,5.98,1.48,1.39,3.06,2.92,4.74,4.59,1.43,1.4,3.07,3.05,4.89,4.96,1.39,1.46,2.81,2.98,4.24,4.57.04-3.08.05-5.78.08-8.13.02-2.86.03-5.34.03-7.46,0-1.95,0-3.56-.01-4.84-.01-1.26-.03-2.27-.06-3.05-.01-.87-.04-1.56-.06-2.07,0-.65-.08-1.15-.25-1.55-.16-.37-.36-.65-.59-.85-.25-.2-.53-.35-.84-.43-.8-.22-1.59-.19-2.29-.01-.45.11-.66.22-.74.29-.34.25-.83.19-1.11-.16-.26-.33-.22-.82.11-1.11.91-.77,1.81-1.51,2.7-2.2.91-.69,1.85-1.3,2.79-1.81.95-.51,1.97-.93,3.01-1.24,1.79-.51,3.83-.62,5.79-.22.34.07.59.34.64.68.05.35-.13.68-.44.83-.17.08-.28.18-.36.32-.13.21-.22.4-.29.59-.06.23-.12.51-.16.81-.02.21-.05.75-.08,1.59l-.13,3.33c-.05,1.34-.1,2.83-.16,4.48l-.18,5.16c-.06,1.78-.12,3.56-.18,5.33-.05,1.77-.1,3.44-.16,5.01-.06,1.55-.1,2.95-.13,4.17l-.08,2.88c-.04,1.4-.11,2.53-.19,3.41-.08.89-.21,1.66-.37,2.29-.18.64-.37,1.19-.62,1.65-.22.41-.45.85-.71,1.3-.17.37-.47.94-.86,1.68-.35.62-.82,1.46-1.41,2.51-.59,1.03-1.35,2.35-2.27,3.91-.15.25-.41.41-.7.41ZM114.62,8.57c.02.32.05.78.05,1.35v2.51c0,6.59-.12,13.28-.36,19.85-.23,6.65-.36,13.39-.36,20.03,0,.95.16,1.45.28,1.68.16.31.65.47,1.04.55.78.04,1.82-.12,3.03-.55.53-.19,1.13-.44,1.79-.75.67-.33,1.39-.76,2.2-1.28.75-.49,1.58-1.08,2.46-1.79-1.81.4-3.24.32-4.33-.16-.63-.28-1.15-.7-1.55-1.21-.38-.51-.67-1.08-.85-1.76-.16-.65-.25-1.37-.22-2.11,0-.87,0-2.37.03-4.48,0-.9.01-1.96.03-3.2l.26-17.02c0-.32.2-.62.5-.73.3-.12.64-.05.87.17,2.85,2.8,5.42,5.34,7.73,7.61l.77.75c2,1.96,3.82,3.74,5.46,5.34l8.47,8.28c2.39,2.35,4.16,4.11,5.3,5.24.98,1.02,1.91,2.07,2.77,3.1.74.91,1.48,1.91,2.18,2.95.37.55.69,1.09.96,1.62.57-.97,1.05-1.8,1.46-2.51.58-1.03,1.05-1.86,1.39-2.48.37-.7.66-1.26.84-1.65.28-.49.51-.92.72-1.32.18-.34.34-.78.48-1.3.14-.54.25-1.24.33-2.05.09-.86.14-1.96.19-3.3l.08-2.86c.03-1.23.08-2.64.13-4.19.05-1.57.11-3.23.16-5,.05-1.79.11-3.56.17-5.34l.18-5.14c.05-1.67.1-3.17.16-4.5l.12-3.32c.03-.9.07-1.47.09-1.71.05-.4.12-.76.22-1.11.06-.2.14-.38.23-.56-1.26-.08-2.47.07-3.57.38-.94.27-1.85.65-2.7,1.11-.86.47-1.72,1.03-2.57,1.67-.07.06-.14.12-.21.17.33.03.67.1,1,.18.54.14,1.02.41,1.44.76.43.36.78.85,1.04,1.44.26.6.38,1.33.38,2.17.03.47.04,1.18.07,2.06.01.77.03,1.8.05,3.08,0,1.28.01,2.88.01,4.85,0,2.11-.01,4.6-.03,7.47-.02,2.87-.05,6.27-.1,10.21,0,.34-.21.64-.52.75-.32.12-.67.03-.89-.22-1.89-2.13-3.78-4.17-5.6-6.06-1.81-1.89-3.43-3.54-4.86-4.94-1.66-1.65-3.24-3.17-4.74-4.59-2.11-2.18-4.08-4.16-5.92-5.98l-5.05-4.99c-1.53-1.5-2.88-2.86-4.04-4.06-1.16-1.2-2.13-2.28-2.87-3.2-.29-.39-.52-.78-.74-1.21-.2-.4-.36-.87-.49-1.4-.13-.54-.19-1.15-.19-1.84,0-.18,0-.36,0-.54-.64.54-1.19,1.04-1.63,1.48-.81.82-1.44,1.54-1.86,2.13-.44.57-.73,1.06-.89,1.5Z"/>
        </g>
        <g>
          <path class="cls-26" d="M11.44,57.31c-1.84,0-3.48-.18-4.89-.55-1.41-.36-2.6-.82-3.55-1.34-1-.54-1.73-1.11-2.24-1.72-.61-.74-.85-1.37-.73-1.94.05-.47.3-1.02.74-1.6.4-.51.98-1.06,1.74-1.65.72-.54,1.62-1.13,2.74-1.82,1.1-.66,2.42-1.37,3.93-2.13.35-.19.79-.08,1.02.25.23.34.19.78-.1,1.06-.41.39-.62.75-.6.98.03.27.23.56.6.83.48.36,1.13.68,1.93.96.84.3,1.76.54,2.72.74.96.19,1.94.34,2.92.46.97.1,1.84.15,2.58.15,1.25,0,2.5-.14,3.73-.4,1.2-.27,2.3-.67,3.26-1.24.92-.53,1.69-1.27,2.27-2.15.56-.87.85-1.93.85-3.17,0-.73-.15-1.5-.46-2.29-.3-.78-.82-1.56-1.57-2.3-.76-.78-1.81-1.52-3.12-2.22-1.33-.7-3.02-1.32-5.03-1.84-3.19-.84-5.92-1.72-8.11-2.61-2.22-.92-4.04-1.92-5.42-2.97-1.42-1.11-2.43-2.34-2.99-3.67s-.78-2.83-.64-4.45c.14-1.85.71-3.56,1.7-5.09.96-1.5,2.21-2.84,3.69-4.02,1.47-1.16,3.13-2.18,4.94-3.04,1.78-.84,3.63-1.54,5.5-2.09,1.86-.56,3.69-1,5.45-1.25,3.1-.49,5.63-.49,7.72-.29.92.08,1.75.19,2.48.3.75.12,1.39.24,1.91.39.53.14.91.27,1.13.36.01,0,.02,0,.03.03.68.29,1.06.84,1.04,1.52-.01.49-.19,1-.55,1.59-.32.5-.75,1.03-1.29,1.57-.52.51-1.08,1.04-1.7,1.57-.52.42-1.1.87-1.75,1.35-.56.43-1.24.93-2.06,1.48-.81.56-1.73,1.15-2.77,1.8-.35.22-.81.14-1.07-.21-.25-.32-.21-.8.09-1.07.63-.58.92-1,1.06-1.24.17-.32.25-.58.25-.81,0-.26-.1-.47-.33-.69-.31-.3-.72-.55-1.23-.76-.55-.22-1.18-.41-1.86-.54-.71-.15-1.41-.25-2.08-.33-.67-.07-1.29-.11-1.85-.14-.56-.02-.98-.03-1.25-.03-1.07,0-2.18.1-3.28.32-1.06.21-2.02.56-2.86,1.03-.8.47-1.47,1.08-1.98,1.84-.48.73-.73,1.66-.73,2.77,0,1.29.34,2.35,1.04,3.24.75.95,1.75,1.81,2.98,2.51,1.28.74,2.75,1.39,4.37,1.95,1.67.58,3.36,1.13,5.07,1.65,1.73.52,3.4,1.06,5.02,1.59,1.65.55,3.12,1.19,4.36,1.89,1.71,1.02,2.96,2.22,3.72,3.6.76,1.36,1.15,2.83,1.15,4.35,0,1.94-.52,3.8-1.54,5.53-1,1.68-2.3,3.25-3.88,4.69-1.56,1.43-3.36,2.73-5.35,3.87-1.96,1.11-3.98,2.09-6.01,2.9-2.01.81-3.99,1.43-5.89,1.87-1.91.44-3.6.66-5.03.66ZM7.91,47.04c-.67.37-1.28.71-1.83,1.04-1.07.65-1.92,1.21-2.59,1.73-.64.47-1.13.93-1.44,1.33-.32.42-.42.7-.43.87-.01.04.01.22.38.66.37.45.97.89,1.77,1.33.84.45,1.91.86,3.19,1.2,2.25.59,5.02.84,9.14-.12,1.82-.42,3.72-1.03,5.66-1.79,1.95-.77,3.91-1.72,5.8-2.81,1.89-1.08,3.6-2.31,5.07-3.65,1.46-1.33,2.66-2.79,3.57-4.33.88-1.47,1.32-3.06,1.32-4.71,0-1.24-.31-2.44-.94-3.57-.62-1.11-1.68-2.12-3.12-2.99-1.14-.64-2.51-1.24-4.06-1.75-1.61-.54-3.27-1.07-4.98-1.58-1.73-.54-3.44-1.08-5.13-1.67-1.72-.59-3.28-1.3-4.65-2.09-1.41-.81-2.56-1.8-3.44-2.9-.92-1.18-1.39-2.61-1.39-4.24,0-1.44.34-2.68,1-3.68.65-.96,1.49-1.75,2.52-2.33.99-.56,2.12-.97,3.36-1.21,1.2-.23,2.41-.36,3.59-.36.28,0,.72.01,1.31.03.6.03,1.25.08,1.97.16.72.07,1.46.18,2.22.34.78.16,1.5.37,2.16.63.69.28,1.26.65,1.72,1.07.55.54.83,1.16.83,1.87,0,.05,0,.1,0,.12.75-.51,1.38-.96,1.91-1.36.65-.47,1.2-.91,1.68-1.3.58-.49,1.11-.97,1.6-1.47.45-.46.81-.89,1.06-1.28.25-.41.3-.66.31-.8l.25-.76-.3.77c-.2-.08-.53-.19-.98-.32-.46-.13-1.04-.25-1.72-.35-.7-.1-1.5-.19-2.39-.28-1.96-.18-4.35-.18-7.33.28-1.69.25-3.45.66-5.23,1.19-1.8.54-3.57,1.21-5.28,2.03-1.7.8-3.25,1.76-4.62,2.84-1.35,1.06-2.47,2.28-3.34,3.62-.84,1.29-1.33,2.76-1.44,4.35-.12,1.37.06,2.59.51,3.67.46,1.08,1.29,2.09,2.5,3.02,1.25.98,2.95,1.89,5.04,2.75,2.13.87,4.79,1.72,7.91,2.55,2.12.54,3.93,1.21,5.37,1.96,1.46.78,2.64,1.62,3.52,2.51.9.91,1.54,1.87,1.93,2.86.38.98.57,1.94.57,2.87,0,1.57-.37,2.92-1.11,4.05-.72,1.1-1.66,1.99-2.8,2.66-1.11.66-2.37,1.13-3.74,1.43-1.34.29-2.71.42-4.07.42-.8,0-1.72-.05-2.75-.16-1.04-.1-2.07-.27-3.08-.47-1.03-.21-2.02-.49-2.93-.8-.96-.32-1.76-.73-2.37-1.19-.73-.55-1.14-1.19-1.23-1.94Z"/>
          <path class="cls-23" d="M51.19,56.99c-.47,0-.96-.05-1.44-.18-.53-.14-1.01-.38-1.42-.73-.41-.36-.75-.81-1.01-1.36-.25-.58-.36-1.27-.31-2.09,0-.73.04-2.71.13-5.9.02-1.35.06-3.02.11-5.04l.19-7.29c.07-2.84.16-6.14.27-9.91.1-3.51.21-7.52.33-12.03-1.1.14-2.18.26-3.24.37-1.37.15-2.68.28-3.95.38-.35.08-.7-.17-.82-.51-.12-.34-.01-.72.27-.93l8.22-6.03c.17-.14.39-.19.61-.16.74.12,1.56.21,2.43.25,2.15.1,4.22.08,6.21-.06,1.19-.08,2.35-.19,3.49-.3,1.15-.12,2.29-.23,3.42-.3,3.02-.25,6.12-.19,9.1.58,1.87.48,3.58,1.24,5.07,2.23,1.52,1.01,2.76,2.31,3.69,3.88.95,1.59,1.43,3.49,1.43,5.64,0,1.61-.33,3.25-.97,4.86-.63,1.59-1.5,3.15-2.57,4.63-1.06,1.46-2.31,2.86-3.71,4.16-1.39,1.28-2.89,2.42-4.44,3.4-1.55.97-3.15,1.76-4.75,2.35-1.63.6-3.22.93-4.71.98-.18,0-.33-.05-.47-.13l-.96-.65c-.27-.18-.41-.49-.35-.82.06-.32.3-.56.61-.64,1.78-.41,3.44-1.04,4.95-1.91,1.5-.84,2.82-1.89,3.91-3.1,1.08-1.19,1.94-2.57,2.54-4.09.6-1.51.9-3.16.9-4.91,0-1.2-.18-2.29-.53-3.25-.35-.95-.84-1.81-1.47-2.53-.63-.75-1.37-1.41-2.21-1.96-.85-.55-1.79-1.01-2.77-1.36-1-.35-2.05-.62-3.11-.78-1.7-.29-3.37-.3-5.07-.24-.38.02-.75.03-1.12.05l-1.22,37.76c.33.19.71.33,1.12.42,1.25.27,2.66.25,3.99.06.68-.09,1.28-.19,1.82-.33.64-.14,1.23-.3,1.79-.48.36-.13.78.03.97.38.18.34.1.76-.2,1.01-.86.7-1.85,1.46-2.95,2.23-1.09.78-2.29,1.49-3.54,2.13-1.26.66-2.6,1.21-3.97,1.62-1.42.43-2.86.65-4.29.65ZM48.88,10.75c.2,0,.39.07.54.21.17.17.27.38.26.62-.13,4.89-.24,9.2-.35,12.96-.11,3.78-.2,7.07-.27,9.92l-.19,7.28c-.05,2.02-.09,3.69-.11,5.03-.09,3.18-.13,5.16-.13,5.93-.03.59.02,1.03.17,1.35.15.34.34.61.57.8.23.18.48.32.79.4.35.08.7.12,1.04.12,1.27,0,2.56-.18,3.82-.56,1.28-.39,2.53-.89,3.7-1.5,1.14-.6,2.22-1.25,3.22-1.94-.04,0-.09,0-.14.02-1.52.2-3.12.22-4.56-.1-.78-.17-1.48-.48-2.07-.91-.21-.15-.33-.41-.33-.67l1.25-38.95c.02-.42.34-.75.75-.78.63-.04,1.27-.08,1.91-.1,1.8-.07,3.59-.04,5.38.25,1.17.19,2.31.48,3.4.87,1.1.39,2.14.9,3.1,1.52.97.62,1.84,1.39,2.57,2.27.74.88,1.33,1.89,1.74,3.03.42,1.14.62,2.42.62,3.81,0,1.96-.34,3.8-1.02,5.51-.67,1.71-1.63,3.24-2.84,4.58-1.21,1.33-2.66,2.48-4.31,3.42-.15.09-.31.18-.47.26.02,0,.04,0,.06-.01,1.5-.56,3-1.3,4.46-2.21,1.46-.91,2.88-1.99,4.19-3.21,1.33-1.23,2.51-2.54,3.5-3.93,1-1.37,1.79-2.81,2.37-4.27.57-1.41.86-2.86.86-4.26,0-1.86-.41-3.48-1.19-4.8-.82-1.36-1.89-2.5-3.21-3.38-1.34-.9-2.88-1.57-4.58-2-2.81-.71-5.73-.75-8.58-.54-1.12.08-2.24.18-3.38.3-1.15.12-2.33.21-3.54.3-2.04.15-4.17.18-6.4.07-.8-.04-1.56-.11-2.27-.22l-5.59,4.11c.33-.03.67-.07,1.01-.1,1.36-.15,2.74-.32,4.14-.49h.1Z"/>
          <path class="cls-24" d="M94.26,56.31h-.27c-.78-.02-1.45-.21-2.01-.56-.58-.38-1.01-.95-1.28-1.72-.25-.69-.37-1.6-.37-2.77,0-.54,0-1.46.01-2.78l.04-5.24c.01-1.68.03-3.52.05-5.49l.19-18.88c.01-1.49.04-2.79.06-3.86v-.51c.03-1.2.05-1.97.07-2.31.01-.41-.13-.64-.49-.82-1-.48-2.67-.47-4.39-.17-.83.14-1.62.32-2.4.49-.38.1-.78-.1-.93-.45-.16-.36-.03-.78.3-1,1.11-.74,2.19-1.42,3.26-2.05,1.08-.61,2.19-1.16,3.3-1.63,1.12-.47,2.27-.83,3.42-1.08,1.63-.36,3.5-.49,5.08-.29.48.05.91.15,1.28.29.43.17.77.4,1.04.66.32.34.49.78.49,1.27,0,.74,0,2.4-.03,5v1.06c0,1.37,0,3.07-.02,5.1l-.06,17.39c0,3.63-.01,7.76-.01,12.39.86.15,1.68.26,2.42.32,1.69.12,3.05.14,4.06.05.47-.04.88-.08,1.21-.13.34-.05.65-.12.92-.17.37-.08.76.1.92.47.15.35.03.76-.29.99-1.25.85-2.51,1.65-3.76,2.38-1.3.76-2.47,1.39-3.58,1.92-1.14.54-2.25.99-3.27,1.33-1.04.34-2.02.58-2.91.66-.77.1-1.44.12-2.03.12ZM88.19,9.38c1.08,0,2.01.18,2.77.54.95.45,1.44,1.28,1.41,2.35-.02.36-.03,1.1-.06,2.26v.52c-.03,1.07-.05,2.36-.07,3.86l-.19,18.87c-.02,1.98-.03,3.8-.05,5.49l-.03,5.23c-.01,1.3-.02,2.22-.02,2.77,0,.97.1,1.72.27,2.23.16.44.37.73.65.91.3.18.69.29,1.17.29.6.01,1.3-.03,2.1-.11.77-.07,1.63-.28,2.57-.59.97-.32,2-.74,3.09-1.25,1.07-.51,2.2-1.13,3.45-1.84.27-.17.54-.33.8-.49-.88.02-1.94,0-3.16-.1-1-.08-2.09-.25-3.26-.49-.38-.08-.64-.41-.64-.79,0-4.89,0-9.25,0-13.06l.07-17.4c.01-2.02.01-3.72.01-5.09v-1.08c.03-2.59.03-4.25.03-4.98-.14-.25-.29-.35-.49-.42-.25-.1-.55-.17-.91-.21-1.39-.19-3.07-.06-4.52.27-1.06.23-2.12.57-3.15,1-.92.38-1.84.83-2.75,1.34.31-.02.61-.03.91-.03Z"/>
          <path class="cls-22" d="M153.03,56.48h-.08c-.32-.03-.58-.25-.68-.54-.3-.86-.77-1.8-1.43-2.77-.68-1-1.38-1.96-2.09-2.83-.84-.99-1.73-2-2.68-2.99-1.13-1.11-2.89-2.86-5.29-5.21l-8.46-8.27c-1.64-1.59-3.45-3.36-5.46-5.35l-.78-.75c-1.94-1.91-4.06-4-6.38-6.28l-.23,15.14c-.01,1.22-.03,2.28-.03,3.17-.03,2.1-.03,3.6-.03,4.49-.02.62.03,1.18.17,1.68.12.47.3.87.56,1.19.23.32.55.56.95.73.84.39,2.14.38,3.82-.05.89-.24,1.93-.63,3.07-1.15.36-.17.78-.05,1,.26.23.33.19.77-.1,1.04-1.04,1.03-2.06,1.94-3.02,2.72-.96.77-1.87,1.43-2.71,1.96-.86.58-1.64,1.02-2.36,1.37-.71.35-1.37.64-1.96.86-1.43.49-2.71.71-3.8.6-1.15-.23-1.87-.7-2.23-1.4-.31-.59-.46-1.39-.46-2.42,0-6.66.11-13.41.34-20.08.23-6.56.36-13.22.36-19.8v-2.5c0-.62-.01-1.06-.05-1.33-.01-.12,0-.23.03-.35.21-.65.59-1.35,1.19-2.15.45-.62,1.14-1.41,2-2.29.86-.89,2.03-1.87,3.54-3,.29-.22.69-.22.97,0,.28.22.4.59.27.93-.15.4-.26.79-.31,1.14-.06.39-.09.75-.09,1.11,0,.56.05,1.04.15,1.46.11.43.23.78.38,1.06.17.34.36.67.57.95.69.84,1.62,1.89,2.75,3.05,1.15,1.19,2.49,2.54,4.02,4.05l5.05,4.98c1.84,1.83,3.81,3.82,5.91,5.99,1.48,1.39,3.06,2.92,4.74,4.57,1.43,1.41,3.07,3.08,4.89,4.97,1.39,1.45,2.81,2.97,4.24,4.56.04-3.08.05-5.78.08-8.13.02-2.86.03-5.36.03-7.47,0-1.94,0-3.56-.01-4.82-.01-1.26-.03-2.29-.06-3.05-.01-.87-.04-1.55-.06-2.07,0-.65-.08-1.15-.25-1.55-.16-.37-.36-.65-.59-.85-.25-.21-.53-.34-.84-.43-.8-.21-1.59-.18-2.29,0-.45.11-.66.22-.74.29-.34.25-.83.18-1.11-.16-.26-.34-.22-.83.11-1.12.91-.78,1.81-1.5,2.7-2.18.91-.71,1.85-1.32,2.79-1.83.95-.51,1.97-.93,3.01-1.25,1.79-.51,3.83-.61,5.79-.21.34.07.59.34.64.69.05.34-.13.68-.44.83-.17.08-.28.18-.36.32-.13.21-.22.4-.29.6-.06.23-.12.51-.16.8-.02.21-.05.75-.08,1.59l-.13,3.33c-.05,1.34-.1,2.83-.16,4.48l-.18,5.15c-.06,1.79-.12,3.56-.18,5.33-.05,1.78-.1,3.45-.16,5.01-.06,1.55-.1,2.95-.13,4.19l-.08,2.87c-.04,1.39-.11,2.53-.19,3.41-.08.89-.21,1.66-.37,2.29-.18.65-.37,1.2-.62,1.65-.22.42-.45.86-.71,1.31-.17.36-.47.93-.86,1.67-.35.65-.82,1.47-1.41,2.51-.59,1.04-1.35,2.34-2.27,3.91-.15.25-.41.39-.7.39ZM114.62,7.92c.02.33.05.78.05,1.36v2.5c0,6.6-.12,13.28-.36,19.85-.23,6.66-.36,13.39-.36,20.03,0,.95.16,1.45.28,1.7.16.29.65.45,1.04.54.78.04,1.82-.12,3.03-.55.53-.18,1.13-.44,1.79-.77.67-.32,1.39-.74,2.2-1.27.75-.49,1.58-1.08,2.46-1.78-1.81.39-3.24.32-4.33-.17-.63-.3-1.15-.69-1.55-1.22-.38-.51-.67-1.1-.85-1.77-.16-.65-.25-1.36-.22-2.12,0-.87,0-2.36.03-4.48,0-.88.01-1.95.03-3.2l.26-17.01c0-.32.2-.61.5-.73.3-.13.64-.05.87.17,2.85,2.81,5.42,5.34,7.73,7.61l.77.76c2,1.96,3.82,3.75,5.46,5.34l8.47,8.27c2.39,2.36,4.16,4.11,5.3,5.25.98,1.02,1.91,2.07,2.77,3.1.74.91,1.48,1.9,2.18,2.95.37.55.69,1.09.96,1.62.57-.96,1.05-1.8,1.46-2.51.58-1.04,1.05-1.85,1.39-2.48.37-.69.66-1.26.84-1.66.28-.49.51-.91.72-1.3.18-.35.34-.79.48-1.31.14-.54.25-1.22.33-2.03.09-.86.14-1.96.19-3.31l.08-2.86c.03-1.23.08-2.63.13-4.19.05-1.57.11-3.23.16-5.01.05-1.77.11-3.54.17-5.33l.18-5.14c.05-1.66.1-3.17.16-4.5l.12-3.31c.03-.91.07-1.48.09-1.72.05-.42.12-.77.22-1.11.06-.21.14-.38.23-.56-1.26-.08-2.47.07-3.57.38-.94.27-1.85.65-2.7,1.11-.86.47-1.72,1.03-2.57,1.67-.07.05-.14.1-.21.16.33.03.67.09,1,.19.54.14,1.02.39,1.44.75.43.36.78.84,1.04,1.46.26.59.38,1.31.38,2.14.03.48.04,1.19.07,2.06.01.78.03,1.8.05,3.08,0,1.28.01,2.9.01,4.84,0,2.11-.01,4.61-.03,7.48-.02,2.86-.05,6.27-.1,10.2,0,.34-.21.65-.52.75-.32.12-.67.02-.89-.22-1.89-2.12-3.78-4.17-5.6-6.06-1.81-1.89-3.43-3.53-4.86-4.93-1.66-1.65-3.24-3.17-4.74-4.59-2.11-2.17-4.08-4.17-5.92-5.98l-5.05-4.99c-1.53-1.51-2.88-2.87-4.04-4.06-1.16-1.21-2.13-2.27-2.87-3.2-.29-.38-.52-.78-.74-1.21-.2-.4-.36-.87-.49-1.39-.13-.55-.19-1.15-.19-1.85,0-.18,0-.36,0-.54-.64.54-1.19,1.03-1.63,1.48-.81.82-1.44,1.54-1.86,2.11-.44.58-.73,1.08-.89,1.51Z"/>
        </g>
      </g>
      <g>
        <path class="cls-27" d="M37.27,6.7c.38.18.57.44.56.78-.01.34-.16.74-.43,1.19-.28.45-.67.93-1.17,1.43-.5.5-1.05,1.01-1.65,1.52-.49.41-1.06.85-1.7,1.32-.56.43-1.24.92-2.04,1.46-.8.54-1.72,1.15-2.75,1.79.58-.55.98-1.02,1.22-1.46.23-.43.35-.82.35-1.19,0-.49-.19-.91-.58-1.28-.38-.36-.88-.67-1.48-.91-.6-.24-1.27-.45-2-.6-.74-.14-1.46-.26-2.15-.34-.69-.07-1.33-.12-1.91-.14-.58-.01-1.01-.03-1.28-.03-1.13,0-2.28.11-3.43.34-1.16.22-2.19.59-3.11,1.11-.92.54-1.67,1.23-2.25,2.09-.58.88-.87,1.94-.87,3.23,0,1.46.41,2.7,1.22,3.74.81,1.04,1.88,1.95,3.21,2.72,1.32.76,2.83,1.44,4.51,2.02,1.68.58,3.38,1.13,5.1,1.65,1.72.54,3.39,1.06,5,1.59,1.61.54,3.02,1.14,4.22,1.83,1.58.95,2.72,2.04,3.41,3.28.7,1.26,1.04,2.58,1.04,3.97,0,1.81-.47,3.5-1.43,5.12-.95,1.61-2.19,3.12-3.72,4.5-1.53,1.39-3.27,2.64-5.21,3.76-1.95,1.11-3.92,2.06-5.9,2.86-1.99.78-3.92,1.4-5.78,1.83-1.86.42-3.48.63-4.84.63-1.78,0-3.34-.17-4.69-.52-1.35-.36-2.47-.78-3.37-1.27-.9-.49-1.57-1-2.01-1.52-.44-.51-.62-.94-.56-1.26.04-.39.24-.81.59-1.27.36-.47.89-.97,1.59-1.49.71-.54,1.59-1.13,2.66-1.77,1.07-.63,2.37-1.35,3.88-2.12-.62.61-.9,1.15-.83,1.67.06.51.36.98.91,1.38.54.41,1.26.78,2.15,1.08.89.32,1.83.56,2.82.77,1,.21,1.99.36,3,.45,1.01.12,1.89.18,2.66.18,1.3,0,2.6-.14,3.9-.42,1.29-.28,2.46-.73,3.49-1.34,1.04-.6,1.88-1.41,2.54-2.4.65-1,.98-2.2.98-3.61,0-.83-.17-1.69-.51-2.58-.34-.89-.93-1.74-1.75-2.58-.82-.83-1.93-1.62-3.32-2.35-1.39-.73-3.12-1.37-5.19-1.91-3.17-.82-5.84-1.7-8-2.58-2.18-.89-3.92-1.83-5.23-2.86-1.32-1.02-2.23-2.13-2.75-3.34-.51-1.21-.7-2.56-.58-4.06.13-1.73.65-3.31,1.57-4.72.92-1.43,2.09-2.71,3.52-3.82,1.42-1.12,3.01-2.09,4.78-2.93,1.76-.84,3.56-1.52,5.39-2.07,1.83-.54,3.61-.95,5.35-1.21,1.73-.27,3.27-.41,4.62-.41,1.03,0,1.99.06,2.9.14.91.08,1.72.17,2.44.29.71.1,1.32.23,1.81.36.49.14.84.26,1.06.33Z"/>
        <path class="cls-9" d="M65.44,49.74c-.86.7-1.83,1.43-2.91,2.19-1.08.76-2.22,1.46-3.45,2.09-1.22.62-2.5,1.15-3.84,1.56-1.34.4-2.68.6-4.05.6-.41,0-.82-.05-1.24-.15-.41-.12-.78-.3-1.1-.56-.32-.27-.58-.62-.78-1.08-.21-.45-.29-1.02-.24-1.7,0-.77.04-2.75.12-5.93.02-1.36.06-3.04.12-5.04.05-2.02.12-4.44.19-7.3.07-2.83.16-6.14.27-9.91.1-3.78.22-8.09.35-12.96-1.41.18-2.8.33-4.16.48-1.36.14-2.67.27-3.93.38l8.21-6.04c.79.14,1.63.23,2.52.26.89.04,1.76.05,2.62.05,1.26,0,2.49-.03,3.69-.12,1.2-.09,2.37-.19,3.51-.31,1.15-.11,2.28-.22,3.4-.29,1.13-.1,2.26-.14,3.39-.14,1.84,0,3.66.23,5.45.69,1.8.47,3.41,1.17,4.83,2.11,1.42.95,2.57,2.16,3.45,3.62.88,1.47,1.32,3.2,1.32,5.22,0,1.5-.3,3.04-.91,4.57-.61,1.53-1.44,3.02-2.48,4.45-1.03,1.43-2.24,2.78-3.61,4.04-1.37,1.26-2.81,2.36-4.31,3.31-1.51.93-3.05,1.7-4.61,2.27-1.57.58-3.05.89-4.46.93l-.96-.64c1.86-.44,3.58-1.1,5.17-2,1.58-.88,2.95-1.97,4.1-3.25,1.15-1.28,2.06-2.72,2.7-4.34.64-1.61.96-3.35.96-5.21,0-1.31-.2-2.48-.58-3.54-.38-1.04-.92-1.96-1.6-2.79-.69-.81-1.48-1.51-2.39-2.1-.91-.58-1.88-1.07-2.93-1.44-1.05-.38-2.14-.64-3.26-.83-1.12-.19-2.24-.28-3.35-.28-.62,0-1.25.01-1.88.03-.62.03-1.25.06-1.87.1l-1.25,38.96c.49.36,1.08.62,1.76.76.69.15,1.39.22,2.12.22s1.44-.04,2.14-.14c.71-.1,1.34-.2,1.9-.33.66-.15,1.28-.32,1.86-.51Z"/>
        <path class="cls-10" d="M109.37,49.23c-1.26.86-2.51,1.64-3.72,2.35-1.22.71-2.39,1.35-3.52,1.88-1.13.53-2.18.97-3.18,1.3-1,.34-1.92.54-2.75.62-.83.08-1.56.12-2.19.11-.63-.01-1.16-.16-1.59-.42-.43-.29-.75-.73-.96-1.32-.22-.6-.33-1.44-.33-2.51,0-.54,0-1.46.02-2.78.01-1.3.02-2.88.03-4.72.01-1.83.02-3.82.05-6.01.02-2.16.04-4.37.07-6.58.01-2.22.04-4.39.06-6.51.01-2.12.04-4.04.06-5.77.02-1.72.05-3.19.06-4.36.03-1.18.05-1.95.07-2.28.02-.74-.29-1.28-.95-1.59-.65-.3-1.46-.47-2.42-.47-.79,0-1.61.08-2.46.23-.84.15-1.66.32-2.45.51,1.09-.72,2.16-1.39,3.22-2,1.06-.61,2.13-1.14,3.21-1.59,1.08-.44,2.17-.8,3.29-1.04,1.11-.25,2.27-.37,3.47-.37.47,0,.91.03,1.33.09.42.05.78.13,1.09.25.31.12.56.27.73.45.18.21.27.44.27.72,0,.83-.01,2.85-.03,6.06,0,1.37,0,3.08-.01,5.09-.01,2.03-.03,4.49-.03,7.37,0,2.88-.02,6.22-.03,10.02,0,3.8-.01,8.16-.01,13.06,1.15.23,2.21.39,3.16.47.95.08,1.81.11,2.55.11.62,0,1.17-.01,1.65-.06.49-.05.9-.09,1.24-.13.38-.06.72-.12,1-.19Z"/>
        <path class="cls-11" d="M161.69,4.94c-.3.16-.53.36-.69.62-.16.25-.28.51-.37.77-.08.3-.15.62-.19.95-.02.26-.05.8-.08,1.69-.03.87-.08,1.97-.12,3.31-.05,1.34-.11,2.83-.16,4.5-.05,1.65-.11,3.37-.17,5.14-.07,1.76-.12,3.55-.18,5.33-.05,1.77-.1,3.43-.16,4.99-.05,1.57-.1,2.96-.14,4.19-.03,1.24-.05,2.18-.07,2.86-.06,1.37-.11,2.49-.19,3.36-.1.87-.21,1.59-.36,2.17-.15.58-.33,1.07-.55,1.48-.21.41-.45.84-.7,1.28-.19.41-.49.97-.87,1.7-.34.62-.8,1.46-1.39,2.49-.59,1.04-1.35,2.33-2.27,3.89-.32-.94-.82-1.92-1.52-2.95-.69-1.02-1.4-1.99-2.13-2.88-.85-1.03-1.76-2.05-2.72-3.05-1.13-1.14-2.9-2.88-5.29-5.24-1.03-1-2.24-2.18-3.63-3.54-1.39-1.35-3.01-2.93-4.84-4.73-1.85-1.79-3.92-3.83-6.23-6.1-2.31-2.27-4.88-4.79-7.73-7.6-.04,2.61-.08,4.96-.11,7.06-.03,2.09-.05,3.98-.08,5.63-.02,1.66-.05,3.1-.07,4.33-.02,1.23-.03,2.3-.03,3.19-.02,2.1-.03,3.59-.03,4.49-.03.69.04,1.31.19,1.88.15.57.38,1.08.7,1.48.33.42.74.75,1.26.97.51.24,1.13.36,1.86.36s1.56-.13,2.5-.37c.95-.25,2.02-.65,3.21-1.21-1.04,1.02-2.04,1.91-2.97,2.66-.93.74-1.81,1.39-2.64,1.92-.82.54-1.58.97-2.28,1.32-.69.34-1.32.62-1.87.8-1.32.47-2.49.66-3.47.57-.81-.17-1.35-.48-1.59-.96-.25-.47-.37-1.15-.37-2.05,0-6.74.12-13.42.35-20.05.24-6.62.36-13.24.36-19.83v-2.5c0-.66-.02-1.15-.07-1.45.18-.56.53-1.19,1.06-1.89.45-.62,1.09-1.36,1.94-2.21.84-.87,1.99-1.83,3.45-2.93-.16.46-.29.89-.36,1.33-.06.43-.09.84-.09,1.22,0,.61.06,1.17.17,1.65.12.48.26.89.44,1.24.19.38.41.74.64,1.04.73.91,1.67,1.96,2.82,3.16,1.15,1.21,2.5,2.55,4.03,4.06,1.53,1.5,3.21,3.17,5.05,4.98,1.83,1.81,3.8,3.8,5.9,5.96,1.5,1.42,3.09,2.94,4.75,4.59,1.44,1.41,3.06,3.07,4.88,4.96,1.82,1.89,3.69,3.91,5.61,6.08.05-3.95.08-7.35.1-10.21.02-2.86.03-5.36.03-7.47,0-1.94,0-3.56,0-4.83-.01-1.26-.03-2.29-.06-3.05-.02-.89-.04-1.58-.07-2.09,0-.71-.11-1.33-.32-1.83-.21-.5-.49-.87-.82-1.15-.33-.28-.71-.47-1.14-.59-.43-.12-.86-.18-1.28-.18-.49,0-.96.05-1.41.16-.45.1-.79.24-1.02.41.89-.77,1.79-1.5,2.66-2.17.87-.66,1.76-1.25,2.68-1.74.91-.5,1.86-.88,2.85-1.17,1-.29,2.06-.43,3.2-.43.75,0,1.48.07,2.21.22Z"/>
      </g>
    </g>
  </g>
</svg>